<?xml version="1.0" standalone="no"?>
<!DOCTYPE svg PUBLIC "-//W3C//DTD SVG 20010904//EN"
 "http://www.w3.org/TR/2001/REC-SVG-20010904/DTD/svg10.dtd">
<svg version="1.0" xmlns="http://www.w3.org/2000/svg"
 width="300.000000pt" height="300.000000pt" viewBox="0 0 300.000000 300.000000"
 preserveAspectRatio="xMidYMid meet">
<metadata>
Created by potrace 1.10, written by Peter Selinger 2001-2011
</metadata>
<g transform="translate(0.000000,300.000000) scale(0.100000,-0.100000)"
fill="#000000" stroke="none">
<path d="M91 2429 c-49 -30 -69 -57 -81 -114 -7 -35 -10 -307 -8 -845 l3 -795
24 -41 c13 -23 40 -51 61 -63 l38 -21 1372 0 1372 0 38 21 c21 12 48 40 61 63
l24 41 0 825 0 825 -24 41 c-13 23 -40 51 -61 63 l-38 21 -1373 0 c-1373 0
-1374 0 -1408 -21z m1417 -251 c15 -15 15 -51 0 -66 -9 -9 -144 -12 -544 -12
-531 0 -533 0 -548 21 -15 22 -11 48 8 61 6 4 250 8 541 8 400 0 534 -3 543
-12z m-587 -307 c17 -20 19 -40 19 -158 0 -129 -1 -135 -25 -158 -24 -25 -24
-25 -237 -25 -177 0 -217 3 -236 16 -21 14 -22 22 -22 163 0 149 5 171 40 184
8 3 111 5 228 4 211 -2 214 -2 233 -26z m-387 -527 c37 -36 2 -84 -61 -84 -32
0 -73 28 -73 50 0 6 9 19 20 30 25 25 91 27 114 4z m198 -1 c39 -35 5 -83 -59
-83 -32 0 -73 28 -73 50 0 6 9 19 20 30 25 25 86 27 112 3z m196 1 c45 -31 11
-84 -53 -84 -38 0 -75 25 -75 50 0 25 37 50 75 50 17 0 41 -7 53 -16z m423 6
c12 -7 19 -21 19 -41 0 -23 -6 -32 -27 -40 -33 -13 -93 -5 -105 13 -13 22 -9
57 10 67 22 14 78 14 103 1z m203 -3 c12 -9 17 -23 14 -42 -2 -23 -10 -31 -35
-39 -20 -5 -46 -5 -65 0 -26 8 -34 16 -36 39 -5 36 19 55 68 55 20 0 44 -6 54
-13z m197 3 c20 -11 25 -45 11 -68 -12 -18 -72 -26 -104 -13 -22 8 -28 17 -28
40 0 18 7 34 18 40 22 14 78 14 103 1z m427 -6 c45 -31 11 -84 -53 -84 -38 0
-75 25 -75 50 0 25 37 50 75 50 17 0 41 -7 53 -16z m202 -4 c11 -11 20 -24 20
-30 0 -22 -41 -50 -73 -50 -38 0 -77 24 -77 47 0 50 90 73 130 33z m200 0 c11
-11 20 -24 20 -30 0 -22 -41 -50 -73 -50 -63 0 -98 48 -61 84 23 23 89 21 114
-4z m4 -252 c13 -19 14 -25 2 -43 -13 -20 -22 -20 -546 -23 -385 -1 -537 1
-546 9 -17 14 -18 51 -2 67 9 9 144 12 544 12 l533 0 15 -22z m0 -209 c15 -22
11 -48 -8 -61 -6 -4 -165 -8 -353 -8 -297 0 -344 2 -357 16 -9 8 -16 22 -16
29 0 7 7 21 16 29 13 14 60 16 359 16 339 0 344 0 359 -21z"/>
</g>
</svg>
