<?xml version="1.0" standalone="no"?>
<!DOCTYPE svg PUBLIC "-//W3C//DTD SVG 20010904//EN"
 "http://www.w3.org/TR/2001/REC-SVG-20010904/DTD/svg10.dtd">
<svg version="1.0" xmlns="http://www.w3.org/2000/svg"
 width="170.000000pt" height="281.000000pt" viewBox="0 0 170.000000 281.000000"
 preserveAspectRatio="xMidYMid meet">
<metadata>
Created by potrace 1.10, written by Peter Selinger 2001-2011
</metadata>
<g transform="translate(0.000000,281.000000) scale(0.100000,-0.100000)"
fill="#000000" stroke="none">
<path d="M590 2660 c0 -30 0 -30 -60 -30 -60 0 -60 0 -60 -30 0 -27 -3 -30
-30 -30 -27 0 -30 -3 -30 -30 0 -27 -3 -30 -30 -30 -27 0 -30 -3 -30 -30 0
-27 -3 -30 -30 -30 -30 0 -30 0 -30 -60 0 -60 0 -60 -30 -60 l-30 0 0 -205 0
-205 -60 0 -60 0 0 -60 c0 -60 0 -60 30 -60 27 0 30 -3 30 -30 0 -27 3 -30 30
-30 27 0 30 -3 30 -30 0 -27 -3 -30 -30 -30 -30 0 -30 0 -30 -60 0 -60 0 -60
-30 -60 -27 0 -30 -3 -30 -30 0 -27 -3 -30 -30 -30 -27 0 -30 -3 -30 -30 0
-30 0 -30 60 -30 60 0 60 0 60 30 0 27 3 30 30 30 30 0 30 0 30 -60 0 -60 0
-60 -30 -60 -30 0 -30 0 -30 -60 0 -60 0 -60 -30 -60 l-30 0 0 -150 0 -150 30
0 c30 0 30 0 30 60 0 60 0 60 30 60 l30 0 0 -205 0 -205 30 0 c30 0 30 1 30
55 0 54 0 55 30 55 30 0 30 -1 30 -55 0 -54 0 -55 30 -55 27 0 30 -3 30 -30 0
-27 3 -30 30 -30 27 0 30 -3 30 -30 0 -30 0 -30 60 -30 l60 0 0 -90 0 -90 -30
0 c-27 0 -30 -3 -30 -30 0 -27 -3 -30 -30 -30 l-30 0 0 -90 0 -90 175 0 175 0
0 210 0 210 30 0 30 0 0 -210 0 -210 180 0 180 0 0 90 0 90 -30 0 c-27 0 -30
3 -30 30 0 27 -3 30 -30 30 l-30 0 0 90 0 90 60 0 c60 0 60 0 60 30 0 27 3 30
30 30 27 0 30 3 30 30 0 27 3 30 30 30 30 0 30 1 30 55 0 54 0 55 30 55 30 0
30 -1 30 -55 0 -54 0 -55 30 -55 l30 0 0 205 0 205 30 0 c30 0 30 0 30 -60 0
-60 0 -60 30 -60 l30 0 0 150 0 150 -30 0 c-30 0 -30 0 -30 60 0 60 0 60 -30
60 -30 0 -30 0 -30 60 0 60 0 60 30 60 27 0 30 -3 30 -30 0 -30 0 -30 60 -30
60 0 60 0 60 30 0 27 -3 30 -30 30 -27 0 -30 3 -30 30 0 27 -3 30 -30 30 -30
0 -30 0 -30 60 0 60 0 60 -30 60 -27 0 -30 3 -30 30 0 27 3 30 30 30 27 0 30
3 30 30 0 27 3 30 30 30 30 0 30 0 30 60 l0 60 -60 0 -60 0 0 205 0 205 -30 0
c-30 0 -30 0 -30 60 0 60 0 60 -30 60 -27 0 -30 3 -30 30 0 27 -3 30 -30 30
-27 0 -30 3 -30 30 0 27 -3 30 -30 30 -27 0 -30 3 -30 30 0 30 0 30 -60 30
-60 0 -60 0 -60 30 l0 30 -265 0 -265 0 0 -30z m590 -475 c0 -21 5 -25 30 -25
27 0 30 -3 30 -30 0 -27 3 -30 30 -30 27 0 30 -3 30 -30 0 -27 -3 -30 -30 -30
-27 0 -30 3 -30 30 l0 30 -90 0 -90 0 0 30 0 30 -205 0 -205 0 0 -30 0 -30
-90 0 -90 0 0 -30 c0 -27 -3 -30 -30 -30 -27 0 -30 3 -30 30 0 27 3 30 30 30
27 0 30 3 30 30 0 27 3 30 30 30 25 0 30 4 30 25 l0 25 325 0 325 0 0 -25z m0
-175 c0 -30 0 -30 60 -30 60 0 60 0 60 -30 0 -27 3 -30 30 -30 27 0 30 -3 30
-30 l0 -30 90 0 90 0 0 -30 c0 -27 -3 -30 -30 -30 -27 0 -30 -3 -30 -30 0 -27
-3 -30 -30 -30 -27 0 -30 -3 -30 -30 0 -27 -3 -30 -30 -30 -27 0 -30 3 -30 30
0 27 3 30 30 30 27 0 30 3 30 30 0 27 -3 30 -30 30 -27 0 -30 3 -30 30 0 27
-3 30 -30 30 l-30 0 0 -150 0 -150 -30 0 c-27 0 -30 -3 -30 -30 0 -30 0 -30
-60 -30 -60 0 -60 0 -60 -30 0 -27 -3 -30 -30 -30 -27 0 -30 3 -30 30 0 27 -3
30 -30 30 -30 0 -30 0 -30 -60 l0 -60 -145 0 -145 0 0 60 c0 60 0 60 -30 60
-27 0 -30 -3 -30 -30 0 -27 -3 -30 -30 -30 -27 0 -30 3 -30 30 0 30 0 30 -60
30 -60 0 -60 0 -60 30 0 27 -3 30 -30 30 l-30 0 0 150 0 150 -30 0 c-27 0 -30
-3 -30 -30 0 -27 -3 -30 -30 -30 -27 0 -30 -3 -30 -30 0 -27 3 -30 30 -30 27
0 30 -3 30 -30 0 -27 -3 -30 -30 -30 -27 0 -30 3 -30 30 0 27 -3 30 -30 30
-27 0 -30 3 -30 30 0 27 -3 30 -30 30 -27 0 -30 3 -30 30 l0 30 90 0 90 0 0
30 c0 27 3 30 30 30 27 0 30 3 30 30 0 30 0 30 60 30 60 0 60 0 60 30 l0 30
325 0 325 0 0 -30z m-890 -480 c0 -27 -3 -30 -30 -30 -27 0 -30 3 -30 30 0 27
3 30 30 30 27 0 30 -3 30 -30z m1190 0 c0 -27 -3 -30 -30 -30 -27 0 -30 3 -30
30 0 27 3 30 30 30 27 0 30 -3 30 -30z m-540 -240 l0 -30 -85 0 -85 0 0 30 0
30 85 0 85 0 0 -30z m-410 -330 c0 -60 0 -60 -30 -60 -30 0 -30 0 -30 60 0 60
0 60 30 60 30 0 30 0 30 -60z m710 0 c0 -60 0 -60 -30 -60 -30 0 -30 0 -30 60
0 60 0 60 30 60 30 0 30 0 30 -60z m-830 -90 c0 -27 -3 -30 -30 -30 -27 0 -30
3 -30 30 0 27 3 30 30 30 27 0 30 -3 30 -30z m950 0 c0 -27 -3 -30 -30 -30
-27 0 -30 3 -30 30 0 27 3 30 30 30 27 0 30 -3 30 -30z m-590 -620 l0 -60
-120 0 -120 0 0 60 0 60 120 0 120 0 0 -60z m410 0 l0 -60 -120 0 -120 0 0 60
0 60 120 0 120 0 0 -60z"/>
<path d="M530 1950 c0 -27 -3 -30 -30 -30 l-30 0 0 -120 0 -120 30 0 c27 0 30
-3 30 -30 l0 -30 90 0 90 0 0 30 c0 27 3 30 30 30 l30 0 0 120 0 120 -30 0
c-27 0 -30 3 -30 30 l0 30 -90 0 -90 0 0 -30z m120 -60 c0 -27 -3 -30 -30 -30
-27 0 -30 3 -30 30 0 27 3 30 30 30 27 0 30 -3 30 -30z m0 -180 c0 -27 -3 -30
-30 -30 -27 0 -30 3 -30 30 0 27 3 30 30 30 27 0 30 -3 30 -30z"/>
<path d="M1000 1950 c0 -27 -3 -30 -30 -30 l-30 0 0 -120 0 -120 30 0 c27 0
30 -3 30 -30 l0 -30 90 0 90 0 0 30 c0 27 3 30 30 30 l30 0 0 120 0 120 -30 0
c-27 0 -30 3 -30 30 l0 30 -90 0 -90 0 0 -30z m120 -60 c0 -27 -3 -30 -30 -30
-27 0 -30 3 -30 30 0 27 3 30 30 30 27 0 30 -3 30 -30z m0 -180 c0 -27 -3 -30
-30 -30 -27 0 -30 3 -30 30 0 27 3 30 30 30 27 0 30 -3 30 -30z"/>
<path d="M710 1530 l0 -30 145 0 145 0 0 30 0 30 -145 0 -145 0 0 -30z"/>
</g>
</svg>
