<?xml version="1.0" standalone="no"?>
<!DOCTYPE svg PUBLIC "-//W3C//DTD SVG 20010904//EN"
 "http://www.w3.org/TR/2001/REC-SVG-20010904/DTD/svg10.dtd">
<svg version="1.0" xmlns="http://www.w3.org/2000/svg"
 width="148.000000pt" height="300.000000pt" viewBox="0 0 148.000000 300.000000"
 preserveAspectRatio="xMidYMid meet">
<metadata>
Created by potrace 1.10, written by Peter Selinger 2001-2011
</metadata>
<g transform="translate(0.000000,300.000000) scale(0.100000,-0.100000)"
fill="#000000" stroke="none">
<path d="M590 2946 c0 -15 7 -26 20 -29 16 -4 20 -14 20 -46 0 -30 -4 -41 -15
-41 -8 0 -15 5 -15 10 0 6 -15 10 -34 10 -28 0 -35 4 -38 23 -3 20 -9 22 -65
25 -56 3 -63 5 -63 23 0 16 -6 20 -27 17 -25 -3 -28 -7 -28 -43 0 -39 1 -40
38 -43 28 -2 37 -8 37 -21 0 -10 9 -21 20 -24 12 -3 20 -14 20 -26 0 -19 -6
-21 -54 -21 -49 0 -55 -2 -58 -22 -2 -18 -10 -23 -33 -23 -23 0 -31 5 -33 23
-3 18 -10 22 -38 22 -30 0 -34 3 -34 26 0 21 -4 25 -22 22 -20 -3 -23 -10 -26
-50 -3 -43 -1 -48 17 -48 16 0 21 -6 21 -25 0 -20 5 -25 25 -25 18 0 25 -5 25
-20 0 -16 -7 -20 -35 -20 -28 0 -35 -4 -35 -20 0 -16 -7 -20 -35 -20 -28 0
-35 4 -35 20 0 15 -7 20 -25 20 -23 0 -25 -4 -25 -41 0 -32 4 -42 19 -46 11
-3 21 -13 24 -24 3 -11 14 -19 26 -19 28 0 29 -40 1 -47 -11 -3 -20 -14 -20
-24 0 -14 -7 -19 -25 -19 -20 0 -25 -5 -25 -25 0 -18 -5 -25 -20 -25 -15 0
-20 -7 -20 -24 0 -22 5 -25 42 -28 31 -2 44 -8 46 -20 2 -11 -5 -18 -20 -20
-20 -3 -23 -9 -23 -48 0 -39 3 -45 23 -48 17 -3 22 2 22 17 0 12 6 21 15 21
12 0 15 -14 15 -65 0 -58 -2 -65 -20 -65 -13 0 -20 -7 -20 -20 0 -13 -7 -20
-20 -20 -19 0 -20 -7 -20 -95 0 -88 1 -95 20 -95 15 0 20 -7 20 -25 0 -18 5
-25 20 -25 16 0 20 -7 20 -30 0 -29 2 -30 43 -30 40 0 43 -2 60 -40 9 -22 17
-45 17 -50 0 -6 7 -10 15 -10 10 0 15 -10 15 -30 0 -20 5 -30 15 -30 8 0 15
-9 15 -20 0 -13 7 -20 20 -20 11 0 20 -5 20 -10 0 -6 11 -15 25 -20 15 -6 25
-17 25 -30 0 -15 7 -20 25 -20 16 0 25 -6 25 -15 0 -9 9 -15 25 -15 18 0 25
-5 25 -20 0 -16 -7 -20 -30 -20 -20 0 -30 -5 -30 -15 0 -8 -9 -15 -20 -15 -11
0 -20 -7 -20 -15 0 -8 -9 -15 -20 -15 -15 0 -20 -7 -20 -26 0 -17 -6 -28 -20
-31 -16 -4 -20 -14 -20 -49 0 -32 -4 -44 -15 -44 -12 0 -15 -13 -15 -60 0 -53
-2 -60 -20 -60 -19 0 -20 -7 -20 -155 0 -148 -1 -155 -20 -155 -19 0 -20 -7
-20 -96 0 -87 2 -96 20 -101 13 -3 20 -14 20 -29 0 -17 6 -24 19 -24 10 0 21
-9 24 -21 5 -18 12 -20 64 -17 55 3 58 4 61 31 2 15 8 27 13 27 5 0 9 -46 9
-104 0 -95 -2 -104 -20 -109 -12 -3 -20 -14 -20 -26 0 -16 -6 -21 -25 -21 -18
0 -25 -5 -25 -20 0 -13 -7 -20 -20 -20 -18 0 -20 -7 -20 -85 l0 -85 190 0 190
0 0 158 c0 86 3 214 7 285 l6 127 35 0 35 0 -7 -285 -7 -285 195 0 196 0 0 80
c0 73 -2 80 -20 80 -13 0 -20 7 -20 19 0 13 -8 21 -22 23 -17 2 -24 11 -26 31
-2 19 -9 27 -23 27 -18 0 -19 8 -19 110 0 62 4 110 9 110 6 0 11 -15 13 -33
l3 -32 68 -3 c55 -2 67 0 67 13 0 8 7 15 15 15 9 0 15 9 15 25 0 18 5 25 20
25 19 0 20 7 20 100 0 82 -3 100 -15 100 -13 0 -15 22 -15 134 0 110 -3 135
-15 140 -11 4 -15 21 -15 65 0 50 -3 59 -20 64 -16 4 -20 14 -20 51 0 34 -4
46 -15 46 -10 0 -15 11 -15 35 0 28 -4 35 -20 35 -13 0 -20 7 -20 19 0 12 -9
21 -25 25 -14 4 -25 13 -25 21 0 10 -11 15 -35 15 -24 0 -35 5 -35 15 0 9 9
15 25 15 16 0 25 6 25 15 0 9 9 15 21 15 12 0 23 8 26 20 3 11 14 20 24 20 12
0 19 7 19 20 0 11 7 20 15 20 8 0 15 7 15 15 0 8 7 15 15 15 8 0 15 9 15 20 0
13 7 20 20 20 16 0 20 7 20 30 0 20 5 30 15 30 10 0 15 11 15 35 l0 35 50 0
c47 0 50 2 50 25 0 18 5 25 19 25 13 0 20 9 25 30 3 18 12 30 21 30 12 0 15
15 15 80 0 47 -4 80 -10 80 -5 0 -10 9 -10 19 0 13 -8 21 -22 23 -15 2 -24 11
-26 26 -3 18 1 22 22 22 21 0 26 5 26 25 0 18 -5 25 -20 25 -17 0 -20 7 -20
40 0 40 0 40 39 40 26 0 41 5 45 16 10 27 7 34 -19 34 -22 0 -25 4 -25 35 0
28 -4 35 -20 35 -14 0 -20 7 -20 21 0 12 8 23 20 26 11 3 20 14 20 24 0 14 7
19 25 19 21 0 25 5 25 29 0 28 -3 30 -42 33 -36 2 -44 7 -46 26 -3 18 -10 22
-38 22 -27 0 -34 4 -34 20 0 13 7 20 20 20 13 0 20 7 20 20 0 16 7 20 30 20
29 0 30 2 30 45 0 43 -1 45 -30 45 -23 0 -30 -4 -30 -20 0 -17 -7 -20 -45 -20
-38 0 -45 3 -45 19 0 16 -8 20 -42 23 -32 2 -44 8 -46 21 -2 12 4 20 16 24 11
3 23 16 26 29 4 15 14 24 26 24 17 0 20 7 20 40 0 36 -2 40 -25 40 -18 0 -25
-5 -25 -20 0 -15 -7 -20 -25 -20 -18 0 -25 -5 -25 -20 0 -15 -7 -20 -25 -20
-18 0 -25 5 -25 20 0 16 -7 20 -30 20 -24 0 -30 -4 -30 -21 0 -17 -5 -20 -32
-17 -34 3 -55 38 -24 38 12 0 16 10 16 41 0 32 4 42 20 46 11 3 20 14 20 24 0
15 -7 19 -35 19 -28 0 -35 -4 -35 -20 0 -13 -7 -20 -20 -20 -13 0 -20 -7 -20
-20 0 -17 -7 -20 -40 -20 -33 0 -40 -4 -40 -19 0 -10 -9 -21 -20 -24 -11 -3
-20 -12 -20 -21 0 -9 -8 -16 -20 -16 -17 0 -20 7 -20 41 0 22 -4 38 -9 35 -16
-10 -41 5 -41 25 0 12 -7 19 -20 19 -13 0 -20 7 -20 20 0 17 -7 20 -40 20 -35
0 -40 -3 -40 -24z m120 -436 c0 -47 -2 -50 -25 -50 -21 0 -25 -5 -25 -31 0
-22 -5 -32 -20 -36 -14 -4 -20 -14 -20 -34 0 -24 4 -29 25 -29 18 0 25 5 25
20 0 13 7 20 20 20 13 0 20 7 20 20 0 13 7 20 20 20 13 0 20 7 20 20 0 13 7
20 20 20 16 0 20 7 20 31 0 22 5 32 19 36 11 3 21 13 24 24 4 14 14 19 41 19
30 0 36 -4 36 -21 0 -12 8 -23 20 -26 10 -3 22 -14 25 -24 4 -10 11 -19 16
-19 5 0 9 -9 9 -20 0 -11 -4 -20 -10 -20 -5 0 -10 -7 -10 -15 0 -8 -7 -15 -15
-15 -8 0 -15 -7 -15 -15 0 -7 -7 -18 -16 -23 -14 -8 -14 -10 -1 -15 14 -5 57
22 57 37 0 4 9 16 19 27 23 25 41 17 41 -17 0 -15 6 -24 15 -24 9 0 15 -9 15
-25 0 -16 -6 -25 -15 -25 -8 0 -15 -7 -15 -15 0 -8 -4 -15 -9 -15 -5 0 -13 -9
-16 -20 -3 -11 -13 -20 -21 -20 -8 0 -14 -9 -14 -20 0 -13 -7 -20 -20 -20 -11
0 -20 -7 -20 -15 0 -8 -9 -15 -20 -15 -11 0 -19 -6 -18 -12 2 -7 -3 -13 -9
-12 -7 1 -20 2 -28 3 -8 0 -15 8 -15 16 0 8 -4 15 -10 15 -17 0 -11 -18 15
-46 14 -15 25 -30 25 -34 0 -13 -38 -18 -49 -7 -15 15 -21 5 -14 -21 3 -12 12
-22 19 -22 9 0 14 -11 14 -30 0 -20 5 -30 15 -30 8 0 15 -9 15 -20 0 -11 7
-20 15 -20 8 0 15 -7 15 -15 0 -8 4 -15 9 -15 5 0 13 -9 16 -20 3 -11 10 -20
15 -20 11 0 70 -59 70 -71 0 -5 7 -9 15 -9 8 0 15 -9 15 -20 0 -11 5 -20 10
-20 21 0 1 50 -32 81 -10 9 -18 21 -18 28 0 15 87 15 92 -1 5 -15 28 -1 28 18
0 8 -7 14 -15 14 -8 0 -15 5 -15 10 0 6 6 10 13 10 7 0 21 11 31 25 10 14 27
25 37 25 23 0 25 16 4 24 -8 3 -15 12 -15 21 0 8 7 15 15 15 8 0 15 7 15 15 0
8 -7 15 -16 15 -9 0 -18 9 -21 20 -3 11 -9 20 -14 20 -5 0 -9 7 -9 15 0 11 -8
13 -30 9 -23 -5 -30 -3 -30 10 0 9 5 16 10 16 6 0 10 7 10 15 0 8 7 15 15 15
8 0 15 7 15 15 0 8 7 15 15 15 9 0 15 -9 15 -25 0 -14 4 -25 9 -25 5 0 11 -12
13 -27 2 -16 8 -28 13 -28 14 0 19 65 6 78 -6 6 -11 19 -11 29 0 10 -4 18 -10
18 -5 0 -10 11 -10 25 0 14 -4 25 -10 25 -5 0 -10 14 -10 30 0 20 5 30 15 30
8 0 15 7 15 15 0 8 7 15 15 15 11 0 15 -11 15 -40 0 -22 5 -40 10 -40 6 0 10
-9 10 -20 0 -11 -4 -20 -10 -20 -5 0 -10 -7 -10 -15 0 -8 5 -15 10 -15 6 0 10
-65 10 -175 0 -168 -1 -175 -20 -175 -11 0 -20 -5 -20 -11 0 -14 -25 -39 -39
-39 -6 0 -11 -9 -11 -20 0 -11 -6 -20 -14 -20 -7 0 -16 -9 -19 -20 -3 -11 -12
-20 -20 -20 -11 0 -13 -7 -10 -21 4 -14 0 -27 -11 -35 -10 -7 -15 -18 -11 -24
4 -6 1 -18 -6 -26 -9 -11 -9 -18 -2 -22 6 -4 14 -23 18 -42 4 -19 13 -38 19
-42 6 -5 2 -8 -11 -8 -13 0 -24 -8 -28 -20 -3 -11 -15 -20 -26 -20 -10 0 -19
-7 -19 -15 0 -9 -9 -15 -25 -15 -14 0 -28 -7 -31 -15 -4 -9 -19 -15 -39 -15
-20 0 -35 -6 -39 -15 -7 -18 -66 -21 -66 -3 0 9 -3 9 -12 0 -16 -16 -58 -15
-58 1 0 13 -43 67 -54 67 -3 0 -6 -7 -6 -15 0 -8 5 -15 10 -15 6 0 10 -6 10
-14 0 -8 6 -16 13 -19 24 -8 0 -17 -31 -11 -18 4 -32 13 -32 20 0 10 -13 14
-40 14 -29 0 -40 4 -40 15 0 9 -9 15 -25 15 -14 0 -25 5 -25 10 0 6 -11 10
-25 10 -16 0 -25 6 -25 16 0 9 -9 18 -20 21 -20 5 -28 23 -11 23 5 0 12 14 16
31 4 17 13 33 21 36 18 7 18 53 0 53 -16 0 -30 83 -15 88 5 2 9 9 9 15 0 7 12
23 25 36 14 13 25 27 25 32 0 5 7 9 15 9 8 0 15 5 15 11 0 6 14 24 30 39 19
18 28 34 24 44 -3 9 -1 16 5 16 6 0 11 7 11 15 0 8 5 15 10 15 6 0 10 9 10 20
0 10 9 24 20 30 11 6 17 16 14 22 -4 6 0 16 8 22 20 15 42 116 28 130 -7 7
-10 3 -10 -11 0 -12 -4 -25 -10 -28 -5 -3 -10 -15 -10 -26 0 -10 -7 -19 -15
-19 -8 0 -15 7 -15 15 0 8 -4 15 -10 15 -5 0 -10 -13 -10 -30 0 -33 -14 -38
-45 -14 -14 11 -16 18 -7 21 6 3 12 9 12 15 0 6 11 21 25 34 14 13 25 28 25
34 0 5 7 10 15 10 8 0 15 7 15 15 0 8 5 15 10 15 6 0 10 7 10 15 0 8 -7 15
-15 15 -8 0 -15 -7 -15 -15 0 -8 -2 -15 -4 -15 -2 0 -11 -3 -20 -6 -11 -4 -16
-1 -16 10 0 9 -4 16 -10 16 -5 0 -10 -13 -10 -30 0 -16 -4 -30 -10 -30 -5 0
-10 -7 -10 -15 0 -8 -7 -15 -15 -15 -8 0 -15 -9 -15 -20 0 -13 -7 -20 -20 -20
-11 0 -20 -4 -20 -10 0 -5 -13 -10 -30 -10 -16 0 -30 5 -30 10 0 6 5 10 10 10
6 0 10 9 10 20 0 13 7 20 18 20 12 0 23 13 32 35 8 19 19 35 26 35 15 0 54 61
54 84 0 9 -4 16 -10 16 -5 0 -10 -7 -10 -15 0 -8 -9 -15 -20 -15 -11 0 -20 -7
-20 -15 0 -8 -7 -15 -15 -15 -8 0 -15 -9 -15 -20 0 -11 -7 -20 -15 -20 -8 0
-15 -9 -15 -20 0 -11 -7 -20 -15 -20 -8 0 -15 -7 -15 -15 0 -8 -7 -15 -15 -15
-9 0 -15 9 -15 25 0 16 -6 25 -15 25 -8 0 -15 7 -15 15 0 8 -7 15 -15 15 -8 0
-15 8 -15 19 0 10 -9 21 -20 24 -26 7 -26 33 0 40 11 3 20 12 20 21 0 9 7 16
15 16 11 0 15 11 15 40 0 36 3 40 25 40 20 0 25 5 25 25 0 22 4 25 35 25 28 0
35 -4 35 -20 0 -11 -7 -20 -15 -20 -8 0 -15 -9 -15 -20 0 -11 -7 -23 -15 -26
-17 -7 -22 -104 -5 -104 6 0 10 5 10 10 0 6 7 10 15 10 8 0 15 9 15 20 0 11 6
20 14 20 8 0 16 7 20 15 3 8 15 15 26 15 15 0 20 7 20 25 0 21 5 25 30 25 24
0 30 4 30 21 0 12 8 23 19 26 11 3 21 13 24 24 3 11 14 19 26 19 19 0 21 -6
21 -50z m360 20 c0 -13 7 -20 20 -20 13 0 20 -7 20 -20 0 -13 7 -20 20 -20 17
0 20 -7 20 -40 0 -33 -3 -40 -20 -40 -11 0 -20 -4 -20 -10 0 -5 -4 -10 -10
-10 -5 0 -10 9 -10 19 0 11 -4 23 -10 26 -5 3 -10 17 -10 31 0 15 -6 24 -15
24 -11 0 -15 11 -15 40 0 29 4 40 15 40 8 0 15 -9 15 -20z m50 -259 c0 -10 -7
-21 -15 -25 -8 -3 -15 -15 -15 -26 0 -11 -4 -20 -10 -20 -5 0 -10 -7 -10 -15
0 -22 -50 -40 -62 -23 -8 10 -11 10 -15 1 -2 -7 -13 -13 -24 -13 -10 0 -19 -4
-19 -10 0 -5 -7 -10 -15 -10 -8 0 -15 5 -15 10 0 6 5 10 10 10 6 0 10 7 10 15
0 8 9 15 20 15 11 0 20 7 20 15 0 8 9 15 20 15 13 0 20 7 20 20 0 11 7 20 15
20 8 0 15 3 15 8 0 8 38 29 58 31 6 0 12 -8 12 -18z m-800 -16 c0 -8 7 -15 15
-15 8 0 15 -9 15 -20 0 -11 5 -20 10 -20 6 0 10 -7 10 -15 0 -8 7 -15 15 -15
21 0 19 -38 -2 -42 -10 -2 -27 7 -37 21 -19 22 -20 23 -27 5 -4 -12 0 -25 12
-37 18 -17 26 -47 12 -47 -3 0 -15 7 -25 17 -10 9 -21 13 -26 8 -4 -4 -1 -10
6 -12 14 -5 17 -63 2 -63 -5 0 -10 -11 -10 -25 0 -14 5 -25 10 -25 6 0 10 5
10 10 0 6 7 10 15 10 8 0 15 -7 15 -15 0 -8 -4 -15 -10 -15 -16 0 -12 -25 9
-48 22 -26 31 -28 31 -7 0 8 -4 15 -10 15 -5 0 -10 7 -10 15 0 20 7 19 32 -5
12 -11 30 -20 40 -20 10 0 18 -4 18 -10 0 -5 -7 -10 -15 -10 -8 0 -15 -7 -15
-15 0 -8 5 -15 11 -15 14 0 39 25 39 39 0 6 9 11 20 11 11 0 20 -7 20 -15 0
-8 -4 -15 -10 -15 -5 0 -10 -9 -10 -20 0 -11 -4 -20 -10 -20 -14 0 -50 -37
-51 -52 0 -10 -2 -10 -6 0 -2 6 -11 12 -19 12 -11 0 -13 7 -8 28 7 24 6 26 -9
13 -22 -17 -47 -7 -47 19 0 11 -7 20 -15 20 -8 0 -15 7 -15 15 0 8 -7 15 -15
15 -13 0 -15 27 -15 180 l0 180 25 0 c16 0 25 -6 25 -15z m704 -211 c20 -8 21
-48 1 -64 -13 -11 -20 -11 -40 0 -52 28 -16 85 39 64z m-824 -34 c0 -15 -7
-20 -25 -20 -21 0 -25 -5 -25 -30 0 -20 5 -30 15 -30 8 0 15 5 15 10 0 6 5 10
10 10 6 0 10 -9 10 -20 0 -11 -4 -20 -10 -20 -5 0 -10 -9 -10 -20 0 -11 5 -20
10 -20 6 0 10 -9 10 -20 0 -11 7 -20 15 -20 9 0 15 -9 15 -25 0 -20 -5 -25
-25 -25 -16 0 -25 6 -25 15 0 8 -7 15 -15 15 -9 0 -15 9 -15 25 0 18 -5 25
-20 25 -18 0 -20 7 -20 61 0 52 3 62 20 66 11 3 20 14 20 24 0 14 7 19 25 19
18 0 25 -5 25 -20z m1127 0 c3 -11 14 -20 24 -20 17 0 19 -8 19 -71 0 -62 -2
-71 -20 -76 -11 -3 -20 -14 -20 -24 0 -11 -7 -19 -15 -19 -8 0 -15 -7 -15 -15
0 -8 -9 -15 -20 -15 -13 0 -20 7 -20 20 0 11 5 20 10 20 6 0 10 28 10 65 0 61
11 84 24 50 10 -27 26 -15 26 20 0 28 -4 35 -19 35 -23 0 -35 15 -27 35 8 22
37 18 43 -5z m-337 -92 c0 -13 -32 -6 -37 9 -3 7 3 9 16 6 12 -3 21 -10 21
-15z m-442 -2 c-7 -8 -17 -12 -22 -9 -4 3 -2 9 5 14 22 13 31 11 17 -5z m515
-3 c-7 -2 -21 -2 -30 0 -10 3 -4 5 12 5 17 0 24 -2 18 -5z m-763 -73 c11 -11
20 -24 20 -30 0 -5 5 -10 10 -10 18 0 66 -53 52 -58 -7 -2 -12 -15 -12 -28 0
-15 -6 -24 -15 -24 -19 0 -19 -29 0 -54 11 -15 15 -16 17 -5 4 43 17 69 34 69
8 0 14 -9 14 -20 0 -11 5 -20 10 -20 6 0 10 -7 10 -15 0 -8 -4 -15 -10 -15 -5
0 -10 -7 -10 -15 0 -8 -4 -15 -10 -15 -5 0 -10 -9 -10 -20 0 -12 -7 -20 -16
-20 -9 0 -18 9 -21 20 -3 11 -12 20 -19 20 -9 0 -14 11 -14 30 0 19 -5 30 -14
30 -8 0 -16 15 -19 37 -7 43 -1 55 17 30 15 -20 26 -22 26 -4 0 16 -44 67 -59
67 -6 0 -11 16 -11 35 0 41 3 42 30 15z m920 -29 c0 -30 -4 -40 -20 -44 -17
-4 -20 -14 -20 -56 0 -28 -4 -51 -10 -51 -5 0 -10 -11 -10 -24 0 -15 -7 -26
-20 -29 -11 -3 -20 -12 -20 -21 0 -9 -7 -16 -15 -16 -8 0 -15 9 -15 19 0 11
-6 21 -12 24 -10 3 -10 9 0 26 6 11 12 29 12 38 1 16 3 15 19 -4 25 -29 31
-29 31 2 0 14 -4 25 -10 25 -5 0 -10 11 -10 25 0 14 5 25 10 25 6 0 10 7 10
15 0 8 9 15 20 15 11 0 20 7 20 15 0 13 29 55 37 55 2 0 3 -17 3 -39z m-540
-481 c0 -5 9 -10 20 -10 11 0 20 -4 20 -10 0 -5 7 -10 15 -10 8 0 15 9 15 20
0 11 7 20 15 20 8 0 15 -4 15 -9 0 -5 18 -7 40 -4 31 4 40 2 40 -9 0 -9 -7
-21 -15 -28 -8 -7 -15 -18 -15 -25 0 -18 -23 -25 -78 -25 -60 0 -92 9 -92 25
0 7 -10 19 -22 27 -28 19 -18 48 17 48 14 0 25 -4 25 -10z m-220 -64 c0 -30
-5 -46 -15 -50 -11 -4 -15 -21 -15 -66 0 -47 -3 -60 -15 -60 -13 0 -15 -28
-15 -190 0 -162 2 -190 15 -190 12 0 15 -15 15 -75 0 -68 -2 -75 -20 -75 -17
0 -20 7 -20 41 0 33 -3 40 -17 37 -14 -2 -19 -15 -21 -54 -3 -45 0 -52 18 -57
11 -3 20 -12 20 -21 0 -20 -39 -21 -46 -1 -4 8 -15 15 -25 15 -14 0 -19 7 -19
30 0 20 -5 30 -15 30 -12 0 -15 14 -15 65 0 51 3 65 15 65 13 0 15 23 15 150
0 143 1 150 20 150 18 0 20 7 20 65 0 51 3 65 15 65 11 0 15 11 15 40 0 29 4
40 15 40 9 0 18 12 22 30 3 17 12 30 19 30 8 0 14 7 14 15 0 8 5 15 10 15 6 0
10 -20 10 -44z m590 19 c0 -18 5 -25 20 -25 16 0 20 -7 20 -35 0 -24 5 -35 15
-35 11 0 15 -12 15 -50 0 -43 3 -50 20 -50 18 0 20 -7 20 -65 0 -51 3 -65 15
-65 13 0 15 -21 15 -130 0 -107 3 -132 15 -136 11 -5 15 -22 15 -66 0 -51 -3
-61 -20 -65 -11 -3 -20 -14 -20 -24 0 -11 -7 -19 -15 -19 -8 0 -15 -7 -15 -15
0 -10 -10 -15 -30 -15 -23 0 -30 4 -30 20 0 13 7 20 20 20 17 0 20 7 20 50 0
43 -3 50 -20 50 -16 0 -20 -7 -20 -35 0 -28 -4 -35 -20 -35 -18 0 -20 7 -20
70 0 56 3 70 15 70 13 0 15 29 15 200 0 171 -2 200 -15 200 -11 0 -15 12 -15
50 0 38 -4 50 -15 50 -12 0 -15 13 -15 55 0 42 3 55 15 55 9 0 15 -9 15 -25z
m-250 -125 c0 -19 -5 -21 -62 -18 -50 2 -63 6 -66 21 -3 15 5 17 62 17 60 0
66 -2 66 -20z m0 -90 c0 -18 -7 -20 -65 -20 -58 0 -65 2 -65 20 0 18 7 20 65
20 58 0 65 -2 65 -20z m0 -90 c0 -18 -7 -20 -65 -20 -58 0 -65 2 -65 20 0 18
7 20 65 20 58 0 65 -2 65 -20z m0 -90 c0 -18 -7 -20 -65 -20 -58 0 -65 2 -65
20 0 18 7 20 65 20 58 0 65 -2 65 -20z m-270 -650 c0 -16 -7 -20 -35 -20 -28
0 -35 4 -35 20 0 16 7 20 35 20 28 0 35 -4 35 -20z m483 14 c13 -14 -7 -34
-34 -34 -27 0 -39 17 -22 33 8 9 48 9 56 1z m-365 -126 l3 -38 -140 0 c-77 0
-142 3 -144 8 -3 4 -2 22 0 40 l5 33 137 -3 136 -3 3 -37z m460 0 l3 -38 -140
0 -141 0 0 33 c0 19 3 37 7 41 4 3 66 5 137 4 l131 -3 3 -37z"/>
<path d="M852 2468 c-7 -7 -12 -18 -12 -25 0 -18 -22 -56 -37 -66 -7 -4 -13
-17 -13 -27 0 -11 -4 -20 -10 -20 -5 0 -10 -6 -10 -13 0 -18 -24 -67 -32 -67
-5 0 -8 -7 -8 -15 0 -8 5 -15 11 -15 8 0 9 -19 4 -61 -5 -44 -4 -60 4 -55 6 4
11 14 11 22 0 8 5 14 10 14 6 0 10 25 10 55 0 42 5 61 20 77 20 21 20 21 35 2
8 -10 15 -22 15 -26 0 -5 7 -8 16 -8 9 0 13 5 10 13 -3 6 -9 19 -12 29 -3 9
-14 18 -25 21 -19 5 -27 37 -9 37 6 0 10 11 10 25 0 14 4 25 9 25 7 0 24 81
17 87 -1 2 -8 -3 -14 -9z"/>
<path d="M732 2358 c6 -18 28 -21 28 -4 0 9 -7 16 -16 16 -9 0 -14 -5 -12 -12z"/>
<path d="M370 2320 c0 -5 5 -10 10 -10 6 0 10 5 10 10 0 6 -4 10 -10 10 -5 0
-10 -4 -10 -10z"/>
<path d="M950 2315 c0 -8 -4 -15 -10 -15 -5 0 -10 -5 -10 -10 0 -6 11 -3 25 6
14 9 22 20 19 25 -8 14 -24 10 -24 -6z"/>
<path d="M701 2063 c0 -13 -5 -23 -11 -23 -5 0 -10 -5 -10 -12 0 -8 6 -7 16 4
9 8 14 24 11 34 -4 16 -5 15 -6 -3z"/>
<path d="M790 2015 c0 -16 6 -25 15 -25 16 0 19 9 9 34 -9 25 -24 19 -24 -9z"/>
<path d="M670 1975 c0 -8 -5 -15 -11 -15 -16 0 -39 -26 -39 -44 0 -9 -4 -16
-10 -16 -5 0 -10 -8 -10 -19 0 -10 -9 -21 -20 -24 -11 -3 -20 -12 -20 -21 0
-9 -4 -16 -10 -16 -5 0 -10 -6 -10 -13 0 -7 -13 -23 -30 -37 -20 -16 -30 -34
-30 -52 0 -33 19 -47 27 -19 3 12 9 21 14 21 5 0 9 9 9 20 0 11 7 20 15 20 8
0 15 9 15 20 0 11 7 20 15 20 8 0 15 7 15 15 0 8 7 15 15 15 8 0 15 7 15 15 0
8 3 15 8 15 8 0 32 49 32 67 0 7 7 13 15 13 9 0 15 9 15 25 0 14 -4 25 -10 25
-5 0 -10 -7 -10 -15z"/>
<path d="M840 1936 c0 -14 5 -26 10 -26 6 0 10 -7 10 -15 0 -8 5 -15 10 -15 6
0 10 -7 10 -15 0 -8 5 -15 10 -15 6 0 10 -7 10 -15 0 -8 7 -15 15 -15 8 0 15
9 15 20 0 11 -4 20 -10 20 -5 0 -10 5 -10 11 0 7 -8 19 -19 28 -10 9 -20 25
-22 35 -6 30 -29 32 -29 2z"/>
<path d="M1160 1950 c0 -5 7 -10 16 -10 8 0 12 5 9 10 -3 6 -10 10 -16 10 -5
0 -9 -4 -9 -10z"/>
<path d="M732 1938 c-7 -7 -12 -18 -12 -25 0 -7 -7 -13 -15 -13 -8 0 -15 -9
-15 -20 0 -11 -4 -20 -10 -20 -5 0 -10 -9 -10 -20 0 -11 -7 -20 -15 -20 -8 0
-15 -4 -15 -9 0 -5 7 -11 15 -15 8 -3 15 -12 15 -21 0 -8 9 -15 20 -15 13 0
20 7 20 19 0 10 7 21 15 25 8 3 15 15 15 26 0 11 5 20 10 20 11 0 14 -20 11
-59 -2 -18 2 -22 15 -17 9 3 23 1 30 -5 11 -9 14 -8 14 4 0 9 8 20 18 26 16 9
16 10 0 16 -10 4 -18 13 -18 19 0 7 -9 22 -20 34 -11 12 -20 28 -20 37 0 8 -4
15 -10 15 -5 0 -10 7 -10 15 0 18 -12 19 -28 3z m28 -38 c0 -5 -4 -10 -10 -10
-5 0 -10 5 -10 10 0 6 5 10 10 10 6 0 10 -4 10 -10z"/>
<path d="M1140 1920 c0 -5 5 -10 10 -10 6 0 10 5 10 10 0 6 -4 10 -10 10 -5 0
-10 -4 -10 -10z"/>
<path d="M940 1800 c0 -11 5 -20 10 -20 6 0 10 9 10 20 0 11 -4 20 -10 20 -5
0 -10 -9 -10 -20z"/>
<path d="M600 1770 c0 -5 7 -10 15 -10 8 0 15 5 15 10 0 6 -7 10 -15 10 -8 0
-15 -4 -15 -10z"/>
<path d="M970 1765 c0 -9 5 -15 11 -13 6 2 11 8 11 13 0 5 -5 11 -11 13 -6 2
-11 -4 -11 -13z"/>
<path d="M868 1751 c-10 -10 -18 -25 -18 -34 0 -10 -7 -17 -15 -17 -8 0 -15 7
-15 15 0 8 -4 15 -10 15 -5 0 -10 -7 -10 -15 0 -8 -9 -15 -20 -15 -13 0 -20 7
-20 20 0 11 -4 20 -10 20 -5 0 -10 -5 -10 -11 0 -14 -25 -39 -39 -39 -6 0 -11
12 -11 26 0 16 -5 24 -12 21 -7 -2 -12 -9 -11 -15 4 -15 -35 -35 -53 -28 -8 3
-14 12 -14 21 0 8 -4 15 -10 15 -5 0 -10 -13 -10 -30 0 -16 -4 -30 -10 -30 -5
0 -10 5 -10 10 0 6 -4 10 -10 10 -5 0 -10 -7 -10 -16 0 -9 -11 -27 -25 -40
-14 -13 -25 -32 -25 -42 0 -11 -8 -23 -17 -26 -14 -6 -12 -9 11 -21 35 -18 36
-18 36 0 0 29 18 14 24 -21 9 -47 32 -39 28 10 -4 48 19 48 38 1 16 -40 26
-44 35 -15 7 23 35 27 35 5 0 -8 5 -15 10 -15 6 0 10 5 10 10 0 6 5 10 10 10
6 0 10 -7 10 -15 0 -9 6 -12 15 -9 8 4 15 1 15 -4 0 -16 66 -83 74 -75 10 10
7 43 -4 43 -5 0 -10 7 -10 15 0 9 -6 12 -15 9 -10 -4 -15 0 -15 15 0 12 -6 21
-15 21 -10 0 -15 10 -15 30 0 20 5 30 15 30 9 0 15 -9 15 -25 0 -31 17 -33 22
-2 4 26 48 38 48 13 0 -9 -4 -16 -10 -16 -5 0 -10 -9 -10 -20 0 -11 3 -20 6
-20 11 0 32 27 35 45 2 10 10 20 18 23 11 4 13 -3 8 -31 -3 -19 -3 -38 0 -41
9 -8 43 24 43 41 0 7 5 13 10 13 6 0 10 -9 10 -20 0 -21 15 -27 25 -9 4 6 13
8 20 5 7 -2 16 2 19 10 10 27 7 44 -9 44 -9 0 -15 10 -15 26 0 26 -20 54 -39
54 -6 0 -11 9 -11 20 0 11 -7 20 -15 20 -8 0 -15 -4 -15 -10 0 -5 -9 -10 -20
-10 -13 0 -20 7 -20 20 0 11 5 20 10 20 6 0 10 7 10 15 0 19 -11 18 -32 -4z
m-100 -109 c3 -17 -2 -22 -17 -22 -14 0 -21 6 -21 18 0 38 33 41 38 4z m130
-5 c2 -19 -1 -27 -12 -27 -11 0 -16 10 -16 31 0 38 24 35 28 -4z m-208 3 c0
-11 -7 -20 -15 -20 -8 0 -15 9 -15 20 0 11 7 20 15 20 8 0 15 -9 15 -20z m146
3 c19 -26 17 -30 -16 -30 -16 0 -30 4 -30 9 0 4 5 8 10 8 6 0 10 7 10 15 0 20
10 19 26 -2z m-206 -13 c0 -11 -7 -20 -15 -20 -8 0 -15 9 -15 20 0 11 7 20 15
20 8 0 15 -9 15 -20z m320 0 c0 -11 -4 -20 -10 -20 -5 0 -10 9 -10 20 0 11 5
20 10 20 6 0 10 -9 10 -20z m-380 -15 c0 -8 -4 -15 -10 -15 -5 0 -10 7 -10 15
0 8 5 15 10 15 6 0 10 -7 10 -15z m80 -45 c0 -11 -4 -20 -10 -20 -5 0 -10 9
-10 20 0 11 5 20 10 20 6 0 10 -9 10 -20z m70 0 c0 -11 -7 -20 -15 -20 -8 0
-15 9 -15 20 0 11 7 20 15 20 8 0 15 -9 15 -20z"/>
<path d="M990 1720 c0 -5 5 -10 10 -10 6 0 10 5 10 10 0 6 -4 10 -10 10 -5 0
-10 -4 -10 -10z"/>
<path d="M872 1483 c2 -10 11 -19 21 -21 23 -5 21 10 -4 26 -18 12 -20 11 -17
-5z"/>
<path d="M940 1491 c0 -6 5 -13 10 -16 6 -3 10 1 10 9 0 9 -4 16 -10 16 -5 0
-10 -4 -10 -9z"/>
<path d="M580 1475 c0 -8 5 -15 10 -15 6 0 10 7 10 15 0 8 -4 15 -10 15 -5 0
-10 -7 -10 -15z"/>
<path d="M780 1275 c0 -8 5 -15 10 -15 6 0 10 7 10 15 0 8 -4 15 -10 15 -5 0
-10 -7 -10 -15z"/>
</g>
</svg>
