<?xml version="1.0" standalone="no"?>
<!DOCTYPE svg PUBLIC "-//W3C//DTD SVG 20010904//EN"
 "http://www.w3.org/TR/2001/REC-SVG-20010904/DTD/svg10.dtd">
<svg version="1.0" xmlns="http://www.w3.org/2000/svg"
 width="194.000000pt" height="219.000000pt" viewBox="0 0 194.000000 219.000000"
 preserveAspectRatio="xMidYMid meet">
<metadata>
Created by potrace 1.10, written by Peter Selinger 2001-2011
</metadata>
<g transform="translate(0.000000,219.000000) scale(0.100000,-0.100000)"
fill="#000000" stroke="none">
<path d="M0 2168 c0 -12 1 -19 3 -17 1 2 9 12 16 22 12 14 11 17 -3 17 -10 0
-16 -8 -16 -22z"/>
<path d="M797 2153 c-16 -15 -6 -52 18 -67 19 -13 25 -25 25 -54 0 -20 -4 -44
-10 -52 -8 -12 -11 -12 -27 2 -10 9 -34 18 -53 20 -26 2 -38 10 -47 29 -12 24
-20 27 -89 34 -67 6 -76 9 -84 31 -11 27 -27 30 -54 11 -13 -9 -17 -23 -14
-52 3 -38 5 -40 47 -51 30 -7 47 -17 52 -31 4 -12 17 -27 29 -33 14 -7 20 -19
18 -33 -3 -19 -11 -23 -68 -27 -59 -5 -66 -8 -78 -32 -19 -40 -66 -39 -87 1
-12 24 -23 30 -52 33 -33 3 -38 7 -41 30 -2 14 -9 29 -17 31 -25 10 -44 -17
-47 -68 -3 -44 0 -51 20 -60 13 -6 26 -22 29 -36 4 -20 13 -28 35 -33 24 -5
29 -10 26 -28 -2 -19 -10 -24 -41 -26 -30 -3 -40 -9 -47 -28 -8 -19 -17 -24
-45 -24 -28 0 -38 5 -47 25 -9 20 -18 25 -37 23 -23 -3 -26 -8 -29 -45 -3 -37
1 -46 37 -82 21 -21 47 -41 58 -43 29 -5 29 -46 -1 -59 -13 -6 -27 -22 -30
-35 -4 -15 -15 -24 -33 -26 -20 -2 -29 -10 -33 -28 -3 -14 -16 -29 -28 -35
-16 -7 -22 -17 -20 -35 3 -21 11 -27 53 -36 58 -12 73 -38 31 -54 -24 -9 -26
-15 -26 -64 0 -47 3 -56 21 -61 22 -7 39 7 39 33 0 6 6 12 14 12 19 0 31 -73
21 -129 -5 -31 -11 -41 -26 -41 -12 0 -21 -9 -25 -25 -4 -16 -13 -25 -25 -25
-25 0 -30 -27 -27 -145 3 -93 5 -101 25 -110 14 -6 23 -19 23 -32 0 -14 10
-27 28 -35 20 -10 28 -22 30 -46 3 -31 4 -32 53 -32 45 0 51 -3 69 -32 11 -18
22 -45 25 -60 4 -15 15 -34 25 -41 10 -7 22 -26 25 -42 4 -17 13 -34 20 -40 6
-5 17 -20 24 -33 6 -12 16 -22 22 -22 18 0 80 -54 95 -82 9 -18 23 -28 37 -28
12 0 28 -9 34 -19 7 -11 23 -21 35 -23 15 -2 23 -10 23 -23 0 -15 -8 -21 -34
-25 -19 -3 -36 -11 -39 -17 -3 -10 80 -13 393 -13 345 0 396 2 385 14 -6 8
-28 16 -48 18 -45 4 -52 31 -9 36 15 2 32 12 37 23 6 10 17 19 25 19 8 0 22
11 30 24 9 13 25 26 35 29 11 3 23 13 27 24 3 10 24 34 45 54 21 20 38 41 38
48 0 6 11 16 25 21 19 7 25 17 25 39 0 20 7 34 20 41 15 8 20 21 20 50 l0 40
43 0 c65 0 84 9 90 40 4 16 14 30 26 33 12 3 26 18 32 33 5 16 19 37 30 47 16
15 19 32 19 96 0 90 -23 156 -61 175 -13 6 -25 21 -27 32 -2 17 4 23 27 27 41
9 44 52 5 67 -23 9 -25 14 -22 57 l3 48 47 3 c35 2 51 8 58 23 13 23 5 39 -19
39 -26 0 -41 21 -41 57 0 27 -5 35 -25 43 -31 12 -32 34 -4 54 12 8 27 25 33
37 6 13 22 26 36 29 16 4 26 14 28 28 5 32 -15 52 -52 52 -37 0 -49 7 -65 38
-7 13 -21 22 -36 22 -13 0 -30 3 -39 6 -24 9 -19 43 8 53 13 5 26 18 29 30 3
14 15 21 38 23 l34 3 0 55 c0 55 0 55 -33 58 -27 3 -34 -1 -42 -22 -8 -23 -15
-26 -60 -26 -45 0 -52 3 -60 25 -7 18 -17 25 -37 25 -77 1 -101 31 -53 68 16
13 30 30 30 37 0 8 12 20 28 27 23 12 27 19 27 58 0 42 -2 45 -27 48 -22 3
-29 -2 -33 -21 -5 -17 -16 -27 -36 -31 -16 -3 -29 -12 -29 -20 0 -41 -66 -44
-72 -3 -2 18 -10 22 -38 22 -29 0 -36 -4 -38 -22 -3 -19 -10 -23 -36 -23 -19
0 -39 7 -46 15 -11 13 -9 19 8 36 15 13 22 32 22 57 0 27 6 41 27 58 36 28 26
54 -22 54 -29 0 -37 -5 -45 -25 -5 -14 -16 -25 -24 -25 -9 0 -21 -10 -27 -22
-16 -31 -28 -38 -70 -38 -31 0 -38 -4 -43 -24 -3 -14 -15 -27 -26 -31 -10 -3
-22 -15 -25 -26 -5 -14 -14 -19 -28 -17 -18 2 -23 11 -27 48 -3 26 -10 46 -17
46 -7 1 -17 2 -23 3 -5 0 -16 15 -25 31 -9 17 -22 30 -31 30 -8 0 -19 11 -24
25 -8 21 -16 25 -48 25 -21 0 -42 -3 -45 -7z m145 -575 c6 -58 -5 -92 -32 -98
-19 -4 -26 -13 -28 -38 -2 -21 -12 -38 -28 -48 -18 -12 -24 -25 -24 -50 0 -31
3 -34 30 -34 23 0 30 4 30 20 0 12 10 24 24 30 13 5 27 18 30 28 4 11 15 22
26 25 11 3 24 17 30 31 6 16 17 26 30 26 15 0 20 7 20 28 0 19 13 42 39 70 32
34 46 42 76 42 25 0 38 -5 42 -17 4 -10 26 -37 50 -61 40 -41 59 -92 33 -92
-5 0 -10 -5 -10 -10 0 -6 -16 -27 -35 -47 -38 -39 -43 -53 -20 -53 22 0 65 30
65 44 0 20 48 59 64 53 9 -4 16 -18 16 -31 0 -15 8 -30 20 -36 38 -20 18 -61
-72 -151 -16 -15 -28 -34 -28 -43 0 -9 -8 -16 -20 -16 -10 0 -24 -9 -30 -20
-6 -11 -17 -20 -26 -20 -8 0 -17 -7 -20 -15 -9 -24 -70 -20 -77 5 -3 11 -10
20 -16 20 -18 0 -13 -15 23 -61 19 -23 32 -47 29 -52 -3 -5 -23 -7 -44 -4 -28
4 -39 1 -39 -8 0 -24 12 -45 25 -45 15 0 25 -22 25 -53 0 -12 9 -28 20 -35 11
-7 20 -17 20 -23 0 -5 16 -26 35 -46 19 -19 37 -43 40 -52 3 -9 24 -28 46 -44
22 -15 45 -38 51 -52 6 -13 19 -27 29 -30 9 -3 20 -17 23 -30 7 -26 26 -35 26
-12 0 15 -36 75 -63 105 -29 31 -11 46 45 39 23 -3 54 -7 68 -9 32 -4 42 31
11 39 -21 5 -29 23 -11 23 5 0 27 16 49 35 21 19 46 35 55 35 22 0 20 23 -4
38 -21 13 -17 42 6 42 8 0 14 9 14 20 0 11 -7 20 -15 20 -9 0 -21 11 -27 25
-6 14 -15 25 -19 25 -4 0 -11 9 -14 21 -6 18 -12 20 -40 15 -38 -8 -57 10 -32
29 10 7 17 15 17 19 0 15 60 67 70 61 5 -3 10 -17 10 -29 0 -13 6 -29 14 -35
7 -6 16 -25 20 -42 3 -17 10 -28 16 -24 13 8 13 77 -1 112 -16 38 -40 94 -50
115 -16 33 -10 76 11 83 11 3 20 13 20 21 0 19 26 18 34 -2 3 -9 6 -29 6 -45
0 -16 5 -38 12 -49 9 -15 9 -24 -1 -43 -10 -18 -10 -30 -2 -45 7 -13 11 -99
11 -237 0 -210 -1 -217 -20 -222 -12 -3 -27 -18 -35 -34 -8 -15 -24 -30 -34
-34 -11 -3 -23 -15 -26 -26 -4 -11 -24 -38 -46 -60 -23 -23 -39 -49 -39 -63 0
-13 -7 -29 -15 -36 -8 -7 -15 -22 -15 -34 0 -11 -4 -28 -10 -36 -5 -8 -5 -19
0 -25 6 -7 50 -114 50 -121 0 -1 -11 -5 -24 -8 -14 -3 -28 -15 -31 -26 -3 -11
-15 -20 -25 -20 -11 0 -24 -9 -30 -20 -6 -11 -19 -20 -29 -20 -10 0 -30 -9
-44 -20 -14 -11 -36 -20 -49 -20 -12 0 -36 -9 -53 -20 -33 -22 -80 -26 -91 -9
-4 8 -9 8 -17 0 -6 -6 -26 -11 -43 -11 -24 0 -34 5 -39 20 -8 25 -53 80 -66
80 -16 0 -10 -20 17 -55 16 -22 21 -36 14 -40 -16 -10 -53 1 -80 25 -13 11
-37 20 -57 20 -21 0 -40 7 -50 20 -10 11 -27 20 -39 20 -12 0 -27 7 -34 15 -7
8 -23 15 -36 15 -13 0 -24 5 -24 12 0 7 -12 22 -27 34 -25 20 -26 22 -10 38 9
10 17 23 17 30 0 7 9 25 20 39 24 30 26 64 4 88 -28 31 -29 90 -3 136 27 46
70 98 86 104 17 6 93 102 93 116 0 13 20 53 31 63 3 3 11 19 18 37 7 17 19 34
27 37 8 3 14 11 14 18 0 6 10 32 22 57 13 27 23 70 25 106 3 51 1 56 -8 35 -6
-14 -15 -33 -20 -42 -5 -10 -9 -24 -9 -32 0 -27 -22 -29 -41 -5 l-17 24 -7
-30 c-14 -64 -18 -67 -55 -37 l-23 18 26 40 c14 21 48 63 76 93 28 29 51 60
51 67 0 22 -31 16 -37 -6 -3 -11 -9 -20 -13 -20 -5 0 -15 -3 -24 -6 -10 -4
-16 -1 -16 9 0 29 -19 28 -26 0 -9 -41 -37 -93 -50 -93 -7 0 -15 -11 -18 -25
-4 -15 -13 -25 -25 -25 -10 0 -24 -7 -31 -15 -14 -17 -66 -20 -75 -5 -3 6 1
13 9 16 9 3 16 15 16 25 0 11 11 24 24 30 13 6 30 26 39 44 9 19 27 41 40 50
34 22 72 97 63 121 -8 18 -9 18 -18 -3 -6 -12 -21 -24 -34 -27 -13 -4 -24 -12
-24 -19 0 -7 -9 -18 -20 -25 -11 -7 -20 -19 -20 -27 0 -8 -9 -19 -20 -25 -11
-6 -20 -15 -20 -21 0 -17 -59 -71 -70 -64 -5 3 -10 16 -10 28 0 13 -17 36 -40
57 -22 19 -40 40 -40 47 0 6 -12 21 -27 32 l-28 21 28 23 c15 12 27 27 27 32
0 6 9 16 20 23 15 9 20 23 20 52 0 30 5 42 18 46 34 11 47 21 52 45 5 20 12
24 45 24 31 0 41 -4 43 -18 2 -11 -5 -25 -17 -33 -12 -9 -21 -20 -21 -26 0 -6
-7 -19 -16 -29 -21 -23 -31 -123 -13 -134 7 -5 14 -4 17 3 2 7 10 12 18 12 7
0 16 11 20 24 6 24 69 76 91 76 6 0 14 14 18 30 5 23 12 30 30 30 13 0 30 7
37 16 91 109 123 127 130 72z m479 -2 c6 -13 20 -27 31 -29 11 -3 22 -15 25
-27 3 -12 16 -26 29 -31 20 -7 24 -16 24 -49 0 -30 -5 -42 -17 -47 -10 -3 -26
-13 -35 -21 -16 -13 -18 -13 -24 4 -3 11 -12 33 -20 51 -8 17 -14 38 -14 47 0
9 -5 16 -10 16 -16 0 -31 51 -25 82 8 34 22 36 36 4z m66 -342 c3 -8 -4 -25
-16 -38 -11 -12 -21 -29 -21 -38 0 -9 -7 -21 -15 -28 -8 -7 -15 -18 -15 -25 0
-7 -14 -18 -30 -25 -24 -10 -33 -10 -45 0 -12 10 -19 10 -27 2 -7 -7 -18 -12
-26 -12 -8 0 -20 -7 -27 -17 -8 -11 -18 -14 -31 -9 -18 7 -18 8 -1 20 9 7 17
18 17 24 0 7 11 14 24 18 14 3 27 12 30 20 3 8 17 19 31 24 14 5 25 16 25 24
0 15 85 76 107 76 8 0 16 -7 20 -16z m-1055 -32 c15 -16 36 -47 48 -70 12 -23
29 -42 37 -42 21 0 12 -44 -10 -48 -11 -2 -31 8 -47 23 -23 22 -28 24 -34 10
-3 -9 5 -35 19 -60 28 -46 19 -71 -14 -41 -21 19 -52 23 -33 4 15 -15 16 -74
2 -83 -5 -3 -10 -19 -10 -36 0 -16 5 -29 10 -29 6 0 10 5 10 10 0 6 9 10 20
10 21 0 28 -24 10 -35 -6 -3 -10 -13 -10 -21 0 -17 40 -74 52 -74 12 0 10 38
-3 42 -6 2 -10 12 -8 22 4 17 7 17 35 -8 18 -14 41 -26 53 -26 12 0 21 -6 21
-15 0 -8 -7 -15 -15 -15 -8 0 -15 -9 -15 -20 0 -11 3 -20 6 -20 17 0 46 24 54
46 11 27 32 31 49 10 9 -10 8 -16 -4 -26 -8 -7 -15 -21 -15 -30 0 -10 -16 -28
-34 -40 -19 -11 -38 -29 -41 -39 -5 -16 -9 -17 -31 -7 -20 9 -24 16 -20 39 6
30 4 32 -25 16 -25 -13 -49 4 -49 33 0 11 -9 22 -20 25 -11 3 -20 11 -20 17 0
6 -9 19 -20 29 -19 16 -20 29 -20 247 l0 230 23 0 c12 0 34 -13 49 -28z m937
-286 c17 -20 10 -67 -12 -80 -40 -25 -97 43 -67 80 16 18 64 18 79 0z m-1109
-21 c16 -19 -1 -42 -33 -47 -16 -2 -23 -11 -25 -32 -5 -39 15 -57 34 -31 13
17 16 18 24 5 13 -20 12 -26 -5 -40 -8 -7 -15 -18 -15 -26 0 -17 40 -84 50
-84 5 0 12 -9 15 -20 7 -22 -10 -50 -30 -50 -20 0 -75 59 -75 80 0 13 -10 24
-25 30 -24 9 -25 14 -25 84 0 68 2 75 25 90 14 9 25 23 25 30 0 26 41 33 60
11z m1505 -15 c3 -11 17 -23 31 -26 23 -6 24 -9 24 -94 0 -83 -1 -89 -25 -104
-14 -9 -25 -21 -25 -27 0 -19 -60 -71 -75 -65 -16 6 -20 41 -6 50 4 3 11 39
13 81 6 84 13 99 34 71 19 -27 36 -8 32 35 -2 26 -8 34 -28 39 -18 4 -26 13
-28 33 -3 23 0 27 22 27 16 0 27 -7 31 -20z m-454 -116 c11 -14 10 -15 -11
-12 -13 1 -25 9 -28 16 -5 17 23 15 39 -4z m-584 -11 c-9 -9 -19 -14 -23 -11
-10 10 6 28 24 28 15 0 15 -1 -1 -17z m676 0 c-7 -2 -19 -2 -25 0 -7 3 -2 5
12 5 14 0 19 -2 13 -5z m-991 -118 c13 -18 33 -39 45 -44 12 -6 29 -20 37 -33
13 -20 13 -29 2 -61 -7 -20 -21 -43 -31 -50 -16 -12 -16 -17 -4 -43 18 -36 32
-34 40 7 11 53 59 79 59 32 0 -9 7 -24 15 -34 13 -14 14 -19 3 -31 -17 -19
-36 -48 -48 -75 -5 -13 -13 -23 -16 -23 -17 0 -74 71 -74 91 0 13 -9 33 -21
45 -23 24 -39 104 -21 104 6 0 16 -9 22 -20 14 -25 30 -26 30 -1 0 11 -20 40
-45 64 -34 34 -45 53 -45 76 0 42 24 40 52 -4z m1208 -20 c0 -36 -4 -47 -25
-61 -21 -14 -25 -24 -25 -64 0 -52 -33 -138 -56 -147 -9 -3 -20 -16 -25 -29
-10 -28 -27 -31 -35 -7 -3 10 -10 26 -16 37 -6 13 -6 32 3 62 l13 44 28 -27
c25 -24 28 -25 34 -8 4 10 -1 32 -11 52 -15 28 -17 38 -7 51 7 9 15 24 18 34
3 9 16 19 27 22 13 3 30 23 40 46 24 52 37 51 37 -5z"/>
<path d="M1134 1489 c-6 -8 -16 -29 -22 -47 -6 -19 -23 -47 -37 -64 -14 -16
-25 -38 -25 -49 0 -10 -4 -19 -9 -19 -5 0 -16 -21 -25 -47 -9 -25 -23 -55 -32
-64 -13 -14 -14 -22 -6 -32 6 -7 12 -49 14 -92 l3 -80 23 43 c15 30 22 60 22
101 0 44 5 65 21 85 26 33 34 33 56 -4 14 -25 53 -43 53 -24 0 16 -26 52 -53
76 -30 25 -31 27 -14 45 9 11 17 26 17 35 0 8 7 29 16 46 18 37 16 115 -2 91z"/>
<path d="M976 1351 c-3 -5 1 -14 8 -20 16 -13 32 2 21 19 -8 12 -22 13 -29 1z"/>
<path d="M496 1301 c-4 -5 -2 -12 3 -15 5 -4 12 -2 15 3 4 5 2 12 -3 15 -5 4
-12 2 -15 -3z"/>
<path d="M1265 1291 c-3 -12 -11 -21 -16 -21 -5 0 -9 -4 -9 -10 0 -15 15 -12
40 8 19 16 20 19 7 30 -13 11 -16 10 -22 -7z"/>
<path d="M927 945 c-4 -11 -10 -27 -13 -35 -5 -12 -3 -12 11 1 9 9 15 25 13
35 -4 18 -4 18 -11 -1z"/>
<path d="M1054 905 c-7 -19 7 -50 22 -50 16 0 15 41 0 55 -13 10 -17 9 -22 -5z"/>
<path d="M890 838 c0 -8 -12 -23 -27 -35 -16 -11 -38 -41 -51 -66 -13 -26 -31
-52 -40 -59 -9 -7 -29 -31 -43 -54 -15 -22 -41 -55 -59 -72 -24 -25 -31 -39
-28 -64 4 -37 27 -50 35 -19 3 12 9 21 13 21 5 0 12 10 16 23 3 12 13 29 20
37 45 50 64 74 64 81 0 5 6 9 13 9 15 1 63 75 72 113 4 15 16 32 27 38 12 6
18 19 16 31 -3 24 -28 37 -28 16z"/>
<path d="M1127 803 c-14 -13 -6 -47 18 -79 14 -18 25 -37 25 -42 0 -6 7 -12
15 -16 8 -3 15 -12 15 -21 0 -21 26 -19 34 2 4 11 1 22 -8 29 -9 6 -16 14 -16
18 0 5 -64 103 -74 114 -2 1 -6 -1 -9 -5z"/>
<path d="M1550 800 c0 -5 7 -10 16 -10 8 0 12 5 9 10 -3 6 -10 10 -16 10 -5 0
-9 -4 -9 -10z"/>
<path d="M957 757 c-20 -24 -46 -63 -58 -86 -12 -24 -28 -45 -35 -48 -18 -7
34 -73 57 -73 9 0 22 14 29 30 7 17 16 30 21 30 5 0 11 11 15 25 10 40 23 29
26 -22 2 -31 7 -47 15 -46 7 2 24 -2 38 -7 16 -6 25 -6 25 0 0 6 10 20 21 31
19 19 20 23 6 30 -8 5 -28 30 -43 56 -16 27 -34 57 -41 68 -7 11 -16 28 -19
38 -9 25 -18 22 -57 -26z m53 -28 c0 -5 -4 -9 -10 -9 -5 0 -10 7 -10 16 0 8 5
12 10 9 6 -3 10 -10 10 -16z"/>
<path d="M1520 760 c0 -5 5 -10 10 -10 6 0 10 5 10 10 0 6 -4 10 -10 10 -5 0
-10 -4 -10 -10z"/>
<path d="M1256 615 c-3 -9 -2 -24 2 -32 8 -13 10 -13 16 2 3 9 2 24 -2 32 -8
13 -10 13 -16 -2z"/>
<path d="M800 560 c0 -5 9 -10 20 -10 11 0 20 5 20 10 0 6 -9 10 -20 10 -11 0
-20 -4 -20 -10z"/>
<path d="M1296 563 c-11 -11 -6 -23 9 -23 8 0 15 4 15 9 0 13 -16 22 -24 14z"/>
<path d="M1156 530 c-14 -17 -26 -38 -26 -46 0 -22 -28 -16 -41 8 l-12 23 -10
-23 c-14 -30 -45 -28 -53 3 -8 32 -20 32 -36 -2 -7 -16 -23 -29 -36 -31 -18
-3 -22 1 -22 22 0 34 -18 42 -29 13 -17 -45 -76 -51 -92 -10 -8 22 -12 24 -19
13 -6 -8 -10 -27 -10 -42 0 -28 -13 -37 -25 -18 -9 15 -25 12 -25 -4 0 -8 -11
-28 -25 -44 -14 -17 -32 -46 -40 -66 -9 -20 -20 -36 -25 -36 -20 0 -9 -20 20
-35 37 -19 40 -19 40 5 0 34 18 22 33 -22 7 -24 18 -43 23 -43 5 0 11 20 14
44 7 58 24 62 49 12 27 -51 36 -56 49 -26 13 29 30 32 47 8 11 -15 15 -15 29
-4 13 11 17 11 22 -3 3 -9 15 -16 25 -16 10 0 19 -5 19 -10 0 -13 79 -100 91
-100 15 0 15 35 0 62 -8 16 -23 28 -33 28 -11 0 -18 7 -18 20 0 10 -9 24 -20
30 -19 10 -28 58 -13 73 10 11 33 -13 33 -34 0 -25 17 -24 25 1 9 27 43 46 58
31 8 -8 8 -14 -1 -23 -16 -16 -16 -61 1 -56 6 3 21 22 32 42 25 48 41 43 37
-11 -2 -27 0 -43 7 -43 17 0 51 38 51 56 0 23 24 11 28 -14 4 -25 5 -26 35
-10 12 6 29 14 37 18 24 11 24 50 1 67 -12 8 -21 25 -21 39 0 15 -14 38 -34
59 -19 18 -36 39 -39 47 -3 10 -8 11 -26 1 -11 -7 -27 -13 -35 -13 -22 0 -28
31 -9 52 11 13 13 22 6 29 -7 7 -18 0 -37 -21z m-138 -143 c3 -21 -1 -27 -16
-27 -22 0 -34 22 -25 45 9 25 38 13 41 -18z m173 0 c4 -15 3 -29 -2 -33 -16
-10 -29 7 -29 37 0 37 21 34 31 -4z m-276 13 c10 -16 -16 -43 -28 -31 -11 11
-2 41 12 41 5 0 13 -5 16 -10z m199 -12 c19 -27 12 -38 -24 -38 -32 0 -48 15
-25 24 8 3 15 12 15 21 0 22 16 19 34 -7z m-280 -5 c9 -22 -10 -41 -25 -26
-13 13 -5 43 10 43 5 0 12 -8 15 -17z m426 -8 c0 -14 -4 -25 -10 -25 -11 0
-14 33 -3 43 11 11 13 8 13 -18z m-503 -31 c-9 -9 -28 6 -21 18 4 6 10 6 17
-1 6 -6 8 -13 4 -17z m103 -49 c0 -14 -4 -25 -10 -25 -11 0 -14 33 -3 43 11
11 13 8 13 -18z m94 8 c9 -22 -10 -41 -25 -26 -13 13 -5 43 10 43 5 0 12 -8
15 -17z"/>
<path d="M1326 501 c-4 -7 -5 -15 -2 -18 9 -9 19 4 14 18 -4 11 -6 11 -12 0z"/>
<path d="M1256 192 c-3 -6 -1 -14 5 -17 15 -10 25 3 12 16 -7 7 -13 7 -17 1z"/>
<path d="M775 180 c-4 -6 -3 -16 3 -22 6 -6 12 -6 17 2 4 6 3 16 -3 22 -6 6
-12 6 -17 -2z"/>
<path d="M1162 178 c6 -16 36 -34 44 -25 9 9 -15 37 -33 37 -8 0 -13 -5 -11
-12z"/>
</g>
</svg>
