<?xml version="1.0" standalone="no"?>
<!DOCTYPE svg PUBLIC "-//W3C//DTD SVG 20010904//EN"
 "http://www.w3.org/TR/2001/REC-SVG-20010904/DTD/svg10.dtd">
<svg version="1.0" xmlns="http://www.w3.org/2000/svg"
 width="300.000000pt" height="300.000000pt" viewBox="0 0 300.000000 300.000000"
 preserveAspectRatio="xMidYMid meet">
<metadata>
Created by potrace 1.10, written by Peter Selinger 2001-2011
</metadata>
<g transform="translate(0.000000,300.000000) scale(0.100000,-0.100000)"
fill="#000000" stroke="none">
<path d="M1516 2793 c-66 -23 -147 -99 -176 -165 -13 -30 -25 -83 -28 -120 -2
-38 -5 -68 -6 -68 -42 -2 -233 -43 -259 -55 -58 -27 -57 -51 6 -142 61 -88 89
-140 216 -403 109 -225 153 -280 269 -337 74 -37 79 -38 201 -41 70 -2 146 1
171 5 63 12 63 36 6 149 -26 48 -46 94 -46 100 0 34 48 63 151 93 59 17 114
31 122 31 54 0 113 -78 149 -195 11 -36 25 -65 30 -65 22 0 139 64 177 96 61
53 86 113 85 209 -1 104 -21 172 -99 330 -80 161 -181 299 -245 333 -42 22
-53 23 -145 18 -55 -3 -112 -9 -127 -12 -22 -5 -29 -2 -34 12 -31 98 -89 171
-169 212 -65 33 -177 40 -249 15z m212 -102 c62 -31 130 -128 106 -150 -5 -5
-103 -24 -217 -43 -230 -39 -225 -40 -212 29 29 155 185 234 323 164z"/>
<path d="M920 2215 c-42 -109 -68 -277 -106 -680 -32 -342 -36 -639 -11 -785
51 -293 184 -462 416 -526 34 -10 63 -15 66 -13 2 3 -9 113 -25 245 -41 339
-76 671 -100 949 -21 250 -46 489 -56 540 -11 58 -131 270 -164 290 -6 3 -14
-5 -20 -20z"/>
<path d="M725 2075 c-128 -87 -277 -266 -365 -439 -133 -262 -174 -538 -115
-772 77 -306 263 -483 528 -501 l77 -6 -35 59 c-33 55 -73 163 -90 244 -4 21
-26 55 -52 82 -55 60 -81 120 -95 220 -19 136 10 272 96 453 43 88 44 93 60
270 9 99 25 232 36 295 11 63 20 118 20 123 0 13 -14 7 -65 -28z"/>
<path d="M2043 1718 l-63 -20 24 -46 c30 -59 56 -146 56 -186 0 -55 8 -58 90
-33 l75 23 -3 55 c-3 61 -25 136 -55 192 -24 43 -33 44 -124 15z"/>
<path d="M1230 1672 c0 -20 61 -666 77 -809 l17 -163 26 0 c45 0 302 41 450
71 255 52 493 120 735 207 214 77 225 82 225 102 0 27 -160 523 -173 536 -1 2
-24 -12 -50 -30 -26 -19 -86 -51 -132 -72 -62 -28 -85 -43 -85 -57 0 -29 -27
-72 -52 -83 -13 -6 -67 -23 -121 -39 -111 -32 -143 -29 -166 19 -12 25 -17 28
-50 22 -250 -42 -449 10 -584 154 -37 38 -76 88 -87 110 -19 38 -30 49 -30 32z"/>
<path d="M2645 918 c-381 -143 -915 -277 -1215 -304 -37 -4 -74 -10 -80 -14
-10 -6 -7 -50 10 -196 13 -104 28 -195 34 -203 9 -11 39 -13 156 -8 316 12
861 149 1032 258 133 85 202 234 196 423 l-3 93 -130 -49z"/>
</g>
</svg>
