<?xml version="1.0" standalone="no"?>
<!DOCTYPE svg PUBLIC "-//W3C//DTD SVG 20010904//EN"
 "http://www.w3.org/TR/2001/REC-SVG-20010904/DTD/svg10.dtd">
<svg version="1.0" xmlns="http://www.w3.org/2000/svg"
 width="217.000000pt" height="173.000000pt" viewBox="0 0 217.000000 173.000000"
 preserveAspectRatio="xMidYMid meet">
<metadata>
Created by potrace 1.10, written by Peter Selinger 2001-2011
</metadata>
<g transform="translate(0.000000,173.000000) scale(0.100000,-0.100000)"
fill="#000000" stroke="none">
<path d="M808 1683 l-3 -38 -72 -3 c-70 -3 -73 -4 -79 -30 -10 -49 -13 -52
-43 -52 -25 0 -32 -5 -37 -27 -10 -50 -13 -53 -43 -53 -25 0 -32 -5 -37 -27
-10 -50 -13 -53 -43 -53 -25 0 -32 -5 -37 -27 -10 -50 -13 -53 -43 -53 -35 0
-41 -13 -41 -85 0 -56 -8 -65 -56 -65 l-24 0 0 -120 0 -120 -80 0 -80 0 0 -68
c0 -75 9 -92 53 -92 27 0 28 -2 25 -37 -3 -35 -6 -38 -38 -43 -31 -4 -36 -9
-40 -40 -4 -31 -9 -36 -40 -40 -27 -4 -36 -10 -38 -28 -6 -40 14 -52 90 -52
l69 0 -3 -77 -3 -78 -35 -5 c-27 -4 -36 -10 -38 -28 -5 -32 15 -52 50 -52 28
0 29 -2 26 -37 -3 -34 -6 -38 -33 -41 -39 -5 -45 -15 -45 -83 0 -62 14 -83 52
-77 19 2 24 10 26 40 l3 38 120 0 119 0 0 -29 c0 -34 20 -54 52 -49 18 2 24
11 28 38 5 32 8 35 43 38 l37 3 0 -65 0 -66 515 0 514 0 3 63 3 62 35 0 c32 0
35 -3 40 -35 5 -32 8 -35 40 -35 33 0 35 2 38 38 l3 37 119 0 119 0 3 -37 c3
-36 5 -38 38 -38 l35 0 0 75 0 75 -35 5 c-32 5 -35 8 -35 40 0 32 3 35 35 40
32 5 35 8 35 40 0 32 -3 35 -35 40 l-35 5 -3 78 -3 77 68 0 c81 0 96 8 91 46
-3 25 -8 30 -38 34 -31 4 -36 9 -40 40 -4 31 -9 36 -40 40 -32 5 -35 8 -35 40
0 32 3 35 35 40 l35 5 3 78 3 77 -81 0 -80 0 0 120 0 120 -27 0 c-44 0 -52 11
-55 80 l-3 65 -35 5 c-31 4 -36 9 -40 40 -4 31 -9 36 -40 40 -31 4 -36 9 -40
40 -4 31 -9 36 -40 40 -31 4 -36 9 -40 40 -4 31 -9 36 -40 40 -31 4 -36 9 -40
40 l-5 35 -75 5 -75 5 -3 38 -3 37 -274 0 -274 0 -3 -37z m554 -80 l3 -38 75
-5 75 -5 5 -35 c4 -31 9 -36 40 -40 31 -4 36 -9 40 -40 5 -32 8 -35 43 -38
l37 -3 0 -114 0 -114 -37 -3 c-36 -3 -38 -5 -38 -38 0 -32 3 -35 35 -40 32 -5
35 -8 35 -40 0 -32 -3 -35 -35 -40 -32 -5 -35 -8 -35 -40 0 -33 2 -35 38 -38
l37 -3 0 -239 0 -239 -37 -3 c-35 -3 -38 -6 -41 -35 -4 -37 -13 -41 -102 -45
-54 -3 -55 -4 -58 -35 -4 -37 -13 -41 -102 -45 l-55 -3 -3 -37 -3 -38 -195 0
-194 0 0 40 0 40 -68 0 c-75 0 -92 9 -92 52 0 28 0 28 -68 28 -75 0 -92 9 -92
52 0 26 -3 28 -40 28 l-40 0 0 239 0 240 38 3 c35 3 37 5 40 41 3 35 2 37 -26
37 -35 0 -55 20 -50 52 2 18 11 24 38 28 32 5 35 8 38 43 l3 37 -40 0 -41 0 0
115 0 115 35 0 c36 0 38 3 49 53 5 22 12 27 37 27 30 0 33 3 43 52 6 26 9 27
79 30 l72 3 3 38 3 37 274 0 274 0 3 -37z m-954 -790 c-3 -35 -6 -38 -38 -43
-27 -4 -36 -10 -38 -28 -5 -32 15 -52 50 -52 28 0 29 -2 26 -37 -2 -31 -7 -39
-26 -41 -32 -5 -52 15 -52 49 0 25 -4 29 -28 29 -36 0 -52 16 -52 52 0 24 -4
28 -28 28 -36 0 -52 16 -52 52 l0 28 121 0 120 0 -3 -37z m1590 0 c-3 -35 -6
-38 -38 -43 -31 -4 -36 -9 -40 -40 -4 -31 -9 -36 -40 -40 -31 -4 -36 -9 -40
-40 -5 -32 -8 -35 -40 -35 -33 0 -35 2 -35 35 0 32 3 35 35 40 32 5 35 8 35
40 0 32 -3 35 -35 40 -32 5 -35 8 -38 43 l-3 37 121 0 121 0 -3 -37z m-1508
-471 c0 -43 17 -52 92 -52 68 0 68 0 68 -28 0 -43 17 -52 92 -52 68 0 68 0 68
-28 0 -36 16 -52 53 -52 27 0 28 -2 25 -38 -2 -30 -7 -38 -26 -40 -32 -5 -52
15 -52 49 l0 29 -120 0 -120 0 0 40 0 40 -161 0 -160 0 3 38 c3 34 6 37 38 42
28 4 36 10 38 30 6 49 8 50 87 50 l75 0 0 -28z m1350 -12 c4 -31 9 -36 40 -40
32 -5 35 -8 38 -42 l3 -38 -160 0 -161 0 0 -40 0 -40 -119 0 -120 0 -3 -37
c-3 -36 -5 -38 -38 -38 -33 0 -35 2 -35 35 0 32 3 35 35 40 31 4 36 9 40 40 5
35 5 35 60 38 89 4 98 8 102 45 3 31 4 32 58 35 88 4 100 9 100 41 0 15 3 31
7 35 4 4 39 5 78 4 l70 -3 5 -35z"/>
<path d="M730 975 c0 -30 -4 -35 -27 -41 -49 -10 -53 -13 -53 -37 0 -31 18
-47 52 -47 25 0 28 -3 28 -34 0 -34 -13 -46 -50 -46 -23 0 -30 -19 -30 -85 0
-58 14 -79 52 -73 20 3 23 9 26 58 4 92 8 100 47 100 l35 0 0 -68 c0 -73 10
-92 47 -92 24 0 27 4 37 53 4 18 13 27 25 27 46 0 51 9 51 86 l0 73 -117 3
-118 3 -3 38 -3 37 120 0 121 0 0 40 0 40 -120 0 -120 0 0 -35z"/>
<path d="M1200 970 l0 -40 120 0 120 0 0 -40 0 -40 -120 0 -120 0 0 -69 c0
-73 7 -87 50 -93 20 -2 26 -9 28 -35 3 -25 9 -34 28 -39 45 -11 53 0 56 78 l3
73 35 0 35 0 3 -65 c3 -73 14 -92 51 -88 25 3 26 6 29 76 3 77 4 74 -51 87
-25 5 -28 10 -25 38 3 28 7 33 38 37 31 4 35 9 38 38 3 33 1 35 -50 46 -24 6
-28 11 -28 41 l0 35 -120 0 -120 0 0 -40z"/>
<path d="M970 410 l0 -40 115 0 115 0 0 40 0 40 -115 0 -115 0 0 -40z"/>
</g>
</svg>
