<?xml version="1.0" standalone="no"?>
<!DOCTYPE svg PUBLIC "-//W3C//DTD SVG 20010904//EN"
 "http://www.w3.org/TR/2001/REC-SVG-20010904/DTD/svg10.dtd">
<svg version="1.0" xmlns="http://www.w3.org/2000/svg"
 width="204.000000pt" height="255.000000pt" viewBox="0 0 204.000000 255.000000"
 preserveAspectRatio="xMidYMid meet">
<metadata>
Created by potrace 1.10, written by Peter Selinger 2001-2011
</metadata>
<g transform="translate(0.000000,255.000000) scale(0.100000,-0.100000)"
fill="#000000" stroke="none">
<path d="M1000 2490 c0 -30 0 -30 -60 -30 -60 0 -60 0 -60 -30 0 -27 -3 -30
-30 -30 -27 0 -30 -3 -30 -30 0 -27 -3 -30 -30 -30 -27 0 -30 -3 -30 -30 0
-27 -3 -30 -30 -30 -27 0 -30 -3 -30 -30 0 -27 -3 -30 -30 -30 -30 0 -30 -1
-30 -55 0 -54 0 -55 -30 -55 l-30 0 0 -90 0 -90 -60 0 -60 0 0 -60 c0 -60 0
-60 30 -60 27 0 30 -3 30 -30 0 -27 -3 -30 -30 -30 -27 0 -30 -3 -30 -30 0
-27 -3 -30 -30 -30 -27 0 -30 -3 -30 -30 0 -30 0 -30 60 -30 l60 0 0 -60 c0
-60 0 -60 -30 -60 -27 0 -30 -3 -30 -30 0 -27 3 -30 30 -30 27 0 30 -3 30 -30
0 -27 -3 -30 -30 -30 -30 0 -30 0 -30 -60 0 -60 0 -60 30 -60 27 0 30 3 30 30
l0 30 90 0 90 0 0 -30 c0 -27 3 -30 30 -30 27 0 30 3 30 30 0 27 3 30 30 30
30 0 30 0 30 -60 0 -60 0 -60 -30 -60 -30 0 -30 0 -30 -60 0 -60 0 -60 -30
-60 -27 0 -30 -3 -30 -30 0 -27 -3 -30 -30 -30 -27 0 -30 -3 -30 -30 0 -30 0
-30 -60 -30 -60 0 -60 0 -60 -30 l0 -30 -90 0 -90 0 0 -30 0 -30 -150 0 -150
0 0 -30 c0 -27 3 -30 30 -30 27 0 30 -3 30 -30 0 -30 0 -30 60 -30 l60 0 0
-55 c0 -54 0 -55 30 -55 27 0 30 -3 30 -30 0 -27 3 -30 30 -30 27 0 30 -3 30
-30 l0 -30 120 0 120 0 0 -30 c0 -27 3 -30 30 -30 27 0 30 -3 30 -30 0 -30 0
-30 60 -30 60 0 60 0 60 -30 0 -27 3 -30 30 -30 l30 0 0 -90 0 -90 175 0 175
0 0 90 0 90 30 0 30 0 0 -90 0 -90 180 0 180 0 0 90 0 90 -30 0 c-27 0 -30 3
-30 30 0 27 -3 30 -30 30 l-30 0 0 90 0 90 60 0 c60 0 60 0 60 30 0 27 3 30
30 30 27 0 30 3 30 30 0 27 3 30 30 30 l30 0 0 175 0 175 -30 0 -30 0 0 90 0
90 -30 0 c-30 0 -30 0 -30 60 0 60 0 60 30 60 27 0 30 -3 30 -30 0 -27 3 -30
30 -30 27 0 30 3 30 30 l0 30 90 0 90 0 0 -30 c0 -27 3 -30 30 -30 30 0 30 0
30 60 0 60 0 60 -30 60 -27 0 -30 3 -30 30 0 27 3 30 30 30 27 0 30 3 30 30 0
27 -3 30 -30 30 -30 0 -30 0 -30 60 l0 60 60 0 c60 0 60 0 60 30 0 27 -3 30
-30 30 -27 0 -30 3 -30 30 0 27 -3 30 -30 30 -27 0 -30 3 -30 30 0 27 3 30 30
30 30 0 30 0 30 60 l0 60 -60 0 -60 0 0 90 0 90 -30 0 c-30 0 -30 1 -30 55 0
54 0 55 -30 55 -27 0 -30 3 -30 30 0 27 -3 30 -30 30 -27 0 -30 3 -30 30 0 27
-3 30 -30 30 -27 0 -30 3 -30 30 0 27 -3 30 -30 30 -27 0 -30 3 -30 30 0 30 0
30 -60 30 -60 0 -60 0 -60 30 l0 30 -205 0 -205 0 0 -30z m410 -60 c0 -30 0
-30 60 -30 60 0 60 0 60 -30 0 -27 3 -30 30 -30 27 0 30 -3 30 -30 0 -27 3
-30 30 -30 l30 0 0 -85 0 -85 -30 0 c-27 0 -30 -3 -30 -30 0 -27 3 -30 30 -30
27 0 30 -3 30 -30 0 -27 -3 -30 -30 -30 -27 0 -30 -3 -30 -30 0 -27 3 -30 30
-30 l30 0 0 -180 0 -180 -30 0 c-27 0 -30 -3 -30 -30 0 -30 0 -30 -60 -30 -60
0 -60 0 -60 -30 0 -30 0 -30 -60 -30 -60 0 -60 0 -60 -30 l0 -30 -145 0 -145
0 0 30 c0 30 0 30 -60 30 -60 0 -60 0 -60 30 0 30 0 30 -60 30 -60 0 -60 0
-60 30 0 27 -3 30 -30 30 l-30 0 0 180 0 180 30 0 c27 0 30 3 30 30 0 27 -3
30 -30 30 -27 0 -30 3 -30 30 0 27 3 30 30 30 27 0 30 3 30 30 0 27 -3 30 -30
30 l-30 0 0 85 0 85 30 0 c27 0 30 3 30 30 0 27 3 30 30 30 27 0 30 3 30 30 0
30 0 30 60 30 60 0 60 0 60 30 l0 30 205 0 205 0 0 -30z m-710 -590 c0 -27 -3
-30 -30 -30 -27 0 -30 -3 -30 -30 0 -27 3 -30 30 -30 27 0 30 -3 30 -30 0 -27
-3 -30 -30 -30 -27 0 -30 3 -30 30 0 27 -3 30 -30 30 -27 0 -30 3 -30 30 0 27
-3 30 -30 30 -27 0 -30 3 -30 30 l0 30 90 0 90 0 0 -30z m1190 0 c0 -27 -3
-30 -30 -30 -27 0 -30 -3 -30 -30 0 -27 -3 -30 -30 -30 -27 0 -30 -3 -30 -30
0 -27 -3 -30 -30 -30 -27 0 -30 3 -30 30 0 27 3 30 30 30 27 0 30 3 30 30 0
27 -3 30 -30 30 -27 0 -30 3 -30 30 l0 30 90 0 90 0 0 -30z m-1130 -360 c0
-30 0 -30 60 -30 60 0 60 0 60 -30 0 -30 0 -30 60 -30 60 0 60 0 60 -30 0 -27
3 -30 30 -30 27 0 30 -3 30 -30 0 -27 -3 -30 -30 -30 -27 0 -30 3 -30 30 l0
30 -90 0 -90 0 0 30 0 30 -120 0 -120 0 0 30 c0 27 3 30 30 30 27 0 30 3 30
30 0 30 0 30 60 30 60 0 60 0 60 -30z m1010 0 c0 -27 3 -30 30 -30 27 0 30 -3
30 -30 l0 -30 -120 0 -120 0 0 -30 0 -30 -90 0 -90 0 0 -30 c0 -27 -3 -30 -30
-30 -27 0 -30 3 -30 30 0 27 3 30 30 30 27 0 30 3 30 30 0 30 0 30 60 30 60 0
60 0 60 30 0 30 0 30 60 30 60 0 60 0 60 30 0 30 0 30 60 30 60 0 60 0 60 -30z
m-540 -360 c0 -27 -3 -30 -30 -30 -27 0 -30 3 -30 30 0 27 3 30 30 30 27 0 30
-3 30 -30z m0 -120 c0 -27 -3 -30 -30 -30 -27 0 -30 3 -30 30 0 27 3 30 30 30
27 0 30 -3 30 -30z m-350 -120 c0 -30 0 -30 -60 -30 -60 0 -60 0 -60 30 0 30
0 30 60 30 60 0 60 0 60 -30z m350 0 c0 -27 -3 -30 -30 -30 -27 0 -30 3 -30
30 0 27 3 30 30 30 27 0 30 -3 30 -30z m420 0 c0 -30 0 -30 -60 -30 -60 0 -60
0 -60 30 0 30 0 30 60 30 60 0 60 0 60 -30z m-770 -175 l0 -85 -30 0 c-27 0
-30 3 -30 30 0 27 -3 30 -30 30 -30 0 -30 1 -30 55 l0 55 60 0 60 0 0 -85z
m240 55 c0 -30 0 -30 -60 -30 -60 0 -60 0 -60 30 0 30 0 30 60 30 60 0 60 0
60 -30z m290 0 c0 -30 0 -30 -60 -30 -60 0 -60 0 -60 30 0 30 0 30 60 30 60 0
60 0 60 -30z m240 -25 c0 -54 0 -55 -30 -55 -27 0 -30 -3 -30 -30 0 -27 -3
-30 -30 -30 l-30 0 0 85 0 85 60 0 60 0 0 -55z m-590 -325 c0 -27 -3 -30 -30
-30 -27 0 -30 3 -30 30 0 27 3 30 30 30 27 0 30 -3 30 -30z m350 0 c0 -27 -3
-30 -30 -30 -27 0 -30 3 -30 30 0 27 3 30 30 30 27 0 30 -3 30 -30z m-290
-150 l0 -60 -120 0 -120 0 0 60 0 60 120 0 120 0 0 -60z m410 0 l0 -60 -120 0
-120 0 0 60 0 60 120 0 120 0 0 -60z"/>
<path d="M940 1960 c0 -27 -3 -30 -30 -30 -27 0 -30 -3 -30 -30 0 -27 3 -30
30 -30 27 0 30 -3 30 -30 0 -27 -3 -30 -30 -30 -30 0 -30 0 -30 -60 0 -60 0
-60 30 -60 30 0 30 0 30 60 0 60 0 60 30 60 30 0 30 0 30 -60 0 -60 0 -60 30
-60 27 0 30 3 30 30 0 27 3 30 30 30 30 0 30 0 30 60 l0 60 -90 0 -90 0 0 30
0 30 90 0 90 0 0 30 0 30 -90 0 -90 0 0 -30z"/>
<path d="M1290 1960 l0 -30 90 0 90 0 0 -30 0 -30 -90 0 -90 0 0 -60 c0 -60 0
-60 30 -60 27 0 30 -3 30 -30 0 -27 3 -30 30 -30 30 0 30 0 30 60 0 60 0 60
30 60 30 0 30 0 30 -60 0 -60 0 -60 30 -60 30 0 30 0 30 60 0 60 0 60 -30 60
-27 0 -30 3 -30 30 0 27 3 30 30 30 27 0 30 3 30 30 0 27 -3 30 -30 30 -27 0
-30 3 -30 30 l0 30 -90 0 -90 0 0 -30z"/>
<path d="M1120 1540 l0 -30 85 0 85 0 0 30 0 30 -85 0 -85 0 0 -30z"/>
</g>
</svg>
