<?xml version="1.0" standalone="no"?>
<!DOCTYPE svg PUBLIC "-//W3C//DTD SVG 20010904//EN"
 "http://www.w3.org/TR/2001/REC-SVG-20010904/DTD/svg10.dtd">
<svg version="1.0" xmlns="http://www.w3.org/2000/svg"
 width="300.000000pt" height="300.000000pt" viewBox="0 0 300.000000 300.000000"
 preserveAspectRatio="xMidYMid meet">
<metadata>
Created by potrace 1.10, written by Peter Selinger 2001-2011
</metadata>
<g transform="translate(0.000000,300.000000) scale(0.100000,-0.100000)"
 stroke="none">
<path d="M1338 2984 c-39 -20 -48 -43 -48 -118 l0 -66 210 0 210 0 0 66 c0
120 -23 134 -212 134 -98 -1 -140 -5 -160 -16z"/>
<path d="M1202 2694 c-20 -14 -22 -23 -22 -108 0 -77 3 -96 18 -109 16 -15 52
-17 304 -17 341 0 318 -9 318 128 0 129 19 122 -320 122 -233 0 -279 -2 -298
-16z"/>
<path d="M1250 2274 c0 -82 -2 -95 -15 -90 -113 43 -308 54 -425 23 -93 -24
-235 -98 -305 -158 -176 -152 -272 -351 -282 -584 -8 -190 28 -344 132 -561
194 -404 550 -730 946 -866 83 -28 106 -32 199 -32 123 1 214 26 365 101 334
166 615 453 780 797 104 216 140 370 133 561 -9 218 -83 382 -242 540 -103
103 -197 159 -332 197 -129 36 -317 29 -439 -18 -13 -5 -15 8 -15 90 l0 96
-250 0 -250 0 0 -96z m-30 -578 c98 -26 166 -55 256 -112 l87 -55 81 40 c152
75 295 110 476 118 137 6 242 -8 323 -44 106 -48 133 -103 124 -257 -12 -210
-116 -453 -293 -681 -204 -264 -566 -491 -779 -489 -211 3 -568 229 -770 489
-192 246 -324 580 -285 720 36 129 233 246 478 285 74 12 232 4 302 -14z"/>
<path d="M870 1614 c-149 -32 -299 -114 -335 -185 -57 -108 75 -444 269 -685
189 -235 516 -444 696 -444 203 0 576 259 758 527 108 159 199 361 217 487 8
50 -1 58 -29 28 -23 -26 -113 -70 -177 -87 -169 -45 -373 -19 -545 68 -28 14
-114 68 -191 120 -161 108 -224 140 -330 168 -90 23 -236 24 -333 3z m-100
-236 c74 -50 109 -194 63 -256 -30 -40 -86 -42 -126 -5 -42 40 -67 99 -67 161
0 107 56 150 130 100z m125 -383 c30 -29 32 -68 5 -95 -22 -22 -25 -23 -58
-14 -23 7 -52 50 -52 79 0 22 36 55 60 55 12 0 32 -11 45 -25z"/>
<path d="M2005 1593 c-97 -14 -297 -78 -341 -110 -17 -13 -17 -14 2 -28 47
-36 205 -106 269 -120 145 -31 303 -14 407 42 63 34 130 107 126 135 -4 27
-50 55 -120 74 -50 13 -266 17 -343 7z"/>
</g>
</svg>
