<?xml version="1.0" standalone="no"?>
<!DOCTYPE svg PUBLIC "-//W3C//DTD SVG 20010904//EN"
 "http://www.w3.org/TR/2001/REC-SVG-20010904/DTD/svg10.dtd">
<svg version="1.0" xmlns="http://www.w3.org/2000/svg"
 width="229.000000pt" height="223.000000pt" viewBox="0 0 229.000000 223.000000"
 preserveAspectRatio="xMidYMid meet">
<metadata>
Created by potrace 1.10, written by Peter Selinger 2001-2011
</metadata>
<g transform="translate(0.000000,223.000000) scale(0.100000,-0.100000)"
fill="#000000" stroke="none">
<path d="M150 2125 l0 -25 990 0 990 0 0 25 0 25 -990 0 -990 0 0 -25z"/>
<path d="M210 1640 l0 -400 930 0 930 0 0 400 0 400 -930 0 -930 0 0 -400z
m634 224 c12 -31 7 -439 -6 -452 -13 -13 -421 -18 -452 -6 -14 5 -16 36 -16
240 l0 234 234 0 c204 0 235 -2 240 -16z m1066 -218 c0 -204 -2 -235 -16 -240
-31 -12 -439 -7 -452 6 -13 13 -18 421 -6 452 5 14 36 16 240 16 l234 0 0
-234z"/>
<path d="M420 1750 l0 -80 80 0 80 0 0 80 0 80 -80 0 -80 0 0 -80z"/>
<path d="M630 1750 l0 -80 80 0 80 0 0 80 0 80 -80 0 -80 0 0 -80z"/>
<path d="M420 1540 l0 -80 80 0 80 0 0 80 0 80 -80 0 -80 0 0 -80z"/>
<path d="M637 1613 c-4 -3 -7 -39 -7 -80 l0 -73 80 0 80 0 0 80 0 80 -73 0
c-41 0 -77 -3 -80 -7z"/>
<path d="M1490 1750 l0 -80 80 0 80 0 0 80 0 80 -80 0 -80 0 0 -80z"/>
<path d="M1700 1750 l0 -80 80 0 80 0 0 80 0 80 -80 0 -80 0 0 -80z"/>
<path d="M1490 1540 l0 -80 80 0 81 0 -3 78 -3 77 -77 3 -78 3 0 -81z"/>
<path d="M1700 1540 l0 -80 80 0 80 0 0 80 0 80 -80 0 -80 0 0 -80z"/>
<path d="M100 1165 l0 -25 1040 0 1040 0 0 25 0 25 -1040 0 -1040 0 0 -25z"/>
<path d="M100 575 l0 -505 320 0 320 0 2 238 3 237 199 3 c138 2 203 -1 212
-9 11 -9 14 -58 14 -240 l0 -229 25 0 25 0 0 345 0 345 -44 0 c-51 0 -76 20
-56 45 11 13 83 15 536 15 l524 0 0 130 0 130 -1040 0 -1040 0 0 -505z m578
393 c13 -13 18 -421 6 -452 -5 -14 -36 -16 -240 -16 l-234 0 0 233 c0 129 3
237 7 240 12 13 448 8 461 -5z"/>
<path d="M260 840 l0 -80 80 0 80 0 0 80 0 80 -80 0 -80 0 0 -80z"/>
<path d="M472 843 l3 -78 78 -3 77 -3 0 81 0 80 -80 0 -81 0 3 -77z"/>
<path d="M260 630 l0 -80 80 0 80 0 0 80 0 80 -80 0 -80 0 0 -80z"/>
<path d="M470 630 l0 -80 80 0 80 0 0 80 0 80 -80 0 -80 0 0 -80z"/>
<path d="M1270 735 l0 -25 375 0 375 0 0 25 0 25 -375 0 -375 0 0 -25z"/>
<path d="M2070 415 l0 -345 55 0 55 0 0 345 0 345 -55 0 -55 0 0 -345z"/>
<path d="M1274 645 c-4 -8 -4 -22 0 -30 5 -13 56 -15 376 -15 l370 0 0 30 0
30 -370 0 c-320 0 -371 -2 -376 -15z"/>
<path d="M1270 525 l0 -25 375 0 375 0 0 25 0 25 -375 0 -375 0 0 -25z"/>
<path d="M797 493 c-4 -3 -7 -100 -7 -215 l0 -208 160 0 160 0 0 215 0 215
-153 0 c-85 0 -157 -3 -160 -7z m101 -217 c-2 -33 -7 -41 -23 -41 -16 0 -21 8
-23 44 -2 28 1 47 10 52 22 14 39 -12 36 -55z"/>
<path d="M1270 415 l0 -25 375 0 375 0 0 25 0 25 -375 0 -375 0 0 -25z"/>
<path d="M1274 325 c-4 -8 -4 -22 0 -30 5 -13 56 -15 376 -15 l370 0 0 30 0
30 -370 0 c-320 0 -371 -2 -376 -15z"/>
<path d="M1270 205 l0 -25 375 0 375 0 0 25 0 25 -375 0 -375 0 0 -25z"/>
<path d="M1270 95 l0 -25 375 0 375 0 0 25 0 25 -375 0 -375 0 0 -25z"/>
</g>
</svg>
