<?xml version="1.0" standalone="no"?>
<!DOCTYPE svg PUBLIC "-//W3C//DTD SVG 20010904//EN"
 "http://www.w3.org/TR/2001/REC-SVG-20010904/DTD/svg10.dtd">
<svg version="1.0" xmlns="http://www.w3.org/2000/svg"
 width="300.000000pt" height="300.000000pt" viewBox="0 0 300.000000 300.000000"
 preserveAspectRatio="xMidYMid meet">
<metadata>
Created by potrace 1.10, written by Peter Selinger 2001-2011
</metadata>
<g transform="translate(0.000000,300.000000) scale(0.100000,-0.100000)"
fill="#000000" stroke="none">
<path d="M1385 2986 c-83 -22 -93 -28 -574 -304 -378 -217 -475 -278 -524
-325 -56 -54 -59 -59 -41 -71 80 -55 1193 -751 1220 -762 42 -18 86 -18 127 0
18 7 212 127 432 266 220 139 480 302 577 364 98 61 178 117 178 124 0 7 -28
40 -63 75 -55 53 -129 100 -533 332 -258 148 -494 278 -524 289 -70 24 -209
30 -275 12z m186 -91 c58 -21 105 -67 124 -123 20 -61 19 -78 -9 -139 -55
-117 -204 -150 -298 -65 -49 44 -68 85 -68 147 0 81 55 155 135 183 43 15 66
14 116 -3z m41 -820 c77 -31 126 -125 113 -213 -7 -48 -57 -112 -106 -138 -36
-18 -132 -18 -168 1 -47 24 -99 93 -106 140 -13 83 37 178 109 210 42 18 116
18 158 0z"/>
<path d="M182 2213 c-5 -10 -18 -43 -28 -73 -18 -51 -19 -93 -19 -640 l0 -585
24 -69 c28 -83 90 -176 151 -227 63 -52 974 -576 1034 -594 26 -8 70 -18 97
-21 l49 -7 0 719 0 719 -43 16 c-33 12 -652 395 -1204 746 -48 30 -53 32 -61
16z m324 -319 c104 -84 104 -224 1 -308 -42 -34 -122 -46 -179 -27 -124 41
-168 211 -81 308 46 50 80 64 155 60 57 -2 72 -7 104 -33z m309 -623 c148 -68
151 -271 5 -349 -92 -48 -207 -9 -256 88 -83 161 87 337 251 261z m398 -584
c49 -21 104 -87 112 -136 11 -66 -3 -119 -44 -164 -43 -48 -85 -67 -146 -67
-61 0 -105 20 -142 65 -44 53 -59 113 -43 169 15 53 62 114 104 132 40 17 118
18 159 1z"/>
<path d="M2770 2171 c-354 -228 -1126 -708 -1160 -722 l-45 -17 -3 -711 -2
-711 23 0 c13 0 46 7 73 15 60 18 971 542 1034 594 61 51 123 144 151 227 l24
69 0 580 c0 542 -1 584 -19 643 -11 34 -22 62 -25 62 -3 0 -26 -13 -51 -29z
m-369 -889 c39 -20 58 -38 76 -71 30 -57 31 -136 3 -191 -45 -87 -163 -124
-255 -80 -143 69 -137 285 9 351 59 26 105 23 167 -9z"/>
</g>
</svg>
