<?xml version="1.0" standalone="no"?>
<!DOCTYPE svg PUBLIC "-//W3C//DTD SVG 20010904//EN"
 "http://www.w3.org/TR/2001/REC-SVG-20010904/DTD/svg10.dtd">
<svg version="1.0" xmlns="http://www.w3.org/2000/svg"
 width="300.000000pt" height="300.000000pt" viewBox="0 0 300.000000 300.000000"
 preserveAspectRatio="xMidYMid meet">
<metadata>
Created by potrace 1.10, written by Peter Selinger 2001-2011
</metadata>
<g transform="translate(0.000000,300.000000) scale(0.100000,-0.100000)"
fill="#000000" stroke="none">
<path d="M1385 2986 c-83 -22 -93 -28 -574 -304 -378 -217 -475 -278 -524
-325 -56 -54 -59 -59 -41 -71 80 -55 1193 -751 1220 -762 42 -18 86 -18 127 0
18 7 212 127 432 266 220 139 480 302 577 364 98 61 178 117 178 124 0 7 -28
40 -63 75 -55 53 -129 100 -533 332 -258 148 -494 278 -524 289 -70 24 -209
30 -275 12z m198 -90 c18 -7 47 -29 64 -49 67 -76 69 -178 6 -248 -20 -22 -49
-47 -64 -55 -35 -18 -120 -18 -162 0 -41 17 -91 74 -107 121 -26 79 19 183 97
224 45 24 120 27 166 7z m-768 -387 c53 -15 110 -73 125 -129 23 -85 -9 -169
-83 -218 -54 -36 -143 -37 -198 -4 -110 68 -129 212 -39 302 55 55 116 71 195
49z m1548 -23 c75 -31 125 -127 112 -214 -7 -48 -57 -112 -106 -138 -36 -18
-132 -18 -168 1 -47 24 -99 93 -106 140 -13 83 37 178 109 210 41 18 118 18
159 1z m-729 -494 c55 -38 77 -72 83 -125 8 -72 -4 -114 -48 -162 -72 -78
-185 -86 -260 -18 -53 48 -69 81 -69 143 0 62 18 106 58 143 66 62 164 70 236
19z"/>
<path d="M182 2213 c-5 -10 -18 -43 -28 -73 -18 -51 -19 -93 -19 -640 l0 -585
24 -69 c28 -83 90 -176 151 -227 63 -52 974 -576 1034 -594 26 -8 70 -18 97
-21 l49 -7 0 719 0 719 -43 16 c-33 12 -652 395 -1204 746 -48 30 -53 32 -61
16z m258 -253 c40 -11 104 -71 119 -113 14 -36 14 -108 0 -144 -22 -60 -109
-122 -169 -123 -74 0 -160 53 -186 117 -17 39 -18 111 -3 150 15 40 57 82 104
104 45 21 84 23 135 9z m353 -651 c48 -13 104 -62 122 -107 59 -140 -59 -290
-210 -267 -79 11 -165 111 -165 190 0 47 33 108 80 148 55 47 101 56 173 36z
m407 -679 c71 -20 139 -111 140 -186 0 -48 -45 -125 -93 -159 -35 -25 -51 -30
-103 -30 -49 0 -68 5 -103 28 -102 68 -120 204 -38 293 50 54 124 75 197 54z"/>
<path d="M2770 2171 c-354 -228 -1126 -708 -1160 -722 l-45 -17 -3 -711 -2
-711 23 0 c13 0 46 7 73 15 60 18 971 542 1034 594 61 51 123 144 151 227 l24
69 0 580 c0 542 -1 584 -19 643 -11 34 -22 62 -25 62 -3 0 -26 -13 -51 -29z
m-373 -842 c62 -23 122 -109 123 -174 0 -75 -42 -146 -107 -179 -39 -20 -122
-21 -166 -2 -41 17 -91 74 -107 121 -26 79 19 183 97 224 42 22 116 27 160 10z"/>
</g>
</svg>
