<?xml version="1.0" standalone="no"?>
<!DOCTYPE svg PUBLIC "-//W3C//DTD SVG 20010904//EN"
 "http://www.w3.org/TR/2001/REC-SVG-20010904/DTD/svg10.dtd">
<svg version="1.0" xmlns="http://www.w3.org/2000/svg"
 width="300.000000pt" height="300.000000pt" viewBox="0 0 300.000000 300.000000"
 preserveAspectRatio="xMidYMid meet">
<metadata>
Created by potrace 1.10, written by Peter Selinger 2001-2011
</metadata>
<g transform="translate(0.000000,300.000000) scale(0.100000,-0.100000)"
fill="#000000" stroke="none">
<path d="M1385 2986 c-83 -22 -93 -28 -574 -304 -378 -217 -475 -278 -524
-325 -56 -54 -59 -59 -41 -71 80 -55 1193 -751 1220 -762 42 -18 86 -18 127 0
18 7 212 127 432 266 220 139 480 302 577 364 98 61 178 117 178 124 0 7 -28
40 -63 75 -55 53 -129 100 -533 332 -258 148 -494 278 -524 289 -70 24 -209
30 -275 12z m215 -60 c58 -38 85 -90 85 -161 0 -73 -27 -123 -88 -163 -58 -38
-146 -38 -204 0 -106 70 -122 209 -33 298 22 22 54 44 72 49 50 16 126 5 168
-23z m-680 -446 c122 -62 133 -247 19 -329 -35 -26 -51 -31 -100 -31 -32 0
-70 5 -86 11 -40 15 -91 67 -104 107 -24 73 -3 169 47 213 60 52 155 64 224
29z m1390 -19 c19 -10 48 -35 64 -55 25 -30 31 -48 34 -100 8 -122 -69 -206
-188 -206 -111 0 -190 79 -190 190 0 113 77 190 190 190 35 0 68 -7 90 -19z
m-710 -11 c78 -40 123 -134 100 -213 -25 -91 -97 -147 -189 -147 -110 0 -191
78 -191 185 0 147 151 241 280 175z m0 -450 c47 -24 84 -70 100 -127 38 -128
-105 -271 -233 -233 -114 33 -176 151 -136 257 14 37 66 92 104 109 45 20 120
17 165 -6z"/>
<path d="M182 2213 c-5 -10 -18 -43 -28 -73 -18 -51 -19 -93 -19 -640 l0 -585
24 -69 c28 -83 90 -176 151 -227 63 -52 974 -576 1034 -594 26 -8 70 -18 97
-21 l49 -7 0 719 0 719 -43 16 c-33 12 -652 395 -1204 746 -48 30 -53 32 -61
16z m628 -933 c40 -11 104 -71 119 -113 15 -39 14 -111 -3 -150 -24 -59 -111
-117 -176 -117 -37 0 -94 24 -127 53 -129 113 -50 331 122 336 17 1 46 -4 65
-9z"/>
<path d="M2770 2171 c-354 -228 -1126 -708 -1160 -722 l-45 -17 -3 -711 -2
-711 23 0 c13 0 46 7 73 15 60 18 971 542 1034 594 61 51 123 144 151 227 l24
69 0 580 c0 542 -1 584 -19 643 -11 34 -22 62 -25 62 -3 0 -26 -13 -51 -29z
m-80 -211 c40 -11 104 -71 119 -113 14 -36 14 -108 0 -144 -22 -60 -109 -122
-169 -123 -74 0 -160 53 -186 117 -17 39 -18 111 -3 150 15 40 57 82 104 104
45 21 84 23 135 9z m-347 -591 c47 -13 106 -63 123 -106 19 -44 18 -127 -2
-165 -61 -118 -216 -144 -306 -51 -44 45 -58 79 -58 139 0 98 87 189 185 193
11 1 37 -4 58 -10z m-340 -652 c45 -19 105 -89 113 -132 24 -128 -61 -235
-187 -235 -92 0 -164 56 -189 147 -22 78 21 172 98 213 44 23 119 26 165 7z"/>
</g>
</svg>
