<?xml version="1.0" standalone="no"?>
<!DOCTYPE svg PUBLIC "-//W3C//DTD SVG 20010904//EN"
 "http://www.w3.org/TR/2001/REC-SVG-20010904/DTD/svg10.dtd">
<svg version="1.0" xmlns="http://www.w3.org/2000/svg"
 width="300.000000pt" height="300.000000pt" viewBox="0 0 300.000000 300.000000"
 preserveAspectRatio="xMidYMid meet">
<metadata>
Created by potrace 1.10, written by Peter Selinger 2001-2011
</metadata>
<g transform="translate(0.000000,300.000000) scale(0.100000,-0.100000)"
fill="#000000" stroke="none">
<path d="M1385 2986 c-83 -22 -93 -28 -574 -304 -378 -217 -475 -278 -524
-325 -56 -54 -59 -59 -41 -71 80 -55 1193 -751 1220 -762 42 -18 86 -18 127 0
18 7 212 127 432 266 220 139 480 302 577 364 98 61 178 117 178 124 0 7 -28
40 -63 75 -55 53 -129 100 -533 332 -258 148 -494 278 -524 289 -70 24 -209
30 -275 12z m210 -74 c98 -68 115 -202 37 -286 -99 -105 -262 -78 -321 54 -25
54 -26 74 -6 131 45 125 185 175 290 101z m411 -238 c104 -84 104 -224 0 -308
-47 -39 -143 -49 -197 -21 -117 60 -145 210 -57 303 47 49 83 63 155 59 52 -2
69 -8 99 -33z m-1145 -124 c112 -57 139 -202 56 -297 -39 -45 -82 -63 -147
-63 -166 0 -252 198 -138 318 18 19 47 40 63 48 45 20 120 17 166 -6z m1496
-91 c62 -23 122 -109 123 -175 0 -72 -51 -152 -117 -180 -39 -17 -111 -18
-150 -3 -60 22 -122 109 -123 169 0 73 53 159 115 186 37 16 114 18 152 3z
m-1087 -183 c58 -38 85 -90 85 -161 0 -73 -27 -123 -88 -163 -58 -38 -146 -38
-204 0 -106 70 -122 209 -33 298 22 22 54 44 72 49 50 16 126 5 168 -23z m330
-206 c41 -11 91 -54 114 -98 20 -38 21 -121 2 -165 -18 -45 -74 -91 -130 -107
-115 -32 -236 63 -236 185 0 58 19 102 62 143 51 48 114 63 188 42z"/>
<path d="M182 2213 c-5 -10 -18 -43 -28 -73 -18 -51 -19 -93 -19 -640 l0 -585
24 -69 c28 -83 90 -176 151 -227 63 -52 974 -576 1034 -594 26 -8 70 -18 97
-21 l49 -7 0 719 0 719 -43 16 c-33 12 -652 395 -1204 746 -48 30 -53 32 -61
16z m265 -322 c73 -21 143 -113 143 -188 0 -44 -41 -119 -83 -152 -132 -103
-329 16 -303 182 19 118 131 190 243 158z m728 -1140 c77 -36 115 -95 115
-181 0 -165 -191 -248 -317 -137 -159 140 10 407 202 318z"/>
<path d="M2770 2171 c-354 -228 -1126 -708 -1160 -722 l-45 -17 -3 -711 -2
-711 23 0 c13 0 46 7 73 15 60 18 971 542 1034 594 61 51 123 144 151 227 l24
69 0 580 c0 542 -1 584 -19 643 -11 34 -22 62 -25 62 -3 0 -26 -13 -51 -29z
m-55 -210 c178 -80 136 -336 -59 -368 -93 -15 -215 90 -216 186 -1 141 148
240 275 182z m-270 -579 c169 -118 64 -378 -141 -347 -80 12 -164 109 -164
190 1 67 83 175 144 189 48 10 121 -4 161 -32z m-395 -542 c47 -24 84 -70 101
-128 26 -88 -35 -193 -130 -227 -58 -20 -77 -19 -138 9 -117 55 -150 204 -65
298 20 23 51 47 67 54 45 20 120 17 165 -6z"/>
</g>
</svg>
