<?xml version="1.0" standalone="no"?>
<!DOCTYPE svg PUBLIC "-//W3C//DTD SVG 20010904//EN"
 "http://www.w3.org/TR/2001/REC-SVG-20010904/DTD/svg10.dtd">
<svg version="1.0" xmlns="http://www.w3.org/2000/svg"
 width="300.000000pt" height="300.000000pt" viewBox="0 0 300.000000 300.000000"
 preserveAspectRatio="xMidYMid meet">
<metadata>
Created by potrace 1.10, written by Peter Selinger 2001-2011
</metadata>
<g transform="translate(0.000000,300.000000) scale(0.100000,-0.100000)"
fill="#000000" stroke="none">
<path d="M1385 2986 c-83 -22 -93 -28 -574 -304 -378 -217 -475 -278 -524
-325 -56 -54 -59 -59 -41 -71 80 -55 1193 -751 1220 -762 42 -18 86 -18 127 0
18 7 212 127 432 266 220 139 480 302 577 364 98 61 178 117 178 124 0 7 -28
40 -63 75 -55 53 -129 100 -533 332 -258 148 -494 278 -524 289 -70 24 -209
30 -275 12z m-518 -443 c114 -59 139 -204 51 -299 -92 -100 -249 -78 -312 44
-20 38 -21 121 -2 166 16 38 70 85 118 103 42 16 98 10 145 -14z m674 16 c84
-28 139 -101 139 -184 0 -62 -19 -103 -68 -147 -94 -85 -243 -52 -298 65 -28
61 -29 78 -9 139 19 54 66 102 120 122 50 18 73 19 116 5z m765 -45 c58 -47
76 -87 72 -165 -3 -54 -9 -73 -31 -103 -81 -106 -241 -100 -317 12 -34 48 -39
135 -12 188 40 78 91 106 184 102 57 -3 73 -8 104 -34z"/>
<path d="M182 2213 c-5 -10 -18 -43 -28 -73 -18 -51 -19 -93 -19 -640 l0 -585
24 -69 c28 -83 90 -176 151 -227 63 -52 974 -576 1034 -594 26 -8 70 -18 97
-21 l49 -7 0 719 0 719 -43 16 c-33 12 -652 395 -1204 746 -48 30 -53 32 -61
16z m628 -933 c40 -11 104 -71 119 -113 15 -39 14 -111 -3 -150 -24 -59 -111
-117 -176 -117 -37 0 -94 24 -127 53 -129 113 -50 331 122 336 17 1 46 -4 65
-9z"/>
<path d="M2770 2171 c-354 -228 -1126 -708 -1160 -722 l-45 -17 -3 -711 -2
-711 23 0 c13 0 46 7 73 15 60 18 971 542 1034 594 61 51 123 144 151 227 l24
69 0 580 c0 542 -1 584 -19 643 -11 34 -22 62 -25 62 -3 0 -26 -13 -51 -29z
m-80 -211 c40 -11 104 -71 119 -113 14 -36 14 -108 0 -144 -22 -60 -109 -122
-169 -123 -74 0 -160 53 -186 117 -17 39 -18 111 -3 150 15 40 57 82 104 104
45 21 84 23 135 9z m-687 -1243 c45 -19 105 -89 113 -132 24 -128 -61 -235
-187 -235 -92 0 -164 56 -189 147 -22 78 21 172 98 213 44 23 119 26 165 7z"/>
</g>
</svg>
