<?xml version="1.0" standalone="no"?>
<!DOCTYPE svg PUBLIC "-//W3C//DTD SVG 20010904//EN"
 "http://www.w3.org/TR/2001/REC-SVG-20010904/DTD/svg10.dtd">
<svg version="1.0" xmlns="http://www.w3.org/2000/svg"
 width="300.000000pt" height="300.000000pt" viewBox="0 0 300.000000 300.000000"
 preserveAspectRatio="xMidYMid meet">
<metadata>
Created by potrace 1.10, written by Peter Selinger 2001-2011
</metadata>
<g transform="translate(0.000000,300.000000) scale(0.100000,-0.100000)"
fill="#000000" stroke="none">
<path d="M1385 2986 c-83 -22 -93 -28 -574 -304 -378 -217 -475 -278 -524
-325 -56 -54 -59 -59 -41 -71 80 -55 1193 -751 1220 -762 42 -18 86 -18 127 0
18 7 212 127 432 266 220 139 480 302 577 364 98 61 178 117 178 124 0 7 -28
40 -63 75 -55 53 -129 100 -533 332 -258 148 -494 278 -524 289 -70 24 -209
30 -275 12z m215 -476 c47 -24 84 -70 101 -128 27 -93 -41 -203 -144 -232
-145 -40 -280 114 -226 257 14 37 66 92 104 109 45 20 120 17 165 -6z"/>
<path d="M182 2213 c-5 -10 -18 -43 -28 -73 -18 -51 -19 -93 -19 -640 l0 -585
24 -69 c28 -83 90 -176 151 -227 63 -52 974 -576 1034 -594 26 -8 70 -18 97
-21 l49 -7 0 719 0 719 -43 16 c-33 12 -652 395 -1204 746 -48 30 -53 32 -61
16z m978 -793 c43 -12 92 -54 114 -97 20 -39 21 -122 2 -166 -17 -41 -74 -91
-121 -107 -114 -38 -245 61 -245 185 0 132 120 221 250 185z m-697 -221 c47
-13 106 -63 123 -106 18 -41 18 -115 1 -156 -21 -49 -87 -104 -136 -112 -66
-11 -119 3 -164 44 -48 43 -67 85 -67 146 0 62 20 105 66 144 58 48 109 59
177 40z"/>
<path d="M2770 2171 c-354 -228 -1126 -708 -1160 -722 l-45 -17 -3 -711 -2
-711 23 0 c13 0 46 7 73 15 60 18 971 542 1034 594 61 51 123 144 151 227 l24
69 0 580 c0 542 -1 584 -19 643 -11 34 -22 62 -25 62 -3 0 -26 -13 -51 -29z
m-127 -324 c49 -21 104 -87 112 -136 11 -66 -3 -119 -44 -164 -43 -48 -85 -67
-146 -67 -60 0 -103 19 -142 63 -39 44 -57 105 -48 159 9 49 60 118 105 140
42 21 118 23 163 5z m-266 -501 c117 -55 150 -204 65 -298 -44 -49 -85 -68
-147 -68 -87 0 -159 58 -186 148 -25 86 34 192 126 226 57 21 83 19 142 -8z
m-356 -501 c95 -34 156 -139 130 -227 -27 -90 -99 -148 -186 -148 -62 0 -103
19 -147 68 -85 94 -52 243 65 298 61 28 80 29 138 9z"/>
</g>
</svg>
