<?xml version="1.0" standalone="no"?>
<!DOCTYPE svg PUBLIC "-//W3C//DTD SVG 20010904//EN"
 "http://www.w3.org/TR/2001/REC-SVG-20010904/DTD/svg10.dtd">
<svg version="1.0" xmlns="http://www.w3.org/2000/svg"
 width="222.000000pt" height="236.000000pt" viewBox="0 0 222.000000 236.000000"
 preserveAspectRatio="xMidYMid meet">
<metadata>
Created by potrace 1.10, written by Peter Selinger 2001-2011
</metadata>
<g transform="translate(0.000000,236.000000) scale(0.100000,-0.100000)"
fill="#000000" stroke="none">
<path d="M1236 2318 c-124 -16 -248 -105 -306 -221 -40 -80 -39 -87 13 -87 41
0 43 2 71 55 95 183 342 227 504 91 48 -41 80 -103 108 -208 27 -106 89 -237
134 -285 16 -18 32 -33 34 -33 3 0 0 15 -5 32 -12 44 -12 45 12 51 l21 6 -22
36 c-42 68 -69 133 -90 216 -31 122 -52 163 -117 228 -97 96 -218 137 -357
119z"/>
<path d="M792 1951 c-44 -11 -100 -66 -112 -111 -10 -35 -14 -140 -6 -140 3 0
35 7 73 17 111 27 304 21 416 -13 15 -5 17 3 17 69 0 60 -4 80 -23 107 -41 62
-77 75 -212 77 -66 1 -135 -2 -153 -6z"/>
<path d="M1961 1726 c-20 -21 -50 -38 -77 -45 -42 -11 -44 -13 -37 -39 10 -35
10 -88 0 -129 -8 -30 -7 -31 34 -38 27 -5 55 -20 80 -42 l39 -35 40 36 c22 20
47 36 54 36 8 0 26 4 40 9 24 10 24 11 11 55 -12 39 -12 53 -1 91 l14 44 -53
16 c-38 11 -60 24 -75 45 -12 17 -25 30 -29 30 -4 0 -22 -15 -40 -34z"/>
<path d="M850 1684 c-14 -2 -52 -9 -85 -15 -193 -34 -397 -174 -509 -347 -93
-144 -130 -270 -129 -447 1 -148 22 -237 90 -368 39 -76 64 -109 147 -192 87
-86 115 -108 196 -148 52 -26 131 -56 175 -68 109 -27 281 -27 386 0 270 69
479 262 572 529 26 76 31 104 35 222 4 116 1 149 -17 220 -41 163 -112 282
-241 404 -136 128 -312 201 -506 210 -49 3 -100 3 -114 0z m702 -774 c-3 -105
-26 -189 -82 -305 -49 -102 -151 -237 -183 -243 -35 -7 -30 28 10 71 117 128
191 295 209 472 8 81 10 87 32 83 14 -3 17 -16 14 -78z"/>
</g>
</svg>
