<?xml version="1.0" standalone="no"?>
<!DOCTYPE svg PUBLIC "-//W3C//DTD SVG 20010904//EN"
 "http://www.w3.org/TR/2001/REC-SVG-20010904/DTD/svg10.dtd">
<svg version="1.0" xmlns="http://www.w3.org/2000/svg"
 width="265.000000pt" height="266.000000pt" viewBox="0 0 265.000000 266.000000"
 preserveAspectRatio="xMidYMid meet">
<metadata>
Created by potrace 1.10, written by Peter Selinger 2001-2011
</metadata>
<g transform="translate(0.000000,266.000000) scale(0.100000,-0.100000)"
 stroke="none">
<path d="M74 2585 c-10 -25 2 -40 72 -93 154 -115 306 -183 596 -268 227 -65
260 -78 318 -120 49 -35 85 -76 144 -167 21 -31 49 -66 63 -77 43 -34 110 -25
239 30 l45 20 -32 62 c-43 83 -157 196 -232 232 -74 35 -203 68 -412 106 -367
67 -548 130 -703 244 -65 48 -89 56 -98 31z"/>
<path d="M217 2413 c-4 -3 -7 -11 -7 -17 0 -19 2194 -2206 2212 -2206 10 0 18
6 18 13 0 12 -2199 2217 -2211 2217 -3 0 -9 -3 -12 -7z"/>
<path d="M1501 1844 c-49 -23 -53 -26 -46 -52 21 -84 107 -208 188 -271 56
-42 135 -85 179 -96 26 -7 29 -3 53 50 29 66 29 65 14 65 -32 0 -163 73 -204
114 -42 42 -115 171 -115 203 0 17 -5 16 -69 -13z"/>
<path d="M1920 1476 c-55 -129 -64 -196 -30 -239 11 -14 46 -42 77 -63 91 -59
132 -95 167 -144 42 -58 55 -91 120 -318 85 -292 155 -448 271 -599 39 -51 58
-68 76 -68 39 0 34 28 -17 97 -114 155 -177 335 -244 703 -38 209 -71 338
-106 412 -36 75 -149 189 -232 232 l-62 32 -20 -45z"/>
</g>
</svg>
