<?xml version="1.0" standalone="no"?>
<!DOCTYPE svg PUBLIC "-//W3C//DTD SVG 20010904//EN"
 "http://www.w3.org/TR/2001/REC-SVG-20010904/DTD/svg10.dtd">
<svg version="1.0" xmlns="http://www.w3.org/2000/svg"
 width="233.000000pt" height="233.000000pt" viewBox="0 0 233.000000 233.000000"
 preserveAspectRatio="xMidYMid meet">
<metadata>
Created by potrace 1.10, written by Peter Selinger 2001-2011
</metadata>
<g transform="translate(0.000000,233.000000) scale(0.100000,-0.100000)"
fill="#000000" stroke="none">
<path d="M1925 2204 c-167 -61 -236 -91 -253 -110 -22 -25 -23 -32 -22 -197
l2 -170 -377 -377 -377 -378 -167 -21 c-91 -12 -180 -26 -196 -32 -20 -6 -115
-94 -268 -247 -249 -250 -256 -260 -221 -310 19 -27 44 -28 190 -6 58 8 108
13 111 11 2 -3 -3 -53 -11 -111 -22 -146 -21 -171 6 -190 50 -35 60 -28 310
221 153 153 241 248 247 268 6 16 20 105 32 196 l21 167 378 377 377 377 170
-2 c165 -1 172 0 197 22 19 17 49 86 111 255 47 128 85 244 85 259 0 35 -50
84 -87 84 -15 -1 -131 -39 -258 -86z m-1202 -1406 l-81 -81 -123 -18 c-68 -10
-125 -17 -126 -15 -1 1 33 38 77 81 l79 79 113 17 c62 9 120 17 128 18 8 0
-22 -36 -67 -81z m118 -106 l-18 -123 -78 -79 c-44 -44 -80 -78 -81 -77 -2 1
5 58 15 125 l18 123 78 79 c44 44 80 78 81 77 2 -1 -5 -58 -15 -125z m-379
-154 l-82 -83 -120 -15 c-66 -9 -120 -13 -120 -10 0 3 34 39 75 80 l75 75 108
16 c59 9 116 17 127 18 14 1 -4 -23 -63 -81z m122 -104 l-17 -119 -76 -77
c-41 -43 -78 -78 -81 -78 -4 0 1 54 11 121 l16 121 79 79 c43 43 79 77 81 75
2 -1 -4 -56 -13 -122z"/>
</g>
</svg>
