<?xml version="1.0" standalone="no"?>
<!DOCTYPE svg PUBLIC "-//W3C//DTD SVG 20010904//EN"
 "http://www.w3.org/TR/2001/REC-SVG-20010904/DTD/svg10.dtd">
<svg version="1.0" xmlns="http://www.w3.org/2000/svg"
 width="300.000000pt" height="300.000000pt" viewBox="0 0 300.000000 300.000000"
 preserveAspectRatio="xMidYMid meet">
<metadata>
Created by potrace 1.10, written by Peter Selinger 2001-2011
</metadata>
<g transform="translate(0.000000,300.000000) scale(0.100000,-0.100000)"
fill="#000000" stroke="none">
<path d="M1393 2922 c-51 -26 -93 -49 -93 -52 0 -3 301 -156 670 -340 l669
-335 101 50 c55 27 100 52 100 55 0 8 -1328 670 -1343 669 -6 0 -54 -21 -104
-47z"/>
<path d="M820 2636 l-385 -194 105 -52 105 -52 390 195 390 194 -102 52 c-57
28 -106 51 -110 50 -5 0 -181 -87 -393 -193z"/>
<path d="M1290 2585 l-205 -104 210 0 210 0 103 52 102 52 -105 53 c-58 28
-106 52 -108 51 -1 0 -94 -47 -207 -104z"/>
<path d="M1720 2514 l-65 -33 129 -1 c71 0 127 2 125 4 -2 2 -31 17 -64 34
l-60 30 -65 -34z"/>
<path d="M833 2357 c-57 -28 -103 -54 -103 -57 0 -3 47 -29 105 -58 l105 -52
560 0 560 0 105 52 c58 29 105 55 105 58 0 3 -47 29 -105 58 l-105 52 -563 -1
-562 0 -102 -52z"/>
<path d="M253 2352 c-51 -26 -93 -49 -93 -52 0 -3 301 -156 670 -340 l669
-335 101 50 c55 27 100 52 100 55 0 8 -1328 670 -1343 669 -6 0 -54 -21 -104
-47z"/>
<path d="M1960 2066 l-385 -194 105 -52 105 -52 390 195 390 194 -102 52 c-57
28 -106 51 -110 50 -5 0 -181 -87 -393 -193z"/>
<path d="M110 2137 l0 -102 675 -338 c371 -185 677 -337 680 -337 3 0 5 46 5
103 l0 102 -675 338 c-371 185 -677 337 -680 337 -3 0 -5 -46 -5 -103z"/>
<path d="M2203 1902 l-673 -337 0 -102 c0 -57 2 -103 5 -103 3 0 309 152 680
337 l675 338 0 102 c0 57 -3 103 -7 102 -5 0 -311 -152 -680 -337z"/>
<path d="M1150 2086 l65 -34 60 30 c33 17 62 32 64 34 2 2 -54 4 -125 4 l-129
-1 65 -33z"/>
<path d="M1392 2067 l-102 -52 105 -53 105 -52 208 104 207 105 -210 0 -210 0
-103 -52z"/>
<path d="M110 1472 l0 -487 105 -53 105 -52 0 488 0 487 -105 53 -105 52 0
-488z"/>
<path d="M2783 1907 l-103 -52 0 -487 0 -488 105 52 105 53 0 487 c0 269 -1
488 -2 487 -2 0 -49 -23 -105 -52z"/>
<path d="M390 1704 l0 -105 309 -531 309 -532 73 -37 c41 -21 80 -38 87 -39 9
0 12 28 12 108 l0 107 -304 525 -304 525 -78 42 c-44 23 -85 42 -91 43 -10 0
-13 -28 -13 -106z"/>
<path d="M2488 1759 l-98 -49 0 -243 0 -243 97 -69 c53 -39 102 -74 110 -78
11 -7 13 56 13 363 0 290 -3 370 -12 369 -7 0 -57 -22 -110 -50z"/>
<path d="M698 1638 c11 -18 57 -97 102 -176 45 -78 86 -145 91 -148 6 -3 8 46
7 123 l-3 128 -100 52 c-55 29 -104 52 -108 53 -5 0 0 -15 11 -32z"/>
<path d="M2205 1617 l-100 -52 -3 -66 -3 -65 97 -70 c54 -38 103 -73 111 -77
11 -7 13 28 13 188 0 107 -3 195 -7 195 -5 -1 -53 -24 -108 -53z"/>
<path d="M960 1359 l0 -172 106 -183 c58 -101 108 -184 110 -184 2 0 4 136 4
303 l0 302 -105 53 c-58 28 -107 52 -110 52 -3 0 -5 -77 -5 -171z"/>
<path d="M2013 1523 c-18 -7 -16 -16 7 -31 18 -11 20 -10 20 13 0 25 -4 28
-27 18z"/>
<path d="M1873 1452 l-53 -26 0 -71 0 -71 342 -247 342 -246 50 27 51 27 3 70
2 70 -287 207 c-159 114 -313 224 -343 246 l-55 39 -52 -25z"/>
<path d="M392 1150 l3 -305 100 -52 c55 -29 103 -52 108 -53 4 0 7 78 7 174
l0 174 -101 174 c-55 95 -105 177 -110 183 -6 6 -8 -102 -7 -295z"/>
<path d="M1250 902 l0 -487 105 -53 c58 -28 107 -52 110 -52 3 0 5 218 5 485
l0 485 -110 55 -110 55 0 -488z"/>
<path d="M1638 1334 l-108 -54 0 -485 c0 -267 2 -485 5 -485 3 0 52 24 110 52
l105 53 0 487 c0 269 -1 488 -2 487 -2 0 -51 -25 -110 -55z"/>
<path d="M1820 831 c0 -245 3 -371 10 -371 6 0 55 23 110 50 l100 50 0 243 -1
242 -62 44 c-34 25 -83 60 -109 79 l-48 34 0 -371z"/>
<path d="M2100 795 c0 -126 4 -195 10 -195 6 0 55 23 111 50 l100 51 -3 72 -3
72 -100 72 c-55 40 -103 73 -107 73 -5 0 -8 -88 -8 -195z"/>
<path d="M680 833 l0 -133 100 -50 c55 -27 102 -50 106 -50 7 0 -33 73 -135
245 l-71 120 0 -132z"/>
<path d="M110 805 l0 -105 670 -335 c368 -184 675 -335 680 -335 7 0 10 37 8
103 l-3 102 -670 337 c-369 185 -673 337 -677 337 -5 1 -8 -46 -8 -104z"/>
<path d="M2210 572 l-675 -339 -3 -101 c-2 -66 1 -102 8 -102 5 0 312 151 680
335 l670 335 0 105 c0 58 -1 105 -2 105 -2 0 -307 -153 -678 -338z"/>
<path d="M2390 767 c0 -28 6 -32 28 -19 9 7 8 13 -8 27 -20 18 -20 18 -20 -8z"/>
</g>
</svg>
