<?xml version="1.0" standalone="no"?>
<!DOCTYPE svg PUBLIC "-//W3C//DTD SVG 20010904//EN"
 "http://www.w3.org/TR/2001/REC-SVG-20010904/DTD/svg10.dtd">
<svg version="1.0" xmlns="http://www.w3.org/2000/svg"
 width="300.000000pt" height="300.000000pt" viewBox="0 0 300.000000 300.000000"
 preserveAspectRatio="xMidYMid meet">
<metadata>
Created by potrace 1.10, written by Peter Selinger 2001-2011
</metadata>
<g transform="translate(0.000000,300.000000) scale(0.100000,-0.100000)"
fill="white" stroke="none">
<path d="M1296 2960 c-99 -21 -189 -43 -201 -48 -49 -23 -33 -95 23 -100 17
-2 111 13 207 33 l175 37 153 -32 c83 -17 169 -36 190 -41 l37 -10 0 -88 0
-88 -190 39 -190 40 -493 -102 c-326 -67 -498 -107 -510 -118 -18 -16 -18 -40
-14 -482 4 -433 6 -472 26 -565 79 -359 263 -661 536 -882 138 -112 379 -238
455 -238 76 0 317 126 455 238 273 221 457 523 536 882 20 93 22 132 26 558 4
400 3 461 -11 481 -12 19 -33 27 -106 42 -50 10 -95 21 -100 24 -7 4 24 157
33 167 1 1 83 -15 182 -35 l180 -37 3 -405 c4 -622 -13 -809 -95 -1044 -46
-132 -82 -210 -145 -315 -204 -341 -510 -593 -880 -726 l-78 -28 -77 28 c-552
198 -964 671 -1083 1243 -29 142 -41 407 -38 851 l3 395 150 31 c83 18 163 35
178 38 32 9 51 40 43 73 -12 48 -32 48 -249 4 -118 -25 -210 -49 -220 -58 -17
-15 -18 -47 -14 -622 4 -633 5 -638 52 -820 58 -225 173 -461 312 -643 71 -93
228 -251 318 -322 159 -124 331 -218 526 -286 l96 -33 59 18 c186 57 407 174
565 298 96 75 253 234 322 325 161 212 273 459 334 737 l27 121 3 605 c4 575
3 607 -14 622 -26 24 -508 121 -533 108 -24 -13 -27 -23 -105 -350 -36 -151
-69 -284 -74 -295 -5 -11 -125 -94 -266 -185 l-258 -164 -39 -86 c-21 -47 -47
-103 -58 -125 l-19 -40 2 149 2 150 252 190 c138 105 263 202 277 215 l26 24
0 277 c0 210 -3 280 -13 294 -9 13 -74 31 -242 66 -127 27 -239 49 -250 49
-11 -1 -101 -18 -199 -39z m404 -419 l175 -37 3 -71 3 -71 -265 -201 c-146
-111 -272 -211 -280 -223 -14 -19 -16 -67 -16 -319 l0 -297 -90 -67 -90 -67 0
-119 c0 -117 0 -119 26 -136 24 -15 29 -15 53 -2 24 14 26 20 31 106 l5 91 89
69 89 68 107 244 106 244 265 169 c145 94 266 171 268 174 2 2 21 74 42 160
22 87 41 159 44 162 2 2 34 -1 70 -8 l66 -13 -4 -436 c-4 -398 -6 -443 -25
-522 -66 -274 -177 -481 -363 -673 -53 -56 -134 -128 -180 -161 -85 -61 -299
-175 -329 -175 -30 0 -244 114 -329 175 -106 76 -262 238 -333 346 -102 154
-162 291 -206 469 -25 103 -25 114 -29 541 l-4 435 438 91 c241 50 449 91 463
92 14 0 104 -17 200 -38z"/>
<path d="M837 2852 c-29 -32 -21 -69 21 -91 26 -14 55 -2 72 29 14 27 13 37
-10 60 -25 25 -62 26 -83 2z"/>
</g>
</svg>
