<?xml version="1.0" standalone="no"?>
<!DOCTYPE svg PUBLIC "-//W3C//DTD SVG 20010904//EN"
 "http://www.w3.org/TR/2001/REC-SVG-20010904/DTD/svg10.dtd">
<svg version="1.0" xmlns="http://www.w3.org/2000/svg"
 width="300.000000pt" height="300.000000pt" viewBox="0 0 300.000000 300.000000"
 preserveAspectRatio="xMidYMid meet">
<metadata>
Created by potrace 1.10, written by Peter Selinger 2001-2011
</metadata>
<g transform="translate(0.000000,300.000000) scale(0.100000,-0.100000)"
fill="#000000" stroke="none">
<path d="M630 2747 c-397 -121 -601 -561 -463 -1001 44 -143 151 -324 285
-483 110 -132 868 -893 889 -893 24 0 29 10 100 207 33 92 69 192 79 221 11
30 20 60 20 69 0 8 -50 80 -111 160 -60 80 -108 152 -105 159 3 7 64 101 135
208 72 108 131 203 131 211 0 9 -79 97 -175 196 l-175 180 30 52 c16 29 65
117 109 196 l80 144 -32 46 c-48 70 -173 196 -236 238 -31 21 -96 53 -146 72
-82 31 -101 35 -215 38 -108 3 -135 0 -200 -20z m305 -62 c154 -36 294 -128
396 -261 l43 -56 -34 -61 c-18 -34 -67 -120 -107 -191 -41 -70 -73 -136 -71
-146 2 -10 78 -95 171 -190 92 -95 167 -177 167 -182 0 -5 -53 -88 -117 -184
-65 -95 -127 -189 -137 -207 l-20 -34 117 -155 c64 -85 117 -160 117 -166 0
-11 -117 -339 -129 -360 -10 -19 -776 756 -873 883 -139 184 -212 326 -245
479 -18 83 -20 250 -3 321 17 74 65 188 106 252 129 201 393 312 619 258z"/>
<path d="M2016 2750 c-191 -51 -359 -186 -480 -385 -92 -150 -206 -353 -206
-365 0 -6 60 -73 132 -149 73 -75 152 -157 176 -182 l43 -46 -140 -212 c-78
-116 -141 -220 -141 -231 0 -11 40 -70 88 -132 48 -62 98 -128 110 -145 l23
-33 -36 -95 c-20 -53 -60 -167 -89 -254 -30 -87 -62 -173 -71 -191 l-17 -32
38 -39 c21 -22 47 -39 57 -39 22 0 836 804 990 978 235 264 352 491 378 732
36 328 -116 639 -375 768 -143 71 -333 92 -480 52z m366 -87 c154 -53 261
-147 337 -293 61 -116 81 -203 82 -342 0 -198 -51 -356 -176 -544 -92 -137
-150 -203 -514 -574 -378 -385 -618 -617 -608 -585 23 75 157 449 175 489 12
27 22 56 22 65 0 9 -50 80 -110 159 -61 78 -110 145 -110 147 0 3 66 102 146
220 l145 216 -18 29 c-10 16 -91 105 -180 198 -97 101 -159 172 -153 178 5 5
50 81 101 169 50 88 114 188 141 222 196 247 457 336 720 246z"/>
</g>
</svg>
