<?xml version="1.0" standalone="no"?>
<!DOCTYPE svg PUBLIC "-//W3C//DTD SVG 20010904//EN"
 "http://www.w3.org/TR/2001/REC-SVG-20010904/DTD/svg10.dtd">
<svg version="1.0" xmlns="http://www.w3.org/2000/svg"
 width="279.000000pt" height="228.000000pt" viewBox="0 0 279.000000 228.000000"
 preserveAspectRatio="xMidYMid meet">
<metadata>
Created by potrace 1.10, written by Peter Selinger 2001-2011
</metadata>
<g transform="translate(0.000000,228.000000) scale(0.100000,-0.100000)"
fill="#000000" stroke="none">
<path d="M628 2215 c-239 -58 -419 -243 -489 -501 -33 -118 -33 -347 -1 -459
76 -267 239 -462 737 -880 137 -116 280 -236 317 -268 75 -62 113 -72 146 -39
17 17 112 364 112 409 0 9 -71 88 -157 175 l-157 158 132 133 c173 175 172
160 12 322 -66 66 -120 126 -120 133 0 7 43 119 95 249 52 131 95 250 95 264
0 59 -131 184 -259 249 -132 66 -322 89 -463 55z"/>
<path d="M1822 2210 c-40 -11 -105 -36 -145 -57 l-72 -38 -132 -325 c-72 -179
-132 -336 -132 -349 -1 -19 35 -61 151 -178 l152 -153 -132 -133 c-173 -175
-172 -159 -11 -323 l122 -123 -37 -149 c-21 -82 -36 -164 -34 -182 4 -41 45
-75 80 -67 37 10 434 361 628 556 101 101 198 208 227 252 137 201 193 387
180 598 -18 291 -155 514 -385 630 -120 61 -318 78 -460 41z"/>
</g>
</svg>
