<?xml version="1.0" standalone="no"?>
<!DOCTYPE svg PUBLIC "-//W3C//DTD SVG 20010904//EN"
 "http://www.w3.org/TR/2001/REC-SVG-20010904/DTD/svg10.dtd">
<svg version="1.0" xmlns="http://www.w3.org/2000/svg"
 width="247.000000pt" height="239.000000pt" viewBox="0 0 247.000000 239.000000"
 preserveAspectRatio="xMidYMid meet">
<metadata>
Created by potrace 1.10, written by Peter Selinger 2001-2011
</metadata>
<g transform="translate(0.000000,239.000000) scale(0.100000,-0.100000)"
fill="#000000" stroke="none">
<path d="M1042 2367 c-11 -13 -49 -197 -81 -397 -11 -69 -27 -154 -35 -189
l-15 -64 100 -105 c55 -57 98 -107 95 -109 -5 -6 -155 87 -223 138 -61 46 -63
55 -38 186 23 122 25 119 -47 81 l-63 -33 -57 -165 c-31 -91 -68 -202 -82
-247 -28 -90 -104 -253 -137 -293 l-20 -25 6 55 c4 30 17 97 31 149 13 52 22
96 20 98 -6 6 -148 -56 -162 -71 -12 -12 -238 -635 -233 -641 2 -1 118 -12
257 -24 l254 -22 79 -39 c43 -22 83 -40 88 -40 5 0 46 92 91 205 60 150 87
205 99 205 9 0 76 -12 148 -26 l133 -27 29 24 c148 118 135 112 201 104 l60
-7 101 -141 c56 -78 105 -146 110 -152 6 -5 24 6 48 29 l39 38 273 -25 c151
-14 275 -24 276 -23 5 4 -269 780 -279 794 -7 8 -43 12 -112 12 l-101 0 -17
-107 c-21 -131 -58 -259 -70 -241 -14 22 -9 301 8 422 l16 115 -98 186 c-54
102 -100 185 -104 185 -3 0 -28 -29 -54 -65 -56 -76 -191 -222 -199 -215 -9 9
58 143 122 245 34 54 60 99 58 101 -5 5 -476 134 -491 134 -7 0 -18 -6 -24
-13z"/>
<path d="M1771 686 l-93 -93 -44 -264 c-24 -145 -44 -265 -44 -266 0 -2 177
-3 393 -3 292 0 396 3 405 12 9 9 12 97 12 334 l0 322 -47 6 c-40 5 -466 46
-483 46 -3 0 -47 -42 -99 -94z"/>
<path d="M80 367 c0 -207 3 -286 12 -295 16 -16 972 -18 966 -2 -2 6 -66 109
-143 229 l-140 218 -93 47 -93 47 -222 19 c-122 11 -237 20 -254 20 l-33 0 0
-283z"/>
</g>
</svg>
