<?xml version="1.0" standalone="no"?>
<!DOCTYPE svg PUBLIC "-//W3C//DTD SVG 20010904//EN"
 "http://www.w3.org/TR/2001/REC-SVG-20010904/DTD/svg10.dtd">
<svg version="1.0" xmlns="http://www.w3.org/2000/svg"
 width="300.000000pt" height="300.000000pt" viewBox="0 0 300.000000 300.000000"
 preserveAspectRatio="xMidYMid meet">
<metadata>
Created by potrace 1.10, written by Peter Selinger 2001-2011
</metadata>
<g transform="translate(0.000000,300.000000) scale(0.100000,-0.100000)"
fill="#000000" stroke="none">
<path d="M555 2510 c-428 -68 -608 -392 -540 -973 28 -236 102 -527 205 -802
77 -205 75 -202 111 -209 58 -11 122 -7 116 8 -17 44 -81 272 -112 396 -82
336 -110 551 -102 807 5 199 22 284 77 394 101 199 313 287 565 234 99 -21
171 -60 241 -129 240 -239 266 -792 73 -1574 -22 -90 -37 -167 -34 -172 4 -6
28 -10 55 -10 l49 0 36 112 c133 412 203 871 177 1163 -15 168 -42 277 -98
393 -84 175 -228 293 -421 343 -90 23 -303 33 -398 19z"/>
<path d="M1017 2500 c101 -36 177 -84 253 -160 120 -119 191 -283 221 -508 11
-85 6 -449 -7 -533 l-6 -36 119 18 c65 11 143 22 174 25 l56 7 6 -39 c14 -85
73 -163 152 -200 180 -85 396 53 413 264 3 34 8 65 12 67 4 2 107 20 229 39
121 19 225 37 230 40 5 4 23 45 41 94 73 203 104 411 81 548 -32 182 -133 297
-317 360 -75 26 -90 28 -304 32 l-225 3 65 -38 c36 -21 96 -69 135 -108 125
-124 185 -277 185 -471 0 -99 -1 -104 -22 -109 -35 -8 -661 -115 -673 -115 -6
0 -10 66 -10 193 0 174 -2 199 -23 267 -48 151 -120 259 -224 335 l-60 45
-277 -1 -276 0 52 -19z m1194 -856 c47 -24 79 -71 79 -117 0 -48 -28 -100 -62
-118 -13 -6 -24 -13 -26 -14 -2 -2 6 -39 18 -84 11 -45 18 -86 15 -90 -7 -12
-193 -46 -202 -38 -6 7 11 149 23 189 3 12 -5 22 -26 33 -65 34 -89 119 -50
182 45 74 147 100 231 57z"/>
<path d="M2053 1619 c-57 -28 -80 -77 -61 -127 8 -23 29 -47 55 -64 l40 -28
-16 -95 c-17 -90 -16 -95 0 -95 24 0 122 22 131 29 4 3 -2 42 -13 86 -18 75
-18 81 -2 90 33 19 72 63 78 88 10 39 -21 95 -66 117 -49 26 -93 25 -146 -1z"/>
<path d="M1605 2488 c182 -148 263 -358 253 -650 -3 -71 -1 -128 3 -128 24 0
630 110 640 116 16 9 5 180 -16 259 -29 110 -73 184 -160 271 -59 59 -101 91
-162 122 l-81 42 -258 0 -259 0 40 -32z"/>
<path d="M577 2330 c-113 -36 -189 -105 -247 -225 -91 -189 -102 -460 -35
-861 36 -210 159 -689 185 -717 8 -9 628 -43 635 -35 9 8 73 269 100 401 64
321 90 658 66 866 -39 327 -168 517 -392 576 -78 21 -240 18 -312 -5z"/>
<path d="M2629 1417 l-125 -20 -86 -386 c-47 -212 -85 -387 -84 -388 2 -3 267
35 271 39 4 4 175 756 175 769 0 11 5 11 -151 -14z"/>
<path d="M2426 1331 c-13 -115 -93 -228 -198 -282 -101 -52 -244 -29 -327 51
-40 39 -82 111 -94 161 -6 25 -9 26 -48 19 -48 -9 -55 -17 -64 -79 -10 -76
-83 -428 -114 -556 -16 -66 -28 -121 -26 -123 4 -4 745 94 749 99 4 6 166 743
166 757 0 6 -8 12 -19 12 -15 0 -20 -10 -25 -59z"/>
<path d="M1571 1251 l-94 -16 -32 -160 c-35 -175 -90 -388 -130 -504 -14 -41
-25 -77 -25 -81 0 -6 221 19 229 26 8 7 73 289 110 474 49 247 55 280 44 279
-4 -1 -50 -9 -102 -18z"/>
</g>
</svg>
