<?xml version="1.0" standalone="no"?>
<!DOCTYPE svg PUBLIC "-//W3C//DTD SVG 20010904//EN"
 "http://www.w3.org/TR/2001/REC-SVG-20010904/DTD/svg10.dtd">
<svg version="1.0" xmlns="http://www.w3.org/2000/svg"
 width="300.000000pt" height="300.000000pt" viewBox="0 0 300.000000 300.000000"
 preserveAspectRatio="xMidYMid meet">
<metadata>
Created by potrace 1.10, written by Peter Selinger 2001-2011
</metadata>
<g transform="translate(0.000000,300.000000) scale(0.100000,-0.100000)"
fill="#000000" stroke="none">
<path d="M521 2680 c-46 -11 -83 -40 -103 -81 -16 -30 -18 -67 -18 -316 l0
-283 1100 0 1101 0 -3 294 c-3 281 -4 296 -24 323 -12 15 -36 37 -55 48 -33
20 -53 20 -999 22 -531 0 -980 -2 -999 -7z"/>
<path d="M205 2648 c-63 -32 -110 -74 -143 -126 -52 -82 -62 -135 -62 -339 l0
-183 110 0 110 0 0 278 c0 207 4 291 14 332 8 30 14 56 13 57 -1 0 -20 -8 -42
-19z"/>
<path d="M2756 2648 c20 -64 24 -114 24 -370 l0 -278 110 0 110 0 0 183 c0
204 -10 257 -62 339 -33 53 -81 94 -146 127 l-44 22 8 -23z"/>
<path d="M0 1715 l0 -105 508 2 507 3 3 103 3 102 -511 0 -510 0 0 -105z"/>
<path d="M1192 1628 c3 -175 6 -197 26 -238 35 -72 78 -116 144 -149 52 -27
72 -31 138 -31 129 0 224 61 282 180 20 41 23 63 26 238 l4 192 -312 0 -312 0
4 -192z m398 -73 l0 -85 -90 0 -90 0 0 85 0 85 90 0 90 0 0 -85z"/>
<path d="M1982 1718 l3 -103 508 -3 507 -2 0 105 0 105 -510 0 -511 0 3 -102z"/>
<path d="M0 875 l0 -565 1500 0 1500 0 0 565 0 566 -107 -3 -108 -3 -3 -347
-2 -348 -51 0 c-94 0 -139 -47 -139 -145 l0 -45 -1090 0 -1090 0 0 45 c0 98
-45 145 -139 145 l-51 0 -2 348 -3 347 -107 3 -108 3 0 -566z"/>
<path d="M390 1172 l0 -267 46 -24 c48 -26 106 -88 123 -134 l11 -27 929 0
929 0 22 45 c24 49 74 98 126 123 l34 16 0 268 0 268 -314 0 -314 0 -21 -67
c-44 -146 -155 -263 -299 -316 -81 -30 -243 -30 -324 0 -144 53 -255 170 -299
316 l-21 67 -314 0 -314 0 0 -268z"/>
</g>
</svg>
