<?xml version="1.0" standalone="no"?>
<!DOCTYPE svg PUBLIC "-//W3C//DTD SVG 20010904//EN"
 "http://www.w3.org/TR/2001/REC-SVG-20010904/DTD/svg10.dtd">
<svg version="1.0" xmlns="http://www.w3.org/2000/svg"
 width="300.000000pt" height="300.000000pt" viewBox="0 0 300.000000 300.000000"
 preserveAspectRatio="xMidYMid meet">
<metadata>
Created by potrace 1.10, written by Peter Selinger 2001-2011
</metadata>
<g transform="translate(0.000000,300.000000) scale(0.100000,-0.100000)"
fill="#000000" stroke="none">
<path d="M109 2977 c-64 -34 -102 -93 -107 -167 l-4 -60 1502 0 1502 0 -4 60
c-5 74 -43 133 -107 167 l-44 23 -1347 0 -1347 0 -44 -23z"/>
<path d="M0 2050 l0 -520 303 2 302 3 3 393 2 392 488 -2 487 -3 3 -197 2
-198 400 0 400 0 2 -192 3 -193 303 -3 302 -2 0 520 0 520 -1500 0 -1500 0 0
-520z m2610 205 l0 -84 88 -3 87 -3 0 -85 0 -85 -87 -3 -88 -3 0 91 0 90 -90
0 -90 0 0 85 0 85 90 0 90 0 0 -85z"/>
<path d="M780 2035 l0 -105 315 0 315 0 0 105 0 105 -315 0 -315 0 0 -105z"/>
<path d="M780 1645 l0 -105 315 0 315 0 0 105 0 105 -315 0 -315 0 0 -105z"/>
<path d="M1590 1640 l0 -110 315 0 316 0 -3 108 -3 107 -312 3 -313 2 0 -110z"/>
<path d="M0 1255 l0 -105 560 0 560 0 0 105 0 105 -560 0 -560 0 0 -105z"/>
<path d="M1297 1354 c-11 -12 -8 -319 4 -375 12 -56 60 -119 112 -146 46 -23
138 -20 186 8 91 51 113 125 109 360 l-3 154 -201 3 c-110 1 -203 -1 -207 -4z"/>
<path d="M1880 1255 l0 -105 560 0 560 0 0 105 0 105 -560 0 -560 0 0 -105z"/>
<path d="M0 485 l0 -485 1500 0 1500 0 0 485 0 485 -110 0 -110 0 0 -248 0
-247 -123 -123 -122 -122 -1035 0 -1035 0 -123 123 -122 122 0 248 0 247 -110
0 -110 0 0 -485z"/>
<path d="M390 762 l0 -208 71 -72 72 -72 969 0 969 0 69 71 70 71 0 209 0 209
-366 -2 -367 -3 -11 -46 c-26 -101 -110 -199 -214 -247 -49 -23 -70 -27 -152
-27 -82 0 -103 4 -152 27 -104 48 -188 146 -214 247 l-11 46 -367 3 -366 2 0
-208z"/>
</g>
</svg>
