<?xml version="1.0" standalone="no"?>
<!DOCTYPE svg PUBLIC "-//W3C//DTD SVG 20010904//EN"
 "http://www.w3.org/TR/2001/REC-SVG-20010904/DTD/svg10.dtd">
<svg version="1.0" xmlns="http://www.w3.org/2000/svg"
 width="300.000000pt" height="300.000000pt" viewBox="0 0 300.000000 300.000000"
 preserveAspectRatio="xMidYMid meet">
<metadata>
Created by potrace 1.10, written by Peter Selinger 2001-2011
</metadata>
<g transform="translate(0.000000,300.000000) scale(0.100000,-0.100000)"
fill="#000000" stroke="none">
<path d="M1180 2734 c-42 -18 -77 -50 -96 -86 -14 -28 -15 -28 -122 -28 -138
0 -186 -16 -258 -84 -48 -45 -62 -68 -117 -196 l-64 -145 -70 -6 c-100 -9
-148 -39 -187 -116 -14 -28 -16 -84 -16 -445 0 -459 1 -463 69 -521 43 -36 89
-47 202 -47 l96 0 7 -56 c8 -67 36 -126 73 -152 35 -24 88 -42 124 -42 16 0
29 -2 29 -5 0 -3 -92 -109 -205 -236 -167 -188 -205 -236 -205 -259 0 -36 38
-65 73 -56 14 3 103 95 217 223 106 120 197 219 201 221 5 2 9 -75 9 -170 0
-194 5 -211 59 -211 17 0 37 5 44 12 8 8 14 71 17 196 l5 184 199 -225 c118
-133 209 -227 223 -230 35 -9 73 20 73 55 0 24 -39 73 -205 260 -113 127 -205
233 -205 236 0 3 13 5 29 5 107 0 186 78 198 196 l6 54 96 0 c53 0 113 5 133
10 81 23 138 102 138 190 l0 50 93 0 c86 0 93 -2 102 -22 7 -16 119 -82 362
-214 193 -106 360 -195 371 -198 11 -4 29 2 45 15 l27 20 0 713 c0 696 0 713
-20 731 -10 9 -30 17 -42 17 -37 0 -731 -383 -743 -410 -9 -20 -16 -22 -102
-22 l-93 0 0 50 c0 83 -46 153 -122 185 -32 13 -105 15 -503 15 -256 0 -465 3
-464 8 0 4 24 59 52 122 45 98 58 118 95 145 41 28 50 30 152 33 l109 4 25
-39 c15 -22 45 -50 69 -64 40 -23 50 -24 212 -24 167 0 171 0 217 27 34 21 53
41 72 80 29 57 31 75 16 130 -14 50 -55 97 -105 119 -54 25 -340 27 -395 3z
m362 -131 c25 -23 23 -68 -4 -87 -18 -13 -52 -16 -163 -16 -111 0 -145 3 -163
16 -26 18 -29 60 -5 86 14 16 33 18 166 18 126 0 153 -3 169 -17z"/>
</g>
</svg>
