<?xml version="1.0" standalone="no"?>
<!DOCTYPE svg PUBLIC "-//W3C//DTD SVG 20010904//EN"
 "http://www.w3.org/TR/2001/REC-SVG-20010904/DTD/svg10.dtd">
<svg version="1.0" xmlns="http://www.w3.org/2000/svg"
 width="264.000000pt" height="232.000000pt" viewBox="0 0 264.000000 232.000000"
 preserveAspectRatio="xMidYMid meet">
<metadata>
Created by potrace 1.10, written by Peter Selinger 2001-2011
</metadata>
<g transform="translate(0.000000,232.000000) scale(0.100000,-0.100000)"
fill="#000000" stroke="none">
<path d="M122 2273 c-18 -9 -43 -30 -55 -47 -22 -31 -22 -37 -25 -418 l-3
-388 96 0 95 0 0 435 0 435 -37 0 c-21 0 -53 -8 -71 -17z"/>
<path d="M1230 2025 l0 -265 90 0 90 0 0 265 0 265 -90 0 -90 0 0 -265z"/>
<path d="M2410 1856 l0 -436 95 0 95 0 0 376 c0 326 -2 381 -16 410 -23 47
-67 76 -125 82 l-49 5 0 -437z"/>
<path d="M380 1940 l0 -180 348 2 347 3 0 175 0 175 -347 3 -348 2 0 -180z"/>
<path d="M1564 2107 c-2 -7 -3 -87 -2 -177 l3 -165 348 -3 347 -2 0 180 0 180
-345 0 c-273 0 -347 -3 -351 -13z"/>
<path d="M380 1515 l0 -95 266 2 267 3 12 42 c7 23 24 62 39 87 14 24 26 47
26 50 0 3 -137 6 -305 6 l-305 0 0 -95z"/>
<path d="M1250 1601 c-52 -17 -89 -42 -127 -85 -116 -131 -66 -344 96 -414 46
-20 156 -20 202 0 123 53 187 196 147 330 -15 50 -79 123 -131 150 -45 22
-145 33 -187 19z m120 -161 c16 -16 20 -33 20 -95 0 -63 -3 -77 -22 -95 -12
-11 -34 -20 -48 -20 -14 0 -36 9 -48 20 -19 18 -22 32 -22 95 0 86 18 115 70
115 17 0 39 -9 50 -20z"/>
<path d="M1650 1604 c0 -3 12 -26 26 -50 15 -25 32 -64 39 -87 l12 -42 267 -3
266 -2 0 95 0 95 -305 0 c-168 0 -305 -3 -305 -6z"/>
<path d="M40 670 l0 -600 95 0 95 0 0 600 0 600 -95 0 -95 0 0 -600z"/>
<path d="M380 1175 l0 -95 305 0 c168 0 305 3 305 6 0 4 -9 22 -21 40 -11 18
-29 57 -39 86 l-18 53 -266 3 -266 2 0 -95z"/>
<path d="M1727 1263 c-4 -3 -7 -13 -7 -22 0 -9 -16 -47 -35 -85 -19 -39 -35
-71 -35 -73 0 -2 137 -3 305 -3 l305 0 0 95 0 95 -263 0 c-145 0 -267 -3 -270
-7z"/>
<path d="M2410 670 l0 -600 95 0 95 0 0 600 0 600 -95 0 -95 0 0 -600z"/>
<path d="M380 500 l0 -430 940 0 940 0 0 430 0 430 -940 0 -940 0 0 -430z"/>
</g>
</svg>
