<?xml version="1.0" standalone="no"?>
<!DOCTYPE svg PUBLIC "-//W3C//DTD SVG 20010904//EN"
 "http://www.w3.org/TR/2001/REC-SVG-20010904/DTD/svg10.dtd">
<svg version="1.0" xmlns="http://www.w3.org/2000/svg"
 width="263.000000pt" height="238.000000pt" viewBox="0 0 263.000000 238.000000"
 preserveAspectRatio="xMidYMid meet">
<metadata>
Created by potrace 1.10, written by Peter Selinger 2001-2011
</metadata>
<g transform="translate(0.000000,238.000000) scale(0.100000,-0.100000)"
fill="#000000" stroke="none">
<path d="M755 2343 c-260 -22 -503 -104 -623 -209 -131 -115 -119 -222 39
-333 72 -51 204 -108 316 -136 256 -64 602 -60 851 11 136 38 278 112 339 177
91 96 90 171 -2 262 -158 159 -563 259 -920 228z"/>
<path d="M40 1528 c0 -74 17 -112 78 -173 60 -59 213 -135 342 -170 120 -32
294 -55 414 -55 l94 0 17 42 c9 23 41 80 72 127 l54 84 -118 -7 c-303 -18
-633 45 -860 164 l-93 48 0 -60z"/>
<path d="M1682 1470 c-125 -33 -225 -92 -327 -195 -73 -72 -99 -107 -133 -175
-105 -212 -110 -444 -13 -645 76 -159 185 -270 336 -345 299 -146 632 -83 863
165 153 164 222 406 178 623 -58 287 -266 506 -547 576 -91 22 -262 21 -357
-4z"/>
<path d="M40 1040 c0 -77 23 -122 89 -182 126 -113 378 -194 669 -214 l98 -7
0 127 0 126 -81 0 c-233 0 -566 83 -718 180 -26 16 -50 30 -52 30 -3 0 -5 -27
-5 -60z"/>
<path d="M40 550 c0 -108 60 -182 208 -258 144 -74 309 -116 514 -132 116 -9
328 -3 328 9 0 3 -20 36 -44 74 -24 37 -53 88 -63 112 l-18 45 -98 0 c-268 0
-536 61 -736 166 -46 24 -85 44 -87 44 -2 0 -4 -27 -4 -60z"/>
</g>
</svg>
