<?xml version="1.0" standalone="no"?>
<!DOCTYPE svg PUBLIC "-//W3C//DTD SVG 20010904//EN"
 "http://www.w3.org/TR/2001/REC-SVG-20010904/DTD/svg10.dtd">
<svg version="1.0" xmlns="http://www.w3.org/2000/svg"
 width="300.000000pt" height="300.000000pt" viewBox="0 0 300.000000 300.000000"
 preserveAspectRatio="xMidYMid meet">
<metadata>
Created by potrace 1.10, written by Peter Selinger 2001-2011
</metadata>
<g transform="translate(0.000000,300.000000) scale(0.100000,-0.100000)"
fill="#000000" stroke="none">
<path d="M1280 2864 c-90 -39 -131 -111 -138 -242 -4 -84 -7 -95 -30 -112 -14
-12 -40 -20 -61 -20 -31 0 -45 8 -81 46 -71 72 -124 99 -195 99 -41 -1 -72 -7
-100 -22 -49 -26 -267 -245 -290 -292 -22 -45 -23 -136 -1 -181 9 -19 39 -60
67 -90 64 -68 73 -91 55 -135 -19 -44 -42 -55 -119 -55 -125 0 -207 -45 -248
-135 -25 -55 -28 -385 -3 -443 38 -91 110 -133 242 -140 84 -4 95 -7 112 -30
36 -45 27 -85 -34 -151 -30 -33 -63 -74 -72 -93 -24 -45 -24 -141 0 -188 25
-48 242 -267 290 -292 50 -25 138 -28 186 -4 19 9 60 39 90 67 68 64 91 73
135 55 44 -19 55 -42 55 -116 0 -87 17 -143 58 -191 61 -70 90 -79 293 -79
185 0 221 6 276 46 58 43 77 87 83 196 5 88 9 101 32 124 18 19 36 26 62 26
31 0 46 -9 94 -55 32 -30 73 -63 92 -73 49 -26 143 -25 195 3 54 28 271 250
290 296 21 51 19 139 -4 185 -11 20 -40 57 -65 81 -53 52 -71 96 -57 134 16
41 49 57 119 57 100 0 150 17 202 69 62 62 70 96 70 291 0 179 -8 221 -52 275
-46 55 -95 75 -205 83 -89 6 -97 9 -116 34 -34 46 -25 83 36 147 30 31 62 72
72 91 25 47 25 144 1 190 -24 47 -242 267 -286 289 -97 50 -183 32 -282 -59
-56 -50 -72 -60 -102 -60 -26 0 -44 7 -61 25 -22 21 -25 33 -25 93 0 130 -44
212 -135 253 -34 16 -67 19 -225 18 -143 0 -193 -3 -220 -15z m337 -749 c256
-48 456 -255 501 -517 15 -87 15 -102 0 -193 -23 -141 -76 -245 -177 -346
-101 -101 -205 -154 -346 -177 -91 -15 -106 -15 -193 0 -271 46 -474 249 -520
520 -15 87 -15 102 0 193 50 304 307 527 615 534 23 1 77 -6 120 -14z"/>
</g>
</svg>