<?xml version="1.0" standalone="no"?>
<!DOCTYPE svg PUBLIC "-//W3C//DTD SVG 20010904//EN"
 "http://www.w3.org/TR/2001/REC-SVG-20010904/DTD/svg10.dtd">
<svg version="1.0" xmlns="http://www.w3.org/2000/svg"
 width="187.000000pt" height="283.000000pt" viewBox="0 0 187.000000 283.000000"
 preserveAspectRatio="xMidYMid meet">
<metadata>
Created by potrace 1.10, written by Peter Selinger 2001-2011
</metadata>
<g transform="translate(0.000000,283.000000) scale(0.100000,-0.100000)"
fill="#000000" stroke="none">
<path d="M550 2660 c0 -27 -3 -30 -30 -30 -30 0 -30 0 -30 -60 0 -60 0 -60
-30 -60 l-30 0 0 -90 0 -90 -30 0 c-30 0 -30 0 -30 -60 l0 -60 -120 0 -120 0
0 -25 c0 -21 -5 -25 -30 -25 -27 0 -30 -3 -30 -30 0 -27 3 -30 30 -30 27 0 30
-3 30 -30 l0 -30 120 0 120 0 0 -60 0 -60 -90 0 -90 0 0 -60 c0 -60 0 -60 30
-60 27 0 30 -3 30 -30 0 -27 3 -30 30 -30 27 0 30 -3 30 -30 0 -27 3 -30 30
-30 27 0 30 -3 30 -30 0 -27 3 -30 30 -30 27 0 30 -3 30 -30 0 -27 3 -30 30
-30 27 0 30 -3 30 -30 0 -27 3 -30 30 -30 27 0 30 -3 30 -30 0 -30 0 -30 60
-30 l60 0 0 -60 c0 -60 0 -60 -30 -60 -27 0 -30 -3 -30 -30 0 -27 -3 -30 -30
-30 -30 0 -30 0 -30 -60 0 -60 0 -60 -30 -60 -30 0 -30 0 -30 -60 0 -60 0 -60
-30 -60 l-30 0 0 -175 0 -175 30 0 c27 0 30 -3 30 -30 0 -27 3 -30 30 -30 27
0 30 -3 30 -30 0 -30 0 -30 60 -30 l60 0 0 -90 0 -90 -30 0 c-27 0 -30 -3 -30
-30 0 -27 -3 -30 -30 -30 l-30 0 0 -90 0 -90 175 0 175 0 0 210 0 210 30 0 30
0 0 -210 0 -210 180 0 180 0 0 90 0 90 -30 0 c-27 0 -30 3 -30 30 0 27 -3 30
-30 30 l-30 0 0 90 0 90 60 0 c60 0 60 0 60 30 0 27 3 30 30 30 27 0 30 3 30
30 0 27 3 30 30 30 l30 0 0 175 0 175 -30 0 c-30 0 -30 0 -30 60 0 60 0 60
-30 60 -30 0 -30 0 -30 60 0 60 0 60 -30 60 -27 0 -30 3 -30 30 0 27 -3 30
-30 30 -30 0 -30 0 -30 60 l0 60 60 0 c60 0 60 0 60 30 0 27 3 30 30 30 27 0
30 3 30 30 0 27 3 30 30 30 27 0 30 3 30 30 0 27 3 30 30 30 27 0 30 3 30 30
0 27 3 30 30 30 27 0 30 3 30 30 0 27 3 30 30 30 27 0 30 3 30 30 0 27 3 30
30 30 30 0 30 0 30 60 l0 60 -90 0 -90 0 0 60 0 60 120 0 120 0 0 30 c0 27 3
30 30 30 27 0 30 3 30 30 0 27 -3 30 -30 30 -25 0 -30 4 -30 25 l0 25 -120 0
-120 0 0 60 c0 60 0 60 -30 60 l-30 0 0 90 0 90 -30 0 c-30 0 -30 0 -30 60 0
60 0 60 -30 60 -27 0 -30 3 -30 30 l0 30 -385 0 -385 0 0 -30z m710 -420 l0
-30 -325 0 -325 0 0 30 0 30 325 0 325 0 0 -30z m-650 -230 l0 -30 90 0 90 0
0 30 0 30 145 0 145 0 0 -30 0 -30 90 0 90 0 0 30 0 30 90 0 90 0 0 -90 0 -90
90 0 90 0 0 -30 c0 -27 -3 -30 -30 -30 -27 0 -30 -3 -30 -30 0 -27 -3 -30 -30
-30 -27 0 -30 -3 -30 -30 0 -27 -3 -30 -30 -30 -27 0 -30 3 -30 30 0 27 3 30
30 30 27 0 30 3 30 30 0 27 -3 30 -30 30 -27 0 -30 3 -30 30 0 27 -3 30 -30
30 l-30 0 0 -150 0 -150 -30 0 c-27 0 -30 -3 -30 -30 0 -30 0 -30 -60 -30 -60
0 -60 0 -60 -30 0 -30 0 -30 -60 -30 -60 0 -60 0 -60 -30 l0 -30 -145 0 -145
0 0 30 c0 30 0 30 -60 30 -60 0 -60 0 -60 30 0 30 0 30 -60 30 -60 0 -60 0
-60 30 0 27 -3 30 -30 30 l-30 0 0 150 0 150 -30 0 c-27 0 -30 -3 -30 -30 0
-27 -3 -30 -30 -30 -27 0 -30 -3 -30 -30 0 -27 3 -30 30 -30 27 0 30 -3 30
-30 0 -27 -3 -30 -30 -30 -27 0 -30 3 -30 30 0 27 -3 30 -30 30 -27 0 -30 3
-30 30 0 27 -3 30 -30 30 -27 0 -30 3 -30 30 l0 30 90 0 90 0 0 90 0 90 90 0
90 0 0 -30z m410 -900 l0 -210 90 0 90 0 0 -60 0 -60 -265 0 -265 0 0 60 0 60
90 0 90 0 0 210 0 210 85 0 85 0 0 -210z m-170 -860 l0 -60 -120 0 -120 0 0
60 0 60 120 0 120 0 0 -60z m410 0 l0 -60 -120 0 -120 0 0 60 0 60 120 0 120
0 0 -60z"/>
<path d="M550 1950 c0 -27 3 -30 30 -30 27 0 30 -3 30 -30 0 -27 -3 -30 -30
-30 l-30 0 0 -90 0 -90 30 0 c27 0 30 -3 30 -30 l0 -30 90 0 90 0 0 30 c0 27
3 30 30 30 l30 0 0 90 0 90 -30 0 c-27 0 -30 3 -30 30 0 27 3 30 30 30 27 0
30 3 30 30 0 27 -3 30 -30 30 -27 0 -30 -3 -30 -30 l0 -30 -90 0 -90 0 0 30
c0 27 -3 30 -30 30 -27 0 -30 -3 -30 -30z m240 -180 l0 -90 -30 0 c-30 0 -30
0 -30 60 l0 60 -60 0 c-60 0 -60 0 -60 30 l0 30 90 0 90 0 0 -90z"/>
<path d="M1020 1950 c0 -27 3 -30 30 -30 27 0 30 -3 30 -30 0 -27 -3 -30 -30
-30 l-30 0 0 -90 0 -90 30 0 c27 0 30 -3 30 -30 l0 -30 90 0 90 0 0 30 c0 27
3 30 30 30 l30 0 0 90 0 90 -30 0 c-27 0 -30 3 -30 30 0 27 3 30 30 30 27 0
30 3 30 30 0 27 -3 30 -30 30 -27 0 -30 -3 -30 -30 l0 -30 -90 0 -90 0 0 30
c0 27 -3 30 -30 30 -27 0 -30 -3 -30 -30z m240 -180 l0 -90 -30 0 c-30 0 -30
0 -30 60 l0 60 -60 0 c-60 0 -60 0 -60 30 l0 30 90 0 90 0 0 -90z"/>
<path d="M850 1500 c0 -57 1 -60 25 -60 21 0 25 5 25 30 0 27 3 30 30 30 27 0
30 -3 30 -30 0 -27 3 -30 30 -30 30 0 30 0 30 60 l0 60 -85 0 -85 0 0 -60z"/>
</g>
</svg>
