<?xml version="1.0" standalone="no"?>
<!DOCTYPE svg PUBLIC "-//W3C//DTD SVG 20010904//EN"
 "http://www.w3.org/TR/2001/REC-SVG-20010904/DTD/svg10.dtd">
<svg version="1.0" xmlns="http://www.w3.org/2000/svg"
 width="300.000000pt" height="300.000000pt" viewBox="0 0 300.000000 300.000000"
 preserveAspectRatio="xMidYMid meet">
<metadata>
Created by potrace 1.10, written by Peter Selinger 2001-2011
</metadata>
<g transform="translate(0.000000,300.000000) scale(0.100000,-0.100000)"
fill="#000000" stroke="none">
<path d="M2588 2880 c-42 -13 -57 -26 -208 -190 -228 -247 -581 -610 -783
-803 l-186 -179 -49 44 c-52 46 -639 585 -732 673 -83 77 -120 102 -172 115
-63 16 -124 -5 -192 -66 -28 -25 -80 -66 -115 -92 -77 -57 -140 -141 -148
-200 -8 -56 31 -133 135 -272 108 -142 256 -296 505 -523 200 -182 208 -190
190 -207 -10 -9 -89 -78 -175 -154 -276 -240 -353 -345 -353 -476 1 -81 32
-143 114 -226 143 -145 194 -164 326 -119 165 55 316 154 523 344 l123 112 37
-32 c20 -18 80 -72 132 -120 179 -166 359 -297 503 -365 86 -41 117 -41 188
-4 22 11 51 20 65 20 40 0 63 16 151 106 96 98 113 137 94 218 -6 28 -24 66
-38 85 -45 60 -279 316 -448 489 l-159 164 179 171 c199 190 381 370 466 462
171 185 333 403 406 548 37 75 37 76 14 204 -14 74 -21 85 -127 172 -119 98
-188 125 -266 101z"/>
</g>
</svg>
