<?xml version="1.0" standalone="no"?>
<!DOCTYPE svg PUBLIC "-//W3C//DTD SVG 20010904//EN"
 "http://www.w3.org/TR/2001/REC-SVG-20010904/DTD/svg10.dtd">
<svg version="1.0" xmlns="http://www.w3.org/2000/svg"
 width="173.000000pt" height="188.000000pt" viewBox="0 0 173.000000 188.000000"
 preserveAspectRatio="xMidYMid meet">
<g transform="translate(0.000000,188.000000) scale(0.100000,-0.100000)"
fill="#000000" stroke="none">
<path d="M1510 1746 c-78 -74 -207 -145 -233 -129 -5 3 -105 -91 -223 -208
l-214 -213 -248 247 c-137 136 -253 247 -258 246 -17 -1 -49 -18 -36 -18 6 -1
12 -13 12 -28 -1 -27 -1 -27 -16 -8 -8 11 -18 20 -22 20 -4 1 -17 6 -30 13
-20 11 -28 10 -55 -5 -18 -11 -32 -25 -32 -33 0 -20 -38 -61 -46 -48 -4 7 -9
7 -13 -1 -4 -6 -3 -11 3 -11 19 0 34 -40 20 -56 -6 -8 -8 -14 -4 -14 4 0 2 -7
-5 -15 -7 -8 -9 -15 -4 -15 5 0 16 -5 24 -10 13 -8 10 -14 -15 -34 l-30 -25
29 -28 c16 -15 26 -22 22 -15 -4 6 -5 12 -1 12 3 0 104 -98 225 -218 l220
-217 -130 -130 c-73 -73 -138 -130 -150 -131 -25 -2 -70 -44 -70 -66 0 -10 -7
-18 -16 -18 -8 0 -12 -4 -9 -10 3 -5 0 -7 -8 -4 -8 3 -20 -3 -28 -12 -12 -15
-12 -16 9 -10 13 5 22 3 22 -3 0 -6 -4 -11 -10 -11 -5 0 -10 -5 -10 -11 0 -5
4 -8 9 -5 5 4 7 -3 4 -15 -3 -11 -21 -28 -39 -37 -19 -8 -34 -20 -34 -24 0 -5
5 -6 10 -3 6 3 10 -2 10 -12 0 -21 -33 -53 -53 -53 -8 0 -13 -10 -13 -23 1
-16 -4 -22 -21 -21 -12 0 -20 -3 -17 -8 3 -4 -1 -15 -9 -23 -15 -14 -12 -55 3
-55 5 0 11 -14 15 -30 7 -34 9 -34 36 -20 18 10 25 3 20 -23 -1 -5 3 -6 9 -2
5 3 15 3 21 -1 8 -4 3 -12 -12 -20 -14 -8 -18 -13 -9 -14 8 0 31 16 51 36 36
35 37 35 44 15 5 -17 10 -19 20 -11 9 8 15 8 20 0 4 -6 15 2 28 21 28 41 52
51 42 18 -4 -13 -4 -21 0 -17 5 4 14 0 20 -9 11 -15 43 13 260 231 l248 248
268 -267 c173 -173 273 -266 282 -262 8 3 19 1 24 -4 7 -7 16 -4 27 7 10 9 30
17 45 16 19 0 32 8 46 28 10 15 24 26 29 24 15 -5 79 73 66 81 -16 10 -12 22
10 28 28 7 25 42 -6 66 -15 12 -23 21 -19 21 5 0 -106 115 -246 255 -140 141
-255 260 -257 265 -3 8 79 92 315 321 106 103 273 299 254 299 -5 0 -13 -4
-16 -10 -3 -5 -10 -10 -16 -10 -17 0 -9 24 16 50 l26 27 -33 2 c-61 4 -59 3
-45 20 6 9 21 24 32 33 11 10 15 17 9 18 -7 0 -25 -15 -41 -32 -30 -36 -70
-58 -90 -51 -17 6 0 39 38 74 19 19 26 33 22 48 -4 15 1 23 18 31 l24 10 -24
-3 c-17 -1 -25 4 -27 16 -1 11 -4 20 -6 22 -2 2 -28 -20 -58 -49z m25 -48
c-14 -11 -29 -18 -32 -14 -9 8 38 47 49 40 5 -3 -3 -15 -17 -26z m-1338 -74
c-3 -3 -12 -4 -19 -1 -8 3 -5 6 6 6 11 1 17 -2 13 -5z m-47 -114 c0 -5 -5 -10
-11 -10 -5 0 -7 5 -4 10 3 6 8 10 11 10 2 0 4 -4 4 -10z m-60 -1275 c-7 -9
-15 -13 -18 -10 -3 2 1 11 8 20 7 9 15 13 18 10 3 -2 -1 -11 -8 -20z m140 -20
c0 -8 -4 -15 -10 -15 -5 0 -10 7 -10 15 0 8 5 15 10 15 6 0 10 -7 10 -15z"/>
<path d="M1604 1728 c-4 -7 -3 -8 4 -4 12 7 16 16 8 16 -3 0 -8 -5 -12 -12z"/>
<path d="M163 503 c4 -3 10 -3 14 0 3 4 0 7 -7 7 -7 0 -10 -3 -7 -7z"/>
<path d="M10 195 c-7 -9 -11 -18 -8 -20 9 -10 38 7 38 21 0 18 -14 18 -30 -1z"/>
</g>
</svg>
