<?xml version="1.0" standalone="no"?>
<!DOCTYPE svg PUBLIC "-//W3C//DTD SVG 20010904//EN"
 "http://www.w3.org/TR/2001/REC-SVG-20010904/DTD/svg10.dtd">
<svg version="1.0" xmlns="http://www.w3.org/2000/svg"
 width="300.000000pt" height="300.000000pt" viewBox="0 0 300.000000 300.000000"
 preserveAspectRatio="xMidYMid meet">
<metadata>
Created by potrace 1.10, written by Peter Selinger 2001-2011
</metadata>
<g transform="translate(0.000000,300.000000) scale(0.100000,-0.100000)"
 stroke="none">
<path d="M10 2985 c-10 -12 -2 -53 45 -222 61 -220 75 -253 103 -253 9 0 88
71 176 159 128 128 157 163 154 182 -3 21 -21 28 -218 85 -118 35 -222 63
-231 63 -9 1 -22 -6 -29 -14z"/>
<path d="M2202 2770 c-43 -41 -99 -82 -135 -99 -119 -58 -153 -63 -517 -71
-316 -7 -340 -9 -426 -33 -50 -14 -117 -37 -149 -52 l-59 -26 140 -140 141
-141 74 26 c41 14 151 39 244 56 310 54 445 119 653 314 l82 78 0 -793 0 -794
-315 315 c-196 196 -318 324 -321 340 -28 131 -135 242 -255 265 -30 6 -90 61
-375 346 -186 186 -346 339 -355 339 -9 0 -39 -21 -68 -47 l-52 -48 1016
-1015 1015 -1015 57 57 57 58 -162 163 -162 164 0 902 c0 496 -2 906 -5 912
-15 23 -54 4 -123 -61z"/>
<path d="M360 2635 l-24 -26 1059 -1059 1059 -1059 29 26 28 27 -1058 1058
c-582 582 -1061 1058 -1064 1058 -3 0 -16 -11 -29 -25z"/>
<path d="M347 2442 c-26 -26 -47 -57 -47 -68 0 -12 121 -140 338 -357 325
-326 338 -339 350 -389 25 -109 115 -201 227 -233 46 -14 75 -40 370 -335
l320 -320 -799 0 -798 0 82 87 c197 208 262 342 321 662 17 96 42 206 55 245
l24 70 -137 138 c-158 158 -144 157 -193 21 -52 -145 -62 -227 -64 -543 -3
-316 -10 -370 -68 -487 -18 -36 -63 -98 -105 -144 -70 -76 -74 -82 -60 -102
l14 -22 904 -3 904 -2 160 -160 160 -160 60 60 60 60 -1015 1015 -1015 1015
-48 -48z"/>
<path d="M2507 482 c-141 -142 -257 -262 -257 -268 0 -19 176 -183 212 -199
44 -18 88 -19 143 -4 32 9 72 43 197 167 87 86 165 171 174 190 47 100 25 172
-89 290 -51 51 -88 82 -102 82 -14 0 -105 -84 -278 -258z"/>
</g>
</svg>
