<?xml version="1.0" standalone="no"?>
<!DOCTYPE svg PUBLIC "-//W3C//DTD SVG 20010904//EN"
 "http://www.w3.org/TR/2001/REC-SVG-20010904/DTD/svg10.dtd">
<svg version="1.0" xmlns="http://www.w3.org/2000/svg"
 width="300.000000pt" height="300.000000pt" viewBox="0 0 300.000000 300.000000"
 preserveAspectRatio="xMidYMid meet">
<metadata>
Created by potrace 1.10, written by Peter Selinger 2001-2011
</metadata>
<g transform="translate(0.000000,300.000000) scale(0.100000,-0.100000)"
fill="#000000" stroke="none">
<path d="M1955 2761 c-211 -80 -453 -219 -625 -358 -41 -34 -205 -185 -365
-336 l-290 -275 -19 38 c-11 21 -27 40 -35 43 -27 7 -193 -56 -207 -78 -11
-17 -9 -30 13 -85 14 -36 50 -105 79 -153 32 -54 51 -95 47 -105 -3 -9 -53
-65 -112 -124 -92 -94 -110 -108 -139 -108 -108 0 -205 -104 -205 -220 0 -123
97 -220 220 -220 110 1 203 81 219 191 6 39 19 56 117 157 62 61 118 112 126
112 8 0 42 -18 75 -40 67 -43 206 -110 230 -110 34 0 46 16 76 100 38 107 36
133 -15 150 -19 6 -35 14 -35 16 0 3 125 136 277 297 152 161 303 326 336 367
140 174 277 415 351 612 38 103 43 137 24 156 -18 18 -34 15 -143 -27z m-590
-641 l-499 -499 -23 21 c-17 16 -30 19 -57 15 -29 -5 -39 -2 -51 16 -8 12 -15
24 -15 27 0 12 611 584 689 645 109 86 208 150 336 217 61 32 112 58 115 58 3
0 -220 -225 -495 -500z m529 338 c-134 -267 -243 -400 -804 -981 -74 -76 -75
-77 -98 -61 -20 13 -23 22 -18 49 5 24 1 39 -15 59 l-22 28 499 499 c274 274
500 499 502 499 1 0 -19 -41 -44 -92z"/>
<path d="M2595 2201 c-73 -33 -119 -94 -131 -172 -6 -39 -19 -56 -117 -156
-62 -62 -118 -113 -126 -113 -8 0 -42 18 -75 40 -67 43 -206 110 -230 110 -34
0 -46 -16 -76 -100 -38 -107 -36 -133 15 -150 19 -6 35 -14 35 -16 0 -3 -125
-137 -277 -297 -152 -161 -303 -326 -336 -367 -138 -172 -267 -395 -347 -601
-42 -107 -48 -147 -28 -167 18 -18 29 -16 136 24 208 78 458 220 632 361 41
34 206 185 365 336 l290 275 19 -39 c11 -21 27 -40 35 -42 27 -5 185 52 203
73 15 19 15 25 2 62 -19 55 -80 173 -115 225 -18 26 -27 48 -23 60 4 10 54 66
113 126 92 93 110 107 139 107 108 0 205 104 205 220 0 159 -165 267 -308 201z
m-570 -669 c0 -25 7 -48 19 -61 l20 -22 -503 -502 -503 -502 59 115 c122 238
194 330 575 733 277 293 292 307 312 294 16 -11 21 -25 21 -55z m189 -189 c29
5 39 2 51 -16 8 -12 15 -24 15 -27 0 -12 -609 -582 -687 -644 -98 -76 -195
-141 -299 -198 -178 -97 -184 -104 341 421 l499 500 23 -21 c17 -16 30 -19 57
-15z"/>
</g>
</svg>
