<?xml version="1.0" standalone="no"?>
<!DOCTYPE svg PUBLIC "-//W3C//DTD SVG 20010904//EN"
 "http://www.w3.org/TR/2001/REC-SVG-20010904/DTD/svg10.dtd">
<svg version="1.0" xmlns="http://www.w3.org/2000/svg"
 width="116.000000pt" height="120.000000pt" viewBox="0 0 116.000000 120.000000"
 preserveAspectRatio="xMidYMid meet">
<metadata>
Created by potrace 1.10, written by Peter Selinger 2001-2011
</metadata>
<g transform="translate(0.000000,120.000000) scale(0.100000,-0.100000)"
fill="#000000" stroke="none">
<path d="M318 1131 c-18 -19 -45 -41 -59 -50 -14 -9 -38 -30 -53 -47 -31 -38
-86 -168 -86 -205 0 -15 -7 -46 -15 -69 -8 -23 -15 -66 -15 -94 -1 -28 -6 -71
-12 -96 -5 -25 -14 -85 -18 -135 -5 -49 -12 -116 -15 -147 -4 -31 -4 -82 0
-113 6 -50 9 -56 28 -53 16 2 23 11 25 33 10 124 26 151 35 63 4 -29 9 -76 13
-104 6 -50 5 -51 -32 -82 l-39 -32 530 0 529 0 -44 37 c-24 21 -52 44 -62 51
-20 14 -24 85 -9 172 9 50 10 48 34 -65 10 -51 16 -61 36 -63 l24 -4 -6 119
c-4 65 -11 152 -17 193 -6 41 -13 102 -16 135 -11 148 -25 227 -52 306 -31 89
-51 129 -65 129 -4 0 -17 16 -29 35 -11 20 -34 43 -52 52 -17 9 -46 28 -65 42
l-34 26 -213 0 -213 0 -33 -34z m262 -277 c0 -9 11 -40 26 -71 33 -74 43 -169
20 -186 -12 -9 -19 -33 -23 -75 -5 -58 -4 -64 15 -69 13 -3 22 -15 24 -32 2
-17 9 -26 21 -25 9 0 37 1 60 2 36 2 46 6 55 27 18 39 42 32 42 -12 0 -46 -32
-83 -72 -83 -18 0 -28 -5 -28 -15 0 -24 -37 -32 -156 -34 -132 -2 -164 4 -164
30 0 12 -9 21 -27 25 -65 13 -73 21 -73 69 0 51 9 55 44 20 32 -31 112 -36
123 -7 4 9 13 22 20 27 7 6 15 35 19 66 5 45 3 59 -11 73 -16 16 -16 21 -2 74
17 63 54 190 62 210 6 17 25 6 25 -14z m-159 -176 c1 -13 2 -34 3 -48 1 -19
-5 -26 -21 -28 -27 -4 -30 14 -11 65 14 38 27 43 29 11z m327 -21 c18 -50 15
-57 -23 -57 -19 0 -35 3 -35 7 0 12 34 83 40 83 3 0 11 -15 18 -33z m22 -435
c0 -28 -10 -40 -102 -130 -44 -42 -47 -44 -109 -43 -55 0 -66 3 -79 22 -8 12
-28 35 -44 51 -24 24 -66 97 -66 114 0 3 11 -3 25 -12 14 -9 25 -24 25 -34 0
-20 19 -30 55 -30 13 0 28 -7 32 -15 12 -21 83 -23 94 -2 6 9 21 17 34 17 30
0 115 56 115 76 0 8 5 14 10 14 6 0 10 -12 10 -28z"/>
<path d="M512 338 c2 -19 9 -23 38 -23 28 0 35 4 35 20 0 16 -8 21 -38 23 -35
3 -38 1 -35 -20z"/>
</g>
</svg>
