<?xml version="1.0" standalone="no"?>
<!DOCTYPE svg PUBLIC "-//W3C//DTD SVG 20010904//EN"
 "http://www.w3.org/TR/2001/REC-SVG-20010904/DTD/svg10.dtd">
<svg version="1.0" xmlns="http://www.w3.org/2000/svg"
 width="132.000000pt" height="300.000000pt" viewBox="0 0 132.000000 300.000000"
 preserveAspectRatio="xMidYMid meet">
<metadata>
Created by potrace 1.10, written by Peter Selinger 2001-2011
</metadata>
<g transform="translate(0.000000,300.000000) scale(0.100000,-0.100000)"
fill="#000000" stroke="none">
<path d="M528 2962 c-61 -3 -89 -21 -166 -102 -34 -36 -82 -139 -82 -177 0
-12 -4 -32 -9 -45 -5 -13 -12 -57 -15 -98 -4 -41 -11 -88 -16 -105 -5 -16 -11
-97 -12 -180 -3 -134 -1 -150 14 -153 14 -3 18 8 24 57 3 34 10 61 14 61 4 0
10 -26 13 -57 4 -32 10 -68 13 -80 5 -17 -4 -32 -39 -66 -48 -47 -52 -54 -67
-157 -25 -171 -31 -207 -39 -235 -5 -16 -9 -50 -9 -75 0 -56 -36 -323 -56
-412 -22 -98 -23 -187 -4 -224 34 -63 75 -70 62 -11 l-7 31 37 -32 c20 -18 41
-32 47 -32 20 0 20 31 0 63 -14 23 -21 51 -21 86 0 60 14 61 24 1 5 -30 11
-40 25 -40 32 0 40 88 19 191 -9 45 -9 72 1 121 6 35 18 101 27 148 8 47 17
96 21 110 6 24 6 23 15 -10 9 -39 -6 -284 -28 -455 -9 -60 -24 -188 -34 -284
-11 -96 -22 -181 -25 -190 -2 -9 -16 -112 -30 -230 -14 -117 -28 -231 -31
-252 l-7 -39 79 0 c52 0 87 -5 99 -14 24 -16 221 -31 230 -17 3 5 80 10 172
10 109 0 168 3 173 11 4 7 39 9 106 5 54 -3 104 -2 111 3 12 8 11 25 -42 427
-36 269 -47 365 -51 435 -4 74 -4 75 11 42 13 -28 18 -32 30 -22 8 7 15 25 15
41 0 38 16 37 23 -1 4 -19 -1 -46 -14 -77 -11 -25 -18 -52 -15 -60 7 -17 36
-6 63 26 l22 26 1 -37 c0 -52 21 -49 60 7 30 44 31 48 26 123 -3 42 -12 109
-20 147 -15 69 -45 292 -48 350 0 17 -7 50 -14 75 -7 25 -15 63 -18 85 -11 96
-37 243 -50 280 -9 26 -34 58 -71 90 l-57 51 7 72 c8 80 19 86 30 15 9 -61 21
-84 40 -77 18 7 20 75 4 179 -5 39 -14 117 -19 175 -15 162 -19 185 -46 266
-29 89 -75 150 -154 202 l-55 37 -115 0 c-63 0 -141 -1 -172 -3z m132 -256 c0
-7 9 -35 21 -61 29 -65 36 -137 15 -154 -22 -18 -23 -121 -1 -121 8 0 15 -9
15 -20 0 -17 7 -20 49 -20 39 0 53 4 65 21 17 25 36 17 36 -16 0 -25 -35 -66
-54 -64 -25 3 -36 -2 -36 -15 0 -17 -51 -26 -145 -26 -87 0 -112 7 -118 31 -3
12 -14 19 -29 19 -33 0 -48 18 -48 57 0 37 18 44 38 13 19 -31 80 -27 109 7
25 29 32 110 12 130 -9 9 -5 38 16 115 15 57 30 106 32 111 7 12 23 8 23 -7z
m-130 -172 c0 -27 -4 -34 -20 -34 -23 0 -24 3 -8 46 14 40 28 35 28 -12z m269
5 c15 -45 14 -49 -13 -49 -33 0 -38 11 -23 49 14 39 22 39 36 0z m21 -352 c0
-16 -21 -45 -62 -85 -61 -60 -65 -62 -115 -62 -36 0 -56 5 -65 16 -7 9 -23 27
-35 40 -28 30 -56 84 -49 91 8 8 36 -17 36 -32 0 -14 22 -25 51 -25 10 0 19
-4 19 -9 0 -5 15 -11 32 -15 24 -5 36 -2 44 9 6 8 23 15 37 15 13 0 27 7 31
15 3 8 12 15 20 15 9 0 23 11 32 25 20 31 24 31 24 2z m230 -718 c0 -14 4 -39
9 -55 5 -16 15 -68 21 -116 11 -76 11 -91 -4 -127 -9 -23 -16 -58 -16 -78 0
-20 -3 -33 -7 -29 -9 9 -32 310 -32 416 1 72 1 74 14 45 8 -16 14 -42 15 -56z"/>
<path d="M604 2289 c-8 -14 10 -32 35 -34 21 -2 35 20 25 36 -7 13 -51 11 -60
-2z"/>
</g>
</svg>
