 <svg  version="1.0" xmlns="http://www.w3.org/2000/svg"  width="300.000000pt" height="300.000000pt" viewBox="0 0 300.000000 300.000000"  preserveAspectRatio="xMidYMid meet">  <g transform="translate(0.000000,300.000000) scale(0.100000,-0.100000)" fill="#c60606" stroke="none"> <path d="M1029 2970 l-30 -29 3 -113 3 -113 495 0 495 0 0 118 c0 118 0 119 -28 143 l-28 24 -440 0 -441 0 -29 -30z"/> <path d="M410 2518 c-26 -14 -57 -41 -75 -66 -29 -42 -30 -49 -34 -168 l-3 -124 1202 0 1202 0 -3 124 c-4 119 -5 126 -34 168 -18 25 -49 52 -75 66 l-44 22 -1046 0 -1046 0 -44 -22z"/> <path d="M500 1958 c0 -13 7 -122 15 -243 8 -121 24 -350 35 -510 11 -159 26 -387 35 -505 8 -118 19 -296 26 -395 12 -196 24 -249 67 -280 26 -20 45 -20 805 -23 714 -2 781 -1 814 15 59 28 68 64 87 338 9 132 23 328 31 435 8 107 24 321 35 475 11 154 27 370 35 480 8 110 15 208 15 218 0 16 -54 17 -1000 17 l-1000 0 0 -22z m726 -248 c61 -21 59 0 62 -645 2 -324 0 -605 -3 -624 -15 -78 -92 -106 -146 -52 l-29 29 0 611 c0 379 4 620 10 636 8 21 30 37 76 55 1 0 14 -5 30 -10z m608 -4 c19 -8 37 -25 45 -42 8 -22 11 -184 9 -642 l-3 -614 -28 -24 c-36 -31 -78 -31 -114 0 l-28 24 0 614 c0 337 4 626 9 642 5 17 20 33 40 42 38 16 31 16 70 0z"/> </g> </svg> 