<?xml version="1.0" standalone="no"?>
<!DOCTYPE svg PUBLIC "-//W3C//DTD SVG 20010904//EN"
 "http://www.w3.org/TR/2001/REC-SVG-20010904/DTD/svg10.dtd">
<svg version="1.0" xmlns="http://www.w3.org/2000/svg"
 width="300.000000pt" height="300.000000pt" viewBox="0 0 300.000000 300.000000"
 preserveAspectRatio="xMidYMid meet">
<metadata>
Created by potrace 1.10, written by Peter Selinger 2001-2011
</metadata>
<g transform="translate(0.000000,300.000000) scale(0.100000,-0.100000)"
fill="#000000" stroke="none">
<path d="M670 2785 c-75 -22 -136 -59 -192 -117 -53 -56 -74 -108 -64 -161 10
-53 28 -62 54 -28 44 60 178 94 216 55 19 -18 19 -20 6 -45 -8 -14 -21 -19
-56 -19 -59 0 -94 -21 -127 -76 -17 -29 -34 -44 -47 -44 -29 0 -97 65 -110
106 -6 19 -15 34 -19 34 -12 0 -82 -53 -108 -81 -70 -76 -103 -246 -70 -360
44 -151 178 -246 297 -210 127 38 116 211 -13 211 -40 0 -49 -4 -74 -36 -23
-29 -34 -35 -51 -30 -31 10 -29 56 3 95 31 36 84 55 136 48 38 -5 40 -3 55 31
30 73 85 112 158 112 42 0 76 -18 76 -40 0 -20 -32 -40 -56 -34 -78 20 -144
-82 -98 -151 46 -70 34 -165 -28 -227 -21 -21 -45 -38 -54 -38 -14 0 -15 -7
-11 -37 13 -79 101 -116 172 -74 28 16 41 19 56 11 66 -36 -55 -123 -144 -105
-78 17 -136 73 -161 157 -3 10 -18 20 -33 23 -85 18 -120 32 -159 61 -41 32
-42 32 -48 11 -10 -39 -6 -122 9 -180 39 -150 127 -242 273 -287 52 -16 57
-20 57 -46 0 -25 -4 -29 -31 -32 -18 -2 -49 4 -69 12 l-37 16 7 -33 c14 -66
67 -159 125 -218 97 -99 214 -137 324 -105 78 23 137 81 157 156 17 61 38 81
63 61 21 -18 20 -67 -4 -118 l-19 -43 35 0 c50 0 95 -22 131 -63 30 -35 52
-105 38 -127 -3 -5 0 -10 7 -10 67 0 158 -65 179 -127 15 -46 6 -118 -18 -152
-46 -61 -133 -92 -163 -56 -15 18 -7 43 17 51 58 19 76 30 90 57 31 60 -15
134 -95 152 -26 5 -41 1 -79 -24 -55 -36 -107 -49 -129 -31 -26 23 -13 52 31
67 22 7 50 25 62 39 49 55 14 143 -57 145 -57 3 -132 -12 -178 -33 -24 -11
-72 -23 -108 -26 -35 -2 -64 -8 -64 -11 0 -11 60 -103 97 -148 42 -51 146
-130 267 -204 66 -40 126 -89 227 -189 75 -74 146 -148 157 -164 l22 -28 26
33 c15 19 80 86 144 151 90 88 150 137 251 204 74 48 155 104 180 125 51 43
115 122 148 184 l21 40 -63 6 c-35 3 -84 16 -110 28 -33 16 -72 24 -130 28
-79 4 -84 3 -107 -22 -50 -54 -13 -145 65 -159 38 -8 54 -38 34 -63 -18 -20
-84 -11 -118 16 -41 33 -65 40 -106 31 -51 -12 -85 -48 -92 -97 -6 -48 23 -88
77 -101 30 -7 35 -12 35 -38 0 -26 -4 -29 -35 -32 -63 -5 -135 59 -146 130
-10 62 4 105 49 153 30 31 55 47 90 55 43 11 47 15 47 44 1 46 33 110 70 136
21 15 52 25 86 28 l52 4 -19 42 c-23 50 -24 99 -3 117 24 20 46 0 60 -55 23
-90 101 -155 205 -171 105 -16 244 50 320 150 39 51 82 138 93 187 l6 27 -36
-15 c-20 -8 -52 -14 -72 -12 -32 3 -37 7 -40 30 -3 24 1 28 55 43 124 36 207
104 257 209 39 83 57 208 40 272 -6 21 -6 21 -37 -7 -40 -37 -101 -65 -159
-74 -42 -6 -46 -10 -57 -47 -28 -91 -138 -153 -230 -128 -56 15 -96 50 -87 77
10 31 34 36 71 13 65 -40 141 -15 171 56 18 43 20 40 -24 64 -86 49 -116 155
-68 246 22 42 24 54 16 85 -15 52 -43 73 -97 74 -53 0 -76 22 -57 53 12 18 78
28 121 18 38 -10 92 -65 104 -107 12 -38 12 -38 55 -32 32 4 53 0 87 -16 76
-37 101 -120 39 -129 -15 -2 -25 5 -36 26 -26 51 -95 58 -145 16 -55 -46 -49
-127 13 -168 102 -66 257 4 322 147 25 55 29 73 28 157 0 115 -24 184 -85 254
-35 40 -84 76 -103 76 -3 0 -14 -20 -24 -44 -20 -44 -76 -96 -105 -96 -9 0
-27 17 -41 38 -38 60 -62 76 -123 82 -38 3 -59 11 -67 23 -18 29 4 52 55 55
64 5 115 -14 160 -59 l40 -40 15 36 c19 46 11 92 -27 149 -89 133 -306 200
-494 151 -69 -19 -76 -23 -52 -37 43 -24 92 -77 113 -123 31 -66 33 -146 3
-176 -18 -18 -23 -19 -41 -7 -18 12 -21 25 -22 80 -1 58 -5 71 -32 105 -44 56
-115 88 -189 87 -67 -2 -109 -17 -173 -63 -54 -40 -124 -135 -148 -200 -10
-28 -21 -51 -24 -51 -4 0 -13 19 -21 42 -18 57 -78 146 -123 186 -125 110
-283 116 -378 15 -36 -38 -48 -73 -48 -143 0 -51 -3 -60 -21 -65 -13 -4 -28 0
-41 12 -17 15 -19 28 -16 90 3 60 8 79 34 115 16 23 48 56 71 73 23 16 42 33
42 37 3 30 -243 47 -329 23z m622 -331 c74 -47 115 -131 105 -215 -8 -64 -22
-89 -51 -89 -33 0 -50 23 -37 49 6 11 11 40 11 64 0 57 -32 105 -89 134 -62
31 -73 50 -45 77 19 20 55 13 106 -20z m522 20 c9 -8 16 -17 16 -19 0 -19 -19
-38 -54 -54 -22 -10 -52 -31 -66 -45 -23 -25 -25 -36 -25 -114 l0 -87 -28 -3
c-23 -3 -30 2 -42 32 -43 102 11 232 117 285 51 25 62 26 82 5z m-679 -226
c22 -11 48 -27 59 -36 58 -52 91 -172 54 -196 -26 -16 -52 4 -59 47 -15 96
-121 159 -208 125 -62 -25 -97 15 -51 57 42 38 132 40 205 3z m924 8 c31 -17
44 -38 35 -60 -9 -23 -30 -26 -73 -9 -89 35 -194 -27 -210 -124 -12 -75 -78
-70 -74 5 6 147 192 255 322 188z m-964 -276 c29 -13 83 -56 126 -99 84 -84
131 -166 151 -264 11 -50 10 -59 -4 -73 -29 -29 -54 -9 -67 54 -28 126 -120
250 -223 301 -67 34 -116 39 -152 16 -27 -18 -53 -11 -62 17 -6 21 18 55 51
69 35 15 127 4 180 -21z m1022 -2 c43 -44 12 -90 -42 -62 -42 22 -86 17 -153
-17 -104 -52 -196 -177 -222 -304 -12 -58 -37 -78 -67 -54 -35 29 16 183 96
289 90 119 199 183 304 177 46 -3 63 -9 84 -29z m-1100 -309 c35 -13 80 -55
100 -94 23 -43 20 -126 -5 -169 l-21 -36 36 0 c50 0 118 -35 150 -76 43 -57
45 -166 2 -179 -32 -10 -51 13 -44 54 12 77 -50 131 -151 131 -56 0 -65 3 -83
26 -12 15 -21 31 -21 35 0 5 18 28 40 50 34 35 40 48 40 85 0 53 -28 88 -85
106 -45 15 -58 44 -29 65 22 16 34 16 71 2z m1037 -5 c9 -8 16 -19 16 -24 0
-16 -31 -40 -52 -40 -11 0 -33 -14 -49 -31 -23 -25 -29 -40 -29 -76 0 -39 5
-50 35 -79 65 -61 36 -114 -63 -114 -102 0 -161 -51 -148 -128 8 -55 -24 -81
-58 -46 -20 20 -21 105 -2 142 30 58 103 102 171 102 l35 0 -20 33 c-22 36
-27 117 -9 164 20 54 92 111 141 113 9 0 24 -7 32 -16z m-1176 -247 c2 -20 -5
-36 -28 -59 -29 -28 -32 -37 -33 -99 -2 -57 -6 -74 -32 -111 -54 -76 -151
-113 -176 -66 -10 18 -8 24 11 40 12 10 30 18 40 18 40 0 90 71 90 129 0 26
-3 29 -50 34 -85 10 -139 56 -110 92 16 19 35 19 66 -1 39 -26 109 -14 148 25
38 39 70 38 74 -2z m1306 18 c9 -23 68 -55 103 -55 18 0 48 7 67 16 44 22 68
13 64 -23 -4 -35 -49 -62 -118 -70 l-52 -6 5 -43 c6 -58 39 -101 88 -116 48
-14 66 -40 43 -62 -8 -9 -25 -16 -37 -16 -36 0 -99 43 -131 88 -25 35 -31 55
-34 113 -4 61 -8 73 -33 99 -27 26 -38 68 -22 83 12 13 51 7 57 -8z"/>
</g>
</svg>
