<?xml version="1.0" standalone="no"?>
<!DOCTYPE svg PUBLIC "-//W3C//DTD SVG 20010904//EN"
 "http://www.w3.org/TR/2001/REC-SVG-20010904/DTD/svg10.dtd">
<svg version="1.0" xmlns="http://www.w3.org/2000/svg"
 width="300.000000pt" height="300.000000pt" viewBox="0 0 300.000000 300.000000"
 preserveAspectRatio="xMidYMid meet">
<metadata>
Created by potrace 1.10, written by Peter Selinger 2001-2011
</metadata>
<g transform="translate(0.000000,300.000000) scale(0.100000,-0.100000)"
fill="#000000" stroke="none">
<path d="M707 2705 c-144 -29 -256 -108 -299 -212 -18 -44 -30 -59 -62 -75
-159 -81 -254 -321 -201 -508 10 -35 16 -92 15 -155 -1 -161 40 -275 140 -388
28 -30 58 -78 69 -108 32 -85 103 -198 172 -273 124 -135 345 -323 629 -536
69 -51 171 -131 227 -177 56 -45 104 -83 107 -83 3 0 52 37 108 83 57 46 176
138 265 205 211 159 342 269 481 406 161 158 235 259 288 396 10 25 40 70 67
100 88 97 129 216 129 373 -1 59 5 113 13 137 36 103 24 246 -31 358 -31 64
-108 143 -163 168 -27 13 -43 27 -48 44 -38 152 -214 254 -438 254 -151 1
-297 -57 -438 -171 -108 -89 -139 -133 -201 -288 -31 -77 -56 -146 -56 -154 0
-14 35 -63 153 -209 l58 -74 -80 -149 c-45 -82 -81 -154 -81 -160 0 -6 25 -54
55 -106 30 -53 55 -101 55 -107 0 -10 -159 -256 -166 -256 -4 0 21 65 69 176
l35 80 -69 95 c-37 52 -68 102 -69 112 0 9 29 76 65 147 36 71 65 138 65 149
0 11 -49 77 -110 148 -60 70 -110 133 -110 138 0 6 20 68 45 140 25 71 45 133
45 138 0 15 -113 128 -190 190 -91 73 -208 130 -312 151 -91 19 -139 19 -231
1z m257 -54 l28 -11 -47 -42 c-57 -50 -84 -106 -85 -169 0 -58 28 -101 53 -81
13 11 13 16 0 43 -29 58 18 163 90 198 50 24 86 18 157 -27 64 -41 218 -180
225 -203 4 -11 1 -35 -5 -53 l-11 -34 -52 53 c-51 52 -92 73 -122 61 -25 -9
-17 -25 22 -41 68 -29 113 -86 113 -144 0 -17 -9 -52 -19 -79 l-20 -49 114
-129 c63 -71 114 -136 115 -146 0 -9 -29 -78 -65 -153 -36 -76 -65 -141 -65
-146 0 -5 30 -53 66 -106 56 -82 65 -101 60 -127 -3 -17 -35 -95 -70 -173
l-64 -143 46 -68 c77 -113 88 -126 101 -118 12 8 3 26 -58 127 l-22 37 121
180 c66 99 120 186 120 193 0 6 -22 46 -49 88 -76 120 -75 115 -50 163 12 24
50 91 86 150 57 96 63 110 52 130 -7 13 -54 73 -105 134 -52 61 -94 120 -94
130 0 11 23 78 52 149 50 124 55 133 128 205 91 92 189 155 242 155 90 0 170
-124 138 -213 -9 -26 -9 -37 0 -45 22 -23 50 28 50 92 0 69 -37 135 -94 170
-20 13 -36 26 -36 31 0 15 143 33 220 27 185 -13 340 -125 340 -247 0 -64 -16
-77 -48 -38 -57 68 -192 94 -192 37 0 -16 8 -19 46 -19 58 0 101 -25 125 -72
12 -24 27 -38 38 -38 20 0 61 43 61 64 0 6 4 17 9 25 7 12 15 10 42 -7 121
-75 188 -218 176 -374 -12 -154 -87 -238 -212 -238 -47 1 -112 35 -129 69 -27
51 -21 98 18 137 54 54 129 46 161 -16 19 -37 45 -40 45 -6 0 58 -88 114 -158
100 -27 -6 -32 -3 -47 30 -34 71 -130 127 -192 111 -42 -10 -25 -39 27 -45 56
-7 83 -22 109 -59 27 -38 27 -74 -1 -112 -16 -22 -22 -44 -22 -82 0 -63 25
-105 85 -143 34 -21 38 -28 33 -52 -9 -40 -36 -82 -65 -104 -44 -33 -102 -25
-171 24 -14 10 -20 10 -29 1 -26 -26 71 -92 134 -93 68 0 143 66 167 146 12
40 14 42 64 48 28 4 75 21 105 38 l54 30 -6 -79 c-7 -97 -41 -194 -92 -263
-42 -57 -115 -119 -164 -139 -20 -9 -31 -20 -31 -33 0 -21 19 -22 63 -3 17 7
18 6 3 -30 -44 -105 -211 -304 -281 -336 -76 -35 -158 -18 -223 44 -46 44 -62
78 -62 132 0 52 -24 63 -40 19 -11 -29 -5 -63 22 -116 l18 -38 -57 0 c-106 0
-173 -58 -173 -150 0 -47 0 -48 -37 -55 -91 -17 -143 -76 -143 -165 0 -64 34
-126 75 -136 46 -12 62 19 19 38 -47 21 -68 96 -43 150 16 35 70 68 112 68 23
0 52 -10 75 -25 20 -13 52 -27 70 -31 27 -5 32 -4 32 12 0 13 -14 25 -45 38
-56 22 -80 62 -72 118 10 72 69 107 155 92 26 -4 54 -6 63 -5 8 1 40 -10 70
-24 30 -13 72 -25 93 -25 l39 0 -19 -21 c-33 -37 -203 -177 -344 -282 -74 -56
-187 -143 -251 -194 -64 -51 -120 -93 -124 -93 -7 0 -73 52 -174 137 l-34 29
36 22 c68 39 91 106 66 183 -18 54 -58 89 -120 106 l-55 15 0 49 c0 88 -68
149 -166 149 -33 0 -58 3 -56 8 31 71 40 105 34 137 -5 26 -12 35 -26 35 -16
0 -19 -7 -18 -44 1 -88 -81 -181 -170 -193 -83 -11 -123 10 -230 121 -72 75
-109 123 -137 178 -41 79 -42 98 -5 78 12 -6 28 -9 36 -6 27 10 14 35 -31 55
-91 40 -186 153 -225 267 -22 63 -39 209 -24 203 5 -2 32 -16 60 -31 28 -15
74 -30 102 -34 48 -6 50 -8 56 -43 14 -86 106 -159 187 -148 42 6 105 42 114
66 8 20 -12 38 -29 26 -55 -40 -71 -48 -105 -48 -48 0 -93 30 -115 77 -18 38
-21 86 -6 86 16 0 80 61 96 91 22 44 18 110 -11 153 -30 44 -30 48 -9 92 20
41 77 74 128 74 39 0 53 14 36 35 -24 29 -114 11 -161 -32 -15 -13 -35 -42
-45 -64 -18 -39 -20 -40 -57 -34 -57 8 -123 -24 -143 -70 -8 -20 -12 -40 -9
-45 11 -18 35 -10 45 14 32 84 163 68 191 -23 10 -34 9 -44 -7 -77 -58 -119
-250 -107 -317 19 -19 37 -22 58 -22 162 0 115 1 123 32 186 23 46 52 85 94
123 66 62 84 68 93 33 8 -35 45 -77 67 -77 12 0 24 12 33 35 20 46 69 75 129
75 39 0 47 3 47 19 0 57 -135 31 -193 -38 -31 -37 -44 -34 -53 14 -5 27 0 48
20 90 39 78 121 137 239 170 59 17 223 14 271 -4z m150 -1765 c44 -18 66 -52
66 -101 0 -52 -22 -82 -76 -105 -45 -20 -55 -36 -28 -47 17 -6 88 23 105 44 6
7 30 13 54 13 58 0 106 -34 125 -87 13 -38 12 -46 -3 -78 -11 -24 -31 -42 -61
-57 l-45 -21 -78 58 c-125 94 -356 280 -382 309 l-24 26 42 0 c25 0 62 10 92
26 28 14 57 23 64 20 7 -2 26 -1 42 4 42 12 70 12 107 -4z"/>
<path d="M1744 2271 c-57 -35 -120 -128 -100 -148 4 -4 28 17 53 46 26 30 62
60 81 68 22 9 32 19 30 31 -5 24 -28 25 -64 3z"/>
<path d="M948 2164 c-16 -8 -28 -22 -28 -30 0 -13 6 -15 28 -10 81 19 101 18
147 -4 54 -26 89 -69 104 -127 11 -40 32 -56 46 -34 8 14 -19 87 -50 131 -52
75 -177 112 -247 74z"/>
<path d="M1881 2154 c-74 -37 -145 -143 -127 -189 10 -26 25 -16 37 25 17 56
71 115 124 135 42 17 70 16 138 -1 25 -6 28 -4 25 12 -9 49 -115 59 -197 18z"/>
<path d="M913 1913 c-26 -5 -47 -28 -39 -42 4 -5 30 -7 60 -4 68 7 136 -15
209 -68 63 -45 111 -111 147 -208 16 -39 32 -66 40 -66 40 0 -16 157 -86 242
-81 99 -232 165 -331 146z"/>
<path d="M1970 1911 c-45 -14 -94 -43 -127 -74 -55 -52 -38 -80 19 -32 72 61
134 77 238 63 34 -4 38 25 5 40 -29 13 -96 14 -135 3z"/>
<path d="M940 1585 c0 -9 8 -18 18 -21 80 -25 122 -70 122 -132 0 -43 -32
-104 -65 -126 -41 -27 -26 -41 46 -41 116 -1 185 -56 182 -146 -1 -42 2 -49
18 -49 37 0 38 100 1 150 -27 36 -79 69 -129 82 -24 6 -43 12 -43 13 0 1 7 19
15 38 37 88 2 192 -77 233 -37 19 -88 18 -88 -1z"/>
<path d="M1963 1579 c-68 -44 -98 -137 -69 -218 9 -24 16 -45 16 -47 0 -2 -19
-8 -42 -15 -100 -26 -152 -89 -146 -177 2 -39 6 -47 23 -47 17 0 19 6 17 42
-7 87 68 147 182 148 67 0 81 14 41 41 -37 24 -55 65 -55 123 0 42 5 56 30 85
18 19 45 38 63 42 33 7 50 22 41 36 -10 15 -69 8 -101 -13z"/>
<path d="M805 1349 c-33 -35 -82 -59 -118 -59 -13 0 -41 12 -62 26 -40 27 -69
25 -63 -3 5 -27 68 -58 128 -63 l55 -5 3 -58 c3 -55 1 -60 -31 -92 -19 -19
-42 -35 -50 -35 -25 0 -40 -25 -23 -39 36 -30 139 57 152 128 4 18 2 53 -3 76
-10 42 -9 44 29 80 37 34 46 64 23 72 -6 2 -24 -11 -40 -28z"/>
<path d="M2146 1364 c-4 -11 7 -29 31 -54 38 -37 38 -38 38 -116 0 -69 3 -83
25 -112 29 -39 68 -62 105 -62 38 0 29 31 -12 42 -59 15 -96 95 -77 166 5 19
13 22 52 22 50 0 127 32 136 56 12 32 -21 47 -44 20 -18 -23 -78 -39 -116 -31
-22 4 -50 21 -75 46 -43 43 -54 47 -63 23z"/>
</g>
</svg>
