<?xml version="1.0" standalone="no"?>
<!DOCTYPE svg PUBLIC "-//W3C//DTD SVG 20010904//EN"
 "http://www.w3.org/TR/2001/REC-SVG-20010904/DTD/svg10.dtd">
<svg version="1.0" xmlns="http://www.w3.org/2000/svg"
 width="300.000000pt" height="300.000000pt" viewBox="0 0 300.000000 300.000000"
 preserveAspectRatio="xMidYMid meet">
<metadata>
Created by potrace 1.10, written by Peter Selinger 2001-2011
</metadata>
<g transform="translate(0.000000,300.000000) scale(0.100000,-0.100000)"
fill="#000000" stroke="none">
<path d="M2125 2803 c-234 -29 -454 -141 -568 -288 -53 -69 -74 -71 -107 -9
-37 71 -102 137 -172 174 -108 58 -224 43 -300 -37 -36 -38 -48 -73 -48 -143
0 -51 -3 -60 -21 -65 -13 -4 -28 0 -41 12 -17 15 -19 28 -16 90 3 60 8 79 34
115 16 23 48 56 71 73 23 16 42 33 42 37 2 18 -92 33 -199 32 -132 0 -191 -18
-274 -81 -77 -59 -111 -114 -111 -177 0 -30 6 -60 13 -69 13 -15 17 -13 47 18
18 19 48 42 68 50 48 20 121 19 141 -1 19 -18 19 -20 6 -45 -8 -14 -21 -19
-56 -19 -59 0 -94 -21 -127 -76 -17 -29 -34 -44 -47 -44 -29 0 -97 65 -110
106 -6 19 -15 34 -19 34 -12 0 -82 -53 -108 -81 -70 -76 -103 -246 -70 -360
44 -151 178 -246 297 -210 127 38 116 211 -13 211 -40 0 -49 -4 -74 -36 -23
-29 -34 -35 -51 -30 -31 10 -29 56 3 95 32 37 85 55 140 48 41 -6 43 -5 48 22
7 35 50 87 88 106 55 29 149 13 149 -25 0 -20 -32 -40 -56 -34 -78 20 -144
-82 -98 -151 45 -69 34 -165 -27 -226 -21 -21 -46 -39 -55 -39 -14 0 -15 -7
-11 -37 13 -78 96 -114 173 -75 28 14 45 17 57 11 63 -36 -59 -122 -146 -104
-78 17 -136 73 -161 157 -3 10 -18 20 -33 23 -85 18 -120 32 -159 61 -41 32
-42 32 -48 11 -10 -39 -6 -122 9 -180 39 -150 127 -242 273 -287 52 -16 57
-20 57 -46 0 -25 -4 -29 -31 -32 -18 -2 -49 4 -69 12 l-37 16 7 -33 c14 -66
67 -159 125 -218 97 -99 214 -137 324 -105 78 23 137 81 157 156 17 61 38 81
63 61 21 -18 20 -67 -4 -118 l-19 -43 35 0 c50 0 95 -22 131 -63 30 -35 52
-105 38 -127 -3 -6 4 -10 17 -10 67 -1 161 -79 174 -145 9 -48 -1 -104 -24
-135 -45 -60 -133 -90 -162 -55 -15 18 -7 43 17 51 58 19 76 30 90 57 31 60
-15 134 -95 152 -26 5 -41 1 -79 -24 -55 -36 -107 -49 -129 -31 -26 23 -13 52
31 67 22 7 50 25 63 39 48 55 13 143 -58 145 -57 3 -132 -12 -178 -33 -24 -11
-72 -23 -108 -26 -35 -2 -64 -8 -64 -11 0 -11 60 -103 97 -148 42 -51 146
-130 268 -204 67 -40 126 -90 234 -196 80 -79 153 -143 161 -143 9 0 40 29 68
64 88 108 212 207 398 319 183 110 299 220 347 327 11 25 23 51 26 59 4 8 24
20 44 27 41 14 129 77 168 120 66 74 119 178 139 274 12 57 19 71 64 115 100
97 142 216 134 373 -4 74 -2 104 10 131 11 26 16 69 16 151 1 108 -1 119 -30
180 -41 86 -108 159 -178 193 -33 16 -56 34 -56 43 0 58 -94 160 -189 206 -92
44 -221 64 -326 51z m285 -90 c112 -51 170 -118 170 -196 0 -66 -7 -70 -54
-32 -23 18 -54 39 -69 44 -41 16 -102 13 -117 -4 -19 -23 3 -42 50 -42 48 0
104 -35 121 -75 23 -55 85 -40 119 29 l15 31 36 -18 c49 -26 116 -102 146
-166 52 -113 39 -273 -29 -349 -41 -47 -86 -65 -165 -65 -77 0 -115 19 -139
68 -20 43 -11 81 27 118 24 23 39 29 76 29 40 0 49 -4 78 -39 51 -61 91 -30
44 35 -31 44 -73 62 -133 57 l-51 -4 -23 47 c-28 57 -72 88 -139 96 -37 4 -52
2 -62 -10 -15 -19 -7 -37 17 -37 37 0 91 -22 116 -46 33 -34 33 -66 0 -137
-22 -49 -24 -61 -14 -95 13 -52 43 -88 92 -113 37 -19 40 -23 34 -52 -19 -95
-132 -150 -199 -97 -14 11 -35 20 -47 20 -33 0 -22 -40 19 -67 97 -65 258 10
278 129 5 35 7 36 60 42 54 6 125 36 139 57 11 18 24 -11 24 -57 0 -171 -91
-315 -247 -390 -71 -34 -89 -56 -58 -68 8 -3 33 1 56 9 23 9 44 14 46 12 8 -9
-39 -136 -68 -181 -42 -67 -127 -149 -184 -176 -57 -28 -166 -38 -219 -20 -41
13 -100 60 -119 94 -6 11 -14 43 -17 71 -4 37 -10 51 -22 53 -39 7 -40 -74 -3
-161 6 -15 1 -17 -41 -17 -101 -1 -184 -66 -184 -145 0 -46 0 -45 -62 -59 -40
-9 -116 -90 -124 -132 -12 -62 2 -106 45 -147 31 -28 48 -37 76 -37 28 0 35 4
35 19 0 13 -11 23 -35 31 -98 32 -101 156 -5 205 38 20 94 19 111 -1 20 -25
65 -44 104 -44 28 0 35 4 35 20 0 14 -11 22 -39 30 -66 17 -101 76 -81 135 19
56 62 76 156 71 44 -2 97 -12 119 -21 22 -10 68 -20 103 -23 58 -4 62 -6 56
-26 -12 -41 -65 -114 -122 -168 -55 -53 -108 -90 -281 -197 -107 -67 -201
-142 -290 -232 l-71 -72 0 1035 0 1035 37 66 c66 119 168 215 300 281 97 49
184 29 241 -54 21 -31 23 -43 19 -103 -5 -55 -3 -69 9 -74 30 -11 49 24 49 90
-1 73 -16 105 -76 164 -43 43 -43 45 6 57 11 3 74 4 140 2 109 -2 126 -5 185
-33z m-1118 -259 c74 -47 115 -131 105 -215 -8 -64 -22 -89 -51 -89 -33 0 -50
23 -37 49 6 11 11 40 11 64 0 57 -32 105 -89 134 -62 31 -73 50 -45 77 19 20
55 13 106 -20z m-157 -206 c22 -11 48 -27 59 -36 58 -52 91 -172 54 -196 -26
-16 -52 4 -59 47 -15 96 -121 159 -208 125 -62 -25 -97 15 -51 57 42 38 132
40 205 3z m-45 -266 c133 -65 251 -218 282 -365 11 -50 10 -59 -4 -73 -29 -29
-54 -9 -67 54 -28 126 -120 250 -223 301 -67 34 -116 39 -152 16 -27 -18 -53
-11 -62 17 -6 21 18 55 51 69 33 15 127 5 175 -19z m-73 -313 c35 -13 80 -55
100 -94 23 -43 20 -126 -5 -169 l-21 -36 36 0 c50 0 118 -35 150 -76 43 -57
45 -166 2 -179 -32 -10 -51 13 -44 54 7 45 -10 78 -54 108 -28 19 -47 23 -95
22 -53 -2 -62 1 -83 25 -13 15 -23 31 -23 37 0 5 18 28 40 50 34 35 40 48 40
85 0 53 -28 88 -85 106 -45 15 -58 44 -29 65 22 16 34 16 71 2z m-139 -252 c2
-20 -5 -36 -28 -59 -29 -28 -32 -37 -33 -99 -2 -57 -6 -74 -32 -111 -54 -76
-151 -113 -176 -66 -10 18 -8 24 11 40 12 10 30 18 40 18 40 0 90 71 90 129 0
26 -3 29 -50 34 -85 10 -139 56 -110 92 16 19 35 19 66 -1 39 -26 109 -14 148
25 38 39 70 38 74 -2z"/>
<path d="M1723 2453 c-92 -63 -128 -145 -102 -230 13 -41 19 -48 43 -51 27 -3
28 -2 22 25 -14 55 -18 93 -12 116 8 33 65 87 114 108 31 14 43 24 40 36 -5
30 -58 28 -105 -4z"/>
<path d="M1893 2259 c-86 -33 -171 -149 -149 -204 10 -26 50 -15 54 15 8 69
52 117 134 146 35 12 52 13 90 4 26 -7 52 -9 58 -5 20 13 9 36 -25 51 -46 19
-100 17 -162 -7z"/>
<path d="M1930 1994 c-82 -38 -151 -95 -207 -169 -80 -106 -119 -250 -69 -250
15 0 23 14 35 60 34 124 126 242 234 301 54 29 136 38 185 21 33 -12 43 20 13
45 -35 28 -122 24 -191 -8z"/>
<path d="M1984 1695 c-41 -18 -92 -80 -104 -126 -10 -37 -3 -74 24 -127 l16
-31 -42 -11 c-104 -26 -155 -68 -173 -143 -10 -38 2 -94 22 -101 25 -10 42 11
34 42 -8 29 2 78 22 103 25 33 74 49 150 49 93 0 104 14 53 71 -48 52 -63 107
-45 156 11 29 26 43 69 66 33 17 55 35 55 45 0 22 -40 25 -81 7z"/>
<path d="M2156 1464 c-9 -22 17 -60 54 -79 31 -16 37 -29 20 -40 -17 -11 -11
-108 9 -145 20 -38 111 -93 136 -83 28 10 15 38 -25 55 -45 19 -80 68 -80 115
0 54 8 63 59 64 56 1 111 19 125 42 17 27 -11 39 -47 20 -34 -17 -100 -19
-139 -4 -15 6 -42 24 -59 41 -37 34 -44 36 -53 14z"/>
</g>
</svg>
