<?xml version="1.0" standalone="no"?>
<!DOCTYPE svg PUBLIC "-//W3C//DTD SVG 20010904//EN"
 "http://www.w3.org/TR/2001/REC-SVG-20010904/DTD/svg10.dtd">
<svg version="1.0" xmlns="http://www.w3.org/2000/svg"
 width="231.000000pt" height="204.000000pt" viewBox="0 0 231.000000 204.000000"
 preserveAspectRatio="xMidYMid meet">
<metadata>
Created by potrace 1.10, written by Peter Selinger 2001-2011
</metadata>
<g transform="translate(0.000000,204.000000) scale(0.100000,-0.100000)"
fill="#000000" stroke="none">
<path d="M1070 2019 c-41 -5 -151 -21 -245 -36 l-170 -26 250 -53 250 -53 252
52 c138 28 251 53 249 54 -4 5 -475 73 -493 72 -10 -1 -52 -5 -93 -10z"/>
<path d="M475 1883 c4 -10 52 -137 107 -283 55 -146 104 -271 107 -278 5 -9
71 65 198 220 105 128 191 234 190 235 -4 3 -584 123 -597 123 -8 0 -10 -6 -5
-17z"/>
<path d="M1535 1840 c-148 -33 -275 -60 -282 -62 -8 -2 309 -393 366 -451 4
-4 49 102 101 235 51 134 101 264 111 291 l19 47 -23 -1 c-12 -1 -143 -27
-292 -59z"/>
<path d="M209 1662 c-92 -114 -166 -208 -164 -210 3 -4 559 -171 561 -169 4 5
-220 587 -225 587 -3 0 -81 -94 -172 -208z"/>
<path d="M1912 1818 c-11 -29 -61 -160 -111 -292 -51 -131 -90 -240 -88 -243
5 -4 529 153 554 166 10 6 -313 420 -329 421 -4 0 -15 -24 -26 -52z"/>
<path d="M970 1503 c-102 -124 -186 -230 -188 -235 -2 -4 170 -8 382 -8 212 0
386 2 386 5 0 8 -383 465 -390 465 -3 0 -88 -102 -190 -227z"/>
<path d="M97 1328 c6 -7 223 -292 483 -633 259 -341 479 -627 487 -635 13 -13
13 -12 4 10 -6 14 -103 268 -216 564 -113 297 -206 540 -208 542 -4 4 -542
164 -551 164 -5 0 -4 -6 1 -12z"/>
<path d="M1937 1255 c-148 -46 -270 -84 -272 -86 -3 -3 -339 -875 -412 -1069
-15 -41 -19 -59 -10 -50 8 8 229 296 492 640 263 344 482 631 487 638 16 19 0
15 -285 -73z"/>
<path d="M750 1164 c0 -4 86 -234 191 -513 106 -278 196 -517 201 -531 8 -20
11 -22 18 -10 4 8 89 226 188 485 99 259 190 494 201 523 l21 52 -410 0 c-226
0 -410 -3 -410 -6z"/>
</g>
</svg>
