<?xml version="1.0" standalone="no"?>
<!DOCTYPE svg PUBLIC "-//W3C//DTD SVG 20010904//EN"
 "http://www.w3.org/TR/2001/REC-SVG-20010904/DTD/svg10.dtd">
<svg version="1.0" xmlns="http://www.w3.org/2000/svg"
 width="300.000000pt" height="300.000000pt" viewBox="0 0 300.000000 300.000000"
 preserveAspectRatio="xMidYMid meet">
<metadata>
Created by potrace 1.10, written by Peter Selinger 2001-2011
</metadata>
<g transform="translate(0.000000,300.000000) scale(0.100000,-0.100000)"
fill="#000000" stroke="none">
<path d="M1220 2670 c-25 -12 -59 -35 -77 -52 l-32 -31 -41 17 c-53 21 -115
20 -165 -3 -52 -24 -82 -57 -104 -117 l-19 -48 -73 -18 c-137 -33 -264 -109
-478 -287 -129 -106 -135 -128 -69 -227 75 -111 267 -223 463 -270 70 -16 118
-34 133 -47 27 -25 104 -181 166 -338 37 -94 46 -128 46 -178 0 -84 -10 -101
-61 -101 -80 0 -146 -58 -138 -120 4 -23 8 -25 69 -28 36 -1 114 1 174 5 l110
8 54 65 c30 36 73 88 97 115 l42 50 67 -33 c78 -38 101 -39 156 -11 22 12 40
22 40 23 0 0 -9 30 -20 64 -64 205 37 435 214 487 44 13 52 13 73 0 41 -28 30
-53 -39 -84 -119 -54 -172 -140 -173 -281 0 -76 3 -92 32 -150 18 -36 40 -75
49 -88 l16 -22 -56 0 c-31 0 -72 -6 -91 -14 -37 -16 -75 -67 -75 -102 0 -19 8
-22 68 -27 88 -9 553 -9 661 0 l83 6 88 84 88 83 55 -20 c94 -35 187 -136 187
-202 0 -62 -71 -126 -180 -163 -171 -58 -504 -75 -814 -41 -372 40 -617 4
-799 -117 -88 -59 -105 -108 -50 -144 18 -12 30 -9 107 32 118 62 212 91 338
106 107 12 196 9 488 -21 221 -23 548 -6 717 36 312 77 425 304 253 512 -38
46 -125 110 -186 138 l-52 23 5 143 c5 123 2 155 -16 233 -55 231 -202 416
-408 511 -196 92 -432 86 -620 -16 -41 -22 -82 -40 -91 -40 -24 0 -142 57
-142 68 0 5 18 12 41 16 63 10 130 46 181 98 122 125 124 341 3 460 -53 52
-99 72 -180 75 -55 3 -80 -1 -115 -17z m170 -139 c51 -27 83 -92 78 -158 -6
-73 -42 -124 -113 -158 -53 -26 -61 -27 -147 -21 -103 8 -108 10 -108 36 0 26
87 223 113 256 48 62 114 79 177 45z m-708 -305 c59 -44 29 -146 -43 -146 -40
0 -79 40 -79 80 0 61 76 102 122 66z"/>
</g>
</svg>
