<?xml version="1.0" standalone="no"?>
<!DOCTYPE svg PUBLIC "-//W3C//DTD SVG 20010904//EN"
 "http://www.w3.org/TR/2001/REC-SVG-20010904/DTD/svg10.dtd">
<svg version="1.0" xmlns="http://www.w3.org/2000/svg"
 width="300.000000pt" height="300.000000pt" viewBox="0 0 300.000000 300.000000"
 preserveAspectRatio="xMidYMid meet">
<metadata>
Created by potrace 1.10, written by Peter Selinger 2001-2011
</metadata>
<g transform="translate(0.000000,300.000000) scale(0.100000,-0.100000)"
fill="#000000" stroke="none">
<path d="M608 2786 c-101 -36 -220 -110 -277 -172 -211 -231 -72 -696 255
-851 39 -19 87 -36 107 -40 l35 -5 112 166 111 167 -21 85 c-20 77 -21 100
-14 273 6 174 5 193 -14 257 -21 69 -50 108 -99 133 -36 18 -123 12 -195 -13z"/>
<path d="M2180 2788 c-87 -59 -105 -132 -96 -381 6 -163 5 -185 -15 -267 l-22
-90 111 -163 110 -162 39 2 c21 2 72 19 113 39 100 49 220 168 273 271 116
223 97 469 -48 602 -93 85 -256 162 -360 168 -61 4 -74 2 -105 -19z"/>
<path d="M986 2388 c-6 -138 1 -238 18 -255 3 -3 27 14 53 38 27 24 63 55 81
69 l33 25 -81 130 c-45 72 -85 134 -89 138 -5 5 -11 -61 -15 -145z"/>
<path d="M1979 2505 c-52 -81 -149 -236 -149 -239 0 -2 19 -16 41 -31 23 -15
61 -45 85 -67 36 -33 43 -36 48 -21 12 42 15 156 8 273 l-7 125 -26 -40z"/>
<path d="M1290 2231 c-78 -25 -128 -53 -182 -100 -53 -47 -354 -488 -400 -587
-89 -191 -43 -429 114 -586 67 -67 67 -68 40 -74 -163 -36 -312 -89 -389 -137
-99 -63 -134 -112 -101 -145 21 -21 45 -13 112 37 98 74 260 131 476 165 l95
16 17 -23 c10 -12 18 -24 18 -27 0 -3 -37 -33 -82 -67 -229 -168 -373 -328
-398 -440 -10 -43 12 -75 48 -71 22 2 30 11 42 48 23 70 50 107 152 206 95 93
181 163 302 249 57 40 71 46 85 36 63 -46 120 -55 163 -27 14 10 13 17 -19 68
-26 41 -34 64 -29 81 13 53 61 43 100 -21 l28 -46 36 57 c29 48 40 57 64 57
20 0 32 -7 40 -25 9 -21 6 -32 -31 -91 -24 -38 -38 -71 -33 -76 35 -35 121
-22 172 27 l29 27 88 -63 c129 -93 248 -195 336 -287 70 -74 92 -108 126 -195
7 -19 18 -27 34 -27 53 0 62 56 22 136 -49 97 -183 233 -375 382 -47 36 -89
69 -94 73 -16 14 15 39 46 39 51 0 278 -49 373 -81 98 -33 158 -64 222 -115
45 -37 73 -43 93 -18 32 38 -37 110 -164 172 -72 35 -226 85 -313 102 l-61 12
71 72 c77 76 124 154 152 250 25 85 17 230 -16 312 -37 89 -350 555 -407 605
-54 48 -115 80 -191 103 -79 23 -335 22 -411 -3z m-70 -771 c18 -18 20 -33 20
-129 0 -119 -9 -141 -55 -141 -36 0 -45 28 -45 144 0 93 3 109 20 126 11 11
25 20 30 20 6 0 19 -9 30 -20z m631 -12 c6 -12 9 -65 7 -129 -3 -116 -8 -129
-55 -129 -34 0 -43 30 -43 144 0 91 3 109 19 125 23 23 57 18 72 -11z"/>
</g>
</svg>
