<?xml version="1.0" standalone="no"?>
<!DOCTYPE svg PUBLIC "-//W3C//DTD SVG 20010904//EN"
 "http://www.w3.org/TR/2001/REC-SVG-20010904/DTD/svg10.dtd">
<svg version="1.0" xmlns="http://www.w3.org/2000/svg"
 width="189.000000pt" height="202.000000pt" viewBox="0 0 189.000000 202.000000"
 preserveAspectRatio="xMidYMid meet">
<metadata>
Created by potrace 1.10, written by Peter Selinger 2001-2011
</metadata>
<g transform="translate(0.000000,202.000000) scale(0.100000,-0.100000)"
fill="#000000" stroke="none">
<path d="M847 1970 c-45 -14 -254 -130 -273 -151 -22 -24 -9 -68 23 -80 23 -8
24 -8 176 75 104 57 151 70 210 56 37 -8 550 -285 661 -357 32 -21 36 -27 25
-38 -19 -17 -717 -405 -729 -405 -9 0 -656 357 -719 397 -31 20 -27 23 122
108 106 61 122 74 125 98 4 35 -13 57 -45 57 -32 0 -248 -123 -296 -169 -21
-20 -51 -58 -65 -86 l-27 -50 0 -415 0 -415 27 -50 c14 -27 44 -67 65 -87 42
-41 664 -392 722 -408 46 -13 136 -13 182 0 58 16 680 367 722 408 66 64 90
122 95 234 2 54 1 109 -2 123 -7 29 -44 42 -74 26 -16 -9 -20 -25 -25 -109 -5
-108 -20 -152 -65 -195 -22 -21 -323 -197 -422 -246 -23 -12 -23 -11 3 11 86
71 3 206 -100 163 -38 -16 -53 -42 -53 -93 0 -48 33 -82 87 -91 l38 -6 -104
-57 c-57 -32 -112 -60 -122 -63 -19 -6 -19 5 -17 405 l3 412 370 207 c419 235
382 226 384 89 1 -68 4 -79 22 -88 31 -17 68 -4 75 25 3 14 4 69 2 123 -5 112
-29 171 -95 234 -21 20 -167 108 -324 196 -402 225 -380 215 -474 218 -44 2
-93 -1 -108 -6z m41 -1409 c1 -226 0 -411 -3 -411 -10 0 -62 28 -368 198 -328
182 -357 205 -376 294 -12 52 -16 663 -5 716 l6 30 372 -208 371 -207 3 -412z"/>
<path d="M233 1225 c-63 -27 -76 -110 -24 -157 48 -43 118 -32 147 23 21 42
17 75 -13 108 -34 36 -68 44 -110 26z"/>
<path d="M692 965 c-64 -28 -75 -114 -20 -160 34 -29 66 -32 108 -10 57 30 68
96 23 144 -35 36 -68 44 -111 26z"/>
<path d="M232 955 c-64 -28 -74 -115 -19 -161 26 -21 38 -25 70 -21 51 7 77
33 84 84 4 34 1 45 -23 71 -36 37 -69 45 -112 27z"/>
<path d="M232 705 c-38 -17 -63 -65 -55 -108 3 -15 19 -39 36 -53 26 -21 38
-25 70 -21 51 7 77 33 84 84 4 34 1 45 -23 71 -36 37 -69 45 -112 27z"/>
<path d="M693 685 c-63 -27 -76 -110 -24 -157 48 -43 118 -32 147 23 21 42 17
75 -13 108 -34 36 -68 44 -110 26z"/>
<path d="M693 435 c-38 -16 -55 -45 -55 -93 0 -28 7 -43 32 -65 28 -25 39 -28
74 -24 80 11 113 98 59 156 -34 36 -68 44 -110 26z"/>
<path d="M854 1816 c-28 -28 -34 -42 -34 -76 0 -58 50 -110 105 -110 55 0 105
52 105 110 0 58 -50 110 -105 110 -29 0 -45 -8 -71 -34z"/>
<path d="M1084 1701 c-59 -36 -68 -108 -19 -156 31 -32 68 -40 106 -24 33 13
69 61 69 92 0 31 -29 76 -60 92 -38 20 -58 19 -96 -4z"/>
<path d="M494 1601 c-59 -36 -68 -108 -19 -156 31 -32 68 -40 106 -24 33 13
69 61 69 92 0 31 -29 76 -60 92 -38 20 -58 19 -96 -4z"/>
<path d="M1284 1556 c-28 -28 -34 -42 -34 -76 0 -58 50 -110 105 -110 55 0
105 52 105 110 0 58 -50 110 -105 110 -29 0 -45 -8 -71 -34z"/>
<path d="M704 1451 c-59 -36 -68 -108 -19 -156 31 -32 68 -40 106 -24 33 13
69 61 69 92 0 31 -29 76 -60 92 -38 20 -58 19 -96 -4z"/>
<path d="M904 1321 c-59 -36 -68 -108 -19 -156 31 -32 68 -40 106 -24 33 13
69 61 69 92 0 31 -29 76 -60 92 -38 20 -58 19 -96 -4z"/>
<path d="M1593 1268 c-70 -18 -89 -111 -34 -160 90 -80 213 38 136 130 -28 34
-56 42 -102 30z"/>
<path d="M1762 1048 c-7 -7 -12 -24 -12 -38 0 -33 17 -50 50 -50 33 0 50 17
50 50 0 14 -5 31 -12 38 -15 15 -61 15 -76 0z"/>
<path d="M1138 1024 c-34 -18 -58 -62 -58 -105 0 -22 10 -41 34 -65 47 -47 95
-47 142 0 56 56 44 135 -26 171 -36 19 -57 18 -92 -1z"/>
<path d="M1592 1015 c-64 -28 -75 -114 -20 -160 91 -77 212 48 131 134 -35 36
-68 44 -111 26z"/>
<path d="M1593 765 c-63 -27 -76 -110 -24 -157 91 -81 217 43 134 131 -34 36
-68 44 -110 26z"/>
<path d="M1153 735 c-63 -27 -76 -110 -24 -157 48 -43 118 -32 147 23 21 42
17 75 -13 108 -34 36 -68 44 -110 26z"/>
</g>
</svg>
