<?xml version="1.0" standalone="no"?>
<!DOCTYPE svg PUBLIC "-//W3C//DTD SVG 20010904//EN"
 "http://www.w3.org/TR/2001/REC-SVG-20010904/DTD/svg10.dtd">
<svg version="1.0" xmlns="http://www.w3.org/2000/svg"
 width="189.000000pt" height="202.000000pt" viewBox="0 0 189.000000 202.000000"
 preserveAspectRatio="xMidYMid meet">
<metadata>
Created by potrace 1.10, written by Peter Selinger 2001-2011
</metadata>
<g transform="translate(0.000000,202.000000) scale(0.100000,-0.100000)"
fill="#000000" stroke="none">
<path d="M847 1970 c-45 -14 -254 -130 -273 -151 -22 -24 -9 -68 23 -80 23 -8
19 -10 187 81 86 46 106 53 155 53 66 0 53 6 416 -196 323 -179 331 -185 313
-202 -18 -17 -716 -405 -728 -405 -12 0 -710 388 -728 405 -16 14 2 29 100 83
l58 32 -20 -32 c-25 -41 -25 -65 -1 -104 22 -36 70 -59 107 -50 33 9 71 47 80
81 15 58 -54 133 -112 122 -32 -6 -30 -3 11 22 27 16 35 27 35 49 0 71 -42 68
-188 -14 -133 -75 -182 -117 -220 -189 l-27 -50 0 -415 0 -415 27 -50 c14 -27
44 -67 65 -87 42 -41 664 -392 722 -408 46 -13 136 -13 182 0 58 16 680 367
722 408 66 64 90 122 95 234 2 54 1 109 -2 123 -7 29 -44 42 -74 26 -16 -9
-20 -25 -25 -109 -5 -108 -20 -152 -65 -195 -27 -26 -630 -369 -672 -382 -20
-6 -20 -6 -18 405 l3 412 370 207 c419 235 382 226 384 89 1 -68 4 -79 22 -88
31 -17 68 -4 75 25 3 14 4 69 2 123 -5 112 -29 171 -95 234 -21 20 -167 108
-324 196 -402 225 -380 215 -474 218 -44 2 -93 -1 -108 -6z m41 -1409 c1 -226
0 -411 -3 -411 -11 0 -127 62 -390 209 -300 168 -336 196 -354 282 -12 53 -16
663 -5 717 l6 30 372 -208 371 -207 3 -412z"/>
<path d="M454 831 c-59 -36 -68 -108 -19 -156 31 -32 68 -40 106 -24 33 13 69
61 69 92 0 31 -29 76 -60 92 -38 20 -58 19 -96 -4z"/>
<path d="M894 1841 c-59 -36 -68 -108 -19 -156 31 -32 68 -40 106 -24 33 13
69 61 69 92 0 31 -29 76 -60 92 -38 20 -58 19 -96 -4z"/>
<path d="M884 1581 c-59 -36 -68 -108 -19 -156 31 -32 68 -40 106 -24 33 13
69 61 69 92 0 31 -29 76 -60 92 -38 20 -58 19 -96 -4z"/>
<path d="M1404 1581 c-59 -36 -68 -108 -19 -156 31 -32 68 -40 106 -24 33 13
69 61 69 92 0 31 -29 76 -60 92 -38 20 -58 19 -96 -4z"/>
<path d="M884 1301 c-59 -36 -68 -108 -19 -156 31 -32 68 -40 106 -24 33 13
69 61 69 92 0 31 -29 76 -60 92 -38 20 -58 19 -96 -4z"/>
<path d="M1544 1211 c-59 -36 -68 -108 -19 -156 31 -32 68 -40 106 -24 33 13
69 61 69 92 0 31 -29 76 -60 92 -38 20 -58 19 -96 -4z"/>
<path d="M1762 1048 c-7 -7 -12 -24 -12 -38 0 -33 17 -50 50 -50 33 0 50 17
50 50 0 14 -5 31 -12 38 -15 15 -61 15 -76 0z"/>
<path d="M1354 861 c-59 -36 -68 -108 -19 -156 31 -32 68 -40 106 -24 33 13
69 61 69 92 0 31 -29 76 -60 92 -38 20 -58 19 -96 -4z"/>
<path d="M1164 521 c-59 -36 -68 -108 -19 -156 31 -32 68 -40 106 -24 33 13
69 61 69 92 0 31 -29 76 -60 92 -38 20 -58 19 -96 -4z"/>
</g>
</svg>
