<?xml version="1.0" standalone="no"?>
<!DOCTYPE svg PUBLIC "-//W3C//DTD SVG 20010904//EN"
 "http://www.w3.org/TR/2001/REC-SVG-20010904/DTD/svg10.dtd">
<svg version="1.0" xmlns="http://www.w3.org/2000/svg"
 width="221.000000pt" height="247.000000pt" viewBox="0 0 221.000000 247.000000"
 preserveAspectRatio="xMidYMid meet">
<metadata>
Created by potrace 1.10, written by Peter Selinger 2001-2011
</metadata>
<g transform="translate(0.000000,247.000000) scale(0.100000,-0.100000)"
fill="#000000" stroke="none">
<path d="M162 2439 c-46 -14 -109 -80 -122 -128 -7 -27 -10 -365 -8 -1083 l3
-1043 24 -38 c13 -21 42 -50 64 -65 l41 -27 506 0 506 0 41 27 c22 15 51 44
64 65 l24 38 3 633 3 632 -147 0 -146 0 -51 -44 c-147 -124 -326 -148 -494
-66 -166 82 -267 276 -236 456 33 189 176 334 361 366 131 22 269 -19 374
-111 l46 -41 147 0 147 0 -4 153 c-3 147 -4 155 -30 194 -15 22 -44 51 -65 64
l-38 24 -490 2 c-292 1 -503 -2 -523 -8z m622 -1466 c96 -68 111 -210 31 -297
-22 -24 -24 -34 -27 -171 l-3 -145 -33 -32 c-28 -28 -39 -33 -82 -33 -43 0
-54 5 -82 33 l-33 32 -3 145 c-3 142 -4 145 -31 174 -28 30 -51 90 -51 132 0
77 64 167 132 188 56 17 137 6 182 -26z"/>
<path d="M625 921 c-44 -20 -70 -60 -70 -111 0 -43 5 -54 37 -87 l37 -38 3
-149 c3 -129 5 -150 21 -160 12 -8 22 -8 35 0 15 10 17 31 20 160 l3 149 37
38 c33 33 37 44 37 87 0 42 -5 54 -31 81 -33 33 -92 46 -129 30z"/>
<path d="M566 2074 c-65 -21 -112 -52 -164 -108 -67 -73 -86 -124 -86 -236 0
-112 19 -163 86 -236 117 -127 273 -157 425 -83 l68 34 -150 5 c-131 5 -156 9
-195 29 -61 32 -97 67 -128 126 -22 41 -26 63 -27 125 0 114 49 195 150 248
46 24 63 27 200 32 l150 5 -69 34 c-83 41 -181 51 -260 25z"/>
<path d="M602 1919 c-47 -14 -109 -80 -123 -131 -23 -89 12 -182 88 -229 l38
-24 726 0 725 0 41 27 c62 41 88 90 88 168 0 78 -26 127 -88 168 l-41 27 -710
2 c-431 1 -724 -2 -744 -8z"/>
</g>
</svg>
