<?xml version="1.0" standalone="no"?>
<!DOCTYPE svg PUBLIC "-//W3C//DTD SVG 20010904//EN"
 "http://www.w3.org/TR/2001/REC-SVG-20010904/DTD/svg10.dtd">
<svg version="1.0" xmlns="http://www.w3.org/2000/svg"
 width="197.000000pt" height="260.000000pt" viewBox="0 0 197.000000 260.000000"
 preserveAspectRatio="xMidYMid meet">
<metadata>
Created by potrace 1.10, written by Peter Selinger 2001-2011
</metadata>
<g transform="translate(0.000000,260.000000) scale(0.100000,-0.100000)"
fill="#000000" stroke="none">
<path d="M55 2555 l-25 -24 0 -1231 0 -1231 25 -24 c30 -31 65 -32 93 -2 l22
23 0 1187 0 1187 820 0 820 0 0 -1188 0 -1189 23 -21 c30 -29 62 -28 92 3 l25
24 0 1231 0 1231 -25 24 -24 25 -911 0 -911 0 -24 -25z"/>
<path d="M260 1200 l0 -1110 730 0 730 0 0 1110 0 1110 -730 0 -730 0 0 -1110z
m313 79 c54 -42 54 -146 0 -189 -70 -55 -167 20 -148 116 14 79 92 117 148 73z"/>
</g>
</svg>
