<?xml version="1.0" standalone="no"?>
<!DOCTYPE svg PUBLIC "-//W3C//DTD SVG 20010904//EN"
 "http://www.w3.org/TR/2001/REC-SVG-20010904/DTD/svg10.dtd">
<svg version="1.0" xmlns="http://www.w3.org/2000/svg"
 width="300.000000pt" height="300.000000pt" viewBox="0 0 300.000000 300.000000"
 preserveAspectRatio="xMidYMid meet">
<metadata>
Created by potrace 1.10, written by Peter Selinger 2001-2011
</metadata>
<g transform="translate(0.000000,300.000000) scale(0.100000,-0.100000)"
fill="#000000" stroke="none">
<path d="M10 2985 c-11 -13 -1 -76 54 -353 37 -185 71 -347 75 -358 9 -20 837
-729 865 -740 11 -4 151 147 180 194 6 10 -36 59 -143 166 -83 84 -151 158
-151 164 0 21 39 52 57 45 10 -3 83 -70 163 -150 l146 -144 93 111 93 110 -44
53 c-491 582 -654 770 -672 777 -21 9 -670 140 -692 140 -6 0 -17 -7 -24 -15z"/>
<path d="M2601 2930 c-312 -63 -335 -69 -361 -96 -16 -16 -333 -389 -704 -829
l-676 -800 70 -70 70 -70 518 518 c346 346 524 517 538 517 11 0 25 -5 32 -12
7 -7 12 -21 12 -32 0 -14 -171 -192 -517 -538 l-518 -518 71 -70 70 -71 823
696 c452 383 826 706 831 718 5 12 39 174 76 359 71 358 72 369 20 367 -11 -1
-171 -31 -355 -69z"/>
<path d="M1887 1323 l-78 -67 96 -95 95 -96 70 70 70 71 -75 89 c-41 50 -81
91 -88 92 -6 1 -47 -28 -90 -64z"/>
<path d="M520 1279 c-33 -13 -160 -139 -160 -159 0 -20 740 -760 760 -760 21
0 146 128 159 163 16 41 13 93 -5 130 -22 44 -570 594 -616 618 -40 20 -98 24
-138 8z"/>
<path d="M2345 1274 c-44 -23 -593 -572 -616 -616 -21 -41 -24 -92 -8 -135 13
-35 138 -163 159 -163 20 0 760 740 760 760 0 21 -128 146 -163 159 -40 15
-97 13 -132 -5z"/>
<path d="M1653 1124 c-43 -37 -79 -70 -80 -73 -1 -3 49 -48 110 -99 l111 -93
71 71 70 70 -95 95 c-52 52 -98 95 -101 95 -4 0 -42 -30 -86 -66z"/>
<path d="M440 615 c-128 -128 -133 -135 -115 -149 11 -9 23 -16 27 -16 16 0
79 -64 100 -101 12 -21 24 -39 27 -39 4 0 67 61 141 135 l135 135 -85 85 c-46
47 -87 85 -90 85 -3 0 -66 -61 -140 -135z"/>
<path d="M2330 665 l-85 -85 135 -135 c74 -74 137 -135 141 -135 3 0 15 18 27
39 21 37 84 101 100 101 4 0 16 7 27 16 18 14 13 21 -115 149 -74 74 -137 135
-140 135 -3 0 -44 -38 -90 -85z"/>
<path d="M115 383 c-126 -66 -153 -225 -55 -323 97 -97 258 -71 321 52 21 41
25 120 8 165 -14 38 -67 92 -106 109 -43 19 -131 17 -168 -3z"/>
<path d="M2715 386 c-38 -17 -90 -72 -104 -109 -17 -45 -13 -124 8 -165 63
-123 224 -149 321 -52 97 97 71 258 -52 321 -44 22 -128 25 -173 5z"/>
</g>
</svg>
