<?xml version="1.0" standalone="no"?>
<!DOCTYPE svg PUBLIC "-//W3C//DTD SVG 20010904//EN"
 "http://www.w3.org/TR/2001/REC-SVG-20010904/DTD/svg10.dtd">
<svg version="1.0" xmlns="http://www.w3.org/2000/svg"
 width="300.000000pt" height="247.000000pt" viewBox="0 0 300.000000 247.000000"
 preserveAspectRatio="xMidYMid meet">
<metadata>
Created by potrace 1.10, written by Peter Selinger 2001-2011
</metadata>
<g transform="translate(0.000000,247.000000) scale(0.100000,-0.100000)"
fill="#000000" stroke="none">
<path d="M668 2430 c-15 -4 -70 -32 -122 -61 -105 -58 -123 -81 -86 -111 22
-18 24 -17 124 36 119 63 144 70 196 56 37 -10 512 -269 538 -294 9 -9 -51
-47 -278 -174 -160 -89 -294 -162 -298 -162 -13 0 -576 318 -579 327 -2 5 44
36 102 68 101 57 106 61 103 90 -4 45 -36 44 -126 -6 -124 -67 -156 -93 -187
-151 l-30 -53 -3 -303 c-3 -262 -1 -310 14 -354 28 -84 74 -120 359 -278 258
-143 261 -145 331 -148 89 -5 91 -4 398 168 313 175 336 200 336 372 0 67 -3
79 -20 88 -14 8 -26 8 -40 0 -17 -9 -20 -21 -20 -73 0 -84 -14 -127 -52 -164
-34 -33 -512 -303 -535 -303 -11 0 -13 59 -11 322 l3 321 285 159 c157 88 290
160 295 161 6 1 12 -31 15 -72 5 -81 23 -107 57 -85 14 9 19 28 21 93 2 70 -1
90 -21 135 -14 29 -41 66 -60 82 -43 34 -509 296 -557 312 -37 13 -111 14
-152 2z m-185 -665 l216 -120 1 -322 c0 -234 -3 -323 -11 -323 -15 0 -473 255
-517 287 -61 46 -62 51 -62 383 l0 301 78 -43 c43 -24 176 -97 295 -163z"/>
<path d="M501 1604 c-76 -63 0 -175 87 -130 35 18 51 70 33 105 -11 20 -59 51
-80 51 -5 0 -23 -12 -40 -26z"/>
<path d="M156 1449 c-34 -40 -33 -64 3 -100 39 -38 84 -39 123 -2 56 53 20
133 -61 133 -32 0 -44 -6 -65 -31z"/>
<path d="M719 2135 c-14 -8 -32 -28 -39 -46 -11 -26 -11 -35 2 -56 8 -14 27
-33 41 -41 55 -34 132 37 106 99 -10 27 -54 60 -76 59 -4 -1 -20 -7 -34 -15z"/>
<path d="M1211 1824 c-50 -42 -40 -109 19 -134 54 -22 110 19 110 81 0 25 -55
79 -80 79 -10 0 -32 -12 -49 -26z"/>
<path d="M1384 1696 c-9 -23 -1 -48 19 -60 25 -16 52 4 52 40 0 25 -4 29 -33
32 -22 2 -34 -2 -38 -12z"/>
<path d="M1091 1576 c-26 -14 -50 -51 -51 -78 0 -24 58 -78 85 -78 26 0 85 53
85 76 0 28 -28 70 -55 82 -32 15 -34 15 -64 -2z"/>
<path d="M2155 1579 c-16 -5 -73 -33 -125 -61 -78 -44 -96 -58 -98 -79 -2 -15
4 -32 14 -40 14 -12 30 -6 126 45 161 85 157 86 468 -89 266 -149 275 -154
263 -166 -14 -14 -565 -319 -576 -319 -11 0 -35 13 -365 198 -149 83 -220 128
-213 135 5 5 52 33 102 62 102 57 120 75 103 103 -19 30 -49 24 -150 -33 -120
-68 -140 -86 -170 -150 -23 -49 -24 -55 -24 -365 0 -310 1 -316 24 -365 13
-27 34 -60 47 -72 36 -32 528 -304 579 -320 89 -28 124 -16 407 142 142 79
274 157 294 174 52 43 79 106 86 194 6 84 -5 117 -40 117 -37 0 -47 -19 -47
-92 0 -76 -15 -122 -51 -154 -29 -26 -509 -294 -527 -294 -10 0 -12 69 -10
322 l3 322 290 162 290 162 5 -71 c3 -40 9 -78 13 -84 13 -20 55 -15 67 6 15
29 12 120 -6 181 -26 88 -69 122 -353 279 -140 78 -271 146 -290 151 -43 12
-95 12 -136 -1z m-260 -626 l284 -158 1 -322 c0 -224 -3 -323 -11 -323 -12 0
-468 252 -513 283 -15 11 -37 38 -47 61 -17 37 -19 70 -19 329 0 198 3 287 11
287 6 0 138 -71 294 -157z"/>
<path d="M1989 760 c-9 -5 -22 -23 -29 -40 -23 -56 17 -110 82 -110 24 0 78
55 78 80 0 10 -13 32 -29 49 -30 32 -69 40 -102 21z"/>
<path d="M1645 605 c-31 -30 -32 -73 -4 -109 29 -37 99 -37 128 0 45 57 8 134
-64 134 -25 0 -44 -8 -60 -25z"/>
<path d="M929 1295 c-39 -21 -54 -65 -35 -103 32 -61 110 -62 142 -1 20 40 18
57 -15 90 -33 32 -53 35 -92 14z"/>
<path d="M2185 1265 c-30 -29 -33 -74 -6 -106 24 -29 91 -33 118 -6 27 27 23
94 -6 118 -32 27 -77 24 -106 -6z"/>
<path d="M2702 983 c-15 -6 -42 -56 -42 -78 0 -26 55 -75 85 -75 31 0 85 51
85 80 0 10 -12 32 -26 49 -25 30 -64 39 -102 24z"/>
<path d="M2870 840 c-15 -28 4 -60 35 -60 31 0 50 32 35 60 -6 12 -21 20 -35
20 -14 0 -29 -8 -35 -20z"/>
<path d="M2555 705 c-30 -29 -33 -74 -6 -106 24 -29 91 -33 118 -6 27 27 23
94 -6 118 -32 27 -77 24 -106 -6z"/>
<path d="M2399 431 c-17 -18 -29 -40 -29 -56 0 -30 49 -85 75 -85 24 0 72 27
79 45 17 46 4 91 -35 110 -40 21 -57 19 -90 -14z"/>
</g>
</svg>
