<?xml version="1.0" standalone="no"?>
<!DOCTYPE svg PUBLIC "-//W3C//DTD SVG 20010904//EN"
 "http://www.w3.org/TR/2001/REC-SVG-20010904/DTD/svg10.dtd">
<svg version="1.0" xmlns="http://www.w3.org/2000/svg"
 width="552.000000pt" height="558.000000pt" viewBox="0 0 552.000000 558.000000"
 preserveAspectRatio="xMidYMid meet">
<metadata>
Created by potrace 1.10, written by Peter Selinger 2001-2011
</metadata>
<g transform="translate(0.000000,558.000000) scale(0.100000,-0.100000)"
fill="#000000" stroke="none">
<path d="M450 5456 c-154 -34 -258 -144 -289 -303 -14 -76 -1 -161 37 -238 19
-40 235 -260 1033 -1056 555 -553 1009 -1012 1009 -1019 0 -7 -454 -465 -1009
-1019 -796 -794 -1014 -1017 -1034 -1057 -96 -191 -23 -409 170 -511 49 -25
64 -28 157 -28 112 0 158 14 229 68 49 38 2286 2275 2324 2324 55 71 68 117
68 233 -1 95 -3 110 -29 160 -23 45 -239 266 -1189 1217 -846 847 -1174 1169
-1211 1189 -48 26 -149 54 -191 53 -11 -1 -45 -7 -75 -13z"/>
<path d="M2765 5444 c-113 -24 -158 -46 -228 -113 -71 -68 -117 -173 -117
-265 0 -45 25 -131 54 -186 10 -19 468 -483 1017 -1031 550 -548 999 -1002
999 -1009 0 -7 -454 -466 -1009 -1019 -796 -793 -1014 -1017 -1034 -1057 -95
-189 -25 -405 167 -511 47 -26 60 -28 156 -28 116 0 162 13 233 68 49 38 2277
2266 2320 2321 57 71 72 119 71 226 -1 176 98 64 -1221 1382 -763 761 -1172
1163 -1198 1176 -38 19 -161 53 -181 51 -5 -1 -18 -3 -29 -5z"/>
</g>
</svg>
