<?xml version="1.0" standalone="no"?>
<!DOCTYPE svg PUBLIC "-//W3C//DTD SVG 20010904//EN"
 "http://www.w3.org/TR/2001/REC-SVG-20010904/DTD/svg10.dtd">
<svg version="1.0" xmlns="http://www.w3.org/2000/svg"
 width="143.000000pt" height="254.000000pt" viewBox="0 0 143.000000 254.000000"
 preserveAspectRatio="xMidYMid meet">
<metadata>
Created by potrace 1.10, written by Peter Selinger 2001-2011
</metadata>
<g transform="translate(0.000000,254.000000) scale(0.100000,-0.100000)"
fill="#000000" stroke="none">
<path d="M480 2470 c0 -30 0 -30 -60 -30 -60 0 -60 0 -60 -30 0 -27 -3 -30
-30 -30 -27 0 -30 -3 -30 -30 0 -27 -3 -30 -30 -30 -27 0 -30 -3 -30 -30 0
-27 -3 -30 -30 -30 -30 0 -30 0 -30 -60 0 -60 0 -60 -30 -60 -30 0 -30 0 -30
-60 0 -60 0 -60 -30 -60 -30 0 -30 0 -30 -60 0 -60 0 -60 30 -60 27 0 30 3 30
30 0 27 3 30 30 30 30 0 30 0 30 -60 0 -60 0 -60 -30 -60 l-30 0 0 -120 0
-120 30 0 30 0 0 -90 0 -90 30 0 c30 0 30 -1 30 -55 0 -54 0 -55 30 -55 27 0
30 3 30 30 0 27 3 30 30 30 30 0 30 0 30 -60 0 -60 0 -60 30 -60 27 0 30 3 30
30 0 27 3 30 30 30 30 0 30 0 30 -60 0 -60 0 -60 -30 -60 -30 0 -30 0 -30 -60
0 -60 0 -60 -30 -60 -30 0 -30 0 -30 -60 0 -60 0 -60 -30 -60 l-30 0 0 -90 0
-90 -30 0 -30 0 0 -90 0 -90 30 0 c27 0 30 -3 30 -30 0 -27 3 -30 30 -30 27 0
30 -3 30 -30 0 -30 0 -30 60 -30 l60 0 0 -90 0 -90 -30 0 c-27 0 -30 -3 -30
-30 0 -27 -3 -30 -30 -30 l-30 0 0 -90 0 -90 175 0 175 0 0 210 0 210 30 0 30
0 0 -210 0 -210 180 0 180 0 0 90 0 90 -30 0 c-27 0 -30 3 -30 30 0 27 -3 30
-30 30 l-30 0 0 90 0 90 60 0 c60 0 60 0 60 30 0 27 3 30 30 30 27 0 30 3 30
30 0 27 3 30 30 30 l30 0 0 90 0 90 -30 0 -30 0 0 90 0 90 -30 0 c-30 0 -30 0
-30 60 0 60 0 60 -30 60 -30 0 -30 0 -30 60 0 60 0 60 -30 60 -30 0 -30 0 -30
60 0 60 0 60 30 60 27 0 30 -3 30 -30 0 -27 3 -30 30 -30 30 0 30 0 30 60 0
60 0 60 30 60 27 0 30 -3 30 -30 0 -27 3 -30 30 -30 30 0 30 1 30 55 0 54 0
55 30 55 l30 0 0 90 0 90 30 0 30 0 0 120 0 120 -30 0 c-30 0 -30 0 -30 60 0
60 0 60 30 60 l30 0 0 90 0 90 -30 0 c-30 0 -30 0 -30 60 0 60 0 60 -30 60
-27 0 -30 3 -30 30 0 27 -3 30 -30 30 -27 0 -30 3 -30 30 0 27 -3 30 -30 30
-27 0 -30 3 -30 30 0 30 0 30 -60 30 -60 0 -60 0 -60 30 l0 30 -265 0 -265 0
0 -30z m120 -180 c0 -27 -3 -30 -30 -30 -27 0 -30 -3 -30 -30 0 -27 -3 -30
-30 -30 -27 0 -30 -3 -30 -30 0 -27 -3 -30 -30 -30 -27 0 -30 3 -30 30 0 27 3
30 30 30 27 0 30 3 30 30 0 27 3 30 30 30 27 0 30 3 30 30 0 27 3 30 30 30 27
0 30 -3 30 -30z m350 0 c0 -27 3 -30 30 -30 27 0 30 -3 30 -30 0 -27 3 -30 30
-30 27 0 30 -3 30 -30 0 -27 -3 -30 -30 -30 -19 0 -30 5 -29 13 5 37 -2 47
-31 47 -27 0 -30 3 -30 30 0 27 -3 30 -30 30 -27 0 -30 3 -30 30 0 27 3 30 30
30 27 0 30 -3 30 -30z m-240 -89 c0 -58 -1 -60 -27 -63 -24 -3 -28 -7 -25 -30
3 -25 0 -28 -27 -28 -28 0 -31 3 -31 30 0 27 3 30 30 30 32 0 35 7 30 88 -1
28 1 32 24 32 25 0 26 -2 26 -59z m120 -1 c0 -60 0 -60 30 -60 27 0 30 -3 30
-30 0 -27 -3 -30 -30 -30 -27 0 -30 3 -30 30 0 27 -3 30 -30 30 -30 0 -30 0
-30 60 0 60 0 60 30 60 30 0 30 0 30 -60z m-60 -150 c0 -27 3 -30 30 -30 27 0
30 -3 30 -30 0 -27 3 -30 30 -30 27 0 30 -3 30 -30 0 -27 3 -30 30 -30 27 0
30 -3 30 -30 0 -27 -3 -30 -30 -30 -27 0 -30 -3 -30 -30 0 -27 3 -30 30 -30
27 0 30 -3 30 -30 0 -27 -3 -30 -30 -30 -27 0 -30 3 -30 30 0 27 -3 30 -30 30
-30 0 -30 0 -30 -60 0 -60 0 -60 30 -60 27 0 30 -3 30 -30 l0 -30 90 0 90 0 0
30 c0 27 -3 30 -30 30 -30 0 -30 0 -30 60 0 60 0 60 30 60 27 0 30 3 30 30 0
30 0 30 60 30 l60 0 0 -180 0 -180 -30 0 c-27 0 -30 -3 -30 -30 0 -30 0 -30
-60 -30 -57 0 -60 -1 -60 -25 0 -24 -3 -25 -60 -25 -60 0 -60 0 -60 -30 l0
-30 -145 0 -145 0 0 30 c0 30 0 30 -60 30 -57 0 -60 1 -60 25 0 24 -3 25 -60
25 -60 0 -60 0 -60 30 0 27 -3 30 -30 30 l-30 0 0 180 0 180 60 0 c60 0 60 0
60 -30 0 -27 3 -30 30 -30 30 0 30 0 30 -60 0 -60 0 -60 -30 -60 -27 0 -30 -3
-30 -30 l0 -30 90 0 90 0 0 30 c0 27 3 30 30 30 30 0 30 0 30 60 0 60 0 60
-30 60 -27 0 -30 -3 -30 -30 0 -27 -3 -30 -30 -30 -27 0 -30 3 -30 30 0 27 3
30 30 30 27 0 30 3 30 30 0 27 -3 30 -30 30 -27 0 -30 3 -30 30 0 27 3 30 30
30 27 0 30 3 30 30 0 27 3 30 30 30 27 0 30 3 30 30 0 25 4 30 25 30 21 0 25
5 25 30 0 27 3 30 30 30 27 0 30 -3 30 -30z m-530 -360 l0 -90 -30 0 -30 0 0
90 0 90 30 0 30 0 0 -90z m1070 0 l0 -90 -30 0 -30 0 0 90 0 90 30 0 30 0 0
-90z m-420 -470 c0 -27 -3 -30 -30 -30 -27 0 -30 -3 -30 -30 l0 -30 -85 0 -85
0 0 30 c0 27 -3 30 -30 30 -27 0 -30 3 -30 30 l0 30 145 0 145 0 0 -30z m-410
-240 l0 -90 -30 0 -30 0 0 -180 0 -180 -30 0 c-27 0 -30 3 -30 30 0 27 -3 30
-30 30 l-30 0 0 90 0 90 30 0 30 0 0 90 0 90 30 0 c30 0 30 0 30 60 0 60 0 60
30 60 l30 0 0 -90z m590 30 c0 -60 0 -60 30 -60 l30 0 0 -90 0 -90 30 0 30 0
0 -90 0 -90 -30 0 c-27 0 -30 -3 -30 -30 0 -27 -3 -30 -30 -30 l-30 0 0 180 0
180 -30 0 -30 0 0 90 0 90 30 0 c30 0 30 0 30 -60z m-410 -840 l0 -60 -120 0
-120 0 0 60 0 60 120 0 120 0 0 -60z m410 0 l0 -60 -120 0 -120 0 0 60 0 60
120 0 120 0 0 -60z"/>
<path d="M600 1870 c0 -27 3 -30 30 -30 27 0 30 3 30 30 0 27 -3 30 -30 30
-27 0 -30 -3 -30 -30z"/>
<path d="M830 1870 c0 -27 3 -30 30 -30 27 0 30 3 30 30 0 27 -3 30 -30 30
-27 0 -30 -3 -30 -30z"/>
<path d="M360 1720 c0 -60 0 -60 30 -60 30 0 30 0 30 60 0 60 0 60 -30 60 -30
0 -30 0 -30 -60z"/>
<path d="M1070 1720 c0 -60 0 -60 30 -60 30 0 30 0 30 60 0 60 0 60 -30 60
-30 0 -30 0 -30 -60z"/>
<path d="M660 1425 c0 -52 1 -55 25 -55 20 0 25 5 25 25 0 21 5 25 30 25 25 0
30 -4 30 -25 0 -21 5 -25 30 -25 30 0 30 1 30 55 l0 55 -85 0 -85 0 0 -55z"/>
</g>
</svg>
