<?xml version="1.0" standalone="no"?>
<!DOCTYPE svg PUBLIC "-//W3C//DTD SVG 20010904//EN"
 "http://www.w3.org/TR/2001/REC-SVG-20010904/DTD/svg10.dtd">
<svg version="1.0" xmlns="http://www.w3.org/2000/svg"
 width="300.000000pt" height="300.000000pt" viewBox="0 0 300.000000 300.000000"
 preserveAspectRatio="xMidYMid meet">
<metadata>
Created by potrace 1.10, written by Peter Selinger 2001-2011
</metadata>
<g transform="translate(0.000000,300.000000) scale(0.100000,-0.100000)"
fill="#000000" stroke="none">
<path d="M265 2416 c-108 -34 -186 -102 -232 -201 -24 -51 -28 -73 -28 -145 0
-76 4 -93 33 -152 40 -81 110 -148 190 -180 l57 -23 1215 0 1215 0 57 23 c80
32 150 99 190 180 30 59 33 76 33 152 0 72 -4 94 -28 146 -36 77 -104 145
-182 181 l-60 28 -1210 2 c-958 1 -1218 -1 -1250 -11z"/>
<path d="M290 1279 c-111 -22 -208 -99 -258 -207 -23 -48 -27 -71 -27 -142 0
-72 4 -94 28 -146 36 -77 104 -145 182 -181 l60 -28 1225 0 1225 0 60 28 c78
36 146 104 182 181 24 52 28 74 28 146 0 76 -3 93 -33 152 -40 81 -110 148
-190 180 l-57 23 -1190 2 c-657 0 -1210 -3 -1235 -8z"/>
</g>
</svg>
