<?xml version="1.0" standalone="no"?>
<!DOCTYPE svg PUBLIC "-//W3C//DTD SVG 20010904//EN"
 "http://www.w3.org/TR/2001/REC-SVG-20010904/DTD/svg10.dtd">
<svg version="1.0" xmlns="http://www.w3.org/2000/svg"
 width="252.000000pt" height="250.000000pt" viewBox="0 0 252.000000 250.000000"
 preserveAspectRatio="xMidYMid meet">
<metadata>
Created by potrace 1.10, written by Peter Selinger 2001-2011
</metadata>
<g transform="translate(0.000000,250.000000) scale(0.100000,-0.100000)"
fill="#000000" stroke="none">
<path d="M1182 2387 c-39 -40 -72 -79 -72 -86 0 -8 31 -65 69 -127 l69 -114
-149 0 c-82 0 -149 -4 -149 -9 0 -5 13 -14 30 -21 41 -17 117 -101 142 -158
14 -31 23 -75 26 -129 l5 -83 -236 0 c-129 0 -242 -3 -251 -6 -9 -4 -16 -18
-16 -33 0 -20 11 -33 51 -59 50 -33 69 -62 69 -107 0 -13 12 -37 26 -55 45
-53 69 -60 219 -60 l135 0 0 -80 0 -80 -328 0 c-242 0 -331 -3 -340 -12 -24
-24 -12 -47 43 -85 57 -39 59 -43 69 -104 4 -21 16 -49 28 -64 39 -49 69 -55
291 -55 l204 0 12 -73 c17 -108 4 -156 -70 -250 -38 -47 -45 -70 -40 -132 3
-33 34 -91 54 -99 7 -2 -211 -5 -483 -5 -372 -1 -499 -4 -508 -13 -16 -16 -16
-200 0 -216 9 -9 287 -12 1188 -12 901 0 1179 3 1188 12 16 16 16 200 0 216
-9 9 -136 12 -508 13 -272 0 -490 3 -483 5 20 8 51 66 54 99 5 62 -2 85 -40
132 -74 94 -87 142 -70 251 l12 72 206 0 c176 0 211 3 240 18 46 23 69 57 80
116 5 27 15 53 22 57 48 27 99 72 99 87 0 41 -11 42 -352 42 l-328 0 0 80 0
80 135 0 c150 0 174 7 219 60 14 18 26 42 26 55 0 45 19 74 69 107 40 26 51
39 51 59 0 15 -7 29 -16 33 -9 3 -122 6 -251 6 l-236 0 5 83 c3 54 12 98 26
129 25 57 101 141 142 158 17 7 30 16 30 21 0 5 -67 9 -149 9 l-149 0 69 114
c38 62 69 119 69 127 0 19 -141 159 -160 159 -9 0 -48 -33 -88 -73z"/>
<path d="M830 2287 c-49 -16 -133 -102 -148 -153 -20 -67 -17 -74 27 -74 36 0
39 2 45 35 8 43 50 94 93 111 18 8 57 14 88 14 l55 0 0 40 0 40 -62 -1 c-35
-1 -79 -6 -98 -12z"/>
<path d="M1550 2260 l0 -40 55 0 c31 0 70 -6 88 -14 43 -17 85 -68 93 -111 6
-33 9 -35 45 -35 44 0 47 7 27 74 -16 55 -99 138 -154 154 -23 7 -67 12 -98
12 l-56 0 0 -40z"/>
<path d="M670 1940 c0 -40 0 -40 40 -40 40 0 40 0 40 40 0 40 0 40 -40 40 -40
0 -40 0 -40 -40z"/>
<path d="M1790 1940 c0 -40 0 -40 40 -40 40 0 40 0 40 40 0 40 0 40 -40 40
-40 0 -40 0 -40 -40z"/>
<path d="M605 1766 c-37 -16 -70 -52 -84 -89 -6 -16 -11 -86 -11 -157 0 -154
-7 -168 -90 -181 -58 -9 -91 -28 -124 -73 -20 -26 -21 -42 -24 -337 l-3 -309
41 0 40 0 0 294 c0 341 -2 332 90 347 58 9 91 28 124 73 18 24 22 46 26 178 6
195 0 188 186 188 l134 0 0 40 0 40 -137 0 c-93 -1 -148 -5 -168 -14z"/>
<path d="M1630 1741 l0 -41 134 0 c186 0 180 7 186 -188 4 -132 8 -154 26
-178 33 -45 66 -64 124 -73 92 -15 90 -6 90 -347 l0 -294 40 0 41 0 -3 309
c-3 295 -4 311 -24 337 -33 44 -66 64 -122 73 -84 13 -86 18 -92 191 -5 161
-11 177 -74 224 -24 19 -44 21 -177 24 l-149 3 0 -40z"/>
<path d="M470 780 l0 -160 40 0 40 0 0 160 0 160 -40 0 -40 0 0 -160z"/>
<path d="M1990 780 l0 -160 40 0 40 0 0 160 0 160 -40 0 -40 0 0 -160z"/>
<path d="M270 480 l0 -60 40 0 40 0 0 60 0 60 -40 0 -40 0 0 -60z"/>
<path d="M470 480 l0 -60 40 0 40 0 0 60 0 60 -40 0 -40 0 0 -60z"/>
<path d="M1990 480 l0 -60 40 0 40 0 0 60 0 60 -40 0 -40 0 0 -60z"/>
<path d="M2190 480 l0 -60 40 0 40 0 0 60 0 60 -40 0 -40 0 0 -60z"/>
</g>
</svg>
