<?xml version="1.0" standalone="no"?>
<!DOCTYPE svg PUBLIC "-//W3C//DTD SVG 20010904//EN"
 "http://www.w3.org/TR/2001/REC-SVG-20010904/DTD/svg10.dtd">
<svg version="1.0" xmlns="http://www.w3.org/2000/svg"
 width="300.000000pt" height="300.000000pt" viewBox="0 0 300.000000 300.000000"
 preserveAspectRatio="xMidYMid meet">
<metadata>
Created by potrace 1.10, written by Peter Selinger 2001-2011
</metadata>
<g transform="translate(0.000000,300.000000) scale(0.100000,-0.100000)"
fill="white" stroke="none">
<path d="M1855 2780 c-41 -32 -72 -43 -178 -58 -47 -7 -83 -20 -117 -42 -56
-36 -80 -65 -125 -154 -16 -33 -37 -64 -46 -70 -12 -7 -60 0 -166 23 -164 35
-184 34 -222 -15 -39 -50 -30 -79 78 -241 l98 -149 -28 -17 c-57 -32 -90 -120
-72 -188 l10 -38 -239 -318 c-304 -405 -338 -472 -338 -670 0 -123 13 -180 67
-292 81 -170 234 -294 419 -341 71 -18 112 -20 508 -20 474 0 501 3 620 61
225 110 368 340 368 593 0 108 -20 193 -67 285 -18 36 -141 210 -273 386 -212
282 -239 322 -231 343 22 58 -5 150 -55 190 l-27 21 37 48 c51 66 110 193 134
287 22 89 28 290 9 344 -23 67 -101 82 -164 32z m82 -210 c-9 -160 -63 -310
-156 -428 l-41 -52 -80 0 c-44 0 -80 3 -80 8 0 4 18 30 40 57 45 56 52 98 20
115 -30 16 -51 0 -121 -95 l-63 -85 -88 0 -88 0 -105 158 c-69 102 -100 158
-92 160 8 2 65 -9 127 -23 208 -47 246 -34 310 101 33 70 95 131 142 138 18 4
62 10 96 16 60 9 142 46 158 72 16 26 26 -42 21 -142z m-137 -590 c48 -26 43
-110 -10 -137 -36 -18 -544 -18 -580 0 -52 26 -59 100 -13 135 21 15 574 18
603 2z m-548 -237 l56 -5 -23 -62 c-37 -99 -55 -205 -55 -329 0 -101 2 -116
20 -132 16 -15 25 -16 44 -7 22 10 23 16 29 149 6 142 19 208 64 320 l25 63
104 0 103 0 17 -31 c31 -60 66 -164 85 -254 11 -49 25 -95 31 -102 14 -18 53
-16 69 3 22 27 -20 208 -85 365 -6 13 1 17 36 22 24 2 51 8 60 12 13 5 64 -57
251 -307 129 -172 246 -337 261 -365 121 -240 39 -554 -183 -701 -31 -21 -68
-43 -82 -49 l-26 -11 25 71 c23 67 24 81 19 195 -7 140 -15 162 -57 162 -44 0
-51 -23 -39 -126 14 -110 8 -154 -32 -250 -23 -55 -38 -78 -56 -85 -13 -5
-156 -9 -318 -9 l-293 0 -57 62 c-88 94 -105 139 -105 273 0 117 -6 135 -46
135 -33 0 -41 -18 -49 -111 -11 -129 23 -240 98 -325 l32 -37 -68 7 c-187 19
-354 130 -439 292 -85 162 -90 352 -12 507 15 28 132 193 261 365 209 279 237
313 256 307 12 -4 47 -9 79 -12z"/>
</g>
</svg>
