<?xml version="1.0" standalone="no"?>
<!DOCTYPE svg PUBLIC "-//W3C//DTD SVG 20010904//EN"
 "http://www.w3.org/TR/2001/REC-SVG-20010904/DTD/svg10.dtd">
<svg version="1.0" xmlns="http://www.w3.org/2000/svg"
 width="107.000000pt" height="133.000000pt" viewBox="0 0 107.000000 133.000000"
 preserveAspectRatio="xMidYMid meet">
<metadata>
Created by potrace 1.10, written by Peter Selinger 2001-2011
</metadata>
<g transform="translate(0.000000,133.000000) scale(0.100000,-0.100000)"
fill="#000000" stroke="none">
<path d="M30 1321 c0 -5 12 -11 28 -13 21 -2 28 -9 30 -29 2 -21 10 -28 33
-33 l29 -5 0 -115 0 -115 -28 -3 -27 -3 -2 -100 c-4 -131 -7 -145 -38 -145
l-25 0 0 -275 0 -275 24 0 c28 0 36 -16 36 -75 0 -40 2 -44 28 -47 21 -2 28
-9 30 -31 3 -21 9 -27 28 -27 14 0 27 -7 30 -15 5 -13 46 -15 279 -15 197 0
274 3 277 12 2 6 29 13 59 16 50 4 56 7 66 33 8 19 18 29 32 29 19 0 21 6 21
74 0 91 5 106 36 106 l24 0 0 245 0 245 -24 0 c-31 0 -36 20 -36 148 0 101 0
102 -24 102 -22 0 -24 5 -28 51 -3 53 5 69 33 69 12 0 19 9 21 28 2 21 9 28
31 30 23 3 27 8 27 33 0 27 -3 30 -27 27 -22 -2 -29 -9 -31 -30 -3 -24 -8 -28
-33 -28 -26 0 -29 3 -29 30 0 27 -3 30 -31 30 -27 0 -30 3 -27 28 2 21 9 28
31 30 15 2 27 8 27 13 0 13 -727 12 -735 -1 -3 -5 -17 -10 -31 -10 -13 0 -24
5 -24 10 0 6 -13 10 -30 10 -16 0 -30 -4 -30 -9z m639 -257 c24 -5 31 -12 31
-29 0 -17 7 -24 31 -29 30 -6 30 -6 27 -63 -3 -54 -5 -58 -29 -61 -21 -2 -28
-10 -33 -33 -5 -28 -8 -29 -61 -29 -52 0 -55 1 -55 26 0 19 -7 28 -30 36 -30
10 -31 12 -28 67 3 53 5 56 31 59 20 3 27 9 27 26 0 37 19 44 89 30z m-284
-119 l0 -60 -55 0 -55 0 -3 54 c-4 64 5 72 68 69 l45 -3 0 -60z m373 -276 c2
-21 10 -28 33 -33 23 -4 29 -11 29 -31 0 -21 -5 -25 -30 -25 -27 0 -30 -3 -30
-30 l0 -30 -245 0 -245 0 0 30 c0 27 -3 30 -31 30 -27 0 -30 3 -27 28 2 21 9
28 31 30 20 3 27 9 27 26 0 12 3 26 7 30 4 3 113 5 242 4 l236 -3 3 -26z"/>
<path d="M270 610 l0 -30 245 0 245 0 0 30 0 30 -245 0 -245 0 0 -30z"/>
</g>
</svg>
