<?xml version="1.0" standalone="no"?>
<!DOCTYPE svg PUBLIC "-//W3C//DTD SVG 20010904//EN"
 "http://www.w3.org/TR/2001/REC-SVG-20010904/DTD/svg10.dtd">
<svg version="1.0" xmlns="http://www.w3.org/2000/svg"
 width="318.000000pt" height="684.000000pt" viewBox="0 0 318.000000 684.000000"
 preserveAspectRatio="xMidYMid meet">
<metadata>
Created by potrace 1.10, written by Peter Selinger 2001-2011
</metadata>
<g transform="translate(0.000000,684.000000) scale(0.100000,-0.100000)"
fill="#000000" stroke="none">
<path d="M888 6669 c-15 -8 -18 -24 -18 -83 0 -48 -5 -77 -13 -84 -7 -6 -46
-12 -87 -14 l-75 -3 -3 -75 c-2 -41 -8 -80 -14 -87 -11 -13 -122 -18 -152 -7
-13 5 -16 22 -16 78 0 39 -4 77 -8 84 -7 9 -50 12 -183 10 l-174 -3 0 -85 0
-85 85 -5 85 -5 3 -75 c2 -41 8 -80 14 -87 7 -8 36 -13 84 -13 62 0 75 -3 84
-19 11 -21 14 -290 4 -328 -6 -22 -12 -23 -89 -23 -83 0 -83 0 -90 28 -3 15
-5 53 -4 83 1 31 -1 61 -5 68 -11 17 -151 15 -165 -3 -8 -9 -11 -43 -9 -93 l3
-78 85 -5 85 -5 5 -82 c3 -45 10 -87 15 -92 6 -6 46 -11 90 -13 l80 -3 0 -355
0 -355 -80 -3 c-43 -2 -85 -7 -91 -13 -9 -7 -13 -99 -13 -362 -1 -193 -5 -355
-9 -359 -4 -4 -43 -8 -87 -10 l-80 -3 0 -820 0 -820 85 -5 85 -5 6 -180 c3
-99 6 -181 7 -182 1 -2 40 -3 87 -3 97 0 93 5 97 -110 l3 -65 83 -3 c45 -2 83
-4 84 -5 1 -1 4 -81 7 -177 l6 -175 85 -5 85 -5 5 -85 5 -85 85 -5 85 -5 3
-174 c2 -113 -1 -178 -8 -186 -7 -9 -31 -13 -68 -11 -31 1 -67 -1 -79 -6 l-23
-8 0 -348 c0 -257 -3 -351 -12 -360 -7 -7 -43 -12 -90 -12 -45 0 -78 -4 -79
-10 -3 -69 1 -154 8 -161 5 -5 124 -8 279 -7 l269 3 2 630 c2 347 5 636 8 643
3 9 63 12 254 12 137 0 256 -3 265 -6 14 -5 16 -31 16 -179 0 -121 -4 -176
-12 -181 -6 -4 -42 -8 -79 -10 -37 -1 -73 -5 -79 -9 -7 -4 -10 -122 -10 -355
0 -403 10 -370 -109 -370 l-71 0 0 -90 0 -90 268 2 267 3 3 634 c2 493 5 637
15 643 6 4 47 8 89 8 l77 0 3 88 3 87 90 5 90 5 5 175 5 175 169 3 c101 1 175
7 182 13 8 7 14 41 16 87 l3 77 65 3 c36 1 75 4 88 7 l22 5 0 264 c0 203 3
266 13 274 7 6 46 12 87 14 l75 3 3 719 c2 569 0 721 -10 728 -7 4 -42 8 -78
8 -38 0 -71 5 -78 12 -9 9 -12 104 -12 365 l0 353 -22 5 c-13 3 -52 6 -88 7
l-65 3 0 175 0 175 65 3 c115 4 110 0 110 97 l0 84 88 3 87 3 3 88 3 88 -88
-3 -88 -3 -5 -85 -5 -85 -85 0 -85 0 -5 85 -5 85 -82 3 c-66 2 -84 6 -91 20
-14 27 -6 153 9 164 8 5 42 7 76 5 85 -6 92 0 95 98 l3 80 164 3 c101 1 170 7
178 13 20 17 18 165 -3 173 -9 3 -127 6 -264 6 -190 0 -250 -3 -258 -13 -6 -7
-12 -46 -14 -87 l-3 -75 -85 0 -85 0 -5 75 c-3 41 -9 81 -13 88 -5 8 -35 12
-87 12 -91 0 -88 -4 -92 110 l-3 65 -65 3 c-113 4 -109 0 -112 95 l-3 82 -175
6 c-96 3 -176 6 -177 7 -2 1 -3 37 -3 80 0 47 -5 83 -12 90 -16 16 -684 17
-710 1z m1262 -1729 l5 -85 80 -3 c43 -2 85 -8 92 -14 10 -8 13 -51 13 -168 0
-87 -3 -165 -6 -174 -5 -13 -23 -16 -90 -16 -96 0 -92 5 -96 -115 l-3 -70
-164 -3 c-112 -2 -168 1 -177 9 -10 8 -14 34 -14 84 0 47 -5 76 -13 83 -7 6
-46 12 -87 14 l-75 3 0 180 0 180 85 5 85 5 3 75 c1 41 4 81 7 88 3 10 44 12
177 10 l173 -3 5 -85z m-922 -98 c9 -7 13 -51 13 -176 0 -92 -3 -171 -6 -177
-7 -10 -323 -13 -349 -3 -14 5 -16 30 -16 173 0 117 4 171 12 179 14 14 325
17 346 4z m1100 -924 c7 -7 12 -42 12 -89 0 -71 -2 -77 -22 -83 -30 -8 -1412
-8 -1432 0 -25 9 -23 159 2 173 26 16 1424 15 1440 -1z m-1460 -265 l-3 -88
-65 -3 c-109 -5 -110 -4 -110 87 0 43 3 81 7 84 3 4 44 7 90 7 l84 0 -3 -87z
m1647 -3 l0 -85 -87 -3 -87 -3 -3 -87 -3 -87 -730 0 -730 0 -3 88 -3 87 736 0
735 0 0 90 0 91 88 -3 87 -3 0 -85z"/>
</g>
</svg>
