<?xml version="1.0" standalone="no"?>
<!DOCTYPE svg PUBLIC "-//W3C//DTD SVG 20010904//EN"
 "http://www.w3.org/TR/2001/REC-SVG-20010904/DTD/svg10.dtd">
<svg version="1.0" xmlns="http://www.w3.org/2000/svg"
 width="588.000000pt" height="660.000000pt" viewBox="0 0 588.000000 660.000000"
 preserveAspectRatio="xMidYMid meet">
<metadata>
Created by potrace 1.10, written by Peter Selinger 2001-2011
</metadata>
<g transform="translate(0.000000,660.000000) scale(0.100000,-0.100000)"
fill="#000000" stroke="none">
<path d="M1527 6524 c-4 -4 -7 -206 -7 -449 0 -355 -3 -445 -13 -454 -8 -6
-77 -12 -178 -13 l-164 -3 -3 -65 c-4 -120 14 -110 -187 -110 -128 0 -176 -3
-182 -12 -4 -7 -10 -47 -13 -88 l-5 -75 -75 -5 c-41 -3 -81 -9 -88 -13 -8 -5
-12 -34 -12 -81 0 -48 -5 -77 -13 -84 -7 -6 -46 -12 -87 -14 l-75 -3 -5 -175
-5 -175 -65 -3 c-36 -1 -75 -4 -88 -7 l-22 -5 0 -355 c0 -353 0 -354 22 -366
13 -7 41 -9 73 -5 92 11 87 30 87 -363 0 -250 -4 -346 -13 -357 -8 -10 -34
-14 -90 -14 l-79 0 0 -74 c0 -108 2 -106 -96 -106 -97 0 -97 0 -92 -110 l3
-65 90 0 90 0 3 88 3 88 87 -3 87 -3 5 -270 5 -270 85 0 85 0 3 175 c2 124 6
176 15 182 6 4 47 8 90 8 l77 0 0 -85 c0 -73 3 -86 19 -95 23 -12 140 -13 159
-1 9 5 12 31 10 92 l-3 84 -88 3 -87 3 2 177 3 177 87 3 87 3 3 -88 3 -88 90
0 90 0 0 85 0 85 -90 5 -90 5 -5 85 -5 85 -82 5 c-45 3 -84 7 -87 11 -8 8 -14
763 -7 934 l6 150 79 3 c45 2 84 -2 89 -7 6 -6 12 -43 14 -81 1 -39 5 -75 9
-81 4 -7 32 -8 79 -4 56 6 75 4 81 -6 5 -8 11 -176 14 -374 l5 -360 85 -5 85
-5 0 -445 0 -445 -85 -5 -85 -5 -3 -70 c-4 -120 0 -115 -92 -115 -95 0 -100
-6 -100 -104 0 -79 -11 -88 -100 -85 -36 1 -65 -3 -74 -11 -14 -11 -16 -80
-18 -544 l-3 -531 -75 -3 c-41 -2 -80 -8 -87 -14 -8 -7 -13 -36 -13 -83 0 -50
-4 -76 -14 -84 -8 -7 -41 -11 -78 -9 -35 1 -69 -1 -76 -6 -8 -5 -12 -35 -12
-86 0 -62 3 -79 16 -84 24 -9 1237 -7 1252 3 9 5 12 30 10 87 l-3 79 -75 5
c-41 3 -81 9 -87 13 -9 6 -13 35 -13 87 0 91 4 88 -110 92 l-65 3 -5 85 -5 85
-88 3 -87 3 2 272 3 272 85 5 85 5 5 85 5 85 85 5 85 5 5 85 5 85 268 3 267 2
0 -73 c0 -43 5 -80 13 -90 11 -16 59 -17 642 -15 l630 3 5 85 5 85 85 0 85 0
5 -75 c3 -41 9 -81 13 -88 5 -8 34 -12 81 -12 48 0 77 -5 84 -13 6 -7 12 -46
14 -87 l3 -75 75 -3 c41 -2 80 -8 87 -14 8 -7 13 -36 13 -84 0 -47 4 -76 13
-81 6 -4 46 -10 87 -13 l75 -5 3 -82 c3 -95 -2 -91 117 -95 l70 -3 3 -352 c3
-407 11 -375 -104 -372 -47 1 -69 -2 -75 -12 -5 -8 -9 -87 -9 -175 0 -126 -3
-164 -14 -173 -8 -7 -42 -11 -79 -10 -35 1 -69 -1 -76 -5 -6 -4 -11 -35 -11
-76 0 -99 0 -100 -80 -100 -102 0 -100 1 -100 -96 0 -79 1 -84 23 -89 13 -4
297 -5 631 -3 526 3 608 5 616 18 15 23 12 147 -2 157 -7 4 -47 10 -88 13
l-75 5 -5 85 -5 85 -77 3 c-48 2 -80 8 -87 16 -8 9 -11 69 -9 182 l3 169 65 3
c36 1 75 4 88 7 l22 5 -2 358 -3 357 -85 5 -85 5 -5 180 -5 180 -85 5 -85 5
-6 175 c-3 96 -6 176 -7 178 -1 1 -37 2 -80 2 -47 0 -83 5 -90 12 -7 7 -12 41
-12 83 0 42 -5 76 -12 83 -7 7 -41 12 -83 12 -42 0 -76 5 -83 12 -18 18 -17
332 1 346 7 6 49 12 92 14 l80 3 5 175 5 175 88 3 c59 2 87 7 88 15 3 21 5 98
7 320 l2 217 85 0 c61 0 85 4 85 13 1 6 3 165 6 352 3 187 7 346 9 353 3 8 27
12 74 12 103 0 101 -2 101 95 0 94 1 95 83 95 96 0 97 -1 97 -89 0 -47 5 -82
12 -89 7 -7 41 -12 84 -12 40 0 75 -4 78 -9 9 -14 9 -712 0 -721 -5 -5 -45
-10 -89 -12 l-80 -3 3 -66 c6 -112 9 -110 -181 -109 -89 0 -168 1 -175 0 -10
0 -12 -21 -10 -86 l3 -86 168 -4 c93 -2 173 -6 178 -9 5 -4 9 -84 9 -180 l0
-174 -87 -3 -88 -3 0 -85 0 -85 85 0 85 0 3 88 3 88 87 -3 87 -3 3 -169 c1
-107 7 -175 14 -183 8 -10 32 -13 87 -11 l76 3 6 180 c3 99 6 181 7 183 1 1
41 1 90 0 l87 -3 5 -85 5 -85 90 0 90 0 3 76 c2 54 -1 79 -11 87 -7 6 -49 12
-92 14 l-80 3 -3 444 c-1 291 1 448 8 455 6 6 40 9 76 8 112 -4 104 -41 104
469 l0 439 -22 5 c-13 3 -54 6 -93 7 l-70 3 -5 85 -5 85 -82 5 c-45 3 -87 10
-92 15 -6 6 -11 46 -13 90 l-3 80 -82 3 c-95 3 -91 -1 -95 112 l-3 65 -75 3
c-41 2 -80 8 -87 13 -7 7 -13 41 -15 87 l-3 77 -175 5 -175 5 -3 80 c-2 44 -7
84 -12 89 -5 5 -45 10 -87 10 l-78 1 -3 174 c-1 111 -7 179 -14 188 -8 10 -33
13 -92 11 l-81 -3 -5 -177 c-3 -97 -9 -180 -13 -185 -12 -11 -318 -13 -339 -2
-15 8 -18 31 -20 187 l-3 177 -85 5 -85 5 -6 175 c-3 96 -6 176 -7 178 -1 1
-40 2 -87 2 -47 0 -86 -1 -87 -2 -1 -2 -5 -167 -8 -368 l-5 -365 -74 -2 c-43
-2 -80 2 -88 8 -9 8 -13 38 -13 95 l0 83 -87 3 -88 3 -5 180 -5 180 -87 3 -88
3 -1 -28 c-1 -15 -3 -95 -3 -176 -1 -118 -5 -150 -16 -157 -8 -6 -47 -10 -86
-10 -84 0 -84 0 -84 -100 0 -44 -4 -72 -12 -77 -20 -12 -320 -14 -335 -1 -10
8 -13 55 -13 183 0 197 6 185 -91 185 -93 0 -99 -6 -99 -99 0 -92 2 -91 -105
-91 -86 0 -85 1 -85 -105 0 -84 -1 -85 -85 -83 -92 2 -95 5 -95 103 l0 85 -79
0 c-53 0 -82 4 -90 13 -7 9 -12 102 -13 273 l-3 259 -80 3 c-45 1 -84 0 -88
-4z m1273 -1734 l5 -85 82 -5 c45 -3 85 -9 89 -13 5 -4 9 -40 9 -80 0 -40 4
-78 8 -84 5 -9 35 -13 87 -13 62 0 79 -3 84 -16 11 -28 6 -140 -6 -152 -7 -7
-43 -12 -90 -12 l-77 0 -7 -36 c-3 -19 -4 -53 -1 -75 8 -58 -9 -69 -98 -69
l-74 0 -6 -32 c-3 -18 -6 -58 -8 -88 l-2 -55 -82 -3 c-95 -3 -91 -8 -95 108
l-3 65 -75 3 c-41 2 -80 8 -87 14 -8 6 -13 34 -13 73 0 94 -1 95 -84 95 -39 0
-77 4 -84 9 -9 5 -12 30 -10 87 l3 79 75 5 c41 3 81 9 88 13 8 5 12 34 12 81
0 43 5 77 12 84 7 7 43 12 90 12 l78 0 0 83 c0 46 3 87 7 91 4 4 43 5 88 4
l80 -3 5 -85z m915 -303 c3 -12 5 -52 3 -87 l-3 -65 -85 0 -85 0 -3 74 c-2 41
-1 80 2 88 4 9 28 13 85 13 76 0 81 -1 86 -23z m-185 -247 l0 -90 -78 0 c-47
0 -83 5 -90 12 -12 12 -17 124 -6 152 5 13 23 16 90 16 l84 0 0 -90z m364 74
c12 -32 6 -141 -8 -153 -9 -7 -42 -11 -88 -9 l-73 3 -3 88 -3 87 85 0 c67 0
85 -3 90 -16z m-2016 -257 l3 -88 -88 3 -88 3 -3 73 c-4 98 1 104 97 100 l76
-3 3 -88z m1836 77 c9 -23 7 -137 -3 -152 -5 -9 -30 -12 -87 -10 l-79 3 -3 88
-3 87 85 0 c67 0 85 -3 90 -16z m-2056 -174 l42 0 0 -90 0 -90 -85 0 c-98 0
-98 0 -93 110 3 59 5 65 28 71 14 4 34 6 45 3 11 -2 39 -4 63 -4z m397 -85 l0
-90 -87 -3 -87 -3 -3 -92 -3 -92 -67 -3 c-102 -4 -109 2 -106 101 l3 82 88 3
87 3 0 89 0 89 73 4 c39 2 79 3 87 2 12 0 15 -17 15 -90z m1471 -106 c4 -7 6
-44 5 -84 -1 -50 2 -75 11 -83 8 -6 50 -12 93 -14 l80 -3 3 -73 c2 -46 -2 -79
-9 -88 -8 -10 -35 -14 -90 -14 -90 0 -87 4 -91 -110 l-3 -65 -265 0 -265 0 -3
65 c-4 114 -1 110 -92 110 -96 0 -102 7 -98 108 l3 67 80 3 c43 2 85 8 92 14
9 7 13 37 13 88 0 42 3 80 7 83 12 13 521 8 529 -4z m-1091 -269 l0 -85 -87
-3 -86 -3 -4 78 c-2 43 -2 84 0 91 3 9 27 12 91 10 l86 -3 0 -85z m-187 -177
l-3 -88 -65 -3 c-109 -5 -110 -4 -110 87 0 43 3 81 7 84 3 4 44 7 90 7 l84 0
-3 -87z m370 9 c2 -46 -2 -79 -9 -88 -8 -10 -35 -14 -90 -14 l-79 0 0 -79 c0
-55 -4 -82 -14 -90 -9 -7 -42 -11 -88 -9 l-73 3 -3 88 -3 87 91 0 90 0 0 90 0
91 88 -3 87 -3 3 -73z"/>
<path d="M2632 4508 c-16 -16 -16 -150 0 -166 12 -12 124 -17 152 -6 13 5 16
23 16 89 0 77 -1 83 -22 89 -40 10 -134 6 -146 -6z"/>
<path d="M3247 3592 l-78 -3 3 -87 3 -87 85 0 85 0 3 86 c2 64 -1 88 -10 90
-7 2 -48 3 -91 1z"/>
</g>
</svg>
