<?xml version="1.0" standalone="no"?>
<!DOCTYPE svg PUBLIC "-//W3C//DTD SVG 20010904//EN"
 "http://www.w3.org/TR/2001/REC-SVG-20010904/DTD/svg10.dtd">
<svg version="1.0" xmlns="http://www.w3.org/2000/svg"
 width="300.000000pt" height="337.000000pt" viewBox="0 0 300.000000 337.000000"
 preserveAspectRatio="xMidYMid meet">
<metadata>
Created by potrace 1.10, written by Peter Selinger 2001-2011
</metadata>
<g transform="translate(0.000000,337.000000) scale(0.100000,-0.100000)"
fill="#000000" stroke="none">
<path d="M777 3343 c-4 -3 -7 -109 -7 -234 0 -198 -2 -228 -16 -233 -9 -3 -49
-6 -90 -6 l-74 0 0 -28 c0 -51 -17 -61 -110 -64 l-85 -3 -3 -42 c-3 -37 -6
-43 -25 -43 -44 0 -67 -12 -67 -34 0 -52 -10 -65 -54 -68 l-41 -3 -5 -90 -5
-90 -43 -3 -42 -3 2 -187 3 -187 40 -5 40 -5 0 -185 0 -185 -42 -3 c-42 -3
-42 -3 -45 -45 -3 -36 -6 -42 -28 -45 -66 -7 -70 -10 -70 -52 l0 -40 50 0 50
0 0 46 0 45 43 -3 42 -3 3 -137 3 -138 44 0 45 0 0 44 c0 24 3 64 6 90 l7 46
43 0 43 0 3 -42 3 -43 45 0 c48 0 58 12 46 59 -4 18 -15 25 -47 29 -22 3 -43
7 -45 10 -3 3 -2 44 2 91 l7 86 43 0 44 0 0 -45 0 -45 45 0 45 0 0 45 0 45
-44 0 -45 0 -3 42 c-3 40 -5 43 -43 50 -21 5 -43 14 -47 21 -9 14 -11 471 -2
516 6 30 9 32 48 29 40 -3 41 -4 46 -43 5 -39 6 -40 47 -43 l41 -3 7 -189 8
-189 41 -3 41 -3 0 -230 0 -230 -42 -3 c-40 -3 -43 -5 -43 -33 0 -51 -16 -69
-60 -69 -40 0 -40 0 -40 -39 0 -44 -8 -52 -60 -61 l-35 -5 -5 -275 -5 -275
-39 -5 c-37 -5 -40 -8 -50 -50 -10 -43 -13 -45 -51 -50 -39 -5 -40 -6 -40 -45
l0 -40 328 -3 327 -2 0 45 c0 44 0 45 -34 45 -40 0 -53 13 -58 60 -3 33 -6 35
-43 40 -39 5 -40 6 -43 48 l-3 42 -45 0 -44 0 0 145 0 145 45 0 45 0 0 45 0
45 45 0 45 0 0 45 0 45 139 0 140 0 3 -37 c3 -35 6 -38 40 -44 21 -3 169 -5
330 -5 l293 1 3 43 3 42 43 0 c42 0 42 -1 52 -42 8 -41 11 -43 49 -48 38 -5
40 -7 45 -45 5 -38 7 -40 45 -45 38 -5 41 -7 51 -50 10 -42 13 -45 50 -50 38
-5 39 -6 42 -47 3 -41 5 -43 35 -43 58 0 59 -4 64 -171 6 -185 1 -206 -54
-211 l-38 -3 -5 -90 -5 -90 -41 -3 c-40 -3 -42 -4 -47 -43 -7 -50 -8 -51 -54
-58 -36 -6 -38 -8 -41 -49 l-3 -42 330 0 331 0 0 45 c0 40 -3 45 -22 45 -56 0
-68 10 -68 56 l0 43 -42 3 -43 3 0 90 0 90 43 3 42 3 0 184 c0 200 2 195 -60
195 l-29 0 -3 92 -3 93 -42 3 -42 3 -7 90 c-6 82 -8 89 -28 89 -48 0 -66 12
-66 40 0 43 -10 60 -34 60 -11 0 -31 3 -44 6 -22 6 -23 10 -20 93 l3 86 40 10
c22 5 43 14 47 20 4 5 8 45 8 87 l0 77 43 3 42 3 2 120 c4 163 5 165 52 165
l38 0 7 61 c3 34 6 118 6 185 l0 124 33 0 c45 0 55 10 59 55 3 39 4 40 45 43
l42 3 6 -45 c7 -46 20 -56 73 -56 l22 0 -2 -187 -3 -188 -42 -3 c-42 -3 -42
-3 -45 -45 l-3 -42 -90 -5 -90 -5 -3 -41 -3 -42 85 -3 c46 -2 87 -6 89 -9 3
-3 7 -43 9 -90 l3 -85 -45 -5 c-45 -5 -45 -5 -48 -47 l-3 -43 45 0 c45 0 46 1
46 33 0 48 12 59 56 55 l39 -3 3 -92 3 -93 44 0 45 0 0 83 c0 45 4 88 9 95 5
8 23 12 47 10 38 -3 39 -4 42 -45 l3 -43 50 0 c49 0 49 0 49 33 0 43 -15 57
-62 57 l-38 0 2 233 3 232 38 3 c30 3 40 9 47 28 6 14 10 119 10 234 l0 209
-49 7 -50 6 -3 42 c-3 41 -3 41 -48 46 -45 5 -45 5 -50 50 -5 45 -5 45 -47 48
-42 3 -42 3 -45 45 -3 42 -3 42 -45 45 -41 3 -42 4 -49 47 l-6 44 -87 3 -86 3
-3 40 c-4 45 -14 55 -59 55 -33 0 -33 0 -33 49 0 26 -3 69 -6 95 l-7 46 -43 0
-44 0 0 -49 c0 -26 -3 -69 -6 -95 l-7 -46 -87 0 -87 0 -7 46 c-3 26 -6 69 -6
95 0 47 -1 49 -29 49 -58 0 -61 4 -61 101 l0 89 -44 0 -43 0 -6 -67 c-4 -38
-7 -123 -7 -191 l0 -123 -42 3 c-43 3 -43 3 -46 44 -3 44 -16 54 -68 54 -20 0
-22 6 -25 84 -2 46 -7 87 -10 90 -3 4 -23 7 -45 9 l-39 2 -3 -92 -3 -92 -42
-3 c-42 -3 -42 -3 -51 -50 l-8 -48 -89 0 -88 0 -3 93 -3 92 -45 0 -45 0 -3
-42 c-3 -42 -4 -43 -41 -43 -47 0 -61 -14 -61 -63 l0 -38 -42 3 c-43 3 -43 3
-48 48 -5 45 -5 45 -46 48 l-41 3 -7 52 c-3 29 -6 91 -6 140 l0 87 -38 0 c-21
0 -42 -3 -45 -7z m658 -897 c7 -44 8 -45 49 -48 41 -3 41 -3 44 -45 3 -45 7
-48 72 -55 29 -3 38 -34 20 -67 -8 -16 -21 -21 -50 -21 -39 0 -39 0 -42 -42
-3 -43 -3 -43 -44 -46 -41 -3 -42 -4 -49 -48 l-6 -45 -42 3 c-41 3 -42 4 -45
40 -3 39 -7 41 -67 50 -15 2 -21 13 -25 43 -5 39 -6 40 -47 43 l-43 3 0 45 c0
42 2 44 28 44 40 0 60 19 64 60 3 33 5 35 46 38 l42 3 0 45 0 44 44 0 45 0 6
-44z m475 -191 l0 -45 44 0 c48 0 58 -14 49 -64 -5 -23 -10 -26 -49 -26 l-44
0 0 45 0 45 -45 0 -45 0 0 45 0 45 45 0 45 0 0 -45z m-100 -91 l0 -45 -42 3
c-39 3 -43 6 -46 31 -6 46 4 57 48 57 l40 0 0 -46z m-866 -50 c18 -7 23 -79 6
-89 -5 -3 -25 -3 -45 1 -33 6 -35 9 -35 44 0 45 28 62 74 44z m964 -41 l3 -43
-45 0 -46 0 0 46 0 45 43 -3 c42 -3 42 -3 45 -45z m-1040 -101 l3 -43 -48 3
c-44 3 -48 5 -51 31 -6 49 3 58 50 55 43 -3 43 -3 46 -46z m182 3 l0 -45 -44
0 -45 0 -3 -47 -3 -48 -42 -3 -43 -3 0 45 c0 44 1 46 29 46 52 0 61 8 61 56
l0 44 45 0 45 0 0 -45z m723 -51 c33 -6 37 -10 37 -38 0 -44 10 -54 55 -58 39
-3 40 -4 43 -45 3 -45 0 -48 -68 -55 -22 -3 -25 -9 -28 -45 l-3 -43 -133 0
c-130 0 -134 1 -140 23 -3 12 -6 32 -6 45 0 18 -6 22 -32 22 -49 0 -60 12 -56
56 3 38 4 39 46 42 42 3 42 3 42 42 0 27 6 42 18 49 19 11 166 14 225 5z
m-525 -141 c3 -39 1 -43 -20 -43 -13 0 -33 -3 -45 -6 -19 -5 -23 -1 -28 30
-11 56 -2 68 47 64 43 -3 43 -3 46 -45z m-100 -95 c-3 -43 -3 -43 -43 -43 -40
0 -40 0 -43 43 l-3 42 46 0 46 0 -3 -42z m190 0 c-3 -43 -3 -43 -45 -46 -42
-3 -42 -3 -45 -45 -3 -42 -3 -42 -45 -45 l-43 -3 0 45 0 46 45 0 45 0 0 45 0
45 46 0 45 0 -3 -42z"/>
<path d="M1344 2286 c-3 -13 -4 -35 -2 -47 2 -20 10 -24 46 -27 l42 -3 0 50 0
51 -40 0 c-33 0 -41 -4 -46 -24z"/>
<path d="M1630 1786 l0 -46 46 0 45 0 -3 43 c-3 42 -3 42 -45 45 l-43 3 0 -45z"/>
</g>
</svg>
