<?xml version="1.0" standalone="no"?>
<!DOCTYPE svg PUBLIC "-//W3C//DTD SVG 20010904//EN"
 "http://www.w3.org/TR/2001/REC-SVG-20010904/DTD/svg10.dtd">
<svg version="1.0" xmlns="http://www.w3.org/2000/svg"
 width="300.000000pt" height="337.000000pt" viewBox="0 0 300.000000 337.000000"
 preserveAspectRatio="xMidYMid meet">
<metadata>
Created by potrace 1.10, written by Peter Selinger 2001-2011
</metadata>
<g transform="translate(0.000000,337.000000) scale(0.100000,-0.100000)"
fill="#000000" stroke="none">
<path d="M777 3343 c-4 -3 -7 -109 -7 -234 0 -198 -2 -228 -16 -233 -9 -3 -49
-6 -90 -6 l-74 0 0 -28 c0 -51 -17 -61 -110 -64 l-85 -3 -3 -42 c-3 -37 -6
-43 -25 -43 -44 0 -67 -12 -67 -34 0 -52 -10 -65 -54 -68 l-41 -3 -5 -90 -5
-90 -43 -3 -42 -3 2 -187 3 -187 40 -5 40 -5 0 -185 0 -185 -42 -3 c-42 -3
-42 -3 -45 -45 -3 -36 -6 -42 -28 -45 -66 -7 -70 -10 -70 -52 l0 -40 50 0 50
0 0 46 0 45 43 -3 42 -3 3 -137 3 -138 44 0 45 0 0 44 c0 24 3 64 6 90 l7 46
43 0 43 0 3 -42 3 -43 45 0 c48 0 58 12 46 59 -4 18 -15 25 -47 29 -22 3 -43
7 -45 10 -3 3 -2 44 2 91 l7 86 43 0 44 0 0 -45 0 -45 45 0 45 0 0 45 0 45
-44 0 -45 0 -3 42 c-3 40 -5 43 -43 50 -21 5 -43 14 -47 21 -9 14 -11 471 -2
516 6 30 9 32 48 29 40 -3 41 -4 46 -43 5 -39 6 -40 47 -43 l41 -3 7 -189 8
-189 41 -3 41 -3 0 -230 0 -230 -42 -3 c-40 -3 -43 -5 -43 -33 0 -51 -16 -69
-60 -69 -40 0 -40 0 -40 -39 0 -44 -8 -52 -60 -61 l-35 -5 -5 -275 -5 -275
-39 -5 c-37 -5 -40 -8 -50 -50 -10 -43 -13 -45 -51 -50 -39 -5 -40 -6 -40 -45
l0 -40 328 -3 327 -2 0 45 c0 44 0 45 -34 45 -40 0 -53 13 -58 60 -3 33 -6 35
-43 40 -39 5 -40 6 -43 48 l-3 42 -45 0 -44 0 0 145 0 145 45 0 45 0 0 45 0
45 45 0 45 0 0 45 0 45 139 0 140 0 3 -37 c3 -35 6 -38 40 -44 21 -3 169 -5
330 -5 l293 1 3 43 3 42 43 0 c42 0 42 -1 52 -42 8 -41 11 -43 49 -48 38 -5
40 -7 45 -45 5 -38 7 -40 45 -45 38 -5 41 -7 51 -50 10 -42 13 -45 50 -50 38
-5 39 -6 42 -47 3 -41 5 -43 35 -43 58 0 59 -4 64 -171 6 -185 1 -206 -54
-211 l-38 -3 -5 -90 -5 -90 -41 -3 c-40 -3 -42 -4 -47 -43 -7 -50 -8 -51 -54
-58 -36 -6 -38 -8 -41 -49 l-3 -42 330 0 331 0 0 45 c0 40 -3 45 -22 45 -56 0
-68 10 -68 56 l0 43 -42 3 -43 3 0 90 0 90 43 3 42 3 0 184 c0 200 2 195 -60
195 l-29 0 -3 92 -3 93 -42 3 -42 3 -7 90 c-6 82 -8 89 -28 89 -48 0 -66 12
-66 40 0 43 -10 60 -34 60 -11 0 -31 3 -44 6 -22 6 -23 10 -20 93 l3 86 40 10
c22 5 43 14 47 20 4 5 8 45 8 87 l0 77 43 3 42 3 2 120 c4 163 5 165 52 165
l38 0 7 61 c3 34 6 118 6 185 l0 124 33 0 c45 0 55 10 59 55 3 39 4 40 45 43
l42 3 6 -45 c7 -46 20 -56 73 -56 l22 0 -2 -187 -3 -188 -42 -3 c-42 -3 -42
-3 -45 -45 l-3 -42 -90 -5 -90 -5 -3 -41 -3 -42 85 -3 c46 -2 87 -6 89 -9 3
-3 7 -43 9 -90 l3 -85 -45 -5 c-45 -5 -45 -5 -48 -47 l-3 -43 45 0 c45 0 46 1
46 33 0 48 12 59 56 55 l39 -3 3 -92 3 -93 44 0 45 0 0 83 c0 45 4 88 9 95 5
8 23 12 47 10 38 -3 39 -4 42 -45 l3 -43 50 0 c49 0 49 0 49 33 0 43 -15 57
-62 57 l-38 0 2 233 3 232 38 3 c30 3 40 9 47 28 6 14 10 119 10 234 l0 209
-49 7 -50 6 -3 42 c-3 41 -3 41 -48 46 -45 5 -45 5 -50 50 -5 45 -5 45 -47 48
-42 3 -42 3 -45 45 -3 42 -3 42 -45 45 -41 3 -42 4 -49 47 l-6 44 -87 3 -86 3
-3 40 c-4 45 -14 55 -59 55 -33 0 -33 0 -33 49 0 26 -3 69 -6 95 l-7 46 -43 0
-44 0 0 -49 c0 -26 -3 -69 -6 -95 l-7 -46 -87 0 -87 0 -7 46 c-3 26 -6 69 -6
95 0 47 -1 49 -29 49 -58 0 -61 4 -61 101 l0 89 -44 0 -43 0 -6 -67 c-4 -38
-7 -123 -7 -191 l0 -123 -42 3 c-43 3 -43 3 -46 44 -3 44 -16 54 -68 54 -20 0
-22 6 -25 84 -2 46 -7 87 -10 90 -3 4 -23 7 -45 9 l-39 2 -3 -92 -3 -92 -42
-3 c-42 -3 -42 -3 -51 -50 l-8 -48 -89 0 -88 0 -3 93 -3 92 -45 0 -45 0 -3
-42 c-3 -42 -4 -43 -41 -43 -47 0 -61 -14 -61 -63 l0 -38 -42 3 c-43 3 -43 3
-48 48 -5 45 -5 45 -46 48 l-41 3 -7 52 c-3 29 -6 91 -6 140 l0 87 -38 0 c-21
0 -42 -3 -45 -7z m953 -528 c0 -43 1 -45 29 -45 50 0 61 -9 61 -50 0 -41 -11
-50 -60 -50 -27 0 -29 -3 -32 -42 -3 -43 -3 -43 -45 -46 l-43 -3 0 45 0 46 45
0 45 0 0 50 0 50 -45 0 -45 0 0 45 0 45 45 0 45 0 0 -45z m408 -17 c3 -21 9
-27 30 -30 21 -2 28 -9 30 -30 3 -24 8 -28 33 -28 26 0 29 -3 29 -30 0 -27 -3
-30 -29 -30 -25 0 -30 -4 -33 -27 -2 -22 -9 -29 -30 -31 -24 -3 -28 -8 -28
-33 0 -25 -4 -29 -29 -29 -25 0 -30 4 -33 28 -2 21 -9 28 -30 30 -21 3 -27 9
-30 30 -2 21 -9 28 -31 30 -24 3 -28 7 -25 30 2 18 10 28 28 32 18 4 26 13 28
33 3 22 8 27 33 27 26 0 29 3 29 31 0 27 3 30 28 27 21 -2 28 -9 30 -30z
m-508 -72 c0 -40 -2 -44 -30 -49 -46 -10 -60 0 -60 43 0 41 7 47 63 49 25 1
27 -1 27 -43z m-680 7 c0 -40 11 -51 50 -55 32 -3 35 -6 40 -38 5 -32 8 -35
45 -40 38 -5 40 -7 40 -40 0 -34 -1 -35 -42 -38 -41 -3 -43 -4 -43 -37 0 -35
-13 -45 -55 -45 -24 0 -35 -17 -35 -56 0 -21 -4 -24 -39 -24 -39 0 -40 1 -43
37 -3 35 -5 38 -45 46 -41 8 -43 10 -43 43 0 33 -1 34 -40 34 -40 0 -40 0 -40
39 0 39 1 40 38 43 34 3 37 6 42 38 5 33 7 35 48 38 42 3 42 3 42 43 0 39 0
39 40 39 37 0 40 -2 40 -27z m485 -287 c7 -44 8 -45 49 -48 41 -3 41 -3 44
-45 3 -45 7 -48 72 -55 29 -3 38 -34 20 -67 -8 -16 -21 -21 -50 -21 -39 0 -39
0 -42 -42 -3 -43 -3 -43 -44 -46 -41 -3 -42 -4 -49 -48 l-6 -45 -42 3 c-41 3
-42 4 -45 40 -3 39 -7 41 -67 50 -15 2 -21 13 -25 43 -5 39 -6 40 -47 43 l-43
3 0 45 c0 42 2 44 28 44 40 0 60 19 64 60 3 33 5 35 46 38 l42 3 0 45 0 44 44
0 45 0 6 -44z m475 -191 l0 -45 44 0 c48 0 58 -14 49 -64 -5 -23 -10 -26 -49
-26 l-44 0 0 45 0 45 -45 0 -45 0 0 45 0 45 45 0 45 0 0 -45z m-100 -91 l0
-45 -42 3 c-39 3 -43 6 -46 31 -6 46 4 57 48 57 l40 0 0 -46z m-866 -50 c18
-7 23 -79 6 -89 -5 -3 -25 -3 -45 1 -33 6 -35 9 -35 44 0 45 28 62 74 44z
m964 -41 l3 -43 -45 0 -46 0 0 46 0 45 43 -3 c42 -3 42 -3 45 -45z m-1040
-101 l3 -43 -48 3 c-44 3 -48 5 -51 31 -6 49 3 58 50 55 43 -3 43 -3 46 -46z
m182 3 l0 -45 -45 0 c-38 0 -45 -3 -45 -20 0 -17 -7 -20 -45 -20 -33 0 -45 4
-45 15 0 10 10 15 29 15 52 0 61 8 61 56 l0 44 45 0 45 0 0 -45z m543 -167 c4
-46 7 -113 7 -150 0 -83 22 -130 60 -126 14 2 26 10 28 21 3 13 -3 17 -27 17
l-31 0 0 135 c0 126 1 135 19 135 11 0 26 3 35 6 11 4 19 -2 26 -20 5 -14 14
-26 20 -26 5 0 10 -9 10 -20 0 -10 9 -24 20 -30 17 -9 20 -21 20 -70 l0 -60
-45 0 c-38 0 -45 -3 -45 -20 0 -10 7 -23 16 -28 23 -13 15 -120 -9 -134 -11
-6 -17 -22 -17 -48 0 -39 -1 -40 -34 -40 -33 0 -35 2 -40 43 -4 23 -7 71 -9
106 -1 40 -7 66 -14 68 -9 3 -13 -28 -15 -123 -2 -91 -7 -129 -15 -132 -10 -3
-13 17 -13 77 0 63 -3 83 -15 87 -12 5 -15 30 -15 134 0 101 -3 132 -15 144
-10 10 -15 35 -15 75 l0 61 54 0 53 0 6 -82z m-673 -28 c0 -10 9 -24 21 -30
19 -11 19 -13 5 -29 -13 -14 -16 -43 -16 -149 0 -111 -2 -132 -15 -132 -12 0
-15 -14 -15 -65 0 -54 -3 -65 -17 -65 -14 0 -15 14 -10 137 4 75 7 185 7 245
0 101 1 108 20 108 13 0 20 -7 20 -20z m529 -6 c2 -10 8 -22 14 -25 5 -4 10
-45 11 -90 1 -83 1 -84 -25 -87 -26 -3 -26 -2 -31 75 -6 98 0 155 16 150 6 -2
13 -12 15 -23z m-609 -114 c0 -49 -4 -90 -9 -90 -16 0 -51 79 -51 114 0 50 9
66 36 66 24 0 24 -2 24 -90z m390 49 c0 -33 3 -40 18 -37 12 2 18 14 20 41 3
36 4 37 43 37 23 0 39 -5 39 -12 0 -6 7 -19 15 -29 10 -10 17 -39 18 -75 l2
-59 -42 -3 c-43 -3 -43 -3 -43 32 0 19 -3 41 -6 50 -10 27 -24 7 -24 -36 0
-31 -4 -41 -20 -45 -11 -3 -20 -14 -20 -24 0 -14 -7 -19 -25 -19 -16 0 -25 6
-25 16 0 9 -9 18 -20 21 -18 5 -20 14 -20 78 0 97 4 105 51 105 39 0 39 0 39
-41z m668 -21 c-3 -60 -4 -63 -30 -66 -20 -2 -28 -9 -28 -23 0 -11 -7 -22 -15
-25 -19 -8 -20 -44 -1 -44 7 0 16 9 19 20 3 12 14 20 25 20 26 0 37 -16 18
-27 -9 -5 -16 -27 -18 -53 l-3 -45 -55 0 -55 0 -3 63 c-3 60 -2 62 21 62 28 0
37 16 37 68 0 20 3 54 6 75 6 35 8 37 46 37 l39 0 -3 -62z m-880 -56 l3 -63
-28 3 c-27 3 -28 5 -31 66 l-3 63 28 -3 c27 -3 28 -5 31 -66z m87 13 c3 -30
13 -62 22 -70 23 -24 9 -45 -32 -45 l-35 0 0 85 c0 77 2 85 19 85 15 0 20 -10
26 -55z m850 -10 c0 -38 -4 -60 -12 -62 -10 -4 -13 13 -13 62 0 49 3 66 13 63
8 -3 12 -25 12 -63z m65 -25 c0 -16 -4 -32 -10 -35 -6 -4 -10 10 -10 35 0 25
4 39 10 35 6 -3 10 -19 10 -35z m-32 -77 c2 -17 -3 -37 -11 -44 -7 -8 -16 -22
-20 -31 -9 -24 -27 -23 -27 2 0 11 -7 23 -15 26 -23 9 -18 20 15 34 19 8 30
20 30 32 0 32 25 15 28 -19z m49 -25 c-2 -13 -4 -3 -4 22 0 25 2 35 4 23 2
-13 2 -33 0 -45z m-1197 -29 c0 -35 -3 -39 -24 -39 -31 0 -40 14 -22 32 7 8
17 24 20 36 11 33 26 16 26 -29z m180 -40 l0 -90 -37 3 c-30 2 -38 8 -46 31
-7 22 -5 32 7 46 9 10 16 33 16 53 0 41 5 48 37 48 22 0 23 -2 23 -91z m248
48 c2 -27 -1 -38 -17 -46 -18 -10 -21 -23 -23 -99 -3 -79 -5 -87 -23 -87 -12
0 -21 8 -24 20 -2 11 -10 25 -19 31 -12 9 -16 31 -16 90 l-1 79 42 3 c34 3 42
7 47 28 9 36 30 24 34 -19z m82 -41 c0 -55 -5 -94 -15 -112 -8 -16 -15 -39
-15 -51 0 -31 -16 -29 -24 2 -4 14 -11 25 -16 25 -13 0 -13 117 -1 125 6 3 13
26 17 50 5 39 10 45 30 45 23 0 24 -2 24 -84z m126 67 c3 -10 10 -26 15 -35
15 -30 11 -125 -6 -132 -8 -3 -15 -12 -15 -21 0 -24 -51 -20 -57 5 -3 11 -9
20 -14 20 -5 0 -9 41 -9 90 l0 90 40 0 c30 0 42 -5 46 -17z m-366 -118 l0 -85
-40 0 c-40 0 -53 13 -25 24 11 4 15 22 15 76 0 68 1 70 25 70 25 0 25 -1 25
-85z m905 66 c3 -5 1 -12 -5 -16 -5 -3 -10 1 -10 9 0 18 6 21 15 7z m-34 -54
c-13 -13 -26 -3 -16 12 3 6 11 8 17 5 6 -4 6 -10 -1 -17z"/>
<path d="M2080 2680 c0 -27 3 -30 30 -30 27 0 30 3 30 30 0 27 -3 30 -30 30
-27 0 -30 -3 -30 -30z"/>
<path d="M872 2563 c3 -36 5 -38 38 -38 33 0 35 2 38 38 l3 37 -41 0 -41 0 3
-37z"/>
<path d="M1344 2286 c-3 -13 -4 -35 -2 -47 2 -20 10 -24 46 -27 l42 -3 0 50 0
51 -40 0 c-33 0 -41 -4 -46 -24z"/>
</g>
</svg>
