<?xml version="1.0" standalone="no"?>
<!DOCTYPE svg PUBLIC "-//W3C//DTD SVG 20010904//EN"
 "http://www.w3.org/TR/2001/REC-SVG-20010904/DTD/svg10.dtd">
<svg version="1.0" xmlns="http://www.w3.org/2000/svg"
 width="300.000000pt" height="241.000000pt" viewBox="0 0 300.000000 241.000000"
 preserveAspectRatio="xMidYMid meet">
<metadata>
Created by potrace 1.10, written by Peter Selinger 2001-2011
</metadata>
<g transform="translate(0.000000,241.000000) scale(0.100000,-0.100000)"
fill="#000000" stroke="none">
<path d="M0 1686 c0 -651 2 -724 16 -730 9 -3 40 -6 70 -6 l54 0 0 -385 0
-385 -32 0 c-18 0 -50 -3 -70 -6 l-38 -7 0 -83 0 -84 1328 1 c754 1 1299 5
1263 10 -35 4 -68 12 -73 17 -5 5 -7 73 -6 153 l3 144 68 7 c38 3 72 9 75 13
4 4 9 70 12 148 l5 142 68 5 c45 3 71 10 77 20 5 8 10 113 10 233 l0 217 63 0
c34 0 67 4 73 8 13 8 20 218 30 900 l6 392 -1501 0 -1501 0 0 -724z m1398 339
c1 -16 5 -49 8 -72 l5 -43 47 -1 c91 -2 96 -6 104 -83 3 -37 9 -70 11 -73 3
-2 36 -8 74 -11 l68 -7 3 -58 c4 -77 -5 -87 -83 -87 -72 0 -75 -3 -75 -86 0
-49 -2 -55 -26 -64 -14 -6 -47 -10 -74 -10 l-49 0 -5 -42 c-3 -24 -7 -56 -8
-73 l-3 -30 -70 0 -70 0 -5 70 -5 70 -65 7 c-76 9 -90 22 -90 88 0 25 -5 51
-12 58 -7 7 -35 12 -63 12 -28 0 -56 5 -63 12 -7 7 -12 39 -12 75 l0 63 48 1
c91 2 96 6 104 83 3 37 9 71 13 74 3 4 37 8 76 10 l69 4 0 67 c0 37 3 71 7 75
4 4 37 6 73 4 64 -3 65 -3 68 -33z m792 -320 c4 -16 4 -49 2 -73 l-4 -43 -72
3 -71 3 -3 59 c-4 86 -3 87 75 84 66 -3 67 -4 73 -33z m-160 -196 l0 -82 -64
5 c-35 3 -69 9 -75 12 -16 10 -14 133 2 139 6 3 40 6 75 6 l62 1 0 -81z m308
69 c13 -13 16 -106 4 -124 -12 -19 -51 -26 -98 -19 l-44 6 0 75 0 74 63 0 c36
0 68 -5 75 -12z m-1728 -223 l0 -76 -72 3 -73 3 -3 59 c-4 85 -4 86 78 86 l70
0 0 -75z m1581 48 c7 -18 8 -44 2 -73 l-8 -45 -70 0 -70 0 -3 73 -3 72 71 0
c68 0 71 -1 81 -27z m-1743 -139 c9 -3 12 -24 10 -76 l-3 -73 -68 0 c-77 0
-87 8 -87 70 0 56 9 83 29 88 17 3 98 -2 119 -9z m310 -66 l3 -76 -76 -7 -75
-7 0 -74 0 -73 -44 -6 c-25 -4 -57 -3 -73 2 -27 9 -28 13 -31 81 l-3 72 76 0
75 0 0 79 0 80 43 4 c23 2 56 4 72 3 l30 -1 3 -77z m1272 -160 c3 -36 9 -70
13 -74 4 -5 40 -10 78 -12 l70 -4 -3 -72 -3 -71 -68 -6 c-43 -4 -72 -11 -78
-20 -5 -8 -9 -40 -9 -71 l0 -58 -230 0 -230 0 0 58 c0 31 -4 64 -9 71 -6 10
-33 16 -76 19 -61 4 -67 7 -76 31 -6 14 -7 47 -4 72 l7 47 68 4 c38 2 72 7 77
11 4 5 9 39 11 78 l4 69 227 -2 226 -3 5 -67z m-942 -165 l3 -73 -76 0 -75 0
0 75 0 76 73 -3 72 -3 3 -72z m-160 -150 l3 -72 -45 -6 c-72 -11 -103 0 -110
41 -4 19 -4 49 0 68 7 39 19 45 99 42 l50 -1 3 -72z m320 6 c4 -76 -10 -89
-93 -89 l-64 0 -3 -72 -3 -73 -70 0 -70 0 -3 73 -3 72 76 0 75 0 0 75 0 76 78
-3 77 -3 3 -56z"/>
<path d="M1262 1738 c-17 -17 -16 -122 2 -137 9 -7 38 -11 73 -9 l58 3 0 75 0
75 -60 3 c-38 2 -65 -2 -73 -10z"/>
<path d="M1720 891 c0 -89 1 -91 80 -91 l69 0 6 54 c12 90 11 91 -78 94 l-77
3 0 -60z"/>
<path d="M2993 875 c0 -44 2 -61 4 -37 2 23 2 59 0 80 -2 20 -4 1 -4 -43z"/>
</g>
</svg>
