<?xml version="1.0" standalone="no"?>
<!DOCTYPE svg PUBLIC "-//W3C//DTD SVG 20010904//EN"
 "http://www.w3.org/TR/2001/REC-SVG-20010904/DTD/svg10.dtd">
<svg version="1.0" xmlns="http://www.w3.org/2000/svg"
 width="300.000000pt" height="300.000000pt" viewBox="0 0 300.000000 300.000000"
 preserveAspectRatio="xMidYMid meet">
<metadata>
Created by potrace 1.10, written by Peter Selinger 2001-2011
</metadata>
<g transform="translate(0.000000,300.000000) scale(0.100000,-0.100000)"
 stroke="none">
<path d="M2457 2908 c-14 -13 -39 -61 -57 -108 -76 -198 -236 -492 -293 -539
-22 -18 -21 -34 3 -56 11 -10 34 -40 52 -68 l32 -50 38 44 c66 75 157 218 220
342 78 156 148 328 148 364 0 27 -22 70 -44 85 -22 16 -75 8 -99 -14z"/>
<path d="M2616 2502 c-2 -4 -12 -43 -21 -87 -45 -216 55 -443 249 -564 28 -17
53 -31 57 -31 4 0 15 34 25 77 49 219 -52 462 -242 582 -50 33 -60 36 -68 23z"/>
<path d="M1495 2470 c-22 -4 -63 -17 -91 -28 -56 -21 -164 -89 -164 -103 0
-12 99 -85 131 -98 23 -8 30 -6 50 15 34 36 154 92 224 105 83 16 190 6 264
-24 34 -14 63 -21 66 -17 10 16 -125 102 -196 127 -78 27 -215 38 -284 23z"/>
<path d="M1625 2220 c-166 -55 -263 -201 -253 -384 5 -97 41 -183 74 -178 10
2 63 6 117 9 84 5 108 2 169 -18 39 -12 94 -38 122 -56 l50 -34 65 30 c56 25
71 38 98 81 72 118 69 270 -9 392 -90 142 -276 210 -433 158z"/>
<path d="M1063 2075 c-57 -17 -135 -68 -174 -113 -92 -104 -123 -293 -67 -410
12 -25 19 -27 91 -33 62 -5 94 -14 151 -43 l73 -36 79 78 79 77 -23 58 c-48
121 -53 245 -14 360 l19 57 -36 10 c-49 13 -127 11 -178 -5z"/>
<path d="M1473 1526 c-178 -58 -295 -243 -264 -418 23 -131 94 -229 207 -284
54 -26 68 -29 164 -29 95 0 111 3 162 28 280 138 283 545 5 682 -70 34 -204
44 -274 21z"/>
<path d="M2069 1491 c-81 -26 -81 -25 -48 -84 56 -104 75 -252 45 -362 l-13
-51 35 -34 c33 -34 102 -160 102 -189 0 -24 101 -7 170 30 75 40 123 92 163
178 28 58 31 76 31 151 -1 104 -27 177 -84 243 -103 117 -260 163 -401 118z"/>
<path d="M731 1370 c-103 -38 -191 -128 -228 -234 -12 -35 -18 -79 -17 -141 0
-75 4 -99 26 -147 116 -251 486 -285 642 -59 l28 41 -30 47 c-52 82 -74 150
-79 248 -3 50 0 110 6 135 12 55 3 68 -72 101 -74 32 -202 37 -276 9z"/>
<path d="M1953 821 c-45 -54 -143 -117 -222 -142 -92 -30 -224 -29 -306 0 -92
33 -90 34 -93 -33 -8 -163 106 -325 261 -371 77 -23 181 -19 249 9 109 45 179
120 217 234 25 73 27 140 5 212 -16 54 -58 130 -72 130 -4 0 -21 -18 -39 -39z"/>
<path d="M339 806 c-198 -53 -320 -267 -264 -462 33 -115 97 -188 212 -242 49
-23 71 -27 149 -27 84 0 95 3 165 37 40 20 87 50 102 66 l29 30 -27 40 c-44
66 -67 141 -72 233 l-6 86 -34 19 c-52 28 -139 117 -174 179 -17 30 -32 55
-32 54 -1 0 -23 -6 -48 -13z"/>
<path d="M1165 604 c-80 -65 -236 -108 -347 -97 -67 7 -68 6 -43 -92 30 -116
123 -215 242 -257 106 -37 260 -13 348 55 20 15 19 17 -22 59 -82 85 -132 197
-145 330 l-3 26 -30 -24z"/>
</g>
</svg>
