<?xml version="1.0" standalone="no"?>
<!DOCTYPE svg PUBLIC "-//W3C//DTD SVG 20010904//EN"
 "http://www.w3.org/TR/2001/REC-SVG-20010904/DTD/svg10.dtd">
<svg version="1.0" xmlns="http://www.w3.org/2000/svg"
 width="300.000000pt" height="300.000000pt" viewBox="0 0 300.000000 300.000000"
 preserveAspectRatio="xMidYMid meet">
<metadata>
Created by potrace 1.10, written by Peter Selinger 2001-2011
</metadata>
<g transform="translate(0.000000,300.000000) scale(0.100000,-0.100000)"
fill="#000000" stroke="none">
<path d="M635 2821 c-292 -71 -504 -314 -556 -636 -18 -114 -7 -299 26 -410
50 -173 155 -357 310 -545 43 -52 299 -317 569 -587 389 -391 495 -493 516
-493 20 0 121 96 500 477 572 575 690 711 806 935 152 296 164 604 33 873 -91
187 -262 330 -459 384 -55 15 -104 21 -185 21 -133 0 -222 -22 -340 -83 -100
-52 -228 -176 -305 -294 l-53 -83 -35 58 c-125 208 -304 343 -512 387 -93 20
-227 18 -315 -4z m1726 -86 c211 -55 390 -241 455 -471 10 -36 18 -114 21
-197 7 -186 -14 -278 -103 -454 -118 -235 -225 -360 -804 -938 l-400 -400 0
988 0 988 26 52 c129 256 324 416 549 451 53 8 191 -2 256 -19z"/>
</g>
</svg>
