<?xml version="1.0" standalone="no"?>
<!DOCTYPE svg PUBLIC "-//W3C//DTD SVG 20010904//EN"
 "http://www.w3.org/TR/2001/REC-SVG-20010904/DTD/svg10.dtd">
<svg version="1.0" xmlns="http://www.w3.org/2000/svg"
 width="224.000000pt" height="280.000000pt" viewBox="0 0 224.000000 280.000000"
 preserveAspectRatio="xMidYMid meet">
<g transform="translate(0.000000,280.000000) scale(0.100000,-0.100000)"
fill="#000000" stroke="none">
<path d="M1122 2719 c-26 -13 -55 -39 -70 -62 l-27 -40 -5 -351 c-4 -275 -7
-343 -16 -316 -6 19 -44 156 -85 304 -40 148 -82 283 -94 299 -30 45 -68 69
-118 74 -60 7 -110 -11 -146 -52 -61 -70 -61 -68 38 -532 91 -422 125 -602
118 -609 -2 -3 -21 24 -42 58 -22 34 -71 95 -110 135 -87 88 -154 123 -238
123 -68 0 -110 -16 -159 -59 -66 -58 -56 -113 36 -199 31 -29 56 -56 56 -58 0
-3 15 -24 34 -45 19 -22 36 -50 39 -62 114 -500 125 -528 262 -662 117 -115
119 -119 123 -307 4 -166 10 -186 52 -173 19 6 20 14 20 173 0 206 -9 230
-124 342 -126 123 -154 179 -206 414 -43 192 -70 276 -102 318 -15 20 -28 40
-28 44 0 4 -29 33 -65 66 -36 33 -65 66 -65 73 0 26 71 59 125 59 67 0 116
-28 191 -106 68 -70 113 -136 168 -245 39 -78 78 -115 99 -94 18 18 13 228 -7
336 -10 50 -55 268 -102 486 -46 218 -84 403 -84 413 0 64 71 108 133 83 44
-19 42 -13 172 -487 58 -212 110 -395 115 -407 11 -25 48 -31 68 -11 8 8 12
65 12 193 0 99 3 313 7 475 l6 295 28 27 c39 40 99 39 140 -1 l29 -29 1 -169
c1 -92 5 -314 8 -493 l6 -325 34 0 c28 0 36 5 42 25 4 14 42 205 85 425 72
372 80 402 105 428 35 35 77 36 118 1 24 -20 31 -34 31 -62 0 -21 -28 -223
-62 -451 -44 -296 -58 -418 -51 -430 16 -26 50 -25 66 1 8 13 58 149 112 303
106 305 119 329 181 329 42 0 84 -39 84 -78 0 -12 -21 -90 -46 -172 -25 -82
-52 -178 -60 -214 -8 -36 -18 -74 -24 -85 -39 -82 -70 -275 -80 -490 -9 -220
-11 -227 -108 -400 l-67 -120 -3 -211 c-3 -179 -1 -212 12 -223 8 -7 24 -10
35 -6 18 6 20 17 23 208 l3 202 68 122 c93 165 103 202 111 403 3 91 13 208
21 260 15 94 49 228 65 259 5 9 15 45 24 81 8 36 36 135 61 220 49 167 50 188
10 251 -57 88 -195 92 -257 8 -14 -19 -42 -84 -63 -146 -22 -62 -41 -111 -43
-109 -2 2 13 113 34 246 32 212 35 247 24 283 -25 85 -117 139 -200 117 -47
-13 -93 -50 -109 -87 -6 -16 -33 -136 -60 -268 l-49 -240 -1 300 c-1 268 -3
304 -20 340 -22 48 -44 69 -94 90 -50 21 -94 19 -145 -6z"/>
</g>
</svg>
