<?xml version="1.0" standalone="no"?>
<!DOCTYPE svg PUBLIC "-//W3C//DTD SVG 20010904//EN"
 "http://www.w3.org/TR/2001/REC-SVG-20010904/DTD/svg10.dtd">
<svg version="1.0" xmlns="http://www.w3.org/2000/svg"
 width="600.000000pt" height="750.000000pt" viewBox="0 0 600.000000 750.000000"
 preserveAspectRatio="xMidYMid meet">
<g transform="translate(0.000000,750.000000) scale(0.100000,-0.100000)"
fill="#000000" stroke="none">
<path d="M3090 7319 c-86 -37 -151 -75 -191 -112 -57 -51 -120 -153 -130 -210
-4 -23 -13 -64 -18 -92 -6 -31 -11 -375 -13 -904 -2 -673 -6 -855 -15 -859 -7
-2 -13 2 -13 10 0 7 -7 26 -15 41 -8 15 -19 49 -24 75 -25 118 -51 221 -62
247 -14 31 -30 86 -39 130 -7 37 -18 77 -55 205 -25 82 -47 165 -55 200 -5 19
-16 60 -25 90 -9 30 -20 71 -24 90 -4 19 -13 45 -19 57 -7 12 -12 32 -12 44 0
19 -20 91 -41 144 -4 11 -10 34 -13 50 -8 51 -28 119 -42 147 -8 14 -14 36
-14 47 0 19 -7 38 -32 81 -4 8 -12 25 -18 37 -14 34 -114 125 -162 149 -103
51 -117 54 -218 54 -102 0 -110 -2 -226 -57 -70 -33 -184 -155 -184 -196 0 -8
-6 -20 -14 -26 -14 -11 -17 -26 -32 -139 -7 -53 2 -113 32 -218 8 -28 14 -64
14 -79 0 -16 4 -42 9 -59 10 -32 21 -78 47 -201 8 -38 19 -88 23 -110 14 -62
41 -194 52 -254 5 -29 14 -62 19 -72 6 -10 10 -32 10 -50 0 -18 4 -46 10 -63
9 -29 17 -67 55 -251 9 -44 21 -98 27 -120 6 -22 14 -62 19 -90 17 -108 49
-262 63 -310 8 -27 20 -77 26 -110 6 -33 18 -85 25 -115 14 -55 40 -188 49
-245 3 -16 12 -64 21 -105 9 -41 20 -118 25 -170 5 -52 12 -114 16 -137 7 -48
-9 -60 -26 -20 -29 64 -138 231 -218 332 -60 76 -326 345 -341 345 -5 0 -22
11 -38 24 -124 103 -345 161 -523 137 -131 -18 -197 -46 -309 -133 -91 -72
-117 -112 -138 -219 -5 -26 13 -91 39 -139 14 -28 273 -289 304 -306 10 -6 21
-23 24 -37 3 -15 34 -57 70 -94 36 -37 65 -72 65 -78 0 -6 10 -24 21 -40 12
-17 24 -50 28 -75 3 -25 13 -58 20 -75 8 -16 22 -57 31 -90 8 -33 20 -74 25
-91 6 -17 10 -45 10 -63 0 -18 5 -41 11 -52 6 -11 14 -41 19 -67 5 -26 17 -81
25 -122 9 -41 20 -98 25 -127 4 -28 11 -57 15 -62 3 -6 10 -32 15 -59 8 -42
18 -82 49 -206 5 -21 14 -43 20 -49 6 -6 11 -19 11 -29 0 -9 7 -34 16 -55 9
-21 21 -49 26 -63 16 -41 40 -94 49 -110 5 -8 18 -33 29 -55 11 -22 29 -53 40
-70 11 -16 23 -37 27 -45 20 -45 128 -177 212 -260 96 -95 113 -110 184 -164
58 -44 146 -171 130 -187 -4 -4 -30 -19 -58 -35 -65 -35 -145 -98 -168 -132
-88 -132 -75 -274 34 -382 40 -40 182 -130 204 -130 6 0 21 -9 33 -20 20 -19
22 -31 22 -124 0 -95 2 -104 24 -125 19 -18 33 -22 72 -19 43 3 51 7 72 38 21
30 23 43 19 93 -6 68 -2 72 68 56 128 -27 316 -60 395 -69 41 -4 111 -14 155
-21 59 -10 206 -14 560 -13 407 0 494 3 573 17 50 9 106 17 124 17 44 0 216
32 382 70 44 11 83 17 88 14 4 -3 8 -36 8 -74 0 -59 4 -73 26 -99 22 -26 33
-31 70 -31 74 0 87 21 91 138 5 137 5 136 69 166 66 31 171 101 197 131 10 11
31 46 47 77 41 79 41 151 1 234 -42 85 -120 151 -255 213 l-49 22 7 67 c4 37
11 71 17 77 5 5 9 16 9 25 0 20 44 104 107 205 27 44 53 87 56 95 4 8 21 38
37 65 17 28 42 73 55 100 14 28 29 57 34 65 5 8 17 33 26 55 10 22 22 48 26
57 5 10 9 26 9 35 0 10 7 27 15 37 8 11 15 29 15 41 0 11 6 29 14 40 30 45 44
196 55 610 6 212 17 401 25 460 9 55 17 116 20 135 2 19 12 76 21 125 10 50
21 113 25 140 8 48 14 74 47 195 25 92 34 124 45 155 6 17 13 48 16 69 2 24
14 48 28 61 20 19 24 32 24 83 0 44 4 61 15 66 11 4 15 21 15 61 0 30 4 63 10
73 15 28 36 83 55 147 9 33 21 71 25 85 5 14 16 52 25 85 9 33 21 74 26 90 13
35 24 73 39 135 7 25 15 54 19 65 13 33 60 200 82 293 11 45 10 62 -5 125 -23
96 -30 112 -79 184 -43 63 -116 120 -194 151 -45 18 -237 28 -267 13 -12 -5
-46 -20 -76 -34 -108 -47 -215 -188 -237 -312 -3 -16 -9 -34 -13 -40 -4 -5
-15 -35 -25 -65 -9 -30 -22 -64 -27 -74 -6 -11 -14 -31 -18 -45 -5 -14 -18
-51 -29 -81 -12 -30 -21 -61 -21 -68 0 -8 -6 -28 -14 -45 -8 -18 -16 -43 -18
-57 -2 -15 -11 -26 -21 -28 -17 -3 -18 2 -14 50 3 29 10 76 16 103 6 28 15 84
21 125 6 41 18 112 26 157 7 45 14 101 14 125 0 24 5 59 11 78 5 19 14 71 19
115 5 44 16 118 25 165 8 47 19 123 24 170 5 47 14 98 20 113 16 41 14 161 -4
204 -8 19 -15 46 -15 59 0 12 -4 26 -10 29 -5 3 -17 23 -27 43 -19 41 -128
152 -149 152 -8 0 -14 3 -14 8 0 15 -165 62 -220 62 -102 0 -241 -59 -314
-134 -69 -70 -136 -217 -136 -299 0 -14 -5 -38 -11 -54 -6 -15 -15 -53 -20
-83 -25 -163 -31 -195 -40 -211 -5 -10 -9 -31 -9 -47 0 -16 -4 -42 -10 -58 -5
-16 -14 -56 -20 -89 -5 -33 -16 -94 -25 -135 -8 -41 -18 -91 -20 -110 -7 -42
-33 -170 -46 -221 -5 -20 -9 -56 -9 -81 0 -24 -6 -53 -14 -63 -13 -18 -14 -18
-26 4 -8 15 -10 44 -5 84 3 34 6 94 6 132 -6 910 -13 1356 -22 1390 -16 60
-70 163 -104 199 -47 49 -120 106 -137 106 -9 0 -21 6 -27 14 -6 8 -26 17 -44
21 -55 13 -250 15 -277 4z m273 -222 c58 -37 89 -72 115 -127 15 -32 17 -110
19 -800 0 -421 4 -821 7 -890 3 -69 7 -301 10 -516 4 -435 3 -431 72 -452 55
-17 134 17 134 58 0 9 6 36 14 61 15 48 42 169 52 237 6 43 7 44 38 39 17 -2
56 -12 86 -21 30 -9 68 -20 85 -24 16 -4 31 -15 33 -23 2 -9 -21 -70 -51 -135
-55 -121 -122 -322 -150 -449 -17 -75 -40 -225 -56 -370 -14 -120 -41 -342
-48 -385 -4 -28 -23 -53 -91 -120 -48 -47 -112 -105 -142 -129 -89 -71 -266
-254 -304 -315 -20 -30 -49 -79 -65 -108 -37 -67 -51 -72 -51 -16 0 61 -35
235 -71 349 -35 113 -132 310 -208 424 -47 69 -54 88 -57 135 -26 448 -41 575
-86 705 -30 91 -161 357 -230 468 -33 54 -58 99 -56 101 1 1 14 7 28 13 14 6
60 27 103 48 43 20 80 35 81 33 1 -1 10 -32 20 -68 10 -36 22 -73 27 -82 5
-10 9 -24 9 -32 0 -7 7 -38 16 -67 8 -30 22 -79 30 -109 9 -30 27 -78 40 -107
22 -44 31 -52 61 -58 52 -9 89 3 116 39 l25 32 8 685 c5 376 11 938 14 1249
l5 565 29 58 c16 31 32 57 35 57 4 0 18 11 32 24 55 51 107 67 201 61 55 -3
76 -10 121 -38z m-1394 -280 c79 -41 111 -106 172 -342 10 -38 18 -68 55 -200
28 -102 35 -129 46 -160 5 -16 12 -41 14 -55 3 -14 11 -47 19 -75 8 -27 19
-70 26 -95 6 -25 17 -65 24 -90 19 -65 42 -148 55 -200 6 -25 16 -58 22 -75 5
-16 14 -46 18 -65 5 -19 22 -85 39 -145 34 -127 34 -126 32 -142 -2 -18 -82
-68 -168 -106 -91 -39 -186 -63 -296 -75 -93 -10 -121 0 -125 43 -3 36 -29
157 -45 205 -6 19 -14 58 -18 85 -18 118 -28 165 -35 177 -5 7 -11 36 -15 63
-3 28 -12 73 -19 100 -27 109 -50 212 -60 275 -4 25 -15 77 -25 115 -9 39 -20
90 -25 115 -4 25 -12 65 -18 90 -6 25 -18 81 -27 125 -9 44 -21 97 -27 117
-45 152 32 299 177 339 51 14 154 2 204 -24z m2506 -74 c57 -21 104 -59 146
-121 27 -40 29 -50 29 -135 0 -51 -7 -119 -15 -152 -8 -33 -14 -77 -15 -97 0
-20 -5 -49 -11 -65 -6 -15 -15 -62 -19 -103 -20 -180 -30 -252 -37 -263 -3 -6
-10 -44 -14 -86 -4 -42 -15 -125 -24 -186 -9 -60 -20 -138 -25 -173 -5 -35
-14 -80 -20 -100 -5 -20 -10 -63 -10 -94 0 -31 -5 -69 -11 -85 -6 -15 -15 -63
-19 -106 -10 -112 -12 -113 -151 -92 -63 9 -128 20 -145 26 -17 5 -37 9 -46 9
-19 0 -141 37 -190 58 -44 18 -49 33 -32 97 7 28 13 63 14 78 0 16 7 56 15 90
8 34 19 87 24 117 18 99 29 154 50 250 11 52 21 108 21 123 0 16 4 37 10 47 9
17 22 83 40 212 4 31 11 61 15 67 3 7 11 37 16 69 5 31 15 91 23 132 8 41 19
103 25 137 6 35 16 74 21 89 6 14 10 38 10 54 0 16 9 47 21 69 24 47 97 121
119 121 8 1 26 7 40 15 34 19 85 19 145 -2z m947 -922 c103 -70 130 -171 84
-321 -9 -30 -21 -73 -27 -95 -6 -22 -14 -44 -20 -49 -5 -6 -9 -24 -9 -41 0
-17 -5 -36 -11 -42 -6 -6 -15 -30 -20 -52 -5 -23 -13 -58 -17 -78 -5 -21 -14
-48 -20 -60 -7 -12 -12 -30 -12 -41 0 -11 -7 -33 -15 -48 -8 -16 -15 -41 -15
-56 0 -15 -4 -30 -10 -33 -5 -3 -10 -17 -10 -29 0 -30 -38 -116 -50 -116 -6 0
-10 -29 -10 -65 0 -37 -4 -65 -10 -65 -6 0 -10 -28 -10 -65 0 -49 -4 -67 -15
-71 -9 -4 -15 -19 -15 -38 0 -17 -11 -47 -24 -66 -13 -19 -26 -48 -28 -65 -3
-16 -10 -43 -16 -60 -6 -16 -18 -57 -27 -90 -9 -33 -21 -75 -26 -92 -12 -38
-27 -114 -38 -195 -5 -31 -12 -61 -15 -67 -4 -6 -11 -41 -16 -79 -4 -37 -13
-98 -18 -137 -26 -179 -32 -253 -33 -411 -1 -295 -22 -648 -39 -669 -5 -5 -11
-27 -15 -48 -4 -20 -11 -40 -16 -43 -5 -3 -9 -14 -9 -24 0 -10 -6 -31 -14 -47
-8 -15 -29 -57 -46 -93 -17 -36 -35 -72 -40 -80 -5 -8 -11 -22 -14 -30 -4 -8
-20 -37 -36 -65 -17 -27 -35 -59 -40 -70 -6 -11 -24 -42 -41 -70 -16 -27 -33
-58 -36 -67 -3 -10 -8 -18 -12 -18 -7 0 -56 -95 -81 -155 -42 -103 -43 -114
-47 -430 -3 -175 -9 -315 -14 -321 -5 -7 -22 -14 -37 -17 -15 -3 -56 -13 -92
-21 -194 -48 -361 -71 -700 -97 -188 -14 -745 -5 -834 14 -59 12 -59 13 -89
71 l-30 60 78 155 c42 86 81 164 86 173 37 73 120 301 137 378 6 25 17 74 26
110 9 36 20 101 26 144 6 44 15 85 20 92 6 6 13 57 17 113 l6 101 56 48 c59
50 68 57 199 172 140 121 253 271 338 445 40 82 104 261 104 291 0 6 21 40 47
75 70 96 142 214 184 305 117 252 172 578 150 878 -6 82 -8 153 -4 157 5 5 53
5 108 1 l100 -7 -1 -30 c-1 -16 -7 -66 -13 -110 -27 -202 -31 -251 -25 -280
11 -49 74 -92 118 -79 36 11 86 54 86 74 0 10 5 22 10 25 6 3 10 16 10 29 0
12 7 31 15 42 8 10 15 28 15 39 0 12 4 25 9 30 5 6 16 37 25 70 10 33 24 73
32 88 8 16 14 35 14 42 0 8 7 31 16 52 24 55 30 72 50 133 9 30 23 69 31 87 7
17 13 37 13 45 0 8 4 18 9 23 4 6 16 35 26 65 9 30 24 70 31 88 8 18 14 39 14
46 0 8 7 27 15 42 8 16 15 36 15 45 0 8 4 19 8 25 4 5 16 36 26 69 10 33 25
74 32 92 8 17 14 38 14 46 0 9 5 19 10 22 6 3 10 15 10 27 0 11 6 32 14 46 8
15 21 50 29 77 49 160 66 188 148 247 44 32 68 38 146 32 48 -3 73 -11 105
-33z m-3192 -1189 c0 -244 44 -488 121 -667 67 -158 186 -372 267 -483 19 -25
28 -56 38 -135 7 -56 23 -142 35 -192 20 -83 96 -269 139 -340 24 -39 89 -197
105 -255 30 -104 38 -184 26 -256 -11 -62 -18 -74 -69 -133 -98 -110 -180
-210 -200 -244 -75 -126 -130 -253 -143 -337 -37 -230 -35 -295 23 -523 l19
-78 -31 -53 c-16 -30 -36 -56 -43 -59 -6 -2 -34 2 -62 9 -27 7 -62 13 -76 14
-14 0 -61 10 -105 21 -43 12 -91 24 -106 26 -15 3 -31 10 -37 17 -5 6 -11 103
-13 216 -4 157 -9 218 -22 260 -35 109 -54 145 -125 239 -71 94 -68 90 -121
130 -54 41 -300 289 -300 303 0 5 -11 24 -24 41 -48 65 -123 209 -151 292 -10
28 -23 64 -30 80 -7 17 -17 46 -23 65 -28 96 -42 148 -46 175 -14 86 -29 151
-37 159 -5 6 -9 27 -9 47 0 21 -5 50 -11 66 -6 15 -15 48 -19 73 -5 25 -16 77
-25 115 -9 39 -20 90 -25 115 -12 63 -31 129 -46 167 -8 17 -14 38 -14 46 0 9
-4 19 -10 22 -5 3 -10 17 -10 29 0 13 -7 29 -15 36 -9 7 -15 29 -15 54 0 32
-6 48 -25 66 -14 13 -25 30 -25 38 0 8 -25 40 -55 70 -36 37 -55 64 -55 80 0
26 -58 92 -81 92 -8 0 -71 57 -141 127 -145 145 -150 155 -90 212 92 87 254
135 375 112 106 -21 201 -64 272 -121 129 -106 375 -371 375 -406 0 -3 14 -23
30 -43 41 -48 45 -53 53 -71 4 -8 20 -37 36 -65 35 -61 167 -323 175 -347 3
-10 10 -18 16 -18 5 0 10 -6 10 -14 0 -18 124 -132 151 -139 15 -4 23 0 26 14
3 10 9 19 14 19 5 0 9 16 9 35 0 22 6 38 15 41 13 5 15 35 15 188 0 99 -5 213
-11 251 -5 39 -14 113 -19 165 -11 112 -24 198 -38 260 -24 101 -42 196 -42
218 0 12 -4 30 -10 40 -9 16 -26 96 -37 176 -6 46 4 55 67 57 25 1 59 5 75 9
17 4 47 8 68 9 l37 1 0 -118z m134 -9 c98 -152 202 -387 234 -528 31 -134 55
-475 33 -475 -12 0 -121 188 -171 295 -70 151 -98 240 -125 410 -17 100 -32
365 -21 365 3 0 26 -30 50 -67z m1713 -340 c-3 -190 -8 -234 -31 -343 -15 -69
-44 -165 -63 -215 -51 -129 -125 -275 -140 -275 -19 0 -17 41 16 285 6 44 16
116 22 160 20 147 69 325 144 520 31 82 33 85 47 85 7 0 8 -71 5 -217z m-1253
-1115 c65 -133 114 -263 126 -333 5 -27 11 -58 15 -67 4 -10 3 -18 -3 -18 -14
0 -154 289 -180 370 -27 83 -38 160 -24 160 6 0 35 -51 66 -112z m820 -130
c-3 -13 -25 -59 -47 -103 -92 -185 -217 -339 -382 -473 -89 -72 -99 -69 -69
21 52 159 176 317 390 496 53 45 101 81 106 81 5 0 6 -10 2 -22z m-692 -995
c14 -33 14 -49 3 -128 -12 -91 -62 -292 -92 -375 -9 -25 -36 -87 -60 -138 -23
-52 -43 -98 -43 -103 0 -5 -14 -35 -32 -66 -17 -32 -38 -70 -45 -85 -18 -34
-33 -44 -43 -28 -4 6 -15 70 -25 140 -17 122 -17 133 0 227 31 181 73 287 163
420 43 63 139 173 151 173 4 0 14 -17 23 -37z m-1018 -879 c14 -36 2 -114 -17
-114 -15 0 -77 61 -77 76 0 17 48 54 70 54 10 0 21 -7 24 -16z m2799 -9 c15
-14 27 -30 27 -35 0 -17 -51 -60 -70 -60 -18 0 -20 7 -20 60 0 51 3 60 18 60
9 0 30 -11 45 -25z"/>
</g>
</svg>
