<?xml version="1.0" standalone="no"?>
<!DOCTYPE svg PUBLIC "-//W3C//DTD SVG 20010904//EN"
 "http://www.w3.org/TR/2001/REC-SVG-20010904/DTD/svg10.dtd">
<svg version="1.0" xmlns="http://www.w3.org/2000/svg"
 width="600.000000pt" height="750.000000pt" viewBox="0 0 600.000000 750.000000"
 preserveAspectRatio="xMidYMid meet">
<g transform="translate(0.000000,750.000000) scale(0.100000,-0.100000)"
fill="#000000" stroke="none">
<path d="M3085 7318 c-112 -38 -234 -132 -268 -208 -4 -8 -16 -28 -26 -45 -11
-16 -20 -40 -20 -51 -1 -12 -7 -39 -15 -61 -11 -33 -15 -198 -17 -917 -2 -483
-7 -883 -11 -889 -9 -14 -28 8 -28 34 0 8 -4 19 -9 25 -5 5 -14 32 -20 59 -21
104 -50 212 -67 253 -8 18 -14 42 -14 52 0 11 -4 28 -9 38 -10 20 -29 91 -40
147 -4 23 -11 47 -16 55 -4 7 -12 30 -16 49 -4 20 -15 61 -24 91 -9 30 -21 73
-25 95 -5 22 -16 63 -24 90 -32 105 -48 161 -56 195 -22 88 -33 126 -42 143
-9 19 -25 86 -35 147 -3 19 -12 44 -19 55 -8 11 -14 29 -14 41 0 40 -61 143
-117 198 -31 30 -81 67 -112 81 -31 15 -64 30 -73 36 -28 15 -222 11 -260 -5
-18 -8 -53 -22 -78 -32 -67 -28 -163 -124 -198 -197 -40 -83 -45 -108 -45
-202 0 -77 7 -128 31 -225 6 -25 16 -72 22 -105 6 -33 18 -83 26 -111 8 -28
14 -62 14 -77 0 -14 5 -38 11 -54 6 -15 15 -50 20 -78 5 -27 16 -84 24 -125 9
-41 20 -96 25 -122 5 -27 11 -52 14 -57 3 -5 10 -35 15 -68 6 -32 17 -89 26
-128 9 -38 20 -90 24 -115 5 -25 16 -76 25 -115 21 -89 46 -207 56 -265 5 -25
13 -63 19 -85 6 -22 18 -76 26 -120 33 -163 37 -181 50 -235 27 -109 45 -198
45 -219 0 -11 4 -40 9 -63 29 -129 41 -200 46 -263 3 -38 8 -87 11 -107 7 -43
-10 -53 -26 -15 -6 12 -16 31 -22 42 -7 11 -29 44 -48 75 -108 172 -168 247
-318 400 -171 174 -268 241 -427 296 -72 25 -93 28 -215 27 -166 0 -206 -11
-350 -96 -19 -11 -63 -48 -96 -82 -49 -49 -65 -73 -78 -118 -9 -30 -16 -63
-16 -74 0 -21 25 -94 42 -126 17 -29 253 -266 295 -296 22 -15 33 -31 33 -46
0 -17 22 -45 70 -92 38 -37 70 -74 70 -81 0 -8 8 -26 19 -40 10 -15 21 -47 25
-72 3 -25 13 -58 20 -75 8 -16 19 -50 26 -75 6 -25 18 -67 25 -95 8 -27 16
-66 19 -85 3 -19 12 -64 21 -100 24 -100 45 -200 55 -257 4 -28 11 -57 15 -62
3 -6 10 -32 15 -59 8 -42 18 -82 49 -206 5 -21 14 -43 20 -49 6 -6 11 -21 11
-34 0 -13 4 -31 10 -41 5 -9 16 -35 25 -57 25 -60 46 -108 56 -125 5 -8 12
-22 15 -30 30 -79 159 -263 257 -366 50 -53 131 -128 179 -166 82 -66 168
-169 168 -203 0 -12 -31 -45 -44 -45 -14 0 -115 -69 -149 -102 -91 -89 -117
-235 -60 -339 37 -68 102 -124 218 -184 71 -37 95 -55 95 -70 5 -194 4 -193
29 -219 20 -21 34 -26 71 -26 51 0 68 12 90 67 8 21 10 49 6 78 -10 66 -8 67
219 14 54 -12 154 -29 240 -39 39 -5 108 -14 155 -21 120 -18 982 -18 1100 0
47 7 119 17 160 21 41 5 104 13 139 19 64 10 80 13 240 50 47 11 88 18 93 15
4 -3 8 -38 8 -79 0 -68 2 -76 27 -100 35 -32 97 -34 133 -4 23 19 25 29 30
136 l5 115 88 47 c166 87 247 188 247 308 0 58 -40 155 -83 201 -27 29 -122
92 -197 129 l-55 28 3 55 c2 30 10 68 18 84 8 16 14 37 14 47 0 10 4 21 10 24
5 3 19 25 30 48 11 23 29 56 40 72 11 17 24 39 30 50 5 11 23 43 40 70 16 28
33 57 37 65 3 8 9 17 13 20 3 3 16 24 27 47 32 61 45 86 55 103 4 8 13 26 19
40 5 14 18 43 28 65 20 47 41 101 48 130 2 11 9 29 13 40 35 80 44 183 70 825
10 239 19 348 39 440 16 76 33 162 41 215 5 28 16 77 25 110 9 33 21 79 25
103 5 23 14 51 20 61 5 11 10 31 10 45 0 14 5 28 10 31 6 3 10 24 10 45 0 30
7 46 30 70 26 27 30 38 30 89 0 41 4 60 14 64 9 4 14 24 15 63 0 32 5 62 11
68 5 5 10 18 10 27 0 10 6 30 14 46 8 15 22 55 31 88 29 104 37 129 51 163 8
18 14 44 14 57 0 14 4 33 9 43 6 9 17 44 26 77 9 33 23 78 31 100 8 23 14 48
14 57 0 9 7 29 15 44 8 16 15 37 15 46 0 9 4 27 9 40 23 59 39 164 31 203 -4
22 -11 56 -15 75 -21 99 -123 233 -205 271 -102 47 -111 49 -210 49 -99 0
-113 -3 -209 -49 -79 -38 -201 -184 -201 -241 0 -10 -4 -22 -10 -25 -5 -3 -10
-16 -10 -28 0 -13 -6 -31 -14 -42 -7 -11 -16 -31 -19 -45 -6 -28 -26 -86 -37
-110 -4 -9 -11 -30 -14 -48 -4 -17 -12 -34 -17 -37 -5 -4 -9 -14 -9 -24 0 -10
-7 -32 -15 -47 -8 -16 -15 -37 -15 -47 0 -9 -4 -25 -9 -35 -5 -9 -13 -30 -18
-47 -24 -81 -36 16 -15 120 5 28 15 91 21 140 7 50 17 113 23 140 5 28 14 86
19 130 14 129 36 276 61 410 32 176 46 390 28 449 -23 78 -65 150 -120 204
-30 30 -64 58 -75 63 -11 5 -27 13 -35 18 -110 65 -281 63 -413 -4 -68 -34
-146 -113 -185 -187 -29 -56 -34 -73 -52 -181 -6 -32 -14 -67 -20 -77 -5 -10
-10 -31 -10 -47 0 -15 -6 -57 -15 -93 -8 -36 -19 -90 -24 -120 -18 -97 -41
-214 -53 -260 -6 -25 -15 -70 -19 -100 -5 -30 -15 -89 -24 -130 -9 -41 -20
-100 -25 -130 -5 -30 -14 -71 -20 -90 -5 -19 -10 -54 -10 -77 0 -30 -4 -43
-14 -43 -8 0 -16 6 -19 13 -3 7 -5 364 -6 792 -2 659 -4 787 -17 825 -53 162
-167 277 -325 328 -43 14 -222 14 -264 0z m268 -215 c56 -35 80 -59 111 -115
l26 -46 6 -829 c11 -1427 17 -1747 34 -1768 28 -33 76 -47 120 -34 54 16 64
31 84 124 10 44 22 94 26 110 5 17 11 56 15 88 6 52 26 92 43 84 57 -26 158
-57 186 -57 32 0 27 -27 -27 -146 -113 -247 -166 -458 -212 -844 -16 -135 -29
-240 -41 -335 -3 -27 -12 -61 -19 -75 -16 -31 -96 -107 -245 -232 -241 -202
-360 -377 -426 -628 l-28 -105 -91 -95 c-272 -287 -372 -490 -392 -791 -6 -99
9 -212 47 -349 17 -64 17 -67 -2 -107 -10 -22 -29 -50 -41 -61 -20 -18 -25
-19 -72 -6 -27 7 -62 13 -76 14 -15 0 -62 9 -105 21 -44 11 -91 23 -106 26
-15 3 -31 10 -36 17 -5 6 -12 106 -15 221 -6 200 -7 214 -35 290 -49 135 -120
239 -220 322 -72 60 -312 302 -312 315 0 5 -11 24 -24 41 -95 128 -208 402
-246 597 -5 25 -16 74 -25 110 -9 36 -23 99 -31 140 -18 87 -27 128 -49 225
-9 39 -20 93 -25 121 -4 28 -13 61 -19 72 -6 11 -11 31 -11 44 0 13 -7 32 -15
42 -8 11 -15 28 -15 38 0 18 -3 25 -33 86 -9 19 -17 50 -17 71 0 27 -7 44 -25
61 -14 13 -25 30 -25 38 0 8 -25 40 -55 70 -38 38 -55 64 -55 81 0 28 -55 91
-79 91 -26 0 -271 251 -271 277 0 47 149 152 235 166 17 3 47 8 68 13 82 15
248 -35 355 -108 62 -42 293 -269 328 -322 16 -22 38 -52 50 -66 23 -27 116
-165 127 -190 4 -8 15 -28 25 -45 23 -37 101 -190 138 -270 41 -89 98 -157
177 -212 28 -20 42 -24 45 -15 2 7 10 19 18 26 8 8 14 29 14 46 0 18 6 33 15
36 13 5 15 36 15 194 0 103 -5 212 -11 241 -5 30 -14 99 -19 154 -5 55 -16
138 -25 185 -8 47 -19 110 -24 140 -5 30 -13 75 -19 100 -6 25 -18 81 -27 125
-10 44 -21 90 -26 103 -5 13 -9 35 -9 49 0 15 -6 52 -14 82 -8 31 -22 92 -31
136 -9 44 -21 96 -25 115 -13 57 -30 142 -38 190 -4 25 -11 51 -16 58 -7 12
-12 34 -36 180 -5 35 -14 72 -20 82 -5 10 -10 29 -10 42 0 20 -11 76 -41 198
-4 19 -15 71 -24 115 -9 44 -21 100 -27 125 -14 59 -27 122 -38 193 -6 32 -14
67 -20 77 -5 10 -10 32 -10 49 0 16 -5 42 -11 58 -6 15 -15 51 -19 78 -5 28
-14 76 -21 108 -9 49 -9 66 6 110 21 65 72 128 127 157 62 33 185 33 246 1 45
-24 112 -98 112 -123 0 -7 4 -18 9 -24 6 -5 14 -27 20 -49 5 -22 17 -67 26
-100 10 -33 21 -76 26 -95 4 -19 15 -60 24 -90 19 -62 42 -148 55 -200 4 -19
13 -48 18 -65 6 -16 15 -48 21 -70 5 -22 17 -63 25 -92 9 -28 16 -60 16 -70 0
-10 7 -31 15 -47 8 -15 15 -41 15 -57 0 -15 4 -30 9 -33 5 -3 12 -23 15 -43 4
-21 11 -51 16 -68 9 -31 29 -104 54 -190 7 -27 19 -70 25 -95 23 -86 60 -220
81 -290 4 -14 15 -54 25 -90 9 -36 22 -85 29 -110 8 -25 19 -65 26 -90 23 -87
43 -155 56 -195 8 -23 14 -49 14 -59 0 -11 11 -38 25 -61 18 -32 32 -44 56
-49 57 -11 98 3 124 43 l23 36 6 610 c3 336 9 894 12 1240 6 611 7 631 27 675
25 54 80 116 121 137 77 41 201 39 269 -4z m1117 -362 c30 -11 72 -35 95 -55
75 -67 92 -129 75 -266 -6 -47 -15 -119 -20 -160 -5 -41 -14 -91 -20 -110 -5
-19 -10 -56 -10 -82 0 -26 -5 -59 -10 -74 -6 -15 -15 -63 -20 -108 -25 -202
-31 -243 -40 -270 -6 -16 -10 -50 -10 -75 0 -25 -5 -62 -11 -81 -10 -34 -19
-99 -38 -271 -6 -47 -15 -97 -20 -113 -6 -15 -11 -46 -11 -69 -1 -51 -15 -116
-28 -129 -7 -7 -47 -5 -119 6 -222 34 -414 89 -427 123 -5 13 12 117 36 213 6
25 14 68 19 95 18 123 28 176 38 207 5 18 17 76 26 128 17 101 25 143 50 255
8 39 15 82 15 97 0 15 5 39 11 55 11 28 23 90 38 193 4 30 13 75 19 100 25
100 42 180 42 202 0 32 48 111 87 143 34 27 123 64 158 65 12 0 45 -9 75 -19z
m929 -907 c51 -32 83 -70 107 -123 34 -76 32 -102 -18 -246 -6 -16 -13 -45
-15 -63 -3 -18 -9 -35 -14 -38 -5 -3 -9 -17 -9 -32 0 -15 -7 -40 -15 -56 -8
-15 -15 -35 -15 -44 0 -9 -6 -34 -14 -57 -8 -22 -22 -67 -31 -100 -9 -33 -20
-69 -25 -80 -5 -11 -11 -31 -14 -45 -13 -64 -32 -129 -39 -136 -4 -4 -7 -15
-7 -25 0 -9 -7 -19 -15 -23 -11 -4 -15 -21 -15 -64 0 -41 -5 -64 -15 -72 -10
-8 -15 -31 -15 -70 0 -38 -4 -60 -12 -62 -8 -3 -13 -22 -14 -45 0 -25 -9 -52
-23 -72 -13 -18 -27 -47 -32 -64 -4 -18 -15 -57 -24 -87 -9 -30 -21 -76 -25
-102 -5 -27 -12 -54 -17 -60 -4 -7 -10 -33 -14 -58 -4 -25 -15 -79 -23 -120
-9 -41 -20 -108 -26 -148 -5 -40 -12 -77 -16 -84 -7 -11 -17 -111 -34 -343 -5
-71 -9 -235 -9 -362 -1 -281 -17 -403 -67 -520 -8 -17 -14 -36 -14 -42 0 -6
-4 -19 -9 -29 -5 -9 -35 -71 -67 -137 -33 -66 -61 -122 -65 -125 -7 -7 -69
-109 -69 -115 0 -4 -60 -108 -90 -155 -21 -34 -61 -128 -83 -196 -14 -44 -17
-100 -17 -358 l0 -306 -22 -9 c-108 -43 -396 -95 -668 -121 -270 -26 -947 -20
-1023 9 -17 7 -35 28 -52 64 -27 58 -30 77 -16 92 18 20 191 375 191 393 0 5
12 36 26 68 31 71 66 186 94 306 5 26 23 140 39 252 16 113 32 210 36 215 3 6
59 55 123 110 265 224 354 332 472 571 35 72 45 96 89 238 12 37 43 95 78 144
110 156 172 276 226 438 70 208 92 390 84 688 l-5 193 92 -6 c124 -9 129 -11
122 -43 -3 -15 -10 -63 -16 -107 -5 -44 -14 -96 -20 -115 -5 -19 -10 -69 -10
-112 l0 -76 40 -32 c33 -26 46 -31 73 -26 61 12 81 40 134 181 8 22 19 48 24
57 5 10 9 25 9 34 0 9 6 30 14 47 8 18 16 41 19 52 3 11 12 38 21 60 55 148
79 214 86 240 4 17 22 68 40 115 17 47 34 94 37 105 3 11 11 34 19 52 8 17 14
38 14 46 0 9 5 19 10 22 6 3 10 14 10 23 0 9 7 30 15 46 8 15 15 36 15 46 0
10 7 31 15 46 8 16 15 37 15 46 0 9 5 20 10 23 6 3 10 13 10 22 0 8 6 29 14
46 8 18 16 41 19 52 3 11 20 58 37 105 17 47 34 94 37 105 16 60 49 104 116
154 44 34 177 36 226 5z m-1322 -1548 c-6 -224 -23 -336 -77 -506 -36 -112
-138 -321 -161 -329 -19 -6 -4 154 41 449 29 183 67 321 142 510 36 91 37 92
50 84 7 -5 9 -71 5 -208z m-437 -1243 c0 -29 -96 -209 -154 -292 -61 -85 -164
-194 -276 -290 -69 -60 -75 -63 -78 -41 -11 74 111 282 243 416 75 75 245 223
258 224 4 0 7 -8 7 -17z m-660 -930 c0 -5 -9 -70 -20 -146 -34 -238 -84 -406
-188 -632 -96 -209 -121 -248 -135 -211 -3 8 -14 69 -23 135 -17 114 -17 125
-1 229 35 218 108 369 267 550 63 71 100 100 100 75z m-1049 -945 c1 -13 3
-34 5 -48 4 -33 -4 -70 -16 -70 -14 0 -80 60 -80 74 0 12 25 36 56 54 28 16
34 15 35 -10z m2788 -4 c17 -14 31 -33 31 -42 0 -22 -40 -62 -62 -62 -16 0
-18 9 -18 65 0 36 4 65 9 65 5 0 23 -12 40 -26z"/>
</g>
</svg>
