<?xml version="1.0" standalone="no"?>
<!DOCTYPE svg PUBLIC "-//W3C//DTD SVG 20010904//EN"
 "http://www.w3.org/TR/2001/REC-SVG-20010904/DTD/svg10.dtd">
<svg version="1.0" xmlns="http://www.w3.org/2000/svg"
 width="600.000000pt" height="750.000000pt" viewBox="0 0 600.000000 750.000000"
 preserveAspectRatio="xMidYMid meet">
<g transform="translate(0.000000,750.000000) scale(0.100000,-0.100000)"
fill="#000000" stroke="none">
<path d="M3085 7315 c-40 -12 -126 -57 -152 -79 -43 -35 -83 -74 -83 -81 0 -5
-10 -22 -23 -39 -25 -33 -47 -84 -68 -156 -10 -35 -14 -242 -18 -929 -5 -695
-9 -885 -18 -889 -7 -2 -13 2 -13 10 0 7 -7 26 -15 41 -8 15 -17 45 -20 65
-13 80 -82 329 -97 346 -4 6 -8 23 -8 39 0 16 -7 50 -15 76 -59 187 -85 278
-95 326 -4 22 -15 65 -24 95 -10 30 -21 71 -25 90 -4 19 -13 45 -19 57 -7 12
-12 35 -12 51 0 16 -3 32 -7 36 -7 7 -23 63 -42 146 -4 19 -13 45 -19 57 -7
12 -12 34 -12 50 0 15 -7 37 -15 47 -8 11 -15 29 -15 41 0 39 -60 143 -111
192 -57 54 -131 103 -157 103 -10 0 -28 7 -40 16 -18 12 -43 15 -125 12 -97
-4 -128 -11 -206 -47 -106 -49 -209 -178 -234 -291 -17 -79 -8 -238 16 -285 5
-10 14 -46 18 -80 10 -79 25 -158 38 -198 6 -17 17 -68 26 -112 9 -44 23 -103
31 -131 7 -28 14 -62 14 -76 0 -14 9 -61 21 -104 11 -44 25 -107 30 -142 4
-35 11 -67 14 -72 4 -6 10 -31 15 -58 9 -47 35 -173 50 -247 5 -22 27 -129 49
-238 22 -109 44 -203 48 -210 4 -7 11 -32 15 -57 11 -71 24 -132 36 -175 21
-78 42 -180 42 -208 0 -15 6 -53 14 -85 21 -84 33 -155 45 -262 5 -52 11 -104
13 -114 4 -28 -20 -31 -32 -4 -36 81 -154 256 -253 373 -88 105 -292 305 -310
305 -6 0 -21 10 -33 21 -26 24 -41 33 -111 68 -129 64 -171 74 -318 74 -139 1
-214 -16 -295 -64 -8 -5 -22 -12 -30 -16 -27 -11 -152 -117 -168 -141 -22 -33
-51 -121 -51 -152 0 -14 11 -47 24 -75 14 -27 25 -53 25 -57 0 -13 272 -278
298 -291 19 -9 27 -20 27 -39 0 -20 18 -46 69 -97 39 -39 67 -73 63 -77 -3 -4
4 -21 17 -38 13 -17 27 -51 31 -76 4 -25 13 -54 19 -65 7 -11 16 -33 19 -50 3
-16 13 -57 22 -90 9 -33 20 -80 24 -105 4 -25 10 -51 15 -58 4 -7 12 -37 16
-65 5 -29 13 -70 18 -92 6 -22 15 -67 22 -100 6 -33 15 -78 21 -100 6 -22 14
-60 18 -85 4 -25 10 -50 13 -56 4 -6 14 -46 23 -90 9 -43 23 -89 31 -101 8
-12 14 -31 14 -41 0 -10 7 -27 15 -38 8 -10 15 -26 15 -35 0 -9 6 -29 14 -45
7 -16 22 -48 32 -71 10 -24 21 -43 26 -43 4 0 8 -7 8 -15 0 -8 18 -44 40 -80
22 -36 40 -70 40 -75 0 -5 6 -13 13 -17 14 -9 67 -78 67 -88 0 -18 205 -225
266 -268 62 -45 164 -157 164 -181 0 -7 5 -17 11 -23 16 -16 9 -24 -84 -81
-85 -51 -167 -130 -167 -161 0 -9 -7 -25 -15 -35 -10 -13 -15 -44 -15 -91 0
-64 4 -77 36 -131 49 -83 112 -134 234 -193 35 -17 67 -37 72 -44 4 -6 8 -56
8 -109 0 -91 2 -99 26 -123 22 -22 33 -26 71 -23 65 4 88 37 88 123 0 35 4 67
7 71 4 3 40 -1 80 -10 119 -26 234 -46 483 -83 103 -15 189 -18 600 -18 349 0
500 4 555 14 41 7 111 17 155 21 93 11 241 38 403 74 46 10 64 11 70 2 4 -6 7
-41 7 -77 0 -57 4 -70 25 -92 20 -21 34 -27 71 -27 75 0 104 56 98 192 l-4 81
80 41 c153 80 193 117 244 229 61 135 -28 287 -229 391 l-92 48 7 61 c3 33 13
73 21 88 8 16 14 35 14 43 0 17 44 102 66 127 8 8 14 19 14 24 0 4 10 22 23
39 12 17 31 49 42 71 11 22 24 43 28 46 12 9 37 59 37 74 0 7 7 15 15 19 8 3
15 14 15 24 0 10 4 22 9 27 18 19 71 128 71 146 0 9 3 19 7 21 9 3 43 99 43
119 0 7 6 20 14 28 33 39 47 179 57 556 5 204 14 411 20 460 24 196 28 221 38
255 6 19 11 50 11 69 0 18 4 50 9 70 5 20 17 72 26 116 9 44 23 103 30 130 36
126 47 162 56 183 5 13 9 38 9 56 0 23 9 41 30 61 27 25 30 35 30 87 0 32 4
58 10 58 6 0 10 28 10 64 0 48 4 65 15 70 8 3 15 14 15 25 0 11 6 35 14 53 8
18 19 53 26 78 6 25 16 59 22 75 6 17 13 45 15 63 3 18 9 35 14 38 5 3 9 14 9
26 0 24 27 112 46 150 8 14 14 38 14 52 0 14 4 35 9 48 9 21 20 60 56 183 7
28 19 68 25 91 17 59 1 185 -33 254 -13 27 -82 125 -107 152 -8 9 -51 35 -95
57 -78 40 -81 41 -187 41 -60 0 -116 -4 -126 -10 -9 -5 -39 -19 -65 -30 -58
-25 -104 -62 -139 -111 -62 -86 -75 -107 -80 -129 -3 -14 -12 -41 -18 -60 -7
-19 -16 -44 -20 -55 -4 -11 -13 -36 -20 -55 -7 -19 -15 -47 -17 -62 -3 -15
-11 -33 -19 -39 -8 -6 -14 -21 -14 -33 0 -12 -4 -26 -9 -32 -5 -5 -16 -36 -25
-69 -9 -33 -22 -73 -28 -90 -5 -16 -13 -43 -15 -58 -4 -19 -11 -27 -22 -25
-22 4 -26 51 -8 112 9 28 20 87 26 131 6 44 16 112 22 150 6 39 14 111 19 161
4 51 11 98 15 105 5 7 12 46 16 88 4 42 15 117 24 166 9 50 20 126 24 170 5
44 14 96 20 115 16 50 13 180 -4 210 -8 14 -14 37 -15 52 0 15 -4 30 -10 33
-5 3 -17 22 -26 41 -19 41 -116 137 -160 160 -32 17 -83 35 -157 54 -104 28
-268 -22 -369 -113 -47 -42 -118 -159 -118 -193 0 -11 -6 -39 -14 -64 -18 -56
-34 -129 -46 -206 -5 -32 -17 -90 -25 -129 -9 -38 -20 -96 -25 -128 -6 -33
-12 -63 -15 -68 -3 -4 -10 -36 -15 -71 -5 -35 -16 -99 -25 -143 -9 -44 -20
-105 -25 -135 -5 -30 -18 -93 -29 -140 -11 -47 -20 -104 -20 -127 -1 -23 -4
-48 -7 -57 -7 -19 -34 -21 -35 -3 0 6 -2 364 -4 794 -2 573 -6 792 -15 820
-21 65 -74 163 -107 198 -49 51 -119 105 -135 105 -7 0 -19 5 -26 12 -35 35
-244 50 -327 23z m258 -201 c20 -10 37 -21 37 -26 0 -4 5 -8 11 -8 15 0 79
-73 79 -90 0 -9 6 -22 13 -28 9 -10 13 -144 15 -588 3 -634 7 -597 -60 -575
-18 5 -78 15 -133 21 -83 9 -119 8 -205 -6 -58 -9 -118 -17 -133 -17 l-29 -2
2 564 c1 472 3 568 15 592 8 15 15 34 15 41 0 21 74 93 122 119 61 33 185 34
251 3z m-1376 -293 c56 -30 65 -40 100 -111 29 -61 46 -111 73 -220 17 -68 58
-220 81 -296 5 -17 9 -36 9 -43 0 -7 6 -27 14 -44 8 -18 17 -48 20 -67 3 -19
13 -60 22 -90 9 -30 23 -80 31 -110 8 -30 18 -68 23 -85 10 -32 26 -96 42
-160 5 -22 14 -53 19 -70 16 -46 37 -121 64 -220 13 -49 26 -100 30 -111 4
-13 1 -26 -7 -33 -33 -28 -94 -63 -166 -95 -134 -58 -377 -97 -410 -64 -7 7
-12 30 -12 52 0 36 -13 93 -43 186 -11 34 -22 100 -34 190 -3 25 -10 51 -15
58 -6 7 -14 40 -19 75 -4 34 -15 91 -24 127 -9 36 -20 88 -25 117 -4 28 -11
57 -15 63 -4 7 -11 37 -16 68 -4 32 -15 84 -22 117 -30 124 -50 212 -58 260
-4 28 -15 82 -24 120 -37 161 -38 213 -3 270 10 17 22 40 27 52 12 26 91 74
140 84 57 12 156 2 198 -20z m2507 -76 c11 -8 27 -15 35 -15 21 -1 72 -48 111
-101 29 -41 30 -45 30 -153 0 -69 -6 -129 -15 -160 -8 -27 -15 -66 -15 -87 0
-21 -5 -50 -11 -66 -6 -15 -15 -62 -19 -103 -5 -41 -13 -114 -19 -162 -5 -48
-13 -92 -17 -99 -7 -12 -16 -86 -33 -265 -5 -50 -13 -99 -18 -110 -6 -10 -14
-46 -18 -79 -30 -254 -59 -448 -68 -462 -13 -21 -51 -17 -302 33 -90 19 -223
60 -243 77 -9 7 -12 23 -9 46 16 106 131 712 168 879 5 23 9 55 9 70 0 16 6
48 14 73 8 24 22 89 31 144 9 55 21 120 26 145 5 25 18 88 28 141 10 52 26
109 34 126 23 44 91 105 140 125 52 21 135 23 161 3z m960 -928 c52 -40 75
-68 76 -87 0 -9 5 -21 11 -27 15 -15 15 -141 1 -155 -7 -7 -12 -24 -12 -40 0
-15 -6 -42 -14 -60 -8 -18 -20 -53 -26 -78 -16 -59 -39 -135 -56 -185 -8 -23
-14 -52 -14 -67 0 -14 -6 -31 -14 -37 -8 -6 -16 -26 -19 -44 -3 -18 -13 -57
-22 -87 -9 -30 -19 -68 -22 -85 -6 -36 -30 -92 -43 -100 -6 -3 -10 -35 -10
-70 0 -47 -4 -64 -15 -69 -11 -4 -15 -22 -15 -71 0 -51 -3 -65 -15 -65 -11 0
-15 -11 -15 -38 0 -23 -9 -51 -25 -74 -14 -20 -25 -50 -25 -67 0 -16 -4 -32
-9 -36 -5 -3 -12 -20 -16 -38 -4 -17 -14 -54 -22 -82 -30 -99 -33 -112 -33
-141 0 -16 -6 -49 -14 -74 -8 -25 -20 -79 -26 -120 -6 -41 -17 -106 -26 -145
-8 -38 -14 -90 -15 -115 0 -25 -5 -65 -11 -90 -5 -25 -14 -214 -18 -420 -6
-353 -19 -512 -41 -535 -5 -5 -9 -19 -9 -31 0 -12 -6 -35 -14 -51 -8 -15 -22
-48 -32 -73 -17 -45 -38 -92 -53 -120 -4 -8 -13 -25 -20 -38 -23 -44 -53 -97
-82 -147 -16 -27 -35 -62 -40 -78 -6 -15 -15 -27 -20 -27 -5 0 -9 -5 -9 -11 0
-6 -18 -38 -40 -71 -22 -33 -40 -64 -40 -68 0 -5 -7 -21 -14 -37 -8 -15 -18
-37 -22 -48 -4 -11 -16 -42 -27 -70 -18 -45 -20 -78 -22 -364 -3 -332 -3 -330
-51 -331 -11 0 -24 -4 -30 -9 -17 -17 -339 -74 -509 -91 -317 -30 -382 -32
-705 -26 -212 4 -355 10 -389 18 -52 13 -55 15 -84 72 l-30 59 78 156 c98 196
90 178 120 253 42 100 86 220 95 258 5 19 16 64 25 100 8 36 24 112 34 170 10
58 23 114 29 126 6 12 11 32 10 45 -1 13 -1 53 0 88 2 67 11 80 103 156 128
106 236 205 285 262 32 37 62 70 65 73 19 15 149 245 173 305 15 39 32 78 38
89 5 10 18 50 28 88 11 44 33 91 57 125 40 57 43 62 107 165 94 153 167 337
197 503 39 214 43 320 26 650 l-2 30 100 -3 c112 -4 132 -13 116 -54 -5 -15
-13 -55 -16 -90 -4 -34 -11 -79 -16 -99 -5 -20 -10 -73 -11 -119 l-1 -83 38
-34 c21 -19 45 -31 52 -28 8 3 23 5 33 5 31 0 76 46 89 92 13 45 33 94 57 140
8 14 14 37 14 50 0 12 7 32 15 42 8 11 15 32 15 47 0 15 5 31 10 34 6 3 10 15
10 27 0 11 6 32 14 46 18 34 41 95 57 147 15 51 37 112 54 150 8 17 21 55 30
85 9 30 21 63 26 72 5 10 9 24 9 32 0 7 12 40 26 72 15 33 31 75 36 94 21 79
69 222 87 258 10 19 25 65 48 137 34 110 43 125 118 182 49 38 71 43 159 37
59 -4 75 -9 110 -37z m-2282 -253 c4 -3 -1 -22 -9 -42 -22 -53 -68 -215 -84
-297 -17 -89 -17 -388 0 -470 26 -128 53 -233 76 -297 14 -37 22 -76 18 -85
-10 -28 -78 -138 -163 -263 -93 -139 -185 -286 -220 -354 -31 -62 -52 -72 -48
-25 11 123 -37 405 -93 547 -44 112 -150 321 -215 424 -31 49 -54 91 -52 93 2
3 35 16 73 30 38 15 81 35 96 46 35 25 46 24 54 -3 20 -77 28 -106 35 -128 5
-14 18 -59 30 -100 11 -41 25 -89 30 -106 6 -17 10 -36 10 -43 0 -19 32 -83
53 -106 13 -15 31 -20 68 -20 45 0 53 4 78 34 l28 34 6 390 c4 215 7 454 7
532 0 102 4 146 13 159 20 28 191 68 209 50z m263 -15 c33 -6 66 -17 73 -24
17 -16 20 -73 27 -649 4 -269 11 -500 15 -512 16 -40 54 -57 112 -51 28 4 55
10 60 15 4 4 17 41 29 82 11 41 26 95 34 120 7 25 16 75 20 112 7 76 17 84 73
64 30 -11 102 -33 170 -52 17 -5 11 -24 -45 -144 -49 -105 -143 -377 -143
-413 0 -13 -6 -43 -14 -68 -14 -47 -32 -155 -41 -254 -4 -33 -11 -88 -17 -123
-10 -61 -11 -62 -29 -46 -11 9 -19 21 -19 27 0 16 -66 103 -160 211 -120 139
-186 244 -269 428 -44 97 -43 93 -10 171 136 317 163 617 84 932 -14 55 -32
117 -40 138 -20 51 -19 60 8 54 12 -3 49 -11 82 -18z m-170 -49 c25 -40 69
-241 85 -387 11 -105 6 -172 -25 -335 -21 -110 -77 -273 -94 -273 -19 0 -56
150 -77 310 -27 202 -10 379 57 598 29 92 40 110 54 87z m-1014 -895 c16 -356
56 -523 196 -800 40 -80 65 -123 175 -295 16 -25 27 -52 24 -60 -85 -259 -105
-384 -87 -554 19 -176 90 -361 212 -559 27 -43 65 -98 84 -121 19 -24 35 -50
35 -58 0 -13 -39 -64 -98 -128 -42 -45 -112 -158 -151 -242 -67 -142 -91 -257
-91 -425 0 -115 7 -163 42 -294 l21 -76 -23 -47 c-33 -70 -51 -78 -130 -61
-36 8 -101 22 -144 31 -44 9 -100 24 -125 33 l-46 17 -1 174 c-1 96 -7 198
-12 225 -6 28 -15 68 -20 90 -21 97 -179 335 -223 335 -9 0 -263 251 -296 293
-13 16 -23 33 -23 38 0 5 -6 12 -14 15 -8 3 -16 13 -19 22 -3 9 -19 40 -36 67
-43 72 -87 162 -106 220 -22 63 -28 81 -49 128 -9 21 -16 49 -16 63 0 14 -5
35 -11 46 -6 11 -15 44 -20 72 -18 112 -26 145 -36 158 -6 7 -13 38 -16 68 -4
30 -14 84 -22 120 -9 36 -20 88 -25 117 -4 28 -11 57 -15 62 -3 6 -10 32 -15
59 -4 26 -13 61 -18 77 -6 17 -19 57 -28 90 -9 33 -20 64 -25 70 -5 5 -9 18
-9 30 0 11 -7 29 -15 39 -8 11 -15 36 -15 56 0 26 -7 43 -25 60 -14 13 -25 30
-25 38 0 8 -25 40 -55 70 -39 39 -55 63 -55 82 0 28 -48 80 -82 90 -10 3 -74
61 -143 129 -86 85 -125 131 -125 146 0 34 35 71 109 115 179 107 402 80 591
-70 77 -61 310 -298 310 -315 0 -6 11 -22 25 -35 14 -13 25 -27 25 -32 0 -5
24 -41 53 -81 28 -40 72 -112 97 -162 25 -49 47 -92 50 -95 3 -3 12 -21 21
-40 61 -129 78 -160 111 -205 34 -46 118 -118 153 -132 10 -3 15 1 15 15 0 11
7 22 15 26 11 4 14 13 9 31 -4 18 -1 32 11 45 16 17 17 40 12 247 -5 203 -14
303 -46 520 -5 33 -12 66 -16 73 -4 7 -11 42 -16 79 -16 121 -25 166 -37 188
-7 12 -12 37 -12 56 0 19 -7 54 -15 77 -20 55 -19 96 1 104 9 3 34 6 57 7 23
0 65 7 92 14 83 21 79 28 86 -140z m127 32 c38 -54 128 -228 175 -337 68 -157
106 -372 107 -614 0 -86 -7 -82 -89 57 -157 268 -224 496 -238 815 -7 137 -1
147 45 79z m1728 -159 c3 -12 3 -101 0 -197 -7 -183 -34 -359 -77 -497 -31
-101 -146 -337 -161 -332 -16 6 -14 81 7 223 8 55 19 143 25 195 11 96 52 286
76 350 7 19 29 80 49 135 47 132 53 145 64 145 5 0 13 -10 17 -22z m-834 -306
c74 -153 130 -240 214 -337 43 -49 81 -92 84 -95 25 -22 113 -159 140 -220 38
-83 52 -197 31 -248 -13 -31 -93 -112 -186 -187 -195 -157 -318 -292 -400
-438 -27 -48 -52 -87 -57 -87 -4 0 -8 20 -8 45 0 203 -117 533 -275 778 -50
76 -56 92 -51 121 12 61 140 298 262 483 65 100 133 205 149 232 17 28 35 50
40 51 6 0 31 -44 57 -98z m-423 -1009 c84 -169 162 -413 132 -413 -13 0 -140
263 -172 358 -33 98 -46 172 -30 172 6 0 37 -53 70 -117z m-155 85 c33 -166
68 -259 166 -448 71 -137 130 -328 130 -421 0 -60 -22 -149 -36 -149 -17 0
-83 89 -148 200 -120 203 -166 359 -169 565 -1 96 4 135 29 253 2 12 9 22 14
22 5 0 12 -10 14 -22z m924 -319 c-70 -137 -156 -254 -264 -361 -94 -91 -183
-168 -196 -168 -32 0 28 152 106 268 67 101 171 210 316 332 106 89 113 76 38
-71z m-644 -892 c14 -28 14 -44 1 -132 -23 -163 -83 -365 -152 -515 -22 -47
-46 -101 -53 -120 -20 -48 -84 -153 -97 -157 -14 -5 -19 16 -38 163 -15 116
-14 125 5 220 44 215 62 263 157 407 54 81 142 179 154 172 5 -3 15 -20 23
-38z m1789 -885 c25 -22 21 -44 -14 -75 -40 -35 -59 -22 -59 38 0 64 7 77 33
64 12 -7 30 -18 40 -27z m-2807 5 c10 -42 0 -102 -17 -105 -17 -3 -79 54 -79
74 0 17 49 54 71 54 11 0 21 -9 25 -23z"/>
</g>
</svg>
