<?xml version="1.0" standalone="no"?>
<!DOCTYPE svg PUBLIC "-//W3C//DTD SVG 20010904//EN"
 "http://www.w3.org/TR/2001/REC-SVG-20010904/DTD/svg10.dtd">
<svg version="1.0" xmlns="http://www.w3.org/2000/svg"
 width="300.000000pt" height="300.000000pt" viewBox="0 0 300.000000 300.000000"
 preserveAspectRatio="xMidYMid meet">
<metadata>
Created by potrace 1.10, written by Peter Selinger 2001-2011
</metadata>
<g transform="translate(0.000000,300.000000) scale(0.100000,-0.100000)"
 stroke="none">
<path d="M1121 2827 c-8 -10 1 -48 35 -150 l46 -137 298 0 298 0 46 137 c34
102 43 140 35 150 -9 10 -85 13 -379 13 -294 0 -370 -3 -379 -13z"/>
<path d="M1035 2441 c-37 -16 -60 -51 -60 -93 0 -33 6 -45 33 -69 l32 -29 460
0 460 0 32 29 c44 39 46 98 5 139 l-27 27 -458 2 c-251 1 -466 -2 -477 -6z"/>
<path d="M1150 2049 c0 -61 -5 -119 -10 -130 -6 -10 -34 -31 -63 -45 -217
-109 -390 -330 -459 -585 -32 -120 -32 -318 0 -438 90 -333 341 -582 669 -663
123 -30 303 -30 428 1 325 79 578 330 667 662 32 120 32 318 0 438 -68 254
-240 474 -454 582 -32 16 -62 38 -68 48 -5 11 -10 69 -10 130 l0 111 -350 0
-350 0 0 -111z m154 -549 c43 -11 104 -31 136 -46 l59 -26 75 31 c104 43 187
61 289 61 112 0 204 -21 298 -68 85 -42 96 -59 129 -188 28 -109 29 -279 0
-389 -70 -275 -283 -500 -555 -585 -88 -28 -280 -38 -380 -21 -253 44 -483
223 -595 463 -89 191 -95 470 -13 644 15 32 31 45 93 76 41 21 101 44 135 52
90 21 237 20 329 -4z"/>
<path d="M1040 1424 c-49 -10 -145 -44 -177 -64 -44 -26 -74 -121 -80 -256 -7
-131 13 -227 74 -354 39 -81 59 -107 137 -185 100 -100 176 -146 306 -187 108
-33 292 -33 400 0 130 41 206 87 306 187 78 78 98 104 137 185 51 106 77 213
77 318 0 69 -14 165 -30 208 l-9 23 -53 -24 c-83 -37 -208 -59 -303 -52 -114
9 -181 30 -335 102 -74 35 -160 71 -190 80 -55 16 -214 28 -260 19z m-96 -276
c9 -12 16 -32 16 -43 0 -28 -27 -65 -47 -65 -26 0 -53 31 -53 59 0 34 26 71
50 71 10 0 26 -10 34 -22z m17 -210 c9 -7 24 -35 34 -63 53 -147 165 -252 329
-309 69 -25 86 -51 57 -88 l-19 -23 -68 23 c-163 52 -288 159 -360 307 -47 98
-54 138 -26 154 23 14 35 13 53 -1z"/>
<path d="M1745 1415 c-33 -7 -78 -20 -100 -28 l-40 -15 30 -12 c137 -54 321
-56 443 -4 46 19 36 26 -74 54 -88 23 -173 24 -259 5z"/>
</g>
</svg>
