<?xml version="1.0" standalone="no"?>
<!DOCTYPE svg PUBLIC "-//W3C//DTD SVG 20010904//EN"
 "http://www.w3.org/TR/2001/REC-SVG-20010904/DTD/svg10.dtd">
<svg version="1.0" xmlns="http://www.w3.org/2000/svg"
 width="300.000000pt" height="280.000000pt" viewBox="0 0 300.000000 280.000000"
 preserveAspectRatio="xMidYMid meet">
<metadata>
Created by potrace 1.10, written by Peter Selinger 2001-2011
</metadata>
<g transform="translate(0.000000,280.000000) scale(0.100000,-0.100000)"
fill="#000000" stroke="none">
<path d="M2091 2708 c-178 -25 -374 -154 -509 -335 -38 -50 -208 -335 -251
-420 l-21 -42 28 -33 c15 -18 97 -107 183 -197 l157 -163 -117 -177 c-101
-155 -119 -177 -139 -173 -12 2 -25 8 -28 13 -3 5 31 64 74 132 44 68 87 138
96 156 17 32 17 33 -18 75 -19 23 -100 110 -180 193 -80 83 -146 153 -146 156
0 3 49 94 110 202 60 109 110 201 110 207 0 20 -91 126 -179 211 -96 91 -189
145 -310 181 -75 22 -287 22 -362 0 -109 -32 -226 -102 -308 -184 -271 -271
-303 -701 -82 -1088 124 -216 243 -351 768 -874 186 -185 347 -347 359 -360
33 -36 154 -138 164 -138 12 0 202 182 548 525 284 280 311 307 456 464 394
426 522 848 369 1221 -110 267 -312 421 -593 451 -96 10 -92 10 -179 -3z
m-1186 -83 c150 -39 311 -146 408 -273 l45 -58 -85 -149 c-119 -211 -135 -244
-129 -269 3 -11 80 -100 171 -196 91 -96 165 -182 165 -191 0 -9 -41 -78 -90
-155 -64 -98 -96 -138 -108 -137 -274 40 -326 49 -351 62 -25 14 -308 15 -316
1 -3 -5 -18 -10 -33 -10 -15 0 -50 -13 -78 -29 l-51 -28 -45 56 c-147 183
-241 375 -268 544 -20 122 -9 284 27 382 85 238 239 388 455 445 89 23 204 25
283 5z m1493 -19 c143 -50 239 -119 311 -225 85 -124 118 -216 132 -361 27
-282 -77 -556 -313 -825 l-35 -40 -34 17 c-59 28 -109 40 -139 33 -16 -4 -69
-8 -117 -9 -76 -3 -97 -7 -153 -36 -36 -18 -75 -37 -88 -43 -13 -6 -28 -19
-32 -28 -8 -14 -16 -15 -77 -4 -37 7 -80 17 -95 23 -14 6 -54 14 -88 18 -35 4
-80 12 -101 18 l-39 12 120 179 c66 98 120 181 120 184 0 8 -91 110 -242 275
-65 70 -118 133 -118 141 0 8 51 98 113 201 150 251 254 361 415 443 130 66
316 77 460 27z"/>
</g>
</svg>
