<?xml version="1.0" standalone="no"?>
<!DOCTYPE svg PUBLIC "-//W3C//DTD SVG 20010904//EN"
 "http://www.w3.org/TR/2001/REC-SVG-20010904/DTD/svg10.dtd">
<svg version="1.0" xmlns="http://www.w3.org/2000/svg"
 width="300.000000pt" height="280.000000pt" viewBox="0 0 300.000000 280.000000"
 preserveAspectRatio="xMidYMid meet">
<metadata>
Created by potrace 1.10, written by Peter Selinger 2001-2011
</metadata>
<g transform="translate(0.000000,280.000000) scale(0.100000,-0.100000)"
fill="#000000" stroke="none">
<path d="M2091 2708 c-178 -25 -374 -154 -509 -335 -38 -50 -208 -335 -251
-420 l-21 -42 32 -38 c17 -21 77 -84 132 -140 55 -56 97 -106 93 -110 -4 -3
-13 -1 -19 5 -7 7 -29 12 -49 12 -30 0 -42 6 -61 31 -13 17 -34 41 -47 52 -77
69 -171 161 -171 168 0 4 49 96 110 204 60 109 110 201 110 207 0 20 -91 126
-179 211 -96 91 -189 145 -310 181 -64 19 -283 22 -346 5 -65 -18 -178 -70
-212 -98 -17 -14 -43 -34 -57 -44 -14 -9 -34 -36 -44 -60 -18 -38 -68 -101
-133 -166 -14 -14 -35 -51 -47 -81 -103 -260 -72 -549 87 -828 127 -221 243
-354 753 -854 440 -434 424 -418 438 -418 6 0 9 -4 6 -9 -6 -10 78 -91 93 -91
21 0 678 644 929 911 157 167 215 236 262 314 14 22 34 50 46 61 33 33 119
211 152 314 67 215 62 421 -15 610 -110 267 -312 421 -593 451 -96 10 -92 10
-179 -3z m-1186 -83 c150 -39 311 -146 408 -273 l45 -58 -102 -179 c-55 -99
-105 -185 -109 -192 -6 -9 -28 -4 -85 21 -116 49 -144 72 -218 182 -117 174
-161 257 -169 315 -8 63 -24 93 -73 135 l-37 32 65 15 c85 20 201 21 275 2z
m1493 -19 c186 -64 297 -166 383 -349 47 -101 61 -178 62 -322 0 -123 -12
-209 -42 -287 -9 -25 -12 -26 -39 -16 -22 9 -48 9 -98 0 -38 -6 -100 -16 -139
-21 -193 -27 -383 -64 -421 -80 -41 -18 -43 -18 -84 0 -23 10 -51 19 -62 19
-12 0 -27 8 -34 18 -9 12 -27 17 -66 17 -29 0 -63 6 -75 13 -12 6 -37 12 -57
12 -26 0 -40 7 -58 29 -13 16 -76 85 -140 155 -65 70 -118 133 -118 141 0 8
51 98 113 201 150 251 254 361 415 443 130 66 316 77 460 27z"/>
</g>
</svg>
