<?xml version="1.0" standalone="no"?>
<!DOCTYPE svg PUBLIC "-//W3C//DTD SVG 20010904//EN"
 "http://www.w3.org/TR/2001/REC-SVG-20010904/DTD/svg10.dtd">
<svg version="1.0" xmlns="http://www.w3.org/2000/svg"
 width="300.000000pt" height="300.000000pt" viewBox="0 0 300.000000 300.000000"
 preserveAspectRatio="xMidYMid meet">
<metadata>
Created by potrace 1.10, written by Peter Selinger 2001-2011
</metadata>
<g transform="translate(0.000000,300.000000) scale(0.100000,-0.100000)"
fill="#000000" stroke="none">
<path d="M610 2817 c-429 -128 -648 -620 -487 -1092 56 -162 163 -337 323
-525 53 -63 307 -325 563 -583 372 -372 471 -467 491 -467 21 0 127 101 516
493 505 506 602 613 710 778 133 202 192 368 201 566 7 137 -6 236 -42 344
-147 431 -604 630 -1000 435 -145 -72 -256 -177 -347 -329 l-35 -57 -53 83
c-75 117 -206 242 -306 294 -119 62 -206 83 -344 82 -89 0 -132 -5 -190 -22z"/>
</g>
</svg>
