<?xml version="1.0" standalone="no"?>
<!DOCTYPE svg PUBLIC "-//W3C//DTD SVG 20010904//EN"
 "http://www.w3.org/TR/2001/REC-SVG-20010904/DTD/svg10.dtd">
<svg version="1.0" xmlns="http://www.w3.org/2000/svg"
 width="300.000000pt" height="300.000000pt" viewBox="0 0 300.000000 300.000000"
 preserveAspectRatio="xMidYMid meet">
<metadata>
Created by potrace 1.10, written by Peter Selinger 2001-2011
</metadata>
<g transform="translate(0.000000,300.000000) scale(0.100000,-0.100000)"
fill="#000000" stroke="none">
<path d="M755 2716 c-148 -34 -276 -107 -383 -221 -123 -129 -187 -263 -219
-456 -57 -347 116 -704 545 -1120 281 -274 729 -619 802 -619 72 0 524 349
804 620 280 273 438 497 509 725 133 427 -54 869 -435 1026 -112 46 -213 62
-347 56 -186 -8 -336 -72 -463 -196 l-67 -66 -69 65 c-86 81 -157 124 -269
163 -78 27 -103 31 -218 34 -84 1 -151 -2 -190 -11z m1 -361 c25 -38 13 -114
-36 -226 l-42 -97 -109 -7 c-59 -3 -113 -4 -119 0 -24 15 -29 54 -14 105 8 27
17 50 19 50 2 0 19 -9 37 -19 18 -11 57 -23 86 -27 l52 -7 0 92 c0 92 14 143
42 154 34 14 68 6 84 -18z m1594 -7 c16 -27 20 -51 20 -127 l0 -94 53 7 c28 4
67 16 85 27 18 10 35 19 37 19 3 0 12 -25 21 -55 15 -52 15 -58 -1 -82 -17
-25 -19 -26 -99 -19 -44 3 -95 6 -112 6 -29 0 -33 5 -66 83 -51 118 -61 154
-55 199 7 51 22 68 63 68 28 0 38 -6 54 -32z m-1174 -16 c25 -17 35 -52 24
-86 -13 -41 -45 -72 -150 -143 -85 -59 -136 -117 -142 -163 -3 -26 9 -30 43
-15 14 5 13 -2 -7 -42 -30 -63 -38 -132 -24 -218 11 -74 54 -178 96 -232 l25
-32 -28 -8 c-61 -16 -206 -8 -273 15 -164 57 -246 191 -177 293 42 63 101 73
133 23 15 -22 15 -26 -5 -59 -26 -45 -27 -67 -2 -89 37 -33 99 -21 133 27 21
29 23 41 20 140 -2 92 1 117 22 177 26 75 172 334 219 387 28 32 67 43 93 25z
m746 -31 c48 -56 193 -315 217 -389 17 -50 21 -83 19 -165 -3 -118 10 -154 66
-181 43 -20 48 -20 80 5 29 22 34 54 12 78 -28 32 -29 59 -2 86 31 30 55 32
90 4 58 -46 72 -121 35 -196 -39 -80 -132 -134 -269 -155 -68 -11 -200 -3
-200 12 0 5 15 35 34 67 84 141 106 308 55 411 -14 28 -22 52 -18 52 4 0 11
-4 14 -10 13 -21 35 -10 35 18 0 46 -54 108 -143 167 -118 77 -165 132 -153
180 17 66 78 74 128 16z m-367 -216 l47 -75 -48 -43 c-26 -23 -51 -42 -55 -42
-3 0 -27 19 -53 43 l-47 44 48 74 c26 40 51 74 55 74 4 0 28 -34 53 -75z
m-245 -157 c51 -22 86 -51 106 -90 14 -26 14 -26 -37 8 -92 61 -195 40 -240
-49 -18 -34 -21 -54 -17 -121 3 -68 10 -91 39 -146 42 -80 158 -198 257 -264
70 -46 74 -47 104 -35 51 21 179 121 235 183 83 93 116 165 121 263 4 71 2 86
-19 122 -30 55 -74 81 -133 81 -54 0 -78 -10 -123 -53 -36 -34 -41 -31 -19 11
60 114 223 152 325 75 53 -41 74 -100 69 -199 -6 -121 -52 -210 -167 -324 -88
-87 -257 -215 -299 -226 -43 -12 -296 179 -384 289 -22 29 -55 81 -72 117 -28
59 -31 74 -31 160 0 82 3 100 23 132 58 93 148 115 262 66z m-132 -661 c32
-12 210 -136 211 -148 1 -3 -9 -10 -21 -16 -40 -18 -126 -88 -156 -126 -28
-35 -30 -36 -36 -14 -3 12 -6 43 -6 70 0 26 -2 47 -5 47 -2 0 -19 -9 -37 -20
-58 -35 -116 -20 -143 37 -22 46 -13 94 26 132 46 46 106 60 167 38z m788 -18
c33 -20 64 -72 64 -108 0 -53 -48 -101 -102 -101 -13 0 -38 9 -56 20 -18 11
-35 20 -37 20 -3 0 -5 -21 -5 -47 0 -27 -3 -58 -6 -70 -6 -21 -10 -18 -54 30
-26 29 -73 68 -104 87 -31 19 -56 37 -56 40 0 12 184 136 217 147 46 14 97 7
139 -18z m-414 -246 c82 -84 78 -167 -12 -286 -19 -25 -37 -46 -40 -46 -8 0
-76 91 -94 126 -18 37 -21 99 -5 140 13 36 78 103 99 103 9 0 32 -17 52 -37z"/>
</g>
</svg>
