<?xml version="1.0" standalone="no"?>
<!DOCTYPE svg PUBLIC "-//W3C//DTD SVG 20010904//EN"
 "http://www.w3.org/TR/2001/REC-SVG-20010904/DTD/svg10.dtd">
<svg version="1.0" xmlns="http://www.w3.org/2000/svg"
 width="231.000000pt" height="226.000000pt" viewBox="0 0 231.000000 226.000000"
 preserveAspectRatio="xMidYMid meet">
<metadata>
Created by potrace 1.10, written by Peter Selinger 2001-2011
</metadata>
<g transform="translate(0.000000,226.000000) scale(0.100000,-0.100000)"
fill="#000000" stroke="none">
<path d="M1550 2180 l0 -40 160 0 160 0 0 40 0 40 -160 0 -160 0 0 -40z"/>
<path d="M1590 1958 l1 -103 110 -80 c61 -44 115 -81 120 -83 5 -2 9 74 9 182
l0 186 -120 0 -120 0 0 -102z"/>
<path d="M703 1697 c-265 -194 -482 -354 -482 -357 0 -3 20 -20 45 -38 l44
-33 434 316 c238 173 439 315 446 315 7 0 208 -142 446 -315 l434 -316 44 33
c25 18 45 35 45 38 0 5 -956 704 -967 707 -4 1 -224 -157 -489 -350z"/>
<path d="M770 1506 l-415 -303 -3 -571 -2 -572 440 0 440 0 0 468 c0 351 3
471 12 480 17 17 599 17 616 0 9 -9 12 -129 12 -480 l0 -468 80 0 80 0 -2 572
-3 571 -415 303 c-228 167 -417 303 -420 303 -3 0 -192 -136 -420 -303z m288
-498 c17 -17 17 -599 0 -616 -17 -17 -519 -17 -536 0 -17 17 -17 599 0 616 17
17 519 17 536 0z"/>
<path d="M590 840 l0 -100 80 0 80 0 0 100 0 100 -80 0 -80 0 0 -100z"/>
<path d="M830 840 l0 -100 80 0 80 0 0 100 0 100 -80 0 -80 0 0 -100z"/>
<path d="M590 560 l0 -100 80 0 80 0 0 100 0 100 -80 0 -80 0 0 -100z"/>
<path d="M830 560 l0 -100 80 0 80 0 0 100 0 100 -80 0 -80 0 0 -100z"/>
<path d="M1310 500 l0 -440 240 0 240 0 0 440 0 440 -240 0 -240 0 0 -440z
m150 65 c15 -18 10 -45 -12 -59 -35 -22 -74 27 -48 59 16 19 44 19 60 0z"/>
<path d="M213 354 c-21 -21 -25 -32 -20 -63 6 -50 -7 -71 -44 -71 -69 0 -104
-86 -54 -135 21 -22 33 -25 100 -25 l75 0 0 160 c0 176 -4 187 -57 134z"/>
<path d="M2110 220 l0 -160 75 0 c67 0 79 3 100 25 50 49 15 135 -54 135 -37
0 -50 21 -44 71 5 31 1 42 -20 63 -53 53 -57 42 -57 -134z"/>
</g>
</svg>
