<?xml version="1.0" standalone="no"?>
<!DOCTYPE svg PUBLIC "-//W3C//DTD SVG 20010904//EN"
 "http://www.w3.org/TR/2001/REC-SVG-20010904/DTD/svg10.dtd">
<svg version="1.0" xmlns="http://www.w3.org/2000/svg"
 width="219.000000pt" height="411.000000pt" viewBox="0 0 219.000000 411.000000"
 preserveAspectRatio="xMidYMid meet">
<metadata>
Created by potrace 1.10, written by Peter Selinger 2001-2011
</metadata>
<g transform="translate(0.000000,411.000000) scale(0.100000,-0.100000)"
fill="#000000" stroke="none">
<path d="M1035 4041 c-72 -10 -113 -35 -170 -102 -59 -70 -92 -167 -82 -242
17 -126 28 -170 53 -221 29 -59 99 -140 146 -169 15 -10 35 -28 43 -41 14 -21
14 -28 -1 -74 -14 -43 -33 -66 -135 -161 -155 -147 -255 -300 -309 -476 -12
-38 -26 -78 -31 -87 -4 -9 -17 -42 -28 -73 -15 -43 -36 -72 -89 -125 -123
-123 -226 -334 -262 -535 -17 -95 -33 -130 -87 -187 -29 -31 -53 -61 -53 -67
0 -14 31 -30 55 -28 17 2 20 -3 17 -38 -2 -23 3 -48 11 -59 14 -19 15 -19 39
5 14 14 27 31 29 38 3 7 20 16 39 20 34 7 35 8 34 51 -1 25 -5 65 -9 90 -5 33
-1 65 15 120 12 41 25 91 30 110 12 51 31 97 69 170 19 36 41 78 49 93 10 20
18 25 25 18 7 -7 5 -42 -7 -113 -22 -135 -37 -514 -24 -616 22 -175 45 -252
95 -315 12 -15 25 -44 28 -65 4 -20 11 -48 17 -62 32 -74 53 -327 38 -458 -17
-157 -13 -152 -113 -152 -98 0 -117 -12 -117 -77 0 -34 4 -42 28 -52 50 -24
138 -26 185 -5 52 23 87 53 87 77 0 10 5 28 11 39 18 34 49 344 49 496 0 115
3 144 14 148 8 3 59 -2 113 -11 79 -14 150 -16 368 -14 149 2 276 0 283 -5 10
-6 13 -63 11 -259 -2 -361 19 -441 128 -488 78 -33 113 -23 162 48 32 47 16
73 -45 73 -95 0 -134 49 -139 173 -2 45 -8 127 -15 182 -13 107 -6 291 12 312
5 7 34 23 63 37 63 28 67 38 86 206 14 128 2 348 -33 590 -5 41 -14 116 -18
165 -4 50 -14 134 -21 187 -22 165 7 145 91 -62 12 -30 29 -73 37 -95 8 -22
21 -53 28 -70 7 -16 26 -77 41 -135 36 -134 38 -237 5 -325 -12 -33 -19 -70
-17 -81 4 -13 27 -32 62 -50 l56 -28 21 28 c11 16 35 35 54 42 41 18 42 38 3
86 -41 50 -46 68 -55 193 -4 61 -12 119 -18 130 -6 11 -14 36 -18 55 -29 138
-43 190 -65 239 -26 58 -91 190 -109 219 -24 40 -107 160 -123 178 -39 43
-111 142 -130 179 -36 72 -71 139 -96 185 -23 44 -89 111 -176 180 -87 68
-110 108 -110 189 0 45 48 92 170 163 90 53 137 96 170 158 107 195 35 425
-163 518 -55 26 -81 32 -159 36 -51 2 -115 1 -143 -3z m235 -168 c19 -9 56
-41 83 -71 44 -52 47 -59 47 -110 0 -41 -8 -71 -30 -117 -41 -83 -79 -120
-148 -141 -72 -22 -125 -21 -182 4 -85 37 -122 102 -124 222 -1 99 18 132 130
219 20 16 49 20 119 15 39 -2 86 -12 105 -21z m37 -1185 c27 -25 29 -57 6
-101 -38 -74 -129 -137 -199 -137 -87 0 -194 103 -194 188 0 42 17 52 90 53
36 1 92 5 125 9 115 14 147 12 172 -12z"/>
<path d="M1072 3707 c-40 -42 -40 -62 2 -112 31 -36 39 -40 80 -40 64 0 99 35
99 99 0 61 -28 85 -99 86 -44 0 -54 -4 -82 -33z"/>
<path d="M1033 2593 c-59 -12 -47 -61 22 -87 50 -19 78 -20 130 -2 37 13 85
56 85 76 0 5 -30 8 -67 7 -38 -1 -86 1 -108 5 -22 3 -50 4 -62 1z"/>
</g>
</svg>
