<?xml version="1.0" standalone="no"?>
<!DOCTYPE svg PUBLIC "-//W3C//DTD SVG 20010904//EN"
 "http://www.w3.org/TR/2001/REC-SVG-20010904/DTD/svg10.dtd">
<svg version="1.0" xmlns="http://www.w3.org/2000/svg"
 width="229.000000pt" height="232.000000pt" viewBox="0 0 229.000000 232.000000"
 preserveAspectRatio="xMidYMid meet">
<metadata>
Created by potrace 1.10, written by Peter Selinger 2001-2011
</metadata>
<g transform="translate(0.000000,232.000000) scale(0.100000,-0.100000)"
fill="#000000" stroke="none">
<path d="M1003 2266 c-130 -41 -254 -205 -278 -368 -8 -55 17 -233 45 -313 34
-98 103 -186 240 -307 52 -45 53 -47 46 -88 -11 -70 -39 -110 -166 -235 -242
-239 -342 -387 -429 -636 -58 -168 -90 -250 -111 -286 l-19 -33 834 0 c459 0
835 3 835 8 0 4 -31 47 -69 97 -139 181 -180 243 -251 380 -91 175 -132 230
-245 324 -173 145 -205 190 -205 291 0 77 41 120 230 236 119 74 189 143 229
228 40 85 53 143 53 236 -1 218 -143 400 -361 464 -69 20 -315 21 -378 2z
m369 -215 c63 -30 154 -129 169 -184 23 -86 -30 -238 -113 -324 -63 -64 -125
-88 -233 -88 -78 0 -97 4 -140 27 -63 33 -98 70 -126 133 -31 68 -34 241 -5
294 21 39 105 124 151 153 45 29 230 22 297 -11z m49 -1580 c40 -41 39 -84 -5
-150 -42 -62 -81 -97 -150 -133 -98 -53 -200 -27 -290 72 -46 51 -66 96 -66
150 0 37 3 42 35 56 19 8 69 14 112 15 43 1 103 4 133 9 30 4 88 8 128 9 69 1
75 -1 103 -28z"/>
<path d="M1163 1869 c-37 -11 -93 -74 -93 -105 0 -25 48 -95 82 -118 53 -37
159 -9 183 48 52 124 -37 214 -172 175z"/>
<path d="M1033 338 c-56 -27 -11 -86 83 -114 85 -25 161 -4 224 61 21 21 30
38 24 44 -14 13 -305 21 -331 9z"/>
</g>
</svg>
