<?xml version="1.0" standalone="no"?>
<!DOCTYPE svg PUBLIC "-//W3C//DTD SVG 20010904//EN"
 "http://www.w3.org/TR/2001/REC-SVG-20010904/DTD/svg10.dtd">
<svg version="1.0" xmlns="http://www.w3.org/2000/svg"
 width="283.000000pt" height="274.000000pt" viewBox="0 0 283.000000 274.000000"
 preserveAspectRatio="xMidYMid meet">
<metadata>
Created by potrace 1.10, written by Peter Selinger 2001-2011
</metadata>
<g transform="translate(0.000000,274.000000) scale(0.100000,-0.100000)"
fill="#000000" stroke="none">
<path d="M1738 2640 c-124 -22 -256 -78 -348 -145 -71 -52 -173 -165 -219
-242 -82 -138 -117 -282 -108 -452 6 -118 24 -195 66 -287 l29 -61 -494 -494
c-458 -458 -494 -496 -494 -528 0 -30 14 -48 123 -157 114 -116 125 -124 161
-124 34 0 47 8 115 75 l77 74 99 -99 c55 -55 108 -103 118 -106 39 -12 75 11
180 114 109 107 142 155 131 189 -4 10 -52 64 -108 121 l-101 102 255 255 256
256 71 -30 c104 -43 202 -62 318 -62 135 0 228 22 350 81 274 133 436 377 452
681 12 229 -59 426 -214 590 -110 116 -226 187 -375 229 -82 24 -264 34 -340
20z m295 -437 c82 -39 154 -110 194 -190 25 -53 28 -68 28 -168 0 -98 -3 -116
-27 -167 -76 -163 -262 -261 -429 -229 -90 18 -161 56 -220 118 -202 213 -122
552 154 654 40 14 73 18 142 16 77 -2 100 -7 158 -34z"/>
</g>
</svg>
