<?xml version="1.0" standalone="no"?>
<!DOCTYPE svg PUBLIC "-//W3C//DTD SVG 20010904//EN"
 "http://www.w3.org/TR/2001/REC-SVG-20010904/DTD/svg10.dtd">
<svg version="1.0" xmlns="http://www.w3.org/2000/svg"
 width="278.000000pt" height="278.000000pt" viewBox="0 0 278.000000 278.000000"
 preserveAspectRatio="xMidYMid meet">
<metadata>
Created by potrace 1.10, written by Peter Selinger 2001-2011
</metadata>
<g transform="translate(0.000000,278.000000) scale(0.100000,-0.100000)"
fill="#000000" stroke="none">
<path d="M2039 2637 c-95 -32 -179 -96 -217 -164 -10 -16 -14 -15 -64 9 -77
39 -138 51 -227 46 -243 -14 -424 -240 -383 -479 7 -38 24 -93 38 -121 33 -66
112 -149 169 -179 l45 -24 -625 -625 c-542 -542 -625 -629 -625 -655 0 -23 19
-48 98 -127 126 -125 126 -126 236 -18 45 44 87 80 92 80 5 0 45 -36 89 -80
100 -100 111 -102 195 -24 l61 57 -86 87 c-91 93 -101 118 -67 159 11 14 29
23 50 23 29 1 45 -10 118 -83 l84 -83 46 44 c55 55 76 92 69 123 -4 13 -42 59
-86 103 l-79 79 342 342 342 342 27 -47 c34 -60 112 -133 176 -166 263 -133
584 51 601 344 5 90 -7 151 -46 228 -24 49 -25 55 -10 63 72 40 147 145 173
243 86 318 -225 609 -536 503z m191 -275 c101 -50 105 -183 8 -242 -117 -71
-259 71 -188 188 41 66 113 88 180 54z m-600 -127 c58 -30 88 -121 59 -178
-61 -119 -224 -105 -264 21 -16 54 26 141 79 162 33 14 95 11 126 -5z m477
-482 c52 -25 75 -67 70 -131 -11 -150 -208 -179 -262 -37 -46 119 74 224 192
168z"/>
</g>
</svg>
