<?xml version="1.0" standalone="no"?>
<!DOCTYPE svg PUBLIC "-//W3C//DTD SVG 20010904//EN"
 "http://www.w3.org/TR/2001/REC-SVG-20010904/DTD/svg10.dtd">
<svg version="1.0" xmlns="http://www.w3.org/2000/svg"
 width="255.000000pt" height="270.000000pt" viewBox="0 0 255.000000 270.000000"
 preserveAspectRatio="xMidYMid meet">
<metadata>
Created by potrace 1.10, written by Peter Selinger 2001-2011
</metadata>
<g transform="translate(0.000000,270.000000) scale(0.100000,-0.100000)"
fill="#000000" stroke="none">
<path d="M1635 2633 c-203 -43 -392 -187 -489 -373 -105 -200 -108 -458 -7
-659 l30 -58 -550 -549 c-394 -394 -552 -558 -560 -583 -37 -110 44 -221 160
-221 61 0 88 15 170 95 l77 74 114 -115 c117 -119 169 -153 228 -154 74 0 142
54 163 133 20 75 2 106 -139 250 l-126 127 89 90 90 90 120 -120 c121 -120
166 -150 225 -150 105 0 187 109 159 213 -9 34 -35 66 -137 170 l-126 127 141
142 142 142 68 -31 c100 -46 167 -64 268 -70 326 -21 627 185 732 502 24 71
27 95 27 220 0 125 -3 149 -27 220 -119 356 -480 566 -842 488z m256 -339
c108 -32 199 -110 248 -213 23 -49 26 -69 26 -156 0 -87 -3 -107 -26 -156 -92
-196 -321 -281 -513 -191 -152 71 -247 247 -218 403 43 235 263 377 483 313z"/>
</g>
</svg>
