<?xml version="1.0" standalone="no"?>
<!DOCTYPE svg PUBLIC "-//W3C//DTD SVG 20010904//EN"
 "http://www.w3.org/TR/2001/REC-SVG-20010904/DTD/svg10.dtd">
<svg version="1.0" xmlns="http://www.w3.org/2000/svg"
 width="215.000000pt" height="234.000000pt" viewBox="0 0 215.000000 234.000000"
 preserveAspectRatio="xMidYMid meet">
<metadata>
Created by potrace 1.10, written by Peter Selinger 2001-2011
</metadata>
<g transform="translate(0.000000,234.000000) scale(0.100000,-0.100000)"
fill="#000000" stroke="none">
<path d="M1848 2290 c-20 -11 -45 -35 -57 -53 l-21 -34 -57 28 c-243 117 -481
5 -501 -236 -11 -147 81 -335 215 -438 113 -87 217 -127 329 -127 99 0 158 22
221 85 106 107 112 250 17 461 -3 5 7 17 21 24 39 21 77 91 77 144 0 72 -34
121 -105 151 -48 20 -94 18 -139 -5z m121 -75 c32 -16 41 -33 41 -78 0 -34
-33 -77 -60 -77 -8 0 -37 22 -64 49 -42 42 -47 51 -37 69 14 27 50 52 74 52
10 0 31 -7 46 -15z m-349 -137 c48 -33 72 -70 77 -122 6 -46 6 -46 43 -46 41
0 92 -29 124 -72 42 -58 17 -169 -47 -208 -104 -64 -228 -4 -240 115 -4 38 -6
40 -44 45 -87 12 -143 75 -143 160 0 116 136 191 230 128z"/>
<path d="M1192 1627 l-34 -35 33 -77 c34 -82 36 -84 152 -126 37 -13 38 -12
70 19 l32 32 -35 27 c-45 34 -128 118 -160 161 l-25 33 -33 -34z"/>
<path d="M572 947 c-517 -517 -533 -534 -523 -560 27 -70 102 -134 144 -123
12 3 260 244 552 535 l529 530 -45 20 c-53 24 -73 43 -94 94 -8 20 -19 37 -23
37 -4 0 -247 -240 -540 -533z"/>
<path d="M938 793 l-67 -67 -24 22 -23 22 -132 -133 -132 -132 22 -23 22 -22
-67 -68 -67 -67 130 -130 130 -130 100 100 c55 55 100 104 100 110 0 5 -14 28
-30 49 -36 48 -38 79 -5 111 32 33 67 31 108 -5 19 -17 41 -30 49 -30 7 0 58
45 113 100 l100 100 -130 130 -130 130 -67 -67z"/>
</g>
</svg>
