<?xml version="1.0" standalone="no"?>
<!DOCTYPE svg PUBLIC "-//W3C//DTD SVG 20010904//EN"
 "http://www.w3.org/TR/2001/REC-SVG-20010904/DTD/svg10.dtd">
<svg version="1.0" xmlns="http://www.w3.org/2000/svg"
 width="244.000000pt" height="242.000000pt" viewBox="0 0 244.000000 242.000000"
 preserveAspectRatio="xMidYMid meet">
<metadata>
Created by potrace 1.10, written by Peter Selinger 2001-2011
</metadata>
<g transform="translate(0.000000,242.000000) scale(0.100000,-0.100000)"
fill="#000000" stroke="none">
<path d="M132 2373 c-62 -30 -77 -64 -80 -191 l-4 -112 479 2 478 3 3 158 3
157 -423 0 c-369 0 -427 -3 -456 -17z"/>
<path d="M1110 2119 l0 -270 28 3 c24 3 27 7 30 46 2 32 9 46 28 58 22 15 26
15 48 0 19 -12 26 -26 28 -58 3 -39 6 -43 31 -46 l27 -3 0 270 0 271 -110 0
-110 0 0 -271z"/>
<path d="M1432 2233 l3 -158 478 -3 479 -2 -4 112 c-3 98 -6 117 -25 144 -46
64 -47 64 -512 64 l-422 0 3 -157z"/>
<path d="M52 1058 l3 -913 22 -31 c49 -68 -21 -64 1143 -64 1164 0 1094 -4
1143 64 l22 31 3 913 2 912 -477 -2 -478 -3 -3 -82 -3 -81 51 -51 c28 -28 63
-77 78 -109 24 -51 27 -71 30 -189 l4 -133 34 -21 c19 -11 44 -39 55 -61 19
-37 20 -55 17 -298 -3 -285 -3 -283 -72 -334 -27 -20 -39 -21 -405 -21 l-378
0 -37 29 c-63 47 -66 65 -66 341 0 277 5 302 74 344 l34 21 4 133 c3 118 6
138 30 189 15 32 50 81 78 109 l51 51 -3 81 -3 82 -478 3 -477 2 2 -912z"/>
<path d="M1133 1739 c-19 -7 -23 -16 -23 -54 0 -62 22 -110 59 -129 85 -45
161 16 161 129 0 38 -4 47 -22 54 -31 12 -38 6 -38 -33 0 -39 -15 -56 -50 -56
-35 0 -50 17 -50 56 0 39 -7 45 -37 33z"/>
<path d="M979 1595 c-18 -40 -24 -72 -27 -157 l-4 -108 272 0 272 0 -4 108
c-3 85 -9 117 -27 157 l-23 50 -12 -47 c-26 -99 -106 -161 -206 -161 -100 0
-180 62 -206 161 l-12 47 -23 -50z"/>
<path d="M868 1209 c-16 -9 -18 -32 -18 -252 0 -176 3 -246 12 -255 17 -17
699 -17 716 0 9 9 12 78 12 249 0 203 -2 240 -16 253 -13 14 -59 16 -352 16
-210 0 -344 -4 -354 -11z m416 -120 c48 -38 51 -116 6 -164 -13 -14 -20 -35
-20 -63 0 -33 -5 -45 -25 -58 -23 -15 -27 -15 -50 0 -20 13 -25 25 -25 58 0
28 -7 49 -20 63 -67 71 -24 185 70 185 23 0 48 -8 64 -21z"/>
</g>
</svg>
