<?xml version="1.0" standalone="no"?>
<!DOCTYPE svg PUBLIC "-//W3C//DTD SVG 20010904//EN"
 "http://www.w3.org/TR/2001/REC-SVG-20010904/DTD/svg10.dtd">
<svg version="1.0" xmlns="http://www.w3.org/2000/svg"
 width="174.000000pt" height="216.000000pt" viewBox="0 0 174.000000 216.000000"
 preserveAspectRatio="xMidYMid meet">
<g transform="translate(0.000000,216.000000) scale(0.100000,-0.100000)"
fill="#000000" stroke="none">
<path d="M897 2058 c-4 -31 5 -47 27 -48 5 0 3 6 -3 14 -7 9 -8 17 -2 20 10 7
3 46 -9 46 -4 0 -10 -15 -13 -32z"/>
<path d="M876 1983 c-12 -14 -31 -36 -43 -48 -28 -27 -29 -35 -5 -35 21 0 62
-51 62 -77 0 -12 -7 -19 -19 -19 -15 0 -17 5 -10 28 6 23 4 30 -13 39 -16 9
-19 8 -12 -2 4 -7 7 -28 6 -45 -2 -24 2 -34 15 -37 17 -4 17 -5 0 -6 -19 -1
-27 11 -31 55 -3 31 -31 43 -64 28 -14 -6 -13 -8 8 -13 16 -5 25 -14 25 -26 0
-16 -7 -20 -35 -20 -19 0 -41 6 -48 15 -11 13 -12 10 -7 -16 6 -33 -16 -63
-52 -68 -10 -2 -18 -9 -18 -17 0 -8 -4 -20 -9 -28 -8 -12 -11 -11 -23 4 -19
27 -16 43 11 70 14 14 21 27 17 29 -14 9 -79 -43 -85 -68 -3 -14 -18 -31 -34
-38 -15 -8 -28 -23 -30 -36 -3 -21 -1 -22 16 -11 16 10 23 10 37 -4 9 -9 21
-17 25 -17 14 0 44 -49 35 -58 -4 -4 -20 9 -36 28 -28 33 -30 34 -35 13 -4
-12 -17 -24 -32 -28 -33 -8 -52 -23 -52 -42 0 -10 5 -11 19 -4 14 8 27 6 51
-5 l31 -16 -21 -20 c-27 -26 -18 -37 26 -32 19 2 33 1 30 -4 -2 -4 10 -6 27
-4 18 2 41 3 52 3 16 0 17 2 5 9 -8 5 -25 10 -36 10 -12 0 -24 7 -28 15 -8 21
3 19 68 -11 31 -14 60 -23 65 -20 5 4 13 1 17 -5 4 -8 3 -9 -4 -5 -7 4 -12 2
-12 -3 0 -17 18 -13 29 7 9 15 10 15 11 -5 0 -12 8 -24 18 -26 9 -3 -2 -4 -25
-4 -27 1 -43 7 -43 15 0 6 -5 12 -11 12 -6 0 -9 -7 -5 -15 3 -8 1 -15 -4 -15
-5 0 -11 10 -13 23 l-4 22 -2 -23 c-1 -20 -6 -23 -31 -20 -19 2 -34 -3 -40
-12 -17 -26 -11 -79 10 -100 21 -21 60 -27 60 -10 0 6 -6 10 -14 10 -20 0 -30
38 -15 56 7 8 19 12 27 9 8 -3 20 -1 27 5 8 6 25 3 55 -13 56 -28 64 -48 17
-40 -36 5 -67 -15 -67 -44 0 -13 3 -13 15 -3 22 18 48 -5 35 -30 -15 -29 -12
-48 11 -60 29 -16 32 -8 12 29 -16 28 -16 33 -3 41 8 5 24 10 35 10 18 0 20
-6 20 -51 0 -53 -19 -77 -51 -65 -8 3 -14 0 -14 -7 0 -20 22 -37 47 -37 13 0
23 -4 23 -10 0 -5 -7 -10 -15 -10 -8 0 -15 -4 -15 -10 0 -5 9 -10 19 -10 17 0
18 -4 11 -29 -5 -19 -4 -33 3 -40 6 -6 12 -37 13 -69 5 -121 17 -253 25 -258
5 -3 9 -14 9 -25 0 -11 -4 -18 -9 -15 -4 3 -11 -40 -13 -95 -4 -70 -9 -104
-19 -109 -17 -11 -28 -4 -39 24 -8 21 -8 21 -18 -4 -9 -24 -10 -24 -18 -5 -4
11 -10 25 -12 30 -3 6 2 4 11 -4 15 -12 17 -11 17 3 0 11 -9 16 -27 16 -21 0
-24 -3 -15 -12 14 -14 16 -54 3 -62 -5 -3 -22 1 -37 9 -27 14 -29 13 -32 -3
-1 -9 -19 -28 -39 -42 -34 -23 -34 -25 -14 -34 11 -5 21 -13 21 -18 0 -4 7 -8
15 -8 8 0 15 -9 15 -20 0 -23 28 -27 36 -5 10 26 34 16 50 -20 13 -31 17 -34
34 -25 11 6 20 20 20 30 0 23 18 27 26 6 3 -8 13 -12 25 -9 14 4 19 0 19 -16
0 -12 -6 -21 -15 -21 -23 0 -23 -49 0 -84 8 -12 17 -38 20 -59 4 -20 11 -40
16 -43 5 -3 6 2 3 10 -3 9 -1 16 5 16 6 0 11 6 11 13 0 7 9 30 19 51 20 39 25
61 21 106 -1 23 -2 23 -10 5 -7 -17 -9 -17 -9 -2 -1 21 -21 23 -21 2 0 -18
-20 -20 -21 -2 0 6 -2 23 -4 37 -6 41 6 120 18 120 8 0 11 -21 9 -65 -3 -58
-2 -65 15 -65 16 0 18 9 17 78 l-1 77 -44 0 c-37 0 -44 3 -44 19 0 11 6 20 13
22 7 1 8 0 2 -3 -12 -5 -14 -33 -2 -33 4 0 13 9 20 20 7 11 17 20 24 20 7 0 3
-7 -8 -15 -18 -15 -18 -15 0 -8 15 5 17 3 12 -8 -4 -8 0 -5 8 5 11 14 16 41
16 90 0 39 3 82 5 96 5 22 4 22 -4 5 -9 -19 -10 -19 -10 -1 -2 34 -16 5 -17
-32 -1 -96 -5 -123 -15 -120 -13 4 -22 163 -14 257 8 88 26 83 26 -8 1 -50 4
-61 17 -61 15 0 17 11 15 77 -1 73 -3 78 -23 76 -12 -2 -19 1 -16 6 3 5 -1 12
-10 15 -23 9 -34 7 -34 -5 0 -6 7 -8 16 -5 8 3 12 2 9 -4 -11 -18 -35 -11 -35
10 0 16 7 20 35 20 20 0 35 -5 35 -12 0 -6 8 -4 19 6 16 14 19 27 15 67 -4 39
-1 51 12 56 18 7 35 -13 27 -34 -4 -9 0 -11 11 -7 13 5 16 -1 17 -27 1 -19 5
-45 9 -59 6 -19 8 -12 9 32 1 47 5 60 23 72 12 9 18 16 13 16 -6 0 -3 5 5 10
8 5 35 10 60 11 l45 2 -57 9 c-38 7 -58 15 -58 24 0 18 -14 18 -30 -1 -9 -10
-16 -12 -25 -5 -8 6 -15 6 -23 -2 -9 -9 -16 -8 -28 4 -18 18 -11 38 12 38 8 0
14 5 14 10 0 6 -4 10 -10 10 -5 0 -10 5 -10 10 0 6 8 10 18 10 22 0 42 19 42
39 0 11 -3 12 -11 4 -18 -18 -53 20 -47 50 4 23 2 25 -26 24 -27 -2 -31 -7
-41 -47 -10 -40 -12 -42 -18 -20 -3 14 -4 35 -1 47 5 16 2 21 -13 20 -15 -2
-18 4 -15 31 1 18 -3 43 -9 55 -8 15 -8 19 0 12 6 -6 17 -28 25 -50 8 -22 15
-32 15 -22 1 9 8 17 16 17 8 0 15 -8 15 -17 1 -16 2 -16 10 -2 6 11 24 16 56
17 44 0 46 -1 41 -26 -2 -15 -8 -35 -12 -44 -9 -22 5 -23 31 -2 13 11 15 17 7
20 -15 6 -17 42 -4 63 5 8 16 11 30 6 26 -8 27 6 1 30 -14 13 -29 16 -56 12
l-37 -6 23 24 c26 27 89 52 99 39 3 -5 15 -9 26 -9 26 0 35 -52 11 -61 -22 -9
-20 -24 3 -24 31 0 64 49 57 85 -8 38 -16 45 -54 48 -23 1 -32 7 -32 20 0 9
-4 17 -10 17 -5 0 -10 -4 -10 -10 0 -5 -7 -10 -16 -10 -26 0 -10 24 22 31 16
4 43 14 59 23 38 20 56 20 49 1 -4 -8 -17 -15 -29 -15 -26 0 -41 -15 -25 -25
6 -4 8 -11 5 -16 -4 -5 1 -9 9 -9 9 0 16 9 16 21 0 12 4 17 11 14 6 -4 8 -14
4 -24 -4 -10 1 -8 15 7 23 25 33 27 61 12 16 -9 17 -15 9 -33 -11 -21 -11 -21
4 -3 21 27 20 45 -5 72 l-21 22 28 15 c19 10 37 12 52 6 16 -6 22 -5 22 5 0
13 -56 46 -78 46 -5 0 -12 7 -16 15 -7 19 -26 20 -26 0 0 -8 -9 -19 -19 -25
-30 -16 -35 -12 -17 15 12 18 13 25 4 25 -10 0 -10 2 1 9 11 7 11 9 0 14 -12
5 -11 7 1 16 11 8 17 5 23 -12 l8 -22 18 23 c11 15 23 21 34 16 28 -10 20 15
-10 33 -16 9 -36 32 -46 53 -9 20 -28 42 -42 48 -28 13 -34 2 -10 -18 16 -13
20 -47 9 -74 -5 -13 -9 -14 -20 -5 -8 6 -14 17 -14 23 0 7 -16 20 -35 29 -26
12 -35 23 -35 41 0 22 -4 24 -42 22 -30 -2 -49 3 -62 16 -22 20 -36 23 -36 8
0 -5 5 -9 12 -7 23 4 19 -29 -5 -40 -19 -9 -24 -8 -24 3 0 8 6 13 13 10 11 -4
11 0 2 20 -11 23 -13 24 -19 7 -7 -16 -8 -16 -8 0 -1 25 -29 21 -33 -5 -3 -21
-4 -21 -9 5 -5 22 -3 27 12 27 10 0 26 11 35 25 10 15 26 25 40 25 13 0 24 4
24 10 0 12 -35 31 -44 23 -3 -3 -6 3 -6 15 0 12 -4 22 -10 22 -5 0 -10 6 -10
14 0 7 -12 16 -27 19 -20 4 -32 -1 -47 -20z m-46 -219 c0 -4 -8 -13 -17 -21
-17 -14 -17 -14 -1 -9 29 9 48 -21 48 -76 0 -44 -2 -49 -15 -38 -9 8 -15 8
-15 2 0 -18 -60 -11 -60 7 -1 14 -2 13 -11 -1 -12 -22 -39 -23 -39 -2 0 8 -5
12 -10 9 -6 -4 -8 -11 -5 -16 4 -5 -3 -9 -14 -9 -12 0 -23 -10 -30 -27 -9 -25
-10 -23 -8 21 2 40 7 53 29 69 35 26 82 26 111 0 60 -54 78 -26 22 36 -41 46
-44 61 -10 61 14 0 25 -3 25 -6z m215 -5 c4 -5 -9 -26 -29 -45 -20 -19 -36
-41 -36 -49 0 -27 22 -27 50 0 38 37 82 36 121 -1 16 -15 29 -24 29 -18 0 5 5
2 10 -6 8 -13 10 -12 10 3 0 9 4 17 9 17 5 0 8 -11 7 -25 0 -15 -6 -24 -15
-22 -9 1 -18 -12 -24 -33 l-10 -35 -7 38 c-7 36 -20 62 -20 39 0 -9 -28 -12
-92 -11 -128 2 -121 3 -107 -23 7 -12 12 -46 13 -75 0 -29 3 -54 6 -54 34 -7
70 -7 70 1 0 6 8 5 20 -2 25 -16 25 -30 -1 -54 -15 -14 -20 -15 -17 -4 2 11
-5 14 -25 12 -21 -2 -30 3 -37 20 l-9 23 0 -22 c-1 -13 -6 -23 -12 -23 -6 0
-8 9 -4 20 5 14 2 20 -9 20 -10 0 -16 -9 -17 -22 -1 -18 -3 -16 -10 10 -5 17
-13 32 -18 32 -5 0 -12 15 -15 34 -5 25 -1 43 15 70 l21 36 -21 0 c-25 0 -29
35 -6 44 8 3 15 1 15 -4 0 -6 -4 -10 -10 -10 -5 0 -10 -4 -10 -9 0 -5 12 -8
26 -8 16 0 21 2 14 7 -7 4 -9 13 -6 19 11 16 26 13 26 -5 0 -14 3 -14 15 -4 8
7 15 29 15 50 0 37 19 58 41 44 5 -3 9 0 9 5 0 6 -4 11 -10 11 -5 0 -10 5 -10
10 0 13 37 13 45 -1z m-85 -3 c0 -3 -5 -8 -12 -12 -7 -4 -8 -3 -4 4 7 12 16
16 16 8z m-43 -68 c-3 -8 -6 -5 -6 6 -1 11 2 17 5 13 3 -3 4 -12 1 -19z m-311
-57 c0 -11 -4 -17 -8 -15 -4 3 -8 12 -8 20 0 8 4 14 8 14 4 0 8 -9 8 -19z
m213 -55 c-3 -3 -11 5 -18 17 -13 21 -12 21 5 5 10 -10 16 -20 13 -22z m-39 9
c10 -12 9 -15 -7 -15 -20 0 -43 -18 -43 -33 0 -5 7 -4 16 3 18 16 36 1 52 -45
5 -16 13 -39 17 -50 6 -17 4 -17 -14 4 -12 13 -21 29 -21 36 0 7 -7 18 -15 25
-13 10 -15 9 -15 -11 l0 -24 -20 25 c-33 43 -22 100 21 100 9 0 22 -7 29 -15z
m334 -18 c8 -22 6 -32 -10 -54 -25 -33 -46 -42 -38 -16 5 16 4 16 -10 -1 -16
-19 -16 -19 -16 6 0 33 21 52 39 35 10 -10 12 -8 9 8 -2 12 -13 21 -26 23 -41
6 -20 33 23 29 11 -1 24 -13 29 -30z m146 -12 c0 -2 -10 -9 -22 -15 -22 -11
-22 -10 -4 4 21 17 26 19 26 11z m-418 -120 c-2 -14 0 -25 6 -25 6 0 12 9 14
20 4 29 22 30 26 2 2 -14 -1 -22 -10 -20 -7 2 -12 -3 -10 -9 1 -7 -2 -13 -7
-13 -12 0 -27 21 -34 48 -3 14 -1 22 8 22 8 0 11 -9 7 -25z m355 18 c-4 -3
-10 -3 -14 0 -3 4 0 7 7 7 7 0 10 -3 7 -7z m-67 -33 c0 -5 -10 -10 -22 -9 -22
0 -22 1 -3 9 11 5 21 9 23 9 1 1 2 -3 2 -9z m-153 -27 c-4 -3 -10 -3 -14 0 -3
4 0 7 7 7 7 0 10 -3 7 -7z m-152 -23 c3 -5 4 -10 1 -10 -3 0 -8 5 -11 10 -3 6
-4 10 -1 10 3 0 8 -4 11 -10z m100 -30 c-3 -5 -12 -10 -18 -10 -7 0 -6 4 3 10
19 12 23 12 15 0z m112 -47 c-4 -3 -10 -3 -14 0 -3 4 0 7 7 7 7 0 10 -3 7 -7z
m-90 -20 c-4 -3 -7 0 -7 7 0 7 3 10 7 7 3 -4 3 -10 0 -14z m-89 -32 c2 -23 0
-31 -8 -26 -6 4 -9 14 -6 22 4 9 1 22 -6 31 -11 13 -10 14 2 10 8 -2 16 -19
18 -37z m105 -202 c-5 -18 -7 -19 -15 -5 -13 23 -28 20 -29 -6 l-2 -23 -4 23
c-5 24 -23 31 -23 9 0 -8 -7 -14 -15 -14 -8 0 -15 9 -15 19 0 15 8 18 54 18
50 0 54 -2 49 -21z m-25 -116 c-10 -2 -26 -2 -35 0 -10 3 -2 5 17 5 19 0 27
-2 18 -5z m-5 -40 c-7 -2 -19 -2 -25 0 -7 3 -2 5 12 5 14 0 19 -2 13 -5z
m-105 -509 c12 -4 22 -13 22 -20 0 -19 -103 -19 -119 -1 -9 11 -5 14 20 15 17
0 34 3 37 6 7 7 11 7 40 0z"/>
<path d="M733 1633 c4 -3 10 -3 14 0 3 4 0 7 -7 7 -7 0 -10 -3 -7 -7z"/>
<path d="M960 1630 c0 -5 7 -10 15 -10 8 0 15 5 15 10 0 6 -7 10 -15 10 -8 0
-15 -4 -15 -10z"/>
<path d="M1075 1630 c-3 -5 -1 -10 4 -10 6 0 11 5 11 10 0 6 -2 10 -4 10 -3 0
-8 -4 -11 -10z"/>
<path d="M1105 1630 c3 -5 10 -10 16 -10 5 0 9 5 9 10 0 6 -7 10 -16 10 -8 0
-12 -4 -9 -10z"/>
<path d="M986 1441 c-4 -5 -2 -12 3 -15 5 -4 12 -2 15 3 4 5 2 12 -3 15 -5 4
-12 2 -15 -3z"/>
<path d="M1036 1442 c-3 -6 -1 -14 5 -17 15 -10 25 3 12 16 -7 7 -13 7 -17 1z"/>
<path d="M870 1440 c0 -7 3 -10 7 -7 3 4 3 10 0 14 -4 3 -7 0 -7 -7z"/>
<path d="M970 1870 c-24 -15 -3 -24 55 -24 60 -1 70 8 30 26 -19 9 -28 9 -37
0 -15 -15 -32 -16 -23 -2 8 12 -5 13 -25 0z"/>
<path d="M870 1830 c0 -7 3 -10 7 -7 3 4 3 10 0 14 -4 3 -7 0 -7 -7z"/>
<path d="M500 1430 c0 -7 3 -10 7 -7 3 4 3 10 0 14 -4 3 -7 0 -7 -7z"/>
<path d="M630 1430 c0 -5 5 -10 10 -10 6 0 10 5 10 10 0 6 -4 10 -10 10 -5 0
-10 -4 -10 -10z"/>
<path d="M513 1403 c4 -3 10 -3 14 0 3 4 0 7 -7 7 -7 0 -10 -3 -7 -7z"/>
<path d="M881 1234 c0 -11 3 -14 6 -6 3 7 2 16 -1 19 -3 4 -6 -2 -5 -13z"/>
<path d="M962 1241 c2 -7 7 -12 11 -12 12 1 9 15 -3 20 -7 2 -11 -2 -8 -8z"/>
<path d="M790 1229 c0 -5 5 -7 10 -4 6 3 10 8 10 11 0 2 -4 4 -10 4 -5 0 -10
-5 -10 -11z"/>
<path d="M1030 1230 c0 -7 3 -10 7 -7 3 4 3 10 0 14 -4 3 -7 0 -7 -7z"/>
<path d="M1047 1080 c-3 -11 -1 -20 4 -20 5 0 9 9 9 20 0 11 -2 20 -4 20 -2 0
-6 -9 -9 -20z"/>
<path d="M1040 1034 c0 -8 5 -12 10 -9 6 3 10 10 10 16 0 5 -4 9 -10 9 -5 0
-10 -7 -10 -16z"/>
<path d="M960 840 c0 -5 5 -10 10 -10 6 0 10 5 10 10 0 6 -4 10 -10 10 -5 0
-10 -4 -10 -10z"/>
<path d="M870 650 c0 -7 3 -10 7 -7 3 4 3 10 0 14 -4 3 -7 0 -7 -7z"/>
<path d="M964 448 c-4 -7 -3 -8 4 -4 7 4 12 9 12 12 0 8 -9 4 -16 -8z"/>
<path d="M703 433 c4 -3 10 -3 14 0 3 4 0 7 -7 7 -7 0 -10 -3 -7 -7z"/>
<path d="M870 250 c0 -7 3 -10 7 -7 3 4 3 10 0 14 -4 3 -7 0 -7 -7z"/>
<path d="M733 243 c4 -3 10 -3 14 0 3 4 0 7 -7 7 -7 0 -10 -3 -7 -7z"/>
</g>
</svg>
