<?xml version="1.0" standalone="no"?>
<!DOCTYPE svg PUBLIC "-//W3C//DTD SVG 20010904//EN"
 "http://www.w3.org/TR/2001/REC-SVG-20010904/DTD/svg10.dtd">
<svg version="1.0" xmlns="http://www.w3.org/2000/svg"
 width="259.000000pt" height="231.000000pt" viewBox="0 0 259.000000 231.000000"
 preserveAspectRatio="xMidYMid meet">
<g transform="translate(0.000000,231.000000) scale(0.100000,-0.100000)"
fill="#000000" stroke="none">
<path d="M482 2254 c-177 -39 -325 -173 -387 -352 -138 -394 70 -755 501 -867
63 -16 230 -20 253 -6 13 9 13 23 -5 112 -5 27 -5 27 -122 31 -130 6 -179 20
-280 84 -196 124 -274 305 -228 526 30 141 106 242 226 301 61 30 70 32 180
32 93 0 129 -5 185 -23 105 -35 224 -96 294 -152 l62 -51 55 48 56 48 -47 43
c-66 59 -195 137 -290 173 -163 63 -322 82 -453 53z"/>
<path d="M1820 2251 c-115 -25 -229 -71 -325 -130 -136 -83 -423 -338 -494
-437 l-32 -44 48 -20 c26 -11 56 -24 67 -28 15 -6 39 13 125 98 288 289 505
416 732 428 156 8 273 -43 357 -154 80 -106 116 -317 74 -435 -24 -67 -60
-126 -111 -183 -37 -40 -38 -44 -44 -134 l-6 -92 32 17 c50 29 170 153 209
218 75 124 98 238 78 392 -31 249 -160 420 -370 492 -92 32 -229 37 -340 12z"/>
<path d="M1372 1803 l-52 -46 74 -77 c109 -114 165 -223 181 -353 7 -58 7 -59
53 -78 26 -11 60 -23 76 -26 l28 -6 -7 74 c-18 196 -82 343 -207 475 -44 46
-83 84 -87 84 -3 -1 -30 -22 -59 -47z"/>
<path d="M685 1625 c-78 -20 -133 -54 -188 -115 -43 -48 -87 -138 -87 -180 0
-12 21 -30 64 -54 35 -20 67 -36 70 -36 3 0 6 9 6 21 0 94 75 195 162 217 107
27 205 7 353 -72 l80 -43 45 34 c79 61 79 57 16 97 -192 123 -372 168 -521
131z"/>
<path d="M1703 1633 c-18 -2 -33 -7 -33 -11 0 -4 12 -35 27 -68 l26 -62 76 -4
c170 -10 253 -110 238 -288 -14 -173 -118 -315 -437 -599 -58 -51 -150 -142
-205 -202 l-99 -109 -85 92 c-101 111 -151 159 -296 287 -127 113 -211 202
-260 274 -32 47 -39 52 -112 74 -43 13 -86 26 -96 30 -16 5 -15 -1 7 -52 60
-135 163 -259 364 -436 70 -63 160 -147 201 -189 75 -77 249 -283 258 -307 10
-26 30 -10 106 90 95 125 235 271 387 404 187 163 279 270 349 407 50 98 65
164 64 286 0 74 -5 108 -22 152 -26 66 -95 148 -156 184 -71 41 -193 60 -302
47z"/>
<path d="M1334 1461 c-65 -44 -153 -107 -195 -139 -43 -33 -83 -62 -90 -64
-11 -4 -11 -17 -1 -78 7 -41 14 -76 16 -78 8 -7 135 76 212 139 44 35 116 86
162 113 45 28 82 56 82 63 0 18 -51 123 -59 123 -4 0 -61 -36 -127 -79z"/>
<path d="M886 1435 c-3 -8 -10 -53 -16 -100 -18 -149 10 -296 78 -401 46 -71
95 -114 177 -154 82 -41 161 -54 230 -40 64 13 156 57 207 100 39 32 121 147
116 162 -2 5 -32 19 -68 31 l-64 23 -31 -46 c-36 -52 -109 -105 -168 -121
-119 -32 -266 63 -313 203 -19 56 -26 228 -12 279 7 25 4 28 -40 47 -76 32
-89 34 -96 17z"/>
<path d="M1388 1290 c-77 -51 -77 -53 -6 -102 94 -66 144 -92 243 -128 81 -29
102 -33 209 -34 l119 -1 23 60 c37 95 43 90 -113 90 -133 0 -141 1 -217 33
-44 18 -107 51 -139 72 -33 22 -62 40 -66 40 -4 0 -28 -14 -53 -30z"/>
</g>
</svg>
