<?xml version="1.0" standalone="no"?>
<!DOCTYPE svg PUBLIC "-//W3C//DTD SVG 20010904//EN"
 "http://www.w3.org/TR/2001/REC-SVG-20010904/DTD/svg10.dtd">
<svg version="1.0" xmlns="http://www.w3.org/2000/svg"
 width="300.000000pt" height="300.000000pt" viewBox="0 0 300.000000 300.000000"
 preserveAspectRatio="xMidYMid meet">
<metadata>
Created by potrace 1.10, written by Peter Selinger 2001-2011
</metadata>
<g transform="translate(0.000000,300.000000) scale(0.100000,-0.100000)"
stroke="none">
<path d="M818 2726 c-56 -15 -116 -54 -147 -96 -50 -68 -51 -81 -51 -564 l0
-451 72 -17 c40 -10 98 -34 130 -54 l59 -36 47 31 c239 153 562 63 686 -191
98 -201 61 -391 -114 -580 -44 -47 -80 -89 -80 -93 0 -3 264 -5 588 -3 l587 3
50 23 c65 30 112 75 141 137 l24 50 0 820 0 820 -24 50 c-28 62 -77 111 -136
139 -45 21 -51 21 -915 23 -681 1 -880 -1 -917 -11z m1720 -418 c15 -15 15
-51 0 -66 -17 -17 -1629 -17 -1646 0 -15 15 -15 51 0 66 17 17 1629 17 1646 0z
m-7 -368 c21 -12 25 -50 7 -68 -9 -9 -207 -12 -829 -12 -736 0 -817 2 -823 16
-11 28 -6 53 12 63 24 14 1606 15 1633 1z m7 -382 c18 -18 14 -56 -7 -68 -27
-14 -815 -14 -842 0 -21 12 -25 50 -7 68 17 17 839 17 856 0z m0 -370 c7 -7
12 -21 12 -33 0 -44 -5 -45 -387 -45 l-363 0 -12 25 c-9 21 -8 28 7 45 17 19
31 20 375 20 263 0 359 -3 368 -12z" />
<path d="M463 1506 c-104 -34 -194 -114 -241 -214 -24 -50 -27 -70 -27 -157 0
-164 4 -170 375 -540 l310 -310 310 310 c371 370 375 376 375 540 0 88 -3 107
-27 157 -37 80 -107 152 -187 191 -61 30 -73 32 -166 32 -113 0 -164 -17 -241
-80 -52 -43 -76 -44 -122 -4 -63 56 -136 83 -232 86 -53 2 -101 -2 -127 -11z"
fill="red"/>
</g>
</svg>
