<?xml version="1.0" standalone="no"?>
<!DOCTYPE svg PUBLIC "-//W3C//DTD SVG 20010904//EN"
 "http://www.w3.org/TR/2001/REC-SVG-20010904/DTD/svg10.dtd">
<svg version="1.0" xmlns="http://www.w3.org/2000/svg"
 width="200.000000pt" height="177.000000pt" viewBox="0 0 200.000000 177.000000"
 preserveAspectRatio="xMidYMid meet">
<metadata>
Created by potrace 1.10, written by Peter Selinger 2001-2011
</metadata>
<g transform="translate(0.000000,177.000000) scale(0.100000,-0.100000)"
fill="#000000" stroke="none">
<path d="M660 1716 c0 -49 -8 -56 -70 -56 -71 0 -90 -7 -90 -30 0 -36 -12 -50
-41 -50 -30 0 -33 -3 -43 -52 -5 -23 -12 -28 -37 -28 -30 0 -33 -3 -43 -52 -5
-21 -13 -27 -39 -30 -30 -3 -32 -5 -35 -48 -5 -100 -10 -110 -47 -110 l-35 0
-2 -192 -3 -193 -78 -3 -78 -3 3 -77 3 -77 32 -3 c26 -3 34 -9 39 -30 10 -49
13 -52 43 -52 25 0 32 -5 37 -28 11 -49 13 -52 49 -52 l35 0 0 -160 0 -160 35
0 c30 0 35 -4 41 -28 10 -49 13 -52 43 -52 37 0 46 -25 39 -101 l-5 -49 204 0
204 0 -3 33 c-3 31 -4 32 -58 35 -93 4 -102 8 -98 45 3 31 4 32 58 35 93 4
102 8 98 45 -3 31 -4 32 -58 35 -89 4 -98 8 -102 45 l-3 32 -78 3 -78 3 3 77
3 77 38 3 37 3 0 159 0 159 -37 3 -38 3 -3 78 -3 77 75 0 c65 0 75 -2 81 -20
10 -31 -12 -60 -46 -60 -29 0 -30 -2 -27 -37 3 -36 5 -38 41 -41 l37 -3 0
-120 0 -119 120 0 120 0 0 160 0 160 -35 0 c-36 0 -38 3 -49 53 -5 22 -12 27
-37 27 -30 0 -33 3 -43 52 -5 21 -13 27 -39 30 -29 3 -32 6 -32 38 0 32 3 35
35 40 31 4 35 9 38 38 3 34 6 36 55 46 22 5 27 12 27 36 l0 30 190 0 c181 0
190 -1 190 -19 0 -37 12 -51 41 -51 30 0 33 -3 43 -52 5 -21 13 -27 39 -30 29
-3 32 -6 32 -38 0 -32 -3 -35 -35 -40 -31 -4 -36 -9 -40 -40 -4 -31 -9 -36
-40 -40 -31 -4 -36 -9 -40 -40 -5 -32 -8 -35 -42 -38 l-38 -3 0 -160 0 -159
120 0 120 0 0 119 0 120 38 3 c35 3 37 5 37 38 0 31 -3 35 -27 38 -35 4 -52
26 -44 57 6 24 10 25 82 25 l75 0 -3 -77 -3 -78 -37 -3 -38 -3 0 -159 0 -159
38 -3 37 -3 3 -77 3 -78 -75 0 c-74 0 -76 0 -82 -28 -3 -15 -7 -32 -9 -39 -3
-8 -31 -13 -77 -15 -70 -3 -73 -4 -76 -29 -4 -37 15 -48 88 -51 l65 -3 0 -35
0 -35 -75 -5 -75 -5 0 -30 0 -30 202 -3 201 -2 -5 39 c-3 22 -2 56 1 75 6 32
10 36 37 36 30 0 33 3 43 52 6 24 11 28 41 28 l35 0 0 160 0 160 35 0 c36 0
38 3 49 52 5 23 12 28 37 28 30 0 33 3 43 52 5 20 13 27 34 30 27 3 27 4 30
81 l3 77 -76 0 -75 0 0 195 0 195 -35 0 c-39 0 -43 8 -47 100 -3 54 -4 55 -35
58 -26 3 -34 9 -39 30 -10 49 -13 52 -43 52 -25 0 -32 5 -37 28 -10 49 -13 52
-43 52 -25 0 -32 5 -37 28 -3 15 -7 32 -9 39 -3 8 -31 13 -77 15 l-73 3 -3 38
-3 37 -350 0 -349 0 0 -24z m70 -235 c11 -22 13 -83 4 -119 -5 -19 -12 -23
-38 -20 -31 3 -31 3 -34 67 -2 35 -1 70 2 77 8 21 54 17 66 -5z m628 -63 l3
-78 -35 0 c-38 0 -46 12 -46 70 0 63 15 92 48 88 27 -3 27 -4 30 -80z m-1096
-705 l3 -78 32 -3 c55 -5 53 -82 -3 -82 -25 0 -28 4 -38 53 -5 22 -12 27 -37
27 -30 0 -33 3 -43 52 -5 21 -13 27 -39 30 -25 2 -33 8 -35 26 -7 46 2 52 82
52 l75 0 3 -77z m553 57 c10 -32 -12 -62 -43 -58 -28 3 -40 32 -28 64 8 22 63
18 71 -6z m460 -20 c0 -30 -4 -35 -26 -38 -33 -4 -53 20 -45 53 6 22 11 26 39
23 29 -3 32 -6 32 -38z m640 0 c0 -32 -3 -35 -35 -40 -31 -4 -36 -9 -40 -40
-4 -31 -9 -36 -40 -40 -31 -4 -36 -9 -40 -40 -4 -29 -10 -36 -31 -38 -33 -4
-53 20 -45 52 5 19 14 25 39 28 l32 3 3 78 3 78 77 -3 77 -3 0 -35z m-1420
-140 c10 -32 -12 -62 -43 -58 -28 3 -40 32 -28 64 8 22 63 18 71 -6z m1100
-20 c0 -30 -4 -35 -26 -38 -33 -4 -53 20 -45 53 6 22 11 26 39 23 29 -3 32 -6
32 -38z m-1020 -460 c10 -32 -12 -62 -43 -58 -28 3 -40 32 -28 64 8 22 63 18
71 -6z m940 -20 c0 -30 -4 -35 -26 -38 -36 -4 -52 18 -39 52 8 22 15 27 38 24
24 -3 27 -7 27 -38z"/>
<path d="M900 350 l0 -40 110 0 110 0 0 40 0 40 -110 0 -110 0 0 -40z"/>
<path d="M820 110 l0 -40 190 0 190 0 0 40 0 40 -190 0 -190 0 0 -40z"/>
</g>
</svg>
