<?xml version="1.0" standalone="no"?>
<!DOCTYPE svg PUBLIC "-//W3C//DTD SVG 20010904//EN"
 "http://www.w3.org/TR/2001/REC-SVG-20010904/DTD/svg10.dtd">
<svg version="1.0" xmlns="http://www.w3.org/2000/svg"
 width="200.000000pt" height="178.000000pt" viewBox="0 0 200.000000 178.000000"
 preserveAspectRatio="xMidYMid meet">
<metadata>
Created by potrace 1.10, written by Peter Selinger 2001-2011
</metadata>
<g transform="translate(0.000000,178.000000) scale(0.100000,-0.100000)"
fill="#000000" stroke="none">
<path d="M648 1703 l-3 -38 -70 -5 -70 -5 -9 -37 c-8 -32 -14 -37 -40 -40 -27
-3 -32 -8 -40 -40 -8 -32 -14 -37 -40 -40 -27 -3 -32 -8 -40 -40 -8 -32 -14
-37 -40 -40 -28 -3 -31 -7 -34 -38 -1 -19 -5 -54 -8 -77 -5 -41 -7 -43 -39
-43 l-35 0 -2 -192 -3 -193 -78 -3 -78 -3 3 -77 3 -77 32 -3 c26 -3 34 -9 39
-30 10 -49 13 -52 43 -52 25 0 32 -5 37 -27 11 -50 13 -53 49 -53 l35 0 0
-160 0 -160 35 0 c30 0 35 -4 41 -28 10 -49 13 -52 43 -52 26 0 30 -4 36 -39
3 -21 3 -55 0 -75 l-7 -36 200 0 c130 0 203 4 207 11 4 5 4 21 1 35 -6 22 -12
24 -59 24 -83 0 -97 7 -97 46 l0 34 63 0 c77 0 103 15 93 53 -6 25 -10 27 -59
27 -70 0 -97 9 -97 30 0 45 -9 50 -86 50 l-74 0 0 80 0 80 28 0 c36 0 52 16
52 52 0 24 4 28 28 28 35 0 52 16 52 52 l0 27 118 3 117 3 3 38 3 37 -200 0
-201 0 0 80 0 80 28 0 c36 0 52 16 52 52 l0 28 115 0 c125 0 134 4 121 55 -6
23 -11 25 -59 25 -83 0 -97 7 -97 46 0 31 3 34 28 34 36 0 52 16 52 52 0 24 4
28 28 28 34 0 52 16 52 47 l0 23 190 0 190 0 0 -30 c0 -24 5 -31 28 -36 48
-10 52 -13 52 -37 0 -29 16 -44 50 -49 20 -2 26 -10 28 -35 3 -29 0 -32 -30
-37 -18 -3 -53 -7 -78 -8 -44 -3 -45 -4 -48 -40 -3 -35 -5 -37 -40 -40 -31 -3
-37 -7 -40 -29 -4 -33 20 -53 53 -45 21 5 25 12 25 41 l0 35 120 0 120 0 0
-35 c0 -30 4 -35 28 -41 15 -3 33 -7 40 -10 8 -2 12 -27 12 -79 l0 -75 -200 0
-200 0 0 -80 0 -80 68 0 c79 0 89 5 94 45 l3 30 78 3 77 3 0 -75 c0 -74 0 -76
28 -82 15 -3 33 -7 40 -10 8 -2 12 -27 12 -78 l0 -75 -77 -3 -78 -3 -3 -32
c-3 -35 -15 -40 -112 -45 -43 -3 -45 -5 -48 -35 -4 -37 5 -41 98 -45 54 -3 55
-4 58 -35 3 -29 0 -32 -30 -37 -18 -3 -53 -7 -78 -8 -43 -3 -45 -5 -48 -35
l-3 -33 200 0 201 0 0 70 c0 48 4 72 13 74 6 3 24 7 39 10 21 5 27 13 30 39 3
29 6 32 41 35 l37 3 0 160 0 159 24 0 c42 0 56 11 56 41 0 30 3 33 53 43 22 5
27 12 27 37 0 30 3 33 53 43 27 6 27 8 27 81 l0 75 -80 0 -80 0 0 194 0 195
-37 3 -38 3 -5 75 -5 75 -35 5 c-31 4 -36 9 -40 40 -4 31 -9 36 -40 40 -31 4
-36 9 -40 40 -4 31 -9 36 -40 40 -31 4 -36 9 -40 40 l-5 35 -75 5 -75 5 -3 38
-3 37 -354 0 -354 0 -3 -37z m80 -286 l3 -78 -33 3 -33 3 -3 64 c-4 81 1 93
35 89 28 -3 28 -4 31 -81z m627 3 l0 -75 -33 -3 c-34 -3 -57 23 -32 38 10 6
10 15 0 44 -17 53 -6 78 33 74 l32 -3 0 -75z m-1093 -707 l3 -78 33 -3 c17 -2
32 -9 33 -15 0 -7 2 -20 4 -29 4 -24 -20 -41 -50 -34 -16 4 -25 13 -25 25 0
32 -11 51 -30 51 -31 0 -50 11 -50 30 0 31 -11 50 -30 50 -37 0 -50 12 -50 46
l0 34 80 0 79 0 3 -77z m1656 46 c3 -29 -12 -46 -48 -51 -18 -2 -26 -10 -28
-28 -5 -34 -19 -48 -50 -52 -21 -2 -28 -10 -32 -32 -10 -58 -71 -60 -78 -2 -3
27 0 29 51 40 27 6 27 8 27 82 l0 75 78 -3 c75 -3 77 -4 80 -29z m-1427 -141
c0 -7 2 -21 4 -30 4 -23 -18 -40 -47 -36 -19 2 -24 10 -26 41 -3 36 -3 37 32
37 22 0 36 -5 37 -12z m1107 -19 c4 -36 -21 -55 -53 -41 -41 19 -22 75 23 70
21 -2 28 -9 30 -29z m-1053 -466 c7 -17 8 -16 15 2 6 17 8 15 12 -13 6 -39
-12 -57 -47 -48 -19 5 -25 13 -25 35 0 43 31 59 45 24z m970 -17 c0 -52 -63
-62 -73 -12 -7 33 6 47 40 44 29 -3 33 -7 33 -32z"/>
<path d="M463 573 c4 -3 10 -3 14 0 3 4 0 7 -7 7 -7 0 -10 -3 -7 -7z"/>
<path d="M820 916 c0 -25 5 -36 19 -41 38 -12 63 15 53 58 -3 12 -14 17 -38
17 -32 0 -34 -2 -34 -34z"/>
<path d="M900 350 l0 -40 110 0 110 0 0 40 0 40 -110 0 -110 0 0 -40z"/>
<path d="M820 110 l0 -40 190 0 190 0 0 40 0 40 -190 0 -190 0 0 -40z"/>
</g>
</svg>
