<?xml version="1.0" standalone="no"?>
<!DOCTYPE svg PUBLIC "-//W3C//DTD SVG 20010904//EN"
 "http://www.w3.org/TR/2001/REC-SVG-20010904/DTD/svg10.dtd">
<svg version="1.0" xmlns="http://www.w3.org/2000/svg"
 width="161.000000pt" height="283.000000pt" viewBox="0 0 161.000000 283.000000"
 preserveAspectRatio="xMidYMid meet">
<metadata>
Created by potrace 1.10, written by Peter Selinger 2001-2011
</metadata>
<g transform="translate(0.000000,283.000000) scale(0.100000,-0.100000)"
fill="#000000" stroke="none">
<path d="M580 2560 c0 -30 0 -30 -60 -30 -60 0 -60 0 -60 -30 0 -27 -3 -30
-30 -30 -27 0 -30 -3 -30 -30 0 -27 -3 -30 -30 -30 -27 0 -30 -3 -30 -30 0
-27 -3 -30 -30 -30 -30 0 -30 0 -30 -60 0 -60 0 -60 -30 -60 l-30 0 0 -145 0
-145 -60 0 -60 0 0 -60 c0 -60 0 -60 30 -60 27 0 30 -3 30 -30 0 -27 3 -30 30
-30 27 0 30 -3 30 -30 0 -27 3 -30 30 -30 l30 0 0 -120 0 -120 30 0 c27 0 30
-3 30 -30 0 -27 3 -30 30 -30 30 0 30 0 30 -60 0 -60 0 -60 -30 -60 l-30 0 0
-90 0 -90 30 0 30 0 0 -120 0 -120 -30 0 -30 0 0 -85 0 -85 30 0 30 0 0 -90 0
-90 30 0 c27 0 30 -3 30 -30 0 -30 0 -30 60 -30 60 0 60 0 60 -30 0 -27 -3
-30 -30 -30 -27 0 -30 -3 -30 -30 0 -27 -3 -30 -30 -30 l-30 0 0 -90 0 -90
175 0 175 0 0 120 0 120 30 0 30 0 0 -120 0 -120 180 0 180 0 0 90 0 90 -30 0
c-27 0 -30 3 -30 30 0 27 -3 30 -30 30 -27 0 -30 3 -30 30 0 30 0 30 60 30 60
0 60 0 60 30 0 27 3 30 30 30 l30 0 0 90 0 90 30 0 30 0 0 85 0 85 -30 0 -30
0 0 120 0 120 30 0 30 0 0 90 0 90 -30 0 c-30 0 -30 0 -30 60 0 60 0 60 30 60
27 0 30 3 30 30 0 27 3 30 30 30 l30 0 0 120 0 120 30 0 c27 0 30 3 30 30 0
27 3 30 30 30 27 0 30 3 30 30 0 27 3 30 30 30 30 0 30 0 30 60 l0 60 -60 0
-60 0 0 145 0 145 -30 0 c-30 0 -30 0 -30 60 0 60 0 60 -30 60 -27 0 -30 3
-30 30 0 27 -3 30 -30 30 -27 0 -30 3 -30 30 0 27 -3 30 -30 30 -27 0 -30 3
-30 30 0 30 0 30 -60 30 -60 0 -60 0 -60 30 l0 30 -265 0 -265 0 0 -30z m59
-210 c-1 -60 -1 -60 -30 -60 -29 0 -29 0 -29 60 0 60 0 60 29 60 30 0 30 0 30
-60z m471 0 c0 -60 0 -60 -30 -60 -30 0 -30 0 -30 60 0 60 0 60 30 60 30 0 30
0 30 -60z m-120 -145 c0 -21 5 -25 30 -25 27 0 30 -3 30 -30 0 -27 3 -30 30
-30 27 0 30 -3 30 -30 0 -30 0 -30 -60 -30 -60 0 -60 0 -60 -30 l0 -30 90 0
90 0 0 -30 c0 -27 3 -30 30 -30 30 0 30 0 30 -60 0 -60 0 -60 -30 -60 -27 0
-30 -3 -30 -30 0 -27 -3 -30 -30 -30 -27 0 -30 -3 -30 -30 0 -27 3 -30 30 -30
27 0 30 -3 30 -30 0 -27 3 -30 30 -30 30 0 30 0 30 -60 l0 -60 -60 0 c-60 0
-60 0 -60 -30 0 -30 0 -30 -60 -30 -60 0 -60 0 -60 -30 0 -30 0 -30 60 -30 60
0 60 0 60 -30 0 -30 0 -30 -60 -30 -60 0 -60 0 -60 -30 0 -30 0 -30 60 -30 60
0 60 0 60 -30 0 -27 -3 -30 -30 -30 -27 0 -30 -3 -30 -30 0 -27 -3 -30 -30
-30 -27 0 -30 -3 -30 -30 0 -27 3 -30 30 -30 30 0 30 0 30 -60 0 -60 0 -60 30
-60 l30 0 0 -120 0 -120 -120 0 -120 0 0 120 0 120 30 0 c27 0 30 3 30 30 0
27 -3 30 -30 30 -27 0 -30 3 -30 30 0 27 -3 30 -30 30 -27 0 -30 -3 -30 -30 0
-25 -4 -30 -25 -30 -21 0 -25 -5 -25 -30 0 -25 4 -30 25 -30 l25 0 0 -120 0
-120 -115 0 -115 0 0 120 0 120 30 0 c30 0 30 0 30 60 0 60 0 60 30 60 27 0
30 3 30 30 0 27 -3 30 -30 30 -27 0 -30 3 -30 30 0 27 -3 30 -30 30 -27 0 -30
3 -30 30 0 30 0 30 60 30 60 0 60 0 60 30 0 30 0 30 -60 30 -60 0 -60 0 -60
30 0 30 0 30 60 30 60 0 60 0 60 30 0 30 0 30 -60 30 -60 0 -60 0 -60 30 0 30
0 30 -60 30 l-60 0 0 60 c0 60 0 60 30 60 27 0 30 3 30 30 0 27 3 30 30 30 27
0 30 3 30 30 0 27 -3 30 -30 30 -27 0 -30 3 -30 30 0 27 -3 30 -30 30 -30 0
-30 0 -30 60 0 60 0 60 30 60 27 0 30 3 30 30 l0 30 90 0 90 0 0 30 c0 30 0
30 -60 30 -60 0 -60 0 -60 30 0 27 3 30 30 30 27 0 30 3 30 30 0 27 3 30 30
30 25 0 30 4 30 25 l0 25 145 0 145 0 0 -25z m-710 -385 c0 -60 0 -60 30 -60
27 0 30 -3 30 -30 0 -27 -3 -30 -30 -30 -27 0 -30 3 -30 30 0 27 -3 30 -30 30
-27 0 -30 3 -30 30 0 27 -3 30 -30 30 -27 0 -30 3 -30 30 0 30 0 30 60 30 l60
0 0 -60z m1250 30 c0 -27 -3 -30 -30 -30 -27 0 -30 -3 -30 -30 0 -27 -3 -30
-30 -30 -27 0 -30 -3 -30 -30 0 -27 -3 -30 -30 -30 -27 0 -30 3 -30 30 0 27 3
30 30 30 30 0 30 0 30 60 l0 60 60 0 c60 0 60 0 60 -30z m-1070 -118 c0 -24
-4 -28 -30 -30 -25 -2 -30 1 -30 21 0 30 7 37 37 37 19 0 23 -5 23 -28z m830
-2 c0 -28 -3 -30 -30 -28 -26 2 -30 6 -30 30 0 24 4 28 30 28 27 0 30 -3 30
-30z m-809 -342 c0 -10 2 -10 6 0 10 24 33 13 33 -17 0 -26 -3 -30 -30 -29
-26 1 -30 5 -30 30 0 27 19 41 21 16z m749 -18 c0 -27 -3 -30 -30 -30 -25 0
-30 4 -30 24 0 25 11 34 43 35 12 1 17 -7 17 -29z m-710 -360 c0 -27 -3 -30
-30 -30 -27 0 -30 3 -30 30 0 27 3 30 30 30 27 0 30 -3 30 -30z m710 0 c0 -27
-3 -30 -30 -30 -27 0 -30 3 -30 30 0 27 3 30 30 30 27 0 30 -3 30 -30z m-710
-180 c0 -27 -3 -30 -30 -30 -30 0 -30 -1 -30 -55 0 -54 0 -55 -30 -55 -30 0
-30 1 -30 55 0 54 0 55 30 55 27 0 30 3 30 30 0 27 3 30 30 30 27 0 30 -3 30
-30z m710 0 c0 -27 3 -30 30 -30 30 0 30 -1 30 -55 0 -54 0 -55 -30 -55 -30 0
-30 1 -30 55 0 54 0 55 -30 55 -27 0 -30 3 -30 30 0 27 3 30 30 30 27 0 30 -3
30 -30z m-650 -170 c0 -27 3 -30 30 -30 27 0 30 3 30 30 l0 30 205 0 205 0 0
-30 c0 -27 3 -30 30 -30 27 0 30 3 30 30 0 27 3 30 30 30 27 0 30 -3 30 -30 0
-27 3 -30 30 -30 30 0 30 0 30 -60 0 -60 0 -60 -30 -60 -27 0 -30 3 -30 30 0
27 -3 30 -30 30 -30 0 -30 0 -30 -60 l0 -60 -265 0 -265 0 0 60 c0 60 0 60
-30 60 -27 0 -30 -3 -30 -30 0 -27 -3 -30 -30 -30 -30 0 -30 0 -30 60 0 60 0
60 30 60 27 0 30 3 30 30 0 27 3 30 30 30 27 0 30 -3 30 -30z m180 -360 l0
-90 -120 0 -120 0 0 60 c0 60 0 60 30 60 27 0 30 3 30 30 l0 30 90 0 90 0 0
-90z m350 60 c0 -27 3 -30 30 -30 30 0 30 0 30 -60 l0 -60 -120 0 -120 0 0 90
0 90 90 0 90 0 0 -30z"/>
<path d="M700 1970 c0 -27 3 -30 30 -30 27 0 30 3 30 30 0 27 -3 30 -30 30
-27 0 -30 -3 -30 -30z"/>
<path d="M930 1970 c0 -27 3 -30 30 -30 27 0 30 3 30 30 0 27 -3 30 -30 30
-27 0 -30 -3 -30 -30z"/>
<path d="M520 1850 c0 -27 3 -30 30 -30 27 0 30 -3 30 -30 0 -27 3 -30 30 -30
27 0 30 -3 30 -30 0 -27 3 -30 30 -30 27 0 30 3 30 30 0 27 -3 30 -30 30 -27
0 -30 3 -30 30 0 27 3 30 30 30 27 0 30 3 30 30 0 27 -3 30 -30 30 -27 0 -30
-3 -30 -30 0 -27 -3 -30 -30 -30 -27 0 -30 3 -30 30 0 27 -3 30 -30 30 -27 0
-30 -3 -30 -30z"/>
<path d="M990 1850 c0 -27 3 -30 30 -30 27 0 30 -3 30 -30 0 -27 -3 -30 -30
-30 -27 0 -30 -3 -30 -30 0 -27 3 -30 30 -30 27 0 30 3 30 30 0 27 3 30 30 30
27 0 30 3 30 30 0 27 3 30 30 30 27 0 30 3 30 30 0 27 -3 30 -30 30 -27 0 -30
-3 -30 -30 0 -27 -3 -30 -30 -30 -27 0 -30 3 -30 30 0 27 -3 30 -30 30 -27 0
-30 -3 -30 -30z"/>
<path d="M760 1610 c0 -27 -3 -30 -30 -30 -30 0 -30 0 -30 -60 0 -60 0 -60 30
-60 27 0 30 -3 30 -30 0 -27 -3 -30 -30 -30 -27 0 -30 -3 -30 -30 l0 -30 145
0 145 0 0 30 c0 27 -3 30 -30 30 -27 0 -30 3 -30 30 0 27 3 30 30 30 30 0 30
0 30 60 0 60 0 60 -30 60 -27 0 -30 3 -30 30 l0 30 -85 0 -85 0 0 -30z m170
-90 l0 -60 -85 0 -85 0 0 60 0 60 85 0 85 0 0 -60z"/>
<path d="M700 1250 c0 -27 3 -30 30 -30 30 0 30 0 30 -60 0 -60 0 -60 -30 -60
-27 0 -30 -3 -30 -30 0 -27 3 -30 30 -30 27 0 30 3 30 30 0 25 4 30 25 30 24
0 25 3 25 60 0 57 -1 60 -25 60 -21 0 -25 5 -25 30 0 27 -3 30 -30 30 -27 0
-30 -3 -30 -30z"/>
<path d="M930 1250 c0 -27 -3 -30 -30 -30 -30 0 -30 0 -30 -60 0 -60 0 -60 30
-60 27 0 30 -3 30 -30 0 -27 3 -30 30 -30 27 0 30 3 30 30 0 27 -3 30 -30 30
-30 0 -30 0 -30 60 0 60 0 60 30 60 27 0 30 3 30 30 0 27 -3 30 -30 30 -27 0
-30 -3 -30 -30z"/>
</g>
</svg>
