<?xml version="1.0" standalone="no"?>
<!DOCTYPE svg PUBLIC "-//W3C//DTD SVG 20010904//EN"
 "http://www.w3.org/TR/2001/REC-SVG-20010904/DTD/svg10.dtd">
<svg version="1.0" xmlns="http://www.w3.org/2000/svg"
 width="612.000000pt" height="537.000000pt" viewBox="0 0 612.000000 537.000000"
 preserveAspectRatio="xMidYMid meet">
<metadata>
Created by potrace 1.10, written by Peter Selinger 2001-2011
</metadata>
<g transform="translate(0.000000,537.000000) scale(0.100000,-0.100000)"
fill="#000000" stroke="none">
<path d="M1992 5231 c-10 -6 -13 -29 -11 -82 5 -142 -8 -149 -254 -149 -158 0
-177 -2 -199 -20 -22 -17 -25 -28 -26 -83 -2 -115 -22 -137 -121 -137 -32 0
-67 -3 -76 -6 -23 -9 -37 -48 -45 -128 -10 -92 -26 -106 -124 -106 -64 0 -75
-3 -96 -25 -13 -14 -21 -32 -18 -43 3 -10 2 -44 -3 -76 -10 -76 -29 -89 -134
-96 -70 -4 -80 -7 -83 -25 -2 -11 -7 -29 -12 -40 -5 -11 -10 -100 -12 -197 -3
-177 -3 -178 -28 -195 -18 -13 -51 -19 -115 -23 l-90 -5 -5 -567 c-3 -311 -8
-569 -12 -573 -4 -4 -101 -6 -217 -6 -135 1 -218 -2 -231 -9 -19 -10 -20 -20
-20 -201 0 -141 4 -198 14 -224 16 -37 48 -59 76 -52 27 7 112 -11 128 -27 7
-7 15 -42 18 -77 3 -35 10 -76 15 -91 11 -28 59 -54 82 -45 8 3 40 0 73 -6 66
-14 71 -22 73 -118 1 -48 5 -62 31 -89 29 -31 31 -31 107 -29 43 2 84 0 91 -5
9 -5 12 -116 12 -471 l0 -464 21 -12 c13 -6 44 -9 72 -6 27 2 68 -1 90 -8 46
-13 54 -29 56 -103 2 -74 22 -107 74 -121 25 -7 49 -11 54 -8 5 3 29 0 54 -7
56 -17 59 -30 58 -240 -2 -199 -4 -207 -55 -223 -56 -17 1070 -17 1170 0 68
12 69 13 82 50 14 41 11 114 -5 146 -15 27 -109 42 -248 40 -138 -2 -190 6
-203 32 -15 26 -19 140 -7 166 13 30 36 33 242 36 104 2 178 7 191 14 40 23
54 136 23 194 -13 25 -113 40 -246 38 -136 -2 -190 6 -203 31 -5 9 -12 48 -16
86 -3 38 -10 76 -15 85 -14 27 -116 40 -288 38 -87 -1 -164 2 -171 6 -13 8
-12 340 3 412 7 40 10 42 55 52 25 5 50 7 55 4 15 -9 98 19 107 37 5 10 12 49
14 86 7 108 5 106 126 118 58 6 96 20 104 41 11 30 7 151 -6 167 -14 17 -121
43 -138 33 -14 -8 -66 21 -74 42 -4 10 -10 47 -13 83 -3 36 -9 72 -14 81 -8
16 -91 36 -153 37 -35 0 -51 16 -64 65 -13 45 -12 295 0 353 10 46 23 54 93
54 59 0 113 18 125 41 6 11 13 55 15 99 2 44 6 84 10 90 4 6 125 10 350 10
394 0 365 -8 364 97 0 79 -17 125 -49 133 -14 4 -81 8 -150 10 -218 6 -255 12
-271 41 -15 30 -17 131 -3 160 14 28 39 39 94 39 19 0 52 5 73 11 44 12 58 37
63 117 6 96 21 111 107 113 73 1 108 19 124 64 8 22 12 56 10 77 -3 20 0 41 6
47 8 8 181 11 578 11 509 0 567 -2 573 -16 3 -9 3 -20 0 -25 -3 -6 -3 -36 1
-68 6 -56 9 -60 43 -74 21 -9 63 -18 95 -20 75 -6 97 -25 97 -86 0 -113 34
-151 134 -151 93 0 112 -31 107 -173 -2 -52 -17 -56 -247 -66 -187 -8 -194 -9
-213 -32 -16 -19 -20 -39 -21 -94 0 -38 3 -80 6 -92 l6 -23 349 0 c255 0 350
-3 355 -12 4 -6 6 -35 5 -64 -3 -71 14 -131 42 -146 12 -7 55 -15 95 -18 104
-9 101 -3 102 -248 l0 -202 -25 -10 c-14 -5 -48 -12 -77 -15 -101 -11 -106
-13 -123 -59 -9 -24 -16 -52 -15 -62 1 -11 2 -36 1 -57 -1 -43 -17 -53 -103
-62 -99 -10 -105 -13 -122 -56 -19 -46 -20 -70 -5 -121 12 -47 45 -65 116 -66
29 0 65 -7 80 -14 26 -12 28 -19 34 -89 4 -41 12 -85 20 -97 17 -28 59 -45
101 -41 47 5 92 -8 105 -31 9 -13 13 -85 13 -225 1 -114 0 -209 -3 -211 -2 -2
-93 -6 -203 -8 -109 -2 -208 -7 -219 -10 -33 -11 -47 -45 -52 -120 -2 -39 -5
-76 -8 -82 -5 -17 -96 -28 -210 -25 -134 3 -224 -12 -248 -41 -16 -18 -18 -36
-15 -95 2 -39 6 -75 10 -78 19 -19 99 -29 245 -31 203 -3 216 -7 223 -84 3
-30 3 -73 0 -95 -4 -35 -9 -40 -40 -47 -19 -5 -91 -8 -160 -8 -69 0 -152 -4
-185 -10 -79 -13 -95 -32 -95 -114 0 -127 -9 -126 715 -125 382 0 561 4 544
10 -43 16 -53 56 -53 223 -1 159 12 231 43 240 9 3 48 8 88 11 39 4 78 12 87
18 9 8 16 38 20 77 11 132 23 143 153 141 39 -1 74 3 78 9 3 5 6 216 6 467 -1
263 3 464 8 472 7 11 28 14 77 13 63 -2 128 10 147 27 4 4 9 35 11 69 2 33 9
77 16 96 12 38 19 40 120 50 57 5 100 22 100 38 2 49 13 128 21 155 11 34 23
39 114 47 28 2 62 9 76 15 32 12 34 23 38 269 2 126 -1 177 -10 188 -10 12
-49 15 -237 13 -179 -1 -226 2 -233 13 -5 7 -9 261 -9 563 0 303 0 556 0 563
0 8 -24 12 -84 12 -46 0 -92 3 -101 6 -37 15 -47 61 -52 253 -7 225 -5 221
-108 221 -106 0 -120 14 -130 125 -8 105 -19 115 -116 115 -49 0 -73 5 -88 18
-25 19 -40 75 -41 144 0 62 -22 78 -108 78 -103 0 -120 18 -128 133 -7 107 -6
107 -226 107 -198 0 -226 7 -248 59 -6 16 -11 58 -10 93 1 35 2 69 1 76 -1 9
-218 12 -1048 12 -577 0 -1054 -4 -1061 -9z m204 -732 c17 -19 18 -38 18 -215
-1 -189 -1 -195 -24 -219 -20 -22 -32 -25 -89 -25 -72 0 -82 4 -100 38 -14 26
-18 335 -5 387 12 50 21 55 104 55 65 0 80 -3 96 -21z m1884 1 c19 -19 20 -33
20 -218 0 -243 3 -237 -123 -237 l-81 0 -19 55 c-16 47 -18 76 -15 205 3 118
7 157 21 183 18 32 18 32 97 32 67 0 83 -3 100 -20z m-3315 -2104 c13 -4 15
-36 15 -188 0 -101 5 -200 11 -221 11 -41 48 -72 76 -63 10 3 45 0 78 -7 65
-13 72 -22 74 -103 2 -103 -15 -123 -114 -128 -88 -5 -124 31 -126 128 -2 98
-12 104 -187 115 -23 2 -52 64 -53 116 -2 88 -8 98 -69 112 -30 7 -63 11 -73
9 -30 -7 -73 13 -86 40 -14 32 -14 126 0 158 10 20 21 26 63 31 108 11 362 13
391 1z m4928 0 c42 -4 79 -12 82 -16 8 -13 13 -136 7 -166 -5 -30 -30 -41
-104 -49 -92 -10 -105 -15 -117 -44 -10 -23 -19 -92 -21 -154 0 -21 -32 -35
-102 -42 -119 -12 -124 -18 -135 -142 -7 -85 -14 -91 -107 -96 -62 -4 -97 7
-114 33 -16 27 -18 108 -3 153 13 39 19 41 121 51 25 2 57 9 73 15 31 12 29
-9 27 261 0 96 3 180 7 186 5 7 17 13 27 15 32 6 275 2 359 -5z m-4205 -503
c9 -12 12 -39 10 -86 -5 -101 -27 -114 -185 -108 -71 3 -62 181 10 212 37 15
149 4 165 -18z m3317 6 c18 -17 24 -174 7 -191 -8 -8 -64 -12 -143 -9 -66 2
-103 88 -73 167 9 24 24 45 33 48 37 11 161 1 176 -15z m-3084 -1456 c14 -27
19 -136 7 -165 -6 -15 -21 -18 -93 -18 -72 0 -88 3 -105 20 -11 11 -21 28 -21
37 -1 10 -3 28 -4 41 -5 45 16 111 36 117 24 8 39 -1 39 -25 0 -32 16 -31 49
5 27 30 34 33 55 24 13 -6 30 -22 37 -36z m2845 15 c12 -13 18 -72 15 -151 -1
-31 -6 -39 -28 -48 -31 -12 -128 -15 -159 -5 -60 19 -60 152 0 196 41 30 146
35 172 8z"/>
<path d="M2510 2872 c-35 -11 -54 -87 -39 -159 l10 -52 53 -12 c42 -9 65 -9
104 1 47 11 52 15 58 46 9 47 0 152 -13 165 -14 14 -138 21 -173 11z"/>
<path d="M3432 2873 c-46 -9 -67 -109 -38 -178 12 -27 23 -36 57 -45 43 -12
96 -8 143 10 25 9 26 12 26 99 0 69 -3 91 -16 102 -17 14 -128 22 -172 12z"/>
<path d="M1778 2389 c-33 -19 -50 -133 -27 -183 12 -26 69 -46 133 -46 67 0
83 -13 94 -76 5 -32 7 -64 5 -71 -9 -23 18 -71 43 -77 13 -4 50 -9 81 -12 92
-10 101 -16 108 -71 3 -26 8 -59 11 -73 3 -14 8 -37 11 -52 4 -21 13 -28 48
-37 107 -27 164 -4 174 70 8 57 -7 137 -28 149 -9 4 -43 11 -76 13 -102 9
-112 13 -121 60 -16 82 -5 150 26 167 11 6 49 11 84 12 81 1 107 19 116 79 7
55 -7 130 -28 147 -9 7 -46 12 -89 12 -60 0 -77 -4 -93 -20 -11 -11 -20 -26
-21 -32 -2 -41 -10 -116 -14 -135 -7 -31 -50 -50 -106 -48 -83 4 -107 14 -118
47 -6 17 -8 34 -5 39 9 16 -17 123 -34 137 -19 14 -149 16 -174 1z"/>
<path d="M3670 2394 c-26 -8 -42 -44 -47 -105 -9 -96 7 -108 182 -136 l50 -8
3 -91 c3 -111 -7 -124 -94 -130 -117 -7 -133 -19 -141 -115 -7 -74 12 -103 80
-120 52 -12 98 -7 133 15 18 12 22 27 26 88 7 113 24 128 139 130 84 2 96 14
101 106 7 117 24 133 142 134 85 1 97 16 97 122 1 48 -3 92 -9 98 -13 13 -121
22 -164 14 -46 -8 -61 -37 -66 -129 -4 -72 -7 -79 -31 -91 -14 -7 -47 -12 -73
-10 -114 5 -136 26 -137 133 0 41 -5 79 -10 84 -11 11 -155 19 -181 11z"/>
<path d="M2717 1433 c-11 -13 -15 -39 -15 -95 -1 -42 -5 -86 -11 -97 -11 -19
-69 -38 -100 -32 -7 1 -35 -3 -61 -9 -35 -8 -50 -17 -55 -33 -3 -12 -9 -90
-12 -174 -6 -163 5 -236 40 -254 9 -6 46 -13 80 -16 89 -8 103 -15 113 -60 9
-43 6 -106 -6 -139 -8 -21 -84 -49 -102 -38 -5 3 -31 1 -57 -6 -47 -11 -50
-14 -60 -55 -6 -24 -11 -68 -11 -98 0 -93 -44 -87 593 -87 429 0 558 3 563 12
11 17 6 200 -5 211 -5 5 -50 15 -100 22 -118 18 -134 33 -128 121 7 97 25 113
137 118 27 2 60 10 74 20 29 18 28 13 27 289 -1 158 -3 161 -111 172 -116 12
-131 28 -128 141 1 44 -2 85 -6 92 -5 9 -89 12 -325 12 -290 0 -319 -2 -334
-17z m660 -236 c5 -6 5 -458 0 -463 -9 -9 -650 -5 -659 4 -5 5 -9 107 -10 227
0 180 2 221 14 229 14 10 645 13 655 3z"/>
<path d="M1103 3 c9 -2 25 -2 35 0 9 3 1 5 -18 5 -19 0 -27 -2 -17 -5z"/>
<path d="M2568 3 c12 -2 30 -2 40 0 9 3 -1 5 -23 4 -22 0 -30 -2 -17 -4z"/>
<path d="M3498 3 c12 -2 30 -2 40 0 9 3 -1 5 -23 4 -22 0 -30 -2 -17 -4z"/>
<path d="M4947 3 c18 -2 50 -2 70 0 21 2 7 4 -32 4 -38 0 -55 -2 -38 -4z"/>
</g>
</svg>
