<?xml version="1.0" standalone="no"?>
<!DOCTYPE svg PUBLIC "-//W3C//DTD SVG 20010904//EN"
 "http://www.w3.org/TR/2001/REC-SVG-20010904/DTD/svg10.dtd">
<svg version="1.0" xmlns="http://www.w3.org/2000/svg"
 width="205.000000pt" height="174.000000pt" viewBox="0 0 205.000000 174.000000"
 preserveAspectRatio="xMidYMid meet">
<metadata>
Created by potrace 1.10, written by Peter Selinger 2001-2011
</metadata>
<g transform="translate(0.000000,174.000000) scale(0.100000,-0.100000)"
fill="#000000" stroke="none">
<path d="M658 1683 l-3 -38 -75 -5 -75 -5 -5 -35 c-4 -31 -9 -36 -40 -40 -31
-4 -36 -9 -40 -40 -4 -31 -9 -36 -39 -40 -27 -4 -35 -10 -38 -30 -6 -43 -12
-50 -42 -50 -35 0 -39 -10 -43 -100 l-3 -55 -37 -3 -38 -3 0 -192 0 -192 -77
0 -78 0 -3 -62 c-4 -77 8 -103 48 -103 26 0 30 -4 30 -28 0 -36 16 -52 52 -52
24 0 28 -4 28 -28 0 -35 16 -52 52 -52 l27 0 3 -157 3 -158 37 -3 c35 -3 38
-6 38 -32 0 -31 22 -50 59 -50 19 0 21 -6 21 -65 l0 -65 200 0 200 0 0 24 c0
28 -21 36 -97 36 -57 0 -68 9 -59 46 6 22 12 24 59 24 83 0 97 7 97 46 0 36
-11 41 -110 46 -43 3 -45 5 -48 34 -4 37 -19 44 -104 44 l-58 0 0 75 0 75 160
0 160 0 0 45 0 45 -120 0 -120 0 0 120 0 120 -34 0 c-41 0 -46 11 -46 91 l0
59 200 0 200 0 0 40 0 40 -115 0 c-125 0 -134 4 -121 55 4 16 13 25 25 25 32
0 51 11 51 30 0 31 11 50 30 50 36 0 50 12 50 41 l0 29 195 0 195 0 0 -30 c0
-24 5 -31 28 -36 49 -10 52 -13 52 -43 0 -25 5 -32 28 -37 49 -11 52 -13 52
-49 l0 -35 -120 0 -120 0 0 -40 0 -40 200 0 201 0 -3 -72 -3 -73 -37 -3 -38
-3 0 40 0 41 -120 0 -120 0 0 -40 c0 -42 -3 -44 -52 -40 l-28 2 0 -126 0 -126
40 0 c40 0 40 0 40 -40 l0 -40 160 0 160 0 0 -78 0 -78 -35 4 c-19 2 -55 1
-80 -2 -40 -7 -44 -10 -47 -39 -3 -29 -7 -32 -38 -35 -19 -1 -54 -5 -77 -8
-41 -5 -43 -7 -43 -39 0 -37 10 -42 110 -47 43 -3 45 -4 45 -33 0 -29 -2 -30
-45 -33 -92 -5 -110 -11 -110 -37 l0 -25 200 0 199 0 3 62 3 62 37 9 c32 8 37
13 40 40 3 29 6 32 41 35 l37 3 0 160 0 159 24 0 c42 0 56 11 56 41 0 30 3 33
53 43 22 5 27 12 27 37 0 32 16 42 73 48 4 1 7 37 7 81 l0 80 -80 0 -80 0 0
189 0 190 -37 3 -38 3 -5 75 -5 75 -35 5 c-31 4 -36 9 -40 40 -4 31 -9 36 -40
40 -31 4 -36 9 -40 40 -4 31 -9 36 -40 40 -31 4 -36 9 -40 40 l-5 35 -75 5
-75 5 -3 38 -3 37 -354 0 -354 0 -3 -37z m77 -283 l0 -75 -31 -3 c-35 -3 -44
12 -44 78 0 66 9 81 44 78 l31 -3 0 -75z m630 0 l0 -75 -29 -3 c-37 -5 -46 10
-46 75 0 73 6 85 44 81 l31 -3 0 -75z m-1105 -691 c0 -76 12 -99 50 -99 27 0
30 -3 30 -34 0 -30 -3 -34 -30 -38 -36 -5 -50 7 -50 44 0 22 -5 28 -21 28 -37
0 -59 19 -59 50 0 25 -4 30 -23 30 -38 0 -61 23 -53 53 6 26 9 27 81 27 l75 0
0 -61z m1190 -56 l0 -118 -120 3 -120 3 0 115 0 114 120 0 120 0 0 -117z m475
82 c0 -26 -5 -31 -37 -39 -32 -8 -37 -14 -40 -40 -3 -27 -8 -32 -40 -40 -32
-8 -37 -14 -40 -40 -3 -28 -6 -31 -38 -31 -31 0 -35 3 -38 28 -3 28 0 30 51
41 27 6 27 8 27 82 l0 75 78 -3 77 -3 0 -30z m-1425 -158 c0 -31 -2 -33 -34
-34 -37 -1 -51 16 -41 48 5 14 16 19 41 19 32 0 34 -2 34 -33z m1108 1 c-3
-30 -6 -33 -38 -33 -26 0 -36 5 -38 18 -7 33 6 47 43 47 35 0 36 -1 33 -32z
m-1039 -462 c18 -21 -3 -56 -34 -56 -30 0 -35 8 -28 43 4 20 11 27 28 27 12 0
28 -6 34 -14z m957 0 c10 -27 -15 -57 -44 -54 -27 3 -39 25 -28 54 7 18 65 19
72 0z"/>
<path d="M1290 657 c0 -37 20 -50 61 -40 16 4 19 12 17 37 -3 28 -7 31 -40 34
-37 3 -38 2 -38 -31z"/>
<path d="M593 853 c-19 -7 -16 -70 3 -77 9 -3 63 -6 120 -6 l104 0 0 -114 c0
-122 2 -126 56 -126 l24 0 0 125 0 125 -34 0 c-36 0 -46 12 -46 56 0 24 0 24
-107 23 -60 0 -114 -3 -120 -6z"/>
<path d="M665 671 c-12 -38 15 -62 58 -53 12 2 17 13 17 38 0 32 -2 34 -34 34
-25 0 -36 -5 -41 -19z"/>
<path d="M900 330 l0 -40 115 0 115 0 0 40 0 40 -115 0 -115 0 0 -40z"/>
<path d="M820 95 l0 -35 195 0 195 0 0 35 0 35 -195 0 -195 0 0 -35z"/>
</g>
</svg>
