<?xml version="1.0" standalone="no"?>
<!DOCTYPE svg PUBLIC "-//W3C//DTD SVG 20010904//EN"
 "http://www.w3.org/TR/2001/REC-SVG-20010904/DTD/svg10.dtd">
<svg version="1.0" xmlns="http://www.w3.org/2000/svg"
 width="157.000000pt" height="283.000000pt" viewBox="0 0 157.000000 283.000000"
 preserveAspectRatio="xMidYMid meet">
<metadata>
Created by potrace 1.10, written by Peter Selinger 2001-2011
</metadata>
<g transform="translate(0.000000,283.000000) scale(0.100000,-0.100000)"
fill="#000000" stroke="none">
<path d="M570 2550 c0 -30 0 -30 -60 -30 -60 0 -60 0 -60 -30 0 -27 -3 -30
-30 -30 -27 0 -30 -3 -30 -30 0 -27 -3 -30 -30 -30 -27 0 -30 -3 -30 -30 0
-27 -3 -30 -30 -30 -30 0 -30 0 -30 -60 0 -60 0 -60 -30 -60 l-30 0 0 -145 0
-145 -60 0 -60 0 0 -60 c0 -60 0 -60 30 -60 27 0 30 -3 30 -30 0 -27 3 -30 30
-30 27 0 30 -3 30 -30 0 -27 3 -30 30 -30 l30 0 0 -120 0 -120 30 0 c27 0 30
-3 30 -30 0 -27 3 -30 30 -30 30 0 30 0 30 -60 0 -60 0 -60 -30 -60 l-30 0 0
-90 0 -90 30 0 30 0 0 -120 0 -120 -30 0 -30 0 0 -85 0 -85 30 0 30 0 0 -90 0
-90 30 0 c27 0 30 -3 30 -30 0 -30 0 -30 60 -30 60 0 60 0 60 -30 0 -27 -3
-30 -30 -30 -27 0 -30 -3 -30 -30 0 -27 -3 -30 -30 -30 l-30 0 0 -90 0 -90
175 0 175 0 0 120 0 120 30 0 30 0 0 -120 0 -120 180 0 180 0 0 90 0 90 -30 0
c-27 0 -30 3 -30 30 0 27 -3 30 -30 30 -27 0 -30 3 -30 30 0 30 0 30 60 30 60
0 60 0 60 30 0 27 3 30 30 30 l30 0 0 90 0 90 30 0 30 0 0 85 0 85 -30 0 -30
0 0 120 0 120 30 0 30 0 0 90 0 90 -30 0 c-30 0 -30 0 -30 60 0 60 0 60 30 60
27 0 30 3 30 30 0 27 3 30 30 30 l30 0 0 120 0 120 30 0 c27 0 30 3 30 30 0
27 3 30 30 30 27 0 30 3 30 30 0 25 4 30 25 30 24 0 25 3 25 60 l0 60 -55 0
-55 0 0 145 0 145 -30 0 c-30 0 -30 0 -30 60 0 60 0 60 -30 60 -27 0 -30 3
-30 30 0 27 -3 30 -30 30 -27 0 -30 3 -30 30 0 27 -3 30 -30 30 -27 0 -30 3
-30 30 0 30 0 30 -60 30 -60 0 -60 0 -60 30 l0 30 -265 0 -265 0 0 -30z m60
-210 c0 -60 0 -60 -30 -60 -30 0 -30 0 -30 60 0 60 0 60 30 60 30 0 30 0 30
-60z m470 25 c0 -22 -6 -38 -15 -41 -8 -4 -15 -11 -15 -16 0 -6 6 -5 15 2 13
10 15 9 15 -9 0 -17 -6 -21 -30 -21 -30 0 -30 0 -30 60 0 60 0 60 30 60 28 0
30 -3 30 -35z m-120 -170 c0 -21 5 -25 30 -25 27 0 30 -3 30 -30 0 -27 3 -30
30 -30 27 0 30 -3 30 -30 0 -30 0 -30 -60 -30 -60 0 -60 0 -60 -30 l0 -30 90
0 90 0 0 -30 c0 -27 3 -30 30 -30 30 0 30 0 30 -60 0 -60 0 -60 -30 -60 -27 0
-30 -3 -30 -30 l0 -30 -90 0 -90 0 0 -30 0 -30 90 0 90 0 0 -30 c0 -27 3 -30
30 -30 30 0 30 0 30 -60 l0 -60 -60 0 c-60 0 -60 0 -60 -30 0 -30 0 -30 -60
-30 -60 0 -60 0 -60 -30 0 -30 0 -30 60 -30 60 0 60 0 60 -30 0 -30 0 -30 -60
-30 -60 0 -60 0 -60 -30 0 -30 0 -30 60 -30 60 0 60 0 60 -30 0 -27 -3 -30
-30 -30 -27 0 -30 -3 -30 -30 0 -27 -3 -30 -30 -30 -27 0 -30 -3 -30 -30 0
-27 3 -30 30 -30 30 0 30 0 30 -60 0 -60 0 -60 30 -60 l30 0 0 -120 0 -120
-120 0 -120 0 0 120 0 120 30 0 c27 0 30 3 30 30 0 27 -3 30 -30 30 -27 0 -30
3 -30 30 0 27 -3 30 -30 30 -27 0 -30 -3 -30 -30 0 -25 -4 -30 -25 -30 -21 0
-25 -5 -25 -30 0 -25 4 -30 25 -30 l25 0 0 -120 0 -120 -115 0 -115 0 0 120 0
120 30 0 c30 0 30 0 30 60 0 60 0 60 30 60 27 0 30 3 30 30 0 27 -3 30 -30 30
-27 0 -30 3 -30 30 0 27 -3 30 -30 30 -27 0 -30 3 -30 30 0 30 0 30 60 30 60
0 60 0 60 30 0 30 0 30 -60 30 -60 0 -60 0 -60 30 0 30 0 30 60 30 60 0 60 0
60 30 0 30 0 30 -60 30 -60 0 -60 0 -60 30 0 30 0 30 -60 30 l-60 0 0 60 c0
60 0 60 30 60 27 0 30 3 30 30 l0 30 90 0 90 0 0 30 0 30 -90 0 -90 0 0 30 c0
27 -3 30 -30 30 -30 0 -30 0 -30 60 0 60 0 60 30 60 27 0 30 3 30 30 l0 30 90
0 90 0 0 30 c0 30 0 30 -60 30 -60 0 -60 0 -60 30 0 27 3 30 30 30 27 0 30 3
30 30 0 27 3 30 30 30 25 0 30 4 30 25 l0 25 145 0 145 0 0 -25z m-710 -385
c0 -60 0 -60 30 -60 27 0 30 -3 30 -30 0 -27 -3 -30 -30 -30 -27 0 -30 3 -30
30 0 27 -3 30 -30 30 -27 0 -30 3 -30 30 0 27 -3 30 -30 30 -27 0 -30 3 -30
30 0 30 0 30 60 30 l60 0 0 -60z m1250 30 c0 -27 -3 -30 -30 -30 -27 0 -30 -3
-30 -30 0 -27 -3 -30 -30 -30 -27 0 -30 -3 -30 -30 0 -27 -3 -30 -30 -30 -27
0 -30 3 -30 30 0 27 3 30 30 30 30 0 30 0 30 60 l0 60 60 0 c60 0 60 0 60 -30z
m-1109 -107 c1 -17 2 -17 6 0 8 30 33 20 33 -13 0 -27 -3 -30 -30 -30 -27 0
-30 3 -30 30 0 31 19 43 21 13z m869 -13 c0 -27 -3 -30 -30 -30 -27 0 -30 3
-30 30 0 27 3 30 30 30 27 0 30 -3 30 -30z m-770 -360 c0 -27 -3 -30 -30 -30
-27 0 -30 3 -30 30 0 27 3 30 30 30 27 0 30 -3 30 -30z m710 0 c0 -27 -3 -30
-30 -30 -27 0 -30 3 -30 30 0 27 3 30 30 30 27 0 30 -3 30 -30z m-710 -360 c0
-27 -3 -30 -30 -30 -27 0 -30 3 -30 30 0 27 3 30 30 30 27 0 30 -3 30 -30z
m710 0 c0 -27 -3 -30 -30 -30 -27 0 -30 3 -30 30 0 27 3 30 30 30 27 0 30 -3
30 -30z m-710 -180 c0 -27 -3 -30 -30 -30 -30 0 -30 -1 -30 -55 0 -54 0 -55
-30 -55 -30 0 -30 1 -30 55 0 54 0 55 30 55 27 0 30 3 30 30 0 27 3 30 30 30
27 0 30 -3 30 -30z m710 0 c0 -27 3 -30 30 -30 30 0 30 -1 30 -55 0 -54 0 -55
-30 -55 -30 0 -30 1 -30 55 0 54 0 55 -30 55 -27 0 -30 3 -30 30 0 27 3 30 30
30 27 0 30 -3 30 -30z m-650 -170 c0 -27 3 -30 30 -30 27 0 30 3 30 30 l0 30
205 0 205 0 0 -30 c0 -27 3 -30 30 -30 27 0 30 3 30 30 0 27 3 30 30 30 27 0
30 -3 30 -30 0 -27 3 -30 30 -30 30 0 30 0 30 -60 0 -60 0 -60 -30 -60 -27 0
-30 3 -30 30 0 27 -3 30 -30 30 -30 0 -30 0 -30 -60 l0 -60 -265 0 -265 0 0
60 c0 60 0 60 -30 60 -27 0 -30 -3 -30 -30 0 -27 -3 -30 -30 -30 -30 0 -30 0
-30 60 0 60 0 60 30 60 27 0 30 3 30 30 0 27 3 30 30 30 27 0 30 -3 30 -30z
m180 -360 l0 -90 -120 0 -120 0 0 60 c0 60 0 60 30 60 27 0 30 3 30 30 l0 30
90 0 90 0 0 -90z m350 60 c0 -27 3 -30 30 -30 30 0 30 0 30 -60 l0 -60 -120 0
-120 0 0 90 0 90 90 0 90 0 0 -30z"/>
<path d="M584 2358 c-4 -7 -3 -8 4 -4 12 7 16 16 8 16 -3 0 -8 -5 -12 -12z"/>
<path d="M690 1960 c0 -27 3 -30 30 -30 27 0 30 3 30 30 0 27 -3 30 -30 30
-27 0 -30 -3 -30 -30z"/>
<path d="M920 1960 c0 -27 3 -30 30 -30 27 0 30 3 30 30 0 27 -3 30 -30 30
-27 0 -30 -3 -30 -30z"/>
<path d="M690 1780 c0 -27 3 -30 30 -30 27 0 30 3 30 30 0 27 -3 30 -30 30
-27 0 -30 -3 -30 -30z"/>
<path d="M920 1780 c0 -27 3 -30 30 -30 27 0 30 3 30 30 0 27 -3 30 -30 30
-27 0 -30 -3 -30 -30z"/>
<path d="M630 1540 c0 -27 3 -30 30 -30 27 0 30 -3 30 -30 0 -30 1 -30 55 -30
54 0 55 0 55 30 0 27 3 30 30 30 27 0 30 -3 30 -30 0 -30 0 -30 60 -30 60 0
60 0 60 30 0 27 3 30 30 30 27 0 30 3 30 30 0 27 -3 30 -30 30 -27 0 -30 -3
-30 -30 0 -30 0 -30 -60 -30 -60 0 -60 0 -60 30 0 27 -3 30 -30 30 -27 0 -30
-3 -30 -30 0 -30 -1 -30 -55 -30 -54 0 -55 0 -55 30 0 27 -3 30 -30 30 -27 0
-30 -3 -30 -30z"/>
<path d="M690 1360 l0 -30 145 0 145 0 0 30 0 30 -145 0 -145 0 0 -30z"/>
<path d="M690 1240 c0 -27 3 -30 30 -30 30 0 30 0 30 -60 0 -60 0 -60 -30 -60
-27 0 -30 -3 -30 -30 0 -27 3 -30 30 -30 27 0 30 3 30 30 0 25 4 30 25 30 24
0 25 3 25 60 0 57 -1 60 -25 60 -21 0 -25 5 -25 30 0 27 -3 30 -30 30 -27 0
-30 -3 -30 -30z"/>
<path d="M920 1240 c0 -27 -3 -30 -30 -30 -30 0 -30 0 -30 -60 0 -60 0 -60 30
-60 27 0 30 -3 30 -30 0 -27 3 -30 30 -30 27 0 30 3 30 30 0 27 -3 30 -30 30
-30 0 -30 0 -30 60 0 60 0 60 30 60 27 0 30 3 30 30 0 27 -3 30 -30 30 -27 0
-30 -3 -30 -30z"/>
</g>
</svg>
