<?xml version="1.0" standalone="no"?>
<!DOCTYPE svg PUBLIC "-//W3C//DTD SVG 20010904//EN"
 "http://www.w3.org/TR/2001/REC-SVG-20010904/DTD/svg10.dtd">
<svg version="1.0" xmlns="http://www.w3.org/2000/svg"
 width="197.000000pt" height="178.000000pt" viewBox="0 0 197.000000 178.000000"
 preserveAspectRatio="xMidYMid meet">
<metadata>
Created by potrace 1.10, written by Peter Selinger 2001-2011
</metadata>
<g transform="translate(0.000000,178.000000) scale(0.100000,-0.100000)"
fill="#000000" stroke="none">
<path d="M628 1713 l-3 -38 -55 -3 c-90 -4 -100 -8 -100 -43 0 -30 -3 -33 -52
-43 -23 -5 -28 -12 -28 -37 0 -30 -3 -33 -52 -43 -21 -5 -27 -13 -30 -39 -3
-28 -7 -33 -38 -37 l-35 -5 -5 -75 -5 -75 -37 -3 -38 -3 0 -195 0 -194 -75 0
-75 0 0 -79 0 -80 33 -3 c28 -3 33 -7 37 -38 4 -31 9 -36 40 -40 31 -4 36 -9
40 -40 5 -32 8 -35 43 -38 l37 -3 0 -159 0 -159 38 -3 c34 -3 37 -6 42 -38 4
-31 9 -36 40 -40 l35 -5 0 -78 0 -77 190 0 c105 0 196 4 203 9 8 5 12 21 10
37 -3 28 -5 29 -58 32 -93 4 -102 8 -98 45 3 31 4 32 58 35 93 4 102 8 98 45
-3 31 -4 32 -58 35 -89 4 -98 8 -102 45 l-3 32 -78 3 -78 3 3 77 3 77 35 5
c32 5 35 8 38 43 l3 37 120 0 119 0 0 40 0 40 -119 0 -120 0 -3 38 c-3 34 -6
37 -38 42 l-35 5 0 75 0 75 35 5 c32 5 35 8 38 43 l3 37 120 0 120 0 -3 38 -3
37 -75 5 -75 5 0 35 c0 32 3 35 35 40 31 4 36 9 40 40 4 31 9 36 40 40 31 4
35 9 38 38 l3 32 188 0 187 0 9 -32 c8 -26 17 -34 40 -38 23 -4 31 -11 33 -32
4 -31 18 -45 52 -50 21 -2 25 -8 25 -38 l0 -35 -75 -5 -75 -5 -3 -37 c-3 -36
-5 -38 -36 -38 -26 0 -35 -5 -39 -22 -9 -34 10 -60 41 -56 23 3 27 8 30 41 l3
37 120 0 119 0 0 -29 c0 -33 14 -48 50 -53 24 -3 25 -6 25 -78 l0 -75 -35 -5
c-32 -5 -35 -8 -38 -42 l-3 -38 -120 0 -119 0 0 -40 0 -40 120 0 120 0 0 -29
c0 -33 14 -48 50 -53 24 -3 25 -6 28 -80 l3 -77 -78 -3 -78 -3 -5 -35 -5 -35
-75 -5 c-72 -5 -75 -6 -78 -31 -4 -37 15 -48 88 -51 l65 -3 0 -35 0 -35 -72
-3 c-68 -3 -73 -5 -79 -28 -13 -50 1 -54 216 -54 l198 0 -10 34 c-6 18 -8 54
-4 79 7 42 9 46 39 49 27 3 33 8 40 41 8 34 12 37 43 37 l34 0 0 159 0 160 37
3 c34 3 38 6 46 40 8 32 13 37 40 40 27 3 33 8 40 40 7 30 14 37 35 40 26 3
27 5 30 81 l3 77 -76 0 -75 0 0 195 0 195 -35 0 c-38 0 -42 10 -47 110 -3 43
-5 45 -35 48 -26 3 -34 9 -39 30 -10 49 -13 52 -43 52 -25 0 -32 5 -37 28 -10
49 -13 52 -43 52 -25 0 -30 5 -38 38 l-9 37 -72 3 -72 3 -6 39 -7 40 -348 0
-348 0 -3 -37z m70 -215 c12 -12 17 -104 6 -132 -4 -10 -18 -16 -40 -16 l-34
0 0 73 c0 41 3 77 7 80 11 11 48 8 61 -5z m630 -34 c2 -27 -2 -45 -13 -54 -19
-16 -20 -31 0 -24 10 4 15 0 15 -15 0 -17 -6 -21 -35 -21 l-35 0 0 73 c0 41 3
77 7 81 4 4 19 6 33 4 22 -3 25 -9 28 -44z m-1096 -741 l3 -78 33 -3 c37 -4
47 -20 38 -58 -6 -21 -11 -25 -39 -22 -28 3 -33 7 -37 38 -4 31 -9 36 -40 40
-31 4 -36 9 -40 40 -4 31 -9 36 -40 40 -27 4 -36 10 -38 28 -7 46 2 52 82 52
l75 0 3 -77z m1653 37 c0 -32 -3 -35 -35 -40 -31 -4 -36 -9 -40 -40 -4 -31 -9
-36 -40 -40 -31 -4 -36 -9 -40 -40 -4 -29 -10 -36 -32 -38 -31 -4 -50 22 -41
56 3 15 14 22 37 24 l31 3 3 78 3 78 77 -3 77 -3 0 -35z m-1455 -131 c0 6 6
11 14 11 18 0 29 -33 21 -61 -10 -30 -69 -23 -73 9 -2 13 -1 30 2 39 5 12 9
13 21 3 10 -9 15 -9 15 -1z m1135 -29 c0 -31 -3 -35 -27 -38 -34 -4 -47 18
-39 71 0 5 16 7 34 5 29 -3 32 -6 32 -38z m-1017 -468 c5 -32 -16 -54 -47 -50
-18 2 -27 10 -29 26 -6 40 5 54 40 50 26 -2 34 -8 36 -26z m937 -12 c0 -30 -4
-36 -24 -38 -31 -5 -50 19 -43 54 4 21 9 25 36 22 28 -3 31 -6 31 -38z"/>
<path d="M649 1453 c-13 -16 -12 -17 4 -4 9 7 17 15 17 17 0 8 -8 3 -21 -13z"/>
<path d="M794 946 c-3 -8 -4 -25 -2 -38 2 -19 9 -23 38 -23 33 0 35 2 35 35 0
32 -3 35 -33 38 -21 2 -34 -2 -38 -12z"/>
<path d="M794 706 c-3 -8 -4 -25 -2 -38 2 -18 10 -24 35 -26 28 -3 33 1 39 22
3 14 4 33 0 41 -7 19 -65 20 -72 1z"/>
<path d="M1097 698 c-9 -34 10 -60 41 -56 23 3 27 8 30 41 3 36 2 37 -31 37
-27 0 -36 -5 -40 -22z"/>
<path d="M714 386 c-3 -8 -4 -25 -2 -38 2 -18 11 -24 38 -28 31 -4 36 -9 40
-40 l5 -35 60 -3 c65 -3 85 10 85 55 0 20 5 23 35 23 32 0 35 -3 35 -28 0 -42
17 -52 87 -52 66 0 83 12 83 59 0 15 8 20 33 23 29 3 32 6 35 41 3 36 2 37
-31 37 -36 0 -47 -12 -47 -51 0 -23 -29 -31 -96 -27 -48 3 -49 4 -58 41 -9 33
-13 37 -41 37 -28 0 -32 -4 -41 -37 -9 -36 -11 -38 -53 -41 -70 -5 -89 3 -93
41 -3 28 -7 32 -36 35 -21 2 -34 -2 -38 -12z"/>
<path d="M790 120 l0 -40 190 0 190 0 0 40 0 40 -190 0 -190 0 0 -40z"/>
</g>
</svg>
