<?xml version="1.0" standalone="no"?>
<!DOCTYPE svg PUBLIC "-//W3C//DTD SVG 20010904//EN"
 "http://www.w3.org/TR/2001/REC-SVG-20010904/DTD/svg10.dtd">
<svg version="1.0" xmlns="http://www.w3.org/2000/svg"
 width="205.000000pt" height="244.000000pt" viewBox="0 0 205.000000 244.000000"
 preserveAspectRatio="xMidYMid meet">
<g transform="translate(0.000000,244.000000) scale(0.100000,-0.100000)"
fill="#000000" stroke="none">
<path d="M96 2339 l-26 -31 0 -1015 0 -1015 23 6 c12 3 394 6 850 6 l827 0 0
1040 0 1040 -824 0 -824 0 -26 -31z m1024 -375 c257 -75 436 -303 448 -567 6
-123 -9 -200 -58 -302 -65 -137 -165 -236 -302 -299 -97 -45 -175 -59 -295
-54 -267 12 -490 190 -569 453 -29 95 -25 259 9 355 38 111 72 167 156 251 98
99 221 162 356 183 53 8 199 -3 255 -20z"/>
<path d="M830 1894 c-97 -21 -185 -70 -261 -144 -57 -57 -129 -160 -129 -186
0 -5 82 -8 183 -6 l183 3 53 162 c30 89 58 168 63 175 13 16 -6 15 -92 -4z"/>
<path d="M967 1904 c6 -3 37 -81 68 -175 l57 -169 168 0 c93 0 176 -3 185 -6
15 -6 15 -4 1 31 -62 148 -220 276 -385 311 -63 13 -119 18 -94 8z"/>
<path d="M921 1658 c-13 -40 -26 -79 -28 -85 -4 -10 10 -13 51 -13 31 0 56 4
56 9 0 15 -42 146 -49 154 -4 4 -18 -26 -30 -65z"/>
<path d="M413 1473 c-12 -59 -9 -193 6 -248 22 -78 77 -177 133 -236 28 -30
52 -49 54 -44 2 6 28 85 58 177 l53 166 -116 84 c-64 46 -130 96 -148 111
l-32 28 -8 -38z"/>
<path d="M1330 1399 c-74 -55 -138 -103 -142 -107 -4 -4 15 -77 42 -162 27
-85 50 -166 50 -180 1 -23 6 -19 60 38 100 105 150 227 150 368 0 84 -8 145
-19 143 -3 0 -67 -45 -141 -100z"/>
<path d="M600 1476 c0 -7 141 -108 145 -104 2 2 10 27 18 56 l16 52 -90 0
c-49 0 -89 -2 -89 -4z"/>
<path d="M838 1400 l-26 -80 36 -28 c21 -16 51 -38 69 -50 l32 -23 65 47 c37
26 66 53 66 59 0 6 -11 42 -23 81 l-24 69 -84 3 -85 3 -26 -81z"/>
<path d="M1124 1454 c4 -15 12 -40 19 -56 l12 -29 65 47 c36 26 69 51 75 55 5
5 -31 9 -84 9 l-93 0 6 -26z"/>
<path d="M755 1149 c-14 -44 -25 -82 -25 -85 0 -2 32 19 70 47 39 28 70 54 70
58 0 9 -71 61 -83 61 -3 0 -18 -36 -32 -81z"/>
<path d="M1075 1214 c-11 -9 -29 -22 -40 -30 -22 -16 -28 -9 76 -84 l56 -39
-26 84 c-14 47 -30 85 -36 85 -5 -1 -19 -8 -30 -16z"/>
<path d="M798 1012 l-147 -106 29 -19 c60 -38 143 -60 243 -65 110 -5 161 5
259 50 l67 30 -132 96 c-73 52 -141 100 -152 107 -18 12 -35 3 -167 -93z"/>
<path d="M1860 1182 c0 -724 -3 -951 -12 -960 -9 -9 -215 -12 -866 -12 l-854
0 -29 -29 c-36 -36 -37 -60 -3 -100 l26 -31 914 0 c893 0 914 0 924 19 7 13
10 351 10 1025 l0 1005 -22 15 c-12 9 -37 16 -55 16 l-33 0 0 -948z"/>
</g>
</svg>
