<?xml version="1.0" standalone="no"?>
<!DOCTYPE svg PUBLIC "-//W3C//DTD SVG 20010904//EN"
 "http://www.w3.org/TR/2001/REC-SVG-20010904/DTD/svg10.dtd">
<svg version="1.0" xmlns="http://www.w3.org/2000/svg"
 width="148.000000pt" height="59.000000pt" viewBox="0 0 148.000000 59.000000"
 preserveAspectRatio="xMidYMid meet">
<g transform="translate(0.000000,59.000000) scale(0.100000,-0.100000)"
fill="#000000" stroke="none">
<path d="M125 477 c-111 -63 -139 -212 -58 -307 71 -82 47 -80 658 -80 l540 0
52 24 c71 33 106 87 111 171 6 90 -31 155 -110 196 -35 18 -66 19 -595 19
l-558 0 -40 -23z m1164 -71 c40 -21 61 -59 61 -111 0 -38 -6 -52 -34 -83 l-34
-37 -544 -3 -544 -2 -35 23 c-18 12 -39 34 -46 47 -29 57 -5 137 49 166 36 21
1088 20 1127 0z"/>
<path d="M155 377 c-20 -16 -28 -35 -32 -68 -5 -41 -2 -50 25 -80 l30 -34 529
-3 c290 -1 539 0 551 3 73 18 98 121 43 176 l-29 29 -546 0 -545 0 -26 -23z"/>
</g>
</svg>
