<?xml version="1.0" standalone="no"?>
<!DOCTYPE svg PUBLIC "-//W3C//DTD SVG 20010904//EN"
 "http://www.w3.org/TR/2001/REC-SVG-20010904/DTD/svg10.dtd">
<svg version="1.0" xmlns="http://www.w3.org/2000/svg"
 width="148.000000pt" height="59.000000pt" viewBox="0 0 148.000000 59.000000"
 preserveAspectRatio="xMidYMid meet">
<g transform="translate(0.000000,59.000000) scale(0.100000,-0.100000)"
fill="#000000" stroke="none">
<path d="M175 499 c-149 -34 -204 -229 -97 -342 61 -64 36 -62 612 -65 289 -2
544 0 566 3 89 13 163 89 172 175 7 74 -5 117 -45 161 -71 78 -35 74 -633 76
-301 1 -553 -3 -575 -8z m1087 -79 c113 -32 121 -191 12 -236 -50 -21 -1049
-20 -1099 0 -108 45 -94 210 20 239 40 10 1030 7 1067 -3z"/>
<path d="M184 396 c-69 -30 -86 -111 -35 -168 l29 -33 329 -3 c365 -4 392 0
423 51 24 39 25 68 4 108 -28 56 -51 59 -401 59 -245 -1 -325 -4 -349 -14z"/>
</g>
</svg>
