<?xml version="1.0" standalone="no"?>
<!DOCTYPE svg PUBLIC "-//W3C//DTD SVG 20010904//EN"
 "http://www.w3.org/TR/2001/REC-SVG-20010904/DTD/svg10.dtd">
<svg version="1.0" xmlns="http://www.w3.org/2000/svg"
 width="148.000000pt" height="57.000000pt" viewBox="0 0 148.000000 57.000000"
 preserveAspectRatio="xMidYMid meet">
<g transform="translate(0.000000,57.000000) scale(0.100000,-0.100000)"
fill="#000000" stroke="none">
<path d="M156 486 c-107 -39 -164 -169 -121 -274 20 -47 50 -78 100 -105 39
-22 50 -22 552 -25 332 -2 533 1 570 7 64 12 92 29 137 85 26 31 31 47 34 104
5 88 -23 144 -93 187 l-48 30 -546 2 c-446 2 -553 0 -585 -11z m1118 -80 c51
-21 76 -60 76 -118 0 -43 -4 -54 -34 -84 l-34 -34 -546 0 c-600 0 -589 -1
-621 60 -33 63 -5 148 58 175 47 21 1052 22 1101 1z"/>
</g>
</svg>
