<?xml version="1.0" standalone="no"?>
<!DOCTYPE svg PUBLIC "-//W3C//DTD SVG 20010904//EN"
 "http://www.w3.org/TR/2001/REC-SVG-20010904/DTD/svg10.dtd">
<svg version="1.0" xmlns="http://www.w3.org/2000/svg"
 width="260.000000pt" height="257.000000pt" viewBox="0 0 260.000000 257.000000"
 preserveAspectRatio="xMidYMid meet">
<metadata>
Created by potrace 1.10, written by Peter Selinger 2001-2011
</metadata>
<g transform="translate(0.000000,257.000000) scale(0.100000,-0.100000)"
fill="#000000" stroke="none">
<path d="M592 2527 c-25 -14 -222 -227 -222 -240 0 -4 5 -17 10 -28 17 -31 55
-24 89 18 l31 38 0 -123 0 -122 130 0 130 0 0 117 0 117 33 -32 c35 -34 56
-39 75 -20 26 26 9 55 -96 165 -110 116 -138 133 -180 110z"/>
<path d="M1965 2530 c-32 -12 -225 -225 -225 -247 0 -23 18 -43 39 -43 8 0 30
14 48 32 l33 32 0 -117 0 -117 130 0 130 0 0 122 0 123 31 -38 c34 -42 72 -49
89 -18 5 11 10 24 10 28 0 13 -197 226 -222 240 -27 14 -35 15 -63 3z"/>
<path d="M1141 2396 c-10 -12 -81 -468 -81 -522 l0 -24 250 0 250 0 0 24 c0
54 -71 510 -81 522 -16 20 -322 20 -338 0z"/>
<path d="M230 2298 c-9 -20 -100 -379 -100 -393 0 -3 190 -5 423 -5 l423 0 27
198 c15 108 27 203 27 210 0 7 -13 12 -32 12 -32 0 -33 -1 -33 -45 -1 -52 -36
-97 -92 -116 -32 -10 -33 -12 -33 -64 0 -43 -5 -60 -24 -82 -24 -28 -24 -28
-171 -31 -202 -5 -222 5 -234 117 -6 51 -8 55 -38 63 -48 12 -83 60 -83 114 0
40 -2 44 -25 44 -17 0 -29 -8 -35 -22z"/>
<path d="M1590 2308 c0 -7 12 -102 27 -210 l27 -198 423 0 c233 0 423 2 423 5
0 14 -91 373 -100 393 -6 14 -18 22 -35 22 -23 0 -25 -4 -25 -44 0 -54 -35
-102 -83 -114 -30 -8 -32 -12 -38 -63 -12 -112 -32 -122 -234 -117 -147 3
-147 3 -171 31 -19 22 -24 39 -24 82 0 52 -1 54 -33 64 -56 19 -91 64 -92 116
0 44 -1 45 -32 45 -20 0 -33 -5 -33 -12z"/>
<path d="M70 1770 l0 -40 450 0 450 0 0 40 0 40 -450 0 -450 0 0 -40z"/>
<path d="M1650 1770 l0 -40 450 0 450 0 0 40 0 40 -450 0 -450 0 0 -40z"/>
<path d="M1052 1728 l3 -43 255 0 255 0 3 43 3 42 -261 0 -261 0 3 -42z"/>
<path d="M120 862 c0 -592 3 -781 12 -790 9 -9 122 -12 445 -12 l433 0 0 30
c0 46 24 95 59 121 l31 23 0 247 c0 136 3 255 6 264 14 35 58 45 204 45 146 0
190 -10 204 -45 3 -9 6 -128 6 -264 l0 -247 31 -23 c35 -26 59 -75 59 -121 l0
-30 433 0 c323 0 436 3 445 12 9 9 12 198 12 790 l0 778 -426 0 c-411 0 -427
-1 -451 -20 -24 -19 -41 -20 -313 -20 -272 0 -289 1 -313 20 -24 19 -40 20
-451 20 l-426 0 0 -778z m435 583 c25 -24 25 -25 25 -230 0 -205 0 -206 -25
-230 -23 -24 -30 -25 -139 -25 -107 0 -117 2 -143 24 l-28 24 0 207 0 207 28
24 c26 22 36 24 143 24 109 0 116 -1 139 -25z m429 0 l26 -24 0 -206 c0 -205
0 -206 -25 -230 -23 -24 -30 -25 -142 -25 -123 1 -139 5 -161 47 -16 29 -16
383 -1 417 17 37 45 45 165 45 105 1 113 0 138 -24z m470 -1 l26 -27 0 -202
c0 -201 0 -202 -25 -229 -23 -25 -27 -26 -145 -26 -118 0 -122 1 -145 26 -25
27 -25 28 -25 229 l0 202 26 27 c26 25 31 26 144 26 113 0 118 -1 144 -26z
m449 15 c41 -19 47 -48 47 -245 0 -255 1 -253 -173 -254 -112 0 -119 1 -142
25 -25 24 -25 25 -25 230 l0 206 26 24 c25 23 34 25 135 25 59 0 119 -5 132
-11z m444 -13 l28 -24 0 -207 0 -207 -28 -24 c-26 -22 -36 -24 -143 -24 -109
0 -116 1 -139 25 -25 24 -25 25 -25 230 0 205 0 206 25 230 23 24 30 25 139
25 107 0 117 -2 143 -24z m-1808 -671 c16 -8 31 -22 35 -30 3 -9 6 -107 6
-218 0 -259 8 -247 -164 -247 -131 1 -147 6 -166 54 -5 15 -10 106 -10 204 0
190 6 217 50 239 36 18 213 17 249 -2z m442 -14 l29 -29 0 -202 c0 -200 0
-201 -25 -225 -23 -24 -30 -25 -145 -25 -115 0 -122 1 -145 25 -25 24 -25 25
-25 225 l0 202 29 29 c29 29 31 29 141 29 110 0 112 0 141 -29z m940 0 l29
-29 0 -202 c0 -200 0 -201 -25 -225 -23 -24 -30 -25 -145 -25 -115 0 -122 1
-145 25 -25 24 -25 25 -25 225 l0 202 29 29 c29 29 31 29 141 29 110 0 112 0
141 -29z m431 1 c22 -21 23 -31 26 -200 5 -283 6 -282 -172 -282 -174 0 -166
-12 -166 250 0 266 -3 262 177 258 102 -3 115 -5 135 -26z"/>
<path d="M330 1215 l0 -175 85 0 85 0 0 175 0 175 -85 0 -85 0 0 -175z"/>
<path d="M760 1215 l0 -176 83 3 82 3 0 170 0 170 -82 3 -83 3 0 -176z"/>
<path d="M1225 1378 c-3 -8 -4 -86 -3 -173 l3 -160 85 0 85 0 0 170 0 170 -83
3 c-61 2 -84 -1 -87 -10z"/>
<path d="M1694 1377 c-2 -7 -3 -85 -2 -172 l3 -160 83 -3 82 -3 0 176 0 175
-80 0 c-57 0 -82 -4 -86 -13z"/>
<path d="M2120 1215 l0 -175 85 0 85 0 0 175 0 175 -85 0 -85 0 0 -175z"/>
<path d="M330 530 l0 -170 85 0 85 0 0 170 0 170 -85 0 -85 0 0 -170z"/>
<path d="M760 530 l0 -170 85 0 85 0 0 170 0 170 -85 0 -85 0 0 -170z"/>
<path d="M1690 530 l0 -170 85 0 85 0 0 170 0 170 -85 0 -85 0 0 -170z"/>
<path d="M2120 530 l0 -170 85 0 85 0 0 170 0 170 -85 0 -85 0 0 -170z"/>
<path d="M1180 465 l0 -235 130 0 130 0 0 235 0 235 -130 0 -130 0 0 -235z"/>
<path d="M1112 138 c-7 -7 -12 -27 -12 -45 l0 -33 210 0 210 0 0 33 c0 18 -5
38 -12 45 -17 17 -379 17 -396 0z"/>
</g>
</svg>
