<?xml version="1.0" standalone="no"?>
<!DOCTYPE svg PUBLIC "-//W3C//DTD SVG 20010904//EN"
 "http://www.w3.org/TR/2001/REC-SVG-20010904/DTD/svg10.dtd">
<svg version="1.0" xmlns="http://www.w3.org/2000/svg"
 width="300.000000pt" height="300.000000pt" viewBox="0 0 300.000000 300.000000"
 preserveAspectRatio="xMidYMid meet">
<metadata>
Created by potrace 1.10, written by Peter Selinger 2001-2011
</metadata>
<g transform="translate(0.000000,300.000000) scale(0.100000,-0.100000)"
fill="#000000" stroke="none">
<path d="M995 2436 c-346 -117 -637 -215 -645 -218 -10 -3 -1 -12 26 -26 83
-42 169 -169 244 -357 17 -44 65 -197 106 -340 147 -511 247 -783 342 -921 55
-81 141 -160 209 -192 52 -24 70 -27 163 -27 168 0 224 42 218 161 -3 56 -46
165 -70 180 -5 3 -26 -10 -48 -29 -50 -42 -106 -62 -155 -53 -46 9 -120 75
-135 121 -13 40 2 105 31 130 9 9 93 47 186 84 344 139 624 290 896 482 10 7
-63 472 -94 593 -90 362 -234 551 -466 611 -124 32 -122 33 -808 -199z m827
-83 c8 -10 23 -38 32 -63 10 -25 27 -60 38 -77 10 -18 18 -45 16 -60 -2 -23
-11 -31 -50 -45 -26 -10 -66 -29 -88 -44 -32 -21 -43 -24 -54 -14 -21 17 -76
117 -76 137 0 74 83 183 138 183 16 0 36 -8 44 -17z m-644 -45 c64 -9 102 -8
162 1 68 10 83 10 119 -5 56 -22 66 -44 66 -139 0 -75 2 -84 38 -141 34 -54
39 -71 43 -140 3 -44 7 -90 10 -103 3 -13 43 -63 89 -111 89 -93 103 -121 89
-179 -14 -56 -46 -67 -142 -47 -50 10 -78 12 -80 6 -8 -22 -56 -71 -83 -85
-41 -22 -76 -18 -113 10 -56 42 -119 64 -222 75 -54 6 -112 16 -128 22 -44 17
-66 62 -66 138 0 72 -16 113 -75 193 -49 68 -57 106 -49 239 8 141 18 162 92
196 31 14 75 38 96 54 45 32 43 32 154 16z"/>
<path d="M1734 2304 c-61 -65 -68 -106 -28 -178 22 -39 28 -44 44 -36 11 6 21
14 25 19 3 5 28 17 55 26 28 9 50 18 50 20 0 2 -16 37 -36 77 -20 40 -40 79
-43 87 -13 27 -32 23 -67 -15z"/>
<path d="M1033 2256 c-15 -13 -52 -34 -81 -46 -71 -31 -79 -49 -81 -193 -1
-127 4 -147 59 -217 47 -60 60 -95 60 -160 0 -74 21 -124 58 -138 15 -6 63
-13 108 -16 91 -6 172 -32 233 -76 60 -44 90 -31 161 70 15 22 16 22 79 5 35
-9 77 -15 95 -13 29 3 31 6 34 46 3 42 1 46 -76 125 -44 45 -85 93 -93 107 -7
14 -16 66 -19 115 -5 81 -10 96 -43 150 -35 57 -37 65 -37 142 0 119 -23 135
-164 114 -58 -9 -96 -9 -135 -1 -86 16 -126 13 -158 -14z m367 -381 l26 -25
24 25 c26 27 50 33 50 12 0 -8 -9 -22 -20 -32 -11 -10 -20 -23 -20 -30 0 -7 9
-20 20 -30 11 -10 20 -24 20 -32 0 -21 -24 -15 -50 12 l-24 25 -28 -27 c-39
-37 -59 -18 -25 23 l25 29 -24 28 c-13 16 -22 33 -19 38 9 14 17 11 45 -16z"/>
<path d="M234 2179 c-40 -11 -87 -59 -116 -118 -29 -61 -32 -183 -5 -224 38
-59 132 -90 201 -67 112 37 44 200 -83 200 -55 0 -35 28 69 96 55 36 98 69 95
74 -7 12 -66 37 -100 43 -16 3 -44 1 -61 -4z"/>
<path d="M342 2052 l-72 -48 40 -18 c48 -21 76 -55 92 -110 6 -22 13 -43 14
-45 2 -3 83 42 122 67 11 8 8 20 -13 63 -38 74 -84 139 -98 139 -7 -1 -45 -22
-85 -48z"/>
<path d="M2495 1484 c-255 -199 -632 -413 -958 -545 -106 -42 -108 -44 -85
-59 49 -31 151 -137 183 -190 40 -66 68 -159 63 -205 -5 -40 -25 -49 196 84
364 219 750 423 930 492 l86 33 -6 35 c-21 114 -95 244 -177 312 -49 41 -139
99 -153 98 -5 0 -40 -25 -79 -55z"/>
<path d="M1334 860 c-32 -13 -54 -50 -54 -89 0 -26 9 -43 44 -77 38 -39 49
-44 88 -44 44 0 101 30 136 72 22 28 -127 150 -180 147 -7 0 -23 -4 -34 -9z"/>
</g>
</svg>
