<?xml version="1.0" standalone="no"?>
<!DOCTYPE svg PUBLIC "-//W3C//DTD SVG 20010904//EN"
 "http://www.w3.org/TR/2001/REC-SVG-20010904/DTD/svg10.dtd">
<svg version="1.0" xmlns="http://www.w3.org/2000/svg"
 width="300.000000pt" height="330.000000pt" viewBox="0 0 300.000000 330.000000"
 preserveAspectRatio="xMidYMid meet">
<metadata>
Created by potrace 1.10, written by Peter Selinger 2001-2011
</metadata>
<g transform="translate(0.000000,330.000000) scale(0.100000,-0.100000)"
fill="gray" stroke="none">
<path d="M194 3255 l1 -50 215 -1 c118 0 222 3 231 7 13 7 17 3 17 -16 0 -14
-6 -25 -12 -25 -7 0 -7 -3 -1 -8 13 -9 16 -42 4 -42 -5 0 -9 -94 -9 -211 0
-137 3 -208 10 -204 6 3 10 1 10 -4 0 -8 -104 -11 -328 -11 -286 0 -329 -2
-329 -15 0 -13 43 -15 324 -15 l323 0 0 -25 0 -25 -285 0 c-247 0 -285 -2
-285 -15 0 -8 -7 -15 -15 -15 -13 0 -15 -108 -15 -910 0 -802 2 -910 15 -910
8 0 15 -7 15 -15 0 -11 12 -15 45 -15 33 0 45 4 45 15 0 8 5 15 11 15 6 0 9
-7 5 -15 -4 -11 1 -15 19 -15 14 0 25 7 28 18 4 16 5 16 6 0 1 -16 13 -18 96
-18 80 0 93 2 89 15 -4 8 -1 15 5 15 6 0 11 -7 11 -15 0 -12 14 -15 64 -15 53
0 65 3 69 18 4 16 5 16 6 0 0 -10 5 -18 11 -18 5 0 7 7 4 15 -4 8 -2 15 4 15
18 0 22 -46 22 -310 0 -164 4 -260 9 -251 8 12 11 9 16 -12 10 -39 39 -36 33
3 -3 22 0 30 10 30 10 0 13 -8 10 -25 -3 -14 -1 -28 3 -31 5 -3 9 2 9 10 0 9
4 16 10 16 5 0 7 -7 4 -15 -4 -8 -1 -15 6 -15 9 0 11 10 7 30 -5 24 -3 30 11
29 9 0 12 -3 6 -5 -13 -6 -6 -54 8 -54 6 0 8 7 4 15 -3 8 -1 15 4 15 6 0 10
-7 10 -15 0 -8 4 -15 8 -15 5 0 7 13 4 29 -4 29 -3 30 38 29 39 0 42 -2 37
-24 -2 -14 0 -27 4 -30 5 -3 9 2 9 10 0 9 4 16 10 16 5 0 7 -7 4 -15 -4 -8 -1
-15 6 -15 9 0 11 10 6 30 -4 22 -2 30 9 30 11 0 13 -8 9 -30 -5 -20 -3 -30 6
-30 7 0 10 7 6 15 -3 8 -1 15 4 15 6 0 10 -7 10 -15 0 -8 4 -15 10 -15 5 0 7
13 4 29 -6 29 -5 30 36 29 39 0 42 -2 37 -24 -2 -14 0 -27 4 -30 5 -3 9 2 9
10 0 9 4 16 10 16 5 0 7 -7 4 -15 -4 -8 -1 -15 6 -15 9 0 11 10 7 30 -5 22 -3
30 8 30 11 0 13 -8 9 -30 -5 -20 -3 -30 6 -30 7 0 10 7 6 15 -3 8 -1 15 4 15
6 0 10 -7 10 -16 0 -8 4 -13 9 -10 4 3 6 17 4 30 -5 23 -2 25 37 24 39 0 42
-2 37 -24 -2 -14 0 -27 4 -30 5 -3 9 2 9 10 0 9 5 16 11 16 5 0 8 -4 4 -9 -3
-5 -1 -12 4 -15 5 -4 12 2 14 11 4 17 5 17 6 1 0 -10 6 -18 12 -18 7 0 9 9 5
23 -3 12 -6 33 -6 45 0 29 -20 25 -38 -9 l-13 -24 4 28 c3 19 1 24 -7 18 -6
-5 -30 -8 -54 -6 -37 3 -42 1 -43 -18 -1 -16 -3 -17 -6 -6 -7 27 -43 31 -53 6
l-9 -22 0 23 c-1 16 7 26 26 33 16 6 29 6 32 1 8 -13 51 4 50 20 0 10 -2 10
-6 1 -2 -7 -12 -13 -21 -13 -15 0 -15 2 -2 10 11 7 11 10 2 10 -7 0 -10 5 -7
10 4 6 10 8 15 5 4 -3 10 5 13 16 3 12 10 18 16 14 6 -3 11 1 11 11 0 10 3 15
6 11 12 -11 -6 -58 -19 -51 -9 5 -9 4 0 -6 6 -7 9 -19 6 -26 -3 -9 2 -14 16
-14 16 0 20 6 19 24 -1 14 -6 22 -10 20 -4 -3 -8 0 -8 5 0 6 4 11 10 11 5 0 9
10 8 23 -1 17 -8 23 -24 23 -13 0 -21 -2 -19 -5 5 -10 -22 -30 -31 -23 -4 4
-4 1 0 -5 4 -7 2 -13 -3 -13 -6 0 -11 7 -11 15 0 19 -16 19 -24 0 -3 -8 0 -15
6 -15 6 0 8 -3 5 -7 -4 -3 -2 -12 4 -19 8 -10 1 -12 -30 -9 -28 2 -41 -1 -45
-12 -3 -8 -1 -11 4 -8 6 3 10 2 10 -4 0 -19 -21 -23 -39 -7 -16 15 -19 15 -24
2 -4 -9 -13 -13 -22 -10 -11 4 -15 0 -16 -17 0 -22 -1 -23 -8 -4 -5 11 -12 20
-17 20 -5 0 -15 4 -22 9 -7 4 -18 3 -25 -2 -19 -16 -89 -7 -106 14 -9 11 -28
20 -43 20 -22 1 -27 -3 -25 -19 2 -17 -4 -21 -28 -23 -16 -1 -24 0 -17 3 16 6
16 40 0 46 -9 4 -10 8 -2 14 19 14 25 43 9 43 -18 0 -20 17 -3 22 18 6 18 38
0 39 -11 0 -12 2 -5 6 17 6 17 40 1 46 -10 4 -10 8 1 15 19 14 23 42 5 42 -17
0 -19 17 -2 22 17 6 19 38 2 38 -8 0 -14 5 -14 11 0 5 4 8 9 5 5 -3 11 6 14
20 3 18 1 24 -9 20 -8 -3 -14 -1 -14 3 0 5 6 12 12 14 7 3 2 6 -12 7 -14 1
-19 4 -13 7 19 7 17 73 -2 73 -8 0 -15 7 -15 15 0 21 132 22 150 0 6 -8 9 -19
5 -25 -4 -6 10 -10 37 -10 35 0 44 4 44 18 0 14 -7 16 -37 14 -20 -2 -40 1
-43 7 -5 7 97 10 329 11 l335 0 0 -55 c0 -54 0 -55 -30 -55 l-30 0 0 -160 c0
-141 -2 -160 -17 -169 -17 -10 -17 -10 0 -11 14 0 17 -9 17 -55 0 -39 4 -57
14 -61 8 -3 12 -12 9 -20 -3 -8 -1 -14 3 -14 10 0 34 48 34 67 0 7 4 13 9 13
5 0 9 -11 9 -25 0 -15 -6 -25 -14 -25 -8 0 -14 -7 -14 -15 0 -8 5 -15 10 -15
6 0 10 6 10 13 0 8 2 9 8 1 9 -15 125 -15 134 0 6 8 8 7 8 -1 0 -7 5 -13 10
-13 6 0 10 7 10 15 0 8 -6 15 -14 15 -8 0 -13 10 -13 25 0 14 3 25 8 25 5 0 9
-9 9 -21 0 -11 5 -17 10 -14 6 4 10 3 9 -2 -4 -22 2 -43 12 -43 6 0 9 5 7 12
-2 6 4 20 13 29 10 10 15 26 13 37 -4 15 0 19 18 18 17 -1 23 4 23 19 0 14 -6
20 -22 19 -17 0 -23 5 -23 22 0 13 7 24 18 27 16 4 16 5 0 6 -10 0 -18 5 -18
10 0 4 10 6 23 4 22 -4 24 -1 25 37 1 27 -2 40 -11 39 -28 -3 -34 3 -35 33 0
32 0 32 11 8 5 -14 9 -29 8 -35 -1 -5 4 -4 11 3 7 7 14 27 15 45 0 18 2 35 2
38 1 3 12 4 26 1 35 -6 44 23 15 48 -13 11 -26 18 -29 14 -3 -3 3 -10 13 -16
15 -8 16 -12 5 -20 -10 -7 -9 -8 6 -3 15 5 17 3 8 -6 -12 -12 -37 -3 -28 11 3
4 -2 11 -11 14 -9 3 -12 2 -9 -4 8 -13 -4 -52 -14 -45 -5 2 -7 -6 -6 -18 1
-12 0 -14 -2 -4 -2 9 -8 15 -11 13 -4 -2 -8 15 -8 38 -2 37 1 42 20 42 15 -1
21 5 21 19 0 13 -7 20 -20 20 -23 0 -44 15 -42 30 1 5 -5 10 -13 10 -8 0 -14
-6 -12 -13 1 -6 -7 -12 -18 -12 -11 0 -20 5 -20 11 0 5 5 7 10 4 6 -4 10 13
10 45 l0 51 93 -1 c50 -1 100 1 109 5 9 4 25 5 35 2 11 -3 6 -5 -12 -6 -22 -1
-26 -4 -15 -10 8 -5 42 -6 75 -1 38 5 48 8 26 9 -29 1 -33 4 -27 24 3 12 6 27
6 32 0 6 23 10 50 10 50 0 51 0 56 -35 l6 -35 246 0 c208 0 249 2 259 15 6 8
15 11 19 7 5 -4 2 -12 -6 -17 -8 -6 -10 -10 -4 -10 7 0 11 -19 10 -50 -1 -32
-5 -50 -13 -50 -7 0 -10 7 -7 15 4 8 1 15 -5 15 -6 0 -10 -5 -8 -11 1 -6 -4
-14 -10 -16 -7 -3 -13 2 -13 11 0 9 -4 16 -9 16 -11 0 -15 -410 -4 -425 5 -5
15 -10 23 -10 9 0 16 -10 17 -25 1 -14 0 -18 -3 -7 -3 9 -9 17 -14 17 -5 0
-11 -8 -13 -17 -3 -13 -5 -14 -6 -3 -2 22 -51 43 -67 29 -7 -6 -18 -8 -24 -4
-5 3 -10 1 -10 -4 0 -6 7 -11 15 -11 10 0 15 -11 16 -32 1 -18 3 -25 6 -15 2
9 9 17 14 17 6 0 8 -4 4 -9 -3 -5 0 -13 6 -17 8 -5 10 3 7 25 -3 22 -1 31 10
31 11 0 13 -8 9 -30 -7 -31 8 -43 16 -12 4 16 5 16 6 0 0 -10 6 -18 12 -18 6
0 9 7 5 15 -3 8 -1 15 4 15 6 0 10 -7 10 -15 0 -8 5 -15 10 -15 6 0 10 6 10
13 0 9 3 8 9 -2 6 -9 18 -11 35 -7 25 6 26 5 26 -40 0 -40 2 -44 15 -30 17 17
20 46 5 46 -5 0 -10 17 -9 38 0 30 2 33 9 17 6 -14 9 -3 9 40 1 33 6 67 11 75
8 12 10 12 10 1 0 -11 3 -11 15 -1 12 10 15 10 15 0 0 -10 3 -10 15 0 12 10
15 10 15 -1 0 -11 2 -11 10 1 9 13 11 13 20 0 8 -12 10 -12 10 -1 0 11 3 11
15 1 12 -10 15 -10 15 0 0 10 3 10 15 0 8 -7 15 -8 15 -3 0 5 9 9 20 9 11 0
20 -4 20 -9 0 -5 7 -4 15 3 12 10 15 10 15 -1 0 -11 2 -11 10 1 9 13 11 13 20
0 7 -12 10 -12 10 -1 0 7 6 11 15 7 10 -4 15 1 15 15 0 11 5 17 10 14 6 -4 10
25 10 79 0 88 6 120 21 110 5 -3 9 2 9 10 0 9 -7 16 -15 16 -8 0 -15 -7 -15
-15 0 -8 -7 -15 -15 -15 -12 0 -15 -18 -15 -100 l0 -100 -155 0 c-130 0 -155
-2 -155 -15 0 -9 -6 -12 -15 -9 -12 5 -15 -5 -15 -55 l0 -61 -40 0 c-23 0 -40
5 -40 11 0 6 7 9 15 5 8 -3 15 -1 15 4 0 6 -7 10 -15 10 -8 0 -15 5 -15 11 0
6 7 9 15 5 13 -5 15 32 15 290 0 259 -2 295 -15 290 -10 -4 -15 1 -15 14 0 19
-10 20 -455 19 -436 -1 -455 -2 -455 -20 0 -12 -5 -16 -15 -13 -13 5 -15 -33
-15 -310 l0 -316 -55 0 -55 0 0 680 c0 598 -2 680 -15 680 -8 0 -15 7 -15 15
0 13 -44 15 -340 15 -306 0 -340 -2 -340 -16 0 -10 -6 -14 -15 -10 -13 5 -15
-34 -15 -309 0 -273 2 -315 15 -315 8 0 15 -7 15 -15 0 -11 12 -15 45 -15 33
0 45 4 45 15 0 8 5 15 11 15 6 0 9 -7 5 -15 -3 -8 -1 -15 4 -15 6 0 10 7 10
15 0 8 4 15 10 15 5 0 7 -7 4 -15 -4 -8 -2 -15 2 -15 14 0 34 51 34 87 l0 33
-55 0 -55 0 0 240 0 239 83 3 82 3 3 33 c3 32 16 42 25 20 4 -10 6 -9 6 1 1
11 4 11 16 1 12 -10 15 -10 15 0 0 10 3 10 15 0 11 -9 15 -9 15 -1 0 7 5 9 10
6 6 -3 10 -19 10 -36 l0 -29 140 0 140 0 0 -134 c0 -120 -2 -135 -17 -139 -17
-4 -17 -5 0 -6 15 -1 17 -13 17 -101 l0 -100 -110 0 c-105 0 -112 -1 -134 -25
-13 -13 -27 -21 -32 -17 -4 4 -2 -1 5 -10 8 -10 9 -18 3 -18 -7 0 -6 -9 1 -25
10 -21 19 -25 60 -25 35 0 47 4 47 15 0 8 4 15 10 15 5 0 7 -7 4 -15 -4 -8 -1
-15 4 -15 6 0 13 8 15 17 4 17 5 17 6 1 0 -10 6 -18 12 -18 6 0 9 7 5 15 -3 8
-1 15 4 15 6 0 10 -7 10 -15 0 -11 12 -15 50 -15 38 0 50 4 50 15 0 8 5 15 11
15 6 0 9 -7 5 -15 -9 -24 8 -17 19 7 11 23 35 37 35 19 0 -6 -7 -11 -15 -11
-11 0 -13 -9 -9 -42 l6 -43 -678 3 c-468 1 -675 -1 -668 -8 7 -7 226 -10 672
-8 609 3 662 2 662 -13 0 -9 -6 -19 -12 -21 -7 -3 -307 -5 -667 -4 l-655 1 -8
30 c-11 39 -8 264 3 271 5 3 9 -2 9 -10 0 -12 10 -16 35 -16 24 0 35 5 35 15
0 8 4 15 10 15 5 0 7 -7 4 -15 -4 -8 -1 -15 5 -15 6 0 11 7 11 15 0 8 8 15 19
15 27 0 39 21 34 57 -5 33 -6 33 -59 33 l-54 0 0 40 c0 36 3 40 25 40 20 0 25
5 25 26 0 14 -4 23 -10 19 -12 -7 -14 8 -3 19 11 11 13 86 2 86 -5 0 -8 -5 -7
-12 2 -6 -5 -14 -15 -16 -9 -2 -17 2 -17 8 0 6 5 8 12 4 9 -5 9 -2 -1 9 -7 9
-11 18 -7 18 3 1 10 2 15 3 6 0 16 7 22 14 11 10 10 12 0 12 -11 0 -11 3 0 17
12 14 12 15 0 9 -10 -7 -12 -3 -7 15 6 20 5 21 -4 6 -6 -9 -8 -22 -5 -27 3 -6
0 -10 -7 -10 -9 0 -9 -3 2 -10 13 -8 12 -10 -4 -10 -19 0 -19 10 0 54 5 14 4
17 -4 12 -7 -4 -12 -1 -12 8 0 18 17 30 25 17 4 -7 15 -7 30 -1 15 6 34 6 49
0 13 -5 27 -6 30 -3 3 4 6 -3 6 -15 0 -12 3 -22 8 -22 4 0 7 17 7 38 0 20 5
40 10 44 6 4 2 8 -9 8 -12 0 -16 -5 -12 -15 3 -8 1 -15 -4 -15 -6 0 -10 7 -10
15 0 8 -9 15 -20 15 -11 0 -19 -6 -18 -12 2 -7 -4 -13 -12 -13 -8 0 -14 6 -12
13 1 7 -8 12 -20 12 -21 -1 -21 -2 -5 -11 21 -13 22 -25 1 -33 -11 -4 -15 -2
-11 8 5 12 1 13 -22 5 -21 -7 -29 -17 -29 -35 0 -13 6 -24 12 -24 7 0 7 -3 1
-8 -12 -8 -14 -102 -2 -102 4 0 5 -6 0 -12 -13 -21 -13 -42 0 -50 7 -4 8 -8 2
-8 -8 0 -12 -90 -6 -136 0 -7 21 -10 56 -7 52 4 55 3 55 -20 0 -22 -3 -23 -72
-23 l-73 1 -3 361 -2 361 75 0 c64 -1 75 -3 75 -18 0 -21 -14 -27 -67 -24 -24
1 -43 -1 -44 -4 -7 -48 -4 -141 5 -141 7 0 7 -3 1 -8 -12 -8 -14 -102 -3 -102
5 0 8 5 8 11 0 5 6 7 13 3 8 -5 8 -2 -2 9 -7 9 -11 18 -7 18 3 1 10 2 15 3 5
0 12 4 16 8 4 4 16 2 26 -5 15 -9 23 -9 38 0 10 7 22 9 25 5 20 -20 34 -7 34
31 1 39 0 40 -12 16 -8 -17 -9 -26 -2 -32 7 -5 5 -7 -4 -4 -8 2 -16 9 -16 15
-3 26 -6 26 -13 2 -9 -34 -54 -36 -59 -2 -2 12 -8 20 -13 17 -5 -4 -9 -2 -9 4
0 5 4 12 9 16 14 8 9 42 -6 42 -9 0 -10 -4 -4 -10 7 -7 7 -17 0 -29 -7 -14 -7
-23 1 -34 10 -11 9 -15 -4 -20 -27 -10 -31 4 -13 41 9 19 13 35 8 35 -5 0 -11
-6 -14 -12 -2 -7 -5 11 -5 40 l-2 52 53 1 c111 2 112 2 114 29 3 55 2 53 18
40 12 -10 15 -10 15 1 0 11 2 11 10 -1 8 -12 11 -13 19 -1 7 11 10 11 15 0 4
-10 8 -11 12 -2 7 16 44 -21 43 -44 0 -15 -2 -15 -9 2 -8 19 -9 19 -9 -3 -1
-20 4 -23 27 -22 15 1 53 2 85 1 56 -1 57 -1 57 -31 0 -31 -5 -33 -93 -33 -13
0 -15 -3 -7 -12 8 -9 8 -15 0 -20 -5 -3 -10 -1 -10 6 0 7 -3 10 -6 6 -3 -3 -3
-11 1 -17 5 -8 11 -7 23 2 16 14 16 13 -6 -41 -3 -9 0 -12 9 -9 8 3 14 19 14
39 1 31 3 34 34 37 28 3 33 1 27 -13 -3 -9 -6 -19 -6 -21 0 -2 -5 -4 -11 -4
-6 0 -9 6 -6 13 3 8 -1 14 -9 14 -9 0 -13 -6 -9 -14 3 -8 5 -17 5 -19 0 -2 9
-4 20 -4 11 0 20 5 20 12 0 6 3 8 6 5 4 -4 1 -13 -6 -22 -7 -8 -9 -15 -4 -15
4 0 3 -5 -4 -12 -9 -9 -15 -9 -25 1 -10 10 -8 11 8 6 18 -6 18 -5 2 5 -13 9
-21 8 -33 -4 -23 -23 -39 -20 -51 12 l-12 27 6 -27 c4 -21 1 -28 -10 -28 -9 0
-19 4 -22 10 -4 6 1 7 12 4 15 -6 15 -4 -2 9 -21 16 -31 7 -21 -19 4 -11 18
-14 61 -11 30 2 55 1 55 -3 0 -11 34 -8 42 4 5 7 8 5 8 -5 0 -19 -23 -31 -45
-23 -11 5 -14 0 -13 -20 1 -14 7 -25 13 -25 5 1 18 1 29 0 15 -1 16 -4 6 -16
-7 -8 -18 -15 -24 -15 -6 0 -4 5 4 10 12 7 10 9 -8 7 -15 -1 -21 -6 -17 -15 3
-7 5 -15 5 -16 0 -2 11 -1 25 2 20 3 25 0 25 -17 0 -12 -6 -21 -16 -21 -8 0
-12 -5 -9 -10 4 -6 11 -8 16 -5 5 4 9 -10 9 -29 0 -34 -2 -36 -32 -37 -31 -2
-31 -2 -5 -6 29 -5 32 -10 17 -33 -8 -13 -11 -12 -23 4 -13 17 -14 17 -20 2
-4 -10 -3 -15 3 -11 6 3 10 1 10 -4 0 -6 -8 -11 -17 -11 -15 0 -15 -2 -4 -9 8
-5 11 -16 8 -24 -4 -12 2 -15 29 -13 34 1 34 1 34 -41 l0 -43 -53 0 c-40 0
-57 -5 -70 -20 -9 -11 -22 -18 -29 -16 -7 1 -10 1 -5 -1 4 -3 7 -14 6 -26 0
-21 -1 -21 -9 -2 -8 19 -9 19 -9 -2 -1 -21 -6 -23 -59 -23 -56 0 -58 1 -57 27
0 21 -5 28 -21 29 -17 1 -20 -3 -16 -19 3 -12 -1 -23 -12 -29 -17 -10 -22 -38
-6 -38 5 0 7 7 4 15 -4 8 -1 15 5 15 6 0 11 -7 11 -15 0 -12 20 -15 120 -15
100 0 120 3 120 15 0 8 5 15 11 15 6 0 9 -7 5 -15 -3 -8 -1 -15 4 -15 6 0 10
7 10 15 0 8 9 15 20 15 11 0 20 -7 20 -15 0 -8 5 -15 11 -15 6 0 9 7 5 15 -3
8 -1 15 4 15 6 0 10 -7 10 -15 0 -9 9 -15 21 -15 15 0 19 5 15 15 -3 9 0 15 9
15 13 0 15 51 15 370 0 240 -4 370 -10 370 -5 0 -10 7 -10 15 0 13 -38 15
-286 15 l-286 0 4 40 c2 28 0 40 -9 40 -7 0 -13 4 -13 9 0 6 9 9 19 8 11 0 18
-4 17 -7 -2 -3 0 -14 5 -25 6 -17 8 -17 8 -2 1 9 5 17 10 17 5 0 12 -8 14 -17
4 -17 5 -17 6 0 0 9 6 17 11 17 6 0 10 -8 11 -17 0 -15 2 -15 8 2 5 11 6 24 3
29 -3 5 0 6 6 2 8 -5 12 5 12 33 0 37 -2 41 -25 41 l-25 0 -2 128 c0 70 -1
135 0 144 1 15 -5 17 -38 15 -22 -2 -40 0 -40 5 0 4 6 8 13 8 8 0 7 3 -3 10
-8 5 -11 12 -7 16 4 4 15 0 24 -9 23 -20 34 -22 44 -5 12 19 11 30 -3 22 -7
-5 -9 -2 -5 8 3 9 0 21 -6 27 -9 10 -9 12 3 9 12 -2 16 9 18 50 l3 52 225 0
c214 0 224 -1 224 -19 0 -11 -8 -22 -17 -24 -17 -4 -17 -5 0 -6 14 -1 17 -11
17 -61 0 -33 5 -61 10 -61 6 -1 15 -2 22 -3 14 -1 19 -34 6 -42 -5 -3 -15 -1
-21 5 -9 9 -7 11 8 6 16 -6 17 -5 5 4 -24 17 -30 13 -29 -16 4 -66 -2 -163 -8
-160 -5 1 -8 -3 -8 -8 0 -6 3 -9 7 -8 5 2 8 -36 8 -83 0 -55 4 -83 10 -79 6 4
10 3 9 -2 -5 -28 3 -44 19 -41 9 2 18 9 18 16 4 36 4 37 14 22 6 -10 10 220
10 658 l0 672 995 0 995 0 0 -416 c0 -276 3 -413 10 -409 6 3 14 -2 18 -12 5
-13 18 -18 50 -18 23 0 42 3 42 7 0 4 7 5 15 2 8 -4 15 -1 15 5 0 6 -19 11
-44 11 -59 0 -76 8 -76 35 0 13 -6 25 -12 28 -7 2 -10 8 -6 12 4 4 13 4 20 -2
7 -5 33 -9 58 -9 41 1 44 3 45 28 0 15 6 33 14 40 11 11 13 11 6 0 -5 -10 -1
-13 16 -10 15 2 25 11 27 24 2 17 -2 20 -28 20 -26 0 -32 -4 -41 -37 -10 -33
-14 -36 -30 -26 -14 9 -21 9 -31 -1 -9 -9 -15 -4 -25 26 -15 44 -17 112 -3
112 6 0 10 8 10 18 0 14 -2 15 -10 2 -8 -12 -10 -11 -10 8 0 12 -4 22 -10 22
-5 0 -9 17 -9 38 1 20 3 29 6 19 2 -9 8 -15 12 -12 5 2 8 -5 7 -18 -1 -19 5
-22 47 -25 26 -2 47 1 46 5 -6 23 15 83 28 83 8 0 11 5 7 11 -4 7 -10 7 -16 1
-7 -7 -20 -7 -39 0 -22 7 -36 6 -60 -6 -38 -19 -39 -19 -39 -5 0 5 5 7 10 4 6
-4 10 21 9 67 0 50 -3 67 -9 53 -7 -16 -9 -13 -9 17 -1 20 4 39 12 41 9 4 9 6
0 6 -7 1 -13 6 -13 12 0 8 5 8 15 -1 8 -7 13 -16 10 -20 -3 -5 -1 -11 5 -15 6
-4 8 -10 5 -15 -3 -4 4 -10 15 -13 23 -6 70 4 70 16 0 4 0 8 1 10 12 36 7 58
-17 74 -25 16 -28 16 -56 0 -34 -20 -48 -21 -48 -6 0 5 5 7 10 4 6 -4 10 11 9
37 0 33 -2 38 -9 23 -6 -13 -8 8 -8 62 0 45 -3 87 -7 92 -4 8 -314 11 -1001
11 l-995 0 -8 -22 c-5 -13 -7 -27 -6 -33 1 -5 0 -7 -2 -2 -8 14 -24 7 -21 -9
2 -10 -5 -18 -14 -19 -25 -4 -22 7 7 35 25 24 33 50 15 50 -6 0 -9 -3 -9 -7 4
-22 -3 -24 -21 -8 -19 17 -21 17 -38 2 -23 -21 -32 -21 -32 -2 0 8 -4 15 -10
15 -19 0 -10 -21 21 -47 19 -17 27 -29 20 -36 -13 -13 -34 2 -27 19 3 8 -1 14
-9 14 -8 0 -15 4 -15 9 0 5 -11 16 -24 24 -23 15 -26 15 -51 -8 -14 -14 -30
-25 -35 -25 -5 0 -7 -6 -4 -14 7 -17 -14 -32 -27 -19 -7 7 1 19 20 36 31 26
40 47 21 47 -5 0 -10 -7 -10 -15 0 -19 -9 -19 -32 2 -17 15 -20 15 -46 -15
l-28 -31 -26 31 c-26 30 -28 31 -46 15 -23 -21 -30 -21 -35 1 -2 9 -3 -5 -3
-33z m71 4 c0 -7 -8 -15 -17 -17 -18 -3 -25 18 -11 32 10 10 28 1 28 -15z
m113 -2 c2 -10 -3 -17 -12 -17 -18 0 -29 16 -21 31 9 14 29 6 33 -14z m115 8
c7 -18 -9 -29 -30 -21 -12 5 -13 9 -3 21 16 19 26 19 33 0z m112 -6 c0 -7 -8
-15 -17 -17 -18 -3 -25 18 -11 32 10 10 28 1 28 -15z m-375 -43 c-13 -13 -35
7 -25 24 5 8 11 8 21 -1 10 -8 12 -15 4 -23z m66 23 c9 -15 -12 -33 -31 -25
-13 5 -14 8 -3 20 16 18 25 20 34 5z m50 -4 c14 -13 14 -16 -1 -21 -19 -8 -40
10 -31 25 9 15 15 14 32 -4z m113 1 c9 -10 9 -16 1 -21 -17 -11 -40 3 -34 20
8 19 18 19 33 1z m64 -1 c7 -18 -9 -29 -30 -21 -12 5 -13 9 -3 21 16 19 26 19
33 0z m2261 -199 c-8 -27 -8 -26 -31 -30 -25 -5 -39 4 -47 30 -5 16 -1 23 16
31 34 15 70 -4 62 -31z m0 -230 c-8 -27 -8 -26 -31 -30 -25 -5 -39 4 -47 30
-5 16 -1 23 16 31 34 15 70 -4 62 -31z m-92 -224 c8 -9 7 -11 -6 -6 -11 4 -16
17 -15 43 2 34 2 34 6 6 3 -16 10 -36 15 -43z m-2056 -90 c0 -90 -7 -118 -28
-106 -4 3 -8 42 -8 87 l0 82 -232 0 c-139 0 -236 -4 -240 -10 -4 -5 -5 -31 -3
-57 4 -43 2 -48 -15 -48 -18 0 -20 7 -20 75 l0 75 268 2 c147 2 269 2 272 0 3
-2 5 -47 6 -100z m-546 -74 c11 3 11 0 1 -12 -11 -13 -9 -15 9 -11 17 3 19 1
11 -9 -6 -7 -8 -16 -5 -19 4 -4 -5 -1 -20 6 -23 11 -26 17 -25 62 2 46 2 47 8
15 4 -23 12 -34 21 -32z m568 -75 c0 -21 -2 -23 -10 -9 -5 9 -6 21 -3 26 10
16 13 12 13 -17z m-535 -36 c-2 -4 -13 -5 -24 -2 -14 5 -20 0 -25 -22 -10 -47
-12 -49 -13 -11 -1 21 4 38 12 41 19 7 56 3 50 -6z m536 -34 c-1 -38 -1 -38
-9 -9 -8 27 -6 46 6 46 2 0 4 -17 3 -37z m-534 -113 l0 -125 28 -3 c28 -3 39
-35 15 -45 -13 -4 -67 -1 -74 5 -2 3 -6 238 -5 286 1 8 9 12 18 10 16 -3 18
-18 18 -128z m511 117 c4 -4 2 -7 -4 -7 -7 0 -12 -5 -12 -11 0 -5 5 -7 12 -3
7 4 8 3 4 -4 -12 -19 -23 -14 -28 12 -5 23 11 30 28 13z m0 -167 c-1 -108 -2
-120 -18 -120 -16 0 -18 12 -18 120 0 109 2 120 18 120 16 0 18 -11 18 -120z
m-5 -264 c4 -34 3 -706 -1 -707 -3 -1 -38 -3 -78 -3 -68 -2 -73 -1 -70 19 3
17 10 20 60 20 l57 0 0 322 0 323 -48 -4 c-59 -5 -74 4 -62 37 3 10 141 2 142
-7z m-161 -36 c0 -11 -4 -20 -9 -20 -6 0 -9 9 -8 20 1 11 5 20 9 20 4 0 8 -9
8 -20z m-202 -265 c-9 -9 -30 14 -23 25 6 9 10 8 17 -4 6 -10 8 -19 6 -21z
m712 6 c0 -18 -7 -19 -85 -18 -47 1 -85 0 -86 -3 -3 -14 -4 -507 -2 -516 2 -6
26 -9 58 -8 47 2 55 0 55 -16 0 -23 -12 -27 -85 -26 l-60 1 -3 303 -2 302 105
0 c97 0 105 -1 105 -19z m450 -281 c0 -165 -3 -301 -7 -301 -5 -1 -60 -3 -123
-4 -120 -2 -160 6 -140 29 7 10 40 13 120 12 l110 -2 0 266 0 265 -140 -3
c-136 -3 -140 -2 -140 17 0 20 5 21 160 21 l160 0 0 -300z m-1255 88 c-2 -10
-7 -23 -10 -28 -4 -6 -2 -17 5 -25 8 -10 8 -15 -1 -21 -8 -5 -9 -3 -4 6 6 10
4 12 -9 7 -14 -6 -17 -3 -12 8 3 8 9 22 13 32 4 11 3 14 -5 9 -12 -7 -17 15
-7 26 13 12 33 3 30 -14z m398 -53 c7 -16 -8 -29 -23 -20 -10 6 -2 35 10 35 4
0 10 -7 13 -15z m-101 -179 c4 -17 1 -23 -9 -19 -14 6 -18 43 -4 43 5 0 11
-11 13 -24z m681 -175 c3 -14 0 -17 -15 -13 -15 4 -17 7 -6 13 10 7 11 9 0 9
-7 0 -10 5 -7 10 8 14 21 5 28 -19z m723 -152 c-9 -6 -222 -6 -248 0 -5 0 -8
8 -8 16 0 22 252 27 261 5 4 -8 1 -18 -5 -21z m634 12 c0 -16 -15 -18 -242
-17 -235 1 -243 2 -246 21 -3 20 2 20 243 17 228 -2 245 -4 245 -21z m-1080
-376 c0 -198 -1 -205 -20 -205 -19 0 -20 7 -20 205 0 198 1 205 20 205 19 0
20 -7 20 -205z m230 0 c0 -199 0 -205 -20 -205 -19 0 -20 6 -20 205 0 196 1
205 19 205 19 0 20 -9 21 -205z m850 25 c0 -173 -1 -180 -20 -180 -19 0 -20 7
-20 180 0 173 1 180 20 180 19 0 20 -7 20 -180z m-1873 23 c-2 -21 -4 -6 -4
32 0 39 2 55 4 38 2 -18 2 -50 0 -70z m1066 -66 c4 3 7 2 7 -4 0 -15 -11 -22
-26 -16 -8 3 -14 12 -14 20 0 12 3 13 13 4 8 -6 17 -8 20 -4z m-1066 -129 c-2
-24 -4 -5 -4 42 0 47 2 66 4 43 2 -24 2 -62 0 -85z m1900 -17 c1 -11 -5 -22
-13 -25 -12 -5 -15 -2 -10 10 3 8 6 23 6 31 0 21 13 8 17 -16z m-1758 -58 c-1
-15 -2 -15 -6 -2 -7 27 -43 31 -53 6 l-9 -22 0 23 c-1 15 7 26 21 31 26 9 49
-8 47 -36z"/>
<path d="M2687 3274 c-2 -12 0 -30 5 -39 6 -10 6 -27 0 -44 -9 -26 -8 -28 9
-24 15 4 19 0 19 -21 0 -21 5 -26 24 -26 13 0 29 -7 36 -15 16 -19 39 -19 47
1 3 9 15 14 32 12 23 -3 26 0 23 25 -2 19 2 27 13 27 13 0 15 6 10 29 -3 17
-2 32 4 36 6 3 11 19 11 34 0 26 -2 28 -50 30 -28 1 -50 -3 -50 -9 0 -5 -9
-10 -20 -10 -11 0 -20 5 -20 10 0 7 -19 10 -44 9 -37 -2 -45 -6 -49 -25z m87
7 c3 -4 -3 -16 -14 -26 -11 -10 -20 -25 -20 -34 0 -9 9 -2 20 17 11 17 27 32
37 32 20 0 53 -28 53 -46 0 -7 4 -15 10 -19 5 -3 5 7 -1 25 -6 16 -15 33 -20
36 -5 3 -9 9 -9 15 0 11 40 12 56 1 16 -9 8 -72 -11 -91 -17 -17 -111 -19
-142 -3 -23 13 -37 82 -19 94 15 10 54 10 60 -1z m31 -121 c-4 -6 3 -7 18 -1
26 10 41 4 45 -19 2 -12 -1 -11 -11 2 -13 16 -15 16 -37 -7 l-23 -24 -18 22
c-10 12 -18 17 -19 11 0 -6 -6 -11 -14 -11 -15 0 -17 17 -4 27 12 10 69 9 63
0z"/>
<path d="M99 3258 c0 -2 -2 -27 -4 -56 -4 -69 16 -95 74 -98 23 -1 43 1 45 5
3 4 -16 7 -41 8 -57 3 -69 18 -67 89 1 44 -2 66 -7 52z"/>
<path d="M164 3230 c1 -16 7 -35 14 -42 13 -13 75 -21 67 -8 -3 4 -15 6 -27 5
-29 -3 -45 14 -43 43 1 13 -1 25 -5 27 -4 2 -7 -9 -6 -25z"/>
<path d="M760 3215 c0 -8 -7 -15 -15 -15 -13 0 -15 -48 -15 -370 0 -322 2
-370 15 -370 8 0 15 -6 15 -13 0 -8 15 -12 45 -12 25 0 45 4 45 9 0 5 7 3 15
-4 12 -10 15 -10 15 4 0 12 -11 16 -45 17 -25 1 -51 2 -57 3 -10 1 -14 66 -16
284 l-2 282 25 0 c15 0 24 4 21 9 -4 5 -1 11 6 13 21 7 0 38 -27 38 -24 0 -26
3 -23 33 2 22 7 31 18 28 31 -7 55 -7 72 1 10 5 19 4 23 -2 6 -10 46 -7 66 6
7 4 10 3 7 -2 -4 -5 16 -9 42 -9 26 0 46 4 43 8 -3 5 3 5 13 -1 11 -5 26 -8
34 -6 8 1 25 5 38 8 14 3 20 1 16 -6 -4 -6 -1 -9 7 -6 7 2 17 15 20 29 6 19 7
16 6 -13 -1 -21 -5 -38 -10 -38 -5 0 -4 -7 3 -15 9 -10 9 -15 1 -15 -7 0 -11
-20 -11 -50 0 -33 4 -50 13 -50 8 0 7 -4 -3 -10 -12 -8 -13 -11 -1 -19 11 -7
11 -9 0 -14 -12 -4 -11 -7 1 -16 13 -10 13 -11 0 -11 -13 0 -13 -1 0 -11 11
-8 12 -12 3 -16 -7 -2 -13 -9 -13 -14 0 -6 5 -7 10 -4 6 3 10 1 10 -4 0 -6 -4
-11 -10 -11 -14 0 -12 -37 3 -43 10 -4 10 -6 0 -6 -14 -1 -18 -33 -6 -45 4 -3
8 -17 10 -29 2 -16 1 -18 -6 -8 -11 17 -41 24 -41 10 0 -5 7 -9 16 -9 9 0 14
-6 12 -12 -6 -16 -33 -17 -33 -1 0 6 -3 15 -7 19 -5 4 -8 -2 -8 -13 0 -38 34
-54 57 -26 10 13 13 13 10 3 -2 -8 -1 -24 4 -35 4 -11 8 98 8 242 1 144 4 268
7 277 4 11 1 16 -10 16 -9 0 -16 7 -16 15 0 13 -29 15 -200 15 -171 0 -200 -2
-200 -15z m388 -17 c3 -17 -11 -18 -187 -18 -185 0 -191 1 -191 20 0 20 5 20
187 18 170 -3 188 -5 191 -20z m-396 -26 c3 -9 1 -26 -3 -37 -6 -15 -8 -11 -8
18 -1 40 4 48 11 19z m18 -102 c-19 -13 -30 -13 -30 0 0 6 10 10 23 10 18 0
19 -2 7 -10z m0 -25 c-14 -17 -30 -20 -30 -6 0 5 8 12 18 14 9 3 19 5 21 6 2
0 -2 -6 -9 -14z"/>
<path d="M1324 3215 c3 -9 0 -15 -9 -15 -13 0 -15 -41 -15 -285 l0 -285 -49 0
c-62 0 -112 -10 -106 -21 3 -4 12 -6 19 -3 9 4 14 -3 14 -20 0 -14 -4 -26 -9
-26 -5 0 -9 7 -9 15 0 8 -4 15 -10 15 -5 0 -10 -4 -10 -10 0 -5 -7 -10 -16
-10 -12 0 -14 3 -6 13 8 9 4 12 -18 12 -18 0 -26 -4 -23 -12 3 -7 0 -13 -6
-13 -6 0 -11 4 -11 9 0 5 -11 11 -25 13 -20 4 -23 3 -14 -8 9 -11 8 -14 -5
-14 -9 0 -16 5 -16 10 0 6 -7 10 -15 10 -8 0 -15 -4 -15 -10 0 -5 -7 -10 -16
-10 -14 0 -15 2 -3 17 13 15 12 15 -8 5 -29 -16 -30 -16 -37 11 -6 21 -7 21
-20 4 -8 -10 -20 -15 -30 -11 -18 7 -22 39 -6 49 6 4 8 11 4 16 -3 5 -10 6
-16 3 -6 -4 -9 -1 -6 7 3 8 -2 20 -11 27 -14 12 -14 13 2 8 21 -7 23 10 1 18
-28 11 -28 15 -11 -114 4 -27 55 -49 68 -28 6 9 12 8 24 -2 18 -15 160 -24
308 -20 67 1 107 -5 107 -18 0 -6 -167 -7 -195 -2 -6 2 -12 1 -15 0 -16 -6
-77 -5 -91 1 -9 5 -19 5 -23 2 -10 -10 -88 -7 -95 4 -3 6 -18 12 -34 15 -22 4
-25 3 -16 -8 8 -10 8 -14 0 -14 -6 0 7 -18 29 -40 l40 -40 129 0 c94 0 131 -3
134 -12 4 -10 6 -10 6 0 1 6 6 12 12 12 5 0 7 -4 4 -10 -3 -5 -1 -10 4 -10 6
0 11 5 11 10 0 6 5 10 11 10 5 0 7 -4 4 -10 -3 -5 -2 -10 4 -10 5 0 12 6 14
13 4 10 6 10 6 0 1 -7 6 -13 12 -13 5 0 7 5 4 10 -3 6 -1 10 4 10 6 0 11 -4
11 -10 0 -5 5 -10 11 -10 5 0 7 5 4 10 -4 7 144 10 437 10 l444 0 57 60 56 60
60 0 c54 0 62 3 95 36 34 34 52 85 24 67 -7 -4 -19 -8 -25 -9 -7 -1 -20 -9
-29 -18 -10 -11 -20 -13 -28 -7 -6 5 -34 8 -63 6 -35 -2 -50 1 -47 9 3 7 23
11 47 10 23 -1 58 3 77 9 19 6 51 11 70 11 30 1 36 5 41 31 9 43 10 115 2 115
-12 0 -25 -12 -58 -50 -28 -33 -28 -33 13 5 23 21 42 34 42 28 0 -7 -5 -15
-10 -18 -6 -4 -7 -11 -4 -17 4 -7 2 -8 -5 -4 -13 9 -26 -18 -16 -35 6 -8 10
-8 16 2 4 7 10 11 13 8 3 -3 -6 -17 -20 -32 -24 -26 -44 -35 -44 -19 0 5 -6
16 -13 27 -11 14 -16 15 -22 5 -5 -9 -4 -11 3 -6 8 5 11 0 9 -13 -5 -30 -12
-34 -35 -20 -17 10 -25 10 -47 -5 -18 -12 -30 -14 -39 -7 -7 6 -17 6 -25 1 -8
-4 -20 -6 -28 -3 -7 3 -13 0 -13 -7 0 -6 4 -8 10 -5 6 3 10 1 10 -4 0 -6 -5
-11 -12 -11 -6 0 -9 -3 -6 -6 9 -8 -55 -69 -69 -66 -7 2 -13 -2 -13 -8 0 -5
-7 -10 -16 -10 -12 0 -14 3 -6 13 8 9 4 12 -18 12 -22 0 -26 -3 -18 -12 8 -10
6 -13 -6 -13 -9 0 -16 5 -16 10 0 6 -7 10 -15 10 -8 0 -15 -4 -15 -10 0 -5 -7
-10 -15 -10 -8 0 -15 5 -15 10 0 6 -7 10 -15 10 -8 0 -15 -4 -15 -10 0 -5 -7
-10 -16 -10 -12 0 -14 3 -6 13 8 9 4 12 -18 12 -22 0 -26 -3 -18 -12 8 -10 6
-13 -6 -13 -9 0 -16 5 -16 10 0 6 -7 10 -15 10 -8 0 -15 -4 -15 -10 0 -14 -27
-13 -32 1 -2 6 -25 12 -50 13 -37 1 -44 -1 -36 -11 8 -10 6 -13 -6 -13 -9 0
-16 5 -16 10 0 6 -7 10 -15 10 -8 0 -15 -4 -15 -10 0 -5 -7 -10 -15 -10 -8 0
-15 5 -15 10 0 6 -7 10 -15 10 -8 0 -15 -4 -15 -10 0 -5 -7 -10 -16 -10 -12 0
-14 3 -6 13 8 9 4 12 -18 12 -22 0 -26 -3 -18 -12 8 -10 6 -13 -6 -13 -9 0
-16 5 -16 10 0 6 -7 10 -15 10 -8 0 -15 -4 -15 -10 0 -5 -7 -10 -15 -10 -8 0
-15 5 -15 10 0 6 -7 10 -15 10 -8 0 -15 -4 -15 -10 0 -5 -7 -10 -16 -10 -12 0
-14 3 -6 13 8 9 4 12 -18 12 -22 0 -26 -3 -18 -12 8 -10 6 -13 -6 -13 -9 0
-16 5 -16 10 0 6 -7 10 -15 10 -8 0 -15 -4 -15 -10 0 -24 -30 -7 -39 23 l-9
32 -1 -36 -1 -35 -62 4 c-35 2 -67 9 -73 14 -6 6 13 8 55 6 l66 -3 2 44 c2 45
12 72 12 32 0 -16 4 -21 15 -18 8 4 16 3 19 -1 8 -13 61 -7 58 6 -1 7 5 12 13
12 8 0 15 -7 15 -15 0 -8 5 -15 10 -15 6 0 13 7 16 15 7 17 40 20 50 4 4 -8
-1 -9 -17 -5 -20 6 -21 5 -6 -4 19 -12 41 -4 32 11 -10 16 17 10 29 -7 7 -9
18 -13 30 -8 14 5 15 9 4 15 -10 7 -9 9 3 9 9 0 20 -8 24 -17 6 -17 7 -17 19
0 17 22 81 24 90 2 8 -22 26 -18 26 5 0 11 -6 20 -12 20 -9 0 -8 4 2 10 13 8
13 10 -2 10 -9 0 -18 -6 -21 -12 -4 -10 -7 -10 -18 0 -7 6 -18 12 -24 12 -5 0
-3 -5 5 -10 12 -8 11 -10 -7 -10 -12 0 -25 5 -28 10 -3 6 -14 10 -23 10 -15 0
-15 -2 -2 -10 24 -15 -15 -13 -40 3 -17 10 -22 9 -30 -3 -7 -12 -12 -12 -22
-2 -6 6 -17 12 -23 12 -5 0 -3 -5 5 -10 12 -8 11 -10 -7 -10 -12 0 -25 5 -28
10 -3 6 -14 10 -23 9 -11 0 -12 -3 -4 -6 6 -2 11 -14 11 -26 -1 -14 -3 -16 -6
-6 -2 8 -18 21 -36 28 -26 10 -33 19 -32 40 0 21 -5 27 -27 29 -23 3 -28 8
-28 30 0 21 -2 24 -10 12 -7 -11 -10 0 -8 38 1 37 4 50 12 42 5 -5 20 -10 32
-10 28 0 34 30 34 171 0 95 5 119 23 107 1 -1 13 4 26 11 13 7 21 9 18 4 -3
-4 17 -8 43 -8 26 0 46 4 43 8 -3 5 3 4 13 -1 11 -6 21 -11 24 -13 3 -1 16 3
29 10 13 7 21 9 18 4 -3 -4 17 -8 43 -8 26 0 46 4 43 9 -4 5 -1 6 6 2 20 -13
60 -16 66 -6 4 6 11 7 17 4 17 -11 87 -11 81 0 -3 5 -1 6 6 2 20 -13 60 -16
66 -6 4 6 11 7 17 4 16 -10 87 -11 81 -1 -3 5 3 5 13 -1 22 -11 74 -9 93 3 8
5 12 4 9 -1 -4 -5 9 -9 27 -9 18 0 31 4 28 8 -3 5 3 4 13 -1 19 -10 26 -12 44
-12 6 0 10 -54 10 -141 l0 -140 28 3 c25 3 27 7 30 51 2 33 7 47 18 47 11 0
14 22 14 120 0 100 -2 120 -15 120 -8 0 -15 7 -15 15 0 13 -64 15 -516 15
-455 0 -515 -2 -510 -15z m1016 -155 c0 -153 -1 -160 -20 -160 -19 0 -20 7
-20 140 l0 140 -462 -2 -463 -3 0 -137 c0 -131 -1 -138 -20 -138 -21 0 -22 28
-16 283 l1 37 500 0 500 0 0 -160z m-969 -327 c6 -56 4 -63 -16 -63 -16 0 -20
6 -19 30 1 17 2 32 3 35 2 8 31 6 32 -2z m1089 -87 c0 -8 -17 -20 -37 -27 -33
-10 -35 -13 -18 -20 13 -5 14 -8 5 -8 -8 0 -26 6 -40 14 -18 9 -29 10 -37 3
-9 -7 -17 -7 -27 1 -11 9 -22 8 -51 -8 -20 -10 -32 -22 -26 -25 12 -8 41 3 41
15 0 5 8 9 17 9 14 0 14 -3 -5 -20 -12 -11 -33 -20 -47 -20 -14 0 -25 -4 -25
-9 0 -15 -29 -21 -54 -11 -13 5 -27 6 -30 3 -5 -5 -745 -6 -783 -1 -20 2 -15
18 5 19 9 1 203 2 430 2 l414 2 22 28 c12 15 27 27 34 27 7 0 12 4 12 9 0 4
41 7 90 6 69 -1 90 2 90 12 0 7 5 13 10 13 6 0 10 -6 10 -14z m-1163 -32 c-9
-9 -107 -10 -107 -1 0 4 26 7 57 7 31 0 54 -3 50 -6z m-402 -84 c-3 -5 51 -8
120 -6 92 1 126 -1 129 -11 8 -19 -1 -20 -109 -18 -112 3 -126 5 -149 24 -16
14 -12 36 5 25 5 -3 7 -9 4 -14z m1329 -9 l-28 -26 -428 0 c-334 -1 -428 2
-428 11 0 17 17 27 25 14 4 -6 13 -7 23 -2 9 4 198 7 419 6 302 -1 403 2 407
11 2 6 12 12 21 12 12 0 9 -7 -11 -26z m-904 -12 c0 -6 -35 -9 -80 -8 -44 1
-80 5 -80 10 0 11 25 14 96 11 35 -2 64 -8 64 -13z m0 -29 c0 -6 -35 -10 -86
-10 -54 0 -83 4 -79 10 3 6 42 10 86 10 46 0 79 -4 79 -10z"/>
<path d="M2460 3215 c0 -8 -7 -15 -15 -15 -12 0 -15 -16 -15 -85 0 -69 3 -85
15 -85 8 0 15 -7 15 -15 0 -12 13 -15 55 -15 42 0 55 3 55 15 0 8 7 15 15 15
12 0 15 16 15 85 0 84 0 85 -25 83 -31 -3 -31 -5 -3 -28 l22 -17 -22 1 c-13 0
-26 7 -31 14 -7 11 -9 11 -14 -2 -4 -10 -1 -16 8 -16 21 0 19 -14 -5 -35 -20
-18 -57 -14 -45 5 4 6 11 8 16 5 5 -4 9 2 9 11 0 16 -1 16 -20 -1 -20 -18 -28
-47 -11 -42 5 1 10 -2 11 -8 0 -5 -6 -11 -14 -13 -11 -3 -14 10 -15 62 0 63
13 94 25 62 10 -25 26 -19 19 7 -5 17 -4 19 4 7 10 -13 12 -13 21 0 5 8 10 10
10 4 0 -15 28 -13 34 3 4 10 -9 13 -54 13 -47 0 -60 -3 -60 -15z m114 -101 c9
-3 16 -10 16 -15 0 -4 -6 -6 -14 -3 -20 8 -30 -14 -15 -32 17 -21 -3 -33 -54
-32 -22 0 -34 4 -27 8 6 4 11 10 11 14 -1 3 2 6 6 5 4 0 11 9 15 21 4 12 12
18 18 15 5 -3 10 1 10 9 0 17 9 20 34 10z"/>
<path d="M335 3179 c-2 -3 23 -5 55 -5 33 0 57 2 55 5 -7 7 -106 7 -110 0z"/>
<path d="M533 3176 c-3 -6 -3 -8 2 -4 4 4 14 3 22 -3 9 -9 13 -8 13 0 0 8 6 8
20 -1 23 -14 26 -33 8 -44 -7 -4 -51 -8 -99 -8 -48 -1 -90 -3 -93 -6 -2 -3 38
-5 89 -5 75 0 99 4 114 17 12 10 18 24 15 32 -10 25 -80 42 -91 22z"/>
<path d="M27 3110 c4 -16 43 -23 43 -8 0 4 -7 8 -16 8 -8 0 -13 4 -10 8 3 5
-1 9 -8 9 -7 0 -11 -8 -9 -17z"/>
<path d="M265 3110 c-2 -3 25 -6 61 -6 35 -1 64 2 64 6 0 7 -120 7 -125 0z"/>
<path d="M907 3059 l-38 -31 5 -67 c3 -36 5 -69 5 -73 1 -5 7 -7 14 -5 8 1 11
-8 9 -27 -3 -26 -1 -28 21 -22 16 4 29 0 37 -9 7 -8 18 -15 25 -15 7 0 18 7
25 15 8 9 21 13 37 9 22 -6 24 -4 21 22 -2 19 2 29 11 29 10 0 15 17 18 60 4
82 -1 100 -41 124 -50 31 -103 28 -149 -10z m146 -4 c39 -27 54 -65 18 -45
-11 5 -29 10 -40 10 -26 0 -27 15 -3 29 9 6 12 11 5 11 -6 0 -14 -4 -17 -9 -3
-5 -17 -8 -31 -8 -14 0 -28 3 -31 8 -3 5 -11 9 -17 9 -7 0 -4 -5 6 -11 23 -14
22 -29 -4 -29 -11 0 -29 -5 -40 -10 -39 -22 -14 24 31 54 35 23 80 20 123 -9z
m-53 -50 c-7 -9 -6 -16 6 -25 8 -8 22 -27 29 -44 l14 -31 -4 29 c-2 16 -11 36
-20 46 -26 28 14 43 48 18 13 -11 15 -20 8 -50 -6 -26 -5 -38 3 -41 13 -5 -24
-8 -96 -9 -89 0 -95 2 -93 38 0 18 -3 30 -7 28 -4 -3 -8 2 -8 11 0 19 43 40
66 31 15 -6 15 -8 2 -24 -9 -9 -18 -30 -21 -47 l-6 -30 12 27 c7 14 21 36 32
48 11 12 19 24 18 26 -2 2 -3 11 -3 20 0 14 3 14 15 4 11 -9 12 -16 5 -25z
m12 -139 c6 -9 -14 -36 -27 -36 -13 0 -32 25 -28 37 5 14 45 13 55 -1z"/>
<path d="M1442 2948 c3 -159 -1 -152 76 -137 17 4 34 4 36 0 6 -8 110 -6 125
3 6 4 11 16 11 27 0 16 7 19 58 20 31 0 82 2 112 4 30 2 78 4 106 5 l51 1 0
52 c0 29 1 76 2 105 l1 52 103 0 103 0 0 -120 -1 -120 -108 0 c-70 0 -106 4
-102 10 7 12 -104 14 -120 2 -5 -4 -10 -18 -10 -32 0 -28 -25 -35 -38 -10 -5
10 -6 8 -3 -8 2 -12 -2 -29 -11 -37 -13 -13 -13 -15 1 -15 10 0 13 -6 10 -15
-4 -8 -2 -15 3 -15 5 0 10 14 11 32 3 37 12 52 12 20 0 -12 5 -22 11 -22 6 0
9 9 6 20 -3 11 -1 23 4 26 5 3 82 7 172 9 89 2 170 6 180 10 15 6 17 22 17
130 0 93 -3 125 -14 134 -9 8 -52 11 -127 9 l-114 -3 0 -27 1 -28 -158 0
c-145 0 -158 1 -158 18 0 36 -20 42 -137 42 l-114 0 3 -142z m218 12 l0 -120
-105 0 -105 0 0 120 0 120 105 0 105 0 0 -120z m340 4 c0 -42 -4 -60 -17 -70
-19 -14 -57 -19 -49 -6 6 9 -61 9 -70 -1 -10 -10 -46 -9 -40 1 3 5 -17 8 -44
8 -26 -1 -46 -4 -43 -8 2 -5 -5 -8 -17 -8 -12 0 -18 4 -15 10 4 6 3 10 -2 9
-23 -4 -28 6 -28 61 l-1 60 163 0 163 0 0 -56z m-3 -131 c1 -15 -7 -18 -46
-18 -38 0 -47 3 -47 18 0 14 9 17 46 17 36 0 46 -4 47 -17z"/>
<path d="M202 3058 c2 -13 10 -23 18 -23 8 0 16 10 18 23 3 17 -2 22 -18 22
-16 0 -21 -5 -18 -22z"/>
<path d="M310 3061 c0 -27 19 -36 37 -18 18 18 9 37 -18 37 -12 0 -19 -7 -19
-19z"/>
<path d="M63 3035 c-17 -19 -16 -36 1 -29 9 4 35 -15 67 -48 28 -29 56 -52 62
-50 6 2 14 -3 19 -10 8 -10 11 -10 15 0 6 14 43 16 43 2 0 -5 5 -10 11 -10 5
0 7 5 4 10 -3 6 5 10 19 10 13 0 27 -6 29 -12 4 -10 6 -10 6 0 1 6 7 12 15 12
8 0 16 -6 19 -12 2 -7 7 -10 11 -6 13 12 -17 47 -33 39 -9 -4 -47 -7 -84 -6
l-68 1 -60 62 c-34 34 -62 62 -63 62 0 -1 -7 -7 -13 -15z"/>
<path d="M251 3030 c3 -37 -2 -51 -13 -44 -6 4 -8 3 -5 -3 8 -13 87 -13 87 0
0 5 -12 6 -27 3 l-28 -6 28 15 c34 19 35 28 2 15 -16 -6 -25 -6 -25 0 0 6 7
10 15 10 8 0 15 5 15 10 0 7 -6 7 -19 0 -14 -7 -21 -6 -25 3 -4 8 -5 7 -5 -3z"/>
<path d="M367 3028 c2 -5 13 -8 23 -8 10 0 21 3 23 8 3 4 -8 7 -23 7 -15 0
-26 -3 -23 -7z"/>
<path d="M348 3013 c7 -5 10 -16 7 -25 -5 -12 1 -15 27 -14 22 1 34 6 36 17 2
12 -4 17 -20 16 -13 0 -32 3 -43 7 -13 5 -16 5 -7 -1z"/>
<path d="M530 2991 c0 -10 -7 -21 -15 -25 -8 -3 -15 -11 -15 -18 0 -17 -36
-48 -46 -40 -4 4 -4 1 0 -5 4 -8 1 -13 -8 -13 -9 0 -15 -3 -14 -7 2 -5 -1 -10
-7 -11 -5 -2 -16 -8 -22 -14 -9 -7 -18 -7 -28 2 -12 10 -18 10 -32 -1 -13 -11
-17 -11 -20 -1 -3 6 -11 12 -18 12 -7 0 -15 -6 -18 -12 -3 -10 -7 -10 -20 1
-13 10 -20 11 -31 2 -15 -13 -66 1 -66 18 0 5 -7 11 -15 15 -8 3 -14 2 -14 -2
3 -20 -3 -23 -23 -10 -32 21 -112 17 -116 -5 -3 -13 4 -17 33 -17 31 0 44 -8
90 -55 l52 -55 127 0 127 0 34 34 c46 43 47 68 4 56 -17 -5 -37 -14 -44 -20
-7 -6 -16 -7 -19 -2 -6 10 -136 10 -153 -1 -6 -4 -14 -3 -18 2 -3 6 -18 10
-33 10 -57 -1 -138 32 -126 52 9 15 24 10 24 -7 0 -13 7 -15 34 -10 23 4 35 3
38 -6 6 -16 256 -17 266 -1 4 6 25 10 46 9 38 -1 40 1 48 34 17 74 20 110 9
110 -6 0 -11 -9 -11 -19z m-24 -95 c2 -14 -30 -29 -40 -18 -4 3 1 14 11 24 17
19 25 17 29 -6z m-346 -75 c0 -18 -18 -21 -30 -6 -10 13 -9 15 9 15 11 0 21
-4 21 -9z m159 -12 c11 6 22 7 25 2 3 -4 28 -7 56 -6 27 1 50 -2 50 -6 0 -5
-8 -9 -18 -9 -10 0 -23 -5 -30 -12 -8 -8 -15 -8 -26 1 -9 7 -17 8 -20 2 -3 -5
-1 -11 5 -13 7 -2 -5 -4 -26 -4 -21 0 -33 2 -26 4 6 2 8 8 5 13 -3 6 -11 5
-20 -2 -11 -9 -17 -9 -29 1 -12 10 -18 10 -30 0 -12 -10 -19 -10 -27 -2 -7 7
-20 12 -30 12 -10 0 -18 4 -18 9 0 5 20 8 44 6 24 -1 50 1 57 6 7 4 19 3 26
-2 8 -7 18 -7 32 0z"/>
<path d="M2949 2972 l-36 -37 2 -137 2 -138 42 -42 c40 -40 42 -40 39 -15 -2
14 -8 30 -13 34 -4 5 -5 2 0 -6 5 -9 4 -12 -3 -7 -7 4 -12 13 -12 21 0 8 -5
17 -12 21 -7 5 -8 3 -3 -6 5 -9 4 -11 -3 -6 -8 5 -12 50 -12 137 l0 131 30 30
c28 27 40 58 23 58 -5 -1 -24 -17 -44 -38z"/>
<path d="M3 2975 c1 -5 20 -12 41 -15 58 -7 59 -29 2 -26 -43 3 -55 -2 -40
-17 4 -3 15 -2 26 4 14 7 23 7 33 -1 9 -8 15 -8 20 0 5 8 11 8 21 0 7 -7 17
-10 21 -8 4 1 -10 21 -31 43 -22 22 -36 34 -32 28 5 -9 0 -13 -14 -13 -12 0
-19 4 -16 8 2 4 -4 8 -14 8 -10 0 -18 -5 -17 -11z"/>
<path d="M2370 2935 c0 -6 39 -10 98 -10 58 0 97 4 97 10 0 6 -39 10 -97 10
-59 0 -98 -4 -98 -10z"/>
<path d="M2978 2918 c-10 -12 -18 -26 -18 -30 0 -4 8 -8 18 -8 14 0 15 -2 2
-10 -13 -9 -13 -11 0 -20 13 -8 12 -10 -2 -10 -10 0 -18 -5 -18 -11 0 -5 4 -8
9 -4 5 3 12 1 16 -5 3 -5 1 -10 -5 -10 -6 0 -8 -4 -5 -10 15 -25 22 -4 21 65
0 41 -1 75 -1 75 0 0 -8 -10 -17 -22z"/>
<path d="M2568 2693 l-3 -228 -27 -3 c-40 -5 -35 -28 5 -27 19 1 31 6 29 13
-1 7 5 12 13 12 13 0 15 32 15 230 0 196 -2 230 -15 230 -12 0 -15 -34 -17
-227z"/>
<path d="M0 2798 c0 -28 2 -49 5 -46 10 9 14 98 4 98 -5 0 -9 -23 -9 -52z"/>
<path d="M1332 2833 c2 -10 12 -18 23 -18 11 0 21 8 23 18 3 13 -3 17 -23 17
-20 0 -26 -4 -23 -17z"/>
<path d="M1785 2840 c-9 -15 4 -30 26 -30 12 0 19 7 19 20 0 21 -33 29 -45 10z"/>
<path d="M2850 2820 l-25 -8 28 -1 c15 -1 27 4 27 9 0 6 -1 10 -2 9 -2 -1 -14
-5 -28 -9z"/>
<path d="M1394 2785 c-4 -9 -2 -21 4 -27 15 -15 44 -1 40 19 -4 23 -36 29 -44
8z"/>
<path d="M2817 2794 c-16 -16 -7 -44 14 -44 15 0 20 5 17 22 -3 22 -19 33 -31
22z"/>
<path d="M826 2772 c-12 -11 -5 -19 14 -17 28 2 34 12 11 18 -11 2 -22 2 -25
-1z"/>
<path d="M2973 2774 c14 -5 16 -9 6 -20 -9 -11 -9 -14 0 -14 7 0 9 -5 6 -10
-4 -6 -11 -8 -16 -5 -5 4 -9 1 -9 -4 0 -6 8 -11 18 -12 10 0 12 -3 5 -6 -18
-7 -16 -30 2 -36 11 -5 14 5 12 51 -2 49 -5 57 -22 59 -17 1 -17 1 -2 -3z"/>
<path d="M2454 2745 c-4 -9 -4 -19 0 -22 3 -4 6 -1 6 6 0 7 5 9 10 6 6 -3 10
-2 10 4 0 18 -20 23 -26 6z"/>
<path d="M2286 2725 c-9 -7 -16 -16 -16 -21 0 -4 5 -3 12 4 7 7 34 12 62 12
58 0 58 7 0 13 -23 2 -49 -2 -58 -8z"/>
<path d="M1783 2715 c0 -8 6 -15 13 -15 8 0 11 6 8 15 -4 8 -9 15 -13 15 -4 0
-8 -7 -8 -15z"/>
<path d="M880 2655 c36 -37 52 -47 29 -18 -24 29 -49 53 -56 53 -4 0 8 -16 27
-35z"/>
<path d="M1897 2684 c-10 -10 -9 -42 2 -48 5 -4 17 -3 26 0 13 5 14 8 3 15
-10 7 -9 9 3 9 9 0 20 -8 24 -17 6 -17 7 -17 19 0 14 17 93 26 82 8 -3 -5 1
-12 10 -15 23 -9 24 -8 24 14 0 11 -6 20 -12 20 -9 0 -8 4 2 10 13 8 13 10 -2
10 -9 0 -18 -6 -21 -12 -4 -10 -7 -10 -18 0 -7 6 -18 12 -23 12 -6 0 -4 -5 4
-10 12 -8 11 -10 -7 -10 -12 0 -25 5 -28 10 -3 6 -14 10 -23 9 -11 0 -12 -3
-4 -6 6 -2 11 -14 11 -26 -1 -16 -3 -17 -6 -6 -2 10 -12 20 -21 23 -9 3 -22 8
-28 11 -5 3 -13 2 -17 -1z"/>
<path d="M1042 2651 c5 -24 111 -23 116 2 2 9 -1 17 -7 17 -6 0 -10 -5 -8 -11
1 -6 -4 -14 -11 -16 -7 -3 -11 1 -10 9 2 9 -10 13 -40 14 -34 1 -42 -2 -40
-15z"/>
<path d="M857 2643 c-4 -3 -7 -10 -7 -14 0 -11 29 -19 35 -10 6 11 -20 33 -28
24z"/>
<path d="M2003 2639 c11 -7 23 -7 28 -2 5 5 -3 9 -19 11 -24 1 -25 0 -9 -9z"/>
<path d="M2707 2624 c-13 -13 5 -25 20 -13 11 10 19 10 33 1 11 -6 21 -8 24
-3 9 13 -5 21 -39 21 -17 0 -35 -3 -38 -6z"/>
<path d="M190 2319 l0 -139 56 0 c34 0 53 -4 49 -10 -3 -5 -2 -10 4 -10 5 0
13 -9 16 -21 7 -20 7 -20 27 -2 26 23 27 23 43 -7 13 -22 14 -23 15 -5 0 11 7
28 14 38 14 19 36 23 36 7 0 -5 5 -10 11 -10 5 0 7 5 4 10 -3 6 -1 10 4 10 6
0 11 -7 11 -15 0 -8 4 -15 10 -15 5 0 7 7 4 15 -5 11 1 15 19 15 14 0 29 6 34
13 4 6 9 53 9 104 2 73 -1 93 -13 97 -12 5 -14 -3 -11 -49 2 -42 0 -54 -10
-50 -7 2 -15 -2 -18 -10 -8 -21 -26 -19 -22 3 4 27 -11 42 -43 42 -19 0 -29
-5 -29 -15 0 -8 -7 -15 -16 -15 -8 0 -12 5 -9 10 4 6 -7 10 -25 10 -18 0 -29
-4 -25 -10 3 -5 -1 -10 -9 -10 -9 0 -16 7 -16 15 0 10 -10 15 -29 15 -33 0
-47 -15 -42 -44 1 -10 -2 -15 -7 -12 -6 4 -13 2 -17 -4 -4 -6 13 -10 44 -10
28 0 51 -5 51 -10 0 -6 -15 -9 -33 -7 -18 2 -42 0 -52 -4 -14 -5 -2 -8 33 -8
46 -1 55 2 59 19 8 29 79 29 88 -1 8 -25 -2 -39 -11 -15 -8 22 -47 20 -67 -2
-19 -21 -23 -47 -5 -36 6 4 9 3 6 -2 -10 -15 -108 -4 -108 12 0 8 -4 14 -10
14 -5 0 -10 14 -10 30 0 17 5 30 10 30 6 0 10 8 10 19 0 10 7 24 15 31 23 19
21 107 -2 113 -10 2 29 2 87 0 58 -3 123 0 145 5 32 9 8 10 -117 10 l-158 -1
0 -138z m17 59 c-2 -13 -4 -3 -4 22 0 25 2 35 4 23 2 -13 2 -33 0 -45z m29 14
c3 -17 0 -33 -6 -37 -6 -4 -10 9 -10 36 0 47 9 47 16 1z m71 -92 c10 -12 15
-13 32 -2 17 10 25 10 42 0 17 -11 22 -10 34 5 17 23 65 14 58 -11 -4 -15 -19
-17 -108 -17 -57 1 -107 4 -111 8 -9 9 15 37 29 34 7 -1 17 -9 24 -17z m223
-48 c-1 -33 -36 -62 -74 -62 -29 0 -36 4 -36 20 0 17 7 20 48 21 33 0 41 3 27
8 -11 4 -32 6 -47 5 -15 -2 -30 1 -33 6 -4 6 14 10 44 10 29 0 51 5 51 11 0 5
5 7 10 4 6 -3 10 -14 10 -23z m-144 -44 c2 -13 -5 -18 -22 -18 -18 0 -24 5
-24 21 0 15 5 20 22 17 11 -2 22 -11 24 -20z m4 -39 c0 -5 5 -7 12 -3 7 4 8 3
4 -5 -4 -6 -16 -9 -26 -6 -11 3 -28 1 -39 -4 -14 -8 -20 -7 -24 4 -4 10 -1 12
10 8 11 -4 14 -2 9 5 -5 8 3 12 23 12 17 0 31 -5 31 -11z"/>
<path d="M515 2451 c-3 -6 -15 -11 -26 -11 -16 0 -19 -7 -19 -48 0 -36 5 -54
20 -67 11 -10 20 -16 21 -14 6 28 4 51 -4 56 -6 3 -7 1 -3 -5 4 -7 1 -12 -8
-12 -12 0 -16 10 -16 35 0 25 4 35 16 35 10 0 14 -6 11 -15 -4 -8 -2 -17 2
-19 5 -3 7 5 7 17 -1 12 2 28 7 35 6 7 7 15 4 18 -3 3 -8 1 -12 -5z"/>
<path d="M2200 2448 c0 -4 6 -8 13 -9 6 0 22 -2 35 -3 13 -2 22 3 22 11 0 9
-11 13 -35 11 -19 -1 -35 -6 -35 -10z"/>
<path d="M2280 2451 c0 -5 11 -8 25 -8 14 0 25 3 25 8 0 5 -11 9 -25 9 -14 0
-25 -4 -25 -9z"/>
<path d="M2340 2444 c0 -14 3 -14 15 -4 8 7 15 8 15 3 0 -5 9 -9 20 -9 11 0
20 4 20 9 0 5 7 4 15 -3 12 -10 15 -10 15 4 0 13 -11 16 -50 16 -39 0 -50 -3
-50 -16z"/>
<path d="M2850 2449 c0 -6 7 -9 15 -5 8 3 15 2 15 -3 0 -4 14 -6 30 -3 l30 4
0 -896 c0 -790 2 -896 15 -896 8 0 15 -7 15 -15 0 -8 7 -15 15 -15 8 0 15 6
15 14 0 8 -7 16 -15 20 -8 3 -15 15 -15 26 0 11 7 20 15 20 8 0 15 9 15 20 0
11 -6 20 -12 20 -9 0 -8 4 2 10 12 8 9 10 -12 10 -16 0 -28 5 -28 11 0 5 5 7
10 4 7 -4 10 218 10 659 0 522 -3 665 -12 669 -10 4 -10 6 0 6 6 1 12 6 12 12
0 5 -4 7 -10 4 -5 -3 -10 -2 -10 4 0 5 6 12 13 14 10 4 10 6 0 6 -7 1 -13 6
-13 12 0 5 5 7 10 4 6 -4 10 42 10 130 0 105 -3 140 -14 151 -17 17 -106 19
-106 3z m130 -1734 c-14 -17 -30 -20 -30 -6 0 5 8 12 18 14 9 3 19 5 21 6 2 0
-2 -6 -9 -14z"/>
<path d="M273 2408 c-2 -17 0 -17 14 -3 9 9 23 13 31 10 9 -3 13 -2 8 2 -15
16 -52 9 -53 -9z"/>
<path d="M434 2418 c-4 -6 -3 -8 3 -5 7 5 11 -6 11 -27 l0 -34 -84 0 c-46 1
-87 -2 -91 -5 -3 -4 37 -7 90 -7 l97 0 0 45 c0 43 -11 58 -26 33z"/>
<path d="M2350 2365 c0 -8 -7 -15 -15 -15 -13 0 -15 -41 -14 -317 1 -175 4
-304 8 -288 l7 30 7 -37 8 -38 59 0 c37 0 60 4 60 11 0 6 -7 9 -15 5 -8 -3
-15 0 -15 6 0 7 -5 6 -15 -2 -8 -7 -15 -9 -16 -4 0 5 -1 61 -2 124 l-2 115 30
-1 c17 -1 35 -3 40 -4 6 -1 26 -1 46 0 21 1 40 -3 44 -9 3 -6 1 -11 -5 -11 -7
0 -10 -7 -6 -15 3 -8 1 -15 -4 -15 -6 0 -10 7 -10 15 0 8 -9 15 -20 15 -11 0
-19 -6 -18 -12 2 -7 -4 -13 -12 -13 -8 0 -14 6 -12 13 1 6 -2 12 -8 12 -5 0
-9 -11 -8 -25 2 -19 8 -24 25 -23 12 1 24 11 27 23 5 17 8 18 16 5 14 -21 12
-33 -2 -24 -10 5 -10 4 -1 -6 6 -7 9 -18 7 -25 -3 -7 -1 -16 5 -20 7 -4 9 1 5
12 -5 17 -5 17 6 0 11 -18 5 -41 -9 -32 -5 2 -8 -5 -7 -17 1 -12 9 -22 19 -24
14 -2 18 2 14 17 -3 11 -2 33 3 50 5 18 5 27 -1 24 -5 -4 -9 -1 -9 5 0 6 -5 8
-12 4 -7 -4 -8 -3 -4 5 4 6 12 9 17 6 5 -4 9 1 9 9 0 8 9 21 20 29 11 8 17 17
13 20 -3 4 7 7 24 7 19 0 33 -6 37 -16 3 -8 10 -12 16 -9 10 6 14 -11 11 -57
-1 -26 1 -27 53 -27 l53 0 0 45 c0 24 -4 44 -8 44 -5 0 -9 -7 -9 -15 0 -8 -7
-15 -15 -15 -8 0 -15 -4 -15 -9 0 -6 10 -8 23 -6 22 4 22 4 2 -12 -17 -13 -17
-15 -2 -9 11 3 16 2 12 -4 -9 -14 -35 -12 -35 3 0 8 -4 7 -11 -3 -9 -12 -10
-10 -6 8 4 15 0 25 -9 29 -8 3 -14 11 -14 19 0 8 -4 14 -10 14 -5 0 -10 9 -10
20 0 57 -66 92 -96 53 -17 -22 -18 -37 -2 -27 8 5 9 2 5 -10 -4 -10 -7 -22 -7
-27 0 -6 -5 -7 -10 -4 -6 4 -8 11 -5 16 6 9 -7 13 -37 10 -9 -1 -19 2 -22 8
-3 5 3 7 14 4 14 -4 20 0 20 11 0 9 -6 16 -14 16 -17 0 -38 -24 -29 -33 3 -4
-3 -7 -15 -7 -12 0 -22 5 -22 11 0 5 6 7 13 3 10 -6 10 -4 0 7 -7 7 -13 23
-13 34 0 24 26 81 41 90 5 4 9 28 9 55 0 43 -2 48 -26 54 -36 9 -24 18 14 10
24 -5 32 -12 35 -33 l4 -26 2 28 1 27 104 0 c57 0 110 1 118 3 7 2 3 -1 -9 -7
-30 -13 -32 -77 -4 -112 11 -14 17 -33 14 -44 -7 -25 -25 -27 -21 -2 4 25 -10
42 -35 41 l-22 0 23 -9 c12 -5 22 -18 22 -27 0 -17 -10 -19 -110 -19 -108 0
-109 1 -108 23 2 13 9 23 18 24 10 0 11 2 2 6 -20 8 -40 -15 -36 -40 2 -12 2
-16 -2 -9 -3 6 -10 10 -15 6 -22 -13 -5 -23 44 -27 l52 -3 -52 -2 c-69 -3 -69
-17 -1 -16 41 0 54 4 56 17 5 24 78 24 86 0 5 -14 17 -18 56 -18 66 0 64 13
-2 18 l-53 3 53 2 c56 2 53 -1 56 68 1 25 -2 30 -17 26 -15 -4 -17 1 -15 34 4
41 24 49 22 8 -1 -13 2 -21 6 -19 4 3 6 18 4 35 -2 17 1 30 7 30 6 0 9 6 7 12
-3 9 -48 13 -167 13 -90 0 -165 -3 -167 -6 -2 -3 -4 -58 -5 -121 -1 -108 -3
-117 -23 -127 -20 -11 -20 -11 4 -6 22 5 23 5 7 -6 -26 -15 -44 3 -23 24 14
13 14 16 1 21 -9 3 -15 -1 -15 -10 0 -8 -4 -13 -9 -10 -5 4 -7 -3 -4 -14 3
-13 -1 -22 -12 -26 -19 -8 -38 13 -30 34 3 7 -1 15 -9 18 -9 3 -13 25 -13 72
0 37 2 50 4 30 4 -34 6 -36 36 -34 l32 2 3 107 3 107 221 2 222 3 7 25 c8 27
8 27 15 -7 2 -13 -1 -23 -6 -23 -6 0 -10 -29 -10 -66 0 -41 4 -63 10 -59 6 3
10 1 10 -4 0 -6 -4 -11 -10 -11 -6 0 -10 -66 -10 -179 0 -99 -3 -186 -6 -195
-7 -17 -44 -22 -44 -6 0 6 -5 10 -11 10 -5 0 -7 -4 -4 -10 3 -5 1 -10 -4 -10
-6 0 -11 5 -11 10 0 6 -9 10 -20 10 -16 0 -20 -7 -20 -35 0 -19 -4 -35 -10
-35 -5 0 -10 6 -10 13 0 8 -4 7 -10 -3 -6 -10 -10 -11 -10 -2 0 6 -11 12 -25
12 -16 0 -25 -6 -25 -15 0 -12 14 -15 65 -15 36 0 65 4 65 10 0 5 -8 7 -17 4
-14 -5 -15 -4 -4 4 7 5 18 16 23 23 8 11 9 10 4 -3 -3 -10 -1 -18 5 -18 6 0 7
-4 4 -10 -3 -5 -1 -10 4 -10 6 0 11 5 11 10 0 6 5 10 11 10 5 0 7 -4 4 -10 -3
-5 3 -10 14 -10 17 0 21 6 21 35 0 19 5 35 11 35 6 0 8 -9 4 -20 -4 -11 -2
-20 4 -20 8 0 11 97 11 310 0 269 -2 310 -15 310 -8 0 -15 7 -15 15 0 13 -35
15 -255 15 -220 0 -255 -2 -255 -15z m500 -16 c0 -10 -6 -19 -12 -20 -7 0
-110 -1 -228 -2 l-215 -2 0 -113 c0 -105 -1 -112 -20 -112 -19 0 -20 6 -17
134 l3 133 245 1 c234 0 244 -1 244 -19z m-342 -190 c-4 -47 -18 -46 -18 1 0
25 4 39 10 35 6 -4 9 -20 8 -36z m139 -160 c16 -16 5 -39 -18 -39 -12 0 -19 7
-19 18 0 31 17 41 37 21z m-252 -152 c0 -80 -1 -87 -20 -87 -19 0 -20 6 -18
87 1 49 2 89 3 91 0 2 8 2 17 0 14 -3 17 -16 18 -91z"/>
<path d="M760 2235 l0 -115 170 0 170 0 0 115 0 115 -170 0 -170 0 0 -115z
m328 -2 l3 -103 -161 0 -160 0 0 105 0 106 158 -3 157 -3 3 -102z"/>
<path d="M780 2240 l0 -90 148 0 147 0 -3 90 -3 90 -145 0 -144 0 0 -90z m100
60 c6 10 10 11 10 3 0 -7 7 -10 17 -6 10 4 14 2 9 -5 -3 -6 -2 -14 4 -17 6 -4
9 -1 8 7 -2 8 9 13 34 14 20 0 35 -2 33 -6 -3 -4 -16 -6 -31 -4 -14 1 -23 0
-20 -4 8 -7 75 -10 74 -2 -1 17 4 20 20 11 13 -7 17 -21 16 -60 0 -28 -2 -52
-5 -53 -2 -2 -3 -1 -2 1 2 2 -2 10 -8 18 -9 10 -8 13 2 13 11 0 11 2 -1 9 -20
14 -32 3 -20 -19 7 -13 7 -21 -2 -26 -6 -4 -8 -3 -5 3 4 6 0 16 -8 23 -8 7
-13 16 -10 19 2 4 -2 8 -10 8 -13 0 -12 -4 2 -19 9 -10 13 -21 9 -25 -9 -9
-156 -12 -151 -2 3 3 -3 13 -12 20 -15 12 -16 12 -10 -3 3 -10 3 -20 -2 -22
-12 -8 -10 27 3 43 8 11 8 13 0 8 -7 -4 -14 0 -18 8 -3 8 0 17 6 21 7 5 8 2 3
-6 -5 -9 -4 -11 3 -6 9 5 9 13 2 26 -7 13 -7 21 2 26 6 4 8 3 5 -3 -4 -6 0
-13 8 -17 8 -3 17 0 21 6 4 7 3 8 -4 4 -8 -5 -10 -1 -5 9 5 13 7 14 14 3 7
-11 11 -10 19 2z"/>
<path d="M1025 2279 c4 -5 2 -15 -4 -22 -7 -10 -4 -13 12 -14 12 0 16 1 9 4
-9 4 -10 9 -2 18 8 9 6 14 -5 19 -10 3 -13 2 -10 -5z"/>
<path d="M847 2224 c-11 -12 12 -43 31 -41 12 1 18 8 17 21 -1 12 -6 19 -11
16 -5 -3 -8 -11 -6 -17 2 -7 -2 -13 -8 -13 -9 0 -14 14 -11 33 1 9 -4 9 -12 1z"/>
<path d="M2987 2343 c-9 -9 -9 -41 1 -46 4 -3 7 8 7 24 0 16 0 29 -1 29 0 0
-4 -3 -7 -7z"/>
<path d="M1210 2010 c0 -299 1 -310 19 -310 11 0 22 6 24 13 4 10 6 10 6 0 1
-7 6 -13 12 -13 5 0 7 5 4 10 -3 6 -1 10 4 10 6 0 11 -4 11 -10 0 -5 5 -10 11
-10 5 0 7 5 4 10 -3 6 -1 10 4 10 6 0 11 -4 11 -10 0 -5 16 -10 36 -10 28 0
35 4 33 18 -1 9 -1 31 0 49 1 25 5 30 19 26 13 -3 18 2 18 16 0 11 -4 17 -8
15 -4 -3 -8 0 -8 5 0 6 -4 11 -10 11 -5 0 -7 -7 -4 -15 5 -12 -5 -15 -61 -15
l-66 0 3 100 3 100 -27 0 c-16 0 -28 4 -28 10 0 5 7 7 15 4 8 -4 15 -1 15 5 0
6 -7 11 -15 11 -24 0 -17 18 8 22 20 3 22 9 28 93 3 50 6 86 7 82 1 -4 12 -3
23 4 16 8 20 8 14 -1 -5 -9 -2 -10 11 -3 17 9 67 9 104 0 11 -3 15 4 14 30 -1
18 2 36 7 39 5 3 9 -3 9 -12 0 -16 1 -16 15 2 13 18 14 17 15 -18 0 -36 8 -44
35 -38 6 1 37 2 71 3 l61 2 2 -43 c1 -34 -1 -42 -11 -36 -10 5 -11 4 0 -7 6
-7 12 -21 12 -31 0 -10 5 -18 10 -18 7 0 10 28 8 78 l-3 77 -85 5 c-67 4 -85
8 -85 20 0 12 19 16 103 18 100 3 102 2 103 -20 1 -13 2 -60 2 -105 2 -81 1
-83 -21 -83 -29 0 -27 -33 2 -38 13 -3 16 0 11 9 -5 8 -4 10 3 5 14 -9 16 -66
3 -66 -5 0 -12 8 -14 18 -4 16 -5 16 -6 0 0 -10 -8 -18 -16 -18 -12 0 -15 -18
-15 -100 l0 -100 -91 0 c-78 0 -90 2 -80 14 10 12 6 15 -18 21 -17 4 -34 6
-37 5 -9 -2 -24 22 -24 38 0 7 5 10 10 7 6 -4 8 -11 5 -16 -7 -10 -3 -11 37
-14 17 -1 25 2 21 10 -2 7 0 16 6 20 6 3 11 11 11 16 0 6 -4 7 -10 4 -6 -4
-10 5 -10 19 0 18 -5 26 -17 25 -11 0 -13 -3 -5 -6 16 -6 15 -24 -2 -57 -11
-22 -15 -24 -20 -11 -10 28 -7 43 12 48 13 4 12 5 -5 6 -13 1 -23 -6 -26 -16
-4 -14 -5 -13 -6 4 0 12 5 24 12 26 7 3 5 6 -5 6 -13 1 -18 -7 -18 -25 0 -14
-4 -23 -10 -19 -5 3 -10 2 -10 -4 0 -5 5 -13 11 -16 6 -4 8 -13 5 -20 -5 -13
13 -25 48 -32 26 -5 34 -13 13 -13 -10 0 -17 -4 -17 -10 0 -5 6 -7 14 -4 10 4
12 -2 9 -23 -5 -27 -5 -27 11 -8 15 19 15 18 16 -19 0 -28 4 -37 13 -33 8 3
14 -1 14 -9 0 -14 -23 -14 -44 -1 -8 5 -13 3 -13 -5 0 -9 -3 -9 -10 2 -9 13
-11 13 -20 0 -6 -10 -10 -11 -10 -2 0 6 -4 12 -10 12 -5 0 -10 -7 -10 -15 0
-12 14 -15 65 -15 37 0 65 4 65 10 0 6 5 10 11 10 5 0 7 -4 4 -10 -3 -5 -1
-10 4 -10 6 0 11 5 11 10 0 6 5 10 11 10 5 0 7 -4 4 -10 -3 -5 -1 -10 4 -10 6
0 11 5 11 10 0 6 9 10 20 10 11 0 20 -4 20 -10 0 -5 5 -10 11 -10 5 0 7 5 4
10 -3 6 -1 10 4 10 6 0 11 -4 11 -10 0 -5 13 -10 30 -10 26 0 30 4 37 38 l7
37 7 -30 c4 -16 7 99 8 258 1 246 -1 287 -14 287 -9 0 -12 6 -9 15 5 13 -27
15 -255 15 l-261 0 0 -310z m220 279 c0 -19 -5 -20 -85 -17 l-85 3 0 -87 c0
-78 -2 -88 -18 -88 -17 0 -18 10 -18 105 l0 105 103 0 c98 0 103 -1 103 -21z
m307 -231 c-2 -13 -4 -5 -4 17 -1 22 1 32 4 23 2 -10 2 -28 0 -40z m-477 -158
l0 -99 57 -3 c44 -2 57 -7 59 -20 2 -16 -7 -18 -75 -18 l-77 0 0 120 c0 109 1
120 18 120 16 0 18 -10 18 -100z m454 -23 l1 -117 -107 0 c-95 0 -106 2 -104
18 2 14 17 18 87 22 l84 5 2 90 c1 50 2 94 2 98 1 5 9 7 18 5 14 -3 16 -19 17
-121z"/>
<path d="M1890 2309 c0 -7 10 -9 25 -7 14 3 25 4 25 2 0 -1 -13 -16 -30 -32
-32 -32 -36 -33 -20 -1 9 16 7 19 -11 19 -15 0 -19 -4 -15 -16 3 -9 6 -70 6
-135 0 -78 4 -118 10 -114 6 3 10 1 10 -6 0 -7 7 -21 17 -31 13 -14 13 -18 2
-19 -8 0 -2 -4 14 -9 15 -5 39 -5 55 0 15 5 21 9 13 9 -11 1 -10 5 3 20 23 25
13 59 -20 67 -23 6 -42 4 -74 -10 -13 -5 -15 8 -16 89 0 75 2 92 12 84 7 -6
11 -16 8 -23 -4 -10 8 -13 46 -13 39 0 50 3 46 13 -3 7 -1 16 4 19 18 11 10
43 -15 63 -30 24 -31 28 -5 28 11 0 20 -4 20 -9 0 -5 7 -4 15 3 12 10 15 10
15 -1 0 -11 2 -11 10 1 9 13 11 13 20 0 5 -9 10 -10 10 -3 0 7 17 11 48 10 39
-2 49 -6 60 -27 20 -37 25 -70 10 -70 -9 0 -8 -3 2 -10 12 -8 13 -11 1 -19
-11 -7 -11 -9 0 -14 11 -4 11 -7 1 -14 -15 -11 -14 -103 1 -103 6 0 8 -3 4 -6
-12 -12 -77 20 -77 38 0 10 -5 18 -11 18 -7 0 -9 -9 -6 -21 3 -12 3 -18 0 -15
-8 7 -43 -33 -43 -50 0 -7 4 -15 10 -19 5 -3 7 -12 4 -19 -3 -9 4 -15 20 -18
41 -8 74 2 79 24 4 14 11 19 21 15 9 -4 16 -2 16 3 0 6 -7 10 -15 10 -8 0 -15
4 -15 10 0 5 7 7 15 4 13 -5 15 13 15 130 0 114 -2 136 -15 136 -8 0 -15 7
-15 15 0 13 -23 15 -145 15 -100 0 -145 -3 -145 -11z m85 -42 c30 -18 30 -45
0 -53 -41 -10 -75 3 -72 28 2 12 12 25 23 29 25 10 26 10 49 -4z m-10 -227 c4
-6 11 -8 16 -5 5 3 6 -1 3 -9 -3 -9 -1 -16 6 -16 6 0 8 -5 5 -11 -4 -6 -13 -8
-20 -5 -8 3 -16 0 -19 -7 -5 -9 -7 -9 -12 0 -3 7 -11 10 -19 7 -7 -3 -16 0
-21 7 -5 8 -3 10 6 4 10 -6 12 -3 8 13 -4 12 -2 20 2 17 5 -3 11 -1 15 5 3 5
10 10 15 10 5 0 12 -5 15 -10z m184 1 c23 -15 21 -41 -3 -52 -28 -13 -89 7
-66 21 13 9 13 10 0 10 -11 1 -10 4 4 15 22 17 44 19 65 6z"/>
<path d="M2079 2273 c-13 -16 -16 -34 -9 -55 1 -5 3 -14 4 -20 2 -14 8 -14 41
-3 16 5 17 5 5 -3 -11 -8 -7 -11 18 -10 23 1 31 5 28 14 -3 7 -1 16 4 19 16
10 11 41 -8 58 -24 22 -65 22 -83 0z m66 -11 c12 -9 16 -42 5 -42 -5 0 -17 -3
-27 -6 -15 -5 -15 -4 -3 5 8 6 10 11 5 11 -6 0 -16 -5 -23 -12 -7 -7 -13 -8
-13 -2 -4 33 -2 40 11 46 20 9 33 9 45 0z"/>
<path d="M1460 2208 c0 -23 3 -29 9 -19 8 12 4 51 -5 51 -2 0 -4 -15 -4 -32z"/>
<path d="M2703 2196 c1 -6 -4 -10 -11 -8 -8 1 -11 -2 -7 -8 5 -8 11 -8 20 0
11 9 14 5 13 -19 -1 -28 -3 -30 -17 -17 -15 14 -17 13 -17 -2 0 -11 9 -18 23
-18 21 -2 23 3 23 40 0 31 -4 43 -14 43 -8 0 -14 -5 -13 -11z"/>
<path d="M2802 2126 c2 -41 0 -72 -5 -69 -4 2 -5 -8 -3 -23 4 -18 -1 -35 -12
-48 -9 -11 -11 -16 -4 -12 6 4 12 2 12 -4 0 -6 -10 -10 -22 -9 -39 3 -72 -1
-64 -8 10 -10 68 -11 88 -1 10 5 16 14 14 21 -1 6 -1 9 1 5 14 -25 20 4 20
101 0 88 -3 111 -14 116 -13 4 -15 -7 -11 -69z"/>
<path d="M200 2150 c0 -13 7 -20 20 -20 13 0 20 7 20 20 0 13 -7 20 -20 20
-13 0 -20 -7 -20 -20z"/>
<path d="M2012 2153 c2 -10 12 -18 23 -18 11 0 21 8 23 18 3 13 -3 17 -23 17
-20 0 -26 -4 -23 -17z"/>
<path d="M2567 2146 c4 -5 0 -7 -9 -4 -8 4 -15 0 -15 -7 0 -11 6 -11 29 1 33
17 34 20 9 20 -11 0 -17 -5 -14 -10z"/>
<path d="M1600 2140 c-24 -8 -23 -8 8 -9 20 -1 31 3 27 9 -3 6 -7 10 -8 9 -1
-1 -13 -5 -27 -9z"/>
<path d="M1904 2139 c-3 -5 7 -9 22 -9 15 0 24 3 20 7 -11 11 -35 12 -42 2z"/>
<path d="M285 2127 c-6 -7 -9 -23 -8 -37 2 -19 0 -17 -8 8 -5 17 -12 32 -15
32 -3 0 -4 -6 -1 -12 2 -7 0 -21 -5 -30 -9 -18 -8 -18 34 -22 6 -1 13 16 14
37 4 41 3 42 -11 24z"/>
<path d="M2074 2122 c3 -16 0 -22 -8 -19 -6 3 -12 -3 -12 -14 0 -25 26 -24 33
1 3 11 12 20 19 20 8 0 14 8 13 18 0 10 -3 12 -6 5 -2 -7 -11 -13 -18 -13 -7
0 -16 6 -19 13 -4 6 -4 2 -2 -11z"/>
<path d="M1383 2104 c-7 -7 -13 -20 -13 -29 0 -9 -5 -13 -11 -9 -7 4 -9 -2 -7
-17 3 -22 7 -23 88 -23 93 1 92 0 62 63 -9 19 -18 29 -20 22 -4 -11 -6 -11
-13 0 -5 9 -10 5 -14 -14 -9 -35 -21 -34 -30 1 -5 16 -9 21 -12 13 -3 -8 -8
-9 -12 -3 -4 6 -11 5 -18 -4z m45 -36 c9 -9 15 -9 24 0 7 7 16 12 22 12 5 0 1
-7 -10 -16 -16 -13 -16 -15 -1 -10 9 3 17 2 17 -3 0 -5 -9 -11 -20 -14 -24 -6
-60 2 -60 14 0 5 8 6 18 3 14 -5 14 -3 -2 10 -11 9 -15 16 -10 16 6 0 15 -5
22 -12z"/>
<path d="M1564 2105 c-7 -18 3 -35 21 -35 21 0 28 19 15 35 -16 19 -29 19 -36
0z"/>
<path d="M310 2084 c0 -17 6 -24 19 -24 22 0 35 26 18 37 -24 15 -37 11 -37
-13z"/>
<path d="M2570 2100 c-6 -4 7 -7 30 -7 43 0 48 7 7 11 -14 2 -31 0 -37 -4z"/>
<path d="M385 2092 c3 -3 0 -11 -6 -19 -9 -10 -7 -13 10 -13 14 0 21 6 21 18
0 10 -7 19 -15 19 -8 0 -13 -3 -10 -5z"/>
<path d="M486 2081 c-3 -5 5 -8 19 -8 14 0 22 3 19 8 -3 5 -11 9 -19 9 -8 0
-16 -4 -19 -9z"/>
<path d="M202 2038 c2 -13 10 -23 18 -23 8 0 16 10 18 23 3 17 -2 22 -18 22
-16 0 -21 -5 -18 -22z"/>
<path d="M2354 2045 c-4 -9 -2 -21 4 -27 15 -15 44 -1 40 19 -4 23 -36 29 -44
8z"/>
<path d="M455 2029 c-10 -15 3 -25 16 -12 7 7 7 13 1 17 -6 3 -14 1 -17 -5z"/>
<path d="M1290 2008 c0 -36 10 -32 14 6 2 14 -1 26 -5 26 -5 0 -9 -14 -9 -32z"/>
<path d="M1552 2010 c0 -19 2 -27 5 -17 2 9 2 25 0 35 -3 9 -5 1 -5 -18z"/>
<path d="M1400 2005 c-9 -11 -10 -19 -2 -27 11 -11 32 -3 32 14 0 7 -6 6 -15
-2 -18 -15 -20 1 -3 18 7 7 9 12 6 12 -3 0 -11 -7 -18 -15z"/>
<path d="M819 2008 c0 -2 -2 -15 -4 -30 -4 -28 -3 -28 56 -28 59 0 59 0 59 30
0 30 -1 30 -55 30 -30 0 -55 -1 -56 -2z"/>
<path d="M989 2005 c-10 -44 -4 -50 54 -53 l57 -3 0 31 c0 30 0 30 -55 30 -30
0 -55 -2 -56 -5z"/>
<path d="M255 1990 c-9 -15 4 -30 26 -30 12 0 19 7 19 20 0 21 -33 29 -45 10z"/>
<path d="M310 1980 c0 -16 5 -21 23 -18 12 2 22 10 22 18 0 8 -10 16 -22 18
-18 3 -23 -2 -23 -18z"/>
<path d="M1367 1993 c-11 -10 -8 -51 3 -58 6 -4 10 8 10 29 0 37 -2 41 -13 29z"/>
<path d="M1450 1985 c0 -8 7 -15 16 -15 14 0 14 3 4 15 -7 8 -14 15 -16 15 -2
0 -4 -7 -4 -15z"/>
<path d="M1500 1965 c0 -22 4 -34 10 -30 6 3 10 17 10 30 0 13 -4 27 -10 30
-6 4 -10 -8 -10 -30z"/>
<path d="M2715 1991 c-7 -12 12 -24 25 -16 11 7 4 25 -10 25 -5 0 -11 -4 -15
-9z"/>
<path d="M1870 1923 c-1 -32 -2 -88 -3 -126 -1 -48 2 -67 11 -67 6 0 12 -7 12
-15 0 -8 9 -15 20 -15 11 0 20 5 20 11 0 6 -6 9 -14 6 -8 -3 -18 5 -25 20 -15
32 -10 37 15 17 10 -8 13 -13 7 -9 -7 3 -13 2 -13 -3 0 -12 43 -21 75 -14 14
2 25 9 24 16 -1 6 1 19 5 29 20 44 -35 78 -87 52 -16 -8 -32 -15 -33 -15 -6 0
1 34 9 48 5 7 3 12 -5 12 -9 0 -9 3 2 10 13 9 13 11 0 20 -12 8 -12 10 -1 10
9 0 10 4 4 13 -6 6 -9 22 -8 35 1 12 -2 22 -7 22 -4 0 -8 -26 -8 -57z m112
-109 c11 -4 16 -14 14 -28 -2 -18 -10 -21 -46 -21 -36 0 -44 4 -46 20 -3 21
31 46 51 39 6 -2 18 -7 27 -10z"/>
<path d="M2189 1971 c9 -6 10 -11 2 -15 -15 -10 -14 -76 2 -76 8 0 7 -4 -3
-10 -12 -8 -13 -11 -1 -19 11 -7 11 -9 0 -13 -9 -3 -8 -6 4 -11 15 -6 17 2 17
73 0 70 -2 80 -17 80 -14 0 -15 -2 -4 -9z"/>
<path d="M180 1935 c0 -8 5 -15 10 -15 6 0 10 7 10 15 0 8 -4 15 -10 15 -5 0
-10 -7 -10 -15z"/>
<path d="M210 1935 c0 -8 5 -15 10 -15 6 0 10 7 10 15 0 8 -4 15 -10 15 -5 0
-10 -7 -10 -15z"/>
<path d="M240 1935 c0 -8 5 -15 10 -15 6 0 10 7 10 15 0 8 -4 15 -10 15 -5 0
-10 -7 -10 -15z"/>
<path d="M350 1935 c0 -8 5 -15 10 -15 6 0 10 7 10 15 0 8 -4 15 -10 15 -5 0
-10 -7 -10 -15z"/>
<path d="M380 1935 c0 -8 5 -15 10 -15 6 0 10 6 10 13 0 8 4 7 10 -3 8 -12 11
-13 19 -1 7 11 9 11 14 0 4 -12 7 -11 16 1 6 8 11 10 11 5 0 -15 40 -16 40 -2
0 7 4 6 10 -3 9 -13 11 -13 20 0 6 10 10 11 10 3 0 -7 5 -13 10 -13 6 0 10 7
10 15 0 12 -17 15 -95 15 -78 0 -95 -3 -95 -15z"/>
<path d="M580 1935 c0 -8 5 -15 10 -15 6 0 10 7 10 15 0 8 -4 15 -10 15 -5 0
-10 -7 -10 -15z"/>
<path d="M2040 1908 c0 -5 11 -8 25 -8 14 0 25 3 25 8 0 4 -11 7 -25 7 -14 0
-25 -3 -25 -7z"/>
<path d="M819 1895 c-1 0 -3 -12 -5 -27 -3 -28 -2 -28 57 -28 58 0 59 0 59 29
0 28 -1 29 -55 28 -30 -1 -56 -1 -56 -2z"/>
<path d="M989 1895 c0 0 -2 -12 -4 -27 -4 -28 -3 -28 56 -28 58 0 59 0 59 29
0 28 -1 29 -55 28 -30 -1 -55 -1 -56 -2z"/>
<path d="M2014 1875 c-4 -9 -2 -21 4 -27 15 -15 44 -1 40 19 -4 23 -36 29 -44
8z"/>
<path d="M2462 1841 c0 -51 8 -72 26 -69 19 3 32 17 32 36 0 9 -7 11 -19 7
-11 -3 -22 -1 -26 5 -3 5 -2 10 4 10 6 0 8 7 5 15 -4 8 -1 15 5 15 6 0 11 -8
11 -17 0 -15 2 -16 10 -3 15 23 12 26 -19 26 -24 0 -29 -4 -29 -25z"/>
<path d="M2090 1827 c-28 -14 -32 -43 -10 -71 9 -11 10 -16 3 -12 -7 4 -13 3
-13 -2 0 -12 43 -21 75 -14 14 2 25 9 24 16 -3 25 14 57 27 52 8 -3 14 -1 14
4 0 6 -8 10 -18 10 -10 0 -22 4 -27 9 -19 17 -50 20 -75 8z m54 -13 c8 -3 12
-12 9 -20 -3 -8 1 -14 8 -14 10 0 10 -3 1 -12 -8 -8 -15 -8 -27 2 -11 9 -19 9
-28 2 -8 -7 -18 -7 -27 -2 -12 8 -12 10 -1 10 7 0 11 6 8 14 -8 21 25 32 57
20z"/>
<path d="M813 1753 c2 -27 5 -28 60 -31 l57 -3 0 31 0 30 -59 0 c-59 0 -60 0
-58 -27z"/>
<path d="M984 1753 c3 -26 6 -28 60 -31 l56 -3 0 31 0 30 -59 0 c-59 0 -60 0
-57 -27z"/>
<path d="M2192 1773 c4 -18 -25 -61 -38 -56 -8 3 -14 0 -14 -6 0 -6 9 -11 20
-11 11 0 20 7 20 15 0 8 7 15 15 15 9 0 15 9 15 25 0 14 -4 25 -10 25 -5 0 -9
-3 -8 -7z"/>
<path d="M2584 1765 c-3 -8 -3 -19 1 -25 9 -15 35 -12 41 5 4 8 13 15 22 15
23 0 11 6 -26 13 -24 5 -34 3 -38 -8z"/>
<path d="M336 1744 c-9 -9 -16 -32 -16 -56 0 -45 13 -44 16 0 1 15 2 33 3 40
0 8 10 12 23 10 16 -2 24 -12 28 -33 5 -27 6 -28 12 -8 4 14 -1 29 -14 42 -23
25 -32 26 -52 5z"/>
<path d="M2460 1748 c1 -15 24 -48 34 -48 4 0 5 4 2 9 -9 14 26 23 38 10 8 -9
7 -10 -6 -6 -10 4 -18 2 -18 -3 0 -6 23 -10 50 -10 28 0 50 4 50 9 0 4 -15 7
-32 5 -18 -2 -28 0 -22 4 12 8 15 42 3 42 -4 0 -10 -8 -12 -17 -4 -17 -5 -17
-6 0 -1 10 -9 17 -21 17 -11 0 -19 -6 -17 -12 1 -7 -5 -13 -13 -13 -8 0 -14 6
-12 13 1 6 -2 12 -8 12 -5 0 -10 -6 -10 -12z"/>
<path d="M2030 1723 c0 -7 -7 -10 -15 -7 -8 4 -15 1 -15 -5 0 -7 20 -11 50
-11 28 0 50 4 50 8 0 4 -12 8 -27 7 -16 0 -31 4 -35 10 -5 6 -8 6 -8 -2z"/>
<path d="M202 1698 c2 -13 10 -23 18 -23 8 0 16 10 18 23 3 17 -2 22 -18 22
-16 0 -21 -5 -18 -22z"/>
<path d="M423 1699 c-1 -10 6 -24 14 -31 15 -12 15 -11 5 9 -7 13 -8 24 -3 27
5 4 11 1 13 -6 3 -8 6 -7 10 3 4 11 -1 15 -16 15 -14 0 -23 -7 -23 -17z"/>
<path d="M390 1540 c0 -46 3 -81 6 -77 3 3 6 38 6 77 0 39 -3 74 -6 77 -3 4
-6 -31 -6 -77z"/>
<path d="M1610 1565 c0 -8 -7 -15 -15 -15 -13 0 -15 -38 -15 -280 0 -242 2
-280 15 -280 8 0 15 -7 15 -15 0 -12 15 -15 75 -15 72 0 81 4 76 33 -1 4 8 2
19 -5 11 -7 20 -16 20 -20 0 -14 158 -9 163 5 4 10 6 10 6 0 1 -7 6 -13 12
-13 5 0 7 5 4 10 -3 6 -1 10 6 10 8 0 8 4 -1 15 -9 10 -9 15 -1 15 6 0 11 -5
11 -11 0 -6 6 -9 13 -6 8 3 14 -1 14 -9 0 -8 -6 -13 -14 -10 -7 3 -13 1 -13
-4 0 -6 23 -10 50 -10 28 0 50 5 50 10 0 6 5 10 11 10 5 0 7 -4 4 -10 -4 -6 8
-10 29 -10 25 0 36 4 36 15 0 8 7 15 15 15 13 0 15 38 15 280 0 242 -2 280
-15 280 -8 0 -15 7 -15 15 0 13 -38 15 -285 15 -247 0 -285 -2 -285 -15z m560
-270 l0 -275 -79 0 c-70 0 -79 2 -77 18 2 13 15 18 59 20 l57 3 0 237 0 237
-255 -3 c-251 -3 -255 -2 -255 18 0 20 5 20 275 20 l275 0 0 -275z m-560 225
c0 -11 -4 -20 -9 -20 -6 0 -9 9 -8 20 1 11 5 20 9 20 4 0 8 -9 8 -20z m510
-235 l0 -215 -60 0 c-57 0 -60 -1 -60 -25 0 -14 -5 -25 -11 -25 -5 0 -7 5 -4
10 3 6 1 10 -4 10 -6 0 -11 -6 -11 -12 0 -9 -4 -8 -10 2 -8 12 -10 9 -10 -12
0 -27 -2 -28 -51 -28 -31 0 -48 -4 -44 -10 3 -5 1 -10 -4 -10 -6 0 -11 17 -12
38 0 20 -3 31 -6 25 -2 -7 -9 -13 -14 -13 -6 0 -7 5 -4 10 3 6 1 10 -4 10 -6
0 -11 -4 -11 -10 0 -5 -5 -10 -10 -10 -6 0 -9 3 -9 8 6 39 1 42 -86 42 l-85 0
0 215 0 215 255 0 255 0 0 -215z m-350 -245 c0 -18 -7 -20 -75 -20 -68 0 -75
2 -75 20 0 18 7 20 75 20 68 0 75 -2 75 -20z"/>
<path d="M1763 1433 c26 -2 68 -2 95 0 26 2 4 3 -48 3 -52 0 -74 -1 -47 -3z"/>
<path d="M1950 1411 c0 -25 -5 -30 -27 -34 -20 -3 -18 -4 9 -4 20 1 34 5 32 9
-3 4 10 8 29 8 32 0 34 -2 32 -33 0 -18 -5 -38 -9 -45 -4 -7 -2 -12 3 -12 6 0
11 4 11 9 0 6 12 16 27 23 31 15 38 43 17 72 -13 19 -14 18 -14 -22 0 -55 -20
-55 -21 1 0 23 -3 36 -6 30 -7 -19 -73 -17 -73 2 0 10 16 15 58 18 l57 3 -62
2 -63 2 0 -29z"/>
<path d="M1686 1413 c-11 -11 -6 -23 9 -23 8 0 15 4 15 9 0 13 -16 22 -24 14z"/>
<path d="M1883 1409 c-6 -6 -36 -9 -71 -7 l-60 3 -4 -37 c-3 -31 0 -38 14 -38
13 0 18 8 18 30 0 29 1 30 51 30 35 0 48 -3 43 -12 -4 -6 -3 -8 3 -5 6 4 13
16 16 27 6 23 5 24 -10 9z"/>
<path d="M1625 1349 c-10 -15 1 -23 20 -15 9 3 13 10 10 16 -8 13 -22 13 -30
-1z"/>
<path d="M1680 1346 c0 -9 7 -16 16 -16 17 0 14 22 -4 28 -7 2 -12 -3 -12 -12z"/>
<path d="M1895 1321 c-3 -5 -1 -12 4 -15 5 -4 13 -1 17 5 4 8 9 7 15 -2 7 -11
9 -10 9 4 0 18 -34 24 -45 8z"/>
<path d="M1620 1285 c0 -8 6 -15 14 -15 8 0 16 7 20 15 4 10 -1 15 -14 15 -11
0 -20 -7 -20 -15z"/>
<path d="M1716 1268 c3 -4 12 -8 21 -8 11 0 14 -8 11 -27 l-4 -28 74 3 c67 3
73 2 70 -15 -3 -15 -14 -19 -67 -21 -45 -2 -67 1 -72 10 -7 10 -9 9 -9 -4 0
-25 138 -31 151 -5 13 23 59 23 59 -1 0 -14 8 -17 48 -14 78 5 92 10 92 35 0
12 -7 31 -15 41 -14 18 -15 17 -15 -22 0 -40 -13 -56 -23 -29 -4 10 -6 10 -6
0 -1 -8 -15 -13 -35 -13 -26 0 -35 5 -39 21 -5 19 -2 21 39 17 40 -3 44 -1 44
19 0 23 -1 23 -122 21 l-123 -2 110 -3 c158 -5 160 -23 2 -23 l-127 0 0 24 c0
20 -6 25 -34 28 -19 2 -32 0 -30 -4z"/>
<path d="M1810 1274 c31 -6 264 -10 240 -3 -14 4 -77 7 -140 7 -63 0 -108 -2
-100 -4z"/>
<path d="M1626 1243 c-11 -11 -6 -23 8 -23 8 0 17 4 20 9 7 10 -19 23 -28 14z"/>
<path d="M1686 1243 c-11 -11 -6 -23 9 -23 8 0 15 4 15 9 0 13 -16 22 -24 14z"/>
<path d="M1718 1228 c-2 -16 -9 -23 -23 -22 -15 1 -21 -6 -23 -22 -2 -31 15
-31 21 -1 l4 22 2 -22 c0 -13 8 -23 16 -23 11 0 15 12 15 45 0 48 -6 60 -12
23z"/>
<path d="M1625 1179 c-10 -15 1 -23 20 -15 9 3 13 10 10 16 -8 13 -22 13 -30
-1z"/>
<path d="M1869 1125 c-8 -34 -1 -49 24 -56 15 -4 27 -3 27 2 0 5 -12 9 -26 9
-15 0 -23 4 -18 11 3 6 15 9 25 6 11 -3 17 -1 13 4 -3 5 -14 9 -25 9 -11 0
-17 5 -14 10 3 6 4 10 1 10 -3 0 -6 -2 -7 -5z"/>
<path d="M1869 1047 c5 -5 19 -7 32 -5 20 3 19 5 -9 9 -20 3 -29 2 -23 -4z"/>
<path d="M2350 1564 c0 -10 -6 -14 -15 -10 -13 5 -15 -30 -14 -282 1 -158 5
-269 9 -247 6 35 7 36 9 10 3 -66 10 -75 57 -75 24 0 44 5 44 10 0 6 5 10 11
10 5 0 7 -4 4 -10 -3 -5 -2 -10 4 -10 5 0 12 6 14 13 4 10 6 9 6 0 1 -7 6 -13
12 -13 5 0 7 5 4 10 -3 6 -1 10 4 10 6 0 11 -4 11 -10 0 -15 127 -13 133 3 4
9 6 9 6 0 1 -20 131 -18 131 2 0 8 5 15 11 15 6 0 9 -7 5 -15 -4 -12 3 -15 29
-15 24 0 35 5 35 15 0 8 7 15 15 15 13 0 15 38 15 280 0 242 -2 280 -15 280
-8 0 -15 7 -15 15 0 13 -35 15 -255 15 -228 0 -255 -2 -255 -16z m300 -30 c0
-18 -4 -35 -8 -38 -5 -3 -6 8 -4 25 4 24 1 29 -16 29 -11 0 -23 -6 -26 -12 -5
-10 -7 -10 -12 0 -8 16 -32 15 -50 -3 -9 -8 -11 -15 -5 -15 6 0 11 -5 11 -11
0 -5 -5 -7 -12 -3 -6 4 -8 3 -4 -4 4 -7 -1 -10 -14 -9 -27 2 -26 31 3 50 l22
16 -25 -6 c-14 -4 -28 -11 -32 -17 -5 -8 -8 -7 -8 2 0 6 -9 12 -20 12 -11 0
-20 -4 -20 -10 0 -5 -4 -10 -10 -10 -5 0 -10 8 -10 18 0 15 12 17 120 18 l120
0 0 -32z m150 24 c0 -4 -6 -8 -14 -8 -8 0 -17 -6 -20 -12 -5 -10 -7 -10 -12 0
-8 16 -32 15 -50 -3 -9 -8 -11 -15 -5 -15 6 0 11 -5 11 -11 0 -5 -5 -7 -12 -3
-7 4 -8 3 -4 -4 8 -14 4 -15 -18 -6 -21 8 -20 31 2 43 16 10 16 10 -1 11 -10
0 -16 4 -13 8 6 11 136 11 136 0z m-407 -35 c-1 -12 5 -24 15 -28 28 -11 143
-18 141 -9 -4 25 2 54 12 54 7 0 9 -11 6 -29 -5 -25 -3 -28 18 -28 14 0 22 3
19 8 -8 13 5 49 18 49 6 0 8 -12 5 -29 -6 -28 -5 -29 36 -26 23 1 45 3 50 4 4
0 7 12 7 26 0 14 5 25 10 25 6 0 9 -14 8 -31 -2 -24 -8 -31 -30 -36 -25 -5
-28 -10 -28 -46 0 -27 7 -48 20 -62 19 -20 18 -71 -2 -59 -5 3 -6 14 -3 24 9
29 -24 40 -120 40 -100 0 -125 -10 -126 -48 0 -27 0 -27 -11 -4 -9 18 -7 26
10 45 15 16 22 36 22 64 0 34 -4 41 -22 46 -13 2 -30 7 -38 11 -13 5 -15 -15
-16 -156 0 -102 4 -166 11 -170 7 -5 6 -8 -1 -8 -7 0 -11 -19 -10 -50 0 -27 4
-50 8 -50 4 0 5 -7 2 -15 -4 -8 -15 -15 -25 -15 -17 0 -18 14 -21 255 -2 140
-1 260 1 266 6 19 36 4 34 -18z m67 -5 c0 -19 2 -20 11 -8 9 12 10 12 7 1 -3
-8 -8 -16 -14 -18 -17 -5 -35 13 -28 30 9 24 24 21 24 -5z m340 7 c0 -8 -7
-15 -15 -15 -9 0 -12 6 -9 15 4 8 10 15 15 15 5 0 9 -7 9 -15z m77 -5 c1 -11
-2 -20 -8 -20 -5 0 -9 9 -9 20 0 11 4 20 8 20 4 0 8 -9 9 -20z m-29 -39 c3 -8
0 -11 -7 -7 -7 5 -11 -1 -11 -13 0 -13 7 -21 18 -21 16 -1 16 -1 0 -14 -20
-15 -26 -106 -8 -106 6 0 10 -5 10 -11 0 -5 -4 -7 -10 -4 -6 4 -10 -5 -10 -20
0 -15 4 -24 10 -20 6 3 10 1 10 -4 0 -6 -4 -11 -10 -11 -5 0 -10 -9 -10 -20 0
-11 5 -20 10 -20 6 0 10 -5 10 -11 0 -5 -4 -7 -10 -4 -6 4 -10 -5 -10 -19 0
-14 5 -26 10 -26 6 0 10 -5 10 -11 0 -5 -4 -7 -10 -4 -5 3 -10 -3 -10 -14 0
-13 7 -21 18 -21 16 -1 16 -1 0 -14 -19 -14 -24 -46 -8 -46 6 0 10 -5 10 -10
0 -13 -32 -9 -42 5 -4 6 -8 0 -8 -12 0 -14 -6 -23 -15 -23 -8 0 -12 6 -9 13 3
8 -3 13 -16 13 -11 0 -20 -6 -20 -13 0 -23 -20 -14 -21 10 0 12 -3 16 -6 10
-2 -7 -14 -13 -26 -13 -18 0 -19 -2 -7 -10 13 -8 12 -10 -2 -10 -24 0 -23 17
2 30 11 6 20 15 20 21 0 6 -7 3 -16 -5 -8 -9 -20 -14 -25 -11 -5 4 -9 0 -9 -7
0 -9 -3 -9 -10 2 -7 11 -10 7 -10 -17 0 -40 -17 -52 -26 -18 -3 13 -10 22 -15
19 -5 -3 -7 -10 -4 -15 4 -5 -5 -9 -19 -9 -15 0 -26 7 -29 18 -2 9 -3 5 -2
-10 3 -44 -12 -33 -17 11 -3 39 -3 39 26 34 24 -5 28 -3 23 10 -3 9 -1 18 6
21 7 3 3 4 -8 3 -11 -2 -19 -8 -18 -15 2 -6 -4 -9 -13 -5 -13 5 -13 7 -2 14 7
5 -12 7 -47 6 -33 -1 -61 1 -62 6 -2 4 -1 6 0 5 2 -2 11 3 19 10 11 9 23 10
42 3 23 -9 26 -8 32 13 6 24 31 32 31 10 0 -7 -5 -10 -10 -7 -5 3 -8 0 -5 -7
2 -7 12 -14 22 -16 14 -2 17 2 11 23 -4 16 -2 22 4 18 7 -4 8 1 4 11 -5 13 -8
14 -11 5 -4 -11 -6 -11 -13 0 -6 10 -9 10 -9 2 0 -10 -6 -10 -25 -1 -18 8 -31
8 -49 0 -14 -6 -26 -8 -29 -4 -2 4 -2 1 -1 -5 2 -7 -2 -13 -8 -13 -6 0 -8 -3
-5 -6 4 -4 13 -1 22 6 10 8 15 9 15 1 0 -10 -5 -13 -32 -15 -7 -1 -13 17 -15
47 l-3 47 46 0 c38 0 45 3 40 16 -3 9 -6 20 -6 25 0 5 -7 9 -15 9 -21 0 -19
-28 3 -33 9 -2 2 -4 -15 -4 -18 0 -33 5 -33 11 0 7 -3 6 -8 -1 -5 -7 -9 44
-11 114 -1 70 0 125 3 123 2 -3 6 -44 7 -93 l3 -87 58 0 c47 0 58 3 58 16 0
12 -3 14 -13 6 -7 -6 -22 -9 -32 -7 -11 2 -23 4 -27 4 -11 2 4 41 16 42 6 1
51 2 99 3 95 1 120 -9 92 -38 -19 -19 -29 -20 -55 -6 -16 8 -18 8 -14 -5 5
-11 21 -15 59 -15 62 0 65 5 65 112 0 37 5 70 10 73 6 4 8 11 4 16 -4 6 14 9
47 7 34 -2 54 -8 57 -17z m30 -16 c0 -14 -4 -25 -9 -25 -5 0 -9 11 -9 25 0 14
4 25 9 25 5 0 9 -11 9 -25z m-420 -41 c-2 -39 -15 -54 -24 -30 -8 21 3 66 17
66 5 0 9 -16 7 -36z m260 -13 c1 -43 0 -45 -13 -27 -19 25 -20 73 -2 73 10 0
14 -15 15 -46z m159 -31 c0 -27 -4 -50 -8 -50 -5 0 -9 23 -9 50 0 28 4 50 9
50 4 0 8 -22 8 -50z m1 -85 c0 -14 -4 -25 -9 -25 -5 0 -9 11 -9 25 0 14 4 25
9 25 5 0 9 -11 9 -25z m-1 -85 c0 -27 -4 -50 -8 -50 -5 0 -9 23 -9 50 0 28 4
50 9 50 4 0 8 -22 8 -50z m1 -85 c0 -14 -4 -25 -9 -25 -5 0 -9 11 -9 25 0 14
4 25 9 25 5 0 9 -11 9 -25z m-368 6 c0 -14 -18 -23 -30 -16 -6 4 -8 11 -5 16
8 12 35 12 35 0z m366 -81 c-4 -58 -16 -62 -16 -7 0 26 4 47 9 47 6 0 9 -18 7
-40z m-412 4 c3 -8 15 -14 26 -14 11 0 20 -5 20 -11 0 -6 -7 -9 -15 -5 -10 4
-15 -1 -16 -17 -1 -21 -1 -21 -9 3 l-7 25 -11 -25 c-11 -25 -11 -25 -11 -2 -1
13 -5 20 -11 17 -6 -4 -8 -10 -5 -15 3 -5 0 -12 -6 -16 -8 -5 -8 -9 1 -14 7
-5 3 -7 -12 -7 -14 0 -25 5 -25 12 0 7 6 11 14 8 9 -3 13 3 13 21 0 19 5 26
20 26 11 0 20 4 20 9 0 5 -9 7 -20 4 -11 -3 -20 -1 -20 3 0 15 48 13 54 -2z
m46 4 c0 -4 -9 -8 -20 -8 -11 0 -20 4 -20 8 0 4 9 8 20 8 11 0 20 -4 20 -8z"/>
<path d="M2480 1427 c0 -39 3 -46 19 -44 11 0 17 5 15 9 -3 4 0 8 7 8 7 0 9 3
6 6 -4 4 -13 1 -21 -6 -13 -10 -15 -7 -14 24 1 20 -2 39 -5 43 -4 3 -7 -14 -7
-40z"/>
<path d="M2659 1443 c-1 -16 0 -35 1 -43 1 -11 -4 -10 -21 5 -15 12 -19 14
-11 3 10 -13 10 -17 0 -21 -7 -2 -1 -4 15 -4 25 0 27 2 27 43 0 48 -9 61 -11
17z"/>
<path d="M2585 1440 c-2 -3 9 -6 25 -6 17 0 27 2 25 5 -8 7 -45 9 -50 1z"/>
<path d="M2739 1394 c-1 -44 0 -89 1 -101 1 -12 -4 -32 -10 -44 -8 -15 -9 -19
-1 -15 6 4 11 2 11 -3 0 -6 -6 -11 -14 -11 -8 0 -17 -7 -20 -16 -5 -14 -4 -15
9 -4 8 7 15 10 15 6 0 -3 9 3 20 14 17 17 20 33 19 124 0 78 -4 108 -15 117
-12 10 -14 0 -15 -67z"/>
<path d="M2448 1273 c18 -2 45 -2 60 0 15 2 0 4 -33 4 -33 0 -45 -2 -27 -4z"/>
<path d="M2538 1263 c-22 -25 -27 -45 -16 -66 11 -21 28 -13 28 14 0 14 7 19
25 19 18 0 25 -5 25 -19 0 -11 5 -23 12 -27 7 -4 8 -3 4 4 -4 7 -2 12 3 12 17
0 13 38 -6 60 -21 25 -55 26 -75 3z"/>
<path d="M2648 1273 c18 -2 45 -2 60 0 15 2 0 4 -33 4 -33 0 -45 -2 -27 -4z"/>
<path d="M2668 1251 c11 -7 11 -9 -2 -14 -25 -10 -19 -27 10 -27 20 0 25 4 20
16 -3 9 -6 20 -6 25 0 5 -8 9 -17 9 -14 0 -15 -2 -5 -9z"/>
<path d="M2757 1186 c4 -18 3 -19 -7 -6 -9 12 -11 12 -8 1 7 -24 26 -24 31 1
l4 23 2 -22 c0 -13 5 -23 11 -23 5 0 9 10 8 23 -1 16 -8 23 -24 23 -16 0 -20
-5 -17 -20z"/>
<path d="M2634 1165 c4 -34 11 -40 14 -10 1 13 -2 27 -7 30 -6 3 -8 -6 -7 -20z"/>
<path d="M2694 1139 c-10 -17 23 -46 37 -32 7 7 9 19 6 27 -7 18 -33 21 -43 5z"/>
<path d="M2750 1098 c0 -5 11 -8 25 -8 14 0 25 3 25 8 0 4 -11 7 -25 7 -14 0
-25 -3 -25 -7z"/>
<path d="M2745 1075 c11 -8 25 -13 33 -10 7 3 10 0 6 -6 -3 -6 -18 -8 -33 -5
-21 5 -23 4 -8 -4 22 -14 57 -4 57 17 0 10 -6 13 -16 9 -8 -3 -25 -1 -37 5
-21 10 -22 10 -2 -6z"/>
<path d="M321 1499 c-1 -28 2 -48 7 -45 8 5 8 83 0 91 -3 3 -6 -18 -7 -46z"/>
<path d="M424 1535 c-4 -9 -2 -21 4 -27 15 -15 44 -1 40 19 -4 23 -36 29 -44
8z"/>
<path d="M480 1489 c0 -5 -4 -8 -9 -5 -5 4 -7 -3 -4 -14 6 -21 -20 -29 -32
-10 -4 6 1 7 12 4 15 -6 15 -4 -2 9 -18 14 -20 14 -23 0 -2 -8 1 -20 7 -26 15
-15 41 -17 41 -4 0 8 3 8 8 2 4 -5 16 -10 27 -11 16 -1 21 6 23 29 2 17 -1 27
-5 23 -4 -4 -8 -13 -8 -19 0 -7 -8 -13 -19 -15 -16 -3 -18 0 -12 22 3 14 4 26
1 26 -3 0 -5 -5 -5 -11z"/>
<path d="M200 1470 c0 -13 7 -20 20 -20 13 0 20 7 20 20 0 13 -7 20 -20 20
-13 0 -20 -7 -20 -20z"/>
<path d="M390 1334 c0 -83 -4 -115 -15 -130 -15 -19 -15 -19 -30 0 -8 10 -12
23 -9 27 3 5 0 9 -5 9 -16 0 -13 -26 5 -44 20 -21 29 -20 52 4 15 17 18 34 15
126 -2 59 -5 110 -8 112 -3 3 -5 -44 -5 -104z"/>
<path d="M877 1433 c-4 -3 -7 -80 -7 -170 l0 -163 60 0 c43 0 59 -4 57 -12 -1
-7 5 -13 13 -13 8 0 16 6 16 13 1 6 2 19 3 27 1 9 11 15 26 15 20 0 25 -5 25
-24 0 -29 18 -44 26 -22 5 12 20 16 61 16 51 0 54 1 42 17 -10 11 -10 14 -1 9
8 -5 12 -1 12 11 -1 16 -3 15 -19 -4 -26 -31 -91 -33 -91 -3 0 17 7 20 45 20
25 0 45 4 45 8 0 5 -20 8 -45 7 -25 -1 -48 2 -51 6 -3 5 18 9 45 9 29 0 51 5
51 11 0 5 5 7 10 4 6 -3 10 -1 10 6 0 8 15 10 49 7 49 -5 49 -5 40 20 -11 27
-9 30 23 46 24 12 39 66 19 66 -6 0 -11 11 -11 25 0 23 -3 25 -48 25 -26 0
-53 5 -60 12 -9 9 -12 3 -12 -30 l0 -42 40 0 c22 0 40 -5 40 -11 0 -6 -15 -9
-37 -7 -21 1 -38 -2 -38 -7 0 -13 78 -6 86 7 4 6 4 20 1 31 -3 12 -7 16 -10 9
-2 -6 -19 -12 -38 -12 -27 0 -34 4 -34 19 0 16 7 19 50 18 l50 -2 0 -47 c0
-52 3 -49 -70 -51 l-35 0 33 -4 c17 -2 32 -9 32 -15 0 -6 -15 -8 -35 -6 -21 2
-34 0 -34 -7 1 -5 1 -17 0 -25 -1 -13 -3 -13 -10 -1 -5 8 -8 23 -6 33 2 10 1
18 -3 18 -4 0 -13 4 -21 9 -12 8 -12 12 2 26 12 11 17 32 16 68 0 29 -3 46 -6
40 -7 -19 -73 -17 -73 1 0 11 15 16 53 19 l52 3 -57 2 c-58 2 -58 2 -58 -27 0
-25 -5 -30 -27 -34 -20 -3 -18 -4 9 -4 20 1 34 5 32 9 -3 4 12 8 33 8 28 0 34
-3 23 -10 -8 -5 -10 -10 -3 -10 6 0 10 -11 8 -25 -2 -26 -15 -48 -15 -27 0 17
-27 15 -33 -2 -4 -10 -1 -13 9 -9 9 3 14 -2 14 -16 0 -12 -4 -21 -10 -21 -5 0
-10 3 -10 8 0 4 -22 5 -50 4 -27 -2 -48 -7 -45 -12 2 -4 17 -6 32 -4 75 10
132 -20 117 -60 -8 -22 -26 -20 -23 2 4 42 3 42 -115 42 -120 0 -133 -4 -128
-45 2 -18 1 -18 -10 2 -12 24 2 53 26 53 7 0 10 24 8 76 -4 89 -17 90 -17 2 0
-46 -4 -63 -15 -66 -13 -5 -13 -3 -1 11 7 10 9 17 4 17 -5 0 -9 9 -10 20 -1
11 4 20 10 20 7 0 6 4 -3 10 -13 9 -13 11 0 20 13 8 13 10 1 10 -12 0 -12 3
-3 12 16 16 15 28 -3 28 -11 0 -15 -20 -18 -97 l-3 -98 0 108 c1 59 1 107 0
107 0 0 -4 -3 -7 -7z m213 -214 c0 -15 4 -19 16 -15 9 3 20 6 25 6 6 0 8 4 4
9 -3 5 0 13 6 16 7 5 9 -1 7 -16 -3 -23 -6 -24 -98 -25 -111 0 -120 2 -120 27
0 17 8 19 80 19 75 0 80 -1 80 -21z m195 11 c4 -6 -8 -10 -30 -10 -22 0 -34 4
-30 10 3 6 17 10 30 10 13 0 27 -4 30 -10z m-390 -40 c-4 -6 13 -10 45 -10 28
0 49 -4 46 -8 -3 -5 -25 -7 -50 -6 -26 1 -46 -2 -46 -7 0 -5 23 -9 51 -9 42 0
52 3 56 20 4 16 14 20 43 20 25 0 40 -5 44 -16 10 -25 6 -41 -5 -21 -19 33
-89 8 -89 -32 0 -14 2 -14 11 -1 7 10 9 11 7 2 -2 -8 -7 -13 -11 -13 -4 1 -27
1 -52 1 -33 0 -45 4 -45 15 0 8 -4 15 -10 15 -5 0 -10 14 -10 30 0 17 5 30 11
30 5 0 7 -4 4 -10z"/>
<path d="M916 1430 c11 -4 45 -5 75 0 l54 8 -75 0 c-50 1 -68 -2 -54 -8z"/>
<path d="M252 1403 c2 -10 14 -20 27 -21 18 -3 22 0 18 12 -4 9 -1 16 5 16 6
0 8 3 4 7 -4 5 -14 -1 -22 -11 -12 -17 -14 -18 -14 -3 0 9 -5 17 -11 17 -6 0
-9 -8 -7 -17z"/>
<path d="M420 1405 c0 -9 8 -19 18 -22 9 -4 21 -11 25 -17 6 -7 7 -4 3 7 -3 9
-1 17 4 17 6 0 10 7 10 16 0 9 -6 14 -12 11 -7 -2 -12 -10 -10 -17 1 -6 -3
-10 -10 -7 -7 2 -12 10 -10 16 1 6 -2 11 -8 11 -5 0 -10 -7 -10 -15z"/>
<path d="M510 1406 c0 -8 -7 -16 -15 -20 -8 -3 -15 -11 -15 -18 0 -9 3 -9 8
-2 4 6 15 13 25 17 18 7 24 37 7 37 -5 0 -10 -6 -10 -14z"/>
<path d="M1031 1411 c-1 -10 -11 -12 -41 -8 l-40 5 0 -69 c0 -60 2 -69 18 -69
16 0 18 8 18 60 -1 56 0 60 22 60 16 0 21 -4 16 -12 -5 -10 -4 -10 5 -2 7 7
11 20 8 30 -3 11 -5 13 -6 5z"/>
<path d="M321 1358 c-1 -28 2 -49 6 -45 9 10 12 97 3 97 -4 0 -8 -23 -9 -52z"/>
<path d="M203 1364 c-8 -21 13 -42 28 -27 13 13 5 43 -11 43 -6 0 -13 -7 -17
-16z"/>
<path d="M1000 1319 c0 -5 5 -7 10 -4 6 3 10 1 10 -4 0 -6 4 -11 10 -11 5 0 7
7 4 15 -7 17 -34 21 -34 4z"/>
<path d="M253 1304 c-6 -17 14 -36 32 -31 6 2 11 13 13 25 3 17 -2 22 -18 22
-11 0 -23 -7 -27 -16z"/>
<path d="M1295 1180 c4 -6 -13 -11 -42 -12 -44 -1 -45 -2 -10 -5 20 -2 35 -8
32 -13 -3 -5 0 -12 6 -16 8 -4 9 -3 5 5 -4 6 0 14 8 17 18 7 22 34 5 34 -5 0
-7 -4 -4 -10z"/>
<path d="M994 1025 c-4 -9 -2 -21 4 -27 15 -15 44 -1 40 19 -4 23 -36 29 -44
8z"/>
<path d="M137 983 c-4 -3 -7 -17 -7 -30 0 -22 4 -23 60 -23 60 0 60 0 60 30 0
30 -1 30 -53 30 -30 0 -57 -3 -60 -7z"/>
<path d="M307 983 c-4 -3 -7 -17 -7 -30 0 -22 4 -23 60 -23 60 0 60 0 60 30 0
30 -1 30 -53 30 -30 0 -57 -3 -60 -7z"/>
<path d="M477 983 c-4 -3 -7 -17 -7 -30 0 -22 4 -23 60 -23 60 0 60 0 60 30 0
30 -1 30 -53 30 -30 0 -57 -3 -60 -7z"/>
<path d="M1055 943 c4 -21 9 -40 11 -42 7 -8 12 3 19 42 7 34 5 37 -15 37 -20
0 -22 -3 -15 -37z"/>
<path d="M920 915 c0 -12 14 -15 65 -15 51 0 65 3 65 15 0 12 -14 15 -65 15
-51 0 -65 -3 -65 -15z"/>
<path d="M1090 915 c0 -8 5 -15 10 -15 6 0 10 7 10 15 0 8 -4 15 -10 15 -5 0
-10 -7 -10 -15z"/>
<path d="M2630 833 c0 -7 -7 -13 -15 -13 -13 0 -15 -29 -15 -200 0 -171 2
-200 15 -200 8 0 15 -7 15 -15 0 -12 19 -15 115 -15 96 0 115 3 115 15 0 8 7
15 15 15 13 0 15 29 15 200 0 171 -2 200 -15 200 -8 0 -15 6 -15 13 0 9 -30
12 -115 12 -85 0 -115 -3 -115 -12z m36 -12 c11 9 14 9 14 -1 0 -10 3 -10 15
0 12 10 15 10 15 -1 0 -11 3 -11 11 1 9 12 12 13 16 1 5 -11 7 -11 14 0 8 12
11 11 19 -1 5 -8 10 -10 10 -4 0 16 64 11 72 -6 4 -8 7 -28 7 -43 1 -16 5 -26
11 -22 6 3 10 1 10 -4 0 -6 -6 -11 -12 -11 -9 0 -9 -3 -2 -8 14 -9 14 -95 0
-104 -8 -5 -7 -8 2 -8 17 0 15 -17 -4 -24 -13 -5 -14 1 -8 39 9 62 -1 90 -40
114 -82 51 -186 6 -186 -81 0 -21 -4 -38 -9 -38 -4 0 -8 23 -8 50 0 28 4 50 8
50 5 0 9 18 9 39 0 44 11 83 18 63 3 -10 7 -10 18 -1z m145 -94 c19 -12 35
-32 37 -42 3 -16 1 -18 -9 -7 -7 6 -26 12 -41 12 -32 0 -37 14 -10 29 9 6 12
11 5 11 -6 0 -14 -4 -18 -9 -6 -11 -40 -9 -67 3 -28 12 -11 26 31 26 23 0 51
-9 72 -23z m-110 -7 c28 -15 23 -30 -9 -30 -15 0 -33 -5 -40 -12 -19 -19 -15
12 5 34 19 21 19 21 44 8z m55 -35 c1 -8 -4 -15 -11 -15 -7 0 -12 8 -10 18 2
9 4 19 4 21 2 9 15 -10 17 -24z m-42 -14 c3 -5 -1 -14 -8 -21 -8 -6 -18 -24
-21 -40 -3 -16 -14 -31 -23 -35 -9 -3 -14 -3 -10 0 3 3 2 23 -3 43 -7 30 -5
39 8 50 20 14 49 16 57 3z m119 -3 c14 -11 15 -19 7 -47 -5 -19 -7 -38 -4 -42
3 -5 -2 -6 -11 -3 -9 4 -19 19 -22 35 -3 16 -12 34 -19 40 -30 25 17 41 49 17z
m-61 -25 c8 -10 19 -30 26 -45 10 -24 9 -28 -9 -33 -11 -4 -26 -2 -33 4 -9 7
-16 7 -23 0 -6 -6 -20 -8 -32 -4 -18 5 -19 9 -9 33 15 35 38 62 53 62 7 0 18
-8 27 -17z m-134 -53 c-2 -6 -8 -6 -18 0 -13 9 -13 11 0 20 15 10 25 0 18 -20z
m7 -26 c19 -12 23 -22 19 -41 -6 -21 -4 -23 18 -18 16 4 29 1 37 -9 17 -21 40
-20 48 0 4 12 14 14 36 10 27 -5 29 -4 23 18 -4 18 0 28 20 41 14 9 29 14 32
10 4 -3 0 -10 -8 -15 -10 -7 -11 -10 -2 -10 6 0 12 -5 12 -11 0 -5 -4 -8 -9
-4 -6 3 -11 -19 -13 -52 l-3 -58 -112 -3 -113 -3 0 61 c0 38 -4 59 -10 55 -5
-3 -10 -1 -10 4 0 6 6 11 13 12 10 0 10 2 0 6 -13 5 -18 23 -8 23 3 0 17 -7
30 -16z m159 -25 c-2 -4 -12 -5 -22 -2 -9 3 -14 3 -10 -2 7 -7 -14 -35 -27
-35 -13 0 -34 28 -27 35 4 5 -1 5 -10 2 -10 -3 -20 -2 -22 2 -3 4 24 8 59 8
35 0 62 -4 59 -8z"/>
<path d="M930 740 l-35 -7 32 -2 c17 0 35 4 38 9 3 6 5 9 3 9 -2 -1 -19 -5
-38 -9z"/>
<path d="M1780 739 c0 -5 4 -9 9 -9 5 0 9 -11 9 -25 0 -16 -5 -22 -12 -18 -6
4 -5 -1 3 -10 11 -14 11 -17 0 -17 -11 0 -11 -2 1 -10 13 -9 13 -11 0 -20 -8
-5 -10 -10 -4 -10 6 0 11 -22 11 -55 0 -30 -4 -52 -9 -49 -4 3 -8 0 -8 -5 0
-6 6 -11 13 -11 9 0 8 -3 -2 -9 -11 -7 -11 -9 0 -14 12 -5 12 -7 0 -15 -11 -8
-11 -10 0 -14 12 -4 12 -8 1 -21 -8 -9 -12 -35 -10 -69 l3 -53 48 -3 c35 -2
47 0 42 8 -4 7 -19 10 -34 7 -21 -5 -29 -1 -39 21 -15 31 -16 72 -2 72 6 0 10
9 10 20 0 11 9 25 19 32 13 8 17 16 11 23 -6 8 -4 19 5 31 14 18 14 17 15 -13
l0 -33 90 0 90 0 0 56 c0 62 20 68 21 6 0 -30 2 -33 9 -17 10 23 11 21 16 -18
2 -22 0 -26 -10 -18 -7 6 -16 8 -19 4 -4 -3 2 -12 13 -20 11 -8 20 -21 20 -29
0 -9 7 -22 15 -30 13 -14 15 -14 15 0 0 8 -4 17 -9 21 -6 3 -9 23 -7 44 2 22
-5 54 -15 75 -9 20 -13 34 -8 30 5 -3 9 -1 9 3 0 5 13 13 28 19 26 10 28 15
28 61 -1 33 -7 55 -19 67 -17 18 -18 16 -14 -40 5 -72 0 -92 -19 -67 -12 17
-13 16 -7 -4 5 -20 1 -23 -26 -23 -17 0 -31 -4 -31 -9 0 -6 -21 -12 -47 -14
l-48 -3 48 -2 c56 -2 63 -19 10 -25 l-38 -4 36 -1 c32 -2 37 -5 37 -27 0 -24
-3 -25 -69 -25 l-69 0 0 115 c0 101 2 115 17 115 22 0 14 6 -19 14 l-28 6 0
-87 c0 -53 -4 -83 -9 -74 -10 16 -18 4 -16 -26 2 -13 -3 -19 -10 -17 -15 6
-13 38 6 61 12 16 12 17 -2 6 -14 -11 -16 -8 -16 27 0 22 4 40 9 40 5 0 6 -4
3 -10 -3 -5 -2 -10 4 -10 6 0 9 14 7 30 -2 17 1 30 7 30 5 0 2 9 -7 19 -19 21
-56 34 -56 20z"/>
<path d="M1676 725 c-2 -7 4 -15 17 -19 27 -7 28 -5 6 16 -14 13 -19 14 -23 3z"/>
<path d="M1945 730 c4 -6 1 -10 -5 -10 -6 0 -8 -5 -4 -11 4 -8 9 -7 14 2 9 14
50 21 50 8 0 -4 -10 -10 -22 -12 -14 -3 -10 -4 10 -4 33 1 37 5 24 22 -9 13
-75 17 -67 5z"/>
<path d="M2090 730 c0 -5 -15 -10 -32 -10 -24 0 -29 -3 -18 -9 8 -6 18 -7 22
-5 4 3 8 0 8 -5 0 -6 7 -11 15 -11 9 0 15 9 15 25 0 14 -2 25 -5 25 -3 0 -5
-4 -5 -10z"/>
<path d="M2462 713 c4 -41 58 -26 58 16 0 4 -13 8 -30 8 -25 0 -29 -4 -28 -24z"/>
<path d="M1620 720 c0 -5 6 -10 14 -10 8 0 18 5 21 10 3 6 -3 10 -14 10 -12 0
-21 -4 -21 -10z"/>
<path d="M903 713 c15 -2 39 -2 55 0 15 2 2 4 -28 4 -30 0 -43 -2 -27 -4z"/>
<path d="M765 691 c3 -5 50 -10 105 -10 55 0 102 5 105 10 4 5 -39 9 -105 9
-66 0 -109 -4 -105 -9z"/>
<path d="M994 685 c-4 -9 -2 -21 4 -27 15 -15 44 -1 40 19 -4 23 -36 29 -44 8z"/>
<path d="M1100 693 c0 -5 49 -7 110 -5 76 2 110 0 110 -8 0 -6 -4 -8 -10 -5
-5 3 -10 1 -10 -4 0 -6 5 -11 10 -11 6 0 10 -3 10 -7 0 -5 -42 -7 -94 -5 -74
3 -95 7 -98 18 -3 13 -6 13 -23 -1 -16 -13 -17 -16 -3 -11 14 4 17 -1 16 -30
-1 -27 -3 -32 -10 -19 -8 12 -13 13 -23 5 -15 -13 -35 -6 -35 12 0 6 9 8 20 5
11 -3 20 -1 20 4 0 5 -6 9 -14 9 -8 0 -17 6 -19 13 -3 7 -6 4 -6 -6 -1 -10 -4
-16 -8 -14 -5 3 -8 -5 -8 -18 0 -19 5 -22 33 -21 l32 1 1 -60 c1 -33 1 -66 0
-72 -1 -7 3 -13 9 -13 5 0 9 5 7 12 -2 15 66 12 71 -3 2 -5 11 -9 20 -8 12 0
13 2 3 6 -10 4 -10 7 -1 13 14 9 60 1 60 -11 0 -5 5 -9 11 -9 5 0 7 5 4 10 -6
9 8 14 28 11 4 -1 15 5 23 13 17 17 21 176 4 176 -5 0 -10 9 -10 20 0 19 -7
20 -115 20 -63 0 -115 -3 -115 -7z m237 -155 c-2 -24 -4 -7 -4 37 0 44 2 63 4
43 2 -21 2 -57 0 -80z m-31 94 c13 -8 12 -92 -1 -130 -9 -28 -37 -25 -41 5 -3
17 2 23 24 26 15 2 -17 5 -70 6 -54 0 -98 3 -98 5 0 2 -3 13 -6 23 -5 15 -4
15 5 3 7 -10 11 -11 11 -2 0 9 25 12 90 12 50 0 90 3 90 8 0 4 -40 6 -90 4
-59 -2 -90 0 -90 7 0 7 35 12 93 13 l92 2 -92 3 c-51 2 -93 8 -93 13 0 12 159
13 176 2z m-148 -124 c-4 -27 -28 -36 -29 -11 0 16 -1 16 -9 -2 -8 -18 -9 -18
-9 5 -1 21 4 26 25 28 21 2 25 -2 22 -20z m92 12 c0 -5 0 -13 1 -17 0 -5 -14
-11 -30 -14 -32 -7 -58 11 -46 31 8 13 75 13 75 0z"/>
<path d="M2203 687 c-22 -27 -24 -37 -9 -37 9 0 13 6 10 14 -3 9 2 16 13 18
12 2 14 6 7 11 -7 4 -16 1 -21 -6z"/>
<path d="M2306 684 c-18 -18 -21 -50 -6 -59 6 -4 7 -11 4 -17 -5 -7 2 -9 19
-6 18 4 24 1 20 -9 -3 -7 -15 -13 -28 -13 -19 0 -22 -5 -20 -32 2 -18 4 -34 5
-35 1 -2 3 -9 4 -15 0 -7 7 -14 14 -14 26 -3 26 -5 3 -18 -14 -8 -30 -13 -35
-12 -6 2 -8 1 -3 -1 4 -3 7 -15 7 -28 0 -13 5 -27 10 -30 6 -4 8 -10 5 -15 -7
-12 43 -19 74 -10 14 5 20 9 12 9 -11 1 -11 4 0 17 21 25 19 43 -7 63 -28 22
-31 33 -6 29 10 -2 16 2 14 11 -1 7 2 19 8 26 7 9 8 15 1 19 -6 4 -8 13 -4 21
3 9 -1 15 -9 15 -8 0 -13 -12 -13 -32 0 -25 -4 -33 -17 -32 -11 1 -15 -4 -11
-15 3 -9 -3 -5 -13 9 -26 35 -26 50 2 62 13 6 24 15 24 20 0 5 7 8 16 6 21 -4
31 67 13 88 -15 19 -64 18 -83 -2z m77 -35 c-3 -10 -12 -20 -20 -24 -24 -9
-55 5 -49 21 3 8 0 14 -7 14 -7 0 -1 6 13 13 31 16 69 1 63 -24z m-11 -193
c21 -16 13 -53 -13 -61 -45 -15 -77 41 -36 62 29 14 30 14 49 -1z"/>
<path d="M260 670 c-146 -3 -258 -7 -250 -9 8 -2 32 -3 53 -3 33 0 38 -2 34
-19 -3 -10 -2 -17 2 -14 4 2 8 -2 8 -9 0 -8 -7 -12 -14 -9 -8 3 -12 12 -9 19
5 14 -17 19 -54 14 -33 -4 -27 -16 6 -12 27 3 35 1 32 -9 -2 -7 -11 -14 -19
-17 -11 -3 -11 -2 1 7 12 8 11 10 -8 8 -12 0 -22 -5 -22 -9 0 -11 43 -27 50
-19 7 8 130 8 130 0 0 -17 36 -1 46 19 10 22 11 22 25 6 11 -15 11 -16 0 -10
-9 6 -12 5 -9 -4 2 -7 12 -14 22 -16 12 -2 16 2 12 13 -20 50 -18 61 9 61 23
0 26 -4 21 -23 -4 -14 -1 -25 7 -28 7 -3 4 -6 -7 -6 -14 -1 -17 4 -13 19 3 13
0 20 -8 20 -11 0 -12 -6 -4 -29 12 -33 44 -36 44 -5 0 15 8 20 39 22 21 2 43
-1 49 -7 18 -18 28 -12 21 13 -5 20 -2 24 18 24 27 0 54 -43 36 -55 -6 -3 -8
-1 -4 5 3 6 2 13 -3 16 -5 4 -11 1 -14 -6 -2 -7 -3 -5 -2 5 2 9 -3 17 -10 17
-9 0 -11 -8 -7 -22 4 -19 2 -20 -19 -14 -41 13 -90 15 -86 3 4 -13 47 -29 47
-18 0 4 25 6 56 4 34 -2 62 1 70 8 9 7 14 8 14 1 0 -6 -10 -14 -21 -17 -13 -4
-17 -10 -11 -14 13 -8 11 -43 -3 -53 -6 -5 -5 -8 3 -8 8 0 10 -8 6 -25 -5 -20
-3 -24 10 -19 26 10 18 -10 -8 -22 -21 -10 -24 -9 -21 8 2 10 0 16 -6 13 -5
-4 -9 1 -9 9 0 9 -7 16 -16 16 -12 0 -15 -6 -10 -25 5 -19 3 -23 -9 -19 -8 3
-13 9 -10 13 2 4 -2 8 -10 8 -12 0 -12 -4 2 -20 11 -13 12 -17 4 -12 -8 5 -30
9 -48 11 -26 1 -33 -2 -29 -12 4 -10 -4 -14 -32 -14 -20 0 -42 4 -47 8 -15 10
-12 38 3 35 7 -2 12 2 12 7 0 6 -7 10 -15 10 -8 0 -15 7 -15 15 0 20 -20 19
-35 -2 -12 -16 -40 -9 -30 8 4 5 2 9 -4 9 -5 0 -9 -19 -8 -42 2 -40 4 -43 32
-44 72 -3 72 -3 37 -25 -37 -24 -47 -53 -38 -108 5 -36 4 -40 -23 -51 -48 -20
-74 -54 -69 -92 3 -18 8 -40 12 -49 5 -12 1 -18 -18 -23 -31 -8 -33 -21 -6
-36 28 -15 25 -28 -8 -33 -19 -3 -17 -4 10 -4 20 1 36 3 35 6 -1 4 3 6 8 6 6
0 9 -3 7 -8 -1 -4 15 -6 35 -6 31 2 33 3 11 6 -53 8 -19 42 38 38 56 -3 75
-30 27 -38 -20 -3 -18 -4 9 -4 20 1 36 3 35 6 -1 4 3 6 8 6 6 0 9 -3 7 -7 -1
-5 15 -7 35 -7 31 2 33 3 11 6 -53 8 -19 42 38 38 56 -3 75 -30 27 -38 -20 -3
-18 -4 9 -4 20 1 36 3 35 6 -1 4 3 6 8 6 6 0 9 -3 7 -7 -1 -5 15 -7 35 -7 31
2 33 3 11 6 -51 8 -25 37 32 37 57 0 83 -29 33 -37 -20 -3 -18 -4 9 -4 20 1
36 3 35 6 -1 4 3 6 8 6 6 0 9 -3 7 -7 -1 -5 15 -7 35 -7 31 2 33 3 11 6 -51 8
-25 37 32 37 57 0 83 -29 33 -37 -20 -3 -18 -4 9 -4 20 1 36 3 35 6 -1 4 3 6
8 6 6 0 9 -3 7 -7 -1 -5 15 -7 35 -7 31 2 33 3 11 6 -51 8 -25 37 32 37 57 0
83 -29 33 -37 -20 -3 -18 -4 9 -4 20 1 36 3 35 6 -1 4 3 7 8 8 6 0 9 -3 8 -8
-2 -5 14 -8 35 -8 30 2 32 3 10 6 -51 8 -25 37 32 37 57 0 83 -29 33 -37 -20
-3 -18 -4 9 -4 20 1 36 4 35 8 -1 4 3 7 8 7 6 0 9 -4 8 -9 -2 -5 14 -8 35 -8
30 2 32 3 10 6 -51 8 -25 37 32 37 57 0 83 -29 33 -37 -20 -3 -18 -4 9 -4 20
1 36 3 35 6 -1 4 3 6 8 6 5 0 9 -3 8 -8 -2 -4 14 -6 35 -6 30 2 32 3 10 6 -51
8 -25 37 32 37 57 0 83 -29 33 -37 -20 -3 -18 -4 9 -4 20 1 36 3 35 6 -1 4 3
6 8 6 5 0 9 -2 8 -6 -1 -3 15 -5 35 -6 27 0 29 1 10 4 -51 8 -25 37 32 37 57
0 83 -29 33 -37 -20 -3 -18 -4 9 -4 20 1 36 3 35 6 -1 4 3 6 8 6 6 0 9 -2 8
-6 -1 -3 15 -5 35 -6 27 0 29 1 10 4 -51 8 -25 37 32 37 57 0 83 -29 33 -37
-20 -3 -18 -4 9 -4 20 1 36 3 35 6 -1 4 2 6 8 6 5 0 9 -2 8 -6 -1 -3 15 -5 35
-6 27 0 29 1 10 4 -51 8 -25 37 32 37 57 0 83 -29 33 -37 -23 -3 -21 -4 9 -6
21 0 37 2 35 6 -1 5 3 8 8 8 5 0 9 -2 8 -6 -1 -3 15 -5 35 -6 27 0 29 1 10 4
-51 8 -25 37 32 37 57 0 83 -29 33 -37 -23 -3 -21 -4 10 -6 20 0 36 2 35 6 -2
5 2 8 7 8 6 0 9 -2 8 -6 -1 -3 15 -5 35 -6 27 0 29 1 10 4 -51 8 -25 37 32 37
57 0 83 -29 33 -37 -23 -3 -21 -4 10 -6 20 0 36 2 35 7 -2 4 2 7 7 7 6 0 9 -2
8 -6 -1 -3 15 -5 35 -6 27 0 29 1 10 4 -51 8 -25 37 32 37 57 0 83 -29 33 -37
-23 -3 -21 -4 10 -6 20 0 36 3 35 8 -2 5 2 9 7 9 6 0 9 -3 8 -7 -1 -4 15 -7
35 -8 28 0 30 1 9 4 -32 5 -31 26 2 31 13 2 29 -5 41 -20 11 -13 19 -18 20
-12 0 5 -6 17 -12 26 -40 48 -107 62 -158 31 -27 -15 -30 -15 -54 0 -32 22
-80 22 -116 0 -27 -15 -30 -15 -54 0 -32 22 -80 22 -116 0 -27 -15 -30 -15
-54 0 -32 21 -78 22 -117 1 -28 -14 -33 -14 -54 0 -31 21 -89 20 -120 0 -23
-15 -27 -15 -50 0 -31 21 -89 21 -120 0 -23 -15 -27 -15 -50 0 -31 21 -89 21
-120 0 -23 -15 -27 -15 -50 0 -31 20 -89 21 -120 0 -21 -14 -26 -14 -54 0 -39
21 -85 20 -117 -1 -24 -15 -27 -15 -54 0 -35 21 -84 22 -115 1 -21 -14 -26
-14 -54 0 -39 21 -90 20 -120 0 -22 -16 -25 -16 -51 0 -36 20 -89 21 -119 0
-21 -15 -25 -15 -57 2 -30 16 -33 23 -29 49 12 78 12 78 -37 110 l-47 30 6 51
c5 47 3 52 -27 77 -17 15 -36 27 -40 27 -5 0 -7 7 -4 15 4 8 10 15 16 15 5 0
7 -4 4 -9 -3 -4 14 -8 37 -9 23 0 54 0 70 -1 l27 -1 0 -105 c0 -60 4 -105 10
-105 5 0 10 -26 12 -57 2 -40 7 -57 16 -55 6 1 12 -3 12 -9 0 -8 5 -8 15 1 12
10 15 10 15 0 0 -8 4 -9 13 -3 14 11 86 11 105 0 7 -5 12 -3 12 5 0 9 3 9 10
-2 9 -13 11 -13 20 0 8 12 10 12 10 1 0 -9 4 -10 13 -4 14 11 86 11 105 0 7
-5 12 -3 12 5 0 9 3 9 10 -2 9 -13 11 -13 20 0 7 11 10 11 10 2 0 -8 5 -10 13
-5 17 11 90 12 105 0 8 -6 12 -5 12 4 0 11 2 11 10 -1 9 -13 11 -13 20 0 7 11
10 11 10 2 0 -8 5 -10 13 -5 17 11 90 12 105 0 8 -6 12 -5 12 4 0 11 2 11 10
-1 9 -13 11 -13 20 0 8 12 10 12 10 1 0 -9 4 -10 13 -4 14 12 87 11 105 0 7
-5 12 -3 12 5 0 9 3 9 10 -2 9 -13 11 -13 20 0 8 12 10 12 10 1 0 -9 4 -10 13
-4 14 12 87 11 105 0 7 -5 12 -3 12 5 0 9 3 9 10 -2 9 -13 11 -13 20 0 8 12
10 12 10 1 0 -9 4 -10 13 -4 14 12 87 11 105 0 7 -5 12 -3 12 5 0 9 3 9 10 -2
9 -13 11 -13 20 0 8 12 10 12 10 1 0 -9 4 -10 13 -4 14 12 87 11 105 0 7 -5
12 -3 12 5 0 9 3 9 10 -2 9 -13 11 -13 20 0 8 12 10 12 10 1 0 -9 4 -10 13 -4
14 12 87 11 105 0 7 -5 12 -3 12 5 0 9 3 9 10 -2 9 -13 11 -13 20 0 8 12 10
12 10 1 0 -9 4 -10 13 -4 14 12 87 11 105 0 7 -5 12 -3 12 5 0 9 3 9 10 -2 9
-13 11 -13 20 0 7 11 10 11 10 2 0 -8 5 -10 13 -5 18 11 90 11 105 0 8 -6 12
-5 12 4 0 11 2 11 10 -1 9 -13 11 -13 20 0 7 11 10 11 10 2 0 -8 5 -10 13 -5
6 4 29 8 49 8 20 0 40 4 44 8 4 4 -450 6 -1009 5 l-1017 -3 0 274 c0 233 -2
272 -14 268 -9 -4 -16 1 -18 11 -3 16 -24 17 -268 12z m-97 -29 c3 -13 12 -16
41 -13 21 2 36 0 36 -6 0 -17 -21 -25 -32 -14 -8 8 -17 8 -31 1 -14 -8 -18 -8
-13 0 4 6 3 11 -3 11 -5 0 -12 -6 -15 -12 -4 -7 -4 -3 -2 10 3 14 -1 22 -9 22
-8 0 -12 -8 -9 -22 4 -21 4 -22 -5 -3 -16 33 -12 43 13 43 14 0 26 -7 29 -17z
m110 -1 c4 -16 2 -16 -23 -3 -20 10 -35 11 -54 3 -20 -7 -26 -6 -26 4 0 9 15
13 49 13 38 0 50 -4 54 -17z m170 0 c4 -16 2 -16 -24 -3 -25 13 -33 13 -58 0
-26 -13 -28 -13 -24 3 4 13 16 17 53 17 37 0 49 -4 53 -17z m-173 -173 c0 -5
-6 -5 -12 -1 -8 5 -7 0 2 -11 13 -17 13 -18 -1 -13 -9 4 -22 1 -28 -5 -8 -8
-14 -8 -22 0 -14 14 -2 36 16 29 7 -2 16 5 19 17 5 18 8 20 16 7 5 -8 10 -19
10 -23z m104 -66 c3 -5 0 -13 -7 -18 -16 -13 -55 -14 -62 -2 -4 5 -12 9 -18 9
-7 0 -4 -5 6 -11 27 -16 20 -26 -20 -32 -44 -8 -51 -3 -29 18 9 9 16 14 16 11
0 -3 9 3 20 14 21 21 84 28 94 11z m63 -57 c-6 -7 -77 9 -77 17 0 4 8 12 18
18 13 7 23 5 39 -11 13 -12 22 -23 20 -24z m-91 1 c1 -9 -6 -15 -17 -15 -22 0
-24 11 -7 28 13 13 21 9 24 -13z m-42 -14 c3 -5 0 -14 -8 -20 -8 -7 -17 -23
-20 -36 -9 -36 -33 -31 -39 8 -4 22 0 36 11 45 18 14 48 16 56 3z m117 -1 c10
-6 19 -15 19 -21 0 -6 -5 -7 -12 -3 -8 5 -9 2 -5 -9 7 -19 -1 -47 -14 -47 -5
0 -16 17 -26 38 -9 20 -19 40 -21 45 -6 11 36 9 59 -3z m-58 -27 c27 -31 25
-56 -5 -67 -40 -14 -82 7 -72 37 15 49 48 62 77 30z m-69 -72 c7 -10 -19 -24
-48 -27 -21 -2 -49 20 -39 30 10 9 81 7 87 -3z m161 3 c14 -6 13 -8 -5 -21
-14 -10 -19 -21 -15 -34 5 -14 1 -19 -14 -19 -18 0 -19 3 -11 26 7 17 7 23 0
19 -6 -4 -19 -1 -28 7 -15 12 -16 11 -3 -5 8 -9 11 -20 8 -23 -8 -8 -106 -8
-114 0 -10 10 30 36 48 32 9 -2 27 3 40 10 26 14 67 18 94 8z m-235 -43 c0 -8
-61 -22 -68 -16 -2 2 4 12 14 23 13 16 22 19 36 11 10 -5 18 -14 18 -18z m283
5 c26 -20 21 -25 -20 -19 -46 7 -52 11 -33 23 20 13 32 12 53 -4z m-233 -27
c0 -5 -9 -9 -19 -9 -14 0 -18 5 -14 20 4 16 8 18 19 9 8 -6 14 -15 14 -20z
m-50 -14 c0 -8 -4 -15 -9 -15 -5 0 -14 -13 -20 -30 -9 -27 -29 -41 -32 -22 -6
34 -4 68 5 74 20 14 56 9 56 -7z m170 0 c0 -7 -4 -15 -9 -17 -4 -1 -12 -14
-15 -28 -6 -21 -4 -20 13 8 12 19 29 32 41 32 12 0 28 -13 40 -32 11 -18 20
-28 20 -22 0 6 -9 23 -21 38 -18 23 -19 27 -4 32 25 10 68 -13 61 -32 -3 -9
-6 -24 -6 -34 0 -28 -83 -41 -158 -25 -33 7 -86 -3 -142 -28 -36 -16 -62 -16
-84 -1 -18 12 -17 13 8 20 15 3 41 4 59 0 27 -5 29 -4 16 7 -17 13 -15 33 9
60 23 26 50 21 72 -15 11 -18 20 -28 20 -22 0 6 -9 23 -20 36 -10 14 -17 28
-14 30 2 3 29 6 59 6 39 0 55 -3 55 -13z m-15 -91 c14 -6 14 -8 -2 -19 -27
-19 -101 -5 -87 16 6 10 64 12 89 3z m169 -3 c8 -13 -16 -29 -39 -27 -31 4
-56 17 -49 27 7 12 81 12 88 0z m166 -16 c-14 -17 -57 -16 -72 3 -11 13 -9 15
14 10 15 -3 32 -1 39 3 18 11 32 0 19 -16z m179 16 c14 -3 -25 -29 -42 -29
-25 2 -49 17 -43 27 4 5 66 7 85 2z m161 -16 c-14 -17 -57 -16 -72 3 -11 13
-9 15 14 10 15 -3 32 -1 39 3 18 11 32 0 19 -16z m170 -1 c-13 -15 -49 -15
-69 0 -11 9 -9 12 10 16 13 4 34 4 47 2 17 -3 20 -7 12 -18z m334 17 c15 -1
16 -4 7 -15 -14 -16 -49 -18 -68 -3 -18 13 -8 24 19 21 13 -1 31 -3 42 -3z
m185 0 c14 -3 -25 -29 -42 -29 -25 2 -49 17 -43 27 4 5 66 7 85 2z m315 -3
c24 2 27 0 17 -12 -14 -16 -49 -18 -68 -3 -16 11 -6 30 10 20 6 -4 25 -6 41
-5z m170 0 c24 2 27 0 17 -12 -14 -16 -49 -18 -68 -3 -16 11 -6 30 10 20 6 -4
25 -6 41 -5z m170 0 c24 2 27 0 17 -12 -14 -16 -49 -18 -68 -3 -16 11 -6 30
10 20 6 -4 25 -6 41 -5z m170 0 c24 2 27 0 17 -12 -14 -16 -49 -18 -68 -3 -16
11 -6 30 10 20 6 -4 25 -6 41 -5z m-1174 -13 c-6 -7 -21 -12 -35 -12 -14 0
-29 5 -35 12 -9 11 -2 13 35 13 37 0 44 -2 35 -13z m510 0 c-6 -7 -21 -12 -35
-12 -14 0 -29 5 -35 12 -9 11 -2 13 35 13 37 0 44 -2 35 -13z"/>
<path d="M2070 669 c0 -5 5 -7 12 -3 8 5 9 2 5 -9 -3 -10 -2 -17 3 -17 6 0 10
9 10 20 0 11 -7 20 -15 20 -8 0 -15 -5 -15 -11z"/>
<path d="M792 610 c-11 -14 -17 -39 -18 -75 -1 -45 3 -59 22 -79 46 -45 175
-22 174 31 -1 16 -2 16 -12 -2 -6 -11 -18 -25 -26 -31 -19 -14 -112 -8 -129 9
-19 18 -23 110 -6 133 10 14 28 19 71 20 68 2 88 -12 90 -63 2 -51 12 -55 12
-5 0 62 -25 82 -100 82 -48 0 -64 -4 -78 -20z"/>
<path d="M2197 582 c-25 -5 -17 -36 11 -40 16 -3 22 2 22 17 0 23 -8 29 -33
23z"/>
<path d="M19 549 c21 -23 54 -22 59 1 2 12 -7 16 -38 17 -40 2 -40 2 -21 -18z"/>
<path d="M190 556 c1 -34 45 -46 56 -14 3 10 10 18 15 18 6 0 6 -7 0 -19 -9
-15 -7 -18 12 -17 12 0 25 6 29 11 5 7 8 6 8 0 0 -6 11 -11 24 -11 14 0 22 5
19 12 -2 6 -13 10 -23 7 -12 -3 -20 1 -23 14 -4 16 -5 16 -6 1 0 -10 -9 -18
-18 -18 -15 0 -16 2 -4 9 12 8 10 11 -10 14 -43 8 -79 5 -79 -7z"/>
<path d="M320 558 c0 -5 9 -7 19 -3 13 4 21 0 25 -12 6 -18 46 -27 46 -10 0 4
4 6 9 3 5 -4 7 2 4 12 -3 15 -14 19 -54 19 -27 0 -49 -4 -49 -9z"/>
<path d="M2337 543 c3 -7 9 -13 14 -13 5 0 9 6 9 13 0 8 -6 14 -14 14 -8 0
-12 -6 -9 -14z"/>
<path d="M1909 518 c-11 -20 -10 -22 3 -10 13 10 17 10 21 0 3 -7 6 -3 6 10 1
12 -3 22 -9 22 -5 0 -15 -10 -21 -22z"/>
<path d="M994 515 c-4 -9 -2 -21 4 -27 15 -15 44 -1 40 19 -4 23 -36 29 -44 8z"/>
<path d="M2243 514 c-7 -20 11 -38 31 -31 9 4 12 13 9 26 -6 25 -31 28 -40 5z"/>
<path d="M339 498 c-1 -7 -3 -23 -4 -36 -1 -12 3 -25 9 -29 6 -3 8 -3 4 2 -4
4 -2 15 5 23 9 13 9 14 0 8 -15 -8 -17 3 -3 24 7 12 10 11 17 -5 9 -23 43 -30
43 -8 0 8 4 11 10 8 6 -3 7 1 4 9 -3 9 -10 16 -16 16 -5 0 -7 -4 -3 -9 10 -17
-18 -24 -30 -8 -14 20 -34 22 -36 5z"/>
<path d="M138 490 c-2 -6 -27 -13 -55 -17 -29 -3 -50 -10 -47 -15 3 -5 11 -7
17 -5 7 2 21 0 32 -6 19 -10 19 -10 0 -17 -17 -6 -15 -8 13 -14 25 -6 32 -13
32 -32 0 -13 -4 -24 -10 -24 -5 0 -10 9 -10 20 0 17 -7 20 -49 20 -30 0 -51 5
-54 13 -3 7 -6 5 -6 -5 -1 -15 8 -18 49 -18 28 0 50 -4 50 -10 0 -5 -24 -10
-52 -11 -47 -1 -49 -2 -24 -9 16 -5 33 -7 38 -4 5 3 22 3 38 -1 22 -5 30 -12
30 -28 0 -20 0 -20 -15 -1 -8 11 -15 14 -15 7 0 -9 -18 -13 -52 -14 l-53 -2
65 -7 c86 -10 100 -1 100 66 0 34 -5 56 -15 64 -12 10 -15 10 -15 -4 0 -9 -4
-16 -10 -16 -5 0 -10 11 -10 25 0 15 6 25 14 25 7 0 19 7 26 15 8 9 8 15 2 15
-6 0 -12 -5 -14 -10z"/>
<path d="M2123 448 c5 -36 3 -59 -3 -63 -8 -5 -7 -11 0 -21 7 -7 10 -19 7 -26
-3 -8 -6 -6 -6 5 -1 16 -3 17 -16 3 -8 -8 -15 -19 -15 -25 0 -6 -12 -8 -29 -5
-16 4 -32 1 -36 -5 -10 -18 93 -11 107 7 19 22 18 159 0 175 -13 10 -14 5 -9
-45z"/>
<path d="M1832 446 c-3 -6 -5 -19 -4 -28 2 -11 -3 -18 -13 -18 -9 0 -13 -4
-10 -10 3 -5 22 -8 42 -5 44 5 56 15 20 15 -20 0 -27 5 -27 19 0 17 9 20 80
23 71 3 80 1 80 -14 0 -12 8 -18 25 -18 18 0 23 4 19 15 -4 8 -1 15 5 15 6 0
11 -6 11 -14 0 -14 -19 -34 -33 -34 -5 0 -11 -3 -14 -6 -4 -3 13 -5 36 -4 39
1 72 18 35 18 -11 0 -15 6 -11 20 3 11 0 23 -6 27 -19 12 -227 11 -235 -1z"/>
<path d="M1135 440 c-3 -5 -5 -10 -3 -11 32 -8 48 -7 48 3 0 6 -3 8 -7 5 -3
-4 -12 -2 -19 4 -8 7 -14 7 -19 -1z"/>
<path d="M1305 439 c-10 -15 3 -25 16 -12 7 7 7 13 1 17 -6 3 -14 1 -17 -5z"/>
<path d="M1105 400 c-9 -15 4 -30 26 -30 12 0 19 7 19 20 0 21 -33 29 -45 10z"/>
<path d="M1903 390 c-4 -17 -14 -20 -54 -20 -27 0 -49 -3 -49 -7 0 -5 23 -8
50 -8 44 0 52 3 57 23 4 17 12 22 39 22 24 0 37 -6 46 -22 11 -19 22 -23 61
-23 26 0 47 3 47 8 0 4 -22 7 -49 7 -40 0 -50 3 -54 20 -4 16 -14 20 -47 20
-33 0 -43 -4 -47 -20z"/>
<path d="M2182 393 c2 -10 12 -18 23 -18 11 0 21 8 23 18 3 13 -3 17 -23 17
-20 0 -26 -4 -23 -17z"/>
<path d="M1280 379 c0 -5 10 -9 22 -9 12 0 18 3 14 7 -10 11 -36 12 -36 2z"/>
<path d="M1907 350 c-20 -24 -21 -96 -1 -79 6 5 14 19 17 30 4 15 2 19 -9 15
-9 -3 -12 -1 -9 4 3 6 22 10 41 10 29 0 34 -3 34 -24 0 -13 6 -28 13 -34 10
-9 13 -4 15 23 3 42 -23 75 -58 75 -14 0 -33 -9 -43 -20z"/>
<path d="M770 335 c0 -20 4 -26 18 -23 9 2 17 12 17 23 0 11 -8 21 -17 23 -14
3 -18 -3 -18 -23z"/>
<path d="M887 353 c-14 -14 -7 -43 11 -43 25 0 31 7 25 31 -5 19 -23 25 -36
12z"/>
<path d="M994 345 c-4 -9 -2 -21 4 -27 15 -15 44 -1 40 19 -4 23 -36 29 -44 8z"/>
<path d="M2193 345 c-10 -11 -10 -15 0 -18 9 -4 9 -6 0 -6 -7 -1 -13 -5 -13
-10 0 -4 11 -6 25 -3 14 2 23 8 20 12 -3 5 1 11 7 13 8 4 7 6 -4 6 -9 1 -18 5
-20 10 -1 5 -8 3 -15 -4z"/>
<path d="M2301 342 c-12 -22 -6 -32 21 -32 14 0 19 6 16 22 -4 29 -24 34 -37
10z"/>
<path d="M702 316 c2 -17 8 -23 28 -24 20 0 25 5 26 24 1 13 -2 24 -7 24 -5 0
-8 -6 -6 -12 1 -7 -5 -13 -13 -13 -8 0 -14 6 -12 13 1 6 -2 12 -8 12 -5 0 -9
-11 -8 -24z"/>
<path d="M1700 319 c0 -4 9 -9 21 -12 12 -3 18 -10 14 -16 -3 -6 -2 -11 3 -11
5 0 10 10 10 23 0 17 -6 22 -24 22 -13 0 -24 -3 -24 -6z"/>
<path d="M823 288 c1 -32 4 -38 23 -38 19 0 22 5 22 38 0 24 -3 31 -7 19 -4
-10 -11 -18 -16 -18 -5 0 -12 8 -16 18 -4 11 -6 4 -6 -19z"/>
<path d="M1050 308 c0 -12 7 -18 23 -17 15 0 17 2 7 6 -8 3 -18 11 -22 17 -5
7 -8 4 -8 -6z"/>
<path d="M934 285 c-4 -10 -1 -21 7 -26 20 -12 34 -5 34 17 0 24 -33 31 -41 9z"/>
<path d="M1280 292 c0 -4 9 -8 20 -8 11 0 20 4 20 8 0 4 -9 8 -20 8 -11 0 -20
-4 -20 -8z"/>
<path d="M2354 285 c-4 -9 -2 -21 4 -27 15 -15 44 -1 40 19 -4 23 -36 29 -44
8z"/>
<path d="M2070 261 c0 -4 11 -6 25 -3 14 2 25 6 25 8 0 2 -11 4 -25 4 -14 0
-25 -4 -25 -9z"/>
<path d="M1725 239 c-4 -6 -13 -8 -21 -5 -8 3 -14 1 -14 -4 0 -6 7 -10 16 -10
12 0 15 -7 12 -25 -3 -14 -1 -28 3 -31 5 -3 9 2 9 10 0 9 5 16 11 16 5 0 8 -4
4 -9 -3 -5 0 -13 6 -17 8 -5 10 3 7 25 -3 22 -1 31 10 31 10 0 12 -8 7 -30 -7
-32 10 -44 18 -12 4 16 5 16 6 0 0 -10 6 -18 12 -18 6 0 9 7 5 15 -3 8 -1 15
4 15 6 0 10 -6 10 -14 0 -9 11 -13 35 -12 19 0 35 6 35 11 0 6 5 3 10 -5 8
-12 11 -13 19 -1 7 11 9 11 14 0 5 -12 7 -12 15 0 8 11 10 11 15 0 5 -12 7
-12 15 0 8 11 10 11 15 0 4 -12 7 -11 16 1 6 8 11 10 11 5 0 -14 40 -14 40 0
0 5 5 3 10 -5 8 -12 11 -13 19 -1 7 11 9 11 14 0 5 -12 7 -12 15 0 8 11 10 11
15 0 4 -12 7 -11 16 1 7 10 11 11 11 3 0 -7 5 -13 10 -13 6 0 10 7 10 15 0 13
-26 15 -175 15 l-175 0 0 30 c0 26 -4 30 -28 30 -15 0 -33 -5 -39 -11 -8 -8
-13 -8 -17 0 -9 14 -23 14 -31 0z"/>
<path d="M2247 242 c10 -6 9 -14 -3 -37 -8 -15 -13 -33 -10 -39 2 -6 5 -3 5 7
1 9 6 17 12 17 5 0 8 -4 4 -9 -3 -5 0 -13 6 -17 8 -5 10 3 7 25 -3 22 -1 31
10 31 10 0 12 -8 7 -30 -7 -32 10 -44 18 -12 4 16 5 16 6 0 0 -10 5 -18 11
-18 5 0 7 13 4 30 -5 25 -3 30 12 29 11 0 14 -3 8 -5 -6 -3 -9 -16 -6 -29 2
-14 8 -22 13 -19 5 3 7 10 4 15 -4 5 -2 9 4 9 5 0 12 -8 14 -17 3 -11 5 -7 6
10 0 16 -3 26 -8 23 -5 -3 -11 3 -14 14 -3 11 -9 20 -14 19 -4 -1 -16 1 -26 6
-10 4 -23 2 -31 -4 -10 -8 -16 -9 -21 -1 -3 5 -12 10 -18 10 -9 0 -9 -2 0 -8z
m66 -22 c-3 -11 -7 -20 -8 -20 -1 0 -5 9 -8 20 -3 12 0 20 8 20 8 0 11 -8 8
-20z"/>
<path d="M2698 243 c6 -3 12 -9 12 -14 0 -6 -4 -7 -10 -4 -5 3 -10 1 -10 -5 0
-6 -4 -8 -10 -5 -6 4 -7 -1 -3 -11 4 -12 3 -15 -5 -10 -9 5 -12 -6 -12 -38 0
-44 1 -46 30 -46 29 0 30 2 30 44 0 51 8 56 83 56 55 0 84 -11 73 -28 -3 -6
-2 -13 4 -17 5 -3 10 -13 10 -21 0 -11 -17 -14 -80 -14 -47 0 -80 -4 -80 -10
0 -6 42 -10 105 -10 l105 0 0 46 c0 25 -4 43 -9 39 -5 -3 -11 7 -13 22 l-3 28
-115 1 c-63 1 -109 -1 -102 -3z m180 -15 c8 -10 -8 -13 -74 -13 -80 0 -93 3
-77 18 12 13 140 8 151 -5z m-171 -90 c-2 -13 -4 -5 -4 17 -1 22 1 32 4 23 2
-10 2 -28 0 -40z m-30 -5 c-3 -10 -5 -2 -5 17 0 19 2 27 5 18 2 -10 2 -26 0
-35z m250 0 c-3 -10 -5 -2 -5 17 0 19 2 27 5 18 2 -10 2 -26 0 -35z"/>
<path d="M2182 223 c2 -12 13 -18 31 -19 29 -1 37 20 11 30 -29 11 -46 7 -42
-11z"/>
<path d="M2981 196 c-9 -16 -12 -41 -8 -68 5 -42 5 -44 -39 -70 -25 -16 -44
-35 -44 -45 0 -14 3 -14 16 5 10 14 24 22 37 20 32 -5 32 -26 0 -31 -27 -4
-27 -4 4 -6 41 -1 52 17 24 40 l-22 18 26 7 c20 5 25 12 23 33 -2 14 -7 29
-12 33 -6 4 -4 14 5 24 9 11 9 15 2 10 -16 -9 -17 6 -2 21 6 6 9 17 7 23 -2 7
-10 0 -17 -14z"/>
<path d="M0 202 c0 -4 18 -26 40 -47 52 -51 52 -40 0 14 -22 22 -40 37 -40 33z"/>
<path d="M811 180 c1 -17 3 -19 6 -7 2 9 8 17 13 17 5 0 11 -8 13 -17 3 -12 5
-10 6 7 1 19 -4 26 -19 26 -15 0 -20 -7 -19 -26z"/>
<path d="M981 180 c1 -17 3 -19 6 -7 2 9 8 17 13 17 5 0 11 -8 13 -17 3 -12 5
-10 6 7 1 19 -4 26 -19 26 -15 0 -20 -7 -19 -26z"/>
<path d="M1151 180 c1 -17 3 -19 6 -7 2 9 8 17 13 17 5 0 11 -8 13 -17 3 -12
5 -10 6 7 1 19 -4 26 -19 26 -15 0 -20 -7 -19 -26z"/>
<path d="M1676 197 c-11 -8 -16 -20 -13 -28 4 -10 6 -9 6 4 1 9 5 17 10 17 5
0 12 -8 14 -17 3 -11 5 -7 6 10 1 31 1 31 -23 14z"/>
<path d="M1290 175 c0 -8 5 -15 10 -15 6 0 10 6 10 13 0 8 3 9 8 1 9 -13 42
-14 42 -1 0 5 7 4 15 -3 12 -10 15 -10 15 4 0 13 -11 16 -50 16 -38 0 -50 -4
-50 -15z"/>
<path d="M2736 181 c-4 -5 3 -7 14 -4 11 3 20 0 20 -6 0 -6 14 -11 30 -11 17
0 30 4 30 9 0 5 8 12 18 14 9 3 -11 5 -45 6 -34 0 -64 -3 -67 -8z"/>
<path d="M0 145 c0 -16 46 -65 61 -65 7 0 10 -3 7 -6 -4 -3 -15 -1 -26 5 -16
8 -21 7 -26 -6 -4 -9 -4 -18 -1 -21 3 -3 5 0 5 6 0 7 4 12 8 12 4 0 8 -9 8
-20 0 -13 -5 -19 -13 -16 -21 8 -15 -8 8 -23 21 -12 22 -12 16 19 -5 23 -3 30
6 27 6 -2 11 -9 10 -15 -2 -7 4 -9 14 -5 10 4 12 8 6 10 -7 3 -9 11 -7 18 4 8
-12 31 -35 53 -23 21 -41 34 -41 27z"/>
<path d="M2784 52 c-15 -10 -30 -57 -15 -48 6 4 11 14 11 22 0 21 38 17 45 -6
3 -11 11 -20 16 -20 6 0 5 9 -2 23 -11 21 -28 37 -39 37 -3 0 -10 -4 -16 -8z"/>
</g>
</svg>
