<?xml version="1.0" standalone="no"?>
<!DOCTYPE svg PUBLIC "-//W3C//DTD SVG 20010904//EN"
 "http://www.w3.org/TR/2001/REC-SVG-20010904/DTD/svg10.dtd">
<svg version="1.0" xmlns="http://www.w3.org/2000/svg"
 width="256.000000pt" height="187.000000pt" viewBox="0 0 256.000000 187.000000"
 preserveAspectRatio="xMidYMid meet">
<g transform="translate(0.000000,187.000000) scale(0.100000,-0.100000)"
fill="#000000" stroke="none">
<path d="M1475 1815 c-25 -24 -25 -26 -25 -209 l0 -185 -52 -5 c-262 -26 -368
-47 -512 -101 -270 -101 -498 -289 -615 -505 -72 -134 -153 -420 -177 -622 -6
-52 -4 -58 19 -82 45 -45 81 -36 146 35 204 222 476 382 776 455 107 26 347
51 389 40 l26 -6 0 -211 c0 -210 0 -210 25 -234 51 -52 46 -55 544 352 319
260 463 384 468 401 13 53 51 15 -779 768 -163 148 -185 158 -233 109z"/>
</g>
</svg>
