<?xml version="1.0" standalone="no"?>
<!DOCTYPE svg PUBLIC "-//W3C//DTD SVG 20010904//EN"
 "http://www.w3.org/TR/2001/REC-SVG-20010904/DTD/svg10.dtd">
<svg version="1.0" xmlns="http://www.w3.org/2000/svg"
 width="300.000000pt" height="300.000000pt" viewBox="0 0 300.000000 300.000000"
 preserveAspectRatio="xMidYMid meet">
<metadata>
Created by potrace 1.10, written by Peter Selinger 2001-2011
</metadata>
<g transform="translate(0.000000,300.000000) scale(0.100000,-0.100000)"
 stroke="none">
<path d="M2407 2769 c-48 -11 -87 -32 -110 -57 -27 -29 -8 -58 58 -88 66 -31
195 -42 275 -25 179 38 199 121 40 165 -61 17 -200 20 -263 5z"/>
<path d="M2159 2587 c-30 -18 -97 -63 -149 -101 -52 -37 -108 -75 -124 -83
-122 -63 -286 -79 -456 -43 -58 12 -111 23 -117 24 -7 0 -38 -44 -70 -99 -78
-135 -85 -134 -138 12 -23 62 -46 118 -52 124 -13 13 -345 6 -403 -9 l-35 -9
51 -22 c64 -28 107 -71 107 -108 0 -15 -7 -68 -16 -118 -80 -431 -85 -1213
-11 -1677 24 -151 20 -145 106 -153 139 -13 296 25 418 103 30 19 114 91 185
161 133 129 217 185 317 214 l41 12 37 110 c32 97 39 110 60 110 19 0 28 -14
65 -109 23 -61 48 -113 56 -117 29 -14 183 -68 186 -65 8 8 33 163 47 291 48
434 49 1016 1 1400 -21 164 -25 185 -39 185 -7 0 -37 -15 -67 -33z m-145 -372
c104 -27 146 -76 146 -167 -1 -153 -236 -428 -365 -428 -50 0 -123 29 -160 65
-48 45 -48 93 1 181 l36 65 -12 62 c-12 57 -11 67 8 109 24 55 72 91 152 112
72 19 123 19 194 1z m-1052 -262 l47 -46 51 47 c52 48 82 56 88 22 3 -12 -14
-36 -44 -67 l-48 -49 47 -48 c49 -50 58 -76 30 -86 -12 -5 -32 8 -68 44 l-51
50 -39 -41 c-54 -55 -73 -65 -92 -46 -19 19 -9 38 46 92 l41 39 -52 53 c-44
44 -49 54 -38 67 19 24 30 20 82 -31z m546 -99 c2 -17 -9 -28 -53 -53 -61 -35
-90 -37 -90 -6 0 12 19 30 55 52 61 37 83 38 88 7z m-201 -146 c7 -10 9 -107
4 -160 -2 -16 -41 -7 -51 11 -32 61 11 198 47 149z m116 -276 c58 -58 70 -88
41 -99 -10 -4 -35 13 -75 53 -55 54 -69 81 -52 97 14 15 31 5 86 -51z m478
-49 l50 -46 50 49 c40 39 53 47 66 38 29 -18 26 -32 -23 -84 l-47 -50 47 -50
c49 -52 52 -66 23 -84 -13 -9 -26 -1 -66 38 l-50 49 -50 -46 c-54 -50 -61 -53
-79 -35 -18 18 -15 25 35 79 l46 50 -46 47 c-50 50 -54 61 -35 80 18 18 25 15
79 -35z m-314 -142 c13 -19 28 -52 35 -74 11 -35 10 -41 -7 -53 -20 -15 -45
-3 -45 20 0 7 -12 36 -26 64 -41 82 -6 116 43 43z m-305 -43 c82 -28 118 -76
118 -157 0 -99 -71 -225 -190 -334 -72 -67 -126 -97 -173 -97 -52 0 -124 29
-162 65 -48 44 -47 85 2 176 37 68 37 69 25 127 -19 94 6 152 88 196 27 15 69
31 92 36 50 10 152 5 200 -12z m319 -154 c11 -13 10 -21 -6 -50 -24 -46 -92
-106 -113 -102 -28 5 -26 45 3 64 14 9 40 37 56 61 33 47 40 51 60 27z"/>
<path d="M1825 2156 c-94 -29 -127 -77 -107 -152 17 -65 16 -73 -29 -162 -47
-94 -45 -108 26 -141 63 -30 103 -27 155 10 128 93 229 243 230 340 0 37 -5
50 -27 71 -49 46 -161 61 -248 34z"/>
<path d="M1085 1151 c-42 -11 -87 -35 -110 -61 -20 -22 -23 -59 -10 -140 6
-40 2 -53 -29 -112 -50 -93 -48 -112 14 -143 92 -46 138 -31 252 86 124 128
174 277 112 334 -40 37 -151 55 -229 36z"/>
<path d="M2700 2556 c-76 -27 -253 -28 -328 -2 -29 10 -56 16 -59 13 -3 -3 2
-68 11 -144 56 -484 43 -1187 -29 -1598 -8 -44 -15 -87 -15 -96 0 -19 69 -52
162 -75 108 -28 268 -2 317 50 l22 24 -20 123 c-73 446 -82 1091 -21 1574 11
82 18 150 17 150 -1 0 -27 -8 -57 -19z"/>
<path d="M365 2350 c-85 -17 -145 -55 -145 -91 0 -25 45 -54 115 -74 80 -24
240 -17 305 12 59 26 88 58 74 81 -38 61 -218 98 -349 72z"/>
<path d="M243 2128 c3 -13 13 -84 21 -158 57 -500 47 -1098 -26 -1544 l-21
-129 28 -23 c97 -77 385 -69 457 12 15 17 15 25 3 84 -44 213 -67 531 -67 920
0 316 9 499 38 728 9 68 14 125 12 127 -2 2 -24 -3 -48 -13 -63 -23 -286 -23
-349 1 -55 21 -54 21 -48 -5z"/>
</g>
</svg>
