<?xml version="1.0" standalone="no"?>
<!DOCTYPE svg PUBLIC "-//W3C//DTD SVG 20010904//EN"
 "http://www.w3.org/TR/2001/REC-SVG-20010904/DTD/svg10.dtd">
<svg version="1.0" xmlns="http://www.w3.org/2000/svg"
 width="264.000000pt" height="257.000000pt" viewBox="0 0 264.000000 257.000000"
 preserveAspectRatio="xMidYMid meet">
<metadata>
Created by potrace 1.10, written by Peter Selinger 2001-2011
</metadata>
<g transform="translate(0.000000,257.000000) scale(0.100000,-0.100000)"
 stroke="none">
<path d="M121 2513 c-19 -10 -44 -31 -55 -46 -21 -28 -21 -36 -24 -894 -2
-834 -2 -866 16 -850 38 35 89 47 197 47 l105 0 -2 878 -3 877 -100 3 c-80 2
-107 -1 -134 -15z"/>
<path d="M418 1463 l-3 -748 -142 -5 c-123 -4 -145 -8 -170 -26 -88 -65 -79
-197 18 -246 30 -16 66 -18 294 -18 l260 0 68 113 67 112 158 59 159 60 62
123 61 123 120 0 120 0 -22 43 c-32 60 -32 181 0 253 29 64 92 126 157 156 68
31 180 32 247 1 117 -53 182 -155 183 -283 0 -65 -4 -85 -31 -139 l-32 -63 42
-18 c22 -10 73 -32 111 -49 l70 -29 3 -136 3 -136 -75 -93 -74 -92 211 -5
c215 -5 234 -8 280 -48 16 -14 17 0 17 285 l0 299 -170 145 -169 144 -1 132 0
132 60 99 60 100 0 106 0 106 111 56 111 55 -5 46 c-6 54 -31 92 -78 115 -28
15 -62 18 -196 18 l-163 0 0 -165 0 -165 -130 -65 c-71 -36 -136 -65 -143 -65
-7 0 -47 35 -90 78 l-78 78 -80 -15 -79 -15 0 -92 0 -92 -65 -109 -65 -109
-118 -58 -118 -59 -40 -121 -40 -121 -225 0 -224 0 -3 157 -2 156 60 100 60
100 0 145 0 145 60 38 60 39 0 108 0 107 -230 0 -230 0 -2 -747z"/>
<path d="M940 2086 l0 -124 -60 -38 -60 -39 0 -137 0 -137 -60 -99 -60 -100 0
-121 0 -121 174 0 175 0 38 116 38 116 125 63 125 64 50 86 50 86 5 112 5 112
118 24 118 24 78 -77 78 -78 102 51 101 51 0 145 0 145 -570 0 -570 0 0 -124z"/>
<path d="M2498 1919 l-78 -39 0 -95 0 -94 -60 -99 -60 -100 0 -109 0 -109 138
-118 137 -117 3 230 c1 127 1 334 0 460 l-3 229 -77 -39z"/>
<path d="M1667 1416 c-55 -21 -103 -61 -134 -114 -24 -40 -28 -58 -28 -123 0
-67 4 -81 30 -125 19 -30 52 -63 87 -86 53 -36 57 -42 89 -128 19 -49 36 -90
39 -90 3 0 20 41 39 91 32 86 36 92 88 125 162 103 162 328 1 427 -57 35 -151
46 -211 23z m153 -106 c45 -23 80 -80 80 -130 0 -76 -74 -150 -150 -150 -76 0
-150 74 -150 150 0 48 35 107 78 129 48 26 93 26 142 1z"/>
<path d="M1689 1241 c-20 -20 -29 -39 -29 -61 0 -43 47 -90 90 -90 43 0 90 47
90 90 0 22 -9 41 -29 61 -40 39 -82 39 -122 0z"/>
<path d="M1231 833 l-59 -118 -161 -60 -161 -60 -50 -83 c-28 -46 -50 -85 -50
-88 0 -2 280 -4 623 -3 l622 0 83 105 83 104 -3 107 -3 106 -105 45 -105 45
-35 -19 c-31 -17 -40 -32 -86 -149 -45 -113 -55 -130 -74 -130 -20 0 -29 17
-73 128 -46 118 -52 129 -94 157 -43 29 -47 30 -168 30 l-125 0 -59 -117z"/>
<path d="M1962 218 l3 -143 250 -3 c222 -2 254 0 284 15 54 28 76 66 76 128 0
62 -22 100 -76 127 -30 16 -66 18 -287 18 l-253 0 3 -142z"/>
</g>
</svg>
