<?xml version="1.0" standalone="no"?>
<!DOCTYPE svg PUBLIC "-//W3C//DTD SVG 20010904//EN"
 "http://www.w3.org/TR/2001/REC-SVG-20010904/DTD/svg10.dtd">
<svg version="1.0" xmlns="http://www.w3.org/2000/svg"
 width="228.000000pt" height="176.000000pt" viewBox="0 0 228.000000 176.000000"
 preserveAspectRatio="xMidYMid meet">
<metadata>
Created by potrace 1.10, written by Peter Selinger 2001-2011
</metadata>
<g transform="translate(0.000000,176.000000) scale(0.100000,-0.100000)"
stroke="none">
<path d="M138 1726 c-148 -55 -165 -148 -87 -496 59 -267 59 -414 0 -675 -16
-72 -32 -147 -35 -167 l-7 -37 52 24 c110 50 245 42 372 -23 12 -6 9 1150 -4
1207 -6 27 -23 68 -39 89 -51 71 -172 108 -252 78z"/>
<path d="M1967 1726 c-67 -24 -113 -62 -138 -113 l-24 -48 -3 -608 c-1 -335 1
-607 5 -605 130 66 260 74 370 23 l54 -24 -7 37 c-3 20 -19 94 -35 164 -59
261 -59 413 0 679 63 284 62 378 -8 448 -57 57 -137 74 -214 47z"/>
<path d="M500 863 c0 -724 3 -695 -70 -738 -78 -45 -276 -10 -268 47 4 27 25
28 107 4 89 -26 164 1 163 59 0 62 -95 109 -218 108 -85 -1 -147 -25 -187 -72
-44 -53 -32 -109 37 -169 73 -64 46 -62 1056 -62 1010 0 983 -2 1056 62 94 83
82 169 -32 220 -56 24 -175 26 -244 3 -164 -54 -95 -197 71 -149 82 24 103 23
107 -4 8 -57 -190 -92 -268 -47 -73 43 -70 14 -70 738 l0 647 -339 0 -338 0
-50 -132 c-45 -120 -52 -133 -74 -133 -21 0 -30 15 -80 130 l-56 130 -152 3
-151 3 0 -648z m233 278 l42 -39 43 40 c45 41 58 44 76 15 9 -13 2 -25 -32
-60 l-43 -43 41 -38 c23 -21 40 -45 38 -54 -6 -31 -39 -25 -78 13 l-39 38 -42
-37 c-78 -66 -121 -34 -50 38 l41 42 -40 39 c-42 41 -47 54 -28 73 18 18 25
15 71 -27z m495 -60 c8 -5 12 -17 10 -27 -3 -17 -13 -19 -88 -19 -75 0 -85 2
-88 19 -6 27 15 36 88 36 36 0 71 -4 78 -9z m276 3 c23 -9 23 -172 1 -180 -28
-11 -45 16 -45 72 l0 53 -57 3 c-47 2 -58 6 -61 22 -2 10 2 22 10 27 15 10
128 12 152 3z m4 -273 c9 -5 12 -31 10 -92 l-3 -84 -85 0 c-84 0 -85 0 -85 25
0 23 4 25 58 28 l57 3 0 52 c0 64 17 88 48 68z m-600 -133 c7 -7 8 -17 1 -30
-8 -14 -21 -18 -64 -18 l-54 0 -3 -57 c-3 -54 -5 -58 -28 -58 -24 0 -25 3 -28
74 -2 41 -1 80 2 88 7 17 157 18 174 1z m328 -3 c13 -32 -15 -45 -96 -45 -81
0 -109 13 -96 45 4 12 24 15 96 15 72 0 92 -3 96 -15z m-448 -317 l3 -57 57
-3 c53 -3 57 -5 57 -28 0 -25 -1 -25 -85 -25 l-85 0 -3 74 c-4 89 1 103 30 99
20 -3 23 -10 26 -60z m662 -3 c19 -19 38 -35 44 -35 6 0 27 17 48 37 31 30 42
35 55 27 30 -19 26 -34 -18 -75 l-43 -39 44 -45 c37 -37 41 -46 30 -60 -18
-21 -33 -19 -61 11 -45 49 -57 50 -99 9 -69 -67 -111 -23 -44 46 l38 39 -37
38 c-35 36 -45 61 -30 75 15 15 41 5 73 -28z m-261 -69 c6 -7 9 -21 5 -30 -9
-24 -169 -24 -178 0 -12 32 13 44 89 44 49 0 76 -4 84 -14z"/>
</g>
</svg>
