<?xml version="1.0" standalone="no"?>
<!DOCTYPE svg PUBLIC "-//W3C//DTD SVG 20010904//EN"
 "http://www.w3.org/TR/2001/REC-SVG-20010904/DTD/svg10.dtd">
<svg version="1.0" xmlns="http://www.w3.org/2000/svg"
 width="157.000000pt" height="283.000000pt" viewBox="0 0 157.000000 283.000000"
 preserveAspectRatio="xMidYMid meet">
<metadata>
Created by potrace 1.10, written by Peter Selinger 2001-2011
</metadata>
<g transform="translate(0.000000,283.000000) scale(0.100000,-0.100000)"
fill="#000000" stroke="none">
<path d="M570 2550 c0 -30 0 -30 -60 -30 -60 0 -60 0 -60 -30 0 -27 -3 -30
-30 -30 -27 0 -30 -3 -30 -30 0 -27 -3 -30 -30 -30 -27 0 -30 -3 -30 -30 0
-27 -3 -30 -30 -30 -30 0 -30 0 -30 -60 0 -60 0 -60 -30 -60 l-30 0 0 -265 0
-265 30 0 30 0 0 -90 0 -90 30 0 c30 0 30 0 30 -60 0 -60 0 -60 30 -60 27 0
30 3 30 30 0 27 3 30 30 30 30 0 30 0 30 -60 0 -60 0 -60 30 -60 27 0 30 -3
30 -30 0 -27 -3 -30 -30 -30 -30 0 -30 0 -30 -60 0 -60 0 -60 -30 -60 -30 0
-30 0 -30 -60 0 -60 0 -60 -30 -60 l-30 0 0 -175 0 -175 30 0 c27 0 30 -3 30
-30 0 -27 3 -30 30 -30 27 0 30 -3 30 -30 0 -30 0 -30 60 -30 l60 0 0 -90 0
-90 -30 0 c-27 0 -30 -3 -30 -30 0 -27 -3 -30 -30 -30 -27 0 -30 -3 -30 -30 0
-30 0 -30 -60 -30 -60 0 -60 0 -60 -30 0 -27 3 -30 30 -30 27 0 30 -3 30 -30
l0 -30 205 0 205 0 0 210 0 210 30 0 30 0 0 -210 0 -210 210 0 210 0 0 30 c0
27 3 30 30 30 27 0 30 3 30 30 0 30 0 30 -60 30 -60 0 -60 0 -60 30 0 27 -3
30 -30 30 -27 0 -30 3 -30 30 0 27 -3 30 -30 30 l-30 0 0 90 0 90 60 0 c60 0
60 0 60 30 0 27 3 30 30 30 27 0 30 3 30 30 0 27 3 30 30 30 l30 0 0 175 0
175 -30 0 c-30 0 -30 0 -30 60 0 60 0 60 -30 60 -30 0 -30 0 -30 60 0 60 0 60
-30 60 -27 0 -30 3 -30 30 0 27 3 30 30 30 30 0 30 0 30 60 0 60 0 60 30 60
27 0 30 -3 30 -30 0 -27 3 -30 30 -30 30 0 30 0 30 60 0 60 0 60 30 60 l30 0
0 90 0 90 30 0 30 0 0 265 0 265 -30 0 c-30 0 -30 0 -30 60 0 60 0 60 -30 60
-27 0 -30 3 -30 30 0 27 -3 30 -30 30 -27 0 -30 3 -30 30 0 27 -3 30 -30 30
-27 0 -30 3 -30 30 0 30 0 30 -60 30 -60 0 -60 0 -60 30 l0 30 -265 0 -265 0
0 -30z m230 -120 c0 -27 3 -30 30 -30 30 0 30 0 30 -60 0 -60 0 -60 -30 -60
-27 0 -30 3 -30 30 0 25 -4 30 -25 30 -21 0 -25 5 -25 30 0 27 -3 30 -30 30
-27 0 -30 3 -30 30 0 30 1 30 55 30 54 0 55 0 55 -30z m240 -62 l0 -88 -30 0
-30 0 0 89 0 90 30 -1 30 -1 0 -89z m-530 2 c0 -27 3 -30 30 -30 27 0 30 -3
30 -30 0 -27 -3 -30 -30 -30 -27 0 -30 3 -30 30 0 27 -3 30 -30 30 -27 0 -30
3 -30 30 0 27 3 30 30 30 27 0 30 -3 30 -30z m710 -260 c0 -60 0 -60 30 -60
27 0 30 -3 30 -30 0 -27 -3 -30 -30 -30 -27 0 -30 -3 -30 -30 0 -27 3 -30 30
-30 l30 0 0 -120 0 -120 -30 0 c-27 0 -30 -3 -30 -30 0 -27 3 -30 30 -30 27 0
30 -3 30 -30 0 -27 -3 -30 -30 -30 -27 0 -30 -3 -30 -30 0 -30 0 -30 -60 -30
-60 0 -60 0 -60 -30 0 -30 0 -30 -60 -30 -60 0 -60 0 -60 -30 l0 -30 -145 0
-145 0 0 30 c0 30 0 30 -60 30 -60 0 -60 0 -60 30 0 30 0 30 -60 30 -60 0 -60
0 -60 30 0 27 -3 30 -30 30 -27 0 -30 3 -30 30 0 27 3 30 30 30 27 0 30 3 30
30 0 27 -3 30 -30 30 l-30 0 0 120 0 120 30 0 c27 0 30 3 30 30 0 27 -3 30
-30 30 -27 0 -30 3 -30 30 0 27 3 30 30 30 30 0 30 0 30 60 l0 60 385 0 385 0
0 -60z m-890 -330 l0 -90 -30 0 -30 0 0 90 0 90 30 0 30 0 0 -90z m1070 0 l0
-90 -30 0 -30 0 0 90 0 90 30 0 30 0 0 -90z m-830 -420 c0 -27 -3 -30 -30 -30
-27 0 -30 3 -30 30 0 27 3 30 30 30 27 0 30 -3 30 -30z m590 0 c0 -27 -3 -30
-30 -30 -27 0 -30 3 -30 30 0 27 3 30 30 30 27 0 30 -3 30 -30z m-180 -60 c0
-30 0 -30 -60 -30 l-60 0 0 -90 0 -90 -30 0 -30 0 0 90 0 90 -55 0 c-54 0 -55
0 -55 30 l0 30 145 0 145 0 0 -30z m-530 -540 c0 -27 3 -30 30 -30 30 0 30 -1
30 -55 0 -54 0 -55 -30 -55 -27 0 -30 3 -30 30 0 27 -3 30 -30 30 -30 0 -30 1
-30 55 0 54 0 55 30 55 27 0 30 -3 30 -30z m830 -25 c0 -54 0 -55 -30 -55 -27
0 -30 -3 -30 -30 0 -27 -3 -30 -30 -30 -30 0 -30 1 -30 55 0 54 0 55 30 55 27
0 30 3 30 30 0 27 3 30 30 30 30 0 30 -1 30 -55z m-180 -85 c0 -27 -3 -30 -30
-30 -30 0 -30 0 -30 -60 l0 -60 -60 0 -60 0 0 60 0 60 -85 0 -85 0 0 -60 0
-60 -60 0 -60 0 0 60 c0 60 0 60 -30 60 -27 0 -30 3 -30 30 l0 30 265 0 265 0
0 -30z m-410 -240 c0 -27 -3 -30 -30 -30 -27 0 -30 3 -30 30 0 27 3 30 30 30
27 0 30 -3 30 -30z m350 0 c0 -27 -3 -30 -30 -30 -27 0 -30 3 -30 30 0 27 3
30 30 30 27 0 30 -3 30 -30z"/>
<path d="M763 2373 c4 -3 10 -3 14 0 3 4 0 7 -7 7 -7 0 -10 -3 -7 -7z"/>
<path d="M450 2020 l0 -30 120 0 120 0 0 -30 c0 -27 3 -30 30 -30 27 0 30 -3
30 -30 0 -30 0 -30 -60 -30 -60 0 -60 0 -60 -30 0 -30 0 -30 60 -30 l60 0 0
-60 c0 -60 0 -60 -30 -60 -27 0 -30 -3 -30 -30 l0 -30 -120 0 -120 0 0 -30 0
-30 120 0 120 0 0 30 c0 27 3 30 30 30 27 0 30 3 30 30 0 25 4 30 25 30 25 0
25 1 25 90 l0 90 30 0 30 0 0 -90 0 -90 30 0 c27 0 30 -3 30 -30 0 -27 3 -30
30 -30 27 0 30 -3 30 -30 l0 -30 120 0 120 0 0 30 0 30 -120 0 -120 0 0 30 c0
27 -3 30 -30 30 -27 0 -30 3 -30 30 0 27 3 30 30 30 27 0 30 3 30 30 0 27 3
30 30 30 27 0 30 3 30 30 0 30 0 30 -60 30 -60 0 -60 0 -60 30 0 27 3 30 30
30 27 0 30 3 30 30 l0 30 120 0 120 0 0 30 0 30 -120 0 -120 0 0 -30 c0 -27
-3 -30 -30 -30 -27 0 -30 -3 -30 -30 l0 -30 -85 0 -85 0 0 30 c0 27 -3 30 -30
30 -27 0 -30 3 -30 30 l0 30 -120 0 -120 0 0 -30z"/>
<path d="M450 1840 l0 -90 30 0 c27 0 30 3 30 30 0 27 3 30 30 30 27 0 30 3
30 30 0 27 -3 30 -30 30 -27 0 -30 3 -30 30 0 27 -3 30 -30 30 l-30 0 0 -90z"/>
<path d="M1160 1900 c0 -27 -3 -30 -30 -30 -27 0 -30 -3 -30 -30 0 -30 0 -30
60 -30 l60 0 0 60 c0 60 0 60 -30 60 -27 0 -30 -3 -30 -30z"/>
<path d="M800 1540 c0 -27 3 -30 30 -30 27 0 30 3 30 30 0 27 -3 30 -30 30
-27 0 -30 -3 -30 -30z"/>
</g>
</svg>
