<?xml version="1.0" standalone="no"?>
<!DOCTYPE svg PUBLIC "-//W3C//DTD SVG 20010904//EN"
 "http://www.w3.org/TR/2001/REC-SVG-20010904/DTD/svg10.dtd">
<svg version="1.0" xmlns="http://www.w3.org/2000/svg"
 width="173.000000pt" height="174.000000pt" viewBox="0 0 173.000000 174.000000"
 preserveAspectRatio="xMidYMid meet">
<metadata>
Created by potrace 1.10, written by Peter Selinger 2001-2011
</metadata>
<g transform="translate(0.000000,174.000000) scale(0.100000,-0.100000)"
fill="#000000" stroke="none">
<path d="M508 1683 l-3 -38 -55 -3 c-90 -4 -100 -8 -100 -43 0 -30 -3 -33 -52
-43 -23 -5 -28 -12 -28 -37 0 -30 -3 -33 -52 -43 -21 -5 -27 -13 -30 -39 -3
-28 -7 -33 -38 -37 l-35 -5 -5 -75 -5 -75 -37 -3 -38 -3 0 -355 0 -354 40 0
40 0 0 -119 0 -120 38 -3 37 -3 5 -75 5 -75 32 -3 c28 -3 33 0 38 25 12 52 14
54 47 51 l33 -3 5 -75 5 -75 35 -5 c27 -4 36 -10 38 -27 3 -22 7 -23 123 -23
l119 0 0 25 0 25 190 0 190 0 0 -25 0 -26 123 3 c117 3 122 4 125 25 2 16 11
23 35 25 23 2 33 8 34 23 14 142 12 136 46 133 25 -2 33 -8 35 -28 5 -36 22
-51 51 -48 22 3 26 9 29 38 1 19 5 54 8 78 5 40 7 42 40 42 l34 0 0 120 0 120
40 0 40 0 0 355 0 355 -35 0 c-38 0 -42 10 -47 110 -3 42 -5 45 -33 48 -33 4
-45 16 -45 48 0 22 -17 34 -50 34 -19 0 -30 19 -30 50 0 19 -19 30 -50 30 -13
0 -21 11 -27 38 l-9 37 -72 3 -72 3 -6 39 -7 40 -348 0 -348 0 -3 -37z m288
-131 c6 -4 15 -21 18 -39 6 -27 12 -32 39 -35 l32 -3 3 -77 3 -78 -34 0 c-30
0 -34 3 -43 37 -7 28 -15 39 -34 43 -19 4 -26 13 -28 38 -3 25 -9 33 -30 38
-49 10 -52 13 -52 43 0 16 6 32 13 34 19 8 101 8 113 -1z m336 -118 l-3 -114
-34 0 -34 0 -3 115 c-3 124 -3 125 52 117 l25 -3 -3 -115z m-714 34 c7 -7 12
-25 12 -40 0 -24 4 -28 29 -28 34 0 54 -20 49 -52 -2 -19 -9 -23 -38 -23 -32
0 -35 3 -38 32 -3 26 -9 34 -30 39 -49 10 -52 13 -52 43 0 38 41 56 68 29z
m952 -355 c0 -86 7 -101 44 -105 28 -3 31 -6 31 -38 0 -32 -3 -35 -35 -40 -27
-4 -36 -10 -38 -28 -5 -32 15 -52 49 -52 l29 0 0 -159 0 -160 -37 -3 c-31 -2
-39 -7 -41 -26 -5 -30 13 -50 46 -54 24 -3 27 -7 27 -38 0 -32 -3 -35 -35 -40
-31 -4 -36 -9 -40 -40 l-5 -35 -75 -5 -75 -5 -5 -35 -5 -35 -75 -5 -75 -5 -3
-37 -3 -38 -189 0 -189 0 -3 38 -3 37 -55 3 c-89 4 -98 8 -102 45 -3 31 -4 32
-58 35 -89 4 -98 8 -102 45 -3 28 -7 33 -38 37 -32 5 -35 8 -35 40 0 32 3 35
35 40 32 5 35 8 35 40 0 33 -2 35 -37 38 l-38 3 0 159 0 159 38 3 c35 3 37 5
37 38 0 32 -3 35 -35 40 -32 5 -35 8 -35 40 0 32 3 35 35 40 l35 5 3 78 3 77
509 0 510 0 0 -57z m-1180 -463 l0 -120 -40 0 -40 0 0 120 0 120 40 0 40 0 0
-120z m1420 0 l0 -120 -40 0 -40 0 0 120 0 120 40 0 40 0 0 -120z m-1102 -548
c5 -32 -16 -54 -47 -50 -18 2 -27 10 -29 26 -6 40 5 54 40 50 26 -2 34 -8 36
-26z m777 -12 c0 -32 -2 -35 -30 -35 -28 0 -30 3 -33 38 -3 38 -3 38 30 35 30
-3 33 -6 33 -38z"/>
<path d="M350 970 l0 -40 159 0 160 0 3 -37 c3 -35 6 -38 35 -41 25 -3 34 -9
39 -28 10 -39 -11 -53 -84 -56 l-67 -3 0 -35 0 -35 78 -3 77 -3 0 -67 c0 -79
-5 -89 -45 -94 -27 -3 -30 -7 -33 -40 l-3 -38 -160 0 -159 0 0 -40 0 -40 159
0 160 0 3 38 c3 34 6 37 38 42 31 4 36 9 40 40 4 26 11 36 30 40 31 7 38 32
39 148 l1 92 35 0 35 0 0 -119 0 -120 36 -3 c32 -3 38 -8 48 -38 9 -27 17 -36
41 -40 26 -4 30 -10 33 -43 l3 -37 160 0 159 0 0 40 0 40 -154 0 -154 0 -7 39
c-6 36 -10 40 -38 43 -29 3 -32 6 -35 41 -3 35 -2 37 27 37 32 0 51 22 51 59
0 15 8 20 33 23 29 3 32 6 35 40 l3 37 -73 3 c-68 3 -73 5 -78 28 -10 37 -1
50 31 50 30 0 49 23 49 59 0 20 5 21 155 21 l155 0 0 40 0 40 -159 0 -160 0
-3 -37 c-3 -34 -6 -38 -33 -41 -35 -4 -45 -16 -45 -54 l0 -28 -109 0 -110 0
-3 38 c-3 34 -6 37 -38 42 -32 5 -35 8 -38 43 l-3 37 -160 0 -159 0 0 -40z"/>
<path d="M350 730 l0 -121 38 3 c34 3 37 6 42 38 4 31 9 36 40 40 32 5 35 8
35 40 0 32 -3 35 -35 40 -31 4 -36 9 -40 40 -5 32 -8 35 -42 38 l-38 3 0 -121z"/>
<path d="M1294 823 c-10 -50 -13 -53 -43 -53 -24 0 -32 -5 -37 -25 -10 -42 10
-55 87 -55 l69 0 0 80 0 80 -35 0 c-30 0 -35 -4 -41 -27z"/>
<path d="M822 333 c3 -35 6 -38 33 -38 27 0 30 3 33 38 3 37 3 37 -33 37 -36
0 -36 0 -33 -37z"/>
</g>
</svg>
