<?xml version="1.0" standalone="no"?>
<!DOCTYPE svg PUBLIC "-//W3C//DTD SVG 20010904//EN"
 "http://www.w3.org/TR/2001/REC-SVG-20010904/DTD/svg10.dtd">
<svg version="1.0" xmlns="http://www.w3.org/2000/svg"
 width="300.000000pt" height="300.000000pt" viewBox="0 0 300.000000 300.000000"
 preserveAspectRatio="xMidYMid meet">
<metadata>
Created by potrace 1.10, written by Peter Selinger 2001-2011
</metadata>
<g transform="translate(0.000000,300.000000) scale(0.100000,-0.100000)"
 stroke="none">
<path d="M153 2591 c-124 -63 -178 -190 -139 -326 32 -108 148 -195 261 -195
95 0 203 67 247 154 46 90 31 221 -33 299 -51 62 -110 90 -198 95 -70 3 -81 1
-138 -27z"/>
<path d="M915 2597 c-56 -27 -116 -88 -141 -144 -27 -62 -23 -159 9 -226 30
-60 65 -95 131 -130 l41 -22 899 -3 c1034 -3 972 -8 1062 82 41 42 56 66 70
111 38 133 -20 270 -142 331 -38 18 -72 19 -959 21 l-920 3 -50 -23z"/>
<path d="M208 1766 c-131 -36 -218 -160 -205 -292 14 -141 132 -248 271 -248
105 1 189 50 244 144 24 39 27 56 27 130 0 74 -3 91 -27 130 -35 59 -73 94
-128 119 -62 27 -126 33 -182 17z"/>
<path d="M967 1769 c-81 -19 -156 -81 -190 -158 -28 -62 -28 -160 0 -222 25
-57 84 -115 143 -143 45 -21 50 -21 955 -21 l910 0 57 28 c102 50 153 132 153
247 0 115 -51 197 -153 247 l-57 28 -890 2 c-502 1 -906 -3 -928 -8z"/>
<path d="M186 914 c-72 -23 -149 -103 -172 -179 -39 -137 16 -264 142 -326 58
-29 70 -31 138 -27 56 4 85 11 119 31 163 96 185 315 44 444 -73 67 -170 88
-271 57z"/>
<path d="M947 916 c-158 -57 -234 -222 -170 -374 21 -52 88 -118 143 -141 49
-21 50 -21 967 -19 885 3 919 4 957 22 122 61 180 198 142 331 -14 45 -29 69
-70 110 -90 90 -29 85 -1045 85 -719 -1 -893 -3 -924 -14z"/>
</g>
</svg>
