<?xml version="1.0" standalone="no"?>
<!DOCTYPE svg PUBLIC "-//W3C//DTD SVG 20010904//EN"
 "http://www.w3.org/TR/2001/REC-SVG-20010904/DTD/svg10.dtd">
<svg version="1.0" xmlns="http://www.w3.org/2000/svg"
 width="158.000000pt" height="281.000000pt" viewBox="0 0 158.000000 281.000000"
 preserveAspectRatio="xMidYMid meet">
<metadata>
Created by potrace 1.10, written by Peter Selinger 2001-2011
</metadata>
<g transform="translate(0.000000,281.000000) scale(0.100000,-0.100000)"
fill="#000000" stroke="none">
<path d="M570 2550 c0 -30 0 -30 -60 -30 -60 0 -60 0 -60 -30 0 -27 -3 -30
-30 -30 -27 0 -30 -3 -30 -30 0 -30 0 -30 -60 -30 -60 0 -60 0 -60 -30 0 -27
-3 -30 -30 -30 -27 0 -30 -3 -30 -30 0 -27 -3 -30 -30 -30 -30 0 -30 -1 -30
-55 0 -54 0 -55 30 -55 27 0 30 -3 30 -30 0 -27 -3 -30 -30 -30 -30 0 -30 0
-30 -60 0 -60 0 -60 30 -60 l30 0 0 -150 0 -150 30 0 c27 0 30 -3 30 -30 0
-27 3 -30 30 -30 27 0 30 -3 30 -30 0 -27 3 -30 30 -30 27 0 30 -3 30 -30 0
-27 3 -30 30 -30 27 0 30 -3 30 -30 0 -30 0 -30 60 -30 60 0 60 0 60 -30 0
-30 0 -30 60 -30 60 0 60 0 60 -30 0 -30 0 -30 -60 -30 -60 0 -60 0 -60 -30 0
-27 -3 -30 -30 -30 -30 0 -30 0 -30 -60 0 -60 0 -60 -30 -60 -30 0 -30 0 -30
-60 0 -60 0 -60 -30 -60 l-30 0 0 -90 0 -90 -30 0 -30 0 0 -85 0 -85 30 0 c27
0 30 -3 30 -30 0 -27 3 -30 30 -30 27 0 30 -3 30 -30 0 -30 0 -30 60 -30 l60
0 0 -90 0 -90 -30 0 c-27 0 -30 -3 -30 -30 0 -27 -3 -30 -30 -30 l-30 0 0 -90
0 -90 175 0 175 0 0 210 0 210 30 0 30 0 0 -210 0 -210 180 0 180 0 0 90 0 90
-30 0 c-27 0 -30 3 -30 30 0 27 -3 30 -30 30 l-30 0 0 90 0 90 60 0 c60 0 60
0 60 30 0 27 3 30 30 30 27 0 30 3 30 30 0 27 3 30 30 30 l30 0 0 85 0 85 -30
0 -30 0 0 90 0 90 -30 0 c-30 0 -30 0 -30 60 0 60 0 60 -30 60 -30 0 -30 0
-30 60 0 60 0 60 -30 60 -27 0 -30 3 -30 30 0 30 0 30 -60 30 -60 0 -60 0 -60
30 0 30 0 30 60 30 60 0 60 0 60 30 0 30 0 30 60 30 60 0 60 0 60 30 0 27 3
30 30 30 27 0 30 3 30 30 0 27 3 30 30 30 27 0 30 3 30 30 0 27 3 30 30 30 27
0 30 3 30 30 0 27 3 30 30 30 l30 0 0 150 0 150 30 0 c30 0 30 0 30 60 0 60 0
60 -30 60 -27 0 -30 3 -30 30 0 27 3 30 30 30 30 0 30 1 30 55 0 54 0 55 -30
55 -27 0 -30 3 -30 30 0 27 -3 30 -30 30 -27 0 -30 3 -30 30 0 30 0 30 -60 30
-60 0 -60 0 -60 30 0 27 -3 30 -30 30 -27 0 -30 3 -30 30 0 30 0 30 -60 30
-60 0 -60 0 -60 30 l0 30 -120 0 -120 0 0 -30 c0 -27 -3 -30 -30 -30 -27 0
-30 3 -30 30 l0 30 -115 0 -115 0 0 -30z m180 -240 c0 -30 0 -30 -60 -30 -60
0 -60 0 -60 -30 0 -27 -3 -30 -30 -30 -30 0 -30 -1 -30 -55 0 -30 -4 -55 -10
-55 -5 0 -11 8 -11 18 -1 16 -2 16 -6 0 -2 -10 -11 -18 -19 -18 -10 0 -14 14
-14 55 0 54 0 55 30 55 27 0 30 3 30 30 0 27 3 30 30 30 27 0 30 3 30 30 0 30
0 30 60 30 60 0 60 0 60 -30z m290 0 c0 -27 3 -30 30 -30 27 0 30 -3 30 -30 0
-27 3 -30 30 -30 30 0 30 -1 30 -55 0 -54 0 -55 -30 -55 -30 0 -30 1 -30 55 0
54 0 55 -30 55 -27 0 -30 3 -30 30 0 30 0 30 -60 30 -60 0 -60 0 -60 30 0 30
0 30 60 30 60 0 60 0 60 -30z m-120 -115 c0 -21 5 -25 30 -25 30 0 30 0 30
-60 0 -60 0 -60 30 -60 27 0 30 -3 30 -30 0 -27 -3 -30 -30 -30 -27 0 -30 -3
-30 -30 0 -27 3 -30 30 -30 27 0 30 -3 30 -30 0 -27 -3 -30 -30 -30 -27 0 -30
-3 -30 -30 0 -27 3 -30 30 -30 27 0 30 -3 30 -30 0 -27 -3 -30 -30 -30 -27 0
-30 3 -30 30 0 27 -3 30 -30 30 -30 0 -30 0 -30 -60 l0 -60 120 0 120 0 0 30
c0 27 3 30 30 30 27 0 30 3 30 30 0 27 -3 30 -30 30 -27 0 -30 3 -30 30 0 30
0 30 60 30 l60 0 0 -150 0 -150 -30 0 c-27 0 -30 -3 -30 -30 0 -30 0 -30 -60
-30 -60 0 -60 0 -60 -30 0 -30 0 -30 -60 -30 -60 0 -60 0 -60 -30 l0 -30 -145
0 -145 0 0 30 c0 30 0 30 -60 30 -60 0 -60 0 -60 30 0 30 0 30 -60 30 -60 0
-60 0 -60 30 0 27 -3 30 -30 30 l-30 0 0 150 0 150 60 0 c60 0 60 0 60 -30 0
-27 3 -30 30 -30 27 0 30 -3 30 -30 0 -27 -3 -30 -30 -30 -27 0 -30 -3 -30
-30 l0 -30 120 0 120 0 0 60 c0 60 0 60 -30 60 -27 0 -30 3 -30 30 0 27 -3 30
-30 30 -27 0 -30 3 -30 30 0 27 3 30 30 30 27 0 30 3 30 30 0 27 -3 30 -30 30
l-30 0 0 90 0 90 30 0 c25 0 30 4 30 25 l0 25 115 0 115 0 0 -25z m-530 -115
c0 -27 -3 -30 -30 -30 -27 0 -30 3 -30 30 0 27 3 30 30 30 27 0 30 -3 30 -30z
m950 0 c0 -27 -3 -30 -30 -30 -27 0 -30 3 -30 30 0 27 3 30 30 30 27 0 30 -3
30 -30z m-1010 -300 l0 -90 -30 0 -30 0 0 90 0 90 30 0 30 0 0 -90z m1070 0
l0 -90 -30 0 -30 0 0 90 0 90 30 0 30 0 0 -90z m-420 -480 c0 -27 -3 -30 -30
-30 -27 0 -30 -3 -30 -30 l0 -30 -85 0 -85 0 0 30 c0 27 -3 30 -30 30 -27 0
-30 3 -30 30 l0 30 145 0 145 0 0 -30z m-530 -540 c0 -27 3 -30 30 -30 30 0
30 -1 30 -55 0 -54 0 -55 -30 -55 -27 0 -30 3 -30 30 0 27 -3 30 -30 30 -30 0
-30 1 -30 55 0 54 0 55 30 55 27 0 30 -3 30 -30z m830 -25 c0 -54 0 -55 -30
-55 -27 0 -30 -3 -30 -30 0 -27 -3 -30 -30 -30 -30 0 -30 1 -30 55 0 54 0 55
30 55 27 0 30 3 30 30 0 27 3 30 30 30 30 0 30 -1 30 -55z m-590 -325 c0 -27
-3 -30 -30 -30 -27 0 -30 3 -30 30 0 27 3 30 30 30 27 0 30 -3 30 -30z m350 0
c0 -27 -3 -30 -30 -30 -27 0 -30 3 -30 30 0 27 3 30 30 30 27 0 30 -3 30 -30z
m-290 -150 l0 -60 -120 0 -120 0 0 60 0 60 120 0 120 0 0 -60z m410 0 l0 -60
-120 0 -120 0 0 60 0 60 120 0 120 0 0 -60z"/>
<path d="M700 2310 c20 -13 33 -13 25 0 -3 6 -14 10 -23 10 -15 0 -15 -2 -2
-10z"/>
<path d="M951 2314 c0 -11 3 -14 6 -6 3 7 2 16 -1 19 -3 4 -6 -2 -5 -13z"/>
<path d="M690 1900 c0 -27 3 -30 30 -30 27 0 30 3 30 30 0 27 -3 30 -30 30
-27 0 -30 -3 -30 -30z"/>
<path d="M920 1900 c0 -27 3 -30 30 -30 27 0 30 3 30 30 0 27 -3 30 -30 30
-27 0 -30 -3 -30 -30z"/>
<path d="M450 1780 c0 -27 3 -30 30 -30 27 0 30 3 30 30 0 27 -3 30 -30 30
-27 0 -30 -3 -30 -30z"/>
<path d="M750 1540 l0 -30 85 0 85 0 0 30 0 30 -85 0 -85 0 0 -30z"/>
</g>
</svg>
