<?xml version="1.0" standalone="no"?>
<!DOCTYPE svg PUBLIC "-//W3C//DTD SVG 20010904//EN"
 "http://www.w3.org/TR/2001/REC-SVG-20010904/DTD/svg10.dtd">
<svg version="1.0" xmlns="http://www.w3.org/2000/svg"
 width="168.000000pt" height="278.000000pt" viewBox="0 0 168.000000 278.000000"
 preserveAspectRatio="xMidYMid meet">
<metadata>
Created by potrace 1.10, written by Peter Selinger 2001-2011
</metadata>
<g transform="translate(0.000000,278.000000) scale(0.100000,-0.100000)"
fill="#000000" stroke="none">
<path d="M580 2630 c0 -30 0 -30 -60 -30 -60 0 -60 0 -60 -30 0 -27 -3 -30
-30 -30 -27 0 -30 -3 -30 -30 0 -27 -3 -30 -30 -30 -27 0 -30 -3 -30 -30 0
-27 -3 -30 -30 -30 -30 0 -30 0 -30 -60 0 -60 0 -60 -30 -60 l-30 0 0 -205 0
-205 -60 0 -60 0 0 -60 c0 -60 0 -60 30 -60 27 0 30 -3 30 -30 0 -27 -3 -30
-30 -30 -27 0 -30 -3 -30 -30 0 -27 -3 -30 -30 -30 -27 0 -30 -3 -30 -30 0
-30 0 -30 60 -30 l60 0 0 -60 c0 -60 0 -60 -30 -60 -27 0 -30 -3 -30 -30 l0
-30 120 0 120 0 0 -90 0 -90 30 0 c27 0 30 3 30 30 0 30 0 30 60 30 l60 0 0
-60 c0 -60 0 -60 -30 -60 -27 0 -30 -3 -30 -30 0 -27 -3 -30 -30 -30 -27 0
-30 -3 -30 -30 0 -27 3 -30 30 -30 27 0 30 -3 30 -30 0 -27 -3 -30 -30 -30
l-30 0 0 -90 0 -90 -30 0 -30 0 0 -85 0 -85 30 0 c27 0 30 -3 30 -30 0 -27 3
-30 30 -30 27 0 30 -3 30 -30 0 -30 0 -30 60 -30 l60 0 0 -90 0 -90 -30 0
c-27 0 -30 -3 -30 -30 0 -27 -3 -30 -30 -30 l-30 0 0 -90 0 -90 175 0 175 0 0
210 0 210 30 0 30 0 0 -210 0 -210 180 0 180 0 0 90 0 90 -30 0 c-27 0 -30 3
-30 30 0 27 -3 30 -30 30 l-30 0 0 90 0 90 60 0 c60 0 60 0 60 30 0 27 3 30
30 30 27 0 30 3 30 30 0 27 3 30 30 30 l30 0 0 85 0 85 -30 0 -30 0 0 90 0 90
-30 0 c-27 0 -30 3 -30 30 0 27 3 30 30 30 27 0 30 3 30 30 0 27 -3 30 -30 30
-27 0 -30 3 -30 30 0 27 -3 30 -30 30 -30 0 -30 0 -30 60 l0 60 60 0 c60 0 60
0 60 -30 0 -27 3 -30 30 -30 l30 0 0 90 0 90 120 0 120 0 0 30 c0 27 -3 30
-30 30 -30 0 -30 0 -30 60 l0 60 60 0 c60 0 60 0 60 30 0 27 -3 30 -30 30 -27
0 -30 3 -30 30 0 27 -3 30 -30 30 -27 0 -30 3 -30 30 0 27 3 30 30 30 30 0 30
0 30 60 l0 60 -60 0 -60 0 0 205 0 205 -30 0 c-30 0 -30 0 -30 60 0 60 0 60
-30 60 -27 0 -30 3 -30 30 0 27 -3 30 -30 30 -27 0 -30 3 -30 30 0 27 -3 30
-30 30 -27 0 -30 3 -30 30 0 30 0 30 -60 30 -60 0 -60 0 -60 30 l0 30 -265 0
-265 0 0 -30z m590 -475 c0 -21 5 -25 30 -25 27 0 30 -3 30 -30 0 -27 3 -30
30 -30 27 0 30 -3 30 -30 0 -27 -3 -30 -30 -30 -27 0 -30 3 -30 30 l0 30 -90
0 -90 0 0 30 0 30 -205 0 -205 0 0 -30 0 -30 -90 0 -90 0 0 -30 c0 -27 -3 -30
-30 -30 -27 0 -30 3 -30 30 0 27 3 30 30 30 27 0 30 3 30 30 0 27 3 30 30 30
25 0 30 4 30 25 l0 25 325 0 325 0 0 -25z m-180 -175 l0 -30 120 0 120 0 0
-30 c0 -27 3 -30 30 -30 l30 0 0 -120 0 -120 -30 0 c-27 0 -30 -3 -30 -30 0
-27 3 -30 30 -30 27 0 30 -3 30 -30 0 -27 -3 -30 -30 -30 -27 0 -30 -3 -30
-30 0 -30 0 -30 -60 -30 -60 0 -60 0 -60 -30 0 -30 0 -30 -60 -30 -60 0 -60 0
-60 -30 l0 -30 -145 0 -145 0 0 30 c0 30 0 30 -60 30 -60 0 -60 0 -60 30 0 30
0 30 -60 30 -60 0 -60 0 -60 30 0 27 -3 30 -30 30 l-30 0 0 150 0 150 -30 0
c-27 0 -30 -3 -30 -30 0 -27 -3 -30 -30 -30 -27 0 -30 -3 -30 -30 0 -27 3 -30
30 -30 27 0 30 -3 30 -30 0 -27 -3 -30 -30 -30 -27 0 -30 3 -30 30 0 27 -3 30
-30 30 -27 0 -30 3 -30 30 0 27 -3 30 -30 30 -27 0 -30 3 -30 30 l0 30 90 0
90 0 0 30 c0 27 3 30 30 30 27 0 30 3 30 30 0 30 0 30 60 30 60 0 60 0 60 30
l0 30 235 0 235 0 0 -30z m540 -180 c0 -27 -3 -30 -30 -30 -27 0 -30 -3 -30
-30 0 -27 -3 -30 -30 -30 -27 0 -30 -3 -30 -30 0 -27 -3 -30 -30 -30 -27 0
-30 3 -30 30 0 27 3 30 30 30 27 0 30 3 30 30 0 27 -3 30 -30 30 -27 0 -30 3
-30 30 l0 30 90 0 90 0 0 -30z m-600 -540 l0 -30 -85 0 -85 0 0 30 0 30 85 0
85 0 0 -30z m-410 -330 c0 -60 0 -60 -30 -60 -30 0 -30 0 -30 60 0 60 0 60 30
60 30 0 30 0 30 -60z m710 0 c0 -60 0 -60 -30 -60 -30 0 -30 0 -30 60 0 60 0
60 30 60 30 0 30 0 30 -60z m-470 -710 l0 -60 -120 0 -120 0 0 60 0 60 120 0
120 0 0 -60z m410 0 l0 -60 -120 0 -120 0 0 60 0 60 120 0 120 0 0 -60z"/>
<path d="M520 1920 c0 -27 -3 -30 -30 -30 l-30 0 0 -120 0 -120 30 0 c27 0 30
-3 30 -30 l0 -30 90 0 90 0 0 30 c0 27 3 30 30 30 l30 0 0 120 0 120 -30 0
c-27 0 -30 3 -30 30 l0 30 -90 0 -90 0 0 -30z m120 -60 c0 -27 -3 -30 -30 -30
-27 0 -30 3 -30 30 0 27 3 30 30 30 27 0 30 -3 30 -30z m0 -180 c0 -27 -3 -30
-30 -30 -27 0 -30 3 -30 30 0 27 3 30 30 30 27 0 30 -3 30 -30z"/>
<path d="M930 1920 c0 -27 -3 -30 -30 -30 l-30 0 0 -120 0 -120 30 0 c27 0 30
-3 30 -30 0 -27 3 -30 30 -30 27 0 30 -3 30 -30 l0 -30 120 0 120 0 0 30 0 30
-120 0 -120 0 0 30 c0 27 3 30 30 30 27 0 30 3 30 30 0 27 3 30 30 30 27 0 30
-3 30 -30 0 -27 3 -30 30 -30 30 0 30 0 30 60 0 60 0 60 30 60 l30 0 0 60 0
61 -57 -3 c-55 -3 -58 -4 -61 -30 -3 -26 -7 -28 -45 -28 -27 0 -37 3 -29 9 23
14 10 46 -21 49 -23 3 -27 8 -27 33 0 26 -3 29 -30 29 -27 0 -30 -3 -30 -30z
m62 -60 c4 -28 3 -30 -29 -30 -30 0 -33 3 -33 30 0 26 3 30 29 30 24 0 29 -5
33 -30z m115 -67 c-4 -3 -7 0 -7 7 0 7 3 10 7 7 3 -4 3 -10 0 -14z m-117 -113
c0 -27 -3 -30 -30 -30 -27 0 -30 3 -30 30 0 27 3 30 30 30 27 0 30 -3 30 -30z"/>
<path d="M810 1500 c0 -25 -4 -30 -25 -30 -21 0 -25 -5 -25 -30 0 -25 4 -30
25 -30 21 0 25 5 25 30 0 27 3 30 30 30 27 0 30 -3 30 -30 0 -27 3 -30 30 -30
27 0 30 3 30 30 0 27 -3 30 -30 30 -27 0 -30 3 -30 30 0 27 -3 30 -30 30 -27
0 -30 -3 -30 -30z"/>
</g>
</svg>
