<?xml version="1.0" standalone="no"?>
<!DOCTYPE svg PUBLIC "-//W3C//DTD SVG 20010904//EN"
 "http://www.w3.org/TR/2001/REC-SVG-20010904/DTD/svg10.dtd">
<svg version="1.0" xmlns="http://www.w3.org/2000/svg"
 width="300.000000pt" height="300.000000pt" viewBox="0 0 300.000000 300.000000"
 preserveAspectRatio="xMidYMid meet">
<metadata>
Created by potrace 1.10, written by Peter Selinger 2001-2011
</metadata>
<g transform="translate(0.000000,300.000000) scale(0.100000,-0.100000)"
fill="#000000" stroke="none">
<path d="M1040 2964 c-112 -36 -303 -135 -407 -210 -109 -78 -259 -227 -343
-339 -122 -165 -227 -413 -266 -630 -42 -238 -23 -504 52 -733 162 -489 568
-870 1064 -997 177 -46 415 -58 598 -30 595 89 1085 519 1242 1091 26 97 25
110 -9 145 -43 43 -91 40 -156 -9 -97 -72 -171 -117 -260 -155 -500 -216
-1074 -46 -1384 411 -140 207 -208 475 -183 722 24 233 85 393 228 594 36 51
41 74 23 109 -32 62 -82 70 -199 31z"/>
</g>
</svg>
