<svg version="1.1" xmlns="http://www.w3.org/2000/svg" style="display: block;" viewBox="0 0 2048 2048" width="512" height="512" preserveAspectRatio="none">
<path transform="translate(0,0)" fill="rgb(0,0,0)" d="M 257.122 0 L 1804.2 0 C 1802.43 146.344 1804.03 296.164 1804.04 442.751 L 1804.06 632.668 C 1804.06 663.425 1803.15 698.563 1804.18 728.849 C 1838.5 745.304 1863.06 770.564 1863.59 810.879 C 1864.41 874.055 1864.92 938.38 1863.18 1001.51 C 1862.19 1037.64 1836 1064.43 1804.54 1079.03 C 1802.71 1106.44 1804.06 1147.24 1804.06 1175.97 L 1804.06 1359.5 L 1804.06 1817.13 C 1804.06 1892.89 1805.31 1972.53 1804 2048 L 1624.15 2048 L 1624.27 2017.7 C 1618.62 2018.65 1571.38 2019.25 1564 2018.89 L 1563.92 2048 L 314.284 2048 C 309.582 2045.72 292.95 2042.3 286.826 2040.33 C 265.045 2033.34 244.028 2020.09 227.993 2004.02 C 204.506 1980.8 189.528 1950.35 185.476 1917.58 C 183.272 1900.03 184.003 1873.81 184.008 1855.55 L 184.063 1754.48 L 184.054 1420.66 L 184.028 300.077 C 193.744 300.228 203.462 300.176 213.176 299.921 C 212.958 279.947 212.946 259.971 213.141 239.996 C 203.382 239.979 193.623 240.076 183.865 240.288 C 185.319 207.99 184.007 172.313 183.989 138.517 C 183.963 87.7137 178.671 38.4206 231.952 10.2783 C 239.402 6.34365 248.07 4.42433 255.411 0.84901 L 257.122 0 z"/>
<path transform="translate(0,0)" fill="rgb(254,254,254)" d="M 344.05 1808.13 L 1743.97 1808.08 L 1743.98 1867.92 L 334.145 1868.03 L 333.97 1928 L 1743.98 1928.08 L 1743.98 1987.91 L 1624.1 1988.06 C 1624.04 1997.37 1623.69 2008.55 1624.27 2017.7 C 1618.62 2018.65 1571.38 2019.25 1564 2018.89 L 1564.01 1988.01 L 725.045 1987.96 L 479.527 1987.99 C 436.256 1988 387.281 1989.09 344.403 1987.66 L 341.425 1986.69 C 336.711 1979.64 330.469 1973.5 325.613 1966.69 C 297.723 1927.66 297.121 1873.77 322.902 1833.53 C 325.791 1829.02 339.771 1810.2 344.05 1808.13 z"/>
<path transform="translate(0,0)" fill="rgb(187,106,215)" d="M 244.113 240.129 L 243.997 139.601 C 243.988 123.756 241.641 87.4817 248.879 73.9762 C 258.008 56.9439 285.952 59.9272 303.903 60.1956 L 304.04 427.373 C 281.001 432.192 263.655 439.91 244.45 453.809 C 243.135 403.316 244.347 350.6 244.015 299.894 L 213.176 299.921 C 212.958 279.947 212.946 259.971 213.141 239.996 L 244.113 240.129 z"/>
<path transform="translate(0,0)" fill="rgb(181,230,250)" d="M 344.403 1987.66 C 308.125 1987.67 280.474 1979.25 259.131 1947.59 C 228.602 1902.3 247.099 1837.69 297.442 1815.99 C 313.542 1809.05 326.595 1808.21 344.05 1808.13 C 339.771 1810.2 325.791 1829.02 322.902 1833.53 C 297.121 1873.77 297.723 1927.66 325.613 1966.69 C 330.469 1973.5 336.711 1979.64 341.425 1986.69 L 344.403 1987.66 z"/>
<path transform="translate(0,0)" fill="rgb(214,156,229)" d="M 664.039 60.1383 L 1174.62 60.1116 C 1263.57 60.1127 1355.08 59.0369 1443.85 60.2898 C 1443.86 102.62 1443.33 146.665 1444.05 188.853 C 1495.67 188.917 1532.75 189.587 1573.31 229.678 C 1613.82 269.724 1615.24 308.044 1615.34 360.051 L 1743.96 360.162 L 1743.95 723.911 L 1654.08 723.91 L 1653.99 1084.15 L 1743.95 1084.18 L 1743.95 1447.94 L 1615.54 1447.96 C 1615.29 1462.18 1615.5 1481.6 1614.1 1495.21 C 1611.01 1525.18 1594.74 1558.4 1572.6 1579.08 C 1532.4 1616.62 1496.7 1620.12 1445.12 1619.19 L 1443.98 1619.16 L 1443.91 1747.9 L 664.23 1747.96 L 664.017 1619.12 C 611.173 1619.26 574.146 1617.37 534.901 1578.47 C 495.7 1539.61 491.938 1500.6 492.407 1448.92 C 492.415 1447.96 487.291 1447.82 486.52 1447.83 C 447.659 1448.89 403.475 1447.95 364.223 1447.93 C 363.442 1405.67 364.055 1361.52 364.054 1319.15 L 364.06 1080.44 L 364.064 360.156 L 424.103 360.085 L 492.94 360.089 C 492.88 308.728 493.844 270.614 533.711 230.639 C 574.476 189.761 611.92 188.928 664.11 188.85 L 664.039 60.1383 z"/>
<path transform="translate(0,0)" fill="rgb(187,106,215)" d="M 364.064 360.156 L 424.103 360.085 C 422.566 501.435 424.049 645.892 424.046 787.404 L 424.062 1447.18 C 434.961 1447.15 477.803 1446.35 486.52 1447.83 C 447.659 1448.89 403.475 1447.95 364.223 1447.93 C 363.442 1405.67 364.055 1361.52 364.054 1319.15 L 364.06 1080.44 L 364.064 360.156 z"/>
<path transform="translate(0,0)" fill="rgb(0,0,0)" d="M 1027.53 634.441 C 1072.41 632.028 1127.96 635.897 1172.07 643.972 C 1341.98 675.074 1448.92 766.206 1544.76 904.051 C 1522.13 936.349 1501.61 964.551 1474.97 993.677 C 1366.27 1112.5 1240.94 1166.79 1081.25 1173.58 C 1033.88 1175.97 976.067 1171.7 929.675 1162.84 C 766.8 1131.72 654.427 1038.36 563.337 903.916 C 680.598 732.772 817.481 643.457 1027.53 634.441 z"/>
<path transform="translate(0,0)" fill="rgb(253,239,142)" d="M 1045.07 694.469 C 1160.72 689.532 1258.5 779.232 1263.53 894.879 C 1268.56 1010.53 1178.94 1108.38 1063.3 1113.51 C 947.524 1118.64 849.531 1028.89 844.494 913.112 C 839.456 797.331 929.283 699.412 1045.07 694.469 z"/>
<path transform="translate(0,0)" fill="rgb(0,0,0)" d="M 1042.92 754.42 C 1051.85 753.261 1067.16 754.296 1076.02 755.647 C 1115.75 761.701 1151.43 783.325 1175.18 815.74 C 1198.73 848.243 1208.32 888.814 1201.8 928.422 C 1195.32 967.726 1173.44 1002.83 1141.02 1025.96 C 1105.42 1051.5 1066.32 1058.1 1023.77 1050.88 C 1019.42 1049.87 1015.1 1048.75 1010.81 1047.53 C 972.481 1035.89 940.362 1009.48 921.541 974.121 C 893.182 920.606 904.376 878.27 920.833 825.071 C 944.523 841.985 982.955 868.043 998.218 826.013 C 1003.49 811.492 982.934 783.489 975.217 770.12 C 1000.18 765.035 1014.19 757.048 1042.92 754.42 z"/>
<path transform="translate(0,0)" fill="rgb(254,225,40)" d="M 1059.39 813.721 C 1082.61 817.426 1099.62 822.98 1117 839.999 C 1134.25 856.8 1143.88 879.929 1143.65 904.01 C 1143.85 928.084 1134.22 951.198 1116.97 967.995 C 1097.77 986.892 1075.32 993.968 1048.91 993.798 C 1000.23 988.877 970.46 957.918 964.269 909.995 C 1021.89 907.646 1058.05 871.493 1059.39 813.721 z"/>
<path transform="translate(0,0)" fill="rgb(254,254,254)" d="M 842.231 734.219 C 843.563 736.869 831.823 750.743 829.671 754.026 C 762.621 856.294 771.215 980.567 845.676 1075.74 C 806.905 1056.45 788.405 1047.54 752.494 1021.68 C 720.525 997.732 691.381 970.228 665.622 939.698 C 655.619 927.97 646.73 915.796 636.895 904.152 C 699.221 823.947 749.478 777.397 842.231 734.219 z"/>
<path transform="translate(0,0)" fill="rgb(254,254,254)" d="M 1264.59 734.017 C 1274.57 737.552 1296.47 749.005 1306.13 754.345 C 1377.35 793.712 1421.6 842.007 1471.31 904.144 C 1461.45 915.212 1451.55 929.145 1441.44 940.876 C 1416.96 969.646 1389.47 995.721 1359.46 1018.66 C 1321.99 1047.53 1302.11 1054.87 1262.19 1075.79 C 1285.99 1046.64 1303.58 1012.92 1313.85 976.711 C 1331.29 914.438 1325.09 841.53 1295.75 783.778 C 1290.04 772.777 1283.63 762.153 1276.56 751.971 C 1273.46 747.434 1267.77 739.865 1265.42 735.568 L 1264.59 734.017 z"/>
<path transform="translate(0,0)" fill="rgb(0,0,0)" d="M 1024.04 333.862 C 1043 334.401 1064.93 333.953 1084.08 333.97 L 1084.07 574.119 L 1024.01 574.076 C 1023.18 494.912 1023.51 413.087 1024.04 333.862 z"/>
<path transform="translate(0,0)" fill="rgb(0,0,0)" d="M 1024.04 1233.82 C 1042.7 1234.42 1065.12 1233.92 1084.03 1233.94 L 1084.14 1474.07 L 1024.01 1474 L 1024.04 1233.82 z"/>
<path transform="translate(0,0)" fill="rgb(0,0,0)" d="M 884.436 1219.54 C 904.219 1223.19 924.252 1228.15 943.88 1231.48 C 935.385 1269.57 928.758 1308.43 920.618 1346.62 C 918.139 1358.26 915.736 1370.32 913.707 1382.02 C 900.706 1378.69 867.591 1371.98 854.455 1370.39 C 858.494 1353.86 862.063 1333.05 865.442 1316.13 C 871.975 1283.97 878.307 1251.78 884.436 1219.54 z"/>
<path transform="translate(0,0)" fill="rgb(0,0,0)" d="M 1222.26 1221.29 L 1223.07 1221.33 C 1223.56 1221.76 1224.04 1222.19 1224.52 1222.63 C 1233.7 1264.83 1245.04 1331.41 1254.6 1371.48 C 1238.31 1373.81 1213.73 1379.37 1197.34 1382.71 L 1195.74 1382.45 C 1193.64 1379.36 1167.91 1246.36 1165.16 1232.62 C 1184.21 1228.95 1203.25 1225.18 1222.26 1221.29 z"/>
<path transform="translate(0,0)" fill="rgb(0,0,0)" d="M 1194.88 424.806 C 1208.55 428.668 1239.69 433.945 1254.23 436.745 C 1243.14 485.041 1234.03 538.416 1223.78 587.38 C 1205.61 583.209 1183.26 578.428 1164.94 575.642 C 1174.79 525.484 1185.47 474.996 1194.88 424.806 z"/>
<path transform="translate(0,0)" fill="rgb(0,0,0)" d="M 911.621 426.214 C 911.847 426.227 913.324 426.22 913.547 427.214 C 920.269 457.153 938.116 552.497 943.858 576.317 C 925.683 579.379 905.112 584.086 886.508 587.532 L 884.642 586.986 C 883.401 584.701 878.154 555.863 877.079 550.849 C 869.094 513.586 862.83 474.78 854.239 437.724 C 873.479 434.474 892.615 430.635 911.621 426.214 z"/>
<path transform="translate(0,0)" fill="rgb(0,0,0)" d="M 1350.14 1179.08 C 1353.25 1181.48 1377.58 1245.03 1381.23 1254.29 L 1326.64 1275.99 C 1326.08 1275.71 1325.51 1275.43 1324.95 1275.15 C 1316.12 1254.26 1303.32 1221.02 1295.28 1201.09 C 1312.81 1194.5 1332.97 1186.51 1350.14 1179.08 z"/>
<path transform="translate(0,0)" fill="rgb(0,0,0)" d="M 781.231 533.982 L 783.268 534.642 C 793.622 557.293 803.785 585.49 813.4 609.087 C 804.764 611.233 769.498 626.119 759.233 630.09 L 757.547 630.435 C 752.369 624.11 732.698 568.076 726.867 555.921 C 744.409 549.156 764.081 541.518 781.231 533.982 z"/>
<path transform="translate(0,0)" fill="rgb(0,0,0)" d="M 1324.94 531.405 C 1333.74 536.219 1370.01 549.872 1380.77 553.925 C 1371.3 578.656 1359.64 605.154 1350.96 629.893 C 1338.47 623.503 1308.31 612.035 1294.67 607.035 C 1303.97 587.585 1316.76 552.486 1324.94 531.405 z"/>
<path transform="translate(0,0)" fill="rgb(0,0,0)" d="M 756.862 1176.46 C 769.992 1182.86 798.826 1193.38 813.253 1198.97 L 783.057 1274.7 C 769.398 1268.01 741.719 1257.18 727.102 1251.93 C 731.517 1242.84 737.014 1227.88 740.9 1218.2 C 745.978 1205.55 753.017 1189.23 756.862 1176.46 z"/>
<path transform="translate(0,0)" fill="rgb(254,254,254)" d="M 963.935 120.021 L 1023.99 119.956 L 1023.97 180.013 L 964.049 180 L 963.935 120.021 z"/>
<path transform="translate(0,0)" fill="rgb(254,254,254)" d="M 1083.98 119.974 C 1103.72 120.228 1124.19 119.985 1143.97 119.987 L 1143.98 179.997 L 1084.08 179.996 L 1083.98 119.974 z"/>
<path transform="translate(0,0)" fill="rgb(214,156,229)" d="M 301.795 490.018 L 302.73 490.373 C 304.856 493.792 303.913 565.798 303.911 576.711 L 303.903 735.293 L 304.073 1267.27 C 282.2 1271.22 263.84 1280.46 245.752 1292.92 C 244.942 1292.53 245.507 1292.85 244.365 1291.54 C 243.268 1242.94 244.069 1191.22 244.063 1142.38 L 244.049 867.442 L 244.059 678.711 C 244.062 643.834 243.787 609.075 244.621 574.198 C 245.591 533.68 265.466 506.678 301.795 490.018 z"/>
<path transform="translate(0,0)" fill="rgb(253,239,142)" d="M 1673.34 1508.06 L 1743.98 1508.14 L 1743.92 1747.96 L 1574.5 1747.91 L 1504.15 1747.94 L 1504.05 1677.39 C 1598.07 1657.94 1653.73 1601.88 1673.34 1508.06 z"/>
<path transform="translate(0,0)" fill="rgb(253,239,142)" d="M 1504.05 60.0752 L 1743.99 60.155 L 1743.91 299.976 L 1673.42 300 C 1654.1 207.235 1597.89 149.034 1504.17 130.757 C 1503.79 107.486 1504.07 83.4062 1504.05 60.0752 z"/>
<path transform="translate(0,0)" fill="rgb(253,239,142)" d="M 364.112 1508.16 L 424.898 1508.14 C 428.323 1508.06 431.618 1507.49 434.369 1509.2 C 437.568 1516.68 438.07 1524.86 440.042 1532.71 C 441.359 1537.95 443.644 1543.94 445.622 1549.05 C 465.65 1601.96 506.964 1644.02 559.497 1665.01 C 575.174 1671.3 587.646 1674.01 603.881 1677.47 L 603.924 1747.96 L 423.673 1747.93 C 404.172 1747.54 383.767 1747.87 364.2 1747.89 C 363.117 1668.9 364.089 1587.4 364.112 1508.16 z"/>
<path transform="translate(0,0)" fill="rgb(254,225,40)" d="M 364.112 1508.16 L 424.898 1508.14 C 423.905 1512.51 424.086 1553.58 424.066 1561.35 L 424.069 1683.46 C 424.08 1701.29 424.944 1730.82 423.673 1747.93 C 404.172 1747.54 383.767 1747.87 364.2 1747.89 C 363.117 1668.9 364.089 1587.4 364.112 1508.16 z"/>
<path transform="translate(0,0)" fill="rgb(253,239,142)" d="M 423.607 60.1152 C 483.448 60.1189 544.238 59.546 603.996 60.1959 L 604.031 130.63 C 526.922 146.25 472.452 188.521 444.063 262.582 C 441.592 269.029 435.889 296.883 433.638 299.389 C 429.205 300.277 428.34 300.142 423.732 299.934 C 403.903 299.813 384.073 299.809 364.244 299.921 C 362.803 221.958 364.11 138.53 364.106 60.1866 L 423.607 60.1152 z"/>
<path transform="translate(0,0)" fill="rgb(254,225,40)" d="M 364.106 60.1866 L 423.607 60.1152 C 424.669 78.5555 424.076 101 424.052 119.708 L 423.981 221.059 C 424.001 236.378 424.124 251.697 424.349 267.014 C 424.483 276.054 425.313 291.495 423.732 299.934 C 403.903 299.813 384.073 299.809 364.244 299.921 C 362.803 221.958 364.11 138.53 364.106 60.1866 z"/>
<path transform="translate(0,0)" fill="rgb(187,106,215)" d="M 301.572 1330 L 302.722 1330.21 C 305.71 1336.35 303.877 1708.81 304.082 1751.08 C 280.346 1756.41 266.482 1763.01 246.529 1776.31 L 244.89 1776.24 C 243.38 1771.13 244.074 1743.1 244.112 1736.3 L 244.119 1673.67 L 244.065 1509.47 C 244.056 1479.2 243.818 1448.68 244.368 1418.44 C 244.528 1409.66 246.012 1393.43 249.009 1385.21 C 259.255 1357.11 275.7 1342.71 301.572 1330 z"/>
<path transform="translate(0,0)" fill="rgb(253,239,142)" d="M 1714.02 784.049 C 1736.51 784.189 1763.45 781.787 1785.47 786.677 C 1791.97 788.119 1800.95 797.899 1802.01 804.639 C 1805.03 823.775 1804.02 844.228 1804.02 863.718 L 1803.94 959.747 C 1804.33 1031.26 1795.24 1024.2 1730.22 1023.92 L 1714.02 1023.85 L 1714.03 963.435 L 1714.02 784.049 z"/>
<path transform="translate(0,0)" fill="rgb(254,225,40)" d="M 1714.03 963.435 C 1731.91 965.166 1756.28 964.182 1774.43 963.184 C 1784.11 962.652 1793.87 960.091 1803.94 959.747 C 1804.33 1031.26 1795.24 1024.2 1730.22 1023.92 L 1714.02 1023.85 L 1714.03 963.435 z"/>
</svg>