<?xml version="1.0" standalone="no"?>
<!DOCTYPE svg PUBLIC "-//W3C//DTD SVG 20010904//EN"
 "http://www.w3.org/TR/2001/REC-SVG-20010904/DTD/svg10.dtd">
<svg version="1.0" xmlns="http://www.w3.org/2000/svg"
 width="300.000000pt" height="300.000000pt" viewBox="0 0 300.000000 300.000000"
 preserveAspectRatio="xMidYMid meet">
<metadata>
Created by potrace 1.10, written by Peter Selinger 2001-2011
</metadata>
<g transform="translate(0.000000,300.000000) scale(0.100000,-0.100000)"
fill="#000000" stroke="none">
<path d="M551 2983 c-26 -9 -65 -36 -92 -63 -63 -63 -79 -117 -79 -271 l0
-117 -65 -4 c-81 -5 -119 -35 -119 -94 0 -57 38 -84 120 -84 l64 0 0 -145 0
-145 -50 0 c-74 0 -115 -20 -129 -63 -10 -30 -9 -41 4 -67 19 -38 49 -50 121
-50 l54 0 0 -145 0 -145 -55 0 c-68 0 -108 -19 -125 -60 -10 -24 -10 -36 0
-60 17 -41 57 -60 125 -60 l55 0 0 -145 0 -145 -54 0 c-72 0 -102 -12 -121
-50 -13 -26 -14 -37 -4 -67 14 -43 55 -63 129 -63 l50 0 0 -145 0 -145 -64 0
c-82 0 -120 -27 -120 -84 0 -59 38 -89 119 -94 l65 -4 0 -117 c0 -154 16 -208
79 -271 70 -70 110 -80 313 -80 l168 0 0 1500 0 1500 -172 -1 c-130 0 -184 -4
-217 -16z m163 -482 c35 -33 36 -92 1 -126 -24 -24 -28 -25 -180 -25 l-155 0
0 91 0 91 154 -4 c147 -3 156 -4 180 -27z m0 -470 c18 -17 26 -35 26 -57 0
-82 -27 -94 -215 -94 l-145 0 0 91 0 90 154 -3 c148 -3 156 -4 180 -27z m-21
-453 c33 -17 46 -39 46 -78 0 -76 -32 -90 -213 -90 l-146 0 0 90 0 90 146 0
c91 0 153 -4 167 -12z m6 -473 c50 -25 58 -96 15 -136 -24 -23 -32 -24 -180
-27 l-154 -3 0 90 0 91 145 0 c109 0 153 -4 174 -15z m16 -480 c35 -34 34 -93
-1 -126 -24 -23 -33 -24 -180 -27 l-154 -4 0 91 0 91 155 0 c152 0 156 -1 180
-25z"/>
<path d="M1120 1500 l0 -1500 748 2 747 3 55 31 c66 37 113 101 129 174 15 71
15 2509 0 2580 -16 73 -63 137 -129 174 l-55 31 -747 3 -748 2 0 -1500z m1075
1016 c18 -8 38 -23 44 -34 15 -28 15 -436 0 -464 -23 -43 -61 -48 -364 -48
-303 0 -341 5 -364 48 -15 28 -15 436 0 463 23 44 57 48 362 49 226 0 295 -3
322 -14z"/>
<path d="M1680 2250 l0 -100 195 0 195 0 0 100 0 100 -195 0 -195 0 0 -100z"/>
</g>
</svg>
