<?xml version="1.0" standalone="no"?>
<!DOCTYPE svg PUBLIC "-//W3C//DTD SVG 20010904//EN"
 "http://www.w3.org/TR/2001/REC-SVG-20010904/DTD/svg10.dtd">
<svg version="1.0" xmlns="http://www.w3.org/2000/svg"
 width="300.000000pt" height="300.000000pt" viewBox="0 0 300.000000 300.000000"
 preserveAspectRatio="xMidYMid meet">
<metadata>
Created by potrace 1.10, written by Peter Selinger 2001-2011
</metadata>
<g transform="translate(0.000000,300.000000) scale(0.100000,-0.100000)"
fill="black" stroke="none">
<path d="M1442 2983 c-46 -22 -64 -63 -70 -159 l-5 -82 -53 -7 c-228 -28 -504
-165 -683 -338 -188 -183 -336 -471 -366 -711 l-7 -53 -82 -5 c-97 -6 -137
-24 -160 -72 -20 -43 -20 -69 0 -112 23 -48 63 -66 160 -72 l82 -5 7 -53 c20
-164 112 -389 219 -539 183 -254 464 -437 768 -499 42 -9 86 -16 96 -16 17 0
20 -10 24 -83 6 -98 24 -138 72 -161 43 -20 69 -20 112 0 48 23 66 63 72 160
l5 82 53 7 c237 29 520 174 701 357 181 185 319 458 348 692 l7 53 82 5 c97 6
137 24 160 72 20 43 20 69 0 112 -23 48 -63 66 -160 72 l-82 5 -7 53 c-28 228
-165 504 -338 683 -183 188 -471 336 -711 366 l-53 7 -5 82 c-6 97 -24 137
-72 160 -43 20 -72 20 -114 -1z m-62 -514 c0 -12 15 -36 34 -55 30 -30 40 -34
86 -34 46 0 56 4 86 34 19 19 34 44 34 56 0 21 3 22 48 15 216 -32 467 -180
607 -358 104 -131 189 -316 210 -459 7 -45 6 -48 -15 -48 -12 0 -37 -15 -56
-34 -30 -30 -34 -40 -34 -86 0 -46 4 -56 34 -86 19 -19 44 -34 56 -34 21 0 22
-3 15 -47 -32 -217 -180 -468 -358 -608 -131 -104 -316 -189 -459 -210 -45 -7
-48 -6 -48 15 0 12 -15 37 -34 56 -30 30 -40 34 -86 34 -46 0 -56 -4 -86 -34
-19 -19 -34 -44 -34 -56 0 -21 -3 -22 -47 -15 -143 21 -329 106 -459 208 -178
142 -327 393 -359 610 -7 44 -6 47 15 47 12 0 37 15 56 34 30 30 34 40 34 86
0 46 -4 56 -34 86 -19 19 -44 34 -56 34 -21 0 -22 3 -15 48 12 78 54 202 101
292 133 259 384 451 679 519 68 15 85 13 85 -10z"/>
<path d="M1340 2105 c-219 -60 -389 -234 -446 -455 -23 -91 -15 -270 16 -359
27 -76 105 -195 161 -246 63 -57 154 -111 227 -137 57 -20 87 -23 202 -23 162
0 229 19 344 96 117 78 204 189 248 317 20 58 23 86 23 207 0 134 -2 143 -33
220 -64 161 -197 294 -357 357 -72 28 -93 32 -205 35 -89 2 -141 -2 -180 -12z"/>
</g>
</svg>
