<?xml version="1.0" standalone="no"?>
<!DOCTYPE svg PUBLIC "-//W3C//DTD SVG 20010904//EN"
 "http://www.w3.org/TR/2001/REC-SVG-20010904/DTD/svg10.dtd">
<svg version="1.0" xmlns="http://www.w3.org/2000/svg"
 width="161.000000pt" height="284.000000pt" viewBox="0 0 161.000000 284.000000"
 preserveAspectRatio="xMidYMid meet">
<metadata>
Created by potrace 1.10, written by Peter Selinger 2001-2011
</metadata>
<g transform="translate(0.000000,284.000000) scale(0.100000,-0.100000)"
fill="#000000" stroke="none">
<path d="M470 2650 c0 -60 0 -60 -30 -60 -30 0 -30 0 -30 -60 0 -60 0 -60 -30
-60 -27 0 -30 3 -30 30 0 27 -3 30 -30 30 l-30 0 0 -120 0 -120 -30 0 c-30 0
-30 -1 -30 -55 0 -54 0 -55 -30 -55 l-30 0 0 -150 0 -150 30 0 30 0 0 -90 0
-90 30 0 30 0 0 -90 0 -90 30 0 c30 0 30 0 30 -60 0 -60 0 -60 30 -60 27 0 30
3 30 30 0 27 3 30 30 30 30 0 30 0 30 -60 0 -60 0 -60 30 -60 27 0 30 3 30 30
0 27 3 30 30 30 30 0 30 0 30 -60 0 -60 0 -60 -30 -60 -30 0 -30 0 -30 -60 0
-60 0 -60 -30 -60 -30 0 -30 0 -30 -60 0 -60 0 -60 -30 -60 l-30 0 0 -90 0
-90 -30 0 -30 0 0 -85 0 -85 30 0 c27 0 30 -3 30 -30 0 -27 3 -30 30 -30 27 0
30 -3 30 -30 0 -30 0 -30 60 -30 l60 0 0 -90 0 -90 -30 0 c-27 0 -30 -3 -30
-30 0 -27 -3 -30 -30 -30 l-30 0 0 -90 0 -90 175 0 175 0 0 210 0 210 30 0 30
0 0 -210 0 -210 180 0 180 0 0 90 0 90 -30 0 c-27 0 -30 3 -30 30 0 27 -3 30
-30 30 l-30 0 0 90 0 90 60 0 c60 0 60 0 60 30 0 27 3 30 30 30 27 0 30 3 30
30 0 27 3 30 30 30 l30 0 0 85 0 85 -30 0 -30 0 0 90 0 90 -30 0 c-30 0 -30 0
-30 60 0 60 0 60 -30 60 -30 0 -30 0 -30 60 0 60 0 60 -30 60 -30 0 -30 0 -30
60 0 60 0 60 30 60 27 0 30 -3 30 -30 0 -27 3 -30 30 -30 30 0 30 0 30 60 0
60 0 60 30 60 27 0 30 -3 30 -30 0 -27 3 -30 30 -30 30 0 30 0 30 60 0 60 0
60 30 60 l30 0 0 90 0 90 30 0 30 0 0 90 0 90 30 0 30 0 0 150 0 150 -30 0
c-30 0 -30 1 -30 55 0 54 0 55 30 55 l30 0 0 90 0 90 -30 0 c-27 0 -30 -3 -30
-30 0 -30 0 -30 -60 -30 l-60 0 0 120 0 120 -30 0 c-27 0 -30 -3 -30 -30 0
-27 -3 -30 -30 -30 -27 0 -30 -3 -30 -30 0 -27 -3 -30 -30 -30 -30 0 -30 0
-30 60 0 60 0 60 -30 60 -27 0 -30 3 -30 30 0 27 -3 30 -30 30 -27 0 -30 -3
-30 -30 0 -27 -3 -30 -30 -30 -27 0 -30 -3 -30 -30 l0 -30 -90 0 -90 0 0 30
c0 25 -4 30 -25 30 -21 0 -25 5 -25 30 0 27 -3 30 -30 30 -27 0 -30 -3 -30
-30 0 -27 -3 -30 -30 -30 -27 0 -30 -3 -30 -30 0 -30 0 -30 -60 -30 l-60 0 0
60 c0 60 0 60 -30 60 -30 0 -30 0 -30 -60z m300 -90 c0 -25 4 -30 25 -30 21 0
25 -5 25 -30 0 -27 3 -30 29 -30 26 0 30 -3 29 -30 -1 -26 -5 -30 -30 -30 -24
0 -28 4 -28 30 0 25 -4 30 -25 30 -21 0 -25 5 -25 30 0 27 -3 30 -30 30 -27 0
-30 3 -30 30 0 27 3 30 30 30 27 0 30 -3 30 -30z m350 0 c0 -27 -3 -30 -30
-30 -27 0 -30 -3 -30 -30 0 -27 -3 -30 -30 -30 -27 0 -30 -3 -30 -30 0 -27 -3
-30 -30 -30 -27 0 -30 3 -30 30 0 27 3 30 30 30 27 0 30 3 30 30 0 27 3 30 30
30 27 0 30 3 30 30 0 27 3 30 30 30 27 0 30 -3 30 -30z m-530 -60 c0 -27 3
-30 30 -30 27 0 30 -3 30 -30 0 -27 -3 -30 -30 -30 -27 0 -30 3 -30 30 0 27
-3 30 -30 30 -27 0 -30 3 -30 30 0 27 3 30 30 30 27 0 30 -3 30 -30z m650 -60
c0 -27 -3 -30 -30 -30 -27 0 -30 -3 -30 -30 l0 -30 90 0 90 0 0 -30 0 -30 -90
0 -90 0 0 30 c0 27 -3 30 -30 30 -27 0 -30 3 -30 30 0 27 3 30 30 30 27 0 30
3 30 30 0 27 3 30 30 30 27 0 30 -3 30 -30z m-530 -120 l0 -30 -120 0 -120 0
0 29 0 29 120 1 120 2 0 -31z m228 -115 c-2 -20 -8 -25 -30 -25 -24 0 -28 -4
-28 -30 0 -27 -3 -30 -30 -30 -27 0 -30 -3 -30 -30 0 -28 -19 -44 -21 -17 0
10 -2 10 -6 0 -12 -31 -23 -8 -23 47 0 57 1 60 25 60 20 0 25 5 25 25 0 24 3
25 60 25 58 0 60 -1 58 -25z m122 0 c0 -21 5 -25 31 -25 27 0 30 -3 27 -27 -2
-22 -9 -28 -30 -30 -25 -2 -28 2 -28 28 0 26 -3 29 -30 29 -25 0 -30 4 -30 25
0 21 5 25 30 25 25 0 30 -4 30 -25z m180 0 c0 -21 5 -25 30 -25 27 0 30 -3 30
-30 0 -27 3 -30 30 -30 30 0 30 0 30 -60 0 -60 0 -60 -30 -60 -30 0 -30 0 -30
60 0 60 0 60 -30 60 -27 0 -30 3 -30 30 0 27 -3 30 -30 30 -25 0 -30 4 -30 25
0 21 5 25 30 25 25 0 30 -4 30 -25z m-650 -115 c0 -28 -3 -30 -27 -28 -25 3
-28 -1 -31 -29 l-3 -33 90 0 91 0 0 -30 c0 -27 3 -30 30 -30 27 0 30 -3 30
-30 l0 -30 -150 0 -150 0 0 30 c0 27 3 30 30 30 27 0 30 3 30 30 0 27 -3 30
-30 30 -19 0 -33 -7 -40 -19 -13 -26 -13 -40 1 -21 9 13 10 13 6 0 -2 -8 -16
-16 -30 -18 -24 -3 -27 0 -27 27 0 28 3 31 30 31 27 0 30 3 30 30 0 27 3 30
30 30 21 0 30 5 30 16 0 9 5 12 13 8 10 -6 10 -4 0 7 -20 21 -15 29 17 29 27
0 30 -3 30 -30z m120 0 c0 -27 -3 -30 -30 -30 -27 0 -30 3 -30 30 0 27 3 30
30 30 27 0 30 -3 30 -30z m290 -30 c0 -60 0 -60 30 -60 27 0 30 -3 30 -30 0
-27 3 -30 30 -30 27 0 30 -3 30 -30 l0 -30 -90 0 -90 0 0 -90 0 -90 90 0 90 0
0 60 c0 60 0 60 30 60 27 0 30 -3 30 -30 0 -27 3 -30 30 -30 30 0 30 0 30 60
0 60 0 60 -30 60 -27 0 -30 3 -30 30 0 27 3 30 30 30 27 0 30 -3 30 -30 0 -27
3 -30 30 -30 l30 0 0 -150 0 -150 -30 0 c-27 0 -30 -3 -30 -30 0 -30 0 -30
-60 -30 -60 0 -60 0 -60 -30 0 -30 0 -30 -60 -30 -60 0 -60 0 -60 -30 l0 -30
-145 0 -145 0 0 30 c0 30 0 30 -60 30 -60 0 -60 0 -60 30 0 30 0 30 -60 30
-60 0 -60 0 -60 30 0 27 -3 30 -30 30 l-30 0 0 120 0 120 30 0 c27 0 30 -3 30
-30 0 -27 3 -30 30 -30 27 0 30 3 30 30 0 27 3 30 30 30 30 0 30 0 30 -60 l0
-60 90 0 90 0 0 60 c0 57 1 60 25 60 24 0 25 3 25 60 0 60 0 60 30 60 30 0 30
0 30 60 0 60 0 60 30 60 27 0 30 3 30 30 0 27 3 30 30 30 30 0 30 0 30 -60z
m180 0 c0 -60 0 -60 -30 -60 -30 0 -30 0 -30 60 0 60 0 60 30 60 30 0 30 0 30
-60z m240 -270 l0 -90 -30 0 -30 0 0 90 0 90 30 0 30 0 0 -90z m-1070 -30 c0
-60 0 -60 -30 -60 -30 0 -30 0 -30 60 0 60 0 60 30 60 30 0 30 0 30 -60z m360
30 c0 -27 -3 -30 -30 -30 -27 0 -30 3 -30 30 0 27 3 30 30 30 27 0 30 -3 30
-30z m350 0 c0 -27 -3 -30 -30 -30 -27 0 -30 3 -30 30 0 27 3 30 30 30 27 0
30 -3 30 -30z m-120 -540 l0 -30 -85 0 -85 0 0 30 0 30 85 0 85 0 0 -30z
m-350 -180 l0 -90 -30 0 -30 0 0 -175 0 -175 -30 0 c-27 0 -30 3 -30 30 0 27
-3 30 -30 30 l-30 0 0 85 0 85 30 0 30 0 0 90 0 90 30 0 c30 0 30 0 30 60 0
60 0 60 30 60 l30 0 0 -90z m350 60 l0 -30 -85 0 -85 0 0 30 0 30 85 0 85 0 0
-30z m240 -30 c0 -60 0 -60 30 -60 l30 0 0 -90 0 -90 30 0 30 0 0 -85 0 -85
-30 0 c-27 0 -30 -3 -30 -30 0 -27 -3 -30 -30 -30 l-30 0 0 175 0 175 -30 0
-30 0 0 90 0 90 30 0 c30 0 30 0 30 -60z m-240 -90 l0 -30 -85 0 -85 0 0 30 0
30 85 0 85 0 0 -30z m0 -120 l0 -30 -85 0 -85 0 0 30 0 30 85 0 85 0 0 -30z
m-230 -470 c0 -27 -3 -30 -30 -30 -27 0 -30 3 -30 30 0 27 3 30 30 30 27 0 30
-3 30 -30z m350 0 c0 -27 -3 -30 -30 -30 -27 0 -30 3 -30 30 0 27 3 30 30 30
27 0 30 -3 30 -30z m-290 -150 l0 -60 -120 0 -120 0 0 60 0 60 120 0 120 0 0
-60z m410 0 l0 -60 -120 0 -120 0 0 60 0 60 120 0 120 0 0 -60z"/>
<path d="M790 2110 c0 -7 3 -10 7 -7 3 4 3 10 0 14 -4 3 -7 0 -7 -7z"/>
<path d="M1313 2033 c4 -3 10 -3 14 0 3 4 0 7 -7 7 -7 0 -10 -3 -7 -7z"/>
<path d="M563 2073 c4 -3 10 -3 14 0 3 4 0 7 -7 7 -7 0 -10 -3 -7 -7z"/>
<path d="M490 2020 c0 -5 5 -10 10 -10 6 0 10 5 10 10 0 6 -4 10 -10 10 -5 0
-10 -4 -10 -10z"/>
<path d="M940 1970 c0 -27 3 -30 30 -30 27 0 30 3 30 30 0 27 -3 30 -30 30
-27 0 -30 -3 -30 -30z"/>
<path d="M820 1550 c0 -25 -4 -30 -25 -30 -21 0 -25 -5 -25 -30 0 -25 4 -30
25 -30 21 0 25 5 25 30 0 27 3 30 30 30 27 0 30 -3 30 -30 0 -27 3 -30 30 -30
27 0 30 3 30 30 0 27 -3 30 -30 30 -27 0 -30 3 -30 30 0 27 -3 30 -30 30 -27
0 -30 -3 -30 -30z"/>
</g>
</svg>
