<?xml version="1.0" standalone="no"?>
<!DOCTYPE svg PUBLIC "-//W3C//DTD SVG 20010904//EN"
 "http://www.w3.org/TR/2001/REC-SVG-20010904/DTD/svg10.dtd">
<svg version="1.0" xmlns="http://www.w3.org/2000/svg"
 width="160.000000pt" height="285.000000pt" viewBox="0 0 160.000000 285.000000"
 preserveAspectRatio="xMidYMid meet">
<metadata>
Created by potrace 1.10, written by Peter Selinger 2001-2011
</metadata>
<g transform="translate(0.000000,285.000000) scale(0.100000,-0.100000)"
fill="#000000" stroke="none">
<path d="M460 2660 c0 -60 0 -60 -30 -60 -30 0 -30 0 -30 -60 0 -60 0 -60 -30
-60 -27 0 -30 3 -30 30 0 27 -3 30 -30 30 l-30 0 0 -120 0 -120 -30 0 c-30 0
-30 -1 -30 -55 0 -54 0 -55 -30 -55 l-30 0 0 -150 0 -150 30 0 30 0 0 -90 0
-90 30 0 30 0 0 -90 0 -90 30 0 c30 0 30 0 30 -60 0 -60 0 -60 30 -60 27 0 30
3 30 30 0 27 3 30 30 30 30 0 30 0 30 -60 0 -60 0 -60 30 -60 27 0 30 3 30 30
0 27 3 30 30 30 30 0 30 0 30 -60 0 -60 0 -60 -30 -60 -30 0 -30 0 -30 -60 0
-60 0 -60 -30 -60 -30 0 -30 0 -30 -60 0 -60 0 -60 -30 -60 l-30 0 0 -90 0
-90 -30 0 -30 0 0 -85 0 -85 30 0 c27 0 30 -3 30 -30 0 -27 3 -30 30 -30 27 0
30 -3 30 -30 0 -30 0 -30 60 -30 l60 0 0 -90 0 -90 -30 0 c-27 0 -30 -3 -30
-30 0 -27 -3 -30 -30 -30 l-30 0 0 -90 0 -90 175 0 175 0 0 210 0 210 30 0 30
0 0 -210 0 -210 180 0 180 0 0 90 0 90 -30 0 c-27 0 -30 3 -30 30 0 27 -3 30
-30 30 l-30 0 0 90 0 90 60 0 c60 0 60 0 60 30 0 27 3 30 30 30 27 0 30 3 30
30 0 27 3 30 30 30 l30 0 0 85 0 85 -30 0 -30 0 0 90 0 90 -30 0 c-30 0 -30 0
-30 60 0 60 0 60 -30 60 -30 0 -30 0 -30 60 0 60 0 60 -30 60 -30 0 -30 0 -30
60 0 60 0 60 30 60 27 0 30 -3 30 -30 0 -27 3 -30 30 -30 30 0 30 0 30 60 0
60 0 60 30 60 27 0 30 -3 30 -30 0 -27 3 -30 30 -30 30 0 30 0 30 60 0 60 0
60 30 60 l30 0 0 90 0 90 30 0 30 0 0 90 0 90 30 0 30 0 0 150 0 150 -30 0
c-30 0 -30 1 -30 55 0 54 0 55 30 55 l30 0 0 90 0 90 -30 0 c-27 0 -30 -3 -30
-30 0 -30 0 -30 -60 -30 l-60 0 0 120 0 120 -30 0 c-27 0 -30 -3 -30 -30 0
-27 -3 -30 -30 -30 -27 0 -30 -3 -30 -30 0 -27 -3 -30 -30 -30 -30 0 -30 0
-30 60 0 60 0 60 -30 60 -27 0 -30 3 -30 30 0 27 -3 30 -30 30 -27 0 -30 -3
-30 -30 0 -27 -3 -30 -30 -30 -27 0 -30 -3 -30 -30 l0 -30 -90 0 -90 0 0 30
c0 25 -4 30 -25 30 -21 0 -25 5 -25 30 0 27 -3 30 -30 30 -27 0 -30 -3 -30
-30 0 -27 -3 -30 -30 -30 -27 0 -30 -3 -30 -30 0 -30 0 -30 -60 -30 l-60 0 0
60 c0 60 0 60 -30 60 -30 0 -30 0 -30 -60z m300 -90 c0 -23 4 -30 20 -30 15 0
22 -9 27 -30 4 -25 10 -30 34 -30 26 0 29 -4 29 -30 0 -27 -3 -30 -30 -30 -27
0 -30 3 -30 30 0 25 -4 30 -25 30 -21 0 -25 5 -25 30 0 27 -3 30 -30 30 -27 0
-30 3 -30 30 0 27 3 30 30 30 27 0 30 -3 30 -30z m350 0 c0 -27 -3 -30 -30
-30 -27 0 -30 -3 -30 -30 0 -27 -3 -30 -30 -30 -27 0 -30 -3 -30 -30 0 -27 -3
-30 -30 -30 -27 0 -30 3 -30 30 0 27 3 30 30 30 27 0 30 3 30 30 0 27 3 30 30
30 27 0 30 3 30 30 0 27 3 30 30 30 27 0 30 -3 30 -30z m-530 -60 c0 -27 3
-30 30 -30 27 0 30 -3 30 -30 0 -27 -3 -30 -30 -30 -27 0 -30 3 -30 30 0 27
-3 30 -30 30 -27 0 -30 3 -30 30 0 27 3 30 30 30 27 0 30 -3 30 -30z m650 -60
c0 -27 -3 -30 -30 -30 -27 0 -30 -3 -30 -30 l0 -30 73 -1 c39 -1 80 -1 90 0
13 2 17 -5 17 -27 l0 -29 -90 -2 -90 -2 0 30 c0 28 -3 31 -30 31 -27 0 -30 3
-30 30 0 27 3 30 30 30 29 0 36 10 31 48 -1 7 10 12 29 12 27 0 30 -3 30 -30z
m-530 -120 l0 -30 -120 0 -120 0 0 30 0 30 120 0 120 0 0 -30z m230 -116 c0
-22 -4 -25 -27 -22 -25 3 -28 -1 -31 -29 -3 -29 -7 -33 -33 -33 -26 0 -29 -3
-29 -30 0 -25 -4 -30 -25 -30 -24 0 -25 3 -25 60 0 57 1 60 25 60 18 0 25 5
25 18 0 27 5 29 65 31 53 1 55 0 55 -25z m120 1 c0 -21 5 -25 30 -25 27 0 30
-3 30 -30 0 -27 3 -30 30 -30 30 0 30 0 30 -60 0 -55 -10 -75 -25 -50 -3 6
-11 10 -16 10 -6 0 -7 -4 -4 -10 3 -5 1 -10 -5 -10 -7 0 -11 17 -9 43 3 73 2
77 -31 77 -27 0 -30 3 -30 30 0 27 -3 30 -30 30 -25 0 -30 4 -30 25 0 21 5 25
30 25 25 0 30 -4 30 -25z m180 0 c0 -21 5 -25 30 -25 27 0 30 -3 30 -30 0 -27
3 -30 30 -30 28 0 30 -2 30 -40 0 -31 -4 -40 -17 -41 -17 -1 -17 -2 0 -6 30
-8 20 -33 -13 -33 -30 0 -30 0 -30 60 0 60 0 60 -30 60 -27 0 -30 3 -30 30 0
27 -3 30 -30 30 -25 0 -30 4 -30 25 0 21 5 25 30 25 25 0 30 -4 30 -25z m-650
-115 c0 -27 -3 -30 -30 -30 -27 0 -30 -3 -30 -30 l0 -30 90 0 90 0 0 -30 c0
-27 3 -30 30 -30 30 0 30 0 30 -60 0 -57 1 -60 25 -60 24 0 25 3 25 60 0 60 0
60 30 60 30 0 30 0 30 60 0 60 0 60 30 60 27 0 30 3 30 30 0 27 3 30 30 30 30
0 30 0 30 -60 0 -60 0 -60 30 -60 27 0 30 -3 30 -30 0 -27 3 -30 30 -30 30 0
30 0 30 -60 0 -60 0 -60 30 -60 30 0 30 0 30 60 0 60 0 60 30 60 27 0 30 -3
30 -30 0 -27 3 -30 30 -30 l30 0 0 -150 0 -150 -30 0 c-27 0 -30 -3 -30 -30 0
-30 0 -30 -60 -30 -60 0 -60 0 -60 -30 0 -30 0 -30 -60 -30 -60 0 -60 0 -60
-30 l0 -30 -145 0 -145 0 0 30 c0 30 0 30 -60 30 -60 0 -60 0 -60 30 0 30 0
30 -60 30 -60 0 -60 0 -60 30 0 27 -3 30 -30 30 l-30 0 0 120 0 120 30 0 c30
0 30 0 30 60 0 60 0 60 -30 60 -27 0 -30 3 -30 30 0 27 3 30 30 30 27 0 30 3
30 30 0 27 3 30 30 30 27 0 30 3 30 30 0 27 3 30 30 30 27 0 30 -3 30 -30z
m120 0 c0 -27 -3 -30 -30 -30 -27 0 -30 3 -30 30 0 27 3 30 30 30 27 0 30 -3
30 -30z m710 -300 l0 -90 -30 0 -30 0 0 90 0 90 30 0 30 0 0 -90z m-1070 -30
c0 -60 0 -60 -30 -60 -30 0 -30 0 -30 60 0 60 0 60 30 60 30 0 30 0 30 -60z
m590 -510 l0 -30 -85 0 -85 0 0 30 0 30 85 0 85 0 0 -30z m-350 -180 l0 -90
-30 0 -30 0 0 -175 0 -175 -30 0 c-27 0 -30 3 -30 30 0 27 -3 30 -30 30 l-30
0 0 85 0 85 30 0 30 0 0 90 0 90 30 0 c30 0 30 0 30 60 0 60 0 60 30 60 l30 0
0 -90z m350 60 l0 -30 -85 0 -85 0 0 30 0 30 85 0 85 0 0 -30z m240 -30 c0
-60 0 -60 30 -60 l30 0 0 -90 0 -90 30 0 30 0 0 -85 0 -85 -30 0 c-27 0 -30
-3 -30 -30 0 -27 -3 -30 -30 -30 l-30 0 0 175 0 175 -30 0 -30 0 0 90 0 90 30
0 c30 0 30 0 30 -60z m-240 -90 l0 -30 -85 0 -85 0 0 30 0 30 85 0 85 0 0 -30z
m0 -120 l0 -30 -85 0 -85 0 0 30 0 30 85 0 85 0 0 -30z m-230 -470 c0 -27 -3
-30 -30 -30 -27 0 -30 3 -30 30 0 27 3 30 30 30 27 0 30 -3 30 -30z m350 0 c0
-27 -3 -30 -30 -30 -27 0 -30 3 -30 30 0 27 3 30 30 30 27 0 30 -3 30 -30z
m-290 -150 l0 -60 -120 0 -120 0 0 60 0 60 120 0 120 0 0 -60z m410 0 l0 -60
-120 0 -120 0 0 60 0 60 120 0 120 0 0 -60z"/>
<path d="M790 2166 c0 -2 8 -10 18 -17 15 -13 16 -12 3 4 -13 16 -21 21 -21
13z"/>
<path d="M540 2110 c0 -7 3 -10 7 -7 3 4 3 10 0 14 -4 3 -7 0 -7 -7z"/>
<path d="M490 2030 c0 -5 5 -10 10 -10 6 0 10 5 10 10 0 6 -4 10 -10 10 -5 0
-10 -4 -10 -10z"/>
<path d="M460 1980 c0 -27 3 -30 30 -30 27 0 30 3 30 30 0 27 -3 30 -30 30
-27 0 -30 -3 -30 -30z"/>
<path d="M930 1980 c0 -27 3 -30 30 -30 27 0 30 3 30 30 0 27 -3 30 -30 30
-27 0 -30 -3 -30 -30z"/>
<path d="M520 1860 c0 -27 3 -30 30 -30 27 0 30 -3 30 -30 0 -27 -3 -30 -30
-30 -27 0 -30 -3 -30 -30 0 -27 3 -30 30 -30 27 0 30 3 30 30 0 27 3 30 30 30
27 0 30 -3 30 -30 0 -27 3 -30 30 -30 27 0 30 3 30 30 0 27 -3 30 -30 30 -27
0 -30 3 -30 30 0 27 3 30 30 30 27 0 30 3 30 30 0 27 -3 30 -30 30 -27 0 -30
-3 -30 -30 0 -27 -3 -30 -30 -30 -27 0 -30 3 -30 30 0 27 -3 30 -30 30 -27 0
-30 -3 -30 -30z"/>
<path d="M990 1860 c0 -27 3 -30 30 -30 27 0 30 -3 30 -30 0 -27 -3 -30 -30
-30 -27 0 -30 -3 -30 -30 0 -27 3 -30 30 -30 27 0 30 3 30 30 0 27 3 30 30 30
27 0 30 -3 30 -30 0 -27 3 -30 30 -30 27 0 30 3 30 30 0 27 -3 30 -30 30 -27
0 -30 3 -30 30 0 27 -3 30 -30 30 -27 0 -30 3 -30 30 0 27 -3 30 -30 30 -27 0
-30 -3 -30 -30z"/>
<path d="M810 1560 c0 -25 -4 -30 -25 -30 -21 0 -25 -5 -25 -30 0 -25 4 -30
25 -30 21 0 25 5 25 30 0 27 3 30 30 30 27 0 30 -3 30 -30 0 -27 3 -30 30 -30
27 0 30 3 30 30 0 27 -3 30 -30 30 -27 0 -30 3 -30 30 0 27 -3 30 -30 30 -27
0 -30 -3 -30 -30z"/>
</g>
</svg>
