<?xml version="1.0" standalone="no"?>
<!DOCTYPE svg PUBLIC "-//W3C//DTD SVG 20010904//EN"
 "http://www.w3.org/TR/2001/REC-SVG-20010904/DTD/svg10.dtd">
<svg version="1.0" xmlns="http://www.w3.org/2000/svg"
 width="267.000000pt" height="267.000000pt" viewBox="0 0 267.000000 267.000000"
 preserveAspectRatio="xMidYMid meet">
<metadata>
Created by potrace 1.10, written by Peter Selinger 2001-2011
</metadata>
<g transform="translate(0.000000,267.000000) scale(0.100000,-0.100000)"
fill="#000000" stroke="none">
<path d="M895 2360 c-526 -342 -515 -335 -515 -359 0 -24 37 -52 58 -44 8 4
209 133 446 287 273 178 440 281 456 281 16 0 183 -103 456 -281 237 -154 438
-283 446 -287 21 -8 58 20 58 43 0 10 -15 30 -32 43 -78 59 -905 591 -923 594
-13 2 -169 -94 -450 -277z"/>
<path d="M990 2204 c-190 -124 -352 -232 -360 -240 -12 -12 84 -14 708 -14
397 0 722 3 721 8 0 6 -700 464 -717 469 -4 1 -162 -99 -352 -223z m518 -36
c18 -18 14 -56 -7 -68 -11 -5 -83 -10 -161 -10 -150 0 -180 7 -180 43 0 43 15
47 180 47 108 0 160 -4 168 -12z"/>
<path d="M190 2215 c-11 -14 -120 -582 -120 -627 0 -9 7 -24 16 -32 13 -14 48
-16 225 -16 l209 0 0 72 c0 60 -4 75 -22 95 -17 18 -23 39 -26 88 l-4 65 -32
0 c-73 0 -146 69 -146 139 0 57 32 96 132 162 51 33 95 63 97 65 2 2 -68 4
-156 4 -132 0 -163 -3 -173 -15z"/>
<path d="M2161 2226 c2 -2 46 -32 97 -65 53 -35 101 -75 112 -93 52 -86 -4
-190 -110 -204 l-48 -6 -4 -64 c-3 -48 -9 -69 -26 -87 -18 -20 -22 -35 -22
-95 l0 -72 209 0 c177 0 212 2 225 16 9 8 16 23 16 31 0 45 -104 601 -116 621
-14 21 -19 22 -176 22 -89 0 -159 -2 -157 -4z"/>
<path d="M560 1815 l0 -45 140 0 140 0 0 45 0 45 -140 0 -140 0 0 -45z"/>
<path d="M928 1795 c-3 -49 -9 -70 -26 -88 -18 -20 -22 -35 -22 -95 l0 -72
460 0 460 0 0 72 c0 60 -4 75 -22 95 -17 18 -23 39 -26 88 l-4 65 -408 0 -408
0 -4 -65z"/>
<path d="M1840 1815 l0 -45 140 0 140 0 0 45 0 45 -140 0 -140 0 0 -45z"/>
<path d="M610 1175 l0 -505 90 0 90 0 0 505 0 505 -90 0 -90 0 0 -505z"/>
<path d="M1890 1175 l0 -505 90 0 90 0 0 505 0 505 -90 0 -90 0 0 -505z"/>
<path d="M122 1438 c-7 -7 -12 -21 -12 -33 0 -42 14 -45 217 -45 l193 0 0 45
0 45 -193 0 c-137 0 -196 -3 -205 -12z"/>
<path d="M880 1405 l0 -45 460 0 460 0 0 45 0 45 -460 0 -460 0 0 -45z"/>
<path d="M2160 1405 l0 -45 193 0 c203 0 217 3 217 45 0 42 -14 45 -217 45
l-193 0 0 -45z"/>
<path d="M166 1254 c-14 -14 -16 -69 -16 -460 0 -288 4 -452 10 -465 10 -17
22 -19 115 -19 l105 0 0 59 c0 49 4 65 25 89 21 25 25 40 25 92 0 74 11 97 56
116 l34 14 0 295 0 295 -169 0 c-141 0 -172 -3 -185 -16z"/>
<path d="M880 975 l0 -295 34 -14 c45 -19 56 -42 56 -116 0 -52 4 -67 25 -92
21 -24 25 -40 25 -89 l0 -59 44 0 45 0 3 238 3 239 30 49 c19 30 49 60 79 79
42 25 59 30 116 30 57 0 74 -5 116 -30 30 -19 60 -49 79 -79 l30 -49 3 -239 3
-238 45 0 44 0 0 59 c0 49 4 65 25 89 21 25 25 40 25 92 0 74 11 97 56 116
l34 14 0 295 0 295 -460 0 -460 0 0 -295z m632 118 c113 -54 207 -159 187
-210 -6 -17 -17 -23 -37 -23 -22 0 -35 10 -60 45 -39 56 -101 101 -165 120
-137 41 -280 -7 -359 -120 -25 -35 -38 -45 -60 -45 -97 0 -5 155 134 226 70
36 113 44 210 40 71 -3 98 -9 150 -33z"/>
<path d="M2160 975 l0 -295 34 -14 c45 -19 56 -42 56 -116 0 -52 4 -67 25 -92
21 -24 25 -40 25 -89 l0 -59 105 0 c93 0 105 2 115 19 6 13 10 177 10 465 0
391 -2 446 -16 460 -13 13 -44 16 -185 16 l-169 0 0 -295z"/>
<path d="M1302 853 c-33 -7 -88 -66 -96 -103 -3 -18 -6 -124 -6 -236 l0 -204
141 0 140 0 -3 228 c-3 200 -5 230 -21 254 -33 49 -96 73 -155 61z m64 -281
c32 -22 13 -82 -26 -82 -10 0 -26 10 -34 21 -21 31 -3 69 34 69 8 0 20 -4 26
-8z"/>
<path d="M520 535 l0 -45 180 0 180 0 0 45 0 45 -180 0 -180 0 0 -45z"/>
<path d="M1800 535 l0 -45 180 0 180 0 0 45 0 45 -180 0 -180 0 0 -45z"/>
<path d="M470 355 l0 -45 230 0 230 0 0 45 0 45 -230 0 -230 0 0 -45z"/>
<path d="M1750 355 l0 -45 230 0 230 0 0 45 0 45 -230 0 -230 0 0 -45z"/>
<path d="M76 204 c-9 -9 -16 -32 -16 -54 0 -76 -112 -70 1280 -70 1392 0 1280
-6 1280 70 0 76 112 70 -1280 70 -1122 0 -1250 -2 -1264 -16z"/>
</g>
</svg>
