<?xml version="1.0" standalone="no"?>
<!DOCTYPE svg PUBLIC "-//W3C//DTD SVG 20010904//EN"
 "http://www.w3.org/TR/2001/REC-SVG-20010904/DTD/svg10.dtd">
<svg version="1.0" xmlns="http://www.w3.org/2000/svg"
 width="49.000000pt" height="75.000000pt" viewBox="0 0 49.000000 75.000000"
 preserveAspectRatio="xMidYMid meet">
<metadata>
Created by potrace 1.10, written by Peter Selinger 2001-2011
</metadata>
<g transform="translate(0.000000,75.000000) scale(0.100000,-0.100000)"
 stroke="none">
<path d="M192 708 c-8 -8 -12 -52 -12 -130 0 -111 1 -118 20 -118 30 0 55 -45
42 -75 -12 -27 -72 -59 -99 -53 -11 3 -1 9 27 17 66 18 87 52 54 86 -12 12
-27 15 -58 11 -32 -5 -36 -4 -18 4 21 9 22 15 22 109 0 77 -4 103 -16 115 -17
18 -24 19 -48 10 -13 -5 -16 -26 -16 -125 0 -106 2 -119 18 -120 9 0 2 -6 -16
-13 -52 -18 -54 -32 -24 -147 22 -83 32 -106 50 -114 19 -9 22 -17 22 -72 l0
-63 125 0 125 0 0 61 c0 53 3 64 25 81 l25 19 0 219 c0 120 -3 225 -6 234 -7
19 -45 21 -62 4 -8 -8 -13 -52 -14 -123 l-2 -110 -6 129 c-4 108 -8 131 -22
140 -13 8 -23 8 -35 0 -15 -9 -19 -32 -23 -140 l-6 -129 -2 137 c-2 109 -5
140 -18 152 -19 19 -36 20 -52 4z m46 -411 c30 -31 52 -82 52 -117 -1 -8 -9
10 -20 40 -12 35 -30 65 -51 83 -18 15 -29 27 -23 27 6 0 25 -15 42 -33z"/>
</g>
</svg>
