<?xml version="1.0" standalone="no"?>
<!DOCTYPE svg PUBLIC "-//W3C//DTD SVG 20010904//EN"
 "http://www.w3.org/TR/2001/REC-SVG-20010904/DTD/svg10.dtd">
<svg version="1.0" xmlns="http://www.w3.org/2000/svg"
 width="300.000000pt" height="300.000000pt" viewBox="0 0 300.000000 300.000000"
 preserveAspectRatio="xMidYMid meet">
<metadata>
Created by potrace 1.10, written by Peter Selinger 2001-2011
</metadata>
<g transform="translate(0.000000,300.000000) scale(0.100000,-0.100000)"
fill="#000000" stroke="none">
<path d="M1467 2982 c-13 -14 -17 -38 -17 -96 0 -93 10 -116 50 -116 40 0 50
23 50 118 0 64 -4 82 -18 95 -24 22 -45 21 -65 -1z"/>
<path d="M1182 2894 c-33 -23 -24 -53 27 -92 32 -24 52 -32 75 -30 27 3 31 7
34 35 3 28 -2 35 -50 67 -29 20 -55 36 -58 36 -3 0 -16 -7 -28 -16z"/>
<path d="M1732 2874 c-48 -32 -53 -39 -50 -67 3 -28 7 -32 34 -35 37 -4 117
52 122 85 3 18 -29 53 -48 53 -3 0 -29 -16 -58 -36z"/>
<path d="M562 2653 c-18 -9 -45 -32 -60 -51 l-27 -35 -2 -1221 -3 -1221 23
-40 c14 -26 37 -48 67 -62 l44 -23 896 0 896 0 44 22 c30 15 53 37 67 63 l23
40 0 1208 c0 1346 5 1249 -68 1305 l-35 27 -416 0 -416 0 -72 -145 c-39 -80
-72 -153 -72 -162 -1 -10 26 -67 59 -127 33 -61 60 -116 60 -123 0 -7 -19 -97
-42 -200 l-41 -187 48 -106 48 -105 -13 -72 c-7 -40 -16 -82 -20 -93 -6 -17
-9 -14 -13 15 -4 19 -9 63 -12 98 -5 52 -15 79 -57 149 l-50 86 21 167 c11 92
21 184 21 203 0 21 -25 93 -60 175 l-60 140 34 100 c47 139 50 156 31 176 -15
14 -60 16 -413 16 -347 0 -401 -3 -430 -17z m539 -433 c12 -7 19 -21 19 -40 0
-19 -7 -33 -19 -40 -12 -6 -92 -10 -190 -10 -158 0 -173 2 -191 20 -11 11 -20
25 -20 30 0 6 9 19 20 30 18 18 33 20 191 20 98 0 178 -4 190 -10z m1179 -10
c11 -11 20 -24 20 -30 0 -5 -9 -19 -20 -30 -19 -19 -33 -20 -226 -20 -122 0
-213 4 -225 10 -25 14 -26 65 -1 79 10 6 102 11 225 11 194 0 208 -1 227 -20z
m-1311 -184 c7 -8 11 -27 9 -43 l-3 -28 -127 -3 c-120 -2 -128 -1 -138 18 -9
17 -8 27 5 46 15 23 20 24 129 24 87 0 116 -3 125 -14z m1316 -10 c13 -19 14
-29 5 -45 -10 -20 -19 -21 -146 -21 -134 0 -134 0 -146 25 -9 21 -8 28 7 45
16 18 31 20 141 20 120 0 124 -1 139 -24z m-1213 -311 c9 -21 8 -28 -7 -45
-17 -18 -31 -20 -176 -20 -157 0 -159 0 -174 24 -13 19 -14 29 -5 45 10 20 19
21 181 21 l169 0 12 -25z m1218 4 c9 -16 8 -26 -5 -45 -15 -24 -17 -24 -174
-24 -145 0 -159 2 -176 20 -15 17 -16 24 -7 45 l12 25 169 0 c162 0 171 -1
181 -21z m-1066 -175 c9 -8 16 -24 16 -34 0 -10 -7 -26 -16 -34 -13 -14 -50
-16 -250 -16 -221 0 -235 1 -254 20 -11 11 -20 25 -20 30 0 6 9 19 20 30 19
19 33 20 254 20 200 0 237 -2 250 -16z m1056 -4 c11 -11 20 -24 20 -30 0 -5
-9 -19 -20 -30 -19 -19 -33 -20 -226 -20 -122 0 -213 4 -225 10 -25 14 -26 65
-1 79 10 6 102 11 225 11 194 0 208 -1 227 -20z m-932 -702 c17 -17 15 -44 -4
-62 -13 -14 -56 -16 -313 -16 -285 0 -299 1 -316 20 -15 17 -16 24 -7 45 l12
25 308 0 c226 0 311 -3 320 -12z m942 -9 c9 -16 8 -26 -5 -45 l-15 -24 -300 0
c-258 0 -301 2 -314 16 -19 18 -21 45 -4 62 9 9 94 12 320 12 300 0 308 0 318
-21z m-10 -179 c11 -11 20 -24 20 -30 0 -5 -9 -19 -20 -30 -20 -20 -33 -20
-780 -20 -747 0 -760 0 -780 20 -11 11 -20 25 -20 30 0 6 9 19 20 30 20 20 33
20 780 20 747 0 760 0 780 -20z m5 -194 c13 -19 14 -29 5 -45 -11 -21 -13 -21
-790 -21 -777 0 -779 0 -790 21 -9 16 -8 26 5 45 l15 24 770 0 770 0 15 -24z"/>
</g>
</svg>
