<?xml version="1.0" standalone="no"?>
<!DOCTYPE svg PUBLIC "-//W3C//DTD SVG 20010904//EN"
 "http://www.w3.org/TR/2001/REC-SVG-20010904/DTD/svg10.dtd">
<svg version="1.0" xmlns="http://www.w3.org/2000/svg"
 width="300.000000pt" height="300.000000pt" viewBox="0 0 300.000000 300.000000"
 preserveAspectRatio="xMidYMid meet">
<metadata>
Created by potrace 1.10, written by Peter Selinger 2001-2011
</metadata>
<g transform="translate(0.000000,300.000000) scale(0.100000,-0.100000)"
fill="#000000" stroke="none">
<path d="M585 2681 c-48 -22 -69 -44 -90 -94 -13 -32 -15 -164 -15 -1089 0
-1000 1 -1055 19 -1093 22 -48 44 -69 94 -90 32 -13 146 -15 907 -15 761 0
875 2 907 15 50 21 72 42 94 90 18 38 19 84 19 808 l0 767 -285 0 c-234 0
-292 3 -322 15 -50 21 -72 42 -94 90 -17 36 -19 70 -19 328 l0 287 -587 0
c-549 0 -591 -2 -628 -19z m985 -601 c11 -11 20 -29 20 -40 0 -11 -9 -29 -20
-40 -19 -19 -33 -20 -310 -20 -277 0 -291 1 -310 20 -11 11 -20 29 -20 40 0
11 9 29 20 40 19 19 33 20 310 20 277 0 291 -1 310 -20z m480 -360 c11 -11 20
-29 20 -40 0 -11 -9 -29 -20 -40 -19 -19 -33 -20 -550 -20 -517 0 -531 1 -550
20 -11 11 -20 29 -20 40 0 11 9 29 20 40 19 19 33 20 550 20 517 0 531 -1 550
-20z m0 -360 c11 -11 20 -29 20 -40 0 -11 -9 -29 -20 -40 -19 -19 -33 -20
-550 -20 -517 0 -531 1 -550 20 -11 11 -20 29 -20 40 0 11 9 29 20 40 19 19
33 20 550 20 517 0 531 -1 550 -20z m0 -360 c11 -11 20 -29 20 -40 0 -11 -9
-29 -20 -40 -19 -19 -33 -20 -550 -20 -517 0 -531 1 -550 20 -11 11 -20 29
-20 40 0 11 9 29 20 40 19 19 33 20 550 20 517 0 531 -1 550 -20z"/>
<path d="M1920 2400 c0 -247 1 -261 20 -280 19 -19 33 -20 282 -20 l263 0
-280 280 c-154 154 -281 280 -282 280 -2 0 -3 -117 -3 -260z"/>
</g>
</svg>
