<?xml version="1.0" standalone="no"?>
<!DOCTYPE svg PUBLIC "-//W3C//DTD SVG 20010904//EN"
 "http://www.w3.org/TR/2001/REC-SVG-20010904/DTD/svg10.dtd">
<svg version="1.0" xmlns="http://www.w3.org/2000/svg"
 width="159.000000pt" height="270.000000pt" viewBox="0 0 159.000000 270.000000"
 preserveAspectRatio="xMidYMid meet">
<metadata>
Created by potrace 1.10, written by Peter Selinger 2001-2011
</metadata>
<g transform="translate(0.000000,270.000000) scale(0.100000,-0.100000)"
fill="#000000" stroke="none">
<path d="M560 2500 c0 -30 0 -30 -60 -30 -60 0 -60 0 -60 -30 0 -27 -3 -30
-30 -30 -27 0 -30 -3 -30 -30 0 -27 -3 -30 -30 -30 -27 0 -30 -3 -30 -30 0
-27 -3 -30 -30 -30 -30 0 -30 0 -30 -60 0 -60 0 -60 -30 -60 -30 0 -30 0 -30
-60 0 -60 0 -60 -30 -60 -30 0 -30 0 -30 -60 0 -60 0 -60 30 -60 27 0 30 3 30
30 0 27 3 30 30 30 30 0 30 0 30 -60 0 -60 0 -60 -30 -60 l-30 0 0 -120 0
-120 30 0 c27 0 30 -3 30 -30 0 -27 3 -30 30 -30 27 0 30 -3 30 -30 0 -27 3
-30 30 -30 27 0 30 -3 30 -31 0 -29 2 -31 33 -27 31 3 33 2 29 -24 l-4 -28 61
0 61 0 0 -31 0 -31 63 4 62 3 -3 -32 -4 -33 -89 0 -89 0 0 -30 c0 -27 -3 -30
-30 -30 -30 0 -30 0 -30 -60 0 -60 0 -60 -30 -60 -30 0 -30 0 -30 -60 0 -60 0
-60 -30 -60 l-30 0 0 -180 0 -180 30 0 c27 0 30 -3 30 -30 0 -27 3 -30 30 -30
27 0 30 -3 30 -30 0 -27 3 -30 30 -30 30 0 30 0 30 -60 0 -60 0 -60 30 -60 27
0 30 -3 30 -30 0 -27 -3 -30 -30 -30 -27 0 -30 -3 -30 -30 0 -27 -3 -30 -30
-30 l-30 0 0 -90 0 -90 175 0 175 0 0 210 0 210 30 0 30 0 0 -210 0 -210 180
0 180 0 0 90 0 90 -30 0 c-27 0 -30 3 -30 30 0 27 -3 30 -30 30 -27 0 -30 3
-30 30 0 27 3 30 30 30 30 0 30 0 30 60 0 60 0 60 30 60 27 0 30 3 30 30 0 27
3 30 30 30 27 0 30 3 30 30 0 27 3 30 30 30 l30 0 0 180 0 180 -30 0 c-30 0
-30 0 -30 60 0 60 0 60 -30 60 -30 0 -30 0 -30 60 0 60 0 60 -30 60 -27 0 -30
3 -30 30 l0 30 -89 0 -89 0 -4 33 -3 32 62 -3 63 -4 0 31 0 31 61 0 61 0 -4
28 c-4 26 -2 27 30 24 34 -4 34 -4 31 29 -4 34 -4 34 28 31 31 -4 33 -2 33 27
0 28 3 31 30 31 27 0 30 3 30 30 0 27 3 30 30 30 l30 0 0 120 0 120 -30 0
c-30 0 -30 0 -30 60 0 60 0 60 30 60 l30 0 0 90 0 90 -30 0 c-30 0 -30 0 -30
60 0 60 0 60 -30 60 -27 0 -30 3 -30 30 0 27 -3 30 -30 30 -27 0 -30 3 -30 30
0 27 -3 30 -30 30 -27 0 -30 3 -30 30 0 30 0 30 -60 30 -60 0 -60 0 -60 30 l0
30 -265 0 -265 0 0 -30z m120 -180 c0 -27 -3 -30 -30 -30 -27 0 -30 -3 -30
-31 0 -27 -3 -30 -27 -27 -25 3 -28 -1 -31 -29 -3 -29 -7 -33 -33 -33 -26 0
-29 3 -29 30 0 27 3 30 30 30 27 0 30 3 30 30 0 27 3 30 30 30 27 0 30 3 30
30 0 27 3 30 30 30 27 0 30 -3 30 -30z m350 0 c0 -27 3 -30 30 -30 27 0 30 -3
30 -30 0 -27 3 -30 30 -30 27 0 30 -3 30 -30 0 -27 -3 -30 -30 -30 -27 0 -30
3 -30 30 0 27 -3 30 -30 30 -16 0 -29 3 -29 8 6 38 -2 52 -31 52 -27 0 -30 3
-30 30 0 27 3 30 30 30 27 0 30 -3 30 -30z m-240 -90 c0 -57 -1 -60 -25 -60
-21 0 -25 -5 -25 -30 0 -27 -3 -30 -30 -30 -27 0 -30 3 -30 30 0 27 3 30 30
30 32 0 35 7 30 88 -1 28 1 32 24 32 25 0 26 -2 26 -60z m120 0 c0 -60 0 -60
30 -60 26 0 30 -4 30 -28 0 -25 -4 -29 -30 -29 -26 0 -30 4 -30 29 0 24 -4 28
-28 28 -27 0 -28 2 -30 60 l-3 60 31 0 30 0 0 -60z m-60 -150 c0 -27 3 -30 30
-30 27 0 30 -3 30 -30 0 -27 3 -30 30 -30 27 0 30 -3 30 -30 0 -27 3 -30 30
-30 27 0 30 -3 30 -30 l0 -30 120 0 120 0 0 -120 0 -120 -30 0 c-30 0 -30 0
-30 -60 0 -60 0 -60 -30 -60 -27 0 -30 -3 -30 -30 0 -27 -3 -30 -30 -30 -25 0
-30 -4 -30 -25 0 -21 -5 -25 -30 -25 -25 0 -30 4 -30 25 0 21 -5 25 -30 25
-27 0 -30 3 -30 30 0 27 -3 30 -30 30 -27 0 -30 -3 -30 -30 l0 -30 -85 0 -85
0 0 30 c0 27 -3 30 -30 30 -27 0 -30 -3 -30 -30 0 -27 -3 -30 -30 -30 -25 0
-30 -4 -30 -25 0 -21 -5 -25 -30 -25 -25 0 -30 4 -30 25 0 21 -5 25 -30 25
-27 0 -30 3 -30 30 0 27 -3 30 -30 30 -30 0 -30 0 -30 60 0 60 0 60 -30 60
l-30 0 0 120 0 120 120 0 120 0 0 30 c0 27 3 30 30 30 27 0 30 3 30 30 0 27 3
30 30 30 27 0 30 3 30 30 0 25 4 30 25 30 21 0 25 5 25 30 0 27 3 30 30 30 27
0 30 -3 30 -30z m-530 -390 c0 -60 0 -60 -30 -60 -30 0 -30 0 -30 60 0 60 0
60 30 60 30 0 30 0 30 -60z m1070 0 c0 -60 0 -60 -30 -60 -30 0 -30 0 -30 60
0 60 0 60 30 60 30 0 30 0 30 -60z m-480 -320 l0 -30 -85 0 -85 0 0 30 0 30
85 0 85 0 0 -30z m60 -120 c0 -30 0 -30 -60 -30 l-60 0 0 -240 0 -240 -30 0
-30 0 0 240 0 240 -55 0 c-54 0 -55 0 -55 30 l0 30 145 0 145 0 0 -30z m-470
-630 c0 -60 0 -60 -30 -60 -30 0 -30 1 -30 54 0 54 0 55 -32 59 -18 2 -5 5 30
5 l62 2 0 -60z m743 53 c-33 -4 -33 -5 -33 -59 0 -53 0 -54 -30 -54 -30 0 -30
0 -30 60 l0 60 63 -2 c34 0 47 -3 30 -5z m-416 -45 c-3 -7 -5 -2 -5 12 0 14 2
19 5 13 2 -7 2 -19 0 -25z m-124 -255 c-21 -4 -23 -10 -23 -59 0 -53 0 -54 30
-54 30 0 30 0 30 -60 l0 -60 -120 0 -120 0 0 60 c0 60 0 60 30 60 27 0 30 3
30 30 0 27 3 30 30 30 27 0 30 3 30 30 0 30 1 30 53 29 28 -1 42 -4 30 -6z
m327 -23 c0 -27 3 -30 30 -30 27 0 30 -3 30 -30 0 -27 3 -30 30 -30 30 0 30 0
30 -60 l0 -60 -120 0 -120 0 0 60 c0 60 0 60 30 60 30 0 30 1 30 54 0 54 0 55
-32 59 -18 2 -5 5 30 5 l62 2 0 -30z"/>
<path d="M993 2313 c4 -3 10 -3 14 0 3 4 0 7 -7 7 -7 0 -10 -3 -7 -7z"/>
<path d="M680 1900 c0 -27 3 -30 30 -30 27 0 30 3 30 30 0 27 -3 30 -30 30
-27 0 -30 -3 -30 -30z"/>
<path d="M910 1900 c0 -27 3 -30 30 -30 27 0 30 3 30 30 0 27 -3 30 -30 30
-27 0 -30 -3 -30 -30z"/>
<path d="M440 1750 c0 -60 0 -60 30 -60 27 0 30 3 30 30 0 27 3 30 30 30 30 0
30 0 30 -60 l0 -60 90 0 90 0 0 90 0 90 -150 0 -150 0 0 -60z m240 -30 c0 -27
-3 -30 -30 -30 -27 0 -30 3 -30 30 0 27 3 30 30 30 27 0 30 -3 30 -30z"/>
<path d="M910 1720 l0 -90 90 0 90 0 0 60 c0 60 0 60 30 60 27 0 30 -3 30 -30
0 -27 3 -30 30 -30 30 0 30 0 30 60 l0 60 -150 0 -150 0 0 -90z m120 0 c0 -27
-3 -30 -30 -30 -27 0 -30 3 -30 30 0 27 3 30 30 30 27 0 30 -3 30 -30z"/>
<path d="M740 1540 l0 -30 85 0 85 0 0 30 0 30 -85 0 -85 0 0 -30z"/>
</g>
</svg>
