<?xml version="1.0" standalone="no"?>
<!DOCTYPE svg PUBLIC "-//W3C//DTD SVG 20010904//EN"
 "http://www.w3.org/TR/2001/REC-SVG-20010904/DTD/svg10.dtd">
<svg version="1.0" xmlns="http://www.w3.org/2000/svg"
 width="267.000000pt" height="266.000000pt" viewBox="0 0 267.000000 266.000000"
 preserveAspectRatio="xMidYMid meet">
<metadata>
Created by potrace 1.10, written by Peter Selinger 2001-2011
</metadata>
<g transform="translate(0.000000,266.000000) scale(0.100000,-0.100000)"
fill="#000000" stroke="none">
<path d="M1231 2614 c-116 -31 -229 -113 -292 -213 -37 -57 -66 -149 -74 -233
l-7 -68 -382 0 c-284 0 -385 -3 -394 -12 -8 -8 -12 -52 -12 -130 l0 -118 1280
0 1280 0 0 118 c0 78 -4 122 -12 130 -9 9 -110 12 -394 12 l-382 0 -7 68 c-4
37 -15 94 -26 128 -76 238 -339 382 -578 318z m159 -115 c0 -35 6 -46 40 -78
25 -22 43 -48 46 -68 l7 -33 -46 0 c-37 0 -46 4 -50 21 -4 16 -12 20 -39 17
-26 -2 -34 -8 -36 -26 -4 -27 14 -52 36 -52 31 0 98 -40 115 -69 35 -59 14
-147 -43 -176 -27 -14 -30 -20 -30 -65 l0 -50 -40 0 -40 0 0 50 c0 45 -3 51
-30 65 -30 15 -60 60 -60 90 0 24 82 21 98 -5 22 -36 72 -19 72 25 0 28 -19
45 -49 45 -70 0 -127 72 -118 149 4 38 12 52 46 82 35 32 41 42 41 78 l0 41
40 0 40 0 0 -41z"/>
<path d="M160 1265 l0 -485 90 0 90 0 -2 483 -3 482 -87 3 -88 3 0 -486z"/>
<path d="M560 1265 l0 -485 85 0 85 0 0 485 0 485 -85 0 -85 0 0 -485z"/>
<path d="M1000 1615 l0 -135 85 0 85 0 0 135 0 135 -85 0 -85 0 0 -135z"/>
<path d="M1530 1615 l0 -135 85 0 85 0 0 135 0 135 -85 0 -85 0 0 -135z"/>
<path d="M1970 1265 l0 -485 85 0 85 0 0 485 0 485 -85 0 -85 0 0 -485z"/>
<path d="M2366 1743 c-3 -4 -6 -222 -6 -485 l1 -478 89 0 90 0 0 485 0 485
-83 0 c-46 0 -87 -3 -91 -7z"/>
<path d="M820 1085 l0 -305 45 0 45 0 0 85 0 85 45 0 45 0 0 90 0 90 265 0
265 0 0 90 0 90 130 0 130 0 0 -265 0 -265 45 0 45 0 0 305 0 305 -530 0 -530
0 0 -305z"/>
<path d="M1617 1213 c-4 -3 -7 -102 -7 -220 l0 -213 45 0 45 0 0 220 0 220
-38 0 c-21 0 -42 -3 -45 -7z"/>
<path d="M1082 998 l3 -43 220 0 220 0 3 43 3 42 -226 0 -226 0 3 -42z"/>
<path d="M1000 820 l0 -40 175 0 175 0 0 40 0 40 -175 0 -175 0 0 -40z"/>
<path d="M1440 820 l0 -40 45 0 45 0 0 40 0 40 -45 0 -45 0 0 -40z"/>
<path d="M70 600 l0 -90 1280 0 1280 0 0 90 0 90 -1280 0 -1280 0 0 -90z"/>
<path d="M160 245 l0 -175 1190 0 1190 0 0 175 0 175 -1190 0 -1190 0 0 -175z"/>
</g>
</svg>
