<?xml version="1.0" standalone="no"?>
<!DOCTYPE svg PUBLIC "-//W3C//DTD SVG 20010904//EN"
 "http://www.w3.org/TR/2001/REC-SVG-20010904/DTD/svg10.dtd">
<svg version="1.0" xmlns="http://www.w3.org/2000/svg"
 width="179.000000pt" height="172.000000pt" viewBox="0 0 179.000000 172.000000"
 preserveAspectRatio="xMidYMid meet">
<metadata>
Created by potrace 1.10, written by Peter Selinger 2001-2011
</metadata>
<g transform="translate(0.000000,172.000000) scale(0.100000,-0.100000)"
fill="#000000" stroke="none">
<path d="M580 1646 c0 -42 -25 -56 -96 -56 -58 0 -64 -2 -64 -21 0 -37 -19
-59 -50 -59 -24 0 -30 -4 -30 -21 0 -37 -19 -59 -50 -59 -24 0 -30 -4 -30 -21
0 -37 -19 -59 -50 -59 -30 0 -30 -1 -30 -54 0 -79 -13 -106 -50 -106 -30 0
-30 -1 -30 -54 0 -80 -13 -106 -50 -106 l-31 0 3 -77 c3 -73 5 -78 26 -81 32
-5 52 15 52 49 0 26 3 29 34 29 38 0 46 -12 46 -70 0 -63 -15 -90 -50 -90
l-30 0 0 -160 0 -160 35 0 c30 0 35 -4 41 -28 10 -49 13 -52 43 -52 25 0 32
-5 37 -27 10 -50 13 -53 43 -53 25 0 32 -5 37 -27 3 -16 7 -32 8 -38 2 -5 18
-10 37 -10 31 0 34 -3 34 -30 l0 -30 80 -5 80 -5 3 -40 3 -40 80 4 80 3 -3
-38 -3 -39 -120 -5 c-66 -3 76 -5 315 -5 239 0 381 2 315 5 l-120 5 -3 39 -3
38 80 -3 80 -4 3 40 3 40 77 3 77 3 3 32 c3 29 6 32 38 32 33 0 35 2 40 40 5
38 6 40 38 37 33 -2 35 0 46 50 5 21 13 27 39 30 28 3 33 7 37 38 5 32 8 35
43 38 l37 3 0 160 0 159 -30 0 c-35 0 -50 23 -50 77 0 68 8 83 46 83 l34 0 0
120 0 120 -30 0 c-38 0 -50 23 -50 99 0 55 -2 61 -21 61 -37 0 -59 19 -59 50
0 24 -4 30 -21 30 -37 0 -59 19 -59 50 0 24 -4 30 -21 30 -37 0 -59 19 -59 50
0 30 0 30 -61 30 -76 0 -99 12 -99 50 l0 30 -350 0 -350 0 0 -24z m155 -236
c10 -31 -12 -60 -45 -60 -23 0 -30 -5 -30 -19 0 -32 -11 -51 -30 -51 -33 0
-50 -12 -50 -35 0 -23 -23 -55 -40 -55 -27 0 -40 15 -40 46 0 31 3 34 28 34
36 0 52 16 52 52 0 24 4 28 28 28 36 0 52 16 52 52 0 25 3 28 34 28 26 0 36
-5 41 -20z m465 -8 c0 -36 16 -52 52 -52 24 0 28 -4 28 -28 0 -15 5 -33 12
-40 7 -7 25 -12 40 -12 25 0 28 -3 28 -34 0 -26 -5 -36 -20 -41 -31 -10 -60
12 -60 45 0 24 -4 30 -22 30 -31 0 -41 9 -53 44 -7 21 -19 32 -42 38 -39 10
-47 21 -39 54 5 20 13 24 41 24 32 0 35 -3 35 -28z m-325 -132 c0 -74 0 -75
-27 -78 -21 -3 -28 -9 -28 -26 0 -37 -23 -60 -53 -52 -23 5 -27 12 -27 41 0
32 3 35 28 35 43 0 52 17 52 93 l0 68 28 -3 c27 -3 27 -4 27 -78z m165 17 c0
-70 12 -94 50 -99 20 -2 26 -9 28 -35 3 -32 2 -33 -31 -33 -36 0 -47 12 -47
51 0 13 -7 19 -22 19 -38 0 -45 12 -52 88 l-6 72 40 0 40 0 0 -63z m-80 -205
c0 -15 5 -33 12 -40 7 -7 25 -12 40 -12 24 0 28 -4 28 -28 0 -36 16 -52 52
-52 24 0 28 -4 28 -28 0 -35 16 -52 51 -52 25 0 28 -4 31 -37 l3 -38 158 -3
157 -3 0 -159 0 -160 -35 0 c-39 0 -43 -8 -47 -100 -3 -55 -3 -55 -38 -60 -31
-4 -35 -9 -38 -37 -3 -26 -9 -34 -30 -39 -48 -10 -52 -13 -52 -39 0 -24 -3
-26 -37 -23 -33 3 -38 7 -41 30 -2 20 -9 28 -23 28 -37 0 -59 19 -59 51 0 29
-2 30 -37 27 -36 -3 -38 -5 -41 -40 l-3 -38 -109 0 -109 0 -3 38 c-3 35 -5 37
-40 40 -33 3 -38 0 -38 -18 0 -37 -19 -60 -49 -60 -24 0 -30 -5 -34 -30 -6
-26 -11 -30 -41 -30 -29 0 -34 4 -40 30 -4 21 -11 30 -25 30 -37 0 -51 12 -51
41 0 30 -3 33 -52 43 -27 6 -28 9 -28 65 0 80 -5 91 -46 91 l-34 0 0 160 0
159 158 3 157 3 3 38 c3 33 6 37 31 37 35 0 51 17 51 52 0 24 4 28 28 28 36 0
52 16 52 52 0 23 4 28 25 28 26 0 29 4 39 53 6 23 11 27 41 27 32 0 35 -3 35
-28z m-704 -478 c8 -33 -1 -113 -14 -126 -6 -6 -22 -8 -36 -4 -25 6 -26 9 -26
81 l0 75 35 0 c29 0 36 -4 41 -26z m1419 -54 c0 -72 -1 -75 -24 -78 -33 -5
-51 21 -51 72 0 72 8 87 44 84 l31 -3 0 -75z m-635 -420 l0 -40 -110 0 -110 0
0 40 0 40 110 0 110 0 0 -40z"/>
<path d="M1153 1383 c4 -3 10 -3 14 0 3 4 0 7 -7 7 -7 0 -10 -3 -7 -7z"/>
<path d="M740 835 c0 -29 4 -36 26 -41 17 -4 31 -1 41 9 10 10 13 24 9 41 -5
22 -12 26 -41 26 -33 0 -35 -2 -35 -35z"/>
<path d="M1044 844 c-9 -35 15 -59 50 -50 22 5 26 12 26 41 0 33 -2 35 -35 35
-29 0 -36 -4 -41 -26z"/>
<path d="M422 633 c3 -73 5 -78 26 -81 32 -5 52 15 52 49 0 26 3 29 34 29 40
0 46 -14 46 -103 l0 -58 118 3 117 3 3 118 3 117 -201 0 -201 0 3 -77z m312
-19 c11 -28 7 -43 -14 -54 -35 -19 -60 -3 -60 36 0 32 2 34 34 34 22 0 36 -6
40 -16z"/>
<path d="M1042 593 l3 -118 118 -3 117 -3 0 65 c0 86 5 96 46 96 31 0 34 -3
34 -29 0 -34 20 -54 52 -49 21 3 23 8 26 81 l3 77 -201 0 -201 0 3 -117z m158
3 c0 -48 -49 -65 -70 -26 -19 35 -3 60 36 60 32 0 34 -2 34 -34z"/>
<path d="M820 350 l0 -40 110 0 110 0 0 40 0 40 -110 0 -110 0 0 -40z"/>
</g>
</svg>
