<?xml version="1.0" standalone="no"?>
<!DOCTYPE svg PUBLIC "-//W3C//DTD SVG 20010904//EN"
 "http://www.w3.org/TR/2001/REC-SVG-20010904/DTD/svg10.dtd">
<svg version="1.0" xmlns="http://www.w3.org/2000/svg"
 width="300.000000pt" height="300.000000pt" viewBox="0 0 300.000000 300.000000"
 preserveAspectRatio="xMidYMid meet">
<metadata>
Created by potrace 1.10, written by Peter Selinger 2001-2011
</metadata>
<g transform="translate(0.000000,300.000000) scale(0.100000,-0.100000)"
fill="#000000" stroke="none">
<path d="M1720 2945 c-94 -21 -185 -71 -254 -140 -93 -91 -144 -195 -160 -322
l-6 -51 57 -7 c245 -28 440 -182 514 -407 20 -60 24 -93 24 -191 0 -87 3 -116
12 -113 181 70 673 282 673 291 0 17 -266 652 -291 693 -61 104 -170 192 -287
231 -84 28 -199 35 -282 16z"/>
<path d="M1171 2345 c-130 -37 -243 -122 -315 -238 -79 -129 -338 -607 -334
-618 3 -10 879 -497 908 -505 11 -3 64 85 191 318 97 178 184 345 193 372 86
262 -64 561 -329 658 -78 28 -236 34 -314 13z"/>
<path d="M2230 1780 l-355 -149 -78 -143 c-44 -79 -79 -147 -79 -153 -1 -14
167 -416 204 -489 38 -76 134 -171 214 -213 357 -188 781 69 777 472 0 50 -7
111 -16 136 -8 25 -74 191 -148 368 -95 230 -137 321 -149 320 -8 0 -175 -68
-370 -149z m-190 -684 c74 -180 116 -238 204 -284 46 -24 61 -27 141 -25 50 1
106 3 125 5 31 3 35 0 35 -21 0 -34 -59 -53 -160 -53 -126 0 -228 50 -304 149
-33 43 -161 332 -161 363 0 23 11 31 34 28 15 -2 35 -40 86 -162z"/>
<path d="M458 1388 c-131 -227 -334 -610 -350 -660 -31 -94 -29 -230 4 -324
67 -189 210 -312 407 -351 71 -14 96 -15 164 -5 136 20 268 94 345 194 22 29
115 190 207 358 92 168 169 308 171 311 2 4 -186 112 -419 239 -232 128 -441
244 -463 257 l-42 24 -24 -43z m-4 -364 c28 -11 18 -40 -63 -191 -90 -168
-106 -215 -97 -293 10 -82 48 -152 117 -212 58 -51 73 -83 45 -94 -39 -15
-151 91 -193 184 -35 75 -43 189 -18 264 22 68 175 348 189 348 3 0 11 -3 20
-6z"/>
</g>
</svg>
