<?xml version="1.0" standalone="no"?>
<!DOCTYPE svg PUBLIC "-//W3C//DTD SVG 20010904//EN"
 "http://www.w3.org/TR/2001/REC-SVG-20010904/DTD/svg10.dtd">
<svg version="1.0" xmlns="http://www.w3.org/2000/svg"
 width="300.000000pt" height="300.000000pt" viewBox="0 0 300.000000 300.000000"
 preserveAspectRatio="xMidYMid meet">
<metadata>
Created by potrace 1.10, written by Peter Selinger 2001-2011
</metadata>
<g transform="translate(0.000000,300.000000) scale(0.100000,-0.100000)"
fill="#000000" stroke="none">
<path d="M2568 2980 c-50 -27 -78 -76 -78 -136 0 -112 116 -188 211 -138 28
14 32 14 50 -2 29 -26 75 -130 89 -199 39 -188 -86 -367 -267 -383 -58 -5
-151 4 -172 18 -11 6 -4 20 35 63 98 110 153 228 154 329 0 54 -1 56 -32 67
-18 7 -50 23 -71 38 -34 24 -40 25 -64 12 -50 -26 -140 -124 -171 -184 -16
-33 -37 -87 -45 -120 -9 -33 -20 -72 -26 -87 l-10 -27 -103 49 c-181 87 -404
121 -560 86 -196 -44 -338 -200 -363 -399 l-7 -57 49 0 49 0 13 62 c33 161
141 266 305 300 72 14 243 -3 343 -33 101 -32 226 -97 219 -115 -3 -7 -9 -20
-12 -28 -3 -9 20 -29 71 -60 42 -25 80 -46 85 -46 5 0 17 14 27 30 20 35 17
34 108 15 268 -57 479 56 541 290 36 135 -8 319 -105 443 -27 34 -38 58 -39
85 -2 52 -35 103 -83 127 -48 25 -93 25 -141 0z m122 -135 l0 -55 -50 0 -50 0
0 55 0 55 50 0 50 0 0 -55z"/>
<path d="M1999 1953 c-82 -115 -280 -299 -409 -378 -25 -15 -47 -29 -49 -32
-3 -2 19 -27 48 -57 l52 -53 -106 -54 c-58 -30 -131 -74 -162 -98 l-55 -43 51
-52 51 -51 -143 -142 c-78 -77 -152 -146 -164 -152 -36 -18 -97 -13 -127 10
-30 24 -56 69 -56 99 0 25 -11 25 -58 1 -48 -25 -83 -63 -177 -196 -169 -237
-293 -380 -429 -494 -21 -18 -35 -35 -32 -39 4 -3 60 -8 124 -10 250 -9 442
69 728 295 125 99 516 482 622 608 41 50 96 112 121 139 54 57 167 134 234
160 44 16 46 20 39 44 -4 15 -7 68 -7 117 0 105 18 174 70 259 19 32 35 60 35
61 0 2 -28 20 -62 41 -35 21 -72 44 -84 51 -19 12 -23 9 -55 -34z"/>
<path d="M1474 729 c-239 -240 -365 -347 -529 -450 -207 -130 -337 -172 -540
-173 -94 -1 -153 4 -211 18 -77 17 -82 17 -108 1 -35 -23 -23 -36 63 -68 269
-100 517 -68 789 101 156 97 277 201 530 454 248 250 252 255 252 295 0 23 -4
44 -8 47 -5 3 -111 -99 -238 -225z"/>
</g>
</svg>
