<?xml version="1.0" standalone="no"?>
<!DOCTYPE svg PUBLIC "-//W3C//DTD SVG 20010904//EN"
 "http://www.w3.org/TR/2001/REC-SVG-20010904/DTD/svg10.dtd">
<svg version="1.0" xmlns="http://www.w3.org/2000/svg"
 width="259.000000pt" height="270.000000pt" viewBox="0 0 259.000000 270.000000"
 preserveAspectRatio="xMidYMid meet">
<metadata>
Created by potrace 1.10, written by Peter Selinger 2001-2011
</metadata>
<g transform="translate(0.000000,270.000000) scale(0.100000,-0.100000)"
fill="#000000" stroke="none">
<path d="M1526 2644 c-73 -23 -159 -112 -181 -189 -22 -73 -14 -147 20 -215
45 -88 47 -82 50 106 1 69 6 88 28 127 80 135 274 135 353 0 23 -38 28 -59 29
-122 1 -42 2 -98 3 -126 l3 -50 23 29 c29 35 56 115 56 165 0 76 -28 140 -88
201 -45 46 -69 62 -111 74 -67 20 -120 19 -185 0z"/>
<path d="M1558 2354 c-46 -24 -58 -61 -58 -176 l0 -103 120 0 120 0 0 103 c0
73 -4 112 -15 132 -28 55 -109 76 -167 44z"/>
<path d="M285 1987 c-97 -44 -177 -197 -225 -430 -86 -417 -53 -973 75 -1263
97 -220 248 -256 363 -85 46 69 52 87 23 71 -28 -14 -87 -12 -119 4 -85 44
-149 176 -194 398 -20 100 -23 142 -23 368 0 225 3 268 23 366 44 217 111 357
193 399 33 17 92 20 120 5 29 -16 23 1 -21 68 -63 94 -144 131 -215 99z"/>
<path d="M1457 1985 c-399 -76 -702 -380 -771 -772 l-13 -78 -7 80 c-29 321
-109 535 -201 535 -76 0 -149 -154 -187 -392 -17 -110 -17 -506 0 -616 38
-239 109 -392 182 -392 83 0 161 168 190 405 19 162 27 212 29 180 2 -60 42
-200 80 -280 124 -265 345 -449 631 -527 118 -32 345 -32 465 0 111 30 285
119 373 192 141 118 265 313 314 495 31 117 31 335 0 460 -29 116 -105 270
-181 367 -119 151 -324 283 -511 328 -113 28 -290 34 -393 15z m419 -153 c280
-95 483 -319 549 -604 22 -95 22 -260 0 -357 -88 -382 -415 -644 -805 -644
-223 0 -413 77 -573 232 -166 160 -249 359 -248 596 1 376 250 695 621 795 62
17 99 19 220 17 132 -3 153 -6 236 -35z"/>
<path d="M1440 1770 c-331 -86 -560 -380 -560 -720 0 -288 157 -540 415 -665
126 -61 218 -79 364 -72 170 8 305 59 431 162 121 99 221 261 254 412 87 392
-157 785 -548 883 -104 26 -253 26 -356 0z m305 -115 c180 -38 344 -163 424
-326 92 -187 93 -369 2 -554 -73 -148 -197 -256 -358 -312 -67 -23 -94 -27
-193 -27 -100 0 -126 4 -195 28 -158 55 -283 164 -356 311 -91 184 -90 367 2
554 121 246 404 383 674 326z"/>
<path d="M1452 1558 c-50 -17 -61 -24 -56 -37 4 -9 8 -29 8 -46 1 -43 -39 -48
-71 -9 l-22 28 -68 -67 -67 -68 28 -22 c37 -30 34 -71 -7 -75 -16 -2 -35 2
-43 9 -8 6 -16 10 -18 8 -11 -11 -46 -132 -46 -159 0 -27 3 -30 30 -30 36 0
56 -30 40 -60 -7 -13 -21 -20 -40 -20 -26 0 -30 -4 -30 -29 0 -16 9 -59 21
-96 17 -55 23 -65 37 -59 9 4 29 9 44 11 23 4 28 1 34 -23 6 -23 2 -31 -22
-50 l-28 -23 67 -68 68 -67 23 28 c18 24 27 28 49 22 22 -5 27 -12 27 -36 0
-16 -4 -32 -10 -35 -22 -13 -7 -25 56 -45 90 -27 124 -27 124 3 0 35 15 49 46
45 25 -2 29 -8 32 -35 3 -29 7 -33 32 -33 15 0 58 9 95 21 55 17 65 23 60 37
-16 38 -17 53 -5 67 19 23 46 18 68 -12 l20 -28 69 68 68 69 -28 20 c-30 22
-35 49 -12 68 14 12 29 11 67 -5 14 -5 20 5 37 60 12 37 21 80 21 96 0 25 -4
29 -30 29 -31 0 -51 24 -42 50 7 20 22 30 50 30 29 0 29 34 2 124 -21 67 -27
75 -47 55 -6 -6 -23 -9 -39 -7 -42 4 -46 44 -8 75 l28 22 -67 68 -68 67 -22
-28 c-32 -39 -72 -34 -71 9 0 17 4 37 8 46 6 13 -6 20 -59 37 -36 12 -79 22
-95 22 -27 0 -30 -3 -30 -30 0 -36 -30 -56 -60 -40 -13 7 -20 21 -20 40 0 27
-3 30 -32 30 -18 -1 -61 -10 -96 -22z m196 -150 c8 -8 12 -51 12 -128 0 -115
0 -117 25 -128 14 -7 30 -23 37 -37 10 -23 15 -24 111 -27 82 -3 102 -6 111
-20 8 -13 8 -23 0 -35 -9 -15 -28 -19 -103 -21 l-93 -3 -37 -39 c-35 -37 -42
-40 -90 -40 -47 0 -57 4 -87 34 -28 28 -34 41 -34 77 0 50 28 104 59 114 20 6
21 14 21 124 0 119 6 141 40 141 9 0 21 -5 28 -12z"/>
<path d="M1590 1075 c-26 -32 13 -81 48 -59 34 22 22 74 -18 74 -10 0 -23 -7
-30 -15z"/>
</g>
</svg>
