<?xml version="1.0" standalone="no"?>
<!DOCTYPE svg PUBLIC "-//W3C//DTD SVG 20010904//EN"
 "http://www.w3.org/TR/2001/REC-SVG-20010904/DTD/svg10.dtd">
<svg version="1.0" xmlns="http://www.w3.org/2000/svg"
 width="272.000000pt" height="272.000000pt" viewBox="0 0 272.000000 272.000000"
 preserveAspectRatio="xMidYMid meet">
<metadata>
Created by potrace 1.10, written by Peter Selinger 2001-2011
</metadata>
<g transform="translate(0.000000,272.000000) scale(0.100000,-0.100000)"
fill="#000000" stroke="none">
<path d="M105 2605 l-25 -24 0 -361 0 -360 678 2 677 3 3 330 c1 182 0 345 -3
363 -3 17 -16 41 -27 52 -21 20 -36 20 -650 20 l-629 0 -24 -25z m407 -302
c14 -13 18 -31 18 -89 0 -66 -2 -74 -26 -93 -71 -56 -140 17 -119 127 4 20 14
45 22 55 20 22 80 22 105 0z m301 0 c36 -41 33 -147 -5 -183 -28 -26 -58 -25
-92 1 -24 19 -26 27 -26 91 0 52 4 76 17 90 21 24 84 24 106 1z m301 -2 c36
-40 32 -145 -6 -181 -28 -26 -58 -25 -92 1 -24 19 -26 27 -26 91 0 52 4 76 17
90 22 24 84 24 107 -1z"/>
<path d="M1685 2605 c-14 -13 -25 -36 -25 -50 0 -26 39 -75 60 -75 6 0 10 -23
10 -55 l0 -55 385 0 385 0 0 55 c0 30 4 55 8 55 22 0 52 43 52 75 0 22 -8 41
-22 55 -21 19 -33 20 -425 20 l-404 0 -24 -25z"/>
<path d="M1770 2215 c0 -3 24 -38 53 -77 l52 -73 5 -100 5 -100 225 0 225 0 5
100 5 100 58 78 57 77 -345 0 c-190 0 -345 -2 -345 -5z"/>
<path d="M131 1718 c-52 -19 -50 13 -51 -821 l0 -778 25 -24 24 -25 430 0 430
0 3 243 c3 242 3 242 31 299 37 75 128 160 202 187 76 29 194 29 270 0 74 -27
165 -112 202 -187 28 -57 28 -57 31 -299 l3 -243 430 0 430 0 24 25 25 24 0
778 c-1 622 -3 781 -14 795 -30 39 -92 40 -122 0 -7 -9 -14 -38 -14 -64 l0
-48 -75 0 -75 0 0 44 c0 85 -77 129 -130 76 -15 -15 -20 -33 -20 -70 l0 -50
-75 0 -75 0 0 44 c0 85 -77 129 -130 76 -15 -15 -20 -33 -20 -70 l0 -50 -74 0
-73 0 -5 50 c-6 64 -29 90 -79 90 -49 0 -69 -27 -69 -92 l0 -48 -74 0 -73 0
-6 51 c-8 65 -29 89 -77 89 -48 0 -69 -24 -77 -89 l-6 -51 -73 0 -74 0 0 48
c0 65 -20 92 -69 92 -50 0 -73 -26 -79 -90 l-5 -50 -73 0 -74 0 0 50 c0 37 -5
55 -20 70 -53 53 -130 9 -130 -76 l0 -44 -75 0 -75 0 0 50 c0 37 -5 55 -20 70
-53 53 -130 9 -130 -76 l0 -44 -75 0 -75 0 0 48 c0 26 -6 55 -14 64 -19 25
-57 37 -85 26z m249 -368 l0 -70 -75 0 -75 0 0 70 0 70 75 0 75 0 0 -70z m300
0 l0 -70 -75 0 -75 0 0 70 0 70 75 0 75 0 0 -70z m300 0 l0 -70 -75 0 -75 0 0
70 0 70 75 0 75 0 0 -70z m300 0 l0 -70 -75 0 -75 0 0 70 0 70 75 0 75 0 0
-70z m310 0 l0 -70 -75 0 -75 0 0 70 0 70 75 0 75 0 0 -70z m300 0 l0 -70 -75
0 -75 0 0 70 0 70 75 0 75 0 0 -70z m300 0 l0 -70 -75 0 -75 0 0 70 0 70 75 0
75 0 0 -70z m300 0 l0 -70 -75 0 -75 0 0 70 0 70 75 0 75 0 0 -70z"/>
<path d="M1265 653 c-44 -23 -84 -63 -106 -105 -17 -33 -19 -60 -19 -258 l0
-220 220 0 220 0 0 220 c0 184 -3 226 -16 253 -23 45 -63 86 -106 108 -47 24
-150 25 -193 2z"/>
</g>
</svg>
