<?xml version="1.0" standalone="no"?>
<!DOCTYPE svg PUBLIC "-//W3C//DTD SVG 20010904//EN"
 "http://www.w3.org/TR/2001/REC-SVG-20010904/DTD/svg10.dtd">
<svg version="1.0" xmlns="http://www.w3.org/2000/svg"
 width="126.000000pt" height="198.000000pt" viewBox="0 0 126.000000 198.000000"
 preserveAspectRatio="xMidYMid meet">
<metadata>
Created by potrace 1.10, written by Peter Selinger 2001-2011
</metadata>
<g transform="translate(0.000000,198.000000) scale(0.100000,-0.100000)"
fill="#000000" stroke="none">
<path d="M450 1934 c-36 -7 -97 -29 -136 -49 -135 -66 -261 -235 -272 -362 -4
-49 -2 -55 31 -88 29 -29 42 -35 76 -35 76 0 104 24 136 120 19 56 75 139 113
167 78 57 112 68 222 68 93 0 112 -3 161 -26 79 -37 133 -90 170 -165 26 -52
32 -77 32 -132 1 -111 -19 -143 -212 -332 -215 -211 -252 -275 -267 -459 -6
-68 -4 -79 16 -103 20 -26 27 -28 90 -28 96 0 109 12 121 119 15 133 29 156
212 336 180 176 219 226 253 324 28 77 32 196 10 277 -47 179 -213 327 -411
369 -87 18 -259 18 -345 -1z"/>
<path d="M553 290 c-104 -63 -71 -224 49 -237 55 -6 101 15 128 60 70 114 -63
247 -177 177z"/>
</g>
</svg>
