<?xml version="1.0" standalone="no"?>
<!DOCTYPE svg PUBLIC "-//W3C//DTD SVG 20010904//EN"
 "http://www.w3.org/TR/2001/REC-SVG-20010904/DTD/svg10.dtd">
<svg version="1.0" xmlns="http://www.w3.org/2000/svg"
 width="162.000000pt" height="247.000000pt" viewBox="0 0 162.000000 247.000000"
 preserveAspectRatio="xMidYMid meet">
<metadata>
Created by potrace 1.10, written by Peter Selinger 2001-2011
</metadata>
<g transform="translate(0.000000,247.000000) scale(0.050000,-0.050000)"
 stroke="none">
<path d="M501 4693 l-68 -127 -116 47 c-227 92 -230 78 -75 -345 144 -394 123
-362 293 -430 121 -48 138 -61 163 -131 72 -198 100 -247 141 -247 54 0 52 22
-17 200 l-57 150 67 135 c85 168 90 126 -59 525 -151 406 -167 419 -272 223z
m119 -104 c0 -45 -65 -168 -83 -157 -27 17 -20 80 17 145 35 60 66 66 66 12z
m-278 -89 c24 0 98 -75 98 -99 0 -27 -125 17 -155 55 -35 44 -31 71 7 56 17
-7 40 -12 50 -12z m378 -163 c0 -8 -20 -48 -44 -89 l-44 -75 -18 56 c-28 84
37 218 78 162 15 -21 28 -45 28 -54z m-287 -61 c55 -20 136 -136 95 -136 -39
0 -149 64 -166 97 -39 72 -31 76 71 39z m356 -134 c12 -38 -44 -182 -70 -182
-32 0 -34 89 -4 152 37 77 57 85 74 30z m-261 -110 c78 -32 118 -123 45 -101
-70 21 -133 68 -133 99 0 37 5 37 88 2z"/>
<path d="M1091 4462 l-133 -359 73 -144 72 -144 -61 -164 c-74 -196 -74 -191
-13 -191 41 0 55 18 89 115 70 195 81 208 232 269 l141 57 53 144 53 145 2
-124 1 -123 120 -105 120 -104 0 -138 c0 -132 2 -138 45 -132 41 5 46 20 55
146 10 139 11 141 115 238 l105 97 0 398 c0 420 -14 471 -101 366 -14 -17 -60
-58 -102 -91 l-77 -61 -105 92 c-115 100 -162 108 -171 29 -4 -37 -24 -57 -71
-74 -101 -37 -108 -32 -173 96 -98 194 -113 180 -269 -238z m226 103 c40 -79
32 -175 -10 -122 -46 58 -69 120 -57 158 17 53 24 50 67 -36z m689 -133 c-56
-49 -56 -49 -63 -6 -5 28 12 58 50 88 83 67 95 -11 13 -82z m-212 65 c43 -41
64 -117 32 -117 -31 0 -122 107 -112 132 14 38 26 35 80 -15z m-198 -12 c-5
-29 -115 -101 -159 -104 -40 -3 18 85 71 108 84 37 96 37 88 -4z m-340 -256
l-23 -50 -39 61 c-29 46 -35 79 -25 134 l14 73 48 -84 c40 -71 44 -92 25 -134z
m584 -53 c0 -63 -15 -62 -95 10 -27 25 -45 64 -45 99 l0 57 70 -53 c52 -40 70
-69 70 -113z m162 -4 l-62 -61 0 58 c0 37 21 80 55 116 l55 58 7 -54 c4 -40
-11 -72 -55 -117z m-482 102 c0 -15 -11 -40 -25 -58 -29 -36 -155 -82 -155
-57 0 47 32 88 88 112 79 35 92 35 92 3z m-340 -239 c-1 -77 -38 -78 -76 -2
-56 109 -22 187 38 88 21 -34 38 -73 38 -86z m657 -106 l6 -57 -66 51 c-42 33
-69 73 -74 108 l-6 57 66 -51 c42 -33 69 -73 74 -108z m165 4 l-62 -62 0 55
c0 76 106 175 117 110 4 -26 -17 -65 -55 -103z m-576 86 c-10 -37 -141 -111
-161 -91 -22 22 21 86 70 106 84 33 102 30 91 -15z"/>
<path d="M820 3270 l0 -70 570 0 570 0 0 70 0 70 -570 0 -570 0 0 -70z"/>
<path d="M2330 3113 c-44 -15 -145 -60 -225 -100 -177 -90 -173 -90 -160 7
l11 80 -567 0 -567 0 9 -125 c10 -129 49 -907 49 -976 0 -38 18 -39 507 -39
l508 0 13 265 c7 146 18 340 25 432 l12 168 209 100 c400 191 705 126 874
-185 195 -358 -1 -740 -424 -829 -323 -68 -431 -173 -604 -586 -141 -336 -150
-351 -150 -249 l0 74 -449 5 c-246 3 -456 -2 -465 -11 -30 -30 22 -745 62
-833 203 -461 788 -290 830 241 10 120 39 206 185 550 254 597 292 642 606
708 380 80 571 301 571 660 -1 452 -442 781 -860 643z m-1293 -241 c8 -73 -24
-108 -66 -73 -32 27 -42 103 -17 128 30 31 76 0 83 -55z m30 -489 c19 -340 8
-407 -56 -342 -21 21 -32 116 -42 356 l-15 327 48 -7 c48 -7 48 -10 65 -334z"/>
<path d="M893 1715 c5 -80 13 -219 19 -310 l12 -165 466 0 466 0 12 185 c6
102 14 241 18 310 l7 125 -504 0 -504 0 8 -145z m679 63 c197 -184 104 -485
-159 -512 -277 -28 -420 316 -210 506 95 86 281 89 369 6z"/>
<path d="M1252 1678 c-139 -164 35 -388 225 -290 34 18 71 50 82 71 103 192
-167 386 -307 219z"/>
</g>
</svg>
