<?xml version="1.0" standalone="no"?>
<!DOCTYPE svg PUBLIC "-//W3C//DTD SVG 20010904//EN"
 "http://www.w3.org/TR/2001/REC-SVG-20010904/DTD/svg10.dtd">
<svg version="1.0" xmlns="http://www.w3.org/2000/svg"
 width="300.000000pt" height="300.000000pt" viewBox="0 0 300.000000 300.000000"
 preserveAspectRatio="xMidYMid meet">
<metadata>
Created by potrace 1.10, written by Peter Selinger 2001-2011
</metadata>
<g transform="translate(0.000000,300.000000) scale(0.100000,-0.100000)"
fill="#000000" stroke="none">
<path d="M1355 2994 c-229 -33 -374 -77 -544 -164 -411 -213 -697 -599 -788
-1065 -24 -125 -24 -405 0 -530 29 -148 74 -279 142 -413 316 -623 1021 -945
1696 -777 127 32 209 64 339 131 401 208 687 598 777 1059 25 128 24 396 -1
530 -62 334 -238 645 -487 862 -77 66 -206 160 -212 152 -2 -2 -27 -44 -56
-94 l-51 -90 22 -15 c13 -8 51 -36 86 -62 54 -41 66 -46 88 -38 14 6 34 10 46
10 35 0 90 -32 109 -64 21 -34 25 -96 9 -126 -8 -15 0 -35 45 -104 278 -426
274 -985 -9 -1406 -56 -83 -57 -85 -47 -127 26 -101 -69 -194 -164 -163 -31
10 -38 7 -131 -56 -438 -298 -998 -301 -1434 -9 -276 185 -454 440 -540 773
-8 31 -16 42 -30 42 -11 0 -34 13 -52 29 -27 24 -32 36 -36 87 -4 54 -1 63 22
91 15 18 36 35 46 38 17 5 20 16 20 63 0 80 25 226 56 323 135 429 476 749
922 866 130 34 372 43 508 19 111 -19 231 -56 332 -102 41 -19 76 -33 77 -32
14 19 105 181 103 183 -18 16 -169 82 -240 106 -145 49 -266 69 -438 73 -85 3
-168 2 -185 0z"/>
<path d="M1355 2709 c-285 -38 -532 -164 -731 -371 -203 -212 -312 -457 -338
-764 l-5 -61 37 -24 c80 -52 91 -142 26 -207 l-35 -35 26 -90 c112 -390 429
-708 819 -821 130 -38 206 -49 351 -49 251 0 463 65 672 205 l93 62 -6 51 c-4
40 -1 57 15 83 33 51 77 74 133 67 l47 -6 52 77 c93 138 161 311 190 483 15
85 15 297 0 382 -28 165 -92 332 -179 467 -46 70 -48 73 -80 67 -47 -9 -96 11
-133 52 -30 34 -31 40 -26 95 l5 59 -70 49 c-39 28 -74 50 -78 50 -8 0 -114
-180 -109 -184 2 -1 20 -13 39 -26 110 -74 252 -231 303 -336 17 -35 26 -43
57 -48 94 -15 137 -133 74 -201 -23 -25 -23 -26 -12 -130 53 -468 -243 -916
-698 -1058 -161 -51 -356 -59 -512 -22 -64 15 -64 15 -94 -10 -16 -14 -39 -26
-51 -27 -96 -6 -157 42 -157 125 0 30 -6 38 -57 72 -73 48 -188 163 -240 240
-177 261 -227 580 -137 865 28 92 80 200 125 266 25 36 27 46 19 75 -23 78 34
143 118 137 42 -3 53 2 112 43 286 204 670 245 977 104 l73 -34 41 72 c23 40
48 82 55 94 13 21 12 24 -33 47 -75 37 -214 83 -305 101 -105 20 -282 27 -373
14z"/>
<path d="M1320 2415 c-111 -22 -234 -73 -329 -136 l-91 -60 6 -38 c12 -74 -49
-138 -123 -129 -32 4 -36 1 -75 -61 -48 -76 -88 -170 -114 -267 -15 -53 -19
-104 -19 -224 0 -168 11 -230 66 -361 58 -141 193 -311 313 -394 l51 -35 40
20 c21 11 50 20 63 20 62 0 132 -65 132 -123 0 -22 6 -27 53 -37 80 -19 268
-24 353 -10 295 47 554 238 686 505 41 82 73 176 87 259 12 67 14 219 5 291
-7 44 -10 48 -50 65 -78 34 -106 116 -61 182 l26 37 -59 89 c-58 87 -195 229
-257 264 l-29 17 -59 -101 -58 -100 34 -26 c248 -188 345 -512 240 -801 -67
-183 -209 -331 -385 -402 -22 -9 -43 -23 -47 -30 -36 -81 -62 -106 -120 -115
-48 -8 -102 18 -129 61 -17 28 -27 33 -75 39 -30 3 -90 19 -134 35 -341 124
-526 487 -430 844 18 68 77 181 127 243 187 232 500 318 783 214 l79 -29 41
72 c23 40 48 82 55 94 8 12 14 26 14 31 0 20 -170 83 -274 101 -80 15 -256 12
-336 -4z"/>
<path d="M1375 2116 c-142 -34 -230 -83 -326 -183 -122 -127 -174 -257 -174
-433 0 -176 52 -306 174 -433 78 -81 169 -138 266 -165 123 -35 133 -36 150
-3 24 48 62 71 114 71 47 0 111 -29 111 -51 0 -20 60 -1 130 40 78 47 184 155
227 231 54 95 78 191 78 310 0 125 -25 219 -85 320 -41 70 -172 204 -192 198
-7 -3 -58 -83 -114 -179 l-101 -174 28 -35 c109 -137 14 -335 -161 -335 -135
0 -235 126 -202 253 27 101 103 157 214 157 l68 0 100 173 c55 96 100 178 100
182 0 5 -37 21 -82 35 -102 33 -236 41 -323 21z"/>
</g>
</svg>
