<?xml version="1.0" standalone="no"?>
<!DOCTYPE svg PUBLIC "-//W3C//DTD SVG 20010904//EN"
 "http://www.w3.org/TR/2001/REC-SVG-20010904/DTD/svg10.dtd">
<svg version="1.0" xmlns="http://www.w3.org/2000/svg"
 width="512.000000pt" height="512.000000pt" viewBox="0 0 512.000000 512.000000"
 preserveAspectRatio="xMidYMid meet">
<g transform="translate(0.000000,512.000000) scale(0.100000,-0.100000)"
fill="#000000" stroke="none">
<path d="M2315 5114 c-305 -30 -507 -77 -745 -170 -584 -231 -1070 -694 -1334
-1271 -132 -289 -202 -578 -221 -918 -8 -140 3 -182 57 -215 30 -18 50 -20
233 -20 178 0 203 2 228 19 53 34 60 55 68 195 11 198 35 325 90 496 129 395
403 756 749 987 312 207 668 313 1053 313 508 -1 971 -194 1336 -558 57 -57
102 -105 100 -106 -2 -2 -139 20 -304 50 -165 29 -316 54 -335 54 -44 0 -97
-32 -112 -68 -15 -38 -68 -339 -68 -389 0 -50 34 -96 83 -112 76 -24 1522
-272 1553 -266 27 5 94 62 94 80 0 2 61 349 135 770 125 706 134 768 121 798
-28 67 -47 75 -261 113 -194 34 -197 35 -233 17 -20 -10 -44 -29 -53 -43 -12
-17 -36 -129 -74 -345 -31 -176 -57 -321 -59 -322 -1 -2 -42 42 -90 96 -380
429 -912 712 -1501 796 -99 15 -433 27 -510 19z"/>
<path d="M4587 2581 c-53 -34 -60 -55 -68 -195 -4 -72 -13 -162 -19 -201 -104
-651 -539 -1204 -1143 -1454 -215 -89 -414 -130 -664 -138 -449 -14 -841 109
-1202 380 -86 64 -309 273 -300 281 2 2 139 -20 304 -50 165 -29 316 -54 335
-54 44 0 97 32 112 68 15 38 68 339 68 389 0 50 -34 96 -83 112 -38 12 -1501
271 -1531 271 -28 0 -81 -33 -100 -62 -10 -15 -69 -327 -151 -791 -124 -707
-134 -770 -121 -800 28 -67 48 -75 255 -112 204 -36 233 -36 277 5 29 28 35
53 95 395 28 160 52 291 53 293 2 1 41 -41 87 -93 161 -183 365 -350 584 -480
657 -388 1463 -451 2175 -169 584 232 1066 690 1333 1269 132 287 203 579 222
920 8 140 -3 182 -57 215 -30 18 -50 20 -233 20 -178 0 -203 -2 -228 -19z"/>
</g>
</svg>
