<?xml version="1.0" standalone="no"?>
<!DOCTYPE svg PUBLIC "-//W3C//DTD SVG 20010904//EN"
 "http://www.w3.org/TR/2001/REC-SVG-20010904/DTD/svg10.dtd">
<svg version="1.0" xmlns="http://www.w3.org/2000/svg"
 width="270.000000pt" height="271.000000pt" viewBox="0 0 270.000000 271.000000"
 preserveAspectRatio="xMidYMid meet">
<metadata>
Created by potrace 1.10, written by Peter Selinger 2001-2011
</metadata>
<g transform="translate(0.000000,271.000000) scale(0.100000,-0.100000)"
fill="#000000" stroke="none">
<path d="M232 2555 c-23 -47 -42 -87 -42 -90 0 -3 522 -5 1160 -5 638 0 1160
2 1160 5 0 3 -19 43 -42 90 l-42 85 -1076 0 -1076 0 -42 -85z"/>
<path d="M70 2335 l0 -45 1103 -2 1102 -3 3 -42 3 -43 -1105 0 -1106 0 0 -45
0 -45 1280 0 1280 0 0 45 0 45 -130 0 -130 0 0 45 0 45 130 0 130 0 0 45 0 45
-1280 0 -1280 0 0 -45z"/>
<path d="M70 1960 c0 -77 27 -110 88 -110 57 0 85 33 90 110 l4 60 -91 0 -91
0 0 -60z"/>
<path d="M333 1959 c7 -77 33 -109 89 -109 61 0 88 33 88 110 l0 60 -91 0 -92
0 6 -61z"/>
<path d="M600 1960 c0 -77 27 -110 88 -110 57 0 85 33 90 110 l4 60 -91 0 -91
0 0 -60z"/>
<path d="M862 1960 c5 -77 33 -110 90 -110 61 0 88 33 88 110 l0 60 -91 0 -91
0 4 -60z"/>
<path d="M1130 1960 c0 -77 27 -110 88 -110 57 0 85 33 90 110 l4 60 -91 0
-91 0 0 -60z"/>
<path d="M1392 1960 c5 -77 33 -110 90 -110 61 0 88 33 88 110 l0 60 -91 0
-91 0 4 -60z"/>
<path d="M1660 1960 c0 -77 27 -110 88 -110 57 0 85 33 90 110 l4 60 -91 0
-91 0 0 -60z"/>
<path d="M1922 1960 c5 -77 33 -110 90 -110 61 0 88 33 88 110 l0 60 -91 0
-91 0 4 -60z"/>
<path d="M2190 1960 c0 -77 27 -110 88 -110 56 0 82 32 89 109 l6 61 -92 0
-91 0 0 -60z"/>
<path d="M2452 1960 c5 -77 33 -110 90 -110 61 0 88 33 88 110 l0 60 -91 0
-91 0 4 -60z"/>
<path d="M539 1804 c-40 -48 -139 -57 -205 -19 l-42 25 -46 -26 -46 -26 0
-264 0 -264 45 0 45 0 0 220 0 220 465 0 465 0 0 -795 0 -795 45 0 45 0 0 90
0 90 31 0 c26 0 30 3 24 17 -13 35 -17 73 -11 106 9 46 68 113 114 128 20 7
49 25 64 41 30 32 85 58 124 58 16 0 34 10 46 25 24 31 61 51 113 61 24 4 55
21 77 40 74 66 175 65 240 -2 20 -20 43 -34 58 -34 35 -1 101 -33 129 -64 14
-14 35 -26 48 -26 29 0 91 -25 115 -47 17 -15 18 9 18 590 l0 605 -46 26 -46
26 -42 -25 c-66 -38 -165 -29 -205 19 -13 16 -15 15 -35 -3 -51 -48 -137 -54
-204 -16 l-44 25 -42 -25 c-66 -38 -165 -29 -205 19 -13 16 -15 15 -35 -3 -51
-47 -137 -54 -203 -16 l-43 24 -42 -24 c-67 -38 -153 -31 -204 16 -20 18 -22
19 -35 3 -40 -48 -139 -57 -205 -19 l-42 25 -44 -25 c-67 -38 -153 -32 -204
16 -20 18 -22 19 -35 3z m1781 -489 l0 -355 -352 2 -353 3 -3 339 c-1 187 0
346 2 353 4 10 76 13 356 13 l350 0 0 -355z"/>
<path d="M1700 1470 l0 -110 110 0 110 0 0 110 0 110 -110 0 -110 0 0 -110z"/>
<path d="M2010 1470 l0 -110 110 0 110 0 0 110 0 110 -110 0 -110 0 0 -110z"/>
<path d="M1700 1160 l0 -110 110 0 110 0 0 110 0 110 -110 0 -110 0 0 -110z"/>
<path d="M2010 1160 l0 -110 110 0 110 0 0 110 0 110 -110 0 -110 0 0 -110z"/>
<path d="M380 1535 l0 -45 65 0 65 0 0 -45 0 -45 -65 0 -65 0 0 -85 0 -85 175
0 c136 0 175 -3 175 -13 0 -7 11 -145 25 -307 14 -162 25 -296 25 -297 0 -2
-40 -3 -90 -3 l-90 0 0 -265 0 -265 265 0 265 0 0 660 0 660 -265 0 -265 0 0
45 0 45 265 0 265 0 0 45 0 45 -375 0 -375 0 0 -45z m660 -750 l0 -45 -45 0
-45 0 0 45 0 45 45 0 45 0 0 -45z"/>
<path d="M110 1123 c-1 -10 -9 -109 -18 -220 l-18 -203 303 0 303 0 0 33 c0
17 -7 106 -15 197 -8 91 -15 175 -15 188 l0 22 -270 0 c-250 0 -270 -1 -270
-17z m448 -115 l-3 -43 -177 -3 -178 -2 0 45 0 45 181 0 180 0 -3 -42z m2
-178 l0 -40 -180 0 -180 0 0 40 0 40 180 0 180 0 0 -40z"/>
<path d="M1968 685 c-18 -10 -32 -30 -39 -56 -11 -34 -16 -39 -33 -34 -64 18
-82 17 -113 -9 -17 -14 -33 -40 -37 -57 -5 -25 -10 -30 -23 -24 -10 4 -35 9
-55 12 -32 5 -41 1 -68 -25 -16 -17 -30 -38 -30 -46 0 -12 -10 -16 -40 -16
-54 0 -90 -34 -90 -85 0 -25 8 -44 25 -60 l24 -25 524 0 524 0 23 25 c53 57
13 145 -65 145 -30 0 -37 5 -49 34 -23 54 -64 66 -142 41 -18 -6 -22 -2 -27
24 -4 18 -18 43 -32 57 -22 22 -32 25 -63 20 -75 -13 -75 -13 -84 20 -15 59
-78 88 -130 59z m262 -250 l0 -45 -45 0 -45 0 0 38 c0 48 4 52 52 52 l38 0 0
-45z m-482 -47 c-3 -43 -3 -43 -45 -46 l-43 -3 0 45 0 46 46 0 45 0 -3 -42z"/>
<path d="M250 520 l0 -90 130 0 130 0 0 90 0 90 -130 0 -130 0 0 -90z"/>
<path d="M250 210 l0 -130 130 0 130 0 0 130 0 130 -130 0 -130 0 0 -130z"/>
<path d="M1397 163 c-4 -3 -7 -24 -7 -45 l0 -38 620 0 620 0 0 45 0 45 -613 0
c-338 0 -617 -3 -620 -7z"/>
</g>
</svg>
