<?xml version="1.0" standalone="no"?>
<!DOCTYPE svg PUBLIC "-//W3C//DTD SVG 20010904//EN"
 "http://www.w3.org/TR/2001/REC-SVG-20010904/DTD/svg10.dtd">
<svg version="1.0" xmlns="http://www.w3.org/2000/svg"
 width="133.000000pt" height="121.000000pt" viewBox="0 0 133.000000 121.000000"
 preserveAspectRatio="xMidYMid meet">
<metadata>
Created by potrace 1.10, written by Peter Selinger 2001-2011
</metadata>
<g transform="translate(0.000000,121.000000) scale(0.100000,-0.100000)"
fill="#000000" stroke="none">
<path d="M310 1145 c0 -18 5 -25 19 -25 13 0 21 -8 23 -22 2 -15 11 -24 26
-26 19 -3 22 -9 22 -47 0 -38 3 -44 23 -47 19 -3 22 -9 22 -48 0 -39 -3 -45
-22 -48 -15 -2 -23 -10 -23 -22 0 -15 -9 -19 -47 -22 -41 -3 -48 -6 -51 -25
-2 -15 -10 -23 -23 -23 -16 0 -19 7 -19 45 0 41 -2 45 -25 45 -20 0 -25 5 -25
25 0 25 0 25 -95 25 -95 0 -95 0 -95 -25 0 -19 5 -25 21 -25 12 0 23 -8 26
-20 3 -11 14 -20 24 -20 14 0 18 -9 21 -47 3 -41 6 -48 25 -51 14 -2 23 -11
25 -25 2 -14 11 -23 26 -25 22 -3 22 -6 22 -143 l0 -139 -25 0 c-20 0 -25 -5
-25 -25 0 -20 -5 -25 -25 -25 -20 0 -25 -5 -25 -25 0 -18 -5 -25 -20 -25 -19
0 -20 -7 -20 -95 0 -88 1 -95 20 -95 13 0 20 -7 20 -20 0 -15 7 -20 25 -20 24
0 24 2 27 92 3 88 4 93 26 96 14 2 22 10 22 23 0 16 7 19 45 19 38 0 45 -3 45
-20 0 -15 7 -20 25 -20 20 0 25 -5 25 -25 0 -20 5 -25 25 -25 20 0 25 -5 25
-25 0 -20 5 -25 25 -25 23 0 25 -4 25 -45 0 -38 3 -45 20 -45 15 0 20 -7 20
-25 0 -23 3 -25 51 -25 47 0 50 2 47 23 -2 14 -11 23 -25 25 -20 3 -23 9 -23
48 0 40 2 44 25 44 20 0 25 5 25 25 0 24 2 25 70 25 68 0 70 -1 70 -25 0 -20
5 -25 25 -25 23 0 25 -4 25 -44 0 -39 -3 -45 -22 -48 -15 -2 -24 -11 -26 -25
-3 -21 0 -23 47 -23 44 0 50 3 53 23 2 14 11 23 26 25 19 3 22 9 22 48 0 37 3
44 19 44 13 0 21 8 23 23 2 14 11 23 25 25 14 2 23 11 25 25 2 14 11 23 26 25
14 2 22 10 22 23 0 16 7 19 45 19 38 0 45 -3 45 -20 0 -15 7 -20 25 -20 25 0
25 0 25 -94 0 -84 2 -94 19 -99 23 -6 31 0 31 24 0 11 9 19 23 21 21 3 22 8
25 95 l3 93 -26 0 c-20 0 -25 5 -25 25 0 20 -5 25 -25 25 -20 0 -25 5 -25 25
0 20 -5 25 -25 25 l-25 0 0 139 c0 137 0 140 23 143 14 2 23 11 25 26 3 16 10
22 28 22 22 0 24 4 24 50 0 47 2 50 25 50 18 0 25 5 25 20 0 13 7 20 20 20 15
0 20 7 20 25 0 25 0 25 -95 25 -95 0 -95 0 -95 -25 0 -18 -5 -25 -19 -25 -16
0 -20 -8 -23 -42 -2 -35 -7 -44 -25 -46 -16 -2 -22 3 -25 20 -3 20 -10 23 -50
26 -40 3 -48 6 -48 23 0 12 -7 19 -20 19 -17 0 -20 7 -20 50 0 43 3 50 20 50
17 0 20 7 20 45 0 41 2 45 25 45 20 0 25 5 25 24 0 18 6 25 23 28 14 2 23 11
25 26 3 22 2 23 -70 20 -67 -3 -73 -5 -76 -25 -2 -15 -10 -23 -22 -23 -12 0
-20 -8 -22 -22 -2 -15 -11 -24 -25 -26 -20 -3 -23 -9 -23 -48 l0 -44 -119 0
-120 0 -3 48 c-3 39 -6 47 -23 47 -13 0 -21 8 -23 23 -2 14 -10 22 -22 22 -12
0 -20 8 -22 23 -3 20 -9 22 -70 25 -67 3 -68 3 -68 -23z m420 -284 c0 -13 8
-21 23 -23 20 -3 22 -8 22 -73 0 -65 -2 -70 -22 -73 -15 -2 -23 -10 -23 -23 0
-17 -8 -19 -70 -19 -62 0 -70 2 -70 19 0 13 -8 21 -22 23 -21 3 -23 8 -23 73
0 65 2 70 23 73 14 2 22 10 22 23 0 17 8 19 70 19 62 0 70 -2 70 -19z m-190
-286 c0 -20 5 -25 25 -25 24 0 25 -2 25 -70 0 -68 -1 -70 -25 -70 -20 0 -25
-5 -25 -25 0 -24 -2 -25 -70 -25 -68 0 -70 1 -70 25 0 20 -5 25 -25 25 -24 0
-25 2 -25 70 0 68 1 70 25 70 20 0 25 5 25 25 0 24 2 25 70 25 68 0 70 -1 70
-25z m380 0 c0 -20 5 -25 25 -25 24 0 25 -2 25 -70 0 -68 -1 -70 -25 -70 -20
0 -25 -5 -25 -25 0 -24 -2 -25 -70 -25 -68 0 -70 1 -70 25 0 20 -5 25 -25 25
-24 0 -25 2 -25 70 0 68 1 70 25 70 20 0 25 5 25 25 0 24 2 25 70 25 68 0 70
-1 70 -25z"/>
<path d="M590 765 l0 -75 70 0 70 0 0 75 0 75 -70 0 -70 0 0 -75z"/>
<path d="M400 480 l0 -70 70 0 70 0 0 70 0 70 -70 0 -70 0 0 -70z"/>
<path d="M780 480 l0 -70 70 0 70 0 0 70 0 70 -70 0 -70 0 0 -70z"/>
</g>
</svg>
