<?xml version="1.0" standalone="no"?>
<!DOCTYPE svg PUBLIC "-//W3C//DTD SVG 20010904//EN"
 "http://www.w3.org/TR/2001/REC-SVG-20010904/DTD/svg10.dtd">
<svg version="1.0" xmlns="http://www.w3.org/2000/svg"
 width="45.000000pt" height="57.000000pt" viewBox="0 0 45.000000 57.000000"
 preserveAspectRatio="xMidYMid meet">
<metadata>
Created by potrace 1.10, written by Peter Selinger 2001-2011
</metadata>
<g transform="translate(0.000000,57.000000) scale(0.100000,-0.100000)"
 stroke="none">
<path d="M162 508 c-19 -19 -15 -58 6 -58 37 0 65 -55 44 -86 -4 -6 -15 -15
-25 -21 -17 -9 -17 -11 8 -34 35 -32 65 -92 64 -126 0 -21 -4 -15 -14 22 -16
62 -69 115 -117 116 -33 1 -32 1 11 15 55 17 71 31 71 60 0 31 -31 46 -78 39
-31 -4 -33 -4 -14 5 27 12 27 47 -1 64 -25 16 -51 -4 -55 -43 -3 -24 1 -31 15
-31 11 -1 5 -6 -15 -15 -42 -18 -48 -36 -33 -98 26 -114 42 -156 62 -162 16
-5 19 -16 19 -71 l0 -64 125 0 125 0 0 63 c0 58 2 65 25 75 23 10 25 17 25 71
0 53 -2 60 -17 54 -17 -5 -17 -5 0 8 15 12 17 27 15 99 -3 82 -4 85 -27 88
-37 6 -51 -22 -51 -99 0 -59 3 -70 22 -83 18 -13 19 -16 6 -16 -9 0 -19 4 -23
9 -3 5 -21 7 -39 4 -26 -4 -38 -1 -52 15 -9 11 -24 18 -33 15 -13 -3 -12 -2 2
7 14 9 17 26 17 88 0 79 -9 102 -40 102 -9 0 -21 -5 -28 -12z"/>
<path d="M255 484 c-23 -24 -18 -162 8 -178 12 -8 22 -8 35 0 26 17 31 163 6
181 -23 17 -29 16 -49 -3z"/>
</g>
</svg>
