<?xml version="1.0" standalone="no"?>
<!DOCTYPE svg PUBLIC "-//W3C//DTD SVG 20010904//EN"
 "http://www.w3.org/TR/2001/REC-SVG-20010904/DTD/svg10.dtd">
<svg version="1.0" xmlns="http://www.w3.org/2000/svg"
 width="253.000000pt" height="264.000000pt" viewBox="0 0 253.000000 264.000000"
 preserveAspectRatio="xMidYMid meet">
<metadata>
Created by potrace 1.10, written by Peter Selinger 2001-2011
</metadata>
<g transform="translate(0.000000,264.000000) scale(0.100000,-0.100000)"
fill="#000000" stroke="none">
<path d="M691 2330 c-267 -154 -486 -282 -487 -283 -6 -6 361 -212 377 -212 8
0 149 77 312 170 l296 170 1 218 c0 119 -3 217 -7 217 -5 0 -226 -126 -492
-280z"/>
<path d="M1350 2394 l1 -219 296 -170 c163 -93 304 -170 312 -170 9 0 98 47
198 104 155 89 179 107 165 116 -29 20 -941 545 -957 551 -13 5 -15 -23 -15
-212z"/>
<path d="M963 1873 l-303 -176 0 -357 0 -357 305 -176 305 -176 305 176 305
176 0 357 0 357 -301 174 c-166 96 -305 175 -308 176 -3 0 -142 -78 -308 -174z"/>
<path d="M120 1340 c0 -313 2 -570 5 -570 3 0 89 48 190 106 l185 106 0 358 0
358 -185 106 c-101 58 -187 106 -190 106 -3 0 -5 -256 -5 -570z"/>
<path d="M2223 1803 l-183 -105 0 -358 0 -358 185 -106 c101 -58 187 -106 190
-106 3 0 5 257 5 570 0 314 -3 570 -7 569 -5 0 -90 -48 -190 -106z"/>
<path d="M395 749 c-93 -55 -176 -103 -183 -108 -8 -4 170 -112 476 -289 269
-155 492 -282 495 -282 4 0 7 98 7 218 l-1 217 -296 170 c-163 94 -303 171
-312 172 -9 1 -92 -43 -186 -98z"/>
<path d="M1648 677 l-297 -172 -1 -219 c0 -189 2 -217 15 -212 16 6 928 531
957 551 14 9 -10 27 -165 116 -99 57 -188 105 -197 106 -8 1 -149 -76 -312
-170z"/>
</g>
</svg>
