<?xml version="1.0" standalone="no"?>
<!DOCTYPE svg PUBLIC "-//W3C//DTD SVG 20010904//EN"
 "http://www.w3.org/TR/2001/REC-SVG-20010904/DTD/svg10.dtd">
<svg version="1.0" xmlns="http://www.w3.org/2000/svg"
 width="245.000000pt" height="201.000000pt" viewBox="0 0 245.000000 201.000000"
 preserveAspectRatio="xMidYMid meet">
<metadata>
Created by potrace 1.10, written by Peter Selinger 2001-2011
</metadata>
<g transform="translate(0.000000,201.000000) scale(0.100000,-0.100000)"
fill="#000000" stroke="none">
<path d="M145 1957 c-56 -32 -82 -76 -90 -150 -3 -34 -5 -357 -3 -717 l3 -655
24 -41 c13 -24 41 -52 65 -65 l41 -24 1045 0 1045 0 41 24 c24 13 52 41 65 65
l24 41 3 655 c2 360 0 683 -3 717 -8 74 -34 118 -90 150 l-40 23 -1045 0
-1045 0 -40 -23z m2103 -349 l2 -227 48 -3 47 -3 0 -235 0 -235 -47 -3 -48 -3
0 -225 0 -224 -1020 0 -1019 0 -3 108 -3 107 -40 5 -40 5 -3 157 -3 157 43 3
43 3 0 145 0 145 -40 5 -40 5 -3 157 -3 157 43 3 43 3 3 100 c1 55 4 106 7
113 3 10 212 12 1017 10 l1013 -3 3 -227z"/>
<path d="M252 1703 l3 -88 43 -3 43 -3 -3 -157 -3 -157 -40 -5 -40 -5 0 -145
0 -145 43 -3 43 -3 -3 -157 -3 -157 -40 -5 -40 -5 0 -85 0 -85 973 -3 972 -2
0 205 0 205 -160 0 c-173 0 -202 6 -253 54 -54 53 -69 99 -65 201 3 81 6 96
30 131 15 21 44 50 65 64 35 24 44 25 210 28 l173 3 0 205 0 204 -975 0 -976
0 3 -87z m1401 -15 c8 -24 -5 -38 -33 -38 -32 0 -45 13 -36 35 7 18 63 20 69
3z m479 0 c13 -36 0 -38 -207 -38 -204 0 -224 3 -211 35 7 20 411 22 418 3z
m-844 -147 c2 -67 -1 -108 -9 -117 -16 -19 -728 -21 -747 -2 -16 16 -16 200 0
216 9 9 103 12 383 10 l370 -3 3 -104z m-570 -213 c18 -18 16 -152 -2 -167 -9
-8 -46 -11 -103 -9 l-88 3 -3 79 c-2 44 -1 85 2 93 7 17 176 19 194 1z m287
-83 l0 -90 -88 -3 c-57 -2 -94 1 -103 9 -18 15 -19 150 -2 167 9 9 41 12 103
10 l90 -3 0 -90z m283 83 c18 -18 16 -152 -2 -167 -9 -8 -46 -11 -103 -9 l-88
3 -3 79 c-2 44 -1 85 2 93 7 17 176 19 194 1z m-570 -270 c7 -7 12 -42 12 -88
0 -46 -5 -81 -12 -88 -7 -7 -43 -12 -93 -12 -50 0 -86 5 -93 12 -7 7 -12 42
-12 88 0 46 5 81 12 88 7 7 43 12 93 12 50 0 86 -5 93 -12z m280 0 c7 -7 12
-42 12 -88 0 -46 -5 -81 -12 -88 -7 -7 -43 -12 -93 -12 -50 0 -86 5 -93 12
-16 16 -16 160 0 176 7 7 43 12 93 12 50 0 86 -5 93 -12z m290 0 c7 -7 12 -42
12 -88 0 -46 -5 -81 -12 -88 -7 -7 -43 -12 -93 -12 -50 0 -86 5 -93 12 -16 16
-16 160 0 176 7 7 43 12 93 12 50 0 86 -5 93 -12z m-570 -280 c18 -18 16 -152
-2 -167 -9 -8 -46 -11 -103 -9 l-88 3 -3 79 c-2 44 -1 85 2 93 7 17 176 19
194 1z m287 -83 l0 -90 -88 -3 c-57 -2 -94 1 -103 9 -18 15 -19 150 -2 167 9
9 41 12 103 10 l90 -3 0 -90z m283 83 c18 -18 16 -152 -2 -167 -9 -8 -46 -11
-103 -9 l-88 3 -3 79 c-2 44 -1 85 2 93 7 17 176 19 194 1z"/>
<path d="M570 1535 l0 -75 340 0 341 0 -3 73 -3 72 -337 3 -338 2 0 -75z"/>
<path d="M564 1286 c-3 -8 -4 -31 -2 -52 l3 -39 58 -3 57 -3 0 56 0 55 -55 0
c-38 0 -57 -4 -61 -14z"/>
<path d="M850 1245 l0 -56 58 3 57 3 0 50 0 50 -57 3 -58 3 0 -56z"/>
<path d="M1134 1286 c-3 -8 -4 -31 -2 -52 l3 -39 58 -3 57 -3 0 56 0 55 -55 0
c-38 0 -57 -4 -61 -14z"/>
<path d="M560 970 l0 -50 60 0 60 0 0 50 0 50 -60 0 -60 0 0 -50z"/>
<path d="M850 970 l0 -50 60 0 60 0 0 50 0 50 -60 0 -60 0 0 -50z"/>
<path d="M1130 970 l0 -50 60 0 60 0 0 50 0 50 -60 0 -60 0 0 -50z"/>
<path d="M564 736 c-3 -8 -4 -31 -2 -52 l3 -39 58 -3 57 -3 0 56 0 55 -55 0
c-38 0 -57 -4 -61 -14z"/>
<path d="M850 695 l0 -56 58 3 57 3 0 50 0 50 -57 3 -58 3 0 -56z"/>
<path d="M1134 736 c-3 -8 -4 -31 -2 -52 l3 -39 58 -3 57 -3 0 56 0 55 -55 0
c-38 0 -57 -4 -61 -14z"/>
<path d="M170 1450 l0 -120 60 0 60 0 0 120 0 120 -60 0 -60 0 0 -120z"/>
<path d="M1892 1328 c-62 -14 -107 -63 -122 -132 -25 -120 29 -222 130 -245
25 -6 125 -11 223 -11 l177 0 0 200 0 200 -182 -1 c-101 -1 -202 -5 -226 -11z"/>
<path d="M170 830 l0 -120 60 0 60 0 0 120 0 120 -60 0 -60 0 0 -120z"/>
<path d="M244 246 c-3 -8 -4 -27 -2 -43 l3 -28 995 0 995 0 0 40 0 40 -993 3
c-850 2 -993 0 -998 -12z"/>
<path d="M290 85 l0 -45 156 0 155 0 -3 43 -3 42 -152 3 -153 3 0 -46z"/>
<path d="M1897 123 c-4 -3 -7 -24 -7 -45 l0 -38 155 0 155 0 0 45 0 45 -148 0
c-82 0 -152 -3 -155 -7z"/>
</g>
</svg>
