<?xml version="1.0" standalone="no"?>
<!DOCTYPE svg PUBLIC "-//W3C//DTD SVG 20010904//EN"
 "http://www.w3.org/TR/2001/REC-SVG-20010904/DTD/svg10.dtd">
<svg version="1.0" xmlns="http://www.w3.org/2000/svg"
 width="250.000000pt" height="262.000000pt" viewBox="0 0 250.000000 262.000000"
 preserveAspectRatio="xMidYMid meet">
<metadata>
Created by potrace 1.10, written by Peter Selinger 2001-2011
</metadata>
<g transform="translate(0.000000,262.000000) scale(0.100000,-0.100000)"
fill="#000000" stroke="none">
<path d="M160 2564 c-46 -20 -77 -50 -103 -99 l-22 -40 -3 -1030 c-2 -703 1
-1046 8 -1081 14 -69 65 -128 130 -151 46 -16 48 -19 53 -62 8 -73 26 -81 174
-81 68 0 133 4 143 10 20 10 40 59 40 96 l0 24 659 0 658 0 6 -47 c8 -75 24
-83 178 -83 151 0 169 9 169 80 0 24 5 42 13 44 6 2 32 9 57 16 66 18 125 82
139 152 8 38 11 358 9 1083 l-3 1030 -22 40 c-27 50 -58 80 -105 100 -33 13
-162 15 -1090 15 -918 -1 -1057 -3 -1088 -16z m1977 -199 c48 -20 71 -41 94
-87 18 -36 19 -73 19 -904 0 -852 0 -868 -20 -910 -12 -24 -39 -54 -62 -70
l-41 -29 -887 0 -886 0 -42 28 c-23 15 -52 46 -64 70 l-23 42 -3 835 c-2 578
1 850 8 887 13 61 46 105 99 133 35 18 68 19 904 20 759 0 872 -2 904 -15z"/>
<path d="M386 2224 c-14 -14 -16 -105 -16 -853 0 -638 3 -840 12 -849 17 -17
1699 -17 1716 0 9 9 12 211 12 848 0 798 -1 838 -18 853 -17 16 -91 17 -855
17 -746 0 -837 -2 -851 -16z m579 -577 c230 -118 232 -442 4 -556 -53 -27 -73
-31 -139 -31 -66 0 -86 4 -138 30 -111 56 -172 154 -171 275 0 39 6 87 13 108
32 88 110 164 200 193 63 21 171 12 231 -19z m494 -3 c27 -35 26 -59 -4 -89
-18 -19 -35 -25 -66 -25 -74 0 -113 62 -73 118 12 18 25 22 69 22 46 0 56 -4
74 -26z m246 6 c25 -27 22 -80 -6 -102 -30 -25 -103 -24 -129 2 -24 24 -26 77
-3 102 24 26 113 25 138 -2z m249 -2 c22 -31 20 -74 -4 -98 -30 -30 -103 -28
-135 5 -30 30 -31 54 -4 89 18 22 28 26 74 26 44 0 57 -4 69 -22z m-498 -230
c7 -7 16 -28 20 -45 14 -69 -87 -111 -150 -62 -37 29 -36 80 2 109 21 17 36
21 71 17 23 -3 49 -11 57 -19z m232 6 c87 -61 -6 -172 -101 -123 -30 16 -37
28 -37 66 0 60 84 95 138 57z m256 -5 c57 -45 18 -129 -61 -129 -45 0 -72 15
-84 47 -29 76 76 136 145 82z m-489 -244 c28 -27 30 -42 14 -79 -22 -48 -107
-59 -151 -19 -10 9 -18 30 -18 49 0 68 103 101 155 49z m235 15 c27 -14 41
-62 26 -91 -24 -49 -104 -62 -147 -23 -25 23 -25 78 1 104 22 22 87 27 120 10z
m254 -11 c32 -25 36 -77 8 -102 -45 -41 -131 -28 -152 22 -13 32 -1 74 27 90
30 18 88 13 117 -10z"/>
<path d="M793 1529 c-44 -9 -80 -34 -103 -72 -46 -74 -35 -152 29 -210 64 -57
142 -61 208 -11 44 33 65 77 65 135 0 105 -95 180 -199 158z"/>
</g>
</svg>
