<?xml version="1.0" standalone="no"?>
<!DOCTYPE svg PUBLIC "-//W3C//DTD SVG 20010904//EN"
 "http://www.w3.org/TR/2001/REC-SVG-20010904/DTD/svg10.dtd">
<svg version="1.0" xmlns="http://www.w3.org/2000/svg"
 width="52.000000pt" height="76.000000pt" viewBox="0 0 52.000000 76.000000"
 preserveAspectRatio="xMidYMid meet">
<metadata>
Created by potrace 1.10, written by Peter Selinger 2001-2011
</metadata>
<g transform="translate(0.000000,76.000000) scale(0.100000,-0.100000)"
 stroke="none">
<path d="M217 722 c-14 -15 -17 -40 -17 -130 0 -104 1 -112 19 -112 55 0 69
-84 18 -108 l-28 -13 32 -22 c39 -27 69 -81 68 -122 -1 -30 -1 -30 -8 5 -4 19
-13 45 -19 56 -20 37 -72 74 -105 75 -31 1 -30 1 12 15 55 17 71 31 71 59 0
43 -24 51 -99 32 -99 -26 -100 -29 -73 -140 13 -50 26 -100 28 -109 3 -9 14
-20 25 -23 16 -5 19 -16 19 -71 l0 -64 125 0 125 0 0 65 c0 37 4 65 10 65 27
0 50 41 50 89 0 45 -2 49 -22 43 l-21 -5 21 21 c18 18 22 34 22 85 0 73 -15
101 -51 95 -23 -3 -24 -6 -27 -88 -2 -71 0 -87 14 -97 15 -11 16 -13 2 -13 -9
0 -19 8 -22 17 -5 12 -9 14 -18 5 -18 -18 -53 -14 -71 6 -15 16 -17 45 -17
198 0 179 -4 204 -35 204 -7 0 -19 -8 -28 -18z"/>
<path d="M60 695 c-11 -13 -9 -33 16 -123 l29 -107 33 2 c19 0 36 4 39 7 4 3
-7 56 -23 118 -27 105 -32 113 -55 116 -15 2 -32 -4 -39 -13z"/>
<path d="M312 514 c-19 -13 -22 -25 -22 -83 0 -77 14 -105 51 -99 23 3 24 6
27 90 2 77 1 88 -16 97 -14 7 -25 6 -40 -5z"/>
</g>
</svg>
