<?xml version="1.0" standalone="no"?>
<!DOCTYPE svg PUBLIC "-//W3C//DTD SVG 20010904//EN"
 "http://www.w3.org/TR/2001/REC-SVG-20010904/DTD/svg10.dtd">
<svg version="1.0" xmlns="http://www.w3.org/2000/svg"
 width="300.000000pt" height="300.000000pt" viewBox="0 0 300.000000 300.000000"
 preserveAspectRatio="xMidYMid meet">
<metadata>
Created by potrace 1.10, written by Peter Selinger 2001-2011
</metadata>
<g transform="translate(0.000000,300.000000) scale(0.100000,-0.100000)"
 stroke="none">
<path d="M1410 2948 c-197 -135 -457 -203 -678 -178 -98 11 -226 42 -291 71
-57 25 -86 24 -105 -3 -14 -20 -16 -112 -16 -798 0 -491 4 -791 11 -819 23
-102 158 -322 299 -491 140 -167 360 -377 541 -517 96 -74 290 -203 316 -209
15 -4 43 6 85 32 346 210 737 579 953 899 67 100 130 225 144 285 7 29 11 322
11 820 0 700 -2 778 -16 799 -20 27 -43 25 -151 -13 -115 -42 -209 -58 -333
-58 -217 -1 -403 56 -590 181 -41 28 -82 51 -90 51 -8 0 -49 -23 -90 -52z
m162 -361 c195 -139 469 -173 689 -87 65 26 94 25 113 -2 14 -20 16 -94 16
-608 l0 -585 -25 -59 c-58 -141 -173 -297 -358 -484 -174 -177 -447 -382 -508
-382 -16 0 -66 26 -125 66 -324 216 -640 558 -739 800 l-25 59 0 591 c0 634
-1 627 51 626 13 0 59 -12 103 -27 43 -14 118 -31 166 -37 156 -19 351 30 488
123 32 21 68 39 82 39 14 0 46 -15 72 -33z"/>
<path d="M1415 2449 c-203 -113 -401 -135 -667 -73 l-28 6 0 -528 0 -529 30
-63 c102 -216 396 -526 672 -711 l78 -52 73 50 c284 191 582 507 683 724 l24
52 0 529 0 528 -27 -6 c-267 -61 -448 -42 -662 70 -46 24 -88 44 -95 43 -6 0
-42 -18 -81 -40z"/>
</g>
</svg>
