<?xml version="1.0" standalone="no"?>
<!DOCTYPE svg PUBLIC "-//W3C//DTD SVG 20010904//EN"
 "http://www.w3.org/TR/2001/REC-SVG-20010904/DTD/svg10.dtd">
<svg version="1.0" xmlns="http://www.w3.org/2000/svg"
 width="300.000000pt" height="300.000000pt" viewBox="0 0 300.000000 300.000000"
 preserveAspectRatio="xMidYMid meet">
<metadata>
Created by potrace 1.10, written by Peter Selinger 2001-2011
</metadata>
<g transform="translate(0.000000,300.000000) scale(0.100000,-0.100000)"
fill="white" stroke="none">
<path d="M1440 2991 c-14 -4 -76 -42 -137 -84 -140 -94 -282 -164 -439 -216
-117 -40 -318 -81 -392 -81 -99 0 -189 -64 -212 -150 -15 -55 -8 -632 10 -755
59 -424 239 -833 508 -1155 109 -130 231 -244 408 -380 203 -156 221 -165 314
-165 59 0 84 5 119 24 64 34 341 252 440 346 310 296 542 711 635 1135 41 187
47 259 53 590 6 347 2 377 -49 436 -45 51 -78 64 -185 75 -300 31 -564 127
-822 300 -105 71 -126 81 -173 84 -29 3 -64 1 -78 -4z m216 -161 c263 -173
521 -268 810 -300 119 -14 158 -29 180 -71 14 -29 16 -68 11 -368 -6 -359 -15
-443 -72 -658 -104 -394 -337 -773 -641 -1044 -95 -85 -318 -257 -364 -281
-38 -20 -104 -23 -145 -8 -34 13 -279 199 -377 287 -306 273 -538 651 -643
1046 -57 215 -66 299 -72 658 -5 297 -3 339 11 367 22 42 56 58 141 66 301 29
589 133 855 309 87 58 123 77 149 77 26 0 64 -19 157 -80z"/>
<path d="M1450 2662 c-19 -10 -76 -42 -125 -70 -190 -108 -441 -199 -607 -222
-45 -6 -97 -14 -115 -16 -19 -3 -42 -17 -57 -35 -25 -29 -26 -35 -26 -163 0
-139 5 -156 45 -156 39 0 45 18 45 145 l0 121 96 13 c187 25 377 90 612 211
l132 68 0 -1065 c0 -849 -3 -1063 -12 -1057 -7 4 -51 37 -98 73 -225 174 -434
435 -551 688 -78 168 -148 410 -165 573 -8 80 -18 100 -48 100 -39 0 -49 -23
-42 -93 24 -208 91 -438 186 -635 141 -292 338 -529 616 -742 119 -91 148
-106 185 -97 30 8 198 135 302 228 77 71 92 100 65 127 -21 21 -40 13 -112
-51 -39 -35 -107 -92 -151 -125 l-80 -62 -3 1067 c-1 586 -1 1068 1 1070 2 2
64 -28 138 -66 234 -121 464 -200 637 -216 l72 -8 0 -184 c0 -214 -11 -334
-46 -492 -59 -265 -162 -492 -326 -716 -59 -81 -67 -102 -46 -123 28 -28 55
-13 106 55 224 305 353 637 391 1012 6 57 11 186 11 287 l0 184 -28 31 c-25
28 -36 32 -112 40 -213 23 -507 131 -732 268 -84 52 -113 58 -158 33z"/>
</g>
</svg>
