<?xml version="1.0" standalone="no"?>
<!DOCTYPE svg PUBLIC "-//W3C//DTD SVG 20010904//EN"
 "http://www.w3.org/TR/2001/REC-SVG-20010904/DTD/svg10.dtd">
<svg version="1.0" xmlns="http://www.w3.org/2000/svg"
 width="218.000000pt" height="183.000000pt" viewBox="0 0 218.000000 183.000000"
 preserveAspectRatio="xMidYMid meet">
<metadata>
Created by potrace 1.10, written by Peter Selinger 2001-2011
</metadata>
<g transform="translate(0.000000,183.000000) scale(0.100000,-0.100000)"
fill="#000000" stroke="none">
<path d="M738 1753 l-3 -38 -75 -5 -75 -5 -5 -35 -5 -35 -75 -5 -75 -5 -5 -35
c-4 -31 -9 -35 -37 -38 -37 -4 -41 -13 -45 -102 l-3 -55 -37 -3 -38 -3 -2
-232 -3 -231 -35 0 -35 -1 -3 -117 c-2 -111 -4 -118 -23 -118 -37 0 -59 -19
-59 -50 0 -24 -4 -30 -21 -30 -34 0 -59 -19 -59 -46 0 -31 31 -44 106 -44 l54
0 0 -75 c0 -72 -1 -75 -23 -75 -37 0 -59 -22 -55 -55 l3 -30 158 0 157 0 0
-118 c0 -127 4 -136 54 -123 19 5 25 14 28 39 l3 32 78 3 77 3 0 -61 0 -60
160 0 c153 0 160 1 160 20 0 13 -9 22 -27 26 -50 10 -53 13 -53 44 l0 30 195
0 195 0 0 -30 c0 -31 -3 -34 -52 -44 -19 -4 -28 -13 -28 -26 0 -19 7 -20 160
-20 l160 0 0 60 0 61 78 -3 77 -3 3 -32 c3 -25 9 -34 28 -39 50 -13 54 -4 54
120 l0 115 158 3 157 3 3 30 c4 33 -18 55 -55 55 -22 0 -23 3 -23 75 l0 75 33
1 c17 1 41 1 53 0 11 -1 32 3 47 8 52 20 27 81 -32 81 -17 0 -21 6 -21 30 0
31 -22 50 -59 50 -19 0 -21 7 -23 118 -3 117 -3 117 -28 119 -14 0 -31 1 -37
2 -10 1 -13 54 -13 230 l0 230 -37 3 -38 3 -3 55 c-4 90 -8 100 -43 100 -30 0
-33 3 -43 53 -6 26 -8 27 -77 27 -47 0 -71 4 -73 13 -3 6 -7 24 -10 39 -6 26
-9 27 -79 30 l-72 3 -3 38 -3 37 -354 0 -354 0 -3 -37z m-83 -403 c0 -33 -2
-35 -35 -35 -29 0 -36 4 -38 23 -6 40 5 54 40 50 30 -3 33 -6 33 -38z m160 0
c0 -33 -2 -35 -35 -35 -29 0 -36 4 -38 23 -6 40 5 54 40 50 30 -3 33 -6 33
-38z m160 0 c0 -33 -2 -35 -35 -35 -29 0 -36 4 -38 23 -6 40 5 54 40 50 30 -3
33 -6 33 -38z m235 0 c4 -31 9 -36 40 -40 31 -4 35 -9 38 -38 3 -29 7 -33 30
-32 15 1 87 2 160 1 l132 -1 0 -75 0 -75 -97 -1 c-54 -1 -108 0 -120 1 -21 1
-23 -3 -23 -44 l0 -46 120 0 120 0 0 -35 c0 -30 4 -35 28 -41 50 -11 53 -13
50 -41 -3 -24 -8 -28 -40 -31 l-38 -3 0 -125 0 -124 34 0 c39 0 46 -12 46 -75
0 -56 -8 -75 -30 -75 -36 0 -50 -12 -50 -41 0 -34 -10 -39 -82 -43 -29 -2 -59
-4 -65 -5 -7 0 -13 -14 -13 -30 0 -37 -9 -42 -63 -42 -82 0 -97 -7 -97 -45 l0
-34 -195 0 -195 0 0 35 c0 38 -10 42 -110 47 -43 3 -45 5 -48 35 -3 35 -15 40
-112 45 -43 3 -45 5 -48 35 -3 26 -9 34 -30 39 -54 12 -53 10 -50 81 l3 68 38
3 37 3 0 124 0 124 -37 3 c-33 3 -38 7 -41 31 -3 28 0 30 51 41 23 6 27 11 27
41 l0 35 120 0 120 0 0 46 0 45 -97 -1 c-54 -1 -108 -1 -120 -1 -22 1 -23 5
-23 76 l0 75 275 0 275 0 0 -74 c0 -71 1 -74 26 -80 33 -9 54 9 54 45 0 25 4
29 28 29 33 0 52 16 52 45 0 29 -19 45 -51 45 -23 0 -28 5 -31 28 -3 26 -5 27
-78 32 -69 5 -75 7 -78 28 -7 47 2 53 80 50 l73 -3 5 -35z m235 0 c0 -33 -2
-35 -35 -35 -29 0 -36 4 -38 23 -6 40 5 54 40 50 30 -3 33 -6 33 -38z m160 20
c3 -11 3 -29 0 -41 -10 -30 -69 -23 -73 9 -6 37 5 52 37 52 21 0 32 -6 36 -20z
m-1185 -640 l0 -120 -40 0 -40 0 0 114 0 115 38 4 c20 2 38 4 40 5 1 1 2 -52
2 -118z m1430 -5 l0 -115 -40 0 -40 0 0 115 0 115 40 0 40 0 0 -115z"/>
<path d="M827 993 c-4 -3 -7 -19 -7 -34 l0 -28 -117 -3 -118 -3 0 -40 c0 -46
-11 -42 143 -44 l92 -1 0 -35 c0 -29 -4 -35 -21 -35 -48 0 -59 -16 -59 -90 l0
-70 -52 -1 c-87 -2 -103 -9 -103 -49 l0 -35 195 0 195 0 3 122 3 122 -38 3
c-33 3 -38 7 -41 31 -3 28 4 34 48 40 20 3 26 10 28 39 3 32 1 35 -35 44 -33
8 -38 13 -41 42 -3 29 -6 32 -36 32 -18 0 -36 -3 -39 -7z m73 -109 c0 -35 -1
-35 -37 -32 -27 2 -39 8 -41 21 -7 33 6 47 43 47 33 0 35 -2 35 -36z"/>
<path d="M1288 968 c-3 -28 -8 -33 -40 -41 -35 -8 -38 -12 -38 -43 0 -29 4
-35 28 -40 50 -11 53 -13 50 -41 -3 -24 -8 -28 -40 -31 l-38 -3 0 -125 0 -124
198 2 197 3 3 33 c2 20 -2 34 -10 37 -22 8 -61 13 -105 14 l-43 1 0 64 c0 71
-14 96 -56 96 -21 0 -24 4 -24 38 l0 37 117 0 118 0 0 40 0 40 -95 2 c-52 1
-105 2 -117 2 -17 1 -22 8 -25 34 -3 29 -6 32 -40 35 -35 3 -37 2 -40 -30z
m77 -83 c0 -27 -3 -30 -37 -33 -38 -3 -38 -3 -38 33 0 36 0 36 38 33 34 -3 37
-6 37 -33z"/>
<path d="M980 400 l0 -40 115 0 115 0 0 40 0 40 -115 0 -115 0 0 -40z"/>
</g>
</svg>
