<?xml version="1.0" standalone="no"?>
<!DOCTYPE svg PUBLIC "-//W3C//DTD SVG 20010904//EN"
 "http://www.w3.org/TR/2001/REC-SVG-20010904/DTD/svg10.dtd">
<svg version="1.0" xmlns="http://www.w3.org/2000/svg"
 width="169.000000pt" height="283.000000pt" viewBox="0 0 169.000000 283.000000"
 preserveAspectRatio="xMidYMid meet">
<metadata>
Created by potrace 1.10, written by Peter Selinger 2001-2011
</metadata>
<g transform="translate(0.000000,283.000000) scale(0.100000,-0.100000)"
fill="#000000" stroke="none">
<path d="M580 2560 c0 -30 0 -30 -60 -30 -60 0 -60 0 -60 -30 0 -30 0 -30 -60
-30 -60 0 -60 0 -60 -30 0 -27 -3 -30 -30 -30 -30 0 -30 0 -30 -60 0 -60 0
-60 -30 -60 l-30 0 0 -175 0 -175 -30 0 -30 0 0 -90 0 -90 -30 0 c-27 0 -30
-3 -30 -30 0 -27 -3 -30 -30 -30 -27 0 -30 -3 -30 -30 0 -30 0 -30 60 -30 l60
0 0 -60 c0 -60 0 -60 -30 -60 -27 0 -30 -3 -30 -30 l0 -30 120 0 120 0 0 -90
0 -90 30 0 c27 0 30 3 30 30 0 30 0 30 60 30 l60 0 0 -90 0 -90 -30 0 c-30 0
-30 0 -30 -60 0 -60 0 -60 -30 -60 l-30 0 0 -90 0 -90 -30 0 -30 0 0 -85 0
-85 30 0 c27 0 30 -3 30 -30 0 -27 3 -30 30 -30 27 0 30 -3 30 -30 0 -30 0
-30 60 -30 l60 0 0 -90 0 -90 -30 0 c-27 0 -30 -3 -30 -30 0 -27 -3 -30 -30
-30 l-30 0 0 -90 0 -90 175 0 175 0 0 210 0 210 30 0 30 0 0 -210 0 -210 180
0 180 0 0 90 0 90 -30 0 c-27 0 -30 3 -30 30 0 27 -3 30 -30 30 l-30 0 0 90 0
90 60 0 c60 0 60 0 60 30 0 27 3 30 30 30 27 0 30 3 30 30 0 27 3 30 30 30
l30 0 0 85 0 85 -30 0 -30 0 0 90 0 90 -30 0 c-30 0 -30 0 -30 60 0 60 0 60
-30 60 l-30 0 0 90 0 90 60 0 c60 0 60 0 60 -30 0 -27 3 -30 30 -30 l30 0 0
90 0 90 120 0 120 0 0 30 c0 27 -3 30 -30 30 -30 0 -30 0 -30 60 l0 60 60 0
c60 0 60 0 60 30 0 27 -3 30 -30 30 -27 0 -30 3 -30 30 0 27 -3 30 -30 30
l-30 0 0 90 0 90 -30 0 -30 0 0 175 0 175 -30 0 c-30 0 -30 0 -30 60 0 60 0
60 -30 60 -27 0 -30 3 -30 30 0 30 0 30 -60 30 -60 0 -60 0 -60 30 0 30 0 30
-60 30 -60 0 -60 0 -60 30 l0 30 -265 0 -265 0 0 -30z m-60 -300 c0 -27 -3
-30 -30 -30 -27 0 -30 3 -30 30 0 27 3 30 30 30 27 0 30 -3 30 -30z m120 0 c0
-27 -3 -30 -30 -30 -27 0 -30 3 -30 30 0 27 3 30 30 30 27 0 30 -3 30 -30z
m120 0 c0 -27 -3 -30 -30 -30 -27 0 -30 3 -30 30 0 27 3 30 30 30 27 0 30 -3
30 -30z m170 -1 c0 -26 4 -29 30 -29 25 0 30 -4 30 -25 l0 -25 120 0 120 0 0
-60 0 -60 -90 0 -90 0 0 -30 0 -30 90 0 90 0 0 -30 c0 -27 3 -30 30 -30 27 0
30 -3 30 -30 0 -27 -3 -30 -30 -30 l-30 0 0 -90 0 -90 30 0 c30 0 30 0 30 -60
0 -60 0 -60 -30 -60 -27 0 -30 -3 -30 -30 0 -30 0 -30 -60 -30 -60 0 -60 0
-60 -30 0 -30 0 -30 -60 -30 -60 0 -60 0 -60 -30 l0 -30 -145 0 -145 0 0 30
c0 30 0 30 -60 30 -60 0 -60 0 -60 30 0 30 0 30 -60 30 -60 0 -60 0 -60 30 0
27 -3 30 -30 30 -30 0 -30 0 -30 60 0 60 0 60 30 60 l30 0 0 90 0 90 -30 0
c-27 0 -30 3 -30 30 0 27 3 30 30 30 27 0 30 3 30 30 l0 30 90 0 90 0 0 30 0
30 -90 0 -90 0 0 60 0 60 205 0 205 0 0 -60 c0 -60 0 -60 30 -60 27 0 30 3 30
30 0 27 3 30 30 30 27 0 30 3 30 30 0 27 -3 30 -30 30 -25 0 -30 4 -30 25 0
24 -3 25 -60 25 -60 0 -60 0 -60 29 0 30 0 30 60 30 60 -1 60 -1 60 -30z m180
1 c0 -27 -3 -30 -30 -30 -27 0 -30 3 -30 30 0 27 3 30 30 30 27 0 30 -3 30
-30z m120 0 c0 -27 -3 -30 -30 -30 -27 0 -30 3 -30 30 0 27 3 30 30 30 27 0
30 -3 30 -30z m-890 -470 l0 -90 -30 0 -30 0 0 90 0 90 30 0 30 0 0 -90z
m1070 0 l0 -90 -30 0 -30 0 0 90 0 90 30 0 30 0 0 -90z m-420 -480 c0 -27 -3
-30 -30 -30 -27 0 -30 -3 -30 -30 l0 -30 -85 0 -85 0 0 30 c0 27 -3 30 -30 30
-27 0 -30 3 -30 30 l0 30 145 0 145 0 0 -30z m-530 -540 c0 -27 3 -30 30 -30
30 0 30 -1 30 -55 0 -54 0 -55 -30 -55 -27 0 -30 3 -30 30 0 27 -3 30 -30 30
-30 0 -30 1 -30 55 0 54 0 55 30 55 27 0 30 -3 30 -30z m830 -25 c0 -54 0 -55
-30 -55 -27 0 -30 -3 -30 -30 0 -27 -3 -30 -30 -30 -30 0 -30 1 -30 55 0 54 0
55 30 55 27 0 30 3 30 30 0 27 3 30 30 30 30 0 30 -1 30 -55z m-530 -415 l0
-120 -120 0 -120 0 0 60 c0 60 0 60 30 60 27 0 30 3 30 30 0 27 3 30 30 30 27
0 30 3 30 30 0 30 0 30 60 30 l60 0 0 -120z m290 90 c0 -27 3 -30 30 -30 27 0
30 -3 30 -30 0 -27 3 -30 30 -30 30 0 30 0 30 -60 l0 -60 -120 0 -120 0 0 120
0 120 60 0 c60 0 60 0 60 -30z"/>
<path d="M640 1970 l0 -30 -90 0 -90 0 0 -30 0 -30 90 0 90 0 0 -30 c0 -27 -3
-30 -30 -30 -30 0 -30 0 -30 -60 l0 -60 -60 0 c-60 0 -60 0 -60 -30 l0 -30
150 0 150 0 0 90 0 90 -30 0 c-27 0 -30 3 -30 30 0 27 3 30 30 30 27 0 30 3
30 30 0 27 -3 30 -30 30 -27 0 -30 3 -30 30 0 27 -3 30 -30 30 -27 0 -30 -3
-30 -30z m60 -60 c0 -27 -3 -30 -30 -30 -27 0 -30 3 -30 30 0 27 3 30 30 30
27 0 30 -3 30 -30z"/>
<path d="M990 1970 c0 -27 -3 -30 -30 -30 -27 0 -30 -3 -30 -30 0 -27 3 -30
30 -30 27 0 30 -3 30 -30 0 -27 -3 -30 -30 -30 l-30 0 0 -90 0 -90 150 0 150
0 0 30 c0 30 0 30 -60 30 l-60 0 0 60 c0 60 0 60 -30 60 -27 0 -30 3 -30 30
l0 30 90 0 90 0 0 30 0 30 -90 0 -90 0 0 30 c0 27 -3 30 -30 30 -27 0 -30 -3
-30 -30z m60 -60 c0 -27 -3 -30 -30 -30 -27 0 -30 3 -30 30 0 27 3 30 30 30
27 0 30 -3 30 -30z"/>
<path d="M760 1550 l0 -30 85 0 85 0 0 30 0 30 -85 0 -85 0 0 -30z"/>
</g>
</svg>
