<?xml version="1.0" standalone="no"?>
<!DOCTYPE svg PUBLIC "-//W3C//DTD SVG 20010904//EN"
 "http://www.w3.org/TR/2001/REC-SVG-20010904/DTD/svg10.dtd">
<svg version="1.0" xmlns="http://www.w3.org/2000/svg"
 width="169.000000pt" height="91.000000pt" viewBox="0 0 169.000000 91.000000"
 preserveAspectRatio="xMidYMid meet">
<metadata>
Created by potrace 1.10, written by Peter Selinger 2001-2011
</metadata>
<g transform="translate(0.000000,91.000000) scale(0.050000,-0.050000)"
fill="#000000" stroke="none">
<path d="M155 1680 c-37 -43 -48 -180 -15 -180 11 0 20 -13 20 -30 0 -16 -9
-30 -20 -30 -12 0 -20 -110 -20 -290 0 -180 8 -290 20 -290 11 0 20 -13 20
-30 0 -20 20 -30 60 -30 40 0 60 -10 60 -30 0 -19 -19 -30 -51 -30 -98 0 -109
-33 -109 -338 0 -337 12 -362 164 -362 72 0 96 8 96 30 0 17 14 30 30 30 19 0
30 19 30 50 0 28 9 50 20 50 11 0 20 -22 20 -50 0 -31 11 -50 30 -50 17 0 30
-13 30 -30 0 -26 67 -30 480 -30 307 0 480 -7 480 -20 0 -11 60 -20 140 -20
80 0 140 9 140 20 0 13 232 20 656 20 632 0 656 1 690 40 36 43 47 180 14 180
-11 0 -20 36 -20 80 0 44 9 80 20 80 12 0 20 103 20 270 0 167 -8 270 -20 270
-11 0 -20 14 -20 30 0 17 9 30 20 30 41 0 25 616 -17 662 -64 68 -271 48 -279
-27 -4 -30 -14 -55 -24 -55 -10 0 -20 25 -24 55 l-6 55 -1300 5 c-1283 5
-1301 5 -1335 -35z m2585 -50 c0 -26 -153 -30 -1260 -30 -827 0 -1260 -7
-1260 -20 0 -11 -13 -20 -30 -20 -30 0 -42 62 -17 87 32 31 2567 15 2567 -17z
m-2394 -110 c38 -45 44 -80 14 -80 -11 0 -20 -13 -20 -30 0 -20 -20 -30 -60
-30 l-60 0 0 -230 0 -230 51 0 c27 0 55 -14 62 -30 7 -20 38 -30 89 -30 56 0
78 -8 78 -30 0 -16 9 -30 20 -30 11 0 20 -13 20 -30 0 -16 -9 -30 -20 -30 -11
0 -20 -13 -20 -30 0 -22 -22 -30 -78 -30 -51 0 -82 -10 -89 -30 -7 -16 -35
-30 -62 -30 l-51 0 0 -230 0 -230 50 0 c42 0 50 9 50 60 0 40 10 60 30 60 17
0 30 18 30 41 0 22 18 60 40 84 l40 43 40 -43 c22 -24 40 -61 40 -82 0 -21 14
-44 30 -50 17 -7 30 -35 30 -62 l0 -51 512 0 c400 0 510 -5 503 -25 -14 -41
-1015 -46 -1015 -5 0 16 -13 30 -30 30 -19 0 -30 19 -30 50 0 28 -8 50 -19 50
-10 0 -21 24 -25 53 -8 72 -56 87 -56 18 0 -29 -14 -57 -30 -64 -17 -6 -30
-33 -30 -59 0 -29 -12 -48 -30 -48 -16 0 -30 -14 -30 -31 0 -24 -18 -30 -75
-25 l-75 6 -6 248 c-6 268 14 322 116 322 23 0 46 13 53 30 7 20 38 30 89 30
56 0 78 8 78 30 0 22 -22 30 -78 30 -51 0 -82 10 -89 30 -7 16 -30 30 -52 30
-100 0 -121 52 -121 294 0 188 5 226 30 226 17 0 30 14 30 30 0 20 20 30 62
30 76 0 69 47 -9 56 -65 8 -72 64 -7 64 25 0 61 -18 80 -40z m606 -270 c127
-58 223 -63 356 -18 125 43 288 30 362 -28 68 -54 271 -61 386 -13 84 35 514
22 538 -17 8 -14 -63 -16 -218 -7 -183 10 -246 7 -303 -17 -114 -47 -355 -40
-422 13 -73 57 -205 70 -323 29 -138 -47 -268 -41 -396 18 -123 56 -154 60
-188 26 -33 -33 -55 -3 -24 34 36 43 107 37 232 -20z m129 -375 c97 -49 316
-61 502 -27 82 15 101 11 169 -36 96 -65 138 -65 336 -2 194 62 226 61 302 -1
55 -44 56 -49 17 -49 -23 0 -53 14 -67 30 -33 40 -48 38 -232 -20 -202 -64
-279 -64 -376 2 -74 51 -81 52 -192 28 -161 -34 -369 -18 -480 37 -52 26 -92
36 -96 24 -4 -12 -27 -21 -52 -21 -24 0 -55 -11 -68 -24 -13 -13 -29 -17 -37
-10 -20 20 34 74 74 74 20 0 42 9 49 20 19 30 54 24 151 -25z m1389 -486 l60
-52 -60 13 c-33 7 -63 21 -67 31 -8 24 -169 25 -194 2 -75 -69 -315 -101 -372
-50 -33 30 -46 30 -166 0 -160 -41 -288 -42 -330 -4 -37 33 -199 43 -371 21
-148 -19 -130 10 26 43 135 28 320 14 368 -28 38 -33 139 -28 340 17 102 23
118 22 152 -8 53 -48 260 -18 333 49 44 40 219 18 281 -34z"/>
</g>
</svg>
