<?xml version="1.0" standalone="no"?>
<!DOCTYPE svg PUBLIC "-//W3C//DTD SVG 20010904//EN"
 "http://www.w3.org/TR/2001/REC-SVG-20010904/DTD/svg10.dtd">
<svg version="1.0" xmlns="http://www.w3.org/2000/svg"
 width="264.000000pt" height="240.000000pt" viewBox="0 0 264.000000 240.000000"
 preserveAspectRatio="xMidYMid meet">
<metadata>
Created by potrace 1.10, written by Peter Selinger 2001-2011
</metadata>
<g transform="translate(0.000000,240.000000) scale(0.100000,-0.100000)"
fill="#000000" stroke="none">
<path d="M385 2309 c-77 -18 -125 -89 -125 -186 l0 -43 1050 0 1050 0 0 43 c0
99 -47 167 -130 186 -58 13 -1788 13 -1845 0z"/>
<path d="M194 1998 c-14 -6 -44 -57 -83 -137 -33 -70 -61 -130 -61 -134 0 -4
65 -7 144 -7 l143 0 47 138 c25 75 46 140 46 145 0 11 -212 7 -236 -5z"/>
<path d="M515 2000 c-6 -10 -95 -270 -95 -277 0 -2 65 -3 144 -3 129 0 145 2
150 18 14 43 54 257 50 264 -8 12 -242 10 -249 -2z"/>
<path d="M845 1998 c-2 -7 -14 -62 -25 -123 -12 -60 -24 -120 -27 -132 l-5
-23 149 0 150 0 6 107 c4 58 7 123 7 145 l0 38 -125 0 c-92 0 -127 -3 -130
-12z"/>
<path d="M1176 1923 c-4 -49 -9 -114 -12 -145 l-6 -58 152 0 152 0 -6 58 c-3
31 -8 96 -12 145 l-6 87 -128 0 -128 0 -6 -87z"/>
<path d="M1520 1972 c0 -21 3 -87 7 -145 l6 -107 149 0 c81 0 148 3 148 8 -1
4 -13 68 -28 142 l-28 135 -127 3 -127 3 0 -39z"/>
<path d="M1856 2002 c-4 -6 25 -163 49 -259 5 -23 8 -23 150 -23 80 0 145 3
145 8 -1 4 -22 68 -48 142 l-47 135 -122 3 c-67 1 -124 -1 -127 -6z"/>
<path d="M2190 2003 c0 -5 21 -70 46 -145 l46 -138 144 0 c79 0 144 3 144 8
-1 4 -29 63 -63 132 -43 87 -70 129 -87 137 -27 14 -230 18 -230 6z"/>
<path d="M30 1603 c0 -77 64 -136 146 -136 76 0 134 52 149 136 l7 37 -151 0
-151 0 0 -37z"/>
<path d="M403 1598 c7 -49 32 -86 77 -112 93 -55 220 13 220 118 l0 36 -151 0
-152 0 6 -42z"/>
<path d="M780 1610 c0 -64 60 -134 126 -146 83 -15 174 57 174 138 l0 38 -150
0 -150 0 0 -30z"/>
<path d="M1160 1607 c0 -71 77 -147 150 -147 73 0 150 76 150 147 l0 33 -150
0 -150 0 0 -33z"/>
<path d="M1540 1602 c0 -81 91 -153 174 -138 66 12 126 82 126 146 l0 30 -150
0 -150 0 0 -38z"/>
<path d="M1920 1601 c0 -79 77 -146 159 -138 72 8 128 63 138 135 l6 42 -152
0 -151 0 0 -39z"/>
<path d="M2295 1603 c26 -141 174 -190 265 -87 24 28 30 44 30 79 l0 45 -151
0 -151 0 7 -37z"/>
<path d="M330 1455 c-19 -19 -42 -37 -52 -41 -17 -5 -18 -33 -18 -560 l0 -554
-38 0 c-27 0 -45 -7 -60 -23 -19 -21 -22 -34 -22 -120 l0 -97 1170 0 1170 0 0
98 c0 90 -2 100 -23 120 -15 14 -36 22 -60 22 l-37 0 0 550 0 549 -44 30 c-24
17 -46 36 -48 43 -3 9 -18 1 -43 -21 -51 -44 -93 -61 -155 -61 -62 0 -114 21
-157 62 l-33 32 -32 -32 c-87 -84 -229 -84 -315 0 l-33 32 -32 -32 c-87 -84
-229 -84 -315 0 l-33 32 -32 -32 c-44 -41 -96 -62 -158 -62 -61 0 -104 17
-153 60 l-37 32 -39 -35 c-88 -79 -230 -74 -310 12 l-28 30 -33 -34z m1710
-295 c19 -19 20 -33 20 -265 l0 -246 -25 -24 -24 -25 -266 0 -266 0 -25 25
-25 25 3 251 c3 235 4 252 22 265 16 11 73 14 293 14 260 0 274 -1 293 -20z
m-933 -24 l28 -24 0 -404 0 -403 -307 -3 -308 -2 0 401 0 401 29 29 29 29 251
0 c250 0 250 0 278 -24z"/>
</g>
</svg>
