<?xml version="1.0" standalone="no"?>
<!DOCTYPE svg PUBLIC "-//W3C//DTD SVG 20010904//EN"
 "http://www.w3.org/TR/2001/REC-SVG-20010904/DTD/svg10.dtd">
<svg version="1.0" xmlns="http://www.w3.org/2000/svg"
 width="300.000000pt" height="300.000000pt" viewBox="0 0 300.000000 300.000000"
 preserveAspectRatio="xMidYMid meet">
<metadata>
Created by potrace 1.10, written by Peter Selinger 2001-2011
</metadata>
<g transform="translate(0.000000,300.000000) scale(0.100000,-0.100000)"
fill="#000000" stroke="none">
<path d="M2066 2984 c-13 -12 -16 -40 -16 -134 0 -125 8 -150 50 -150 42 0 50
25 50 150 0 125 -8 150 -50 150 -10 0 -26 -7 -34 -16z"/>
<path d="M1766 2884 c-9 -8 -16 -22 -16 -30 0 -34 54 -227 67 -240 20 -20 47
-17 68 6 18 20 18 24 -9 136 -16 63 -35 121 -43 129 -19 19 -48 19 -67 -1z"/>
<path d="M2743 2887 c-71 -6 -113 -14 -113 -21 0 -6 11 -51 23 -100 l23 -90
90 -23 c49 -12 94 -23 100 -23 7 0 14 36 18 93 4 50 10 111 13 135 5 40 4 42
-18 40 -13 0 -75 -6 -136 -11z"/>
<path d="M2420 2722 c-58 -53 -406 -371 -773 -706 l-667 -608 0 -47 c-1 -70
-32 -127 -121 -216 l-80 -81 25 -23 25 -24 50 22 c27 11 62 21 78 21 24 0 147
119 824 796 l796 796 -21 84 c-11 46 -23 84 -26 84 -3 -1 -52 -45 -110 -98z"/>
<path d="M1491 2711 c-6 -11 -11 -24 -11 -30 0 -20 135 -221 153 -227 28 -9
56 5 63 32 5 19 -9 48 -63 132 -61 95 -72 107 -100 110 -23 2 -34 -2 -42 -17z"/>
<path d="M1856 1781 c-677 -677 -796 -800 -796 -824 0 -16 -10 -51 -21 -78
l-22 -50 24 -25 23 -25 81 80 c89 89 146 120 216 121 l47 0 703 771 c387 424
705 774 707 778 1 4 -36 16 -82 27 l-84 21 -796 -796z"/>
<path d="M1265 2530 c-28 -31 -13 -59 78 -148 86 -84 112 -96 141 -66 31 30
18 56 -72 146 -92 92 -115 103 -147 68z"/>
<path d="M1065 2300 c-32 -36 -14 -61 101 -134 93 -59 111 -67 133 -60 19 7
27 17 29 41 3 29 -2 34 -105 102 -59 39 -115 71 -124 71 -9 0 -24 -9 -34 -20z"/>
<path d="M2716 2134 c-9 -8 -16 -24 -16 -34 0 -42 25 -50 150 -50 125 0 150 8
150 50 0 42 -25 50 -150 50 -94 0 -122 -3 -134 -16z"/>
<path d="M866 2034 c-20 -19 -20 -48 -2 -67 20 -19 229 -71 255 -62 30 9 38
52 15 75 -17 17 -199 70 -238 70 -8 0 -22 -7 -30 -16z"/>
<path d="M2616 1884 c-20 -19 -20 -48 -2 -67 13 -13 206 -67 240 -67 20 0 46
28 46 50 0 32 -26 46 -134 74 -123 31 -130 31 -150 10z"/>
<path d="M716 1784 c-9 -8 -16 -24 -16 -34 0 -42 25 -50 150 -50 125 0 150 8
150 50 0 42 -25 50 -150 50 -94 0 -122 -3 -134 -16z"/>
<path d="M2466 1684 c-17 -16 -20 -42 -8 -60 9 -14 211 -144 224 -144 27 0 48
23 48 51 0 27 -10 36 -107 99 -60 39 -116 70 -125 70 -9 0 -24 -7 -32 -16z"/>
<path d="M531 1480 c-95 -34 -190 -122 -229 -213 -16 -36 -27 -137 -16 -136 5
0 23 19 39 42 40 55 67 58 112 15 53 -50 130 -163 154 -227 17 -42 22 -77 22
-142 l-1 -87 63 -62 64 -63 51 6 c113 14 255 -44 367 -147 58 -54 65 -65 60
-88 -4 -15 -25 -39 -47 -55 -22 -15 -40 -32 -40 -37 0 -14 99 3 152 26 61 26
151 121 185 195 15 33 28 82 30 113 l4 55 -23 -30 c-70 -90 -132 -156 -153
-161 -17 -4 -40 3 -77 26 -82 51 -188 133 -267 207 -82 78 -85 90 -46 178 14
32 24 59 22 62 -3 2 -34 -8 -71 -23 -52 -22 -72 -26 -93 -18 -58 20 -313 345
-313 399 0 22 52 77 138 144 l54 41 -44 0 c-23 -1 -67 -9 -97 -20z m253 -696
c9 -8 16 -23 16 -31 0 -23 -29 -53 -51 -53 -23 0 -49 26 -49 50 0 10 7 26 16
34 8 9 24 16 34 16 10 0 26 -7 34 -16z"/>
<path d="M2315 1480 c-28 -31 -13 -59 78 -148 88 -85 111 -96 142 -62 28 31
13 59 -78 148 -88 85 -111 96 -142 62z"/>
<path d="M2112 1318 c-7 -7 -12 -21 -12 -32 0 -24 124 -216 147 -229 25 -15
62 1 69 28 5 21 -8 47 -66 135 -62 94 -77 110 -99 110 -15 0 -32 -5 -39 -12z"/>
<path d="M1916 1134 c-21 -20 -21 -27 10 -150 28 -108 42 -134 74 -134 22 0
50 26 50 46 0 34 -54 227 -67 240 -19 18 -48 18 -67 -2z"/>
<path d="M1716 984 c-23 -23 -23 -245 0 -268 20 -20 48 -20 68 0 13 12 16 40
16 134 0 125 -8 150 -50 150 -10 0 -26 -7 -34 -16z"/>
<path d="M528 606 c-16 -19 -28 -39 -28 -44 0 -11 54 -62 66 -62 5 1 25 14 44
30 l34 30 -39 40 c-21 22 -42 40 -45 40 -3 0 -17 -16 -32 -34z"/>
<path d="M380 455 l-34 -35 37 -38 37 -37 37 37 37 38 -34 35 c-19 19 -37 35
-40 35 -3 0 -21 -16 -40 -35z"/>
<path d="M163 359 c-43 -12 -67 -49 -58 -89 8 -37 90 -129 138 -154 66 -36
117 6 117 96 0 94 -106 172 -197 147z"/>
</g>
</svg>
