<?xml version="1.0" standalone="no"?>
<!DOCTYPE svg PUBLIC "-//W3C//DTD SVG 20010904//EN"
 "http://www.w3.org/TR/2001/REC-SVG-20010904/DTD/svg10.dtd">
<svg version="1.0" xmlns="http://www.w3.org/2000/svg"
 width="600.000000pt" height="750.000000pt" viewBox="0 0 600.000000 750.000000"
 preserveAspectRatio="xMidYMid meet">
<g transform="translate(0.000000,750.000000) scale(0.100000,-0.100000)"
fill="#000000" stroke="none">
<path d="M3640 4945 c-15 -80 -5 -112 51 -156 51 -40 167 -93 266 -121 l80
-22 -45 -95 c-130 -278 -189 -510 -227 -886 -25 -251 -45 -377 -64 -410 -9
-16 -84 -88 -166 -159 -337 -292 -436 -432 -510 -721 l-23 -90 -109 -110
c-160 -163 -274 -336 -326 -495 -17 -51 -5 -46 -202 -84 -423 -82 -680 -206
-756 -363 -17 -34 -23 -66 -23 -113 -2 -131 82 -233 258 -319 45 -21 99 -42
121 -46 22 -4 70 -20 107 -35 103 -44 342 -93 608 -125 581 -70 1478 -14 1825
114 28 10 84 28 125 41 208 62 353 183 380 317 43 203 -135 363 -520 469 -343
95 -709 136 -1202 136 -177 0 -288 4 -288 9 0 6 7 40 15 77 12 53 65 432 65
463 0 4 44 45 98 90 183 157 241 211 305 288 136 161 227 328 284 523 17 60
38 107 58 133 97 122 197 305 249 457 81 236 114 545 87 823 -4 44 -7 81 -6
83 1 1 57 -2 124 -8 254 -21 305 6 325 173 l7 57 -30 0 c-16 0 -60 6 -98 14
-37 8 -122 22 -188 30 -66 9 -145 23 -175 31 -30 8 -69 15 -85 15 -17 0 -55 7
-85 15 -54 15 -278 65 -291 65 -4 0 -12 -29 -19 -65z m437 -652 c-8 -332 -64
-551 -203 -801 -20 -35 -38 -62 -40 -60 -8 8 48 459 71 574 37 181 141 484
167 484 7 0 9 -66 5 -197z m-466 -1327 c-84 -181 -199 -331 -358 -467 -146
-126 -136 -122 -109 -43 40 118 94 214 180 318 50 61 320 298 324 286 2 -5
-15 -48 -37 -94z m-652 -990 c-11 -82 -27 -183 -37 -225 l-17 -76 -50 -7 c-83
-11 -195 -9 -195 3 0 23 97 196 150 268 56 75 160 194 165 189 2 -2 -6 -70
-16 -152z m606 -566 c308 -15 571 -49 795 -104 52 -13 112 -27 133 -31 48 -8
208 -89 237 -120 65 -69 -64 -143 -390 -226 -325 -83 -870 -124 -1315 -100
-289 16 -272 11 -306 86 l-28 63 60 108 c34 60 80 151 103 203 49 112 46 110
216 120 174 11 265 11 495 1z m-796 -87 c-41 -97 -113 -223 -120 -210 -14 24
-40 175 -37 209 3 31 6 33 48 39 25 3 64 7 87 7 l42 2 -20 -47z m-242 -70 c7
-54 24 -136 37 -181 l25 -84 -34 -54 c-19 -30 -41 -54 -49 -54 -59 0 -468 100
-520 127 -63 33 -136 94 -136 114 0 64 345 195 575 218 44 5 82 9 85 10 3 0
11 -43 17 -96z m110 -390 c-4 -3 -7 0 -7 7 0 7 3 10 7 7 3 -4 3 -10 0 -14z"/>
</g>
</svg>
