<svg version="1.1" xmlns="http://www.w3.org/2000/svg" style="display: block;" viewBox="0 0 2048 2048" width="512" height="512" preserveAspectRatio="none">
<path transform="translate(0,0)" fill="rgb(0,0,0)" d="M 1991.07 0 L 2014.07 0 C 2034.12 11.0118 2038.17 11.4526 2048 35.0995 L 2048 55.7484 C 2040.45 70.3307 2031.25 105.393 2025.85 122.148 L 1979.45 265.215 C 1970.53 292.797 1956.01 346.181 1941.76 368.455 C 1917.84 405.844 1866.34 452.368 1834.38 484.245 L 1703.96 614.545 L 1574.85 743.685 C 1552.24 766.322 1529.78 789.143 1506.89 811.485 C 1491.48 826.528 1480 826.095 1462.8 815.043 L 1428.59 849.256 C 1422.49 855.374 1413.31 865.104 1406.97 870.131 C 1430.58 897.363 1397.97 920.873 1379.76 939.015 L 1321.04 997.503 L 1127.33 1191.15 L 1061.1 1257.35 C 1050.41 1268.04 1038.05 1280.27 1027.56 1291.02 C 1017.6 1301.22 1017.55 1326.34 1006.75 1341.15 C 986.429 1369.02 955.409 1397.69 930.627 1422.24 C 954.19 1445.15 978.795 1469.84 1001.92 1493.24 C 1025.39 1516.99 1058.69 1546.58 1074.82 1574.28 C 1088.52 1598.13 1095.91 1625.07 1096.31 1652.56 C 1097.17 1696.32 1080.4 1738.58 1049.78 1769.84 C 987.319 1833.26 877.745 1832.82 815.853 1768.81 C 768.452 1719.79 759.229 1664.42 779.156 1600.67 C 758.067 1578.42 732.131 1552.92 710.004 1531.49 L 502.8 1738.32 L 436.914 1804.17 C 426.749 1814.32 409.012 1830.97 400.481 1841.46 C 399.151 1854.26 398.836 1869.33 396.811 1881.6 C 388.525 1929.75 362.93 1973.21 324.841 2003.81 C 303.964 2020.7 278.081 2034.69 251.837 2040.88 C 246.558 2042.13 227.288 2046.17 223.749 2048 L 177.251 2048 C 168.256 2044.13 145.593 2041.16 132.004 2036.1 C 77.185 2016.27 34.4779 1973.73 12.9463 1919.79 C 7.75171 1906.77 5.07077 1882.37 0 1872.7 L 0 1823.2 C 3.34535 1817.42 6.06374 1799.48 8.11442 1792.17 C 29.3855 1716.33 96.9334 1658.63 175.342 1649.9 C 185.472 1648.77 196.113 1648.4 206.54 1647.96 L 516.59 1337.97 C 498.676 1319.25 466.426 1286.2 447.284 1269.28 C 432.828 1273.45 420.582 1277.08 405.431 1278.62 C 362.924 1282.93 322.137 1268.69 289.427 1241.53 C 256.32 1214.18 235.624 1174.66 232.009 1131.87 C 224.081 1039.52 284.15 959.978 378.236 952.185 C 420.43 948.465 462.41 961.354 495.247 988.109 C 508.259 998.731 523.1 1014.44 535.168 1026.52 L 589.957 1081.42 C 601.21 1092.69 614.722 1106.86 626.696 1117.01 C 633.533 1108.77 646.59 1096.08 654.503 1088.32 C 672.892 1070.26 689.278 1050.84 711.793 1038.02 C 726.587 1029.6 747.651 1029.93 758.301 1018.89 C 779.34 997.096 800.917 975.803 822.312 954.404 L 971.057 805.679 L 1424.29 352.499 L 1576.15 200.577 C 1602.11 174.599 1643.36 131.011 1671.69 110.697 C 1692.91 95.4845 1760.14 76.0076 1788.27 66.8533 L 1930.19 20.7165 C 1945.71 15.6767 1978.08 7.20392 1991.07 0 z"/>
<path transform="translate(0,0)" fill="rgb(250,249,249)" d="M 834.461 1027.8 C 858.985 1004.34 884.296 978.103 908.392 954.011 L 1050.59 811.836 L 1482.29 380.159 L 1625.84 236.606 C 1647.6 214.807 1682 178.113 1705.82 160.487 C 1717.71 151.693 1772.01 135.294 1788.76 129.856 L 1908.26 91.3323 C 1911.23 97.8573 1885.56 170.928 1881.32 184.009 C 1868.82 222.55 1856.52 261.907 1843.21 300.231 C 1836.6 318.997 1828.42 334.595 1814.91 349.088 C 1792.15 373.489 1768.6 396.8 1744.97 420.347 L 1643.92 521.325 L 1330.78 834.428 L 1115.09 1050.19 C 1102.14 1063.13 1030.34 1137.25 1020.89 1141 C 1018.6 1138.47 1019.04 1137.33 1018.18 1133.4 L 1016.78 1073.94 L 1177.85 912.664 L 1218.74 871.966 C 1235.37 855.5 1267.85 830.25 1243.57 805.382 C 1237.65 799.31 1229.46 795.988 1220.98 796.218 C 1204.27 796.73 1186.01 819.469 1174.36 831.132 L 1126.7 878.889 L 974.302 1031.42 C 927.958 1029.58 880.965 1029.36 834.461 1027.8 z"/>
<path transform="translate(0,0)" fill="rgb(221,219,233)" d="M 1979.84 68.4111 C 1962.65 124.683 1943.23 181.381 1925.32 237.627 C 1915.6 268.146 1902.83 311.137 1889.53 339.025 C 1883.43 351.821 1847.18 386.629 1835.66 398.137 L 1769.14 464.584 L 1523.66 710.024 C 1511.31 722.348 1498.3 734.601 1486.32 747.258 C 1466.1 768.63 1438.77 784.128 1462.8 815.043 L 1428.59 849.256 C 1422.49 855.374 1413.31 865.104 1406.97 870.131 C 1393.08 858.532 1378.06 856.934 1364.39 869.852 C 1343.26 889.831 1322.92 910.742 1302.36 931.332 L 1185.57 1048.12 L 1077.22 1156.44 C 1062.09 1171.56 1033.73 1198.31 1020.48 1213.89 C 1019.61 1188.2 1017.99 1158.82 1018.18 1133.4 C 1019.04 1137.33 1018.6 1138.47 1020.89 1141 C 1030.34 1137.25 1102.14 1063.13 1115.09 1050.19 L 1330.78 834.428 L 1643.92 521.325 L 1744.97 420.347 C 1768.6 396.8 1792.15 373.489 1814.91 349.088 C 1828.42 334.595 1836.6 318.997 1843.21 300.231 C 1856.52 261.907 1868.82 222.55 1881.32 184.009 C 1885.56 170.928 1911.23 97.8573 1908.26 91.3323 C 1931.01 83.6025 1956.82 75.1426 1979.84 68.4111 z"/>
<path transform="translate(0,0)" fill="rgb(235,170,57)" d="M 847.266 1712.52 C 828.286 1687.22 824.494 1656.6 834.527 1626.77 C 839.193 1612.9 852.054 1592.01 840.921 1578.73 C 828.319 1563.69 813.472 1549.7 799.561 1535.81 L 722.62 1458.93 L 565.764 1302.05 C 537.86 1274.13 509.958 1246.11 481.946 1218.3 C 479.085 1215.46 468.468 1205.69 465.009 1204.43 C 449.37 1198.75 430.592 1211.44 414.365 1215.64 C 402.196 1218.9 389.501 1219.7 377.018 1218.01 C 288.178 1205.59 259.578 1082.37 332.414 1030.82 C 362.13 1009.79 401.697 1005.75 434.973 1020.76 C 442.807 1024.26 450.128 1028.8 456.732 1034.28 C 475.073 1049.36 509.211 1085.52 526.964 1103.3 L 658.028 1234.41 C 678.326 1254.72 700.441 1288.25 730.13 1264.73 L 731.207 1263.86 C 732.032 1265.89 782.735 1317.07 786.164 1319.99 C 764.523 1348.95 787.829 1364.33 807.814 1384.23 L 846.293 1422.58 C 894.507 1470.78 945.648 1520.42 992.797 1569.36 C 1018.56 1594.06 1035.25 1615.09 1036.21 1652.98 C 1037.06 1680.65 1026.65 1707.47 1007.37 1727.33 C 963.69 1772.18 881.436 1765.13 847.266 1712.52 z"/>
<path transform="translate(0,0)" fill="rgb(223,135,33)" d="M 992.797 1569.36 C 1018.56 1594.06 1035.25 1615.09 1036.21 1652.98 C 1037.06 1680.65 1026.65 1707.47 1007.37 1727.33 C 963.69 1772.18 881.436 1765.13 847.266 1712.52 C 851.31 1711.41 863.567 1711.05 868.334 1710.86 C 928.672 1708.36 977.572 1662.84 988.911 1604.18 C 990.938 1593.7 989.554 1578.64 992.797 1569.36 z"/>
<path transform="translate(0,0)" fill="rgb(254,215,116)" d="M 668.202 1159.34 C 686.408 1144.17 702.519 1125.31 719.39 1108.62 C 727.573 1100.52 734.928 1093.06 746.109 1089.24 C 765.959 1082.46 860.831 1089.03 888.394 1089.17 C 911.269 1090.04 934.151 1090.68 957.038 1091.1 L 960.223 1213.81 C 960.641 1228.57 961.104 1243.59 961.437 1258.3 C 962.065 1286.04 965.253 1302.73 944.179 1323.88 C 925.701 1342.42 906.707 1361.12 888.477 1379.89 C 868.68 1359.96 843.723 1332.75 821.783 1315.44 C 818.006 1312.46 811.267 1311.43 806.422 1310.67 C 796.721 1313.15 794.224 1313.59 786.164 1319.99 C 782.735 1317.07 732.032 1265.89 731.207 1263.86 C 736.115 1257.77 739.252 1251.53 739.393 1243.49 C 739.503 1238.45 738.203 1233.49 735.641 1229.16 C 730.575 1220.56 713.825 1204.94 706.188 1197.37 C 693.439 1184.78 680.777 1172.1 668.202 1159.34 z"/>
<path transform="translate(0,0)" fill="rgb(235,170,57)" d="M 888.394 1089.17 C 911.269 1090.04 934.151 1090.68 957.038 1091.1 L 960.223 1213.81 C 960.641 1228.57 961.104 1243.59 961.437 1258.3 C 962.065 1286.04 965.253 1302.73 944.179 1323.88 C 925.701 1342.42 906.707 1361.12 888.477 1379.89 C 868.68 1359.96 843.723 1332.75 821.783 1315.44 C 818.006 1312.46 811.267 1311.43 806.422 1310.67 C 808.367 1309.87 807.865 1310.37 808.925 1309.17 C 831.212 1283.93 860.343 1262.88 880.167 1235.63 C 884.353 1229.87 889.67 1222.55 891.672 1215.71 C 897.138 1197 895.766 1111.89 892.55 1090.82 L 888.394 1089.17 z"/>
<path transform="translate(0,0)" fill="rgb(254,215,116)" d="M 114.742 1958.64 C 111.305 1956.02 107.985 1953.25 104.79 1950.34 C 78.4891 1926.43 62.7135 1893.09 60.9069 1857.59 C 58.0757 1800.36 84.2568 1751.89 135.285 1724.26 C 158.789 1711.53 178.22 1709.47 204.25 1708.32 C 219.356 1722.35 236.077 1739.93 251.045 1754.59 L 207.725 1797.65 C 200.861 1804.48 186.73 1817.86 181.769 1825.27 C 178.777 1829.66 177.029 1834.78 176.708 1840.08 C 175.262 1863.55 201.807 1880.08 221.523 1867.08 C 232.042 1860.14 242.668 1848.07 251.712 1838.98 L 293.484 1797.04 L 306.734 1810.68 L 339.777 1843.29 C 338.378 1874.78 335.424 1892.6 319.192 1920.81 C 279.452 1989.87 177.333 2010.45 114.742 1958.64 z"/>
<path transform="translate(0,0)" fill="rgb(235,170,57)" d="M 306.734 1810.68 L 339.777 1843.29 C 338.378 1874.78 335.424 1892.6 319.192 1920.81 C 279.452 1989.87 177.333 2010.45 114.742 1958.64 C 122.162 1954.3 150.859 1955.21 162.997 1953.51 C 183.946 1950.51 204.138 1943.57 222.514 1933.08 C 245.041 1919.93 266.18 1898.85 280.809 1877.31 C 294.529 1857.11 300.503 1833.9 306.734 1810.68 z"/>
<path transform="translate(0,0)" fill="rgb(56,95,124)" d="M 445.594 1493.98 C 463.318 1513.86 493.212 1542.02 512.878 1561.69 C 525.827 1574.94 540.073 1589.81 553.769 1602.21 C 548.245 1609.02 536.71 1619.89 530.2 1626.38 C 514.248 1642.17 498.38 1658.04 482.597 1673.99 L 442.413 1633.3 C 426.843 1618.68 411.825 1602.68 396.593 1587.7 C 389.487 1580.71 381.472 1571.85 373.936 1565.52 C 396.88 1543.53 423.62 1516.89 445.594 1493.98 z"/>
<path transform="translate(0,0)" fill="rgb(43,78,102)" d="M 512.878 1561.69 C 525.827 1574.94 540.073 1589.81 553.769 1602.21 C 548.245 1609.02 536.71 1619.89 530.2 1626.38 C 514.248 1642.17 498.38 1658.04 482.597 1673.99 L 442.413 1633.3 C 450.775 1620.67 483.547 1591.42 495.492 1578.95 C 499.634 1574.62 508.608 1565.03 512.878 1561.69 z"/>
<path transform="translate(0,0)" fill="rgb(56,95,124)" d="M 331.481 1607.93 C 352.888 1630.18 376.145 1652.62 398.03 1674.71 C 411.726 1688.21 426.355 1703.48 440.168 1716.6 C 416.237 1740.09 392.517 1763.8 369.011 1787.72 C 355.438 1774.31 342.004 1760.76 328.712 1747.08 C 305.971 1725.36 282.73 1701.35 260.433 1678.97 L 331.481 1607.93 z"/>
<path transform="translate(0,0)" fill="rgb(43,78,102)" d="M 398.03 1674.71 C 411.726 1688.21 426.355 1703.48 440.168 1716.6 C 416.237 1740.09 392.517 1763.8 369.011 1787.72 C 355.438 1774.31 342.004 1760.76 328.712 1747.08 C 339.498 1732.27 367.06 1708.85 380.246 1694.37 C 385.461 1688.64 394.134 1681.38 398.03 1674.71 z"/>
<path transform="translate(0,0)" fill="rgb(56,95,124)" d="M 558.967 1380.41 L 626.063 1447.37 C 639.876 1461.35 653.767 1475.25 667.737 1489.08 C 647.039 1508.83 615.637 1539.41 596.636 1560.38 C 583.18 1546.55 568.869 1532.92 555.721 1519.04 C 533.446 1497.95 510.118 1471.73 487.688 1451.77 C 511.731 1428.27 535.492 1404.48 558.967 1380.41 z"/>
<path transform="translate(0,0)" fill="rgb(43,78,102)" d="M 626.063 1447.37 C 639.876 1461.35 653.767 1475.25 667.737 1489.08 C 647.039 1508.83 615.637 1539.41 596.636 1560.38 C 583.18 1546.55 568.869 1532.92 555.721 1519.04 C 575.471 1495.61 604.742 1471.57 626.063 1447.37 z"/>
</svg>