<?xml version="1.0" standalone="no"?>
<!DOCTYPE svg PUBLIC "-//W3C//DTD SVG 20010904//EN"
 "http://www.w3.org/TR/2001/REC-SVG-20010904/DTD/svg10.dtd">
<svg version="1.0" xmlns="http://www.w3.org/2000/svg"
 width="300.000000pt" height="300.000000pt" viewBox="0 0 300.000000 300.000000"
 preserveAspectRatio="xMidYMid meet">
<metadata>
Created by potrace 1.10, written by Peter Selinger 2001-2011
</metadata>
<g transform="translate(0.000000,300.000000) scale(0.100000,-0.100000)"
fill="#000000" stroke="none">
<path d="M2441 2934 c-245 -36 -440 -69 -449 -76 -8 -7 -193 -227 -410 -488
-218 -261 -451 -542 -520 -624 l-124 -149 133 -133 134 -134 415 415 c248 248
424 415 435 416 41 3 61 -3 82 -24 21 -21 27 -41 24 -82 -1 -11 -168 -187
-416 -435 l-415 -415 134 -134 133 -133 149 124 c82 69 363 302 624 520 261
217 481 402 488 410 10 13 142 873 142 931 0 32 -54 77 -92 76 -18 -1 -228
-30 -467 -65z"/>
<path d="M613 1449 c-64 -25 -113 -77 -113 -122 0 -29 40 -71 398 -429 358
-358 400 -398 429 -398 46 0 97 48 123 116 25 69 25 119 0 186 -17 47 -54 88
-307 341 -251 250 -295 290 -341 307 -65 25 -122 25 -189 -1z"/>
<path d="M522 767 l-122 -122 123 -123 122 -122 125 125 125 125 -120 120
c-66 66 -122 120 -125 120 -3 0 -60 -55 -128 -123z"/>
<path d="M94 551 c-23 -10 -52 -34 -65 -52 -22 -32 -24 -42 -24 -169 0 -152
10 -185 75 -250 65 -65 98 -75 252 -75 l136 0 38 31 c46 37 70 102 60 160 -6
32 -32 63 -158 191 -83 83 -165 159 -183 167 -43 21 -81 20 -131 -3z"/>
</g>
</svg>
