<?xml version="1.0" standalone="no"?>
<!DOCTYPE svg PUBLIC "-//W3C//DTD SVG 20010904//EN"
 "http://www.w3.org/TR/2001/REC-SVG-20010904/DTD/svg10.dtd">
<svg version="1.0" xmlns="http://www.w3.org/2000/svg"
 width="300.000000pt" height="300.000000pt" viewBox="0 0 300.000000 300.000000"
 preserveAspectRatio="xMidYMid meet">
<metadata>
Created by potrace 1.10, written by Peter Selinger 2001-2011
</metadata>
<g transform="translate(0.000000,300.000000) scale(0.100000,-0.100000)"
fill="#000000" stroke="none">
<path d="M280 2824 c-112 -30 -209 -116 -252 -222 l-23 -57 -3 -693 c-3 -766
-3 -767 59 -864 64 -100 155 -154 288 -171 l87 -11 64 -270 c39 -162 73 -282
85 -300 24 -37 97 -76 141 -76 17 0 50 10 74 23 38 20 70 62 250 322 l206 300
719 5 c495 4 730 9 752 17 140 49 234 153 263 291 7 30 10 296 8 737 l-3 690
-24 60 c-33 82 -124 173 -206 206 l-60 24 -1185 2 c-1020 2 -1193 0 -1240 -13z
m2417 -210 c19 -9 46 -33 61 -52 l27 -35 2 -691 3 -691 -23 -39 c-13 -25 -39
-48 -66 -63 l-44 -23 -752 0 -752 0 -203 -296 c-111 -162 -206 -292 -210 -287
-5 7 -97 379 -132 541 l-10 42 -127 0 c-114 0 -132 2 -172 23 -27 15 -52 38
-66 63 l-23 39 0 678 c0 656 1 679 20 717 18 36 55 70 90 83 8 3 539 6 1178 6
1059 1 1167 0 1199 -15z"/>
</g>
</svg>
