<?xml version="1.0" standalone="no"?>
<!DOCTYPE svg PUBLIC "-//W3C//DTD SVG 20010904//EN"
 "http://www.w3.org/TR/2001/REC-SVG-20010904/DTD/svg10.dtd">
<svg version="1.0" xmlns="http://www.w3.org/2000/svg"
 width="300.000000pt" height="300.000000pt" viewBox="0 0 300.000000 300.000000"
 preserveAspectRatio="xMidYMid meet">
<metadata>
Created by potrace 1.10, written by Peter Selinger 2001-2011
</metadata>
<g transform="translate(0.000000,300.000000) scale(0.100000,-0.100000)"
fill="#000000" stroke="none">
<path d="M275 2826 c-108 -34 -195 -110 -242 -211 l-28 -60 0 -730 0 -730 33
-67 c40 -81 121 -158 202 -191 55 -22 55 -22 777 -25 l722 -3 205 -299 c114
-164 220 -308 236 -320 84 -60 211 -23 251 71 7 18 40 147 74 288 l61 256 71
7 c152 15 263 89 325 216 l33 67 0 730 0 730 -28 61 c-36 77 -113 154 -192
191 l-60 28 -1200 2 c-950 1 -1208 -1 -1240 -11z m2425 -219 c30 -16 51 -37
67 -67 l23 -43 0 -668 c0 -446 -4 -677 -11 -696 -15 -42 -68 -92 -109 -103
-19 -5 -88 -10 -152 -10 -114 0 -118 -1 -123 -22 -46 -195 -135 -562 -138
-564 -1 -2 -93 128 -204 289 l-200 292 -764 5 c-555 4 -769 8 -784 17 -31 18
-73 65 -84 96 -7 19 -11 249 -11 696 l0 668 23 43 c16 30 37 51 67 67 l43 23
1157 0 1157 0 43 -23z"/>
</g>
</svg>
