<?xml version="1.0" standalone="no"?>
<!DOCTYPE svg PUBLIC "-//W3C//DTD SVG 20010904//EN"
 "http://www.w3.org/TR/2001/REC-SVG-20010904/DTD/svg10.dtd">
<svg version="1.0" xmlns="http://www.w3.org/2000/svg"
 width="233.000000pt" height="174.000000pt" viewBox="0 0 233.000000 174.000000"
 preserveAspectRatio="xMidYMid meet">
<metadata>
Created by potrace 1.10, written by Peter Selinger 2001-2011
</metadata>
<g transform="translate(0.000000,174.000000) scale(0.100000,-0.100000)"
fill="#000000" stroke="none">
<path d="M915 1694 c-432 -67 -773 -308 -861 -609 -22 -78 -22 -202 0 -280 33
-112 83 -193 181 -290 172 -171 405 -278 697 -321 142 -21 407 -15 553 11
l100 18 126 -66 c152 -81 244 -107 375 -107 147 0 152 7 65 107 -73 85 -171
221 -171 238 0 7 18 24 39 39 56 39 152 142 195 208 55 87 88 197 89 298 1
165 -59 297 -198 435 -170 169 -404 277 -688 319 -128 20 -378 19 -502 0z
m572 -63 c384 -84 666 -288 743 -539 40 -128 21 -287 -49 -407 -37 -64 -135
-170 -199 -215 -28 -19 -53 -43 -55 -53 -8 -28 47 -125 129 -226 l76 -94 -89
5 c-105 7 -213 43 -335 114 -110 63 -120 65 -224 43 -117 -26 -367 -36 -499
-20 -357 42 -658 198 -804 417 -65 96 -91 180 -91 289 0 109 26 193 91 289
141 212 435 368 779 416 111 15 422 4 527 -19z"/>
</g>
</svg>
