<?xml version="1.0" standalone="no"?>
<!DOCTYPE svg PUBLIC "-//W3C//DTD SVG 20010904//EN"
 "http://www.w3.org/TR/2001/REC-SVG-20010904/DTD/svg10.dtd">
<svg version="1.0" xmlns="http://www.w3.org/2000/svg"
 width="152.000000pt" height="300.000000pt" viewBox="0 0 152.000000 300.000000"
 preserveAspectRatio="xMidYMid meet">
<metadata>
Created by potrace 1.10, written by Peter Selinger 2001-2011
</metadata>
<g transform="translate(0.000000,300.000000) scale(0.100000,-0.100000)"
fill="#000000" stroke="none">
<path d="M560 2945 c0 -31 3 -35 25 -35 20 0 25 -5 25 -25 0 -16 6 -25 15 -25
10 0 15 -10 15 -29 0 -36 -19 -50 -35 -28 -7 10 -22 17 -35 17 -13 0 -24 8
-27 20 -5 18 -14 20 -74 20 -62 0 -69 2 -69 20 0 16 -7 20 -31 20 -29 0 -30
-1 -27 -42 3 -39 6 -43 31 -46 19 -2 27 -9 27 -22 0 -11 8 -20 20 -22 36 -5
22 -23 -20 -26 -32 -3 -40 -7 -40 -23 0 -25 -27 -25 -35 1 -5 16 -15 20 -51
20 -37 0 -44 3 -44 20 0 16 -7 20 -31 20 -29 0 -30 -1 -27 -42 2 -36 7 -44 26
-46 16 -3 22 -10 22 -28 0 -17 5 -24 20 -24 13 0 20 -7 20 -19 0 -15 -10 -21
-40 -26 -34 -6 -40 -11 -40 -31 0 -19 -5 -24 -25 -24 -18 0 -25 -5 -25 -20 0
-16 -7 -20 -35 -20 -32 0 -35 -2 -35 -30 0 -29 2 -30 45 -30 43 0 45 -1 45
-30 0 -23 -4 -30 -20 -30 -16 0 -20 -7 -20 -30 0 -23 -5 -30 -19 -30 -10 0
-21 -9 -24 -20 -3 -12 -14 -20 -26 -20 -16 0 -21 -6 -21 -24 0 -23 5 -25 48
-28 40 -3 47 -6 50 -25 2 -16 -2 -23 -12 -23 -9 0 -16 -8 -16 -18 0 -11 -9
-29 -20 -42 -27 -31 -25 -37 12 -45 23 -6 35 -3 43 9 20 26 25 19 25 -34 0
-38 -4 -50 -15 -50 -8 0 -15 -7 -15 -16 0 -9 -9 -18 -20 -21 -18 -5 -20 -14
-20 -99 0 -87 1 -94 20 -94 13 0 20 -7 20 -19 0 -13 8 -21 23 -23 14 -2 23
-11 25 -25 3 -21 9 -23 58 -23 51 0 54 -1 54 -25 0 -16 6 -25 15 -25 9 0 15
-9 15 -25 0 -16 6 -25 16 -25 9 0 18 -9 21 -20 3 -11 11 -20 18 -20 7 0 15 -9
18 -20 3 -12 14 -20 26 -20 12 0 21 -6 21 -15 0 -9 9 -15 25 -15 18 0 25 -5
25 -20 0 -16 7 -20 35 -20 24 0 35 -5 35 -15 0 -8 7 -15 16 -15 30 0 2 -20
-37 -26 -23 -4 -39 -12 -39 -20 0 -9 -11 -14 -30 -14 -23 0 -30 -4 -30 -20 0
-13 -7 -20 -20 -20 -16 0 -20 -7 -20 -35 0 -28 -4 -35 -20 -35 -17 0 -20 -7
-20 -50 0 -38 -4 -50 -15 -50 -11 0 -15 -12 -15 -49 0 -40 -3 -50 -20 -54 -19
-5 -20 -14 -20 -146 0 -119 -2 -141 -15 -141 -11 0 -15 -12 -16 -47 0 -27 -2
-72 -4 -102 -3 -46 -1 -54 16 -58 12 -3 19 -14 19 -29 0 -17 7 -25 25 -30 14
-3 25 -12 25 -20 0 -10 15 -14 60 -14 57 0 60 1 60 25 0 16 6 25 15 25 12 0
15 -18 15 -101 0 -92 -2 -101 -20 -106 -13 -3 -20 -14 -20 -29 0 -19 -5 -24
-26 -24 -17 0 -28 -6 -31 -20 -3 -11 -14 -20 -25 -20 -17 0 -19 -7 -16 -87 l3
-88 193 -2 192 -2 1 142 c1 78 2 147 4 152 1 6 3 79 3 163 l2 153 28 -3 27 -3
3 -303 2 -302 188 2 187 3 3 88 c3 82 2 87 -18 87 -13 0 -20 7 -20 20 0 15 -7
20 -25 20 -20 0 -25 5 -25 25 0 18 -5 25 -20 25 -19 0 -20 7 -20 105 0 58 4
105 9 105 5 0 11 -10 13 -23 3 -20 9 -22 66 -25 49 -2 62 0 62 12 0 8 10 16
23 18 14 2 23 11 25 26 2 12 10 22 18 22 11 0 14 21 14 105 0 87 -3 105 -15
105 -13 0 -15 23 -15 145 0 122 -2 145 -15 145 -12 0 -15 13 -15 56 0 47 -3
57 -20 61 -16 4 -20 14 -20 48 0 34 -4 44 -20 48 -15 4 -20 14 -20 36 0 22 -5
31 -16 31 -9 0 -18 9 -21 20 -3 13 -14 20 -29 20 -13 0 -24 6 -24 13 0 7 -22
19 -51 26 -50 13 -50 13 -30 32 11 10 31 19 44 19 16 0 26 7 30 20 3 14 14 20
31 20 16 0 26 6 26 15 0 9 9 15 21 15 12 0 23 8 26 20 3 11 11 20 18 20 7 0
15 9 18 20 3 11 12 20 21 20 11 0 16 9 16 30 0 20 5 30 15 30 8 0 15 9 15 20
0 18 7 20 60 20 53 0 60 2 60 20 0 13 7 20 19 20 13 0 21 8 23 23 2 14 11 23
26 25 21 3 22 8 22 98 0 77 -3 94 -15 94 -8 0 -15 9 -15 20 0 11 -6 20 -14 20
-24 0 -30 21 -7 27 24 6 28 31 6 39 -9 4 -15 19 -15 40 0 33 1 34 40 34 36 0
40 3 40 25 0 15 -6 25 -14 25 -7 0 -16 14 -19 30 -4 18 -13 30 -22 30 -11 0
-15 10 -15 35 0 35 0 35 45 35 43 0 45 1 45 30 0 25 -4 30 -25 30 -21 0 -25 5
-25 30 0 25 -4 30 -25 30 -20 0 -25 5 -25 25 0 20 -5 25 -25 25 -20 0 -25 5
-25 25 0 20 5 25 25 25 15 0 25 6 25 14 0 7 9 16 20 19 14 3 20 14 20 31 0 24
-4 26 -40 26 -34 0 -40 3 -40 21 0 19 -4 21 -35 16 -32 -5 -35 -4 -35 19 0 23
-3 24 -65 24 -37 0 -65 4 -65 10 0 6 4 10 9 10 5 0 11 10 13 23 2 14 11 23 26
25 19 3 22 9 22 48 0 40 -2 44 -24 44 -16 0 -27 -7 -31 -20 -5 -17 -15 -20
-59 -20 -44 0 -56 -4 -68 -22 -25 -37 -48 -17 -48 41 0 40 3 50 20 54 12 3 20
14 20 26 0 18 -6 21 -45 21 -37 0 -45 -3 -45 -19 0 -12 -9 -21 -25 -25 -16 -4
-25 -13 -25 -26 0 -13 -7 -20 -19 -20 -10 0 -21 -7 -25 -15 -7 -19 -56 -20
-56 -1 0 7 -9 16 -20 19 -12 3 -20 14 -20 26 0 17 -6 21 -30 21 -23 0 -30 4
-30 20 0 17 -7 20 -45 20 -33 0 -45 4 -45 15 0 9 -9 15 -25 15 -22 0 -25 -4
-25 -35z m40 -541 c0 -38 -4 -47 -21 -51 -17 -5 -20 -11 -15 -35 5 -24 2 -31
-14 -35 -14 -4 -20 -14 -20 -34 0 -24 4 -29 25 -29 16 0 25 6 25 15 0 8 9 15
20 15 11 0 20 7 20 15 0 8 7 15 15 15 9 0 20 11 25 25 5 14 16 25 25 25 8 0
15 9 15 20 0 13 7 20 20 20 15 0 20 7 20 25 0 18 5 25 20 25 15 0 20 -7 20
-29 0 -17 -4 -33 -10 -36 -5 -3 -10 -19 -10 -35 0 -15 -7 -30 -15 -34 -9 -3
-15 -18 -15 -35 0 -16 -6 -31 -15 -35 -16 -6 -21 -41 -6 -50 5 -3 14 1 21 9 7
8 19 15 26 15 8 0 14 7 14 16 0 9 9 18 19 21 11 3 21 13 24 24 3 11 14 19 26
19 12 0 21 6 21 15 0 8 11 17 25 21 16 4 25 13 25 25 0 10 6 19 14 19 8 0 17
14 21 30 8 38 45 43 45 6 0 -15 7 -26 20 -29 17 -4 20 -14 20 -71 0 -36 2 -66
5 -66 11 0 45 41 45 55 0 8 7 15 15 15 12 0 15 13 15 60 0 33 4 60 10 60 6 0
10 -11 10 -25 0 -16 6 -25 15 -25 8 0 15 -9 15 -20 0 -11 7 -20 15 -20 12 0
15 -13 15 -55 0 -52 10 -69 26 -44 4 7 9 8 17 0 15 -15 15 -443 -1 -449 -7 -2
-12 -21 -12 -43 0 -28 -4 -39 -15 -39 -10 0 -15 -10 -15 -31 0 -22 -5 -32 -20
-36 -11 -3 -20 -14 -20 -24 0 -11 -7 -19 -16 -19 -9 0 -18 -9 -21 -20 -3 -11
-14 -20 -25 -20 -11 0 -22 -9 -25 -20 -3 -13 -14 -20 -29 -20 -13 0 -24 -4
-24 -10 0 -5 -11 -10 -24 -10 -13 0 -26 -7 -30 -15 -4 -10 -20 -15 -50 -15
-24 0 -46 -5 -48 -11 -5 -15 -181 -13 -186 2 -2 5 -24 9 -48 9 -32 0 -44 4
-44 15 0 10 -10 15 -34 15 -21 0 -36 6 -40 15 -3 8 -15 15 -26 15 -11 0 -20 7
-20 15 0 8 -9 15 -20 15 -13 0 -20 7 -20 20 0 13 -7 20 -20 20 -13 0 -20 7
-20 20 0 13 -7 20 -20 20 -16 0 -20 7 -20 30 0 17 -4 30 -10 30 -5 0 -12 23
-16 50 -4 28 -10 50 -15 50 -11 0 -12 134 -2 323 6 128 7 136 27 139 17 2 22
11 24 46 2 28 8 42 17 42 8 0 17 11 21 25 11 45 23 26 26 -42 2 -42 8 -68 16
-71 6 -2 12 4 12 12 0 9 7 19 15 22 8 4 15 17 15 30 0 15 6 24 15 24 9 0 15 9
15 25 0 16 6 25 15 25 8 0 15 7 15 15 0 9 7 18 15 21 8 4 15 12 15 20 0 8 9
14 20 14 17 0 20 -7 20 -46z m-382 -457 c3 -12 -4 -20 -17 -24 -27 -7 -27 -33
-1 -33 15 0 20 -7 20 -25 0 -14 7 -28 15 -31 9 -4 15 -19 15 -40 0 -19 5 -34
10 -34 6 0 10 -9 10 -20 0 -16 -7 -20 -31 -20 -22 0 -32 5 -36 20 -3 11 -12
20 -19 20 -8 0 -14 9 -14 20 0 13 -7 20 -20 20 -18 0 -20 7 -20 65 0 51 3 65
15 65 8 0 15 9 15 21 0 16 5 20 27 17 17 -2 29 -10 31 -21z m1162 3 c0 -11 7
-20 15 -20 12 0 15 -14 15 -65 0 -58 -2 -65 -20 -65 -13 0 -20 -7 -20 -20 0
-13 -7 -20 -20 -20 -13 0 -20 -7 -20 -20 0 -16 -7 -20 -35 -20 -28 0 -35 4
-35 19 0 10 7 21 15 25 9 3 15 19 15 41 0 24 4 35 15 35 9 0 15 9 15 25 0 18
5 25 20 25 13 0 20 7 20 20 0 13 -7 20 -20 20 -13 0 -20 7 -20 20 0 16 7 20
30 20 23 0 30 -4 30 -20z m-510 -597 c0 -13 5 -23 10 -23 6 0 10 -7 10 -15 0
-9 -9 -15 -25 -15 -15 0 -25 -6 -25 -14 0 -18 -22 -26 -68 -26 -52 0 -82 10
-82 26 0 8 -9 14 -20 14 -21 0 -28 24 -10 35 6 3 10 14 10 23 0 15 13 17 100
17 97 0 100 -1 100 -22z m-380 -119 c0 -40 -4 -54 -14 -54 -19 0 -24 -40 -31
-281 -5 -174 -4 -197 10 -203 13 -5 15 -19 13 -78 -3 -67 -5 -73 -25 -76 -21
-3 -23 1 -23 37 0 34 -3 41 -20 41 -18 0 -20 -7 -20 -55 0 -42 3 -55 15 -55 8
0 15 -7 15 -15 0 -8 -9 -15 -19 -15 -10 0 -21 7 -25 15 -3 8 -12 15 -21 15 -9
0 -15 9 -15 25 0 18 -5 25 -20 25 -18 0 -20 7 -20 70 0 56 3 70 15 70 11 0 15
13 15 53 0 123 13 237 26 237 10 0 14 14 14 49 0 40 3 50 20 54 16 4 20 14 20
51 0 34 4 46 15 46 10 0 15 11 15 35 0 28 4 35 20 35 14 0 20 7 20 21 0 11 5
17 10 14 6 -3 10 -31 10 -61z m580 46 c0 -11 7 -20 15 -20 10 0 15 -10 15 -29
0 -20 6 -30 20 -34 16 -4 20 -14 20 -50 0 -31 5 -47 15 -51 11 -4 15 -20 15
-57 0 -42 3 -52 20 -56 19 -5 20 -14 20 -143 0 -113 3 -139 15 -144 11 -4 15
-22 15 -70 0 -55 -3 -64 -20 -69 -12 -3 -20 -14 -20 -26 0 -12 -6 -21 -15 -21
-9 0 -18 -7 -21 -15 -8 -19 -44 -20 -44 -1 0 8 7 16 15 20 11 4 15 20 15 56 0
43 -3 50 -20 50 -15 0 -21 -9 -26 -40 -5 -30 -11 -40 -25 -40 -17 0 -19 8 -19
74 0 59 3 75 16 80 15 6 16 29 9 239 -6 182 -10 234 -21 240 -16 9 -20 127 -4
127 6 0 10 -9 10 -20z m-240 -100 c0 -18 -7 -20 -60 -20 -53 0 -60 2 -60 20 0
18 7 20 60 20 53 0 60 -2 60 -20z m-2 -87 c3 -22 0 -23 -57 -23 -59 0 -61 1
-61 25 0 25 2 26 58 23 50 -3 57 -6 60 -25z m2 -93 c0 -18 -7 -20 -60 -20 -53
0 -60 2 -60 20 0 18 7 20 60 20 53 0 60 -2 60 -20z m-2 -92 c-3 -21 -9 -23
-58 -23 -49 0 -55 2 -58 23 -3 21 0 22 58 22 58 0 61 -1 58 -22z m-270 -690
c3 -15 -4 -18 -32 -18 -34 0 -47 15 -29 34 13 13 58 1 61 -16z m480 0 c3 -15
-4 -18 -32 -18 -34 0 -47 15 -29 34 13 13 58 1 61 -16z m-358 -113 l0 -35
-145 0 -145 0 0 35 0 35 145 0 145 0 0 -35z m450 0 l0 -35 -140 0 -140 0 0 35
0 35 140 0 140 0 0 -35z"/>
<path d="M410 2175 c0 -9 -10 -15 -26 -15 -17 0 -28 -6 -31 -20 -3 -11 -9 -20
-14 -20 -5 0 -9 -9 -9 -20 0 -27 29 -38 45 -17 7 10 21 17 33 17 11 0 22 7 26
15 4 11 22 15 71 15 37 0 65 -4 65 -10 0 -5 16 -10 35 -10 31 0 35 3 35 25 0
16 -6 25 -15 25 -8 0 -15 7 -15 15 0 12 -18 15 -100 15 -82 0 -100 -3 -100
-15z"/>
<path d="M930 2175 c0 -8 -9 -15 -20 -15 -15 0 -20 -7 -20 -25 0 -21 5 -25 30
-25 17 0 30 5 30 10 0 6 32 10 75 10 60 0 75 -3 75 -15 0 -10 10 -15 30 -15
20 0 30 -5 30 -15 0 -8 9 -15 20 -15 22 0 26 23 10 64 -6 16 -17 26 -30 26
-11 0 -20 7 -20 15 0 12 -18 15 -105 15 -87 0 -105 -3 -105 -15z"/>
<path d="M454 2056 c-11 -6 -35 -25 -52 -43 -26 -25 -32 -40 -32 -72 0 -34 3
-41 20 -41 17 0 20 7 20 40 0 29 4 40 15 40 8 0 15 7 15 15 0 8 7 15 15 15 8
0 15 -4 15 -10 0 -5 -4 -10 -10 -10 -5 0 -10 -19 -10 -42 1 -75 62 -115 103
-68 18 22 24 90 7 90 -5 0 -10 5 -10 10 0 6 5 10 11 10 17 0 39 -27 39 -49 0
-12 6 -21 15 -21 11 0 15 11 15 43 0 43 -15 65 -53 80 -9 3 -17 11 -17 17 0
14 -80 11 -106 -4z"/>
<path d="M970 2060 c0 -5 -4 -10 -10 -10 -26 0 -50 -41 -50 -85 0 -25 5 -45
10 -45 6 0 10 9 10 20 0 28 39 65 53 51 7 -7 5 -12 -6 -17 -11 -4 -17 -18 -17
-40 0 -63 66 -97 103 -54 19 22 24 110 7 110 -5 0 -10 5 -10 10 0 6 7 10 15
10 8 0 15 -7 15 -15 0 -8 7 -15 15 -15 11 0 15 -11 15 -40 0 -33 3 -40 20 -40
17 0 20 7 20 44 0 48 -32 96 -64 96 -9 0 -16 7 -16 15 0 12 -13 15 -55 15 -30
0 -55 -4 -55 -10z"/>
<path d="M416 1871 c-4 -7 -5 -15 -2 -18 9 -9 19 4 14 18 -4 11 -6 11 -12 0z"/>
<path d="M1090 1860 c0 -5 7 -10 15 -10 8 0 15 5 15 10 0 6 -7 10 -15 10 -8 0
-15 -4 -15 -10z"/>
<path d="M730 1770 c0 -15 7 -20 25 -20 18 0 25 5 25 20 0 15 -7 20 -25 20
-18 0 -25 -5 -25 -20z"/>
<path d="M650 1631 c0 -26 19 -31 113 -31 94 0 127 7 127 26 0 19 -20 28 -33
15 -14 -14 -173 -15 -182 -1 -10 17 -25 11 -25 -9z"/>
</g>
</svg>
