<?xml version="1.0" standalone="no"?>
<!DOCTYPE svg PUBLIC "-//W3C//DTD SVG 20010904//EN"
 "http://www.w3.org/TR/2001/REC-SVG-20010904/DTD/svg10.dtd">
<svg version="1.0" xmlns="http://www.w3.org/2000/svg"
 width="200.000000pt" height="215.000000pt" viewBox="0 0 200.000000 215.000000"
 preserveAspectRatio="xMidYMid meet">
<metadata>
Created by potrace 1.10, written by Peter Selinger 2001-2011
</metadata>
<g transform="translate(0.000000,215.000000) scale(0.100000,-0.100000)"
fill="#000000" stroke="none">
<path d="M732 2088 c2 -36 7 -44 26 -46 14 -2 27 -15 37 -38 8 -19 19 -34 24
-34 15 0 14 -63 -1 -78 -8 -8 -17 -6 -36 8 -14 11 -33 20 -42 20 -10 0 -25 11
-34 25 -15 22 -23 25 -79 25 -82 0 -107 8 -118 36 -6 18 -16 24 -39 24 -30 0
-34 -7 -31 -55 4 -51 11 -65 36 -65 17 0 29 -9 39 -29 9 -16 26 -31 38 -35 19
-5 20 -8 8 -16 -8 -5 -32 -12 -53 -15 -28 -5 -41 -13 -47 -31 -12 -31 -25 -30
-46 1 -13 20 -25 25 -58 25 -45 0 -56 5 -72 35 -7 13 -22 20 -40 20 -28 0 -29
-2 -29 -50 0 -44 3 -51 26 -62 17 -8 29 -24 32 -43 5 -21 12 -30 26 -30 27 0
36 -31 15 -47 -10 -7 -27 -13 -39 -13 -27 0 -52 -20 -57 -45 -2 -11 -14 -22
-28 -25 -14 -3 -30 -17 -37 -30 -9 -18 -23 -26 -50 -30 -34 -5 -38 -8 -41 -37
-3 -35 4 -40 78 -45 33 -3 35 -5 35 -38 0 -28 -4 -36 -22 -38 -16 -2 -23 -11
-25 -35 -2 -22 -11 -35 -27 -44 -13 -6 -28 -19 -33 -28 -6 -9 -21 -20 -34 -25
-16 -7 -24 -17 -24 -34 0 -26 16 -36 61 -36 61 0 91 -38 49 -60 -11 -6 -20
-18 -20 -27 0 -9 -12 -34 -27 -55 -29 -42 -25 -52 23 -62 23 -5 34 -2 48 13
27 29 36 17 36 -44 0 -44 -4 -56 -20 -65 -11 -6 -20 -17 -20 -24 0 -8 -11 -21
-25 -30 -24 -16 -25 -20 -25 -131 0 -114 0 -116 25 -125 14 -5 25 -16 25 -24
0 -9 13 -22 28 -30 15 -8 33 -26 40 -40 11 -24 17 -26 72 -26 59 0 60 -1 74
-35 8 -19 19 -35 24 -35 5 0 12 -13 15 -29 4 -18 14 -32 27 -36 11 -3 20 -10
20 -15 0 -13 75 -90 88 -90 7 0 17 -9 24 -20 7 -11 23 -20 36 -20 15 0 26 -8
32 -25 8 -20 16 -25 45 -25 24 0 39 -6 47 -20 7 -11 18 -20 25 -20 17 0 17
-17 1 -23 -7 -3 115 -5 272 -5 157 0 277 2 268 5 -10 2 -18 8 -18 12 0 15 37
41 68 47 17 4 38 17 47 30 9 15 25 24 40 24 14 0 29 8 35 20 6 11 16 20 22 20
7 0 40 29 75 65 43 45 63 73 63 91 0 13 7 27 16 31 8 3 20 16 25 29 8 22 14
24 79 24 65 0 71 2 80 24 5 13 18 27 29 31 12 3 24 17 27 30 3 13 16 27 27 31
34 10 37 21 37 132 0 90 -2 104 -20 119 -11 10 -20 26 -20 35 0 11 -11 23 -27
29 l-27 10 29 24 30 23 -23 25 c-17 18 -23 34 -20 58 3 31 6 34 43 39 71 10
82 29 40 74 -14 15 -25 33 -25 40 0 7 -12 22 -26 35 -19 17 -24 30 -22 54 3
31 5 32 58 37 l55 5 3 38 c3 34 1 37 -23 37 -26 0 -29 4 -39 51 -4 19 -14 28
-35 32 -23 5 -30 12 -33 34 -2 22 -9 29 -33 33 -48 8 -43 70 6 70 10 0 22 6
26 14 4 7 18 19 31 25 18 10 22 19 20 44 -3 30 -5 32 -50 35 -39 3 -47 6 -50
25 -3 19 -9 22 -47 22 -40 0 -46 3 -51 25 -5 23 -12 26 -88 34 -45 4 -82 12
-82 17 0 5 4 9 10 9 5 0 12 11 16 25 3 14 18 31 33 38 23 11 26 18 26 67 0 66
-20 77 -60 34 -22 -24 -36 -29 -90 -32 -51 -3 -68 -9 -86 -28 -42 -45 -59 -28
-59 59 0 44 4 54 27 73 41 32 26 54 -37 54 -44 0 -52 -3 -62 -25 -6 -14 -22
-28 -34 -31 -13 -3 -27 -18 -33 -35 -6 -19 -17 -29 -30 -29 -11 0 -24 -6 -28
-14 -19 -32 -49 -27 -92 14 -22 22 -41 47 -41 55 0 10 -10 15 -30 15 -23 0
-33 6 -42 25 -9 21 -18 25 -55 25 -30 0 -49 6 -63 20 -11 11 -32 20 -46 20
-23 0 -25 -3 -22 -42z m46 -721 c3 -53 1 -58 -23 -69 -23 -10 -26 -17 -22 -45
5 -28 2 -36 -19 -50 -19 -12 -24 -23 -22 -47 4 -39 40 -49 60 -17 7 12 19 21
27 21 15 0 91 75 91 89 0 5 9 12 19 16 11 3 23 15 26 26 4 11 17 24 30 29 16
6 25 19 27 37 2 20 9 28 23 28 15 0 21 -8 23 -33 2 -18 -1 -39 -6 -45 -5 -7
-12 -28 -16 -48 -4 -21 -13 -42 -20 -48 -8 -6 -16 -26 -20 -43 -3 -17 -12 -39
-20 -47 -19 -24 -25 -46 -15 -62 7 -11 12 -12 26 -1 10 6 28 16 41 22 12 5 22
16 22 25 0 8 11 21 25 27 13 6 27 19 30 29 3 10 16 21 28 25 20 6 31 15 87 69
38 37 56 60 68 88 14 32 52 38 52 7 0 -10 11 -30 25 -43 22 -20 26 -35 32
-105 l6 -83 29 27 c15 15 28 33 28 41 0 7 9 17 20 23 16 9 20 21 20 63 0 29 3
62 6 74 7 26 24 21 24 -7 0 -11 9 -24 20 -30 11 -6 20 -19 20 -30 0 -11 9 -24
20 -30 17 -9 20 -21 20 -70 0 -61 11 -80 35 -60 12 10 16 9 22 -6 5 -11 8
-146 8 -301 0 -212 -3 -285 -12 -295 -7 -6 -13 -29 -13 -50 0 -26 -6 -44 -20
-55 -11 -10 -20 -29 -20 -44 0 -17 -9 -32 -24 -43 -14 -8 -27 -24 -31 -35 -3
-11 -15 -23 -25 -26 -10 -3 -22 -15 -25 -25 -4 -11 -17 -23 -30 -26 -13 -3
-31 -17 -40 -30 -9 -15 -25 -24 -40 -24 -14 0 -25 -4 -25 -10 0 -5 -12 -13
-27 -16 -16 -4 -35 -13 -45 -21 -9 -8 -40 -18 -70 -22 -29 -4 -60 -11 -67 -16
-19 -11 -218 -7 -241 5 -10 6 -37 10 -59 10 -28 0 -48 7 -61 20 -11 11 -30 20
-42 20 -13 0 -34 7 -48 15 -14 8 -35 19 -48 24 -12 6 -25 17 -28 25 -3 8 -16
17 -30 20 -15 4 -24 14 -24 26 0 12 -9 22 -24 26 -15 3 -27 15 -30 30 -4 15
-14 24 -25 24 -21 0 -31 19 -31 55 0 13 -4 26 -9 30 -5 3 -15 31 -21 63 -7 31
-17 63 -23 70 -11 13 -3 519 10 575 3 17 15 32 28 37 17 7 24 20 30 57 4 31
15 55 31 70 13 12 24 29 24 38 0 23 17 18 24 -7 3 -13 6 -42 6 -65 0 -23 5
-54 11 -69 l10 -28 25 29 c13 17 27 43 30 58 4 15 15 32 25 38 11 5 19 21 19
34 0 16 6 25 15 25 9 0 19 8 22 18 12 32 58 82 73 80 11 -2 16 -19 18 -61z
m1041 -600 c5 -13 16 -29 25 -36 12 -10 16 -32 16 -87 0 -70 -1 -75 -25 -84
-14 -5 -25 -17 -25 -26 0 -9 -9 -18 -21 -21 -11 -3 -25 -16 -29 -29 -15 -38
-85 -44 -97 -8 -2 6 6 21 17 34 11 13 20 36 20 51 0 16 8 36 19 46 10 10 21
30 25 46 3 15 12 27 19 27 19 0 36 20 30 36 -3 8 -11 14 -18 14 -7 0 -18 7
-25 15 -10 12 -10 18 0 30 19 23 59 19 69 -8z m-1551 -13 c2 -14 -5 -24 -23
-32 -32 -15 -32 -30 -1 -42 15 -5 27 -20 31 -39 3 -16 13 -35 21 -42 8 -6 14
-21 14 -33 0 -11 7 -34 15 -50 24 -46 15 -66 -30 -66 -18 0 -81 63 -90 90 -3
11 -15 20 -25 20 -14 0 -21 10 -26 36 -9 46 1 127 16 132 6 2 15 15 21 29 7
20 15 24 41 21 24 -2 34 -8 36 -24z"/>
<path d="M527 1060 c-9 -11 -25 -20 -36 -20 -20 0 -71 -60 -71 -84 0 -8 9 -20
21 -26 16 -9 24 -8 37 4 10 8 28 20 42 26 14 6 36 18 50 26 30 17 132 14 198
-7 40 -12 45 -12 57 4 18 25 9 49 -29 75 -28 19 -45 22 -142 22 -97 0 -111 -2
-127 -20z"/>
<path d="M1223 1062 c-10 -11 -26 -22 -35 -25 -11 -4 -18 -17 -18 -31 0 -34
33 -42 82 -21 22 9 67 15 108 15 58 0 73 -4 87 -20 10 -11 29 -20 44 -20 16 0
32 -9 41 -22 17 -26 48 -19 48 12 0 34 -28 90 -44 90 -9 0 -25 9 -36 20 -18
18 -33 20 -140 20 -103 0 -122 -3 -137 -18z"/>
<path d="M595 901 c-90 -42 -149 -145 -112 -196 13 -16 17 -17 31 -6 9 8 16
28 16 48 0 39 53 104 71 86 6 -6 5 -14 -6 -23 -31 -26 -8 -137 33 -159 54 -29
101 2 109 72 4 30 1 52 -7 62 -7 9 -10 18 -7 21 14 14 40 -8 54 -46 22 -56 38
-45 38 25 -1 49 -4 60 -25 76 -14 10 -37 27 -52 39 -33 25 -90 26 -143 1z"/>
<path d="M1252 891 c-42 -31 -56 -64 -54 -130 2 -48 9 -49 27 -5 16 41 48 69
66 59 5 -4 1 -17 -11 -32 -25 -33 -25 -57 1 -99 35 -57 107 -56 129 2 13 33
13 121 0 129 -15 9 -12 25 4 25 8 0 17 -9 21 -19 3 -11 12 -22 20 -24 7 -3 17
-27 21 -52 11 -74 53 -72 54 2 0 60 -43 133 -79 133 -9 0 -22 9 -29 20 -10 16
-23 20 -71 20 -48 0 -65 -5 -99 -29z"/>
<path d="M530 645 c0 -8 5 -15 10 -15 6 0 10 7 10 15 0 8 -4 15 -10 15 -5 0
-10 -7 -10 -15z"/>
<path d="M1440 640 c0 -5 7 -10 15 -10 8 0 15 5 15 10 0 6 -7 10 -15 10 -8 0
-15 -4 -15 -10z"/>
<path d="M967 543 c-10 -10 -8 -41 3 -48 17 -11 50 5 50 25 0 23 -37 40 -53
23z"/>
<path d="M854 345 c-3 -8 -4 -21 -1 -29 13 -32 274 -33 306 -1 14 13 13 17 -1
31 -13 13 -19 14 -39 3 -32 -17 -206 -17 -237 -1 -19 11 -23 10 -28 -3z"/>
</g>
</svg>
