<?xml version="1.0" standalone="no"?>
<!DOCTYPE svg PUBLIC "-//W3C//DTD SVG 20010904//EN"
 "http://www.w3.org/TR/2001/REC-SVG-20010904/DTD/svg10.dtd">
<svg version="1.0" xmlns="http://www.w3.org/2000/svg"
 width="172.000000pt" height="290.000000pt" viewBox="0 0 172.000000 290.000000"
 preserveAspectRatio="xMidYMid meet">
<metadata>
Created by potrace 1.10, written by Peter Selinger 2001-2011
</metadata>
<g transform="translate(0.000000,290.000000) scale(0.100000,-0.100000)"
fill="#000000" stroke="none">
<path d="M590 2810 c0 -27 -3 -30 -30 -30 -27 0 -30 -3 -30 -30 0 -27 -3 -30
-30 -30 -30 0 -30 0 -30 -60 0 -60 0 -60 -30 -60 -27 0 -30 -3 -30 -30 0 -27
-3 -30 -30 -30 -30 0 -30 0 -30 -60 0 -60 0 -60 -30 -60 -27 0 -30 -3 -30 -30
0 -27 3 -30 30 -30 27 0 30 -3 30 -30 0 -27 3 -30 30 -30 30 0 30 0 30 -60 0
-60 0 -60 -30 -60 -30 0 -30 -1 -30 -55 0 -54 0 -55 -30 -55 -27 0 -30 -3 -30
-30 0 -27 -3 -30 -30 -30 l-30 0 0 -90 0 -90 -60 0 -60 0 0 -60 c0 -60 0 -60
30 -60 27 0 30 -3 30 -30 0 -27 -3 -30 -30 -30 -27 0 -30 -3 -30 -30 0 -27 -3
-30 -30 -30 -27 0 -30 -3 -30 -30 0 -30 0 -30 60 -30 l60 0 0 -60 c0 -60 0
-60 -30 -60 -27 0 -30 -3 -30 -30 l0 -30 120 0 120 0 0 -90 0 -90 30 0 c27 0
30 3 30 30 0 30 0 30 60 30 l60 0 0 -60 c0 -60 0 -60 -30 -60 -27 0 -30 -3
-30 -30 0 -27 -3 -30 -30 -30 -27 0 -30 -3 -30 -30 0 -27 3 -30 30 -30 27 0
30 -3 30 -30 0 -27 -3 -30 -30 -30 l-30 0 0 -90 0 -90 -30 0 -30 0 0 -85 0
-85 30 0 c27 0 30 -3 30 -30 0 -27 3 -30 30 -30 27 0 30 -3 30 -30 0 -30 0
-30 60 -30 l60 0 0 -90 0 -90 -30 0 c-27 0 -30 -3 -30 -30 0 -27 -3 -30 -30
-30 l-30 0 0 -90 0 -90 175 0 175 0 0 210 0 210 30 0 30 0 0 -210 0 -210 180
0 180 0 0 90 0 90 -30 0 c-27 0 -30 3 -30 30 0 27 -3 30 -30 30 l-30 0 0 90 0
90 60 0 c60 0 60 0 60 30 0 27 3 30 30 30 27 0 30 3 30 30 0 27 3 30 30 30
l30 0 0 85 0 85 -30 0 -30 0 0 90 0 90 -30 0 c-27 0 -30 3 -30 30 0 27 3 30
30 30 27 0 30 3 30 30 0 27 -3 30 -30 30 -27 0 -30 3 -30 30 0 27 -3 30 -30
30 -30 0 -30 0 -30 60 l0 60 60 0 c60 0 60 0 60 -30 0 -27 3 -30 30 -30 l30 0
0 90 0 90 120 0 120 0 0 30 c0 27 -3 30 -30 30 -30 0 -30 0 -30 60 l0 60 60 0
c60 0 60 0 60 30 0 27 -3 30 -30 30 -27 0 -30 3 -30 30 0 27 -3 30 -30 30 -27
0 -30 3 -30 30 0 27 3 30 30 30 30 0 30 0 30 60 l0 60 -60 0 -60 0 0 90 0 90
-30 0 c-27 0 -30 3 -30 30 0 27 -3 30 -30 30 -30 0 -30 1 -30 55 0 54 0 55
-30 55 l-30 0 0 120 0 120 -30 0 -30 0 0 90 0 90 -30 0 -30 0 0 90 0 90 -30 0
c-27 0 -30 3 -30 30 l0 30 -265 0 -265 0 0 -30z m-120 -300 c0 -27 -3 -30 -30
-30 -27 0 -30 3 -30 30 0 27 3 30 30 30 27 0 30 -3 30 -30z m-60 -120 c0 -27
-3 -30 -30 -30 -27 0 -30 3 -30 30 0 27 3 30 30 30 27 0 30 -3 30 -30z m890
-265 c0 -54 0 -55 30 -55 l30 0 0 -150 0 -150 90 0 90 0 0 -30 c0 -27 -3 -30
-30 -30 -27 0 -30 -3 -30 -30 0 -27 -3 -30 -30 -30 -27 0 -30 -3 -30 -30 0
-27 -3 -30 -30 -30 -27 0 -30 3 -30 30 0 27 3 30 30 30 27 0 30 3 30 30 0 27
-3 30 -30 30 -27 0 -30 3 -30 30 0 27 -3 30 -30 30 l-30 0 0 -150 0 -150 -30
0 c-27 0 -30 -3 -30 -30 0 -30 0 -30 -60 -30 -60 0 -60 0 -60 -30 0 -27 -3
-30 -30 -30 -27 0 -30 3 -30 30 0 27 -3 30 -30 30 -30 0 -30 0 -30 -60 l0 -60
-145 0 -145 0 0 60 c0 60 0 60 -30 60 -27 0 -30 -3 -30 -30 0 -27 -3 -30 -30
-30 -27 0 -30 3 -30 30 0 30 0 30 -60 30 -60 0 -60 0 -60 30 0 27 -3 30 -30
30 l-30 0 0 150 0 150 -30 0 c-27 0 -30 -3 -30 -30 0 -27 -3 -30 -30 -30 -27
0 -30 -3 -30 -30 0 -27 3 -30 30 -30 27 0 30 -3 30 -30 0 -27 -3 -30 -30 -30
-27 0 -30 3 -30 30 0 27 -3 30 -30 30 -27 0 -30 3 -30 30 0 27 -3 30 -30 30
-27 0 -30 3 -30 30 l0 30 90 0 90 0 0 150 0 150 30 0 c30 0 30 1 30 55 l0 55
445 0 445 0 0 -55z m-360 -925 l0 -30 -85 0 -85 0 0 30 0 30 85 0 85 0 0 -30z
m-410 -330 c0 -60 0 -60 -30 -60 -30 0 -30 0 -30 60 0 60 0 60 30 60 30 0 30
0 30 -60z m710 0 c0 -60 0 -60 -30 -60 -30 0 -30 0 -30 60 0 60 0 60 30 60 30
0 30 0 30 -60z m-470 -710 l0 -60 -120 0 -120 0 0 60 0 60 120 0 120 0 0 -60z
m410 0 l0 -60 -120 0 -120 0 0 60 0 60 120 0 120 0 0 -60z"/>
<path d="M530 1860 c0 -27 -3 -30 -30 -30 l-30 0 0 -120 0 -120 30 0 c27 0 30
-3 30 -30 l0 -30 90 0 90 0 0 30 c0 27 3 30 30 30 l30 0 0 120 0 120 -30 0
c-27 0 -30 3 -30 30 l0 30 -90 0 -90 0 0 -30z m120 -60 c0 -27 -3 -30 -30 -30
-27 0 -30 3 -30 30 0 27 3 30 30 30 27 0 30 -3 30 -30z m0 -180 c0 -27 -3 -30
-30 -30 -27 0 -30 3 -30 30 0 27 3 30 30 30 27 0 30 -3 30 -30z"/>
<path d="M1000 1860 c0 -27 -3 -30 -30 -30 l-30 0 0 -120 0 -120 30 0 c27 0
30 -3 30 -30 l0 -30 90 0 90 0 0 30 c0 27 3 30 30 30 l30 0 0 120 0 120 -30 0
c-27 0 -30 3 -30 30 l0 30 -90 0 -90 0 0 -30z m120 -60 c0 -27 -3 -30 -30 -30
-27 0 -30 3 -30 30 0 27 3 30 30 30 27 0 30 -3 30 -30z m0 -180 c0 -27 -3 -30
-30 -30 -27 0 -30 3 -30 30 0 27 3 30 30 30 27 0 30 -3 30 -30z"/>
<path d="M710 1440 l0 -30 145 0 145 0 0 30 0 30 -145 0 -145 0 0 -30z"/>
</g>
</svg>
