<?xml version="1.0" standalone="no"?>
<!DOCTYPE svg PUBLIC "-//W3C//DTD SVG 20010904//EN"
 "http://www.w3.org/TR/2001/REC-SVG-20010904/DTD/svg10.dtd">
<svg version="1.0" xmlns="http://www.w3.org/2000/svg"
 width="171.000000pt" height="265.000000pt" viewBox="0 0 171.000000 265.000000"
 preserveAspectRatio="xMidYMid meet">
<metadata>
Created by potrace 1.10, written by Peter Selinger 2001-2011
</metadata>
<g transform="translate(0.000000,265.000000) scale(0.100000,-0.100000)"
fill="#000000" stroke="none">
<path d="M700 2560 c0 -30 0 -30 -60 -30 -60 0 -60 0 -60 -30 0 -27 -3 -30
-30 -30 -27 0 -30 -3 -30 -30 0 -27 -3 -30 -30 -30 -27 0 -30 -3 -30 -30 0
-27 -3 -30 -30 -30 -30 0 -30 0 -30 -60 0 -60 0 -60 -30 -60 -30 0 -30 -1 -30
-55 0 -54 0 -55 -30 -55 -30 0 -30 0 -30 -60 0 -60 0 -60 30 -60 27 0 30 -3
30 -30 0 -30 0 -30 -60 -30 l-60 0 0 -60 c0 -60 0 -60 30 -60 30 0 30 0 30
-60 0 -60 0 -60 -30 -60 -27 0 -30 -3 -30 -30 0 -27 -3 -30 -30 -30 -30 0 -30
0 -30 -60 0 -60 0 -60 -30 -60 l-30 0 0 -120 0 -120 30 0 c30 0 30 0 30 60 0
60 0 60 30 60 27 0 30 3 30 30 0 27 3 30 30 30 l30 0 0 -90 0 -90 -30 0 c-30
0 -30 0 -30 -60 0 -60 0 -60 -30 -60 -27 0 -30 -3 -30 -30 0 -30 0 -30 -60
-30 -60 0 -60 0 -60 -30 0 -30 0 -30 60 -30 60 0 60 0 60 -30 l0 -30 150 0
150 0 0 -60 c0 -60 0 -60 -30 -60 -27 0 -30 -3 -30 -30 0 -27 -3 -30 -30 -30
-30 0 -30 -1 -30 -55 0 -54 0 -55 -30 -55 l-30 0 0 -120 0 -120 30 0 c27 0 30
-3 30 -30 0 -27 3 -30 30 -30 27 0 30 -3 30 -30 0 -27 3 -30 30 -30 l30 0 0
90 0 90 60 0 c60 0 60 0 60 -30 0 -30 0 -30 60 -30 60 0 60 0 60 -30 0 -27 -3
-30 -30 -30 -27 0 -30 -3 -30 -30 0 -27 -3 -30 -30 -30 l-30 0 0 -90 0 -90
175 0 175 0 0 180 0 180 30 0 30 0 0 -180 0 -180 180 0 180 0 0 90 0 90 -30 0
c-27 0 -30 3 -30 30 0 27 -3 30 -30 30 -27 0 -30 3 -30 30 0 30 0 30 60 30 60
0 60 0 60 30 0 30 0 30 60 30 l60 0 0 -90 0 -90 30 0 c27 0 30 3 30 30 0 27 3
30 30 30 27 0 30 3 30 30 0 27 3 30 30 30 l30 0 0 120 0 120 -30 0 c-30 0 -30
1 -30 55 0 54 0 55 -30 55 -27 0 -30 3 -30 30 0 27 -3 30 -30 30 l-30 0 0 90
0 90 -30 0 c-30 0 -30 0 -30 60 0 60 0 60 -30 60 l-30 0 0 90 0 90 30 0 c30 0
30 0 30 60 0 60 0 60 30 60 30 0 30 0 30 60 0 60 0 60 30 60 30 0 30 0 30 60
0 60 0 60 30 60 27 0 30 3 30 30 0 27 3 30 30 30 27 0 30 3 30 30 0 27 3 30
30 30 30 0 30 0 30 60 l0 60 -60 0 -60 0 0 145 0 145 -30 0 c-30 0 -30 0 -30
60 0 60 0 60 -30 60 -27 0 -30 3 -30 30 0 27 -3 30 -30 30 -27 0 -30 3 -30 30
0 27 -3 30 -30 30 -27 0 -30 3 -30 30 0 30 0 30 -60 30 -60 0 -60 0 -60 30 l0
30 -265 0 -265 0 0 -30z m230 -120 c0 -29 14 -37 53 -31 4 0 7 -12 7 -29 0
-27 -3 -30 -30 -30 -27 0 -30 3 -30 30 0 25 -4 30 -25 30 -21 0 -25 5 -25 30
0 25 4 30 25 30 21 0 25 -5 25 -30z m240 -60 l0 -90 -30 0 -30 0 0 90 0 90 30
0 30 0 0 -90z m-410 -60 c0 -30 0 -30 -60 -30 -60 0 -60 0 -60 -30 0 -27 -3
-30 -30 -30 -30 0 -30 -1 -30 -55 0 -54 0 -55 -30 -55 -30 0 -30 1 -30 55 0
54 0 55 -30 55 -30 0 -30 0 -30 -56 0 -54 0 -55 -27 -52 -26 3 -28 7 -31 56
l-3 52 30 0 c28 0 31 3 31 30 0 27 3 30 30 30 27 0 30 3 30 30 l0 30 120 0
120 0 0 -30z m590 -200 c0 -60 0 -60 30 -60 l30 0 0 -240 0 -240 -30 0 c-27 0
-30 -3 -30 -30 0 -30 0 -30 -60 -30 -60 0 -60 0 -60 -30 0 -30 0 -30 -60 -30
-60 0 -60 0 -60 -30 l0 -30 -145 0 -145 0 0 30 c0 30 0 30 -60 30 l-60 0 0 90
0 90 60 0 c60 0 60 0 60 30 0 27 3 30 30 30 l30 0 0 90 0 90 -30 0 c-27 0 -30
-3 -30 -30 0 -27 -3 -30 -30 -30 -27 0 -30 3 -30 30 0 27 3 30 30 30 27 0 30
3 30 30 0 30 0 30 -60 30 -60 0 -60 0 -60 30 0 30 0 30 60 30 60 0 60 0 60 30
l0 30 -90 0 -90 0 0 30 c0 27 3 30 30 30 27 0 30 3 30 30 l0 30 325 0 325 0 0
-60z m-1010 -270 c0 -27 -3 -30 -30 -30 -27 0 -30 3 -30 30 0 27 3 30 30 30
27 0 30 -3 30 -30z m360 -60 l0 -90 -30 0 -30 0 0 90 0 90 30 0 30 0 0 -90z
m950 60 c0 -27 -3 -30 -30 -30 -27 0 -30 -3 -30 -30 0 -27 -3 -30 -30 -30 -27
0 -30 -3 -30 -30 0 -27 -3 -30 -30 -30 -27 0 -30 3 -30 30 0 27 3 30 30 30 27
0 30 3 30 30 0 27 -3 30 -30 30 -27 0 -30 3 -30 30 l0 30 90 0 90 0 0 -30z
m-1190 -60 c0 -27 -3 -30 -29 -30 -25 0 -30 -4 -33 -27 -2 -22 -9 -29 -30 -31
-16 -2 -28 2 -28 8 0 6 6 8 13 4 10 -6 10 -4 0 7 -13 13 -18 81 -8 91 3 3 30
6 60 7 55 1 55 1 55 -29z m360 -540 c0 -27 3 -30 30 -30 27 0 30 -3 30 -30 0
-27 -3 -30 -30 -30 -27 0 -30 3 -30 30 0 27 -3 30 -30 30 -27 0 -30 3 -30 30
0 27 3 30 30 30 27 0 30 -3 30 -30z m170 0 c0 -27 -3 -30 -30 -30 -27 0 -30 3
-30 30 0 27 3 30 30 30 27 0 30 -3 30 -30z m180 0 c0 -27 -3 -30 -30 -30 -27
0 -30 -3 -30 -30 0 -27 -3 -30 -30 -30 -27 0 -30 3 -30 30 0 27 3 30 30 30 27
0 30 3 30 30 0 27 3 30 30 30 27 0 30 -3 30 -30z m-180 -120 c0 -27 -3 -30
-30 -30 -27 0 -30 3 -30 30 0 27 3 30 30 30 27 0 30 -3 30 -30z m0 -120 c0
-27 -3 -30 -30 -30 -27 0 -30 3 -30 30 0 27 3 30 30 30 27 0 30 -3 30 -30z
m-350 -120 c0 -30 0 -30 -60 -30 -60 0 -60 0 -60 30 0 30 0 30 60 30 60 0 60
0 60 -30z m350 0 c0 -27 -3 -30 -30 -30 -27 0 -30 3 -30 30 0 27 3 30 30 30
27 0 30 -3 30 -30z m420 0 c0 -30 0 -30 -60 -30 -60 0 -60 0 -60 30 0 30 0 30
60 30 60 0 60 0 60 -30z m-770 -175 l0 -85 -30 0 c-27 0 -30 -3 -30 -30 0 -27
3 -30 30 -30 27 0 30 -3 30 -30 0 -27 -3 -30 -30 -30 -27 0 -30 3 -30 30 0 27
-3 30 -30 30 -27 0 -30 3 -30 30 0 27 3 30 30 30 27 0 30 3 30 30 0 27 -3 30
-30 30 -30 0 -30 1 -30 55 l0 55 60 0 60 0 0 -85z m240 55 c0 -30 0 -30 -60
-30 -60 0 -60 0 -60 30 0 30 0 30 60 30 60 0 60 0 60 -30z m290 0 c0 -30 0
-30 -60 -30 -60 0 -60 0 -60 30 0 30 0 30 60 30 60 0 60 0 60 -30z m240 -25
c0 -54 0 -55 -30 -55 -27 0 -30 -3 -30 -30 0 -27 3 -30 30 -30 27 0 30 -3 30
-30 0 -27 -3 -30 -30 -30 -27 0 -30 -3 -30 -30 0 -27 -3 -30 -30 -30 -27 0
-30 3 -30 30 0 27 3 30 30 30 27 0 30 3 30 30 0 27 -3 30 -30 30 l-30 0 0 85
0 85 60 0 60 0 0 -55z m-590 -325 c0 -27 -3 -30 -30 -30 -27 0 -30 3 -30 30 0
27 3 30 30 30 27 0 30 -3 30 -30z m350 0 c0 -27 -3 -30 -30 -30 -27 0 -30 3
-30 30 0 27 3 30 30 30 27 0 30 -3 30 -30z m-290 -150 l0 -60 -120 0 -120 0 0
60 0 60 120 0 120 0 0 -60z m410 0 l0 -60 -120 0 -120 0 0 60 0 60 120 0 120
0 0 -60z"/>
<path d="M723 2303 c4 -3 10 -3 14 0 3 4 0 7 -7 7 -7 0 -10 -3 -7 -7z"/>
<path d="M520 2260 c0 -27 3 -30 30 -30 27 0 30 3 30 30 0 27 -3 30 -30 30
-27 0 -30 -3 -30 -30z"/>
<path d="M1110 2030 c0 -27 -3 -30 -30 -30 -27 0 -30 -3 -30 -30 0 -27 3 -30
30 -30 27 0 30 -3 30 -30 0 -27 -3 -30 -30 -30 l-30 0 0 -90 0 -90 30 0 c27 0
30 -3 30 -30 l0 -30 90 0 90 0 0 30 c0 27 3 30 30 30 l30 0 0 90 0 90 -30 0
c-27 0 -30 3 -30 30 0 27 3 30 30 30 27 0 30 3 30 30 0 27 -3 30 -30 30 -27 0
-30 3 -30 30 l0 30 -90 0 -90 0 0 -30z m180 -60 l0 -30 -90 0 -90 0 0 30 0 30
90 0 90 0 0 -30z m-120 -120 c0 -27 -3 -30 -30 -30 -27 0 -30 3 -30 30 0 27 3
30 30 30 27 0 30 -3 30 -30z m120 -60 l0 -90 -30 0 -30 0 0 90 0 90 30 0 30 0
0 -90z"/>
<path d="M820 1970 c0 -27 3 -30 30 -30 27 0 30 3 30 30 0 27 -3 30 -30 30
-27 0 -30 -3 -30 -30z"/>
<path d="M880 1550 l0 -30 85 0 85 0 0 30 0 30 -85 0 -85 0 0 -30z"/>
</g>
</svg>
