<?xml version="1.0" standalone="no"?>
<!DOCTYPE svg PUBLIC "-//W3C//DTD SVG 20010904//EN"
 "http://www.w3.org/TR/2001/REC-SVG-20010904/DTD/svg10.dtd">
<svg version="1.0" xmlns="http://www.w3.org/2000/svg"
 width="241.000000pt" height="232.000000pt" viewBox="0 0 241.000000 232.000000"
 preserveAspectRatio="xMidYMid meet">
<metadata>
Created by potrace 1.10, written by Peter Selinger 2001-2011
</metadata>
<g transform="translate(0.000000,232.000000) scale(0.100000,-0.100000)"
fill="#000000" stroke="none">
<path d="M1466 2289 c-62 -15 -153 -68 -197 -116 -56 -61 -98 -155 -106 -236
-5 -61 -4 -67 20 -91 51 -51 137 -17 137 55 0 62 23 113 75 164 51 52 102 75
164 75 42 0 81 38 81 80 0 47 -39 80 -92 79 -24 -1 -60 -5 -82 -10z"/>
<path d="M375 2126 c-101 -44 -125 -178 -46 -257 65 -65 157 -65 222 0 124
124 -15 327 -176 257z"/>
<path d="M706 2037 c-51 -51 -17 -137 55 -137 62 0 113 -23 164 -75 64 -63 75
-100 75 -244 0 -105 1 -113 25 -136 32 -33 78 -33 112 1 25 25 25 26 22 168
-4 141 -5 143 -41 218 -64 129 -182 212 -321 225 -61 5 -67 4 -91 -20z"/>
<path d="M1975 2046 c-101 -44 -125 -178 -46 -257 65 -65 157 -65 222 0 124
124 -15 327 -176 257z"/>
<path d="M1626 1969 c-62 -15 -153 -68 -197 -116 -22 -24 -55 -74 -72 -110
-26 -57 -31 -81 -35 -169 -4 -100 -4 -103 21 -128 34 -34 79 -34 112 -1 22 21
25 33 25 96 0 102 16 145 75 204 51 52 102 75 164 75 42 0 81 38 81 80 0 47
-39 80 -92 79 -24 -1 -60 -5 -82 -10z"/>
<path d="M879 1410 c-9 -5 -71 -101 -138 -214 l-123 -205 27 -34 c15 -21 29
-56 34 -88 10 -60 36 -89 81 -89 45 0 71 29 81 89 25 158 199 204 293 77 19
-25 21 -45 26 -238 5 -206 5 -210 29 -229 30 -24 72 -24 102 0 23 18 24 25 29
189 4 152 7 174 26 198 39 53 71 69 134 69 90 0 144 -49 159 -145 10 -61 36
-90 83 -90 39 0 78 40 78 80 0 46 24 94 63 125 l34 28 -134 226 c-75 124 -144
234 -155 244 -35 30 -72 22 -134 -33 -84 -74 -154 -105 -234 -105 -80 0 -150
31 -234 105 -58 50 -91 61 -127 40z"/>
<path d="M950 922 c-15 -12 -25 -35 -31 -72 -15 -96 -69 -145 -158 -145 -48 0
-64 5 -95 29 -41 31 -66 78 -66 124 0 15 -6 36 -12 45 -11 15 -43 -33 -240
-362 -143 -238 -228 -389 -228 -406 0 -14 11 -37 25 -50 l24 -25 1071 0 1071
0 24 25 c14 13 25 36 25 50 0 31 -406 715 -425 715 -28 0 -48 -29 -56 -81 -15
-95 -69 -144 -158 -144 -48 0 -64 5 -95 29 -42 31 -66 78 -66 126 0 66 -80
103 -131 61 -23 -18 -24 -25 -29 -189 -4 -152 -7 -174 -26 -198 -39 -52 -71
-69 -133 -69 -48 0 -64 5 -95 29 -60 46 -66 70 -66 286 0 189 0 191 -25 215
-29 30 -73 33 -105 7z"/>
</g>
</svg>
