<?xml version="1.0" standalone="no"?>
<!DOCTYPE svg PUBLIC "-//W3C//DTD SVG 20010904//EN"
 "http://www.w3.org/TR/2001/REC-SVG-20010904/DTD/svg10.dtd">
<svg version="1.0" xmlns="http://www.w3.org/2000/svg"
 width="300.000000pt" height="300.000000pt" viewBox="0 0 300.000000 300.000000"
 preserveAspectRatio="xMidYMid meet">
<metadata>
Created by potrace 1.10, written by Peter Selinger 2001-2011
</metadata>
<g transform="translate(0.000000,300.000000) scale(0.100000,-0.100000)"
fill="white" stroke="none">
<path d="M2478 2993 c-13 -3 -1512 -1573 -1585 -1661 l-23 -27 -112 112 c-62
62 -126 117 -142 123 -36 13 -84 -1 -114 -33 -47 -50 -76 -190 -51 -240 6 -12
63 -75 127 -139 l115 -116 -91 -99 c-88 -96 -291 -334 -324 -382 l-17 -24 -41
36 c-32 29 -48 37 -79 37 -60 0 -96 -36 -122 -122 -52 -171 25 -345 189 -424
50 -25 69 -28 147 -28 103 0 166 22 204 70 33 42 25 104 -20 150 l-33 34 24
17 c49 34 287 236 383 325 l99 91 116 -115 c64 -64 127 -121 139 -127 33 -17
93 -13 158 9 68 23 100 50 115 95 17 51 -1 80 -121 201 l-110 110 93 90 c51
50 145 139 208 199 998 944 1379 1309 1384 1327 3 13 6 114 6 226 0 301 9 293
-297 291 -114 -1 -216 -3 -225 -6z m422 -286 l0 -192 -597 -565 c-663 -628
-765 -725 -936 -887 -64 -62 -123 -113 -130 -113 -7 0 -35 23 -62 50 l-50 50
728 728 c750 750 752 753 715 790 -37 37 -40 35 -790 -715 l-728 -728 -51 52
c-30 29 -50 57 -47 65 3 8 356 384 784 836 l779 822 193 0 192 0 0 -193z
m-1456 -2128 c-6 -10 -94 -39 -118 -39 -14 0 -69 48 -156 135 l-135 135 -92 0
c-126 0 -133 7 -133 133 l0 92 -136 135 c-130 129 -135 136 -131 170 3 19 12
53 21 75 l17 39 434 -434 c239 -238 432 -437 429 -441z m-681 175 c22 -20 50
-34 78 -39 l43 -8 -36 -31 c-19 -17 -80 -70 -134 -117 -55 -47 -139 -118 -189
-157 l-89 -72 -53 51 -52 52 21 30 c33 47 171 211 266 320 l87 97 12 -47 c8
-32 24 -59 46 -79z m-448 -444 c184 -184 181 -179 100 -201 -81 -23 -175 4
-238 68 -53 53 -72 98 -72 173 0 60 18 130 34 130 3 0 83 -77 176 -170z"/>
</g>
</svg>
