<?xml version="1.0" standalone="no"?>
<!DOCTYPE svg PUBLIC "-//W3C//DTD SVG 20010904//EN"
 "http://www.w3.org/TR/2001/REC-SVG-20010904/DTD/svg10.dtd">
<svg version="1.0" xmlns="http://www.w3.org/2000/svg"
 width="221.000000pt" height="271.000000pt" viewBox="0 0 221.000000 271.000000"
 preserveAspectRatio="xMidYMid meet">
<metadata>
Created by potrace 1.10, written by Peter Selinger 2001-2011
</metadata>
<g transform="translate(0.000000,271.000000) scale(0.100000,-0.100000)"
fill="#000000" stroke="none">
<path d="M244 2610 c-67 -27 -123 -76 -159 -141 l-30 -54 0 -1065 0 -1065 30
-54 c37 -67 92 -115 163 -141 53 -20 71 -20 870 -18 l817 3 42 23 c63 33 106
74 139 134 l29 53 0 1065 0 1065 -23 42 c-33 63 -74 106 -134 139 l-53 29
-820 2 c-794 2 -822 2 -871 -17z m449 -221 c21 -6 56 -26 77 -45 107 -97 88
-264 -40 -362 -27 -20 -49 -40 -49 -44 -1 -5 39 -8 89 -8 86 0 90 -1 107 -26
15 -24 15 -29 2 -53 -19 -34 -57 -39 -301 -40 -205 -1 -218 2 -218 58 0 37 22
56 137 111 163 79 223 136 223 210 -1 75 -77 113 -150 75 -33 -17 -44 -35 -54
-84 -8 -45 -23 -61 -57 -61 -39 0 -59 24 -59 71 0 138 148 239 293 198z m624
-663 c96 -48 162 -148 163 -246 l0 -55 58 -31 c134 -71 196 -247 132 -374 -46
-92 -147 -171 -238 -186 l-40 -6 34 -126 c35 -131 34 -151 -6 -172 -11 -6
-111 -10 -249 -10 -218 0 -232 1 -251 20 -26 26 -26 30 11 166 17 64 29 117
27 118 -2 1 -25 7 -53 14 -60 16 -144 69 -179 115 -14 18 -35 55 -47 82 -29
65 -23 158 14 231 30 58 103 128 152 144 30 10 33 14 39 68 19 172 153 289
318 278 43 -3 83 -13 115 -30z"/>
</g>
</svg>
