<?xml version="1.0" standalone="no"?>
<!DOCTYPE svg PUBLIC "-//W3C//DTD SVG 20010904//EN"
 "http://www.w3.org/TR/2001/REC-SVG-20010904/DTD/svg10.dtd">
<svg version="1.0" xmlns="http://www.w3.org/2000/svg"
 width="228.000000pt" height="272.000000pt" viewBox="0 0 228.000000 272.000000"
 preserveAspectRatio="xMidYMid meet">
<metadata>
Created by potrace 1.10, written by Peter Selinger 2001-2011
</metadata>
<g transform="translate(0.000000,272.000000) scale(0.100000,-0.100000)"
fill="#000000" stroke="none">
<path d="M274 2620 c-67 -27 -123 -76 -159 -141 l-30 -54 0 -1065 0 -1065 30
-54 c37 -67 92 -115 163 -141 53 -20 71 -20 870 -18 l817 3 42 23 c63 33 106
74 139 134 l29 53 0 1065 0 1065 -23 42 c-33 63 -74 106 -134 139 l-53 29
-820 2 c-794 2 -822 2 -871 -17z m475 -236 c19 -24 21 -40 21 -174 l0 -147 45
-5 c55 -7 75 -22 75 -59 0 -40 -24 -59 -74 -59 l-43 0 -5 -45 c-7 -55 -22 -75
-57 -75 -41 0 -55 15 -60 67 l-6 48 -122 3 c-119 3 -124 3 -139 28 -13 19 -14
30 -7 47 11 22 248 334 286 375 27 29 61 28 86 -4z m598 -648 c53 -26 111 -85
139 -138 9 -18 19 -62 22 -98 l4 -65 57 -31 c133 -72 195 -248 131 -374 -46
-92 -147 -171 -238 -186 l-40 -6 34 -126 c35 -131 34 -151 -6 -172 -11 -6
-111 -10 -249 -10 -218 0 -232 1 -251 20 -26 26 -26 30 11 166 17 64 29 117
27 118 -2 1 -25 7 -53 14 -60 16 -144 69 -179 115 -14 18 -35 55 -47 82 -29
65 -23 158 14 231 30 58 103 128 152 144 30 10 33 14 39 68 4 31 17 80 30 107
29 63 109 136 173 158 67 24 165 16 230 -17z"/>
<path d="M601 2115 l-42 -55 46 0 45 0 0 55 c0 30 -2 55 -4 55 -2 0 -22 -25
-45 -55z"/>
</g>
</svg>
