<?xml version="1.0" standalone="no"?>
<!DOCTYPE svg PUBLIC "-//W3C//DTD SVG 20010904//EN"
 "http://www.w3.org/TR/2001/REC-SVG-20010904/DTD/svg10.dtd">
<svg version="1.0" xmlns="http://www.w3.org/2000/svg"
 width="225.000000pt" height="270.000000pt" viewBox="0 0 225.000000 270.000000"
 preserveAspectRatio="xMidYMid meet">
<metadata>
Created by potrace 1.10, written by Peter Selinger 2001-2011
</metadata>
<g transform="translate(0.000000,270.000000) scale(0.100000,-0.100000)"
fill="#000000" stroke="none">
<path d="M264 2610 c-67 -27 -123 -76 -159 -141 l-30 -54 0 -1065 0 -1065 30
-54 c37 -67 92 -115 163 -141 53 -20 71 -20 870 -18 l817 3 42 23 c63 33 106
74 139 134 l29 53 0 1065 0 1065 -23 42 c-33 63 -74 106 -134 139 l-53 29
-820 2 c-794 2 -822 2 -871 -17z m464 -239 c61 -31 79 -76 45 -113 -21 -23
-44 -23 -93 2 -22 11 -50 20 -63 20 -32 0 -88 -39 -98 -68 -8 -21 -7 -23 14
-15 12 4 54 8 93 8 59 0 77 -4 107 -25 95 -65 112 -208 36 -294 -89 -102 -249
-102 -337 -2 -43 49 -55 102 -50 221 7 152 45 224 143 272 61 29 138 27 203
-6z m609 -645 c53 -26 111 -85 139 -138 9 -18 19 -62 22 -98 l4 -65 57 -31
c133 -72 195 -248 131 -374 -46 -92 -147 -171 -238 -186 l-40 -6 34 -126 c35
-131 34 -151 -6 -172 -11 -6 -111 -10 -249 -10 -218 0 -232 1 -251 20 -26 26
-26 30 11 166 17 64 29 117 27 118 -2 1 -25 7 -53 14 -60 16 -144 69 -179 115
-14 18 -35 55 -47 82 -29 65 -23 158 14 231 30 58 103 128 152 144 30 10 33
14 39 68 4 31 17 80 30 107 29 63 109 136 173 158 67 24 165 16 230 -17z"/>
<path d="M552 2073 c-39 -19 -56 -46 -48 -79 17 -68 113 -88 167 -35 34 35 37
68 8 105 -24 31 -75 35 -127 9z"/>
</g>
</svg>
