<?xml version="1.0" standalone="no"?>
<!DOCTYPE svg PUBLIC "-//W3C//DTD SVG 20010904//EN"
 "http://www.w3.org/TR/2001/REC-SVG-20010904/DTD/svg10.dtd">
<svg version="1.0" xmlns="http://www.w3.org/2000/svg"
 width="223.000000pt" height="268.000000pt" viewBox="0 0 223.000000 268.000000"
 preserveAspectRatio="xMidYMid meet">
<metadata>
Created by potrace 1.10, written by Peter Selinger 2001-2011
</metadata>
<g transform="translate(0.000000,268.000000) scale(0.100000,-0.100000)"
fill="#000000" stroke="none">
<path d="M254 2600 c-67 -27 -123 -76 -159 -141 l-30 -54 0 -1065 0 -1065 30
-54 c37 -67 92 -115 163 -141 53 -20 71 -20 870 -18 l817 3 42 23 c63 33 106
74 139 134 l29 53 0 1065 0 1065 -23 42 c-33 63 -74 106 -134 139 l-53 29
-820 2 c-794 2 -822 2 -871 -17z m546 -230 c28 -28 25 -54 -13 -97 -96 -108
-140 -205 -160 -353 -15 -110 -23 -122 -72 -118 -47 4 -58 39 -45 141 12 98
36 173 84 263 l34 64 -111 0 c-89 0 -114 3 -129 17 -22 20 -23 61 -1 85 14 16
35 18 205 18 175 0 189 -1 208 -20z m526 -653 c97 -49 163 -149 164 -247 l0
-55 58 -31 c134 -71 196 -247 132 -374 -46 -92 -147 -171 -238 -186 l-40 -6
34 -126 c35 -131 34 -151 -6 -172 -11 -6 -111 -10 -249 -10 -218 0 -232 1
-251 20 -26 26 -26 30 11 166 17 64 29 117 27 118 -2 1 -25 7 -53 14 -60 16
-144 69 -179 115 -14 18 -35 55 -47 82 -29 65 -23 158 14 231 30 58 103 128
152 144 30 10 33 14 39 68 7 58 40 140 73 178 31 36 90 75 135 90 64 21 162
12 224 -19z"/>
</g>
</svg>
