<?xml version="1.0" standalone="no"?>
<!DOCTYPE svg PUBLIC "-//W3C//DTD SVG 20010904//EN"
 "http://www.w3.org/TR/2001/REC-SVG-20010904/DTD/svg10.dtd">
<svg version="1.0" xmlns="http://www.w3.org/2000/svg"
 width="226.000000pt" height="272.000000pt" viewBox="0 0 226.000000 272.000000"
 preserveAspectRatio="xMidYMid meet">
<metadata>
Created by potrace 1.10, written by Peter Selinger 2001-2011
</metadata>
<g transform="translate(0.000000,272.000000) scale(0.100000,-0.100000)"
fill="#000000" stroke="none">
<path d="M264 2610 c-67 -27 -123 -76 -159 -141 l-30 -54 0 -1065 0 -1065 30
-54 c37 -67 92 -115 163 -141 53 -20 71 -20 870 -18 l817 3 42 23 c63 33 106
74 139 134 l29 53 0 1065 0 1065 -23 42 c-33 63 -74 106 -134 139 l-53 29
-820 2 c-794 2 -822 2 -871 -17z m453 -238 c100 -51 132 -159 73 -242 l-20
-29 25 -37 c43 -63 31 -136 -32 -196 -67 -64 -189 -78 -281 -32 -73 36 -97 74
-97 149 0 46 5 68 21 89 l21 29 -23 35 c-46 67 -25 161 47 214 69 52 186 60
266 20z m620 -646 c53 -26 111 -85 139 -138 9 -18 19 -62 22 -98 l4 -65 57
-31 c133 -72 195 -248 131 -374 -46 -92 -147 -171 -238 -186 l-40 -6 34 -126
c35 -131 34 -151 -6 -172 -11 -6 -111 -10 -249 -10 -218 0 -232 1 -251 20 -26
26 -26 30 11 166 17 64 29 117 27 118 -2 1 -25 7 -53 14 -60 16 -144 69 -179
115 -14 18 -35 55 -47 82 -29 65 -23 158 14 231 30 58 103 128 152 144 30 10
33 14 39 68 4 31 17 80 30 107 29 63 109 136 173 158 67 24 165 16 230 -17z"/>
<path d="M550 2273 c-86 -32 -51 -107 50 -107 55 0 100 25 100 54 0 40 -94 73
-150 53z"/>
<path d="M528 2024 c-39 -20 -38 -58 2 -79 43 -22 112 -19 144 6 33 26 33 42
0 68 -32 25 -105 28 -146 5z"/>
</g>
</svg>
