<?xml version="1.0" standalone="no"?>
<!DOCTYPE svg PUBLIC "-//W3C//DTD SVG 20010904//EN"
 "http://www.w3.org/TR/2001/REC-SVG-20010904/DTD/svg10.dtd">
<svg version="1.0" xmlns="http://www.w3.org/2000/svg"
 width="222.000000pt" height="270.000000pt" viewBox="0 0 222.000000 270.000000"
 preserveAspectRatio="xMidYMid meet">
<metadata>
Created by potrace 1.10, written by Peter Selinger 2001-2011
</metadata>
<g transform="translate(0.000000,270.000000) scale(0.100000,-0.100000)"
fill="#000000" stroke="none">
<path d="M244 2600 c-67 -27 -123 -76 -159 -141 l-30 -54 0 -1065 0 -1065 30
-54 c37 -67 92 -115 163 -141 53 -20 71 -20 870 -18 l817 3 42 23 c63 33 106
74 139 134 l29 53 0 1065 0 1065 -23 42 c-33 63 -74 106 -134 139 l-53 29
-820 2 c-794 2 -822 2 -871 -17z m433 -233 c43 -23 91 -75 105 -116 18 -51 15
-214 -5 -281 -43 -145 -187 -209 -325 -145 -62 29 -82 64 -58 101 23 33 50 38
95 14 59 -29 106 -27 142 9 34 35 41 68 10 51 -28 -15 -136 -12 -174 4 -39 16
-82 61 -96 99 -15 39 -14 121 3 160 17 43 87 102 134 116 47 13 132 7 169 -12z
m639 -650 c97 -49 163 -149 164 -247 l0 -55 58 -31 c134 -71 196 -247 132
-374 -46 -92 -147 -171 -238 -186 l-40 -6 34 -126 c35 -131 34 -151 -6 -172
-11 -6 -111 -10 -249 -10 -218 0 -232 1 -251 20 -26 26 -26 30 11 166 17 64
29 117 27 118 -2 1 -25 7 -53 14 -60 16 -144 69 -179 115 -14 18 -35 55 -47
82 -29 65 -23 158 14 231 30 58 103 128 152 144 30 10 33 14 39 68 7 58 40
140 73 178 31 36 90 75 135 90 64 21 162 12 224 -19z"/>
<path d="M540 2263 c-58 -21 -81 -101 -39 -139 39 -35 144 -11 167 40 27 61
-56 125 -128 99z"/>
</g>
</svg>
