<?xml version="1.0" standalone="no"?>
<!DOCTYPE svg PUBLIC "-//W3C//DTD SVG 20010904//EN"
 "http://www.w3.org/TR/2001/REC-SVG-20010904/DTD/svg10.dtd">
<svg version="1.0" xmlns="http://www.w3.org/2000/svg"
 width="223.000000pt" height="265.000000pt" viewBox="0 0 223.000000 265.000000"
 preserveAspectRatio="xMidYMid meet">
<metadata>
Created by potrace 1.10, written by Peter Selinger 2001-2011
</metadata>
<g transform="translate(0.000000,265.000000) scale(0.100000,-0.100000)"
fill="#000000" stroke="none">
<path d="M264 2590 c-67 -27 -123 -76 -159 -141 l-30 -54 0 -1065 0 -1065 30
-54 c37 -67 92 -115 163 -141 53 -20 71 -20 870 -18 l817 3 42 23 c63 33 106
74 139 134 l29 53 0 1065 0 1065 -23 42 c-33 63 -74 106 -134 139 l-53 29
-820 2 c-794 2 -822 2 -871 -17z m393 -259 c8 -11 54 -123 100 -250 91 -246
95 -272 48 -293 -43 -19 -69 2 -95 76 l-24 66 -70 0 -71 0 -23 -64 c-26 -72
-40 -88 -77 -88 -34 0 -55 19 -55 50 0 40 169 485 192 505 26 22 54 22 75 -2z
m680 -625 c96 -48 162 -148 163 -246 l0 -55 58 -31 c134 -71 196 -247 132
-374 -46 -92 -147 -171 -238 -186 l-40 -6 34 -126 c35 -131 34 -151 -6 -172
-11 -6 -111 -10 -249 -10 -218 0 -232 1 -251 20 -26 26 -26 30 11 166 17 64
29 117 27 118 -2 1 -25 7 -53 14 -60 16 -144 69 -179 115 -14 18 -35 55 -47
82 -29 65 -23 158 14 231 30 58 103 128 152 144 30 10 33 14 39 68 4 31 17 80
30 107 29 63 109 136 173 158 67 24 165 16 230 -17z"/>
<path d="M607 2095 c-12 -30 -7 -45 13 -45 23 0 24 6 6 39 -11 20 -14 21 -19
6z"/>
</g>
</svg>
