<?xml version="1.0" standalone="no"?>
<!DOCTYPE svg PUBLIC "-//W3C//DTD SVG 20010904//EN"
 "http://www.w3.org/TR/2001/REC-SVG-20010904/DTD/svg10.dtd">
<svg version="1.0" xmlns="http://www.w3.org/2000/svg"
 width="221.000000pt" height="270.000000pt" viewBox="0 0 221.000000 270.000000"
 preserveAspectRatio="xMidYMid meet">
<metadata>
Created by potrace 1.10, written by Peter Selinger 2001-2011
</metadata>
<g transform="translate(0.000000,270.000000) scale(0.100000,-0.100000)"
fill="#000000" stroke="none">
<path d="M254 2600 c-67 -27 -123 -76 -159 -141 l-30 -54 0 -1065 0 -1065 30
-54 c37 -67 92 -115 163 -141 53 -20 71 -20 870 -18 l817 3 42 23 c63 33 106
74 139 134 l29 53 0 1065 0 1065 -23 42 c-33 63 -74 106 -134 139 l-53 29
-820 2 c-794 2 -822 2 -871 -17z m516 -237 c21 -27 22 -36 18 -218 -3 -171 -6
-194 -25 -230 -40 -76 -105 -115 -191 -115 -103 0 -191 81 -200 183 -4 48 -2
56 19 71 13 9 29 16 37 16 22 0 62 -48 62 -75 0 -68 102 -101 151 -49 23 25
24 30 27 217 3 158 6 195 19 209 24 26 58 22 83 -9z m557 -647 c53 -26 111
-85 139 -138 9 -18 19 -62 22 -98 l4 -65 57 -31 c133 -72 195 -248 131 -374
-46 -92 -147 -171 -238 -186 l-40 -6 34 -127 c33 -124 33 -126 15 -151 l-18
-25 -237 -3 c-151 -1 -244 1 -256 8 -33 18 -33 51 0 174 17 65 30 119 28 120
-2 1 -25 7 -53 14 -60 16 -144 69 -179 115 -14 18 -35 55 -47 82 -29 65 -23
158 14 231 30 58 103 128 152 144 30 10 33 14 39 68 4 31 17 80 30 107 29 63
109 136 173 158 67 24 165 16 230 -17z"/>
</g>
</svg>
