<?xml version="1.0" standalone="no"?>
<!DOCTYPE svg PUBLIC "-//W3C//DTD SVG 20010904//EN"
 "http://www.w3.org/TR/2001/REC-SVG-20010904/DTD/svg10.dtd">
<svg version="1.0" xmlns="http://www.w3.org/2000/svg"
 width="225.000000pt" height="272.000000pt" viewBox="0 0 225.000000 272.000000"
 preserveAspectRatio="xMidYMid meet">
<metadata>
Created by potrace 1.10, written by Peter Selinger 2001-2011
</metadata>
<g transform="translate(0.000000,272.000000) scale(0.100000,-0.100000)"
fill="#000000" stroke="none">
<path d="M264 2620 c-67 -27 -123 -76 -159 -141 l-30 -54 0 -1065 0 -1065 30
-54 c37 -67 92 -115 163 -141 53 -20 71 -20 870 -18 l817 3 42 23 c63 33 106
74 139 134 l29 53 0 1065 0 1065 -23 42 c-33 63 -74 106 -134 139 l-53 29
-820 2 c-794 2 -822 2 -871 -17z m215 -236 c18 -22 21 -41 21 -113 l0 -85 63
60 c168 162 187 174 227 134 37 -37 26 -59 -70 -150 l-91 -85 96 -108 c74 -84
95 -114 95 -137 0 -35 -38 -65 -69 -55 -10 3 -54 45 -97 93 -126 142 -110 129
-134 107 -17 -15 -20 -30 -20 -94 0 -93 -14 -125 -56 -129 -63 -6 -64 0 -64
290 0 229 2 264 17 280 23 26 58 22 82 -8z m858 -648 c53 -26 111 -85 139
-138 9 -18 19 -62 22 -98 l4 -65 57 -31 c133 -72 195 -248 131 -374 -46 -92
-147 -171 -238 -186 l-40 -6 33 -122 c34 -128 33 -156 -4 -175 -12 -7 -106
-11 -250 -11 -218 0 -232 1 -251 20 -26 26 -26 30 11 166 17 64 29 117 27 118
-2 1 -25 7 -53 14 -60 16 -144 69 -179 115 -14 18 -35 55 -47 82 -29 65 -23
158 14 231 30 58 103 128 152 144 30 10 33 14 39 68 4 31 17 80 30 107 29 63
109 136 173 158 67 24 165 16 230 -17z"/>
</g>
</svg>
