<?xml version="1.0" standalone="no"?>
<!DOCTYPE svg PUBLIC "-//W3C//DTD SVG 20010904//EN"
 "http://www.w3.org/TR/2001/REC-SVG-20010904/DTD/svg10.dtd">
<svg version="1.0" xmlns="http://www.w3.org/2000/svg"
 width="224.000000pt" height="269.000000pt" viewBox="0 0 224.000000 269.000000"
 preserveAspectRatio="xMidYMid meet">
<metadata>
Created by potrace 1.10, written by Peter Selinger 2001-2011
</metadata>
<g transform="translate(0.000000,269.000000) scale(0.100000,-0.100000)"
fill="#000000" stroke="none">
<path d="M264 2600 c-67 -27 -123 -76 -159 -141 l-30 -54 0 -1065 0 -1065 30
-54 c37 -67 92 -115 163 -141 53 -20 71 -20 870 -18 l817 3 42 23 c63 33 106
74 139 134 l29 53 0 1065 0 1065 -23 42 c-33 63 -74 106 -134 139 l-53 29
-820 2 c-794 2 -822 2 -871 -17z m541 -245 c61 -30 109 -79 139 -144 29 -64
28 -180 -1 -236 -18 -35 -19 -43 -7 -60 44 -60 -23 -138 -77 -89 -16 15 -22
14 -74 -5 -85 -32 -167 -29 -243 10 -69 34 -104 71 -138 144 -29 60 -32 149
-8 218 28 84 118 164 209 188 53 14 143 3 200 -26z m531 -638 c97 -49 163
-149 164 -247 l0 -55 58 -31 c134 -71 196 -247 132 -374 -46 -92 -147 -171
-238 -186 l-40 -6 34 -126 c35 -131 34 -151 -6 -172 -11 -6 -111 -10 -249 -10
-218 0 -232 1 -251 20 -26 26 -26 30 11 166 17 64 29 117 27 118 -2 1 -25 7
-53 14 -60 16 -144 69 -179 115 -14 18 -35 55 -47 82 -29 65 -23 158 14 231
30 58 103 128 152 144 30 10 33 14 39 68 7 58 41 141 73 177 91 102 241 132
359 72z"/>
<path d="M614 2259 c-37 -10 -101 -77 -110 -114 -4 -14 -4 -48 -2 -75 9 -94
82 -154 181 -148 l52 3 -3 38 c-6 62 37 94 88 67 17 -9 20 -6 26 25 25 134
-98 243 -232 204z"/>
</g>
</svg>
